<?xml version="1.0" encoding="UTF-8" standalone="no"?>
<svg
   width="24"
   height="24"
   version="1.1"
   id="svg7"
   sodipodi:docname="rofi-search.svg"
   inkscape:version="1.1.2 (0a00cf5339, 2022-02-04)"
   xmlns:inkscape="http://www.inkscape.org/namespaces/inkscape"
   xmlns:sodipodi="http://sodipodi.sourceforge.net/DTD/sodipodi-0.dtd"
   xmlns="http://www.w3.org/2000/svg"
   xmlns:svg="http://www.w3.org/2000/svg">
  <sodipodi:namedview
     id="namedview9"
     pagecolor="#ffffff"
     bordercolor="#666666"
     borderopacity="1.0"
     inkscape:pageshadow="2"
     inkscape:pageopacity="0.0"
     inkscape:pagecheckerboard="0"
     showgrid="false"
     inkscape:zoom="29.833333"
     inkscape:cx="11.446928"
     inkscape:cy="11.98324"
     inkscape:window-width="2560"
     inkscape:window-height="1477"
     inkscape:window-x="0"
     inkscape:window-y="25"
     inkscape:window-maximized="1"
     inkscape:current-layer="svg7" />
  <defs
     id="defs3">
    <style
       id="current-color-scheme"
       type="text/css">.ColorScheme-Text { color:#363636; }</style>
  </defs>
  <path
     class="ColorScheme-Text"
     d="m 9.4984794,0.505995 c -4.9697785,0 -8.99847953,4.028701 -8.99847953,8.9984791 0,4.9697789 4.02870103,8.9984799 8.99847953,8.9984799 1.8212916,-4.9e-5 3.5995556,-0.55272 5.1000106,-1.58496 l 6.029799,6.0298 c 1.568189,1.651139 3.984855,-0.822691 2.297557,-2.351875 l -3.84415,-3.841043 -2.17616,-2.176159 c 1.027103,-1.493569 1.587218,-3.259741 1.591357,-5.0744879 0,-4.9697785 -4.0287,-8.99847951 -8.9984791,-8.99847951 z m 0,1.6360871 c 4.0661666,0 7.3623916,3.2962248 7.3623916,7.362392 0,4.0661679 -3.296225,7.3623919 -7.3623916,7.3623919 -4.0661677,0 -7.3623924,-3.296224 -7.3623924,-7.3623919 0,-4.0661672 3.2962247,-7.362392 7.3623924,-7.362392 z"
     fill="currentColor"
     id="path5"
     style="fill:#ffffff;stroke-width:1.63608" />
</svg>
