/* XPM */
static char *bottom_right_inactive[] = {
/* columns rows colors chars-per-pixel */
"10 10 2 1 ",
"  c #232123 s inactive_color_2",
". c None",
/* pixels */
".......   ",
".......   ",
".......   ",
".......   ",
".......   ",
".......   ",
".......   ",
"          ",
"          ",
"          "
};
