/* XPM */
static char *close_inactive[] = {
/* columns rows colors chars-per-pixel */
"12 34 7 1 ",
"  c #232123 s inactive_color_2",
". c #312F31",
"X c #313031",
"o c gray47",
"O c #868686",
"+ c gray53",
"@ c #959595",
/* pixels */
"            ",
"            ",
"            ",
"            ",
"            ",
"            ",
"            ",
"            ",
"            ",
"            ",
"            ",
".o.      .o.",
"o@+.    .O@o",
"X+@+.  .O@+.",
" X+@+..O@+. ",
"  X+@++@+.  ",
"   X+@@+.   ",
"   .O@@O.   ",
"  .O@++@O.  ",
" .O@+XX+@O. ",
".+@+X  X+@O.",
"o@+.    .+@o",
"XoX      XoX",
"            ",
"            ",
"            ",
"            ",
"            ",
"            ",
"            ",
"            ",
"            ",
"            ",
"            "
};
