/* XPM */
static char *close_prelight[] = {
/* columns rows colors chars-per-pixel */
"12 34 8 1 ",
"  c #232123 s inactive_color_2",
". c #3D292E",
"X c #3D2A2E",
"o c #C05564",
"O c #C15664",
"+ c #DA5E6F",
"@ c #DB5E6F",
"# c #F5677A",
/* pixels */
"            ",
"            ",
"            ",
"            ",
"            ",
"            ",
"            ",
"            ",
"            ",
"            ",
"            ",
".o.      XoX",
"o#@.    X+#o",
".@#@.  .+#+.",
" .@#@..@#+. ",
"  .@#@@#+.  ",
"   X@##@.   ",
"   .@##@.   ",
"  .@#@+#+.  ",
" .@#@XX+#+. ",
".@#@X  X+#+.",
"o#@X    .+#o",
"XOX      XoX",
"            ",
"            ",
"            ",
"            ",
"            ",
"            ",
"            ",
"            ",
"            ",
"            ",
"            "
};
