/* XPM */
static char *close_active[] = {
/* columns rows colors chars-per-pixel */
"12 34 6 1 ",
"  c #232123 s inactive_color_2",
". c #3D2328",
"X c #BE2D41",
"o c #BE2E41",
"O c #D83046",
"+ c #F2324B",
/* pixels */
"            ",
"            ",
"            ",
"            ",
"            ",
"            ",
"            ",
"            ",
"            ",
"            ",
"            ",
".X.      .X.",
"X+O.    .O+X",
".O+O.  .O+O.",
" .O+O..O+O. ",
"  .O+OO+O.  ",
"   .O++O.   ",
"   .O++O.   ",
"  .O+OO+O.  ",
" .O+O..O+O. ",
".O+O.  .O+O.",
"X+O.    .O+X",
".X.      .X.",
"            ",
"            ",
"            ",
"            ",
"            ",
"            ",
"            ",
"            ",
"            ",
"            ",
"            "
};
