/* XPM */
static char *close_pressed[] = {
/* columns rows colors chars-per-pixel */
"12 34 7 1 ",
"  c #232123 s inactive_color_2",
". c #3A2025",
"X c #3A2125",
"o c #AD1D30",
"O c #C41D32",
"+ c #C41C33",
"@ c #DB1C35",
/* pixels */
"            ",
"            ",
"            ",
"            ",
"            ",
"            ",
"            ",
"            ",
"            ",
"            ",
"            ",
"XoX      XoX",
"o@+X    X+@o",
"X+@+X  X+@+X",
" X+@+XX+@+X ",
"  .+@++@+X  ",
"   .O@@OX   ",
"   .O@@OX   ",
"  .O@OO@+X  ",
" .O@+XXO@+X ",
".+@+X  X+@+X",
"o@+.    X+@o",
".o.      XoX",
"            ",
"            ",
"            ",
"            ",
"            ",
"            ",
"            ",
"            ",
"            ",
"            ",
"            "
};
