/* XPM */
static char *hide_active[] = {
/* columns rows colors chars-per-pixel */
"12 34 7 1 ",
"  c #232123 s inactive_color_2",
". c #4A273E",
"X c #4A283F",
"o c #5E2A4C",
"O c #7B2F60",
"+ c #983475",
"@ c #BF3B91",
/* pixels */
"            ",
"            ",
"            ",
"            ",
"            ",
"            ",
"            ",
"            ",
"            ",
"            ",
"            ",
"     ..     ",
"     ++     ",
"    .@@.    ",
"    ++++    ",
"   .@XX@.   ",
"   ++  ++   ",
"  .@o  .@.  ",
"  ++    ++  ",
" .@.    .@. ",
" ++      ++ ",
".@OooooooO@.",
"+@@@@@@@@@@+",
"            ",
"            ",
"            ",
"            ",
"            ",
"            ",
"            ",
"            ",
"            ",
"            ",
"            "
};
