/* XPM */
static char *hide_prelight[] = {
/* columns rows colors chars-per-pixel */
"12 34 8 1 ",
"  c #232123 s inactive_color_2",
". c #4B3142",
"X c #4B3143",
"o c #5F3952",
"O c #7D4569",
"+ c #9B5181",
"@ c #9B5182",
"# c #C361A1",
/* pixels */
"            ",
"            ",
"            ",
"            ",
"            ",
"            ",
"            ",
"            ",
"            ",
"            ",
"            ",
"     XX     ",
"     @@     ",
"    X##X    ",
"    @@@@    ",
"   X#XX#X   ",
"   ++  ++   ",
"  X#X  X#X  ",
"  ++    ++  ",
" X#X    X#X ",
" @+      @+ ",
"X#OooooooO#X",
"@##########+",
"            ",
"            ",
"            ",
"            ",
"            ",
"            ",
"            ",
"            ",
"            ",
"            ",
"            "
};
