/* XPM */
static char *hide_inactive[] = {
/* columns rows colors chars-per-pixel */
"12 34 8 1 ",
"  c #232123 s inactive_color_2",
". c #3F3E3F",
"X c #403E40",
"o c #4E4D4E",
"O c #626262",
"+ c gray47",
"@ c #797879",
"# c #959595",
/* pixels */
"            ",
"            ",
"            ",
"            ",
"            ",
"            ",
"            ",
"            ",
"            ",
"            ",
"            ",
"     ..     ",
"     @@     ",
"    X##.    ",
"    @@@@    ",
"   X#..#.   ",
"   @@  @@   ",
"  .#.  .#.  ",
"  @+    @+  ",
" .#.    .#. ",
" @@      @@ ",
"X#OooooooO#.",
"@##########+",
"            ",
"            ",
"            ",
"            ",
"            ",
"            ",
"            ",
"            ",
"            ",
"            ",
"            "
};
