/* XPM */
static char *hide_pressed[] = {
/* columns rows colors chars-per-pixel */
"12 34 11 1 ",
"  c #232123 s inactive_color_2",
". c #432539",
"X c #43253A",
"o c #442539",
"O c #542745",
"+ c #6B2A55",
"@ c #6C2A55",
"# c #842D66",
"$ c #852D66",
"% c #842E67",
"& c #A5327D",
/* pixels */
"            ",
"            ",
"            ",
"            ",
"            ",
"            ",
"            ",
"            ",
"            ",
"            ",
"            ",
"     XX     ",
"     %%     ",
"    X&&X    ",
"    %%%%    ",
"   X&oo&X   ",
"   %#  %%   ",
"  o&o  .&.  ",
"  %#    %%  ",
" o&o    .&. ",
" %#      %# ",
".&@OOOOOO+&.",
"%&&&&&&&&&&#",
"            ",
"            ",
"            ",
"            ",
"            ",
"            ",
"            ",
"            ",
"            ",
"            ",
"            "
};
