/* XPM */
static char *maximize_toggled_inactive[] = {
/* columns rows colors chars-per-pixel */
"12 34 5 1 ",
"  c #232123 s inactive_color_2",
". c gray47",
"X c #797879",
"o c #8E8E8E",
"O c #959595",
/* pixels */
"            ",
"            ",
"            ",
"            ",
"            ",
"            ",
"            ",
"            ",
"            ",
"            ",
"            ",
"OOOOOOOOOOOO",
"Oo........oO",
"O.        XO",
"O.        .O",
"O.        .O",
"O.        XO",
"O.        XO",
"O.        XO",
"O.        XO",
"O.        XO",
"Oo........oO",
"OOOOOOOOOOOO",
"            ",
"            ",
"            ",
"            ",
"            ",
"            ",
"            ",
"            ",
"            ",
"            ",
"            "
};
