/* XPM */
static char *maximize_prelight[] = {
/* columns rows colors chars-per-pixel */
"12 34 5 1 ",
"  c #232123 s inactive_color_2",
". c #3B819E",
"X c #3B829F",
"o c #419ABE",
"O c #43A2C8",
/* pixels */
"            ",
"            ",
"            ",
"            ",
"            ",
"            ",
"            ",
"            ",
"            ",
"            ",
"            ",
"OOOOOOOOOOOO",
"OoXXXXXXXXoO",
"OX        XO",
"OX        XO",
"OX        XO",
"OX        XO",
"OX        .O",
"OX        XO",
"OX        XO",
"OX        .O",
"Oo........oO",
"OOOOOOOOOOOO",
"            ",
"            ",
"            ",
"            ",
"            ",
"            ",
"            ",
"            ",
"            ",
"            ",
"            "
};
