/* XPM */
static char *maximize_toggled_active[] = {
/* columns rows colors chars-per-pixel */
"12 34 7 1 ",
"  c #232123 s inactive_color_2",
". c #0B6F98",
"X c #0C6F98",
"o c #0B7098",
"O c #0C7098",
"+ c #0683B5",
"@ c #048ABF",
/* pixels */
"            ",
"            ",
"            ",
"            ",
"            ",
"            ",
"            ",
"            ",
"            ",
"            ",
"            ",
"@@@@@@@@@@@@",
"@+oooooooo+@",
"@O        .@",
"@O        .@",
"@O        .@",
"@O        .@",
"@O        .@",
"@O        .@",
"@O        .@",
"@O        .@",
"@+XXXXXXXX+@",
"@@@@@@@@@@@@",
"            ",
"            ",
"            ",
"            ",
"            ",
"            ",
"            ",
"            ",
"            ",
"            ",
"            "
};
