<?xml version="1.0" encoding="UTF-8" standalone="no"?>
<svg
   width="24"
   height="24"
   viewBox="0 0 24 24"
   fill="none"
   version="1.1"
   id="svg1"
   sodipodi:docname="vlc.svg"
   inkscape:version="1.4 (e7c3feb100, 2024-10-09)"
   xmlns:inkscape="http://www.inkscape.org/namespaces/inkscape"
   xmlns:sodipodi="http://sodipodi.sourceforge.net/DTD/sodipodi-0.dtd"
   xmlns="http://www.w3.org/2000/svg"
   xmlns:svg="http://www.w3.org/2000/svg">
  <defs
     id="defs1" />
  <sodipodi:namedview
     id="namedview1"
     pagecolor="#ffffff"
     bordercolor="#000000"
     borderopacity="0.25"
     inkscape:showpageshadow="2"
     inkscape:pageopacity="0.0"
     inkscape:pagecheckerboard="0"
     inkscape:deskcolor="#d1d1d1"
     inkscape:zoom="50.875"
     inkscape:cx="12.009828"
     inkscape:cy="12"
     inkscape:window-width="2554"
     inkscape:window-height="1453"
     inkscape:window-x="0"
     inkscape:window-y="37"
     inkscape:window-maximized="1"
     inkscape:current-layer="svg1" />
  <path
     d="m 21.978357,21.079745 -2.67996,-5.359919 c -0.0557,-0.111128 -0.141231,-0.204569 -0.247002,-0.269967 -0.105769,-0.06527 -0.227707,-0.09987 -0.351967,-0.09987 H 17.20133 L 13.929099,3.3987074 C 13.673163,2.5183406 12.916074,1.9501888 11.999526,1.9501888 c -0.916542,0 -1.673633,0.5681518 -1.932276,1.4578985 L 6.7976979,15.349988 H 5.2995998 c -0.1243234,0 -0.2461896,0.03462 -0.3519768,0.09987 -0.1057778,0.06536 -0.1913047,0.158839 -0.2469942,0.269967 l -2.6799626,5.359918 c -0.050791,0.102198 -0.074698,0.215647 -0.069462,0.329635 0.0052,0.11399 0.039447,0.224761 0.099394,0.321865 0.059951,0.09712 0.1436633,0.177322 0.2432234,0.233068 0.09957,0.05568 0.2117084,0.08527 0.3258215,0.0855 H 21.379389 c 0.231815,0 0.447553,-0.120598 0.57083,-0.317575 0.0596,-0.09749 0.09361,-0.208496 0.09853,-0.322663 0.0055,-0.114168 -0.01922,-0.227707 -0.0704,-0.329907 z m -5.997748,-5.112022 c -0.356435,0.278715 -1.743316,0.722248 -3.981083,0.722248 -2.3490104,0 -3.7626894,-0.489092 -3.9998661,-0.653908 l 0.6606104,-2.411967 c 0.9219065,0.242539 2.1078177,0.385914 3.3392557,0.385914 1.231439,0 2.417326,-0.142041 3.339232,-0.385914 z M 10.768088,5.9218898 c 0.383236,0.02814 0.786566,0.04824 1.231438,0.04824 0.444878,0 0.848208,-0.0201 1.231439,-0.04824 l 0.711536,2.5982217 c -1.193926,0.1648174 -2.692023,0.1648174 -3.884631,0 z"
     fill="#ffffff"
     id="path1"
     style="stroke-width:0.893317;fill:#ff6600" />
</svg>
