<?xml version="1.0" encoding="UTF-8" standalone="no"?>
<svg
   width="22"
   height="22"
   viewBox="0 0 22 22"
   fill="none"
   version="1.1"
   id="svg1"
   sodipodi:docname="vlc.svg"
   inkscape:version="1.4 (e7c3feb100, 2024-10-09)"
   xmlns:inkscape="http://www.inkscape.org/namespaces/inkscape"
   xmlns:sodipodi="http://sodipodi.sourceforge.net/DTD/sodipodi-0.dtd"
   xmlns="http://www.w3.org/2000/svg"
   xmlns:svg="http://www.w3.org/2000/svg">
  <defs
     id="defs1" />
  <sodipodi:namedview
     id="namedview1"
     pagecolor="#ffffff"
     bordercolor="#000000"
     borderopacity="0.25"
     inkscape:showpageshadow="2"
     inkscape:pageopacity="0.0"
     inkscape:pagecheckerboard="0"
     inkscape:deskcolor="#d1d1d1"
     inkscape:zoom="55.5"
     inkscape:cx="10.990991"
     inkscape:cy="11"
     inkscape:window-width="2554"
     inkscape:window-height="1453"
     inkscape:window-x="0"
     inkscape:window-y="37"
     inkscape:window-maximized="1"
     inkscape:current-layer="svg1" />
  <path
     d="m 20.295655,19.458568 -2.496616,-4.993232 c -0.05179,-0.103586 -0.131548,-0.19065 -0.230051,-0.251477 -0.09859,-0.06084 -0.212077,-0.09302 -0.327919,-0.09302 H 15.845415 L 12.797091,2.987142 C 12.558689,2.1670084 11.853373,1.637726 10.999528,1.637726 c -0.853841,0 -1.5591484,0.5292824 -1.8000763,1.3581588 L 6.1535899,14.120803 H 4.757982 c -0.1158158,0 -0.2293527,0.03227 -0.327892,0.09302 -0.098549,0.06083 -0.1782221,0.147892 -0.2301064,0.251477 l -2.4966153,4.993231 c -0.047319,0.09522 -0.06959,0.200911 -0.064713,0.307038 0.00488,0.10622 0.036746,0.209444 0.092594,0.299866 0.055848,0.09058 0.1338322,0.165232 0.2265912,0.217159 0.092752,0.05188 0.1972137,0.07942 0.3035242,0.07968 H 19.737684 c 0.21598,0 0.41689,-0.112393 0.531733,-0.295871 0.0556,-0.09074 0.08727,-0.194193 0.09189,-0.300502 0.0051,-0.106402 -0.01792,-0.212169 -0.06565,-0.307403 z m -5.587425,-4.76227 c -0.332002,0.259645 -1.62407,0.672813 -3.708702,0.672813 -2.1882955,0 -3.5052646,-0.455655 -3.7262106,-0.609173 l 0.6154114,-2.246957 c 0.8588355,0.225967 1.9635926,0.359515 3.1107992,0.359515 1.147175,0 2.251948,-0.132365 3.110783,-0.359515 z M 9.8523214,5.33771 c 0.3570066,0.02621 0.7327706,0.044939 1.1472066,0.044939 0.414441,0 0.790204,-0.01873 1.147175,-0.044939 l 0.662828,2.4204641 c -1.112223,0.1535464 -2.507782,0.1535464 -3.6188128,0 z"
     fill="white"
     id="path1"
     style="fill:#ff6600;stroke-width:0.90786" />
</svg>
