<?xml version="1.0" encoding="UTF-8" standalone="no"?>
<svg
   style="isolation:isolate"
   width="256"
   height="256"
   version="1.1"
   id="svg5"
   xml:space="preserve"
   xmlns="http://www.w3.org/2000/svg"
   xmlns:svg="http://www.w3.org/2000/svg"><defs
     id="defs1"><filter
       id="a"
       width="1.0842484"
       height="1.1077841"
       x="-0.042124196"
       y="-0.045133094"
       color-interpolation-filters="sRGB"
       filterUnits="objectBoundingBox"><feGaussianBlur
         in="SourceGraphic"
         stdDeviation="4.294"
         id="feGaussianBlur1" /><feOffset
         dy="4"
         result="pf_100_offsetBlur"
         id="feOffset1" /><feFlood
         flood-opacity=".4"
         id="feFlood1" /><feComposite
         in2="pf_100_offsetBlur"
         operator="in"
         result="pf_100_dropShadow"
         id="feComposite1" /><feBlend
         in="SourceGraphic"
         in2="pf_100_dropShadow"
         id="feBlend1" /></filter></defs><path
     fill="#f7f7f7"
     d="M165.689 11.95c74.056 0 84.639 10.557 84.639 84.544v59.251c0 73.986-10.583 84.543-84.639 84.543h-75.37c-74.055 0-84.639-10.557-84.639-84.543V96.494c0-73.987 10.584-84.544 84.639-84.544h75.37z"
     filter="url(#a)"
     id="path1"
     style="fill:#214478;fill-opacity:1" /><defs
     id="defs2"><filter
       id="b"
       width="1.1421462"
       height="1.2085695"
       x="-0.071073106"
       y="-0.087335595"
       color-interpolation-filters="sRGB"
       filterUnits="objectBoundingBox"><feGaussianBlur
         in="SourceGraphic"
         stdDeviation="4.294"
         id="feGaussianBlur2" /><feOffset
         dy="4"
         result="pf_100_offsetBlur"
         id="feOffset2" /><feFlood
         flood-opacity=".4"
         id="feFlood2" /><feComposite
         in2="pf_100_offsetBlur"
         operator="in"
         result="pf_100_dropShadow"
         id="feComposite2" /><feBlend
         in="SourceGraphic"
         in2="pf_100_dropShadow"
         id="feBlend2" /></filter></defs><g
     opacity=".4"
     id="g5"><linearGradient
       id="c"
       x1=".517"
       x2=".517"
       y2="1"
       gradientTransform="matrix(244.65 0 0 228.34 5.68 11.95)"
       gradientUnits="userSpaceOnUse"><stop
         offset="0%"
         stop-color="#ffffff"
         id="stop2" /><stop
         offset="12.5%"
         stop-color="#ffffff"
         stop-opacity=".098"
         id="stop3" /><stop
         offset="92.5%"
         stop-opacity=".098"
         id="stop4" /><stop
         offset="100%"
         stop-opacity=".498"
         id="stop5" /></linearGradient><path
       fill="url(#c)"
       fill-rule="evenodd"
       d="M165.068 11.951c4.328-.01 8.656.04 12.984.138 3.875.078 7.75.226 11.626.452 3.453.196 6.905.481 10.348.854 3.06.335 6.118.786 9.148 1.346a80.47 80.47 0 0 1 8.046 1.916 53.64 53.64 0 0 1 7.023 2.584 40.413 40.413 0 0 1 6.06 3.35 35.176 35.176 0 0 1 5.134 4.215 35.072 35.072 0 0 1 4.22 5.119 41.692 41.692 0 0 1 3.363 6.042 55.982 55.982 0 0 1 2.597 7.005 80.224 80.224 0 0 1 1.918 8.037 124.43 124.43 0 0 1 1.348 9.127c.374 3.439.659 6.878.856 10.326.226 3.861.373 7.732.462 11.593.088 4.323.138 8.646.128 12.96v58.21c.01 4.324-.04 8.637-.128 12.96a325.177 325.177 0 0 1-.462 11.593 200.984 200.984 0 0 1-.856 10.326 124.691 124.691 0 0 1-1.348 9.137 80.687 80.687 0 0 1-1.918 8.027 55.414 55.414 0 0 1-2.597 7.005 41.18 41.18 0 0 1-3.364 6.042 34.559 34.559 0 0 1-4.22 5.119 35.177 35.177 0 0 1-5.134 4.215 40.412 40.412 0 0 1-6.059 3.35 55.138 55.138 0 0 1-7.023 2.594 77.806 77.806 0 0 1-8.046 1.906 120 120 0 0 1-9.148 1.346c-3.443.373-6.895.658-10.348.854-3.875.226-7.75.374-11.626.462-4.328.088-8.656.138-12.984.128H90.942c-4.328.01-8.656-.04-12.984-.128a328.387 328.387 0 0 1-11.626-.462 203.003 203.003 0 0 1-10.348-.854 120 120 0 0 1-9.148-1.346 77.806 77.806 0 0 1-8.046-1.906 55.139 55.139 0 0 1-7.023-2.594 40.413 40.413 0 0 1-6.06-3.35 35.176 35.176 0 0 1-5.134-4.215 34.56 34.56 0 0 1-4.22-5.119 41.183 41.183 0 0 1-3.363-6.042 55.415 55.415 0 0 1-2.597-7.005 80.682 80.682 0 0 1-1.918-8.027 124.688 124.688 0 0 1-1.348-9.137 200.993 200.993 0 0 1-.856-10.326 325.212 325.212 0 0 1-.462-11.593 569.197 569.197 0 0 1-.128-12.96v-58.21c-.01-4.314.04-8.637.128-12.96.089-3.86.236-7.732.462-11.593.197-3.448.482-6.887.856-10.326.335-3.055.787-6.101 1.348-9.127a80.219 80.219 0 0 1 1.918-8.037 55.983 55.983 0 0 1 2.597-7.005 41.695 41.695 0 0 1 3.364-6.042 35.072 35.072 0 0 1 4.22-5.119 35.176 35.176 0 0 1 5.134-4.215 40.413 40.413 0 0 1 6.059-3.35 53.64 53.64 0 0 1 7.023-2.584 80.47 80.47 0 0 1 8.046-1.916 125.11 125.11 0 0 1 9.148-1.346c3.443-.373 6.895-.658 10.348-.854 3.875-.226 7.75-.374 11.626-.452 4.328-.098 8.656-.148 12.984-.138h74.126zm.01 4.009c4.298-.01 8.597.039 12.895.127 3.827.089 7.653.236 11.48.452 3.383.197 6.766.472 10.13.845 2.971.315 5.932.747 8.863 1.297a75.943 75.943 0 0 1 7.653 1.818 50.493 50.493 0 0 1 6.501 2.397 37.038 37.038 0 0 1 5.47 3.026 30.383 30.383 0 0 1 4.524 3.724 31.05 31.05 0 0 1 3.738 4.519 37.271 37.271 0 0 1 3.03 5.443 51.46 51.46 0 0 1 2.4 6.494 75.563 75.563 0 0 1 1.829 7.634c.54 2.928.974 5.875 1.298 8.842.374 3.36.65 6.73.846 10.11.217 3.822.374 7.634.453 11.456.088 4.293.137 8.577.137 12.87v58.212c0 4.293-.049 8.577-.137 12.87a317.503 317.503 0 0 1-.453 11.456c-.196 3.38-.472 6.75-.846 10.12a121.689 121.689 0 0 1-1.298 8.832 75.562 75.562 0 0 1-1.83 7.634 50.902 50.902 0 0 1-2.4 6.494 36.767 36.767 0 0 1-3.03 5.443 30.615 30.615 0 0 1-3.737 4.53 30.938 30.938 0 0 1-4.525 3.713 37.038 37.038 0 0 1-5.469 3.026 49.07 49.07 0 0 1-6.501 2.397 75.942 75.942 0 0 1-7.653 1.818c-2.931.55-5.892.982-8.863 1.306-3.364.364-6.747.649-10.13.836-3.827.216-7.653.373-11.48.452-4.298.098-8.597.137-12.895.137H90.932c-4.298 0-8.597-.04-12.895-.137a320.093 320.093 0 0 1-11.48-.452 193.696 193.696 0 0 1-10.13-.836 116.71 116.71 0 0 1-8.863-1.306 75.942 75.942 0 0 1-7.653-1.818 49.07 49.07 0 0 1-6.501-2.397 37.038 37.038 0 0 1-5.47-3.026 30.938 30.938 0 0 1-4.524-3.714 30.615 30.615 0 0 1-3.738-4.529 36.766 36.766 0 0 1-3.03-5.443 50.903 50.903 0 0 1-2.4-6.494 75.567 75.567 0 0 1-1.829-7.634 121.69 121.69 0 0 1-1.298-8.832c-.374-3.37-.65-6.74-.846-10.12a317.535 317.535 0 0 1-.453-11.456 623.851 623.851 0 0 1-.137-12.87V97.014c0-4.293.049-8.577.137-12.87.079-3.822.236-7.634.453-11.456.197-3.38.472-6.75.846-10.11.324-2.967.757-5.914 1.298-8.842a75.568 75.568 0 0 1 1.83-7.634 51.46 51.46 0 0 1 2.4-6.494 37.27 37.27 0 0 1 3.03-5.443 31.05 31.05 0 0 1 3.737-4.52 30.384 30.384 0 0 1 4.525-3.723 37.039 37.039 0 0 1 5.469-3.026 50.494 50.494 0 0 1 6.501-2.397 75.943 75.943 0 0 1 7.653-1.818c2.931-.55 5.892-.982 8.863-1.297 3.364-.373 6.747-.648 10.13-.845a344.71 344.71 0 0 1 11.48-.452c4.298-.088 8.597-.137 12.895-.127H165.078z"
       id="path5" /></g><g
     id="g6"
     transform="matrix(0.2123217,0,0,0.2123217,-321.11829,-301.18168)"><g
       id="g7"
       transform="matrix(3.845795,0,0,3.845795,1623.0131,1519.4453)"><g
         stroke-width="2"
         fill="none"
         stroke-linecap="butt"
         id="g3"><path
           stroke="#b7e858"
           vector-effect="non-scaling-stroke"
           d="M 208.43,77.3 Q 205.48,73.17 202.2,71.28 171.6,53.63 140.94,36.05 c -9.84,-5.64 -19.79,-3.6 -29.54,1.98 Q 84.99,53.14 58.68,68.42 51.4,72.64 46.97,77.23"
           id="path1-7" /><path
           stroke="#b7e858"
           vector-effect="non-scaling-stroke"
           d="m 133.01,223.09 q 4.37,-0.41 8.84,-2.96 24.49,-13.99 48.89,-28.12 c 16.81,-9.74 24.02,-14.08 24.02,-35.14 q -0.01,-32.16 -0.03,-64.31 0,-2.44 -1.58,-5.9"
           id="path2" /><path
           stroke="#b7e858"
           vector-effect="non-scaling-stroke"
           d="m 42.64,86.73 q -1.63,3.58 -1.64,9.77 -0.02,30.7 0.02,61.4 c 0.02,16.65 4.55,23.16 19.08,31.58 q 27.29,15.82 54.67,31.49 3.71,2.12 7.72,2.38"
           id="path3" /></g><path
         fill="#c8f178"
         d="M 208.43,77.3 Q 205.48,73.17 202.2,71.28 171.6,53.63 140.94,36.05 c -9.84,-5.64 -19.79,-3.6 -29.54,1.98 Q 84.99,53.14 58.68,68.42 51.4,72.64 46.97,77.23 L 24.3,64.11 a 0.71,0.7 34.3 0 1 -0.2,-1.05 c 3.19,-3.92 6.41,-6.65 11.08,-9.36 Q 71.51,32.61 107.95,11.73 c 9.59,-5.5 18.01,-7.64 28.37,-5.02 q 4.86,1.23 14.71,6.87 57.63,32.99 72.75,41.87 4.4,2.58 7.97,7.78 0.31,0.44 -0.16,0.71 z"
         id="path4" /><path
         fill="#a5de37"
         d="m 208.43,77.3 q -30.29,17.5 -60.4,34.92 c -8.75,5.06 -14.58,9.59 -19.93,17.18 a 0.33,0.33 0 0 1 -0.54,0 c -7.3,-10.26 -14.44,-13.98 -27.61,-21.6 Q 73.24,92.34 46.97,77.23 51.4,72.64 58.68,68.42 84.99,53.14 111.4,38.03 c 9.75,-5.58 19.7,-7.62 29.54,-1.98 q 30.66,17.58 61.26,35.23 3.28,1.89 6.23,6.02 z"
         id="path5-5" /><path
         fill="#c8f178"
         d="m 133.01,223.09 q 4.37,-0.41 8.84,-2.96 24.49,-13.99 48.89,-28.12 c 16.81,-9.74 24.02,-14.08 24.02,-35.14 q -0.01,-32.16 -0.03,-64.31 0,-2.44 -1.58,-5.9 l 23.4,-13.51 q 0.46,-0.27 0.64,0.23 2.03,5.4 2.04,8.68 0.04,40.96 0.02,81.93 0,13.14 -1.56,18.38 c -3.34,11.24 -9.94,16.6 -20.71,22.82 q -35.93,20.73 -71.96,41.31 -5.07,2.89 -11.25,4.01 -0.76,0.14 -0.76,-0.63 z"
         id="path6" /><path
         fill="#c8f178"
         d="m 42.64,86.73 q -1.63,3.58 -1.64,9.77 -0.02,30.7 0.02,61.4 c 0.02,16.65 4.55,23.16 19.08,31.58 q 27.29,15.82 54.67,31.49 3.71,2.12 7.72,2.38 l -0.03,26.56 q 0,0.57 -0.56,0.49 -5.87,-0.79 -9.93,-3.09 Q 93.42,236.77 38.78,205.06 C 22.15,195.41 16.79,186.62 16.77,167.1 Q 16.72,126.82 16.76,86.53 c 0,-4.97 0.43,-8.59 1.83,-12.95 a 0.53,0.52 24 0 1 0.76,-0.29 z"
         id="path7" /><path
         fill="#a5de37"
         d="m 42.64,86.73 q 50.06,28.65 63.91,36.95 11.01,6.61 14.57,18.59 1.39,4.68 1.39,14.07 -0.01,33.43 -0.02,67.01 -4.01,-0.26 -7.72,-2.38 Q 87.39,205.3 60.1,189.48 C 45.57,181.06 41.04,174.55 41.02,157.9 Q 40.98,127.2 41,96.5 q 0.01,-6.19 1.64,-9.77 z"
         id="path8" /><path
         fill="#a5de37"
         d="m 213.15,86.66 q 1.58,3.46 1.58,5.9 0.02,32.15 0.03,64.31 c 0,21.06 -7.21,25.4 -24.02,35.14 q -24.4,14.13 -48.89,28.12 -4.47,2.55 -8.84,2.96 -0.02,-35.39 0,-70.61 c 0,-16.82 8.88,-24.52 23.13,-32.88 q 28.4,-16.66 57.01,-32.94 z"
         id="path9" /></g></g></svg>
