<?xml version="1.0" encoding="UTF-8" standalone="no"?>
<svg
   style="isolation:isolate"
   width="256"
   height="256"
   version="1.1"
   id="svg45"
   sodipodi:docname="chainner.svg"
   inkscape:version="1.1.2 (0a00cf5339, 2022-02-04)"
   xmlns:inkscape="http://www.inkscape.org/namespaces/inkscape"
   xmlns:sodipodi="http://sodipodi.sourceforge.net/DTD/sodipodi-0.dtd"
   xmlns="http://www.w3.org/2000/svg"
   xmlns:svg="http://www.w3.org/2000/svg">
  <sodipodi:namedview
     id="namedview47"
     pagecolor="#ffffff"
     bordercolor="#666666"
     borderopacity="1.0"
     inkscape:pageshadow="2"
     inkscape:pageopacity="0.0"
     inkscape:pagecheckerboard="0"
     showgrid="false"
     inkscape:zoom="2.796875"
     inkscape:cx="124.96089"
     inkscape:cy="128"
     inkscape:window-width="2560"
     inkscape:window-height="1468"
     inkscape:window-x="0"
     inkscape:window-y="25"
     inkscape:window-maximized="1"
     inkscape:current-layer="g1022" />
  <defs
     id="defs13">
    <filter
       id="a"
       width="1.0842484"
       height="1.1077841"
       x="-0.042124196"
       y="-0.045133094"
       color-interpolation-filters="sRGB"
       filterUnits="objectBoundingBox">
      <feGaussianBlur
         in="SourceGraphic"
         stdDeviation="4.294"
         id="feGaussianBlur2" />
      <feOffset
         dy="4"
         result="pf_100_offsetBlur"
         id="feOffset4" />
      <feFlood
         flood-opacity=".4"
         id="feFlood6" />
      <feComposite
         in2="pf_100_offsetBlur"
         operator="in"
         result="pf_100_dropShadow"
         id="feComposite8" />
      <feBlend
         in="SourceGraphic"
         in2="pf_100_dropShadow"
         id="feBlend10" />
    </filter>
  </defs>
  <path
     fill="#f7f7f7"
     d="M165.689 11.95c74.056 0 84.639 10.557 84.639 84.544v59.251c0 73.986-10.583 84.543-84.639 84.543h-75.37c-74.055 0-84.639-10.557-84.639-84.543V96.494c0-73.987 10.584-84.544 84.639-84.544h75.37z"
     filter="url(#a)"
     id="path15"
     style="fill:#dddddd;fill-opacity:1" />
  <defs
     id="defs28">
    <filter
       id="b"
       width="1.1421462"
       height="1.2085695"
       x="-0.071073106"
       y="-0.087335595"
       color-interpolation-filters="sRGB"
       filterUnits="objectBoundingBox">
      <feGaussianBlur
         in="SourceGraphic"
         stdDeviation="4.294"
         id="feGaussianBlur17" />
      <feOffset
         dy="4"
         result="pf_100_offsetBlur"
         id="feOffset19" />
      <feFlood
         flood-opacity=".4"
         id="feFlood21" />
      <feComposite
         in2="pf_100_offsetBlur"
         operator="in"
         result="pf_100_dropShadow"
         id="feComposite23" />
      <feBlend
         in="SourceGraphic"
         in2="pf_100_dropShadow"
         id="feBlend25" />
    </filter>
  </defs>
  <g
     opacity=".4"
     id="g43">
    <linearGradient
       id="c"
       x1=".517"
       x2=".517"
       y2="1"
       gradientTransform="matrix(244.65 0 0 228.34 5.68 11.95)"
       gradientUnits="userSpaceOnUse">
      <stop
         offset="0%"
         stop-color="#ffffff"
         id="stop32" />
      <stop
         offset="12.5%"
         stop-color="#ffffff"
         stop-opacity=".098"
         id="stop34" />
      <stop
         offset="92.5%"
         stop-opacity=".098"
         id="stop36" />
      <stop
         offset="100%"
         stop-opacity=".498"
         id="stop38" />
    </linearGradient>
    <path
       fill="url(#c)"
       fill-rule="evenodd"
       d="M165.068 11.951c4.328-.01 8.656.04 12.984.138 3.875.078 7.75.226 11.626.452 3.453.196 6.905.481 10.348.854 3.06.335 6.118.786 9.148 1.346a80.47 80.47 0 0 1 8.046 1.916 53.64 53.64 0 0 1 7.023 2.584 40.413 40.413 0 0 1 6.06 3.35 35.176 35.176 0 0 1 5.134 4.215 35.072 35.072 0 0 1 4.22 5.119 41.692 41.692 0 0 1 3.363 6.042 55.982 55.982 0 0 1 2.597 7.005 80.224 80.224 0 0 1 1.918 8.037 124.43 124.43 0 0 1 1.348 9.127c.374 3.439.659 6.878.856 10.326.226 3.861.373 7.732.462 11.593.088 4.323.138 8.646.128 12.96v58.21c.01 4.324-.04 8.637-.128 12.96a325.177 325.177 0 0 1-.462 11.593 200.984 200.984 0 0 1-.856 10.326 124.691 124.691 0 0 1-1.348 9.137 80.687 80.687 0 0 1-1.918 8.027 55.414 55.414 0 0 1-2.597 7.005 41.18 41.18 0 0 1-3.364 6.042 34.559 34.559 0 0 1-4.22 5.119 35.177 35.177 0 0 1-5.134 4.215 40.412 40.412 0 0 1-6.059 3.35 55.138 55.138 0 0 1-7.023 2.594 77.806 77.806 0 0 1-8.046 1.906 120 120 0 0 1-9.148 1.346c-3.443.373-6.895.658-10.348.854-3.875.226-7.75.374-11.626.462-4.328.088-8.656.138-12.984.128H90.942c-4.328.01-8.656-.04-12.984-.128a328.387 328.387 0 0 1-11.626-.462 203.003 203.003 0 0 1-10.348-.854 120 120 0 0 1-9.148-1.346 77.806 77.806 0 0 1-8.046-1.906 55.139 55.139 0 0 1-7.023-2.594 40.413 40.413 0 0 1-6.06-3.35 35.176 35.176 0 0 1-5.134-4.215 34.56 34.56 0 0 1-4.22-5.119 41.183 41.183 0 0 1-3.363-6.042 55.415 55.415 0 0 1-2.597-7.005 80.682 80.682 0 0 1-1.918-8.027 124.688 124.688 0 0 1-1.348-9.137 200.993 200.993 0 0 1-.856-10.326 325.212 325.212 0 0 1-.462-11.593 569.197 569.197 0 0 1-.128-12.96v-58.21c-.01-4.314.04-8.637.128-12.96.089-3.86.236-7.732.462-11.593.197-3.448.482-6.887.856-10.326.335-3.055.787-6.101 1.348-9.127a80.219 80.219 0 0 1 1.918-8.037 55.983 55.983 0 0 1 2.597-7.005 41.695 41.695 0 0 1 3.364-6.042 35.072 35.072 0 0 1 4.22-5.119 35.176 35.176 0 0 1 5.134-4.215 40.413 40.413 0 0 1 6.059-3.35 53.64 53.64 0 0 1 7.023-2.584 80.47 80.47 0 0 1 8.046-1.916 125.11 125.11 0 0 1 9.148-1.346c3.443-.373 6.895-.658 10.348-.854 3.875-.226 7.75-.374 11.626-.452 4.328-.098 8.656-.148 12.984-.138h74.126zm.01 4.009c4.298-.01 8.597.039 12.895.127 3.827.089 7.653.236 11.48.452 3.383.197 6.766.472 10.13.845 2.971.315 5.932.747 8.863 1.297a75.943 75.943 0 0 1 7.653 1.818 50.493 50.493 0 0 1 6.501 2.397 37.038 37.038 0 0 1 5.47 3.026 30.383 30.383 0 0 1 4.524 3.724 31.05 31.05 0 0 1 3.738 4.519 37.271 37.271 0 0 1 3.03 5.443 51.46 51.46 0 0 1 2.4 6.494 75.563 75.563 0 0 1 1.829 7.634c.54 2.928.974 5.875 1.298 8.842.374 3.36.65 6.73.846 10.11.217 3.822.374 7.634.453 11.456.088 4.293.137 8.577.137 12.87v58.212c0 4.293-.049 8.577-.137 12.87a317.503 317.503 0 0 1-.453 11.456c-.196 3.38-.472 6.75-.846 10.12a121.689 121.689 0 0 1-1.298 8.832 75.562 75.562 0 0 1-1.83 7.634 50.902 50.902 0 0 1-2.4 6.494 36.767 36.767 0 0 1-3.03 5.443 30.615 30.615 0 0 1-3.737 4.53 30.938 30.938 0 0 1-4.525 3.713 37.038 37.038 0 0 1-5.469 3.026 49.07 49.07 0 0 1-6.501 2.397 75.942 75.942 0 0 1-7.653 1.818c-2.931.55-5.892.982-8.863 1.306-3.364.364-6.747.649-10.13.836-3.827.216-7.653.373-11.48.452-4.298.098-8.597.137-12.895.137H90.932c-4.298 0-8.597-.04-12.895-.137a320.093 320.093 0 0 1-11.48-.452 193.696 193.696 0 0 1-10.13-.836 116.71 116.71 0 0 1-8.863-1.306 75.942 75.942 0 0 1-7.653-1.818 49.07 49.07 0 0 1-6.501-2.397 37.038 37.038 0 0 1-5.47-3.026 30.938 30.938 0 0 1-4.524-3.714 30.615 30.615 0 0 1-3.738-4.529 36.766 36.766 0 0 1-3.03-5.443 50.903 50.903 0 0 1-2.4-6.494 75.567 75.567 0 0 1-1.829-7.634 121.69 121.69 0 0 1-1.298-8.832c-.374-3.37-.65-6.74-.846-10.12a317.535 317.535 0 0 1-.453-11.456 623.851 623.851 0 0 1-.137-12.87V97.014c0-4.293.049-8.577.137-12.87.079-3.822.236-7.634.453-11.456.197-3.38.472-6.75.846-10.11.324-2.967.757-5.914 1.298-8.842a75.568 75.568 0 0 1 1.83-7.634 51.46 51.46 0 0 1 2.4-6.494 37.27 37.27 0 0 1 3.03-5.443 31.05 31.05 0 0 1 3.737-4.52 30.384 30.384 0 0 1 4.525-3.723 37.039 37.039 0 0 1 5.469-3.026 50.494 50.494 0 0 1 6.501-2.397 75.943 75.943 0 0 1 7.653-1.818c2.931-.55 5.892-.982 8.863-1.297 3.364-.373 6.747-.648 10.13-.845a344.71 344.71 0 0 1 11.48-.452c4.298-.088 8.597-.137 12.895-.127H165.078z"
       id="path41" />
  </g>
  <g
     transform="matrix(0.01646268,0,0,-0.01646268,-187.50788,364.11696)"
     fill="#000000"
     stroke="none"
     id="g1022">
    <path
       d="m 18766.407,19798.626 c -1670.4,-106.8 -3217.199,-1015.2 -4142.399,-2434.799 -463.2,-710.4 -745.2,-1506 -842.4,-2378.4 -25.2,-230.4 -28.8,-822 -6,-1041.6 126,-1224 591.6,-2266.8 1412.4,-3167.999 154.8,-169.2 519.6,-517.2 709.2,-674.4 815.999,-681.6002 1785.599,-1088.4 2872.799,-1204.8 254.4,-27.6 777.6,-27.6 1032,0 1252.8,134.3999 2349.6,653.9997 3221.999,1525.2 868.8,867.6 1390.8,1971.599 1525.2,3221.999 27.6,254.4 27.6,778.8 0,1032 -46.8,432 -172.8,1028.4 -301.2,1420.8 -118.8,367.2 -343.2,846 -544.8,1168.8 -663.6,1058.399 -1657.199,1851.599 -2821.199,2252.399 -678,231.6 -1390.8,326.4 -2115.6,280.8 z m 2335.2,-1184.4 c 176.4,-80.4 258,-250.8 206.4,-428.4 -18,-63.6 -33.6,-84 -169.2,-223.2 l -150,-152.4 111.6,-26.4 c 289.2,-70.8 482.4,-153.599 685.2,-296.399 175.2,-123.6 343.2,-302.4 461.999,-489.6 100.8,-160.8 202.8,-427.2 250.8,-654 30,-144 30,-504 0,-648 -51.6,-238.8 -139.2,-447.6 -282,-664.8 -65.999,-100.8 -140.399,-182.4 -449.999,-495.6 -418.8,-421.2 -428.4,-428.4 -579.6,-428.4 -104.4,0 -199.2,42 -261.6,115.2 -63.6,74.4 -84,124.8 -88.8,228 -8.4,152.4 3.6,169.2 362.4,525.6 345.6,342 423.6,432 495.6,570 208.8,403.2 134.4,909.6 -181.2,1239.6 -318,332.4 -807.6,423.6 -1230,229.2 -55.2,-25.2 -127.2,-66 -162,-91.2 -158.4,-114 -1249.2,-1213.2 -1366.8,-1377.6 -202.8,-285.6 -252,-602.4 -138,-897.6 58.8,-154.8 162,-308.4 282,-423.6 21.6,-20.4 54,-69.6 72,-108 44.4,-93.6 46.8,-235.2 7.2,-312 -67.2,-126 -178.8,-196.8 -310.8,-196.8 -136.8,0 -222,50.4 -381.6,228 -195.6,217.2 -344.4,512.4 -410.4,811.2 -28.8,134.4 -28.8,450 0,604.8 62.4,325.2 230.4,657.6 466.8,924 49.2,56.4 615.6,626.4 1257.6,1266 1281.6,1277.999 1198.8,1203.599 1352.4,1204.799 57.6,1.2 92.4,-6 150,-32.4 z m -4954.799,-2181.599 c 75.599,-26.4 165.599,-116.4 191.999,-192 76.8,-226.8 -96,-454.8 -328.799,-433.2 -162,14.4 -285.6,138 -297.6,297.6 -16.8,231.6 211.2,403.2 434.4,327.6 z m 3615.599,-1191.6 c 60,-30 243.6,-222 331.2,-344.4 135.6,-192 242.4,-434.4 291.6,-664.8 32.4,-152.4 30,-468 -4.8,-631.2 -62.4,-290.4 -192,-561.6 -387.6,-812.4 -26.4,-33.6 -600,-614.4 -1274.4,-1289.999 -1123.2,-1123.2 -1231.2,-1228.8 -1290,-1250.4 -138,-51.6 -270,-22.8 -376.8,84 -74.4,75.6 -105.6,148.8 -105.6,254.4 0,109.2 33.6,168 188.4,324 154.8,157.2 153.6,152.4 39.6,176.4 -36,8.4 -79.2,19.2 -96,25.2 -16.8,6 -70.8,21.6 -120,36 -111.6,33.6 -318,130.8 -414,195.6 -349.2,238.8 -574.799,537.599 -700.799,926.399 -70.8,218.4 -86.4,302.4 -93.6,524.4 -4.8,156 -2.4,225.6 14.4,324 43.2,260.4 163.2,546 327.6,777.6 55.2,79.2 181.199,217.2 409.199,446.4 181.2,183.6 348,345.6 372,362.4 24,15.6 72,38.4 108,50.4 130.8,42 302.4,-16.8 381.6,-132 51.6,-75.6 80.4,-174 72,-249.6 -14.4,-122.4 -36,-150 -414,-531.6 -368.4,-372 -408,-421.2 -482.4,-594 -104.4,-244.8 -109.2,-548.4 -13.2,-798 58.8,-151.2 127.2,-253.2 252,-378 134.4,-133.2 256.8,-208.8 433.2,-265.2 103.2,-33.6 130.8,-38.4 294,-40.8 157.2,-3.6 193.2,-1.2 286.8,24 128.4,33.6 296.4,115.2 403.2,196.8 120,91.2 1248,1230 1308,1320 66,98.4 148.8,273.6 175.2,373.2 30,108 31.2,360 1.2,468 -45.6,170.4 -135.6,320.4 -298.8,499.2 -98.4,109.2 -129.6,176.4 -129.6,282 0,176.4 126,322.8 295.2,344.4 82.8,10.8 153.6,0 217.2,-32.4 z m 2618.399,-2287.2 c 66,-36 132,-114 156,-184.8 45.6,-138 -22.8,-306 -156,-378 -130.8,-72 -277.199,-51.6 -381.599,52.8 -130.8,130.8 -130.8,325.2 0,456 73.2,73.2 135.6,97.2 239.999,91.2 58.8,-2.4 94.8,-12 141.6,-37.2 z"
       id="path864"
       style="fill:#1a202c;fill-opacity:1;stroke:#4a5568;stroke-width:182.23;stroke-miterlimit:4;stroke-dasharray:none;stroke-opacity:1" />
  </g>
</svg>
