<?xml version="1.0" encoding="UTF-8" standalone="no"?>
<svg
   style="isolation:isolate"
   width="256"
   height="256"
   version="1.1"
   id="svg45"
   sodipodi:docname="steamlink.svg"
   inkscape:version="1.1.2 (0a00cf5339, 2022-02-04)"
   xmlns:inkscape="http://www.inkscape.org/namespaces/inkscape"
   xmlns:sodipodi="http://sodipodi.sourceforge.net/DTD/sodipodi-0.dtd"
   xmlns:xlink="http://www.w3.org/1999/xlink"
   xmlns="http://www.w3.org/2000/svg"
   xmlns:svg="http://www.w3.org/2000/svg">
  <sodipodi:namedview
     id="namedview47"
     pagecolor="#ffffff"
     bordercolor="#666666"
     borderopacity="1.0"
     inkscape:pageshadow="2"
     inkscape:pageopacity="0.0"
     inkscape:pagecheckerboard="0"
     showgrid="false"
     inkscape:zoom="2.796875"
     inkscape:cx="66.681564"
     inkscape:cy="133.72067"
     inkscape:window-width="2560"
     inkscape:window-height="1476"
     inkscape:window-x="0"
     inkscape:window-y="25"
     inkscape:window-maximized="1"
     inkscape:current-layer="svg45" />
  <defs
     id="defs13">
    <linearGradient
       inkscape:collect="always"
       id="linearGradient1188">
      <stop
         style="stop-color:#1c2f56;stop-opacity:1"
         offset="0"
         id="stop1184" />
      <stop
         style="stop-color:#1f6391;stop-opacity:1"
         offset="1"
         id="stop1186" />
    </linearGradient>
    <filter
       id="a"
       width="1.0842484"
       height="1.1077841"
       x="-0.042124196"
       y="-0.045133094"
       color-interpolation-filters="sRGB"
       filterUnits="objectBoundingBox">
      <feGaussianBlur
         in="SourceGraphic"
         stdDeviation="4.294"
         id="feGaussianBlur2" />
      <feOffset
         dy="4"
         result="pf_100_offsetBlur"
         id="feOffset4" />
      <feFlood
         flood-opacity=".4"
         id="feFlood6" />
      <feComposite
         in2="pf_100_offsetBlur"
         operator="in"
         result="pf_100_dropShadow"
         id="feComposite8" />
      <feBlend
         in="SourceGraphic"
         in2="pf_100_dropShadow"
         id="feBlend10" />
    </filter>
    <linearGradient
       inkscape:collect="always"
       xlink:href="#linearGradient1188"
       id="linearGradient1190"
       x1="127.34546"
       y1="238.91478"
       x2="128.77837"
       y2="13.204477"
       gradientUnits="userSpaceOnUse" />
  </defs>
  <path
     fill="#f7f7f7"
     d="M165.689 11.95c74.056 0 84.639 10.557 84.639 84.544v59.251c0 73.986-10.583 84.543-84.639 84.543h-75.37c-74.055 0-84.639-10.557-84.639-84.543V96.494c0-73.987 10.584-84.544 84.639-84.544h75.37z"
     filter="url(#a)"
     id="path15"
     style="fill-opacity:1;fill:url(#linearGradient1190)" />
  <defs
     id="defs28">
    <filter
       id="b"
       width="1.1421462"
       height="1.2085695"
       x="-0.071073106"
       y="-0.087335595"
       color-interpolation-filters="sRGB"
       filterUnits="objectBoundingBox">
      <feGaussianBlur
         in="SourceGraphic"
         stdDeviation="4.294"
         id="feGaussianBlur17" />
      <feOffset
         dy="4"
         result="pf_100_offsetBlur"
         id="feOffset19" />
      <feFlood
         flood-opacity=".4"
         id="feFlood21" />
      <feComposite
         in2="pf_100_offsetBlur"
         operator="in"
         result="pf_100_dropShadow"
         id="feComposite23" />
      <feBlend
         in="SourceGraphic"
         in2="pf_100_dropShadow"
         id="feBlend25" />
    </filter>
  </defs>
  <g
     opacity=".4"
     id="g43">
    <linearGradient
       id="c"
       x1=".517"
       x2=".517"
       y2="1"
       gradientTransform="matrix(244.65 0 0 228.34 5.68 11.95)"
       gradientUnits="userSpaceOnUse">
      <stop
         offset="0%"
         stop-color="#ffffff"
         id="stop32" />
      <stop
         offset="12.5%"
         stop-color="#ffffff"
         stop-opacity=".098"
         id="stop34" />
      <stop
         offset="92.5%"
         stop-opacity=".098"
         id="stop36"
         style="stop-color:#1d3057;stop-opacity:1" />
      <stop
         offset="100%"
         stop-opacity=".498"
         id="stop38"
         style="stop-color:#1c2f56;stop-opacity:1" />
    </linearGradient>
  </g>
  <g
     style="fill:none"
     id="g956"
     transform="matrix(1.0049145,0,0,1.0049145,31.718571,31.82308)">
    <path
       stroke="#000000"
       stroke-linejoin="round"
       stroke-width="12"
       d="M 132.467,42 H 59.155 c -10.262,0 -19.786,6.074 -23.5,15.985 -3.139,8.374 -7.165,20.181 -10.025,32.408 -2.824,12.071 -4.68,25.221 -2.977,36.004 1.276,8.082 7.519,13.349 12.866,16.529 5.543,3.296 11.594,5.237 15.012,6.176 5.005,1.375 9.714,-1.817 10.875,-6.402 l 6.713,-26.513 a 3,3 0 0 1 2.908,-2.264 h 50.445 a 3,3 0 0 1 2.912,2.277 l 6.554,26.412 c 1.159,4.669 5.986,7.882 11.036,6.397 3.367,-0.99 9.227,-2.991 14.582,-6.302 5.175,-3.199 11.168,-8.429 12.412,-16.31 1.703,-10.783 -0.152,-23.932 -2.977,-36.004 C 163.131,78.166 159.105,66.359 155.967,57.985 152.252,48.074 142.728,42 132.467,42 Z"
       id="path944"
       style="stroke:#ffffff;stroke-opacity:1" />
    <path
       fill="#000000"
       d="M 66.5,95 C 77.822,95 87,85.822 87,74.5 87,63.178 77.822,54 66.5,54 55.178,54 46,63.178 46,74.5 46,85.822 55.178,95 66.5,95 Z m 59,0 C 136.822,95 146,85.822 146,74.5 146,63.178 136.822,54 125.5,54 114.178,54 105,63.178 105,74.5 105,85.822 114.178,95 125.5,95 Z"
       id="path946"
       style="fill:#ffffff" />
  </g>
</svg>
