<?xml version="1.0" encoding="UTF-8" standalone="no"?>
<svg
   style="isolation:isolate"
   width="256"
   height="256"
   version="1.1"
   id="svg5"
   sodipodi:docname="com.github.xournalpp.xournalpp.svg"
   xml:space="preserve"
   inkscape:version="1.3 (1:1.3+202307231459+0e150ed6c4)"
   xmlns:inkscape="http://www.inkscape.org/namespaces/inkscape"
   xmlns:sodipodi="http://sodipodi.sourceforge.net/DTD/sodipodi-0.dtd"
   xmlns="http://www.w3.org/2000/svg"
   xmlns:svg="http://www.w3.org/2000/svg"><sodipodi:namedview
     id="namedview5"
     pagecolor="#ffffff"
     bordercolor="#666666"
     borderopacity="1.0"
     inkscape:showpageshadow="2"
     inkscape:pageopacity="0.0"
     inkscape:pagecheckerboard="0"
     inkscape:deskcolor="#d1d1d1"
     inkscape:zoom="1"
     inkscape:cx="127.5"
     inkscape:cy="128"
     inkscape:window-width="1424"
     inkscape:window-height="865"
     inkscape:window-x="148"
     inkscape:window-y="355"
     inkscape:window-maximized="0"
     inkscape:current-layer="svg5" /><defs
     id="defs1"><filter
       id="a"
       width="1.0842484"
       height="1.1077841"
       x="-0.042124196"
       y="-0.045133094"
       color-interpolation-filters="sRGB"
       filterUnits="objectBoundingBox"><feGaussianBlur
         in="SourceGraphic"
         stdDeviation="4.294"
         id="feGaussianBlur1" /><feOffset
         dy="4"
         result="pf_100_offsetBlur"
         id="feOffset1" /><feFlood
         flood-opacity=".4"
         id="feFlood1" /><feComposite
         in2="pf_100_offsetBlur"
         operator="in"
         result="pf_100_dropShadow"
         id="feComposite1" /><feBlend
         in="SourceGraphic"
         in2="pf_100_dropShadow"
         id="feBlend1" /></filter><linearGradient
       id="u"
       gradientTransform="matrix(1.7465,0.863866,-0.331992,0.698898,-100.53651,-239.12848)"
       gradientUnits="userSpaceOnUse"
       x1="156.01219"
       x2="153.58427"
       y1="227.93338"
       y2="228.01367"><stop
         offset="0"
         stop-color="#e5a50a"
         id="stop4099" /><stop
         offset="1"
         stop-color="#f6d32d"
         id="stop4101" /></linearGradient></defs><path
     fill="#f7f7f7"
     d="M165.689 11.95c74.056 0 84.639 10.557 84.639 84.544v59.251c0 73.986-10.583 84.543-84.639 84.543h-75.37c-74.055 0-84.639-10.557-84.639-84.543V96.494c0-73.987 10.584-84.544 84.639-84.544h75.37z"
     filter="url(#a)"
     id="path1" /><defs
     id="defs2"><filter
       id="b"
       width="1.1421462"
       height="1.2085695"
       x="-0.071073106"
       y="-0.087335595"
       color-interpolation-filters="sRGB"
       filterUnits="objectBoundingBox"><feGaussianBlur
         in="SourceGraphic"
         stdDeviation="4.294"
         id="feGaussianBlur2" /><feOffset
         dy="4"
         result="pf_100_offsetBlur"
         id="feOffset2" /><feFlood
         flood-opacity=".4"
         id="feFlood2" /><feComposite
         in2="pf_100_offsetBlur"
         operator="in"
         result="pf_100_dropShadow"
         id="feComposite2" /><feBlend
         in="SourceGraphic"
         in2="pf_100_dropShadow"
         id="feBlend2" /></filter></defs><g
     opacity=".4"
     id="g5"><linearGradient
       id="c"
       x1=".517"
       x2=".517"
       y2="1"
       gradientTransform="matrix(244.65 0 0 228.34 5.68 11.95)"
       gradientUnits="userSpaceOnUse"><stop
         offset="0%"
         stop-color="#ffffff"
         id="stop2" /><stop
         offset="12.5%"
         stop-color="#ffffff"
         stop-opacity=".098"
         id="stop3" /><stop
         offset="92.5%"
         stop-opacity=".098"
         id="stop4" /><stop
         offset="100%"
         stop-opacity=".498"
         id="stop5" /></linearGradient><path
       fill="url(#c)"
       fill-rule="evenodd"
       d="M165.068 11.951c4.328-.01 8.656.04 12.984.138 3.875.078 7.75.226 11.626.452 3.453.196 6.905.481 10.348.854 3.06.335 6.118.786 9.148 1.346a80.47 80.47 0 0 1 8.046 1.916 53.64 53.64 0 0 1 7.023 2.584 40.413 40.413 0 0 1 6.06 3.35 35.176 35.176 0 0 1 5.134 4.215 35.072 35.072 0 0 1 4.22 5.119 41.692 41.692 0 0 1 3.363 6.042 55.982 55.982 0 0 1 2.597 7.005 80.224 80.224 0 0 1 1.918 8.037 124.43 124.43 0 0 1 1.348 9.127c.374 3.439.659 6.878.856 10.326.226 3.861.373 7.732.462 11.593.088 4.323.138 8.646.128 12.96v58.21c.01 4.324-.04 8.637-.128 12.96a325.177 325.177 0 0 1-.462 11.593 200.984 200.984 0 0 1-.856 10.326 124.691 124.691 0 0 1-1.348 9.137 80.687 80.687 0 0 1-1.918 8.027 55.414 55.414 0 0 1-2.597 7.005 41.18 41.18 0 0 1-3.364 6.042 34.559 34.559 0 0 1-4.22 5.119 35.177 35.177 0 0 1-5.134 4.215 40.412 40.412 0 0 1-6.059 3.35 55.138 55.138 0 0 1-7.023 2.594 77.806 77.806 0 0 1-8.046 1.906 120 120 0 0 1-9.148 1.346c-3.443.373-6.895.658-10.348.854-3.875.226-7.75.374-11.626.462-4.328.088-8.656.138-12.984.128H90.942c-4.328.01-8.656-.04-12.984-.128a328.387 328.387 0 0 1-11.626-.462 203.003 203.003 0 0 1-10.348-.854 120 120 0 0 1-9.148-1.346 77.806 77.806 0 0 1-8.046-1.906 55.139 55.139 0 0 1-7.023-2.594 40.413 40.413 0 0 1-6.06-3.35 35.176 35.176 0 0 1-5.134-4.215 34.56 34.56 0 0 1-4.22-5.119 41.183 41.183 0 0 1-3.363-6.042 55.415 55.415 0 0 1-2.597-7.005 80.682 80.682 0 0 1-1.918-8.027 124.688 124.688 0 0 1-1.348-9.137 200.993 200.993 0 0 1-.856-10.326 325.212 325.212 0 0 1-.462-11.593 569.197 569.197 0 0 1-.128-12.96v-58.21c-.01-4.314.04-8.637.128-12.96.089-3.86.236-7.732.462-11.593.197-3.448.482-6.887.856-10.326.335-3.055.787-6.101 1.348-9.127a80.219 80.219 0 0 1 1.918-8.037 55.983 55.983 0 0 1 2.597-7.005 41.695 41.695 0 0 1 3.364-6.042 35.072 35.072 0 0 1 4.22-5.119 35.176 35.176 0 0 1 5.134-4.215 40.413 40.413 0 0 1 6.059-3.35 53.64 53.64 0 0 1 7.023-2.584 80.47 80.47 0 0 1 8.046-1.916 125.11 125.11 0 0 1 9.148-1.346c3.443-.373 6.895-.658 10.348-.854 3.875-.226 7.75-.374 11.626-.452 4.328-.098 8.656-.148 12.984-.138h74.126zm.01 4.009c4.298-.01 8.597.039 12.895.127 3.827.089 7.653.236 11.48.452 3.383.197 6.766.472 10.13.845 2.971.315 5.932.747 8.863 1.297a75.943 75.943 0 0 1 7.653 1.818 50.493 50.493 0 0 1 6.501 2.397 37.038 37.038 0 0 1 5.47 3.026 30.383 30.383 0 0 1 4.524 3.724 31.05 31.05 0 0 1 3.738 4.519 37.271 37.271 0 0 1 3.03 5.443 51.46 51.46 0 0 1 2.4 6.494 75.563 75.563 0 0 1 1.829 7.634c.54 2.928.974 5.875 1.298 8.842.374 3.36.65 6.73.846 10.11.217 3.822.374 7.634.453 11.456.088 4.293.137 8.577.137 12.87v58.212c0 4.293-.049 8.577-.137 12.87a317.503 317.503 0 0 1-.453 11.456c-.196 3.38-.472 6.75-.846 10.12a121.689 121.689 0 0 1-1.298 8.832 75.562 75.562 0 0 1-1.83 7.634 50.902 50.902 0 0 1-2.4 6.494 36.767 36.767 0 0 1-3.03 5.443 30.615 30.615 0 0 1-3.737 4.53 30.938 30.938 0 0 1-4.525 3.713 37.038 37.038 0 0 1-5.469 3.026 49.07 49.07 0 0 1-6.501 2.397 75.942 75.942 0 0 1-7.653 1.818c-2.931.55-5.892.982-8.863 1.306-3.364.364-6.747.649-10.13.836-3.827.216-7.653.373-11.48.452-4.298.098-8.597.137-12.895.137H90.932c-4.298 0-8.597-.04-12.895-.137a320.093 320.093 0 0 1-11.48-.452 193.696 193.696 0 0 1-10.13-.836 116.71 116.71 0 0 1-8.863-1.306 75.942 75.942 0 0 1-7.653-1.818 49.07 49.07 0 0 1-6.501-2.397 37.038 37.038 0 0 1-5.47-3.026 30.938 30.938 0 0 1-4.524-3.714 30.615 30.615 0 0 1-3.738-4.529 36.766 36.766 0 0 1-3.03-5.443 50.903 50.903 0 0 1-2.4-6.494 75.567 75.567 0 0 1-1.829-7.634 121.69 121.69 0 0 1-1.298-8.832c-.374-3.37-.65-6.74-.846-10.12a317.535 317.535 0 0 1-.453-11.456 623.851 623.851 0 0 1-.137-12.87V97.014c0-4.293.049-8.577.137-12.87.079-3.822.236-7.634.453-11.456.197-3.38.472-6.75.846-10.11.324-2.967.757-5.914 1.298-8.842a75.568 75.568 0 0 1 1.83-7.634 51.46 51.46 0 0 1 2.4-6.494 37.27 37.27 0 0 1 3.03-5.443 31.05 31.05 0 0 1 3.737-4.52 30.384 30.384 0 0 1 4.525-3.723 37.039 37.039 0 0 1 5.469-3.026 50.494 50.494 0 0 1 6.501-2.397 75.943 75.943 0 0 1 7.653-1.818c2.931-.55 5.892-.982 8.863-1.297 3.364-.373 6.747-.648 10.13-.845a344.71 344.71 0 0 1 11.48-.452c4.298-.088 8.597-.137 12.895-.127H165.078z"
       id="path5" /></g><g
     id="g6"
     transform="matrix(2.0454503,0,0,2.0454503,-6.5454011,-2.9088192)"><path
       d="m 20,16 h 88 c 4.41797,0 8,3.582031 8,8 v 84 c 0,4.41797 -3.58203,8 -8,8 H 20 c -4.417969,0 -8,-3.58203 -8,-8 V 24 c 0,-4.417969 3.582031,-8 8,-8 z m 0,0"
       fill="url(#a)"
       id="path4104"
       style="fill:url(#a-3)" /><path
       d="m 20,12 h 88 c 4.41797,0 8,3.582031 8,8 v 84 c 0,4.41797 -3.58203,8 -8,8 H 20 c -4.417969,0 -8,-3.58203 -8,-8 V 20 c 0,-4.417969 3.582031,-8 8,-8 z m 0,0"
       fill="#f5f4f3"
       id="path4106" /><g
       clip-path="url(#d)"
       mask="url(#c-7)"
       transform="translate(-8,-16)"
       id="g4110"><path
         d="m 28.921875,37.085938 v 1.828124 h 86.152345 v -1.828124 z m 0,0"
         fill="#c0bfbc"
         fill-rule="evenodd"
         id="path4108" /></g><g
       clip-path="url(#f)"
       mask="url(#e)"
       transform="translate(-8,-16)"
       id="g4114"><path
         d="m 28.921875,47.085938 v 1.828124 h 86.152345 v -1.828124 z m 0,0"
         fill="#c0bfbc"
         fill-rule="evenodd"
         id="path4112" /></g><g
       clip-path="url(#h)"
       mask="url(#g)"
       transform="translate(-8,-16)"
       id="g4118"><path
         d="m 28.921875,57.085938 v 1.828124 h 86.152345 v -1.828124 z m 0,0"
         fill="#c0bfbc"
         fill-rule="evenodd"
         id="path4116" /></g><g
       clip-path="url(#j)"
       mask="url(#i)"
       transform="translate(-8,-16)"
       id="g4122"><path
         d="m 28.921875,67.085938 v 1.828124 h 86.152345 v -1.828124 z m 0,0"
         fill="#c0bfbc"
         fill-rule="evenodd"
         id="path4120" /></g><g
       clip-path="url(#l)"
       mask="url(#k)"
       transform="translate(-8,-16)"
       id="g4126"><path
         d="m 28.921875,77.085938 v 1.828124 h 86.152345 v -1.828124 z m 0,0"
         fill="#c0bfbc"
         fill-rule="evenodd"
         id="path4124" /></g><g
       clip-path="url(#n)"
       mask="url(#m)"
       transform="translate(-8,-16)"
       id="g4130"><path
         d="m 28.921875,87.085938 v 1.828124 h 86.152345 v -1.828124 z m 0,0"
         fill="#c0bfbc"
         fill-rule="evenodd"
         id="path4128" /></g><g
       clip-path="url(#p)"
       mask="url(#o)"
       transform="translate(-8,-16)"
       id="g4134"><path
         d="m 28.921875,97.085938 v 1.828124 h 86.152345 v -1.828124 z m 0,0"
         fill="#c0bfbc"
         fill-rule="evenodd"
         id="path4132" /></g><g
       clip-path="url(#r)"
       mask="url(#q)"
       transform="translate(-8,-16)"
       id="g4138"><path
         d="m 28.921875,107.08594 v 1.82812 h 86.152345 v -1.82812 z m 0,0"
         fill="#c0bfbc"
         fill-rule="evenodd"
         id="path4136" /></g><g
       clip-path="url(#t)"
       mask="url(#s)"
       transform="translate(-8,-16)"
       id="g4142"><path
         d="m 28.921875,117.08594 v 1.82812 h 78.972655 v -1.82812 z m 0,0"
         fill="#c0bfbc"
         fill-rule="evenodd"
         id="path4140" /></g><path
       d="m 75.671875,47.988281 c -3.898437,0 -5.644531,1.476563 -10.886719,9.679688 L 57.390625,69.363281 53.894531,57.398438 c -2.152343,-7.527344 -5.109375,-9.410157 -8.601562,-9.410157 -3.898438,0 -8.605469,3.359375 -14.65625,10.214844 -0.671875,0.539063 0.539062,1.75 1.078125,1.078125 3.628906,-3.765625 6.71875,-5.511719 9.003906,-5.511719 1.882812,0 4.574219,0.9375 6.722656,8.0625 l 4.570313,15.328125 -9.410157,13.980469 c -2.148437,3.089844 -4.167968,4.03125 -5.914062,4.03125 -2.6875,0 -2.957031,-2.6875 -6.050781,-2.6875 -2.148438,0 -3.628907,1.34375 -3.898438,3.226563 -0.535156,3.628906 3.226563,6.718752 6.722657,6.718752 4.035156,0 5.78125,-1.61328 10.890624,-9.812502 l 8.332032,-13.171876 4.304687,14.515626 c 2.015625,6.992192 4.570313,8.468752 8.0625,8.468752 3.898438,0 8.605469,-3.49219 14.652344,-10.214846 0.675781,-0.671875 -0.402344,-1.746094 -1.074219,-1.210938 -3.628906,3.765625 -6.585937,5.511719 -8.871094,5.511719 -2.015624,0 -4.4375,-0.539063 -6.320312,-6.855469 l -5.375,-18.148437 8.46875,-12.367188 c 2.152344,-2.957031 4.167969,-4.03125 5.914062,-4.03125 2.6875,0 2.957032,2.6875 6.050782,2.6875 2.148437,0 3.628906,-1.34375 3.898437,-3.226562 0.535157,-3.496094 -3.226562,-6.585938 -6.722656,-6.585938 z m 0,0"
       fill="#3d3846"
       id="path4144" /><g
       fill-rule="evenodd"
       id="g4158"><path
         d="m 80.324219,92.417969 c -0.617188,1.308593 -1.796875,2.023437 -2.632813,1.59375 -0.839844,-0.429688 -1.015625,-1.839844 -0.402344,-3.152344 0.617188,-1.308594 1.796876,-2.023437 2.632813,-1.59375 0.839844,0.429687 1.019531,1.839844 0.402344,3.152344 z m 0,0"
         fill="#77767b"
         id="path4146" /><path
         d="m 77.476562,90.914062 c -1.609374,-0.785156 0.253907,-9.109374 -0.08203,-14.453124 l 13.15625,6.777343 c -4.320312,3.039063 -8.773437,9.957031 -10.226562,9.179688"
         fill="url(#u)"
         id="path4148"
         style="fill:url(#u)" /><path
         d="m 110.34766,15.09375 c -1.78907,-0.917969 -3.70313,-0.65625 -4.28907,0.585938 L 88.777344,52.375 78.480469,74.242188 l -1.054688,2.246093 -0.03906,3.660157 8.542969,4.386718 4.632812,-1.304687 1.054688,-2.246094 10.29687,-21.867187 17.28125,-36.695313 c 0.58594,-1.242187 -0.38672,-2.984375 -2.17578,-3.902344 z m 0,0"
         fill="#ffbe6f"
         id="path4150" /><path
         d="m 111.63281,15.78125 -18.328122,38.917969 -10.296876,21.867187 -2.453124,5.210938 4.253906,2.183594 3.632812,-1.820313 2.121094,1.089844 1.054688,-2.246094 10.296872,-21.867187 17.28125,-36.695313 c 0.58594,-1.242187 -0.0742,-2.730469 -1.25,-3.332031 z m 0,0"
         fill="#ff7800"
         id="path4152" /><path
         d="m 86.941406,78.582031 -2.457031,5.210938 3.289063,1.6875 2.789062,-2.25 1.054688,-2.246094 27.578122,-58.5625 c 0.75782,-1.609375 0.45703,-2.550781 -2.22656,-3.929687 l -1.36328,-0.699219"
         fill="#e66100"
         id="path4154" /><path
         d="m 110.34766,15.09375 c -1.78907,-0.917969 -3.70313,-0.65625 -4.28907,0.585938 l 13.13672,6.742187 c 1.04297,-1.949219 -0.38672,-2.984375 -2.17578,-3.902344 z m 0,0"
         fill="#3d3846"
         id="path4156" /></g></g></svg>
