<?xml version="1.0" encoding="UTF-8" standalone="no"?>
<svg
   style="isolation:isolate"
   width="256"
   height="256"
   viewBox="0 0 256 256"
   version="1.1"
   id="svg4"
   sodipodi:docname="dekuve-package-manager.svg"
   inkscape:version="1.4 (e7c3feb100, 2024-10-09)"
   xmlns:inkscape="http://www.inkscape.org/namespaces/inkscape"
   xmlns:sodipodi="http://sodipodi.sourceforge.net/DTD/sodipodi-0.dtd"
   xmlns="http://www.w3.org/2000/svg"
   xmlns:svg="http://www.w3.org/2000/svg">
  <sodipodi:namedview
     id="namedview4"
     pagecolor="#ffffff"
     bordercolor="#000000"
     borderopacity="0.25"
     inkscape:showpageshadow="2"
     inkscape:pageopacity="0.0"
     inkscape:pagecheckerboard="0"
     inkscape:deskcolor="#d1d1d1"
     inkscape:zoom="4.796875"
     inkscape:cx="94.019544"
     inkscape:cy="113.1987"
     inkscape:window-width="2560"
     inkscape:window-height="1460"
     inkscape:window-x="0"
     inkscape:window-y="37"
     inkscape:window-maximized="1"
     inkscape:current-layer="g3" />
  <defs
     id="defs1">
    <filter
       id="rJCjJwH3kUqagYsGKptjBbVFMtEe8AjV"
       width="1.0842484"
       height="1.1077841"
       x="-0.042124196"
       y="-0.045133094"
       color-interpolation-filters="sRGB"
       filterUnits="objectBoundingBox">
      <feGaussianBlur
         in="SourceGraphic"
         stdDeviation="4.294"
         id="feGaussianBlur1" />
      <feOffset
         dx="0"
         dy="4"
         result="pf_100_offsetBlur"
         id="feOffset1" />
      <feFlood
         flood-opacity=".4"
         id="feFlood1" />
      <feComposite
         in2="pf_100_offsetBlur"
         operator="in"
         result="pf_100_dropShadow"
         id="feComposite1" />
      <feBlend
         in="SourceGraphic"
         in2="pf_100_dropShadow"
         mode="normal"
         id="feBlend1" />
    </filter>
  </defs>
  <g
     filter="url(#rJCjJwH3kUqagYsGKptjBbVFMtEe8AjV)"
     id="g3">
    <linearGradient
       id="_lgradient_6"
       x1="-.033"
       x2="1.033"
       y1="-.071"
       y2=".924"
       gradientTransform="matrix(244.648,0,0,228.338,5.682,11.95)"
       gradientUnits="userSpaceOnUse">
      <stop
         offset="0"
         style="stop-color:#048abf;stop-opacity:1;"
         id="stop1" />
      <stop
         offset="0.63807392"
         style="stop-color:#bf3b91;stop-opacity:1;"
         id="stop2" />
      <stop
         offset="1"
         style="stop-color:#f2324b;stop-opacity:1;"
         id="stop3" />
    </linearGradient>
    <path
       fill="url(#_lgradient_6)"
       d="M 165.691 11.95 C 239.746 11.95 250.33 22.507 250.33 96.494 L 250.33 155.745 C 250.33 229.731 239.746 240.288 165.691 240.288 L 90.321 240.288 C 16.265 240.288 5.682 229.731 5.682 155.745 L 5.682 96.494 C 5.682 22.507 16.265 11.95 90.321 11.95 L 165.691 11.95 Z"
       id="path3"
       style="fill:url(#_lgradient_6)" />
  </g>
  <defs
     id="defs3">
    <filter
       id="1ItiFFPjlFSl2tVxdONEAYzl1aynDifj"
       width="1.115487"
       height="1.1697325"
       x="-0.057743514"
       y="-0.071073156"
       color-interpolation-filters="sRGB"
       filterUnits="objectBoundingBox">
      <feGaussianBlur
         in="SourceGraphic"
         stdDeviation="4.294"
         id="feGaussianBlur3" />
      <feOffset
         dx="0"
         dy="4"
         result="pf_100_offsetBlur"
         id="feOffset3" />
      <feFlood
         flood-opacity=".4"
         id="feFlood3" />
      <feComposite
         in2="pf_100_offsetBlur"
         operator="in"
         result="pf_100_dropShadow"
         id="feComposite3" />
      <feBlend
         in="SourceGraphic"
         in2="pf_100_dropShadow"
         mode="normal"
         id="feBlend3" />
    </filter>
  </defs>
  <g
     filter="url(#1ItiFFPjlFSl2tVxdONEAYzl1aynDifj)"
     id="g4">
    <path
       fill="#ffffff"
       d="M 128.88 55.505 C 126.907 55.482 124.934 55.54 122.965 55.676 L 122.965 55.678 C 99.415 57.33 77.506 70.462 65.21 91.758 L 74.873 97.334 C 88.742 73.274 117.054 61.547 143.874 68.75 C 163.759 74.065 179.649 89.007 186.177 108.527 L 165.186 116.607 C 171.896 122.953 179.04 129.29 186.62 135.626 C 194.01 141.749 201.556 147.683 209.249 153.422 C 211.196 143.997 212.859 134.515 214.237 124.99 C 215.609 115.212 216.612 105.74 217.236 96.573 L 196.59 104.519 C 188.919 82.158 170.554 64.349 146.764 57.975 C 140.929 56.409 134.921 55.579 128.88 55.505 L 128.88 55.505 Z M 46.751 102.576 C 44.804 112.002 43.141 121.485 41.763 131.011 C 40.391 140.789 39.388 150.261 38.764 159.427 L 59.405 151.482 C 67.075 173.846 85.443 191.656 109.233 198.031 C 116.984 200.11 125.027 200.885 133.033 200.322 C 156.583 198.671 178.497 185.543 190.792 164.246 L 181.125 158.672 C 167.255 182.731 138.943 194.459 112.123 187.255 C 92.236 181.938 76.346 166.994 69.821 147.471 L 90.811 139.391 C 83.863 132.834 76.716 126.492 69.38 120.372 C 61.99 114.249 54.444 108.315 46.751 102.576 L 46.751 102.576 Z"
       id="path4" />
  </g>
</svg>
