<?xml version="1.0" encoding="UTF-8" standalone="no"?>
<svg
   style="isolation:isolate"
   width="256"
   height="256"
   version="1.1"
   id="svg5"
   xml:space="preserve"
   xmlns="http://www.w3.org/2000/svg"
   xmlns:svg="http://www.w3.org/2000/svg"><defs
     id="defs1"><filter
       id="a"
       width="1.0842484"
       height="1.1077841"
       x="-0.042124196"
       y="-0.045133094"
       color-interpolation-filters="sRGB"
       filterUnits="objectBoundingBox"><feGaussianBlur
         in="SourceGraphic"
         stdDeviation="4.294"
         id="feGaussianBlur1" /><feOffset
         dy="4"
         result="pf_100_offsetBlur"
         id="feOffset1" /><feFlood
         flood-opacity=".4"
         id="feFlood1" /><feComposite
         in2="pf_100_offsetBlur"
         operator="in"
         result="pf_100_dropShadow"
         id="feComposite1" /><feBlend
         in="SourceGraphic"
         in2="pf_100_dropShadow"
         id="feBlend1" /></filter></defs><path
     fill="#f7f7f7"
     d="M165.689 11.95c74.056 0 84.639 10.557 84.639 84.544v59.251c0 73.986-10.583 84.543-84.639 84.543h-75.37c-74.055 0-84.639-10.557-84.639-84.543V96.494c0-73.987 10.584-84.544 84.639-84.544h75.37z"
     filter="url(#a)"
     id="path1"
     style="fill:#374548" /><defs
     id="defs2"><filter
       id="b"
       width="1.1421462"
       height="1.2085695"
       x="-0.071073106"
       y="-0.087335595"
       color-interpolation-filters="sRGB"
       filterUnits="objectBoundingBox"><feGaussianBlur
         in="SourceGraphic"
         stdDeviation="4.294"
         id="feGaussianBlur2" /><feOffset
         dy="4"
         result="pf_100_offsetBlur"
         id="feOffset2" /><feFlood
         flood-opacity=".4"
         id="feFlood2" /><feComposite
         in2="pf_100_offsetBlur"
         operator="in"
         result="pf_100_dropShadow"
         id="feComposite2" /><feBlend
         in="SourceGraphic"
         in2="pf_100_dropShadow"
         id="feBlend2" /></filter></defs><g
     opacity=".4"
     id="g5"><linearGradient
       id="c"
       x1=".517"
       x2=".517"
       y2="1"
       gradientTransform="matrix(244.65 0 0 228.34 5.68 11.95)"
       gradientUnits="userSpaceOnUse"><stop
         offset="0%"
         stop-color="#ffffff"
         id="stop2" /><stop
         offset="12.5%"
         stop-color="#ffffff"
         stop-opacity=".098"
         id="stop3" /><stop
         offset="92.5%"
         stop-opacity=".098"
         id="stop4" /><stop
         offset="100%"
         stop-opacity=".498"
         id="stop5" /></linearGradient><path
       fill="url(#c)"
       fill-rule="evenodd"
       d="M165.068 11.951c4.328-.01 8.656.04 12.984.138 3.875.078 7.75.226 11.626.452 3.453.196 6.905.481 10.348.854 3.06.335 6.118.786 9.148 1.346a80.47 80.47 0 0 1 8.046 1.916 53.64 53.64 0 0 1 7.023 2.584 40.413 40.413 0 0 1 6.06 3.35 35.176 35.176 0 0 1 5.134 4.215 35.072 35.072 0 0 1 4.22 5.119 41.692 41.692 0 0 1 3.363 6.042 55.982 55.982 0 0 1 2.597 7.005 80.224 80.224 0 0 1 1.918 8.037 124.43 124.43 0 0 1 1.348 9.127c.374 3.439.659 6.878.856 10.326.226 3.861.373 7.732.462 11.593.088 4.323.138 8.646.128 12.96v58.21c.01 4.324-.04 8.637-.128 12.96a325.177 325.177 0 0 1-.462 11.593 200.984 200.984 0 0 1-.856 10.326 124.691 124.691 0 0 1-1.348 9.137 80.687 80.687 0 0 1-1.918 8.027 55.414 55.414 0 0 1-2.597 7.005 41.18 41.18 0 0 1-3.364 6.042 34.559 34.559 0 0 1-4.22 5.119 35.177 35.177 0 0 1-5.134 4.215 40.412 40.412 0 0 1-6.059 3.35 55.138 55.138 0 0 1-7.023 2.594 77.806 77.806 0 0 1-8.046 1.906 120 120 0 0 1-9.148 1.346c-3.443.373-6.895.658-10.348.854-3.875.226-7.75.374-11.626.462-4.328.088-8.656.138-12.984.128H90.942c-4.328.01-8.656-.04-12.984-.128a328.387 328.387 0 0 1-11.626-.462 203.003 203.003 0 0 1-10.348-.854 120 120 0 0 1-9.148-1.346 77.806 77.806 0 0 1-8.046-1.906 55.139 55.139 0 0 1-7.023-2.594 40.413 40.413 0 0 1-6.06-3.35 35.176 35.176 0 0 1-5.134-4.215 34.56 34.56 0 0 1-4.22-5.119 41.183 41.183 0 0 1-3.363-6.042 55.415 55.415 0 0 1-2.597-7.005 80.682 80.682 0 0 1-1.918-8.027 124.688 124.688 0 0 1-1.348-9.137 200.993 200.993 0 0 1-.856-10.326 325.212 325.212 0 0 1-.462-11.593 569.197 569.197 0 0 1-.128-12.96v-58.21c-.01-4.314.04-8.637.128-12.96.089-3.86.236-7.732.462-11.593.197-3.448.482-6.887.856-10.326.335-3.055.787-6.101 1.348-9.127a80.219 80.219 0 0 1 1.918-8.037 55.983 55.983 0 0 1 2.597-7.005 41.695 41.695 0 0 1 3.364-6.042 35.072 35.072 0 0 1 4.22-5.119 35.176 35.176 0 0 1 5.134-4.215 40.413 40.413 0 0 1 6.059-3.35 53.64 53.64 0 0 1 7.023-2.584 80.47 80.47 0 0 1 8.046-1.916 125.11 125.11 0 0 1 9.148-1.346c3.443-.373 6.895-.658 10.348-.854 3.875-.226 7.75-.374 11.626-.452 4.328-.098 8.656-.148 12.984-.138h74.126zm.01 4.009c4.298-.01 8.597.039 12.895.127 3.827.089 7.653.236 11.48.452 3.383.197 6.766.472 10.13.845 2.971.315 5.932.747 8.863 1.297a75.943 75.943 0 0 1 7.653 1.818 50.493 50.493 0 0 1 6.501 2.397 37.038 37.038 0 0 1 5.47 3.026 30.383 30.383 0 0 1 4.524 3.724 31.05 31.05 0 0 1 3.738 4.519 37.271 37.271 0 0 1 3.03 5.443 51.46 51.46 0 0 1 2.4 6.494 75.563 75.563 0 0 1 1.829 7.634c.54 2.928.974 5.875 1.298 8.842.374 3.36.65 6.73.846 10.11.217 3.822.374 7.634.453 11.456.088 4.293.137 8.577.137 12.87v58.212c0 4.293-.049 8.577-.137 12.87a317.503 317.503 0 0 1-.453 11.456c-.196 3.38-.472 6.75-.846 10.12a121.689 121.689 0 0 1-1.298 8.832 75.562 75.562 0 0 1-1.83 7.634 50.902 50.902 0 0 1-2.4 6.494 36.767 36.767 0 0 1-3.03 5.443 30.615 30.615 0 0 1-3.737 4.53 30.938 30.938 0 0 1-4.525 3.713 37.038 37.038 0 0 1-5.469 3.026 49.07 49.07 0 0 1-6.501 2.397 75.942 75.942 0 0 1-7.653 1.818c-2.931.55-5.892.982-8.863 1.306-3.364.364-6.747.649-10.13.836-3.827.216-7.653.373-11.48.452-4.298.098-8.597.137-12.895.137H90.932c-4.298 0-8.597-.04-12.895-.137a320.093 320.093 0 0 1-11.48-.452 193.696 193.696 0 0 1-10.13-.836 116.71 116.71 0 0 1-8.863-1.306 75.942 75.942 0 0 1-7.653-1.818 49.07 49.07 0 0 1-6.501-2.397 37.038 37.038 0 0 1-5.47-3.026 30.938 30.938 0 0 1-4.524-3.714 30.615 30.615 0 0 1-3.738-4.529 36.766 36.766 0 0 1-3.03-5.443 50.903 50.903 0 0 1-2.4-6.494 75.567 75.567 0 0 1-1.829-7.634 121.69 121.69 0 0 1-1.298-8.832c-.374-3.37-.65-6.74-.846-10.12a317.535 317.535 0 0 1-.453-11.456 623.851 623.851 0 0 1-.137-12.87V97.014c0-4.293.049-8.577.137-12.87.079-3.822.236-7.634.453-11.456.197-3.38.472-6.75.846-10.11.324-2.967.757-5.914 1.298-8.842a75.568 75.568 0 0 1 1.83-7.634 51.46 51.46 0 0 1 2.4-6.494 37.27 37.27 0 0 1 3.03-5.443 31.05 31.05 0 0 1 3.737-4.52 30.384 30.384 0 0 1 4.525-3.723 37.039 37.039 0 0 1 5.469-3.026 50.494 50.494 0 0 1 6.501-2.397 75.943 75.943 0 0 1 7.653-1.818c2.931-.55 5.892-.982 8.863-1.297 3.364-.373 6.747-.648 10.13-.845a344.71 344.71 0 0 1 11.48-.452c4.298-.088 8.597-.137 12.895-.127H165.078z"
       id="path5" /></g><g
     id="Group_52"
     data-name="Group 52"
     transform="matrix(2.6100571,0,0,2.6100571,-916.98072,-209.4628)"><g
       id="Group_44"
       data-name="Group 44"><g
         id="Group_40"
         data-name="Group 40"><g
           id="Group_38"
           data-name="Group 38"><path
             id="Path_106"
             data-name="Path 106"
             d="m 381.635,142.143 a 2.4,2.4 0 0 1 2.4,2.4 v 0 a 2.4,2.4 0 0 1 -2.4,2.4 h -13.348 a 2.4,2.4 0 0 1 -2.4,-2.4 v 0 a 2.4,2.4 0 0 1 2.4,-2.4 z"
             fill="#dce2e9" /><path
             id="Path_107"
             data-name="Path 107"
             d="m 381.635,134.134 a 2.4,2.4 0 0 1 2.4,2.4 v 0 a 2.4,2.4 0 0 1 -2.4,2.4 h -13.348 a 2.4,2.4 0 0 1 -2.4,-2.4 v 0 a 2.4,2.4 0 0 1 2.4,-2.4 z"
             fill="#dce2e9" /><path
             id="Path_108"
             data-name="Path 108"
             d="m 381.635,126.124 a 2.4,2.4 0 0 1 2.4,2.405 v 0 a 2.4,2.4 0 0 1 -2.4,2.4 h -13.348 a 2.4,2.4 0 0 1 -2.4,-2.4 v 0 a 2.4,2.4 0 0 1 2.4,-2.405 z"
             fill="#dce2e9" /><path
             id="Path_109"
             data-name="Path 109"
             d="m 381.635,118.119 a 2.4,2.4 0 0 1 2.4,2.4 v 0 a 2.4,2.4 0 0 1 -2.4,2.4 h -13.348 a 2.4,2.4 0 0 1 -2.4,-2.4 v 0 a 2.4,2.4 0 0 1 2.4,-2.4 z"
             fill="#dce2e9" /><path
             id="Path_110"
             data-name="Path 110"
             d="m 381.635,110.106 a 2.406,2.406 0 0 1 2.4,2.4 v 0 a 2.4,2.4 0 0 1 -2.4,2.4 h -13.348 a 2.4,2.4 0 0 1 -2.4,-2.4 v 0 a 2.406,2.406 0 0 1 2.4,-2.4 z"
             fill="#dce2e9" /></g><g
           id="Group_39"
           data-name="Group 39"
           style="isolation:isolate;mix-blend-mode:multiply"><path
             id="Path_111"
             data-name="Path 111"
             d="m 371.012,146.947 h 10.623 a 2.4,2.4 0 0 0 0,-4.8 h -10.623 z"
             fill="#dce2e9" /><path
             id="Path_112"
             data-name="Path 112"
             d="m 371.012,138.94 h 10.623 a 2.403,2.403 0 0 0 0,-4.806 h -10.623 z"
             fill="#dce2e9" /><path
             id="Path_113"
             data-name="Path 113"
             d="m 371.012,130.929 h 10.623 a 2.4025,2.4025 0 0 0 0,-4.805 h -10.623 z"
             fill="#dce2e9" /><path
             id="Path_114"
             data-name="Path 114"
             d="m 371.012,122.923 h 10.623 a 2.4,2.4 0 0 0 0,-4.8 h -10.623 z"
             fill="#dce2e9" /><path
             id="Path_115"
             data-name="Path 115"
             d="m 371.012,114.911 h 10.623 a 2.4025,2.4025 0 0 0 0,-4.805 h -10.623 z"
             fill="#dce2e9" /></g></g><g
         id="Group_43"
         data-name="Group 43"><g
           id="Group_41"
           data-name="Group 41"><path
             id="Path_116"
             data-name="Path 116"
             d="m 419.1,114.911 a 2.4,2.4 0 0 1 -2.4,-2.4 v 0 a 2.4,2.4 0 0 1 2.4,-2.4 h 13.347 a 2.4,2.4 0 0 1 2.4,2.4 v 0 a 2.4,2.4 0 0 1 -2.4,2.4 z"
             fill="#dce2e9" /><path
             id="Path_117"
             data-name="Path 117"
             d="m 419.1,122.919 a 2.4,2.4 0 0 1 -2.4,-2.4 v 0 a 2.4,2.4 0 0 1 2.4,-2.4 h 13.347 a 2.4,2.4 0 0 1 2.4,2.4 v 0 a 2.4,2.4 0 0 1 -2.4,2.4 z"
             fill="#dce2e9" /><path
             id="Path_118"
             data-name="Path 118"
             d="m 419.1,130.929 a 2.4,2.4 0 0 1 -2.4,-2.4 v 0 a 2.4,2.4 0 0 1 2.4,-2.4 h 13.347 a 2.4,2.4 0 0 1 2.4,2.4 v 0 a 2.4,2.4 0 0 1 -2.4,2.4 z"
             fill="#dce2e9" /><path
             id="Path_119"
             data-name="Path 119"
             d="m 419.1,138.935 a 2.4,2.4 0 0 1 -2.4,-2.4 v 0 a 2.4,2.4 0 0 1 2.4,-2.4 h 13.347 a 2.406,2.406 0 0 1 2.4,2.4 v 0 a 2.4,2.4 0 0 1 -2.4,2.4 z"
             fill="#dce2e9" /><path
             id="Path_120"
             data-name="Path 120"
             d="m 419.1,146.947 a 2.4,2.4 0 0 1 -2.4,-2.4 v 0 a 2.4,2.4 0 0 1 2.4,-2.4 h 13.347 a 2.4,2.4 0 0 1 2.4,2.4 v 0 a 2.406,2.406 0 0 1 -2.4,2.4 z"
             fill="#dce2e9" /></g><g
           id="Group_42"
           data-name="Group 42"
           style="isolation:isolate;mix-blend-mode:multiply"><path
             id="Path_121"
             data-name="Path 121"
             d="M 429.727,110.106 H 419.1 a 2.4025,2.4025 0 1 0 0,4.805 h 10.623 z"
             fill="#dce2e9" /><path
             id="Path_122"
             data-name="Path 122"
             d="M 429.727,118.114 H 419.1 a 2.4025,2.4025 0 1 0 0,4.805 h 10.623 z"
             fill="#dce2e9" /><path
             id="Path_123"
             data-name="Path 123"
             d="M 429.727,126.124 H 419.1 a 2.4025,2.4025 0 1 0 0,4.805 h 10.623 z"
             fill="#dce2e9" /><path
             id="Path_124"
             data-name="Path 124"
             d="M 429.727,134.13 H 419.1 a 2.4,2.4 0 1 0 0,4.8 h 10.623 z"
             fill="#dce2e9" /><path
             id="Path_125"
             data-name="Path 125"
             d="M 429.727,142.143 H 419.1 a 2.4,2.4 0 1 0 0,4.8 h 10.623 z"
             fill="#dce2e9" /></g></g></g><g
       id="Group_51"
       data-name="Group 51"><g
         id="Group_47"
         data-name="Group 47"><g
           id="Group_45"
           data-name="Group 45"><path
             id="Path_126"
             data-name="Path 126"
             d="m 386.753,109.792 a 2.4,2.4 0 0 1 -2.4,2.4 v 0 a 2.4,2.4 0 0 1 -2.4,-2.4 V 96.445 a 2.4,2.4 0 0 1 2.4,-2.4 v 0 a 2.4,2.4 0 0 1 2.4,2.4 z"
             fill="#dce2e9" /><path
             id="Path_127"
             data-name="Path 127"
             d="m 394.762,109.792 a 2.4,2.4 0 0 1 -2.4,2.4 v 0 a 2.4,2.4 0 0 1 -2.4,-2.4 V 96.445 a 2.4,2.4 0 0 1 2.4,-2.4 v 0 a 2.4,2.4 0 0 1 2.4,2.4 z"
             fill="#dce2e9" /><path
             id="Path_128"
             data-name="Path 128"
             d="m 402.772,109.792 a 2.4,2.4 0 0 1 -2.406,2.4 v 0 a 2.4,2.4 0 0 1 -2.4,-2.4 V 96.445 a 2.4,2.4 0 0 1 2.4,-2.4 v 0 a 2.4,2.4 0 0 1 2.406,2.4 z"
             fill="#dce2e9" /><path
             id="Path_129"
             data-name="Path 129"
             d="m 410.777,109.792 a 2.4,2.4 0 0 1 -2.4,2.4 v 0 a 2.4,2.4 0 0 1 -2.4,-2.4 V 96.445 a 2.4,2.4 0 0 1 2.4,-2.4 v 0 a 2.4,2.4 0 0 1 2.4,2.4 z"
             fill="#dce2e9" /><path
             id="Path_130"
             data-name="Path 130"
             d="m 418.789,109.792 a 2.4,2.4 0 0 1 -2.4,2.4 v 0 a 2.4,2.4 0 0 1 -2.4,-2.4 V 96.445 a 2.4,2.4 0 0 1 2.4,-2.4 v 0 a 2.4,2.4 0 0 1 2.4,2.4 z"
             fill="#dce2e9" /></g><g
           id="Group_46"
           data-name="Group 46"
           style="isolation:isolate;mix-blend-mode:multiply"><path
             id="Path_131"
             data-name="Path 131"
             d="m 381.949,99.169 v 10.623 a 2.4,2.4 0 1 0 4.8,0 V 99.169 Z"
             fill="#dce2e9" /><path
             id="Path_132"
             data-name="Path 132"
             d="m 389.957,99.169 v 10.623 a 2.4,2.4 0 0 0 4.8,0 V 99.169 Z"
             fill="#dce2e9" /><path
             id="Path_133"
             data-name="Path 133"
             d="m 397.967,99.169 v 10.623 a 2.4,2.4 0 0 0 4.8,0 V 99.169 Z"
             fill="#dce2e9" /><path
             id="Path_134"
             data-name="Path 134"
             d="m 405.973,99.169 v 10.623 a 2.4,2.4 0 0 0 4.8,0 V 99.169 Z"
             fill="#dce2e9" /><path
             id="Path_135"
             data-name="Path 135"
             d="m 413.985,99.169 v 10.623 a 2.4,2.4 0 0 0 4.8,0 V 99.169 Z"
             fill="#dce2e9" /></g></g><g
         id="Group_50"
         data-name="Group 50"><g
           id="Group_48"
           data-name="Group 48"><path
             id="Path_136"
             data-name="Path 136"
             d="m 413.985,147.261 a 2.4,2.4 0 0 1 2.4,-2.4 v 0 a 2.4,2.4 0 0 1 2.4,2.4 v 13.348 a 2.4,2.4 0 0 1 -2.4,2.4 v 0 a 2.4,2.4 0 0 1 -2.4,-2.4 z"
             fill="#dce2e9" /><path
             id="Path_137"
             data-name="Path 137"
             d="m 405.977,147.261 a 2.4,2.4 0 0 1 2.4,-2.4 v 0 a 2.4,2.4 0 0 1 2.4,2.4 v 13.348 a 2.4,2.4 0 0 1 -2.4,2.4 v 0 a 2.4,2.4 0 0 1 -2.4,-2.4 z"
             fill="#dce2e9" /><path
             id="Path_138"
             data-name="Path 138"
             d="m 397.967,147.261 a 2.4,2.4 0 0 1 2.4,-2.4 v 0 a 2.4,2.4 0 0 1 2.4,2.4 v 13.348 a 2.4,2.4 0 0 1 -2.4,2.4 v 0 a 2.4,2.4 0 0 1 -2.4,-2.4 z"
             fill="#dce2e9" /><path
             id="Path_139"
             data-name="Path 139"
             d="m 389.961,147.261 a 2.4,2.4 0 0 1 2.4,-2.4 v 0 a 2.406,2.406 0 0 1 2.4,2.4 v 13.348 a 2.406,2.406 0 0 1 -2.4,2.4 v 0 a 2.4,2.4 0 0 1 -2.4,-2.4 z"
             fill="#dce2e9" /><path
             id="Path_140"
             data-name="Path 140"
             d="m 381.949,147.261 a 2.4,2.4 0 0 1 2.4,-2.4 v 0 a 2.4,2.4 0 0 1 2.4,2.4 v 13.348 a 2.4,2.4 0 0 1 -2.4,2.4 v 0 a 2.4,2.4 0 0 1 -2.4,-2.4 z"
             fill="#dce2e9" /></g><g
           id="Group_49"
           data-name="Group 49"
           style="isolation:isolate;mix-blend-mode:multiply"><path
             id="Path_141"
             data-name="Path 141"
             d="m 418.789,157.884 v -10.623 a 2.4,2.4 0 0 0 -4.8,0 v 10.623 z"
             fill="#dce2e9" /><path
             id="Path_142"
             data-name="Path 142"
             d="m 410.781,157.884 v -10.623 a 2.4,2.4 0 1 0 -4.8,0 v 10.623 z"
             fill="#dce2e9" /><path
             id="Path_143"
             data-name="Path 143"
             d="m 402.772,157.884 v -10.623 a 2.4,2.4 0 0 0 -4.8,0 v 10.623 z"
             fill="#dce2e9" /><path
             id="Path_144"
             data-name="Path 144"
             d="m 394.766,157.884 v -10.623 a 2.4,2.4 0 0 0 -4.8,0 v 10.623 z"
             fill="#dce2e9" /><path
             id="Path_145"
             data-name="Path 145"
             d="m 386.753,157.884 v -10.623 a 2.4,2.4 0 1 0 -4.8,0 v 10.623 z"
             fill="#dce2e9" /></g></g></g><path
       id="Rectangle_24"
       data-name="Rectangle 24"
       d="m 7.618,0 h 39.894 a 7.62,7.62 0 0 1 7.62,7.62 v 39.891 a 7.62,7.62 0 0 1 -7.62,7.62 H 7.619 A 7.619,7.619 0 0 1 0,47.512 V 7.618 A 7.618,7.618 0 0 1 7.618,0 Z"
       transform="translate(372.796,100.966)"
       fill="#dce2e9" /><path
       id="Rectangle_25"
       data-name="Rectangle 25"
       d="m 6.349,0 h 32.383 a 6.348,6.348 0 0 1 6.348,6.348 v 32.38 a 6.35,6.35 0 0 1 -6.35,6.35 H 6.349 A 6.349,6.349 0 0 1 0,38.729 V 6.349 A 6.349,6.349 0 0 1 6.349,0 Z"
       transform="translate(377.82,105.993)"
       fill="#dce2e9"
       style="isolation:isolate;mix-blend-mode:screen" /><path
       id="Rectangle_26"
       data-name="Rectangle 26"
       d="M 5.079,0 H 37.46 a 5.079,5.079 0 0 1 5.079,5.079 V 37.461 A 5.079,5.079 0 0 1 37.46,42.54 H 5.08 A 5.08,5.08 0 0 1 0,37.459 V 5.079 A 5.079,5.079 0 0 1 5.079,0 Z"
       transform="translate(379.092,107.262)"
       fill="#8c93a1" /><path
       id="Path_146"
       data-name="Path 146"
       d="m 400.362,129.926 a 31.37,31.37 0 0 0 27.566,-16.382 v -4.959 a 7.619,7.619 0 0 0 -7.619,-7.619 h -39.893 a 7.617,7.617 0 0 0 -7.62,7.619 v 4.959 a 31.368,31.368 0 0 0 27.566,16.382 z"
       fill="#dce2e9"
       opacity="0.5"
       style="isolation:isolate;mix-blend-mode:screen" /><rect
       id="Rectangle_27"
       data-name="Rectangle 27"
       width="22.858"
       height="22.857"
       rx="2.54"
       transform="translate(388.932,117.104)"
       fill="#dce2e9"
       x="0"
       y="0" /><path
       id="Rectangle_28"
       data-name="Rectangle 28"
       d="m 2.117,0 h 14.815 a 2.116,2.116 0 0 1 2.116,2.116 v 14.815 a 2.117,2.117 0 0 1 -2.117,2.117 H 2.115 A 2.115,2.115 0 0 1 0,16.933 V 2.117 A 2.117,2.117 0 0 1 2.117,0 Z"
       transform="translate(390.837,119.008)"
       fill="#ffc52f" /><path
       id="Path_147"
       data-name="Path 147"
       d="m 407.77,119.008 h -14.817 a 2.116,2.116 0 0 0 -2.116,2.116 v 7.325 a 31.445,31.445 0 0 0 19.048,0 v -7.325 a 2.116,2.116 0 0 0 -2.115,-2.116 z"
       fill="#ffc52f"
       opacity="0.8"
       style="isolation:isolate;mix-blend-mode:screen" /></g></svg>
