<?xml version="1.0" encoding="UTF-8" standalone="no"?>
<svg
   style="isolation:isolate"
   width="256"
   height="256"
   version="1.1"
   id="svg5"
   xml:space="preserve"
   xmlns="http://www.w3.org/2000/svg"
   xmlns:svg="http://www.w3.org/2000/svg"><defs
     id="defs1"><filter
       id="a"
       width="1.0842484"
       height="1.1077841"
       x="-0.042124196"
       y="-0.045133094"
       color-interpolation-filters="sRGB"
       filterUnits="objectBoundingBox"><feGaussianBlur
         in="SourceGraphic"
         stdDeviation="4.294"
         id="feGaussianBlur1" /><feOffset
         dy="4"
         result="pf_100_offsetBlur"
         id="feOffset1" /><feFlood
         flood-opacity=".4"
         id="feFlood1" /><feComposite
         in2="pf_100_offsetBlur"
         operator="in"
         result="pf_100_dropShadow"
         id="feComposite1" /><feBlend
         in="SourceGraphic"
         in2="pf_100_dropShadow"
         id="feBlend1" /></filter><linearGradient
       id="b-7"
       x1="108"
       y1="118"
       x2="108"
       y2="8"
       gradientUnits="userSpaceOnUse"><stop
         stop-color="#C061CB"
         id="stop9" /><stop
         offset="1"
         stop-color="#3584E4"
         id="stop10" /></linearGradient><linearGradient
       id="c-5"
       x1="75.507"
       y1="79.666"
       x2="63.668"
       y2="123.853"
       gradientUnits="userSpaceOnUse"><stop
         offset=".234"
         stop-color="#C0BFBC"
         id="stop11" /><stop
         offset=".646"
         stop-color="#DEDDDA"
         id="stop12" /><stop
         offset="1"
         stop-color="#C0BFBC"
         id="stop13" /></linearGradient><linearGradient
       id="d"
       x1="78.175"
       y1="79.666"
       x2="90.015"
       y2="123.853"
       gradientUnits="userSpaceOnUse"><stop
         stop-color="#C0BFBC"
         id="stop14" /><stop
         offset=".646"
         stop-color="#DEDDDA"
         id="stop15" /><stop
         offset="1"
         stop-color="#C0BFBC"
         id="stop16" /></linearGradient><clipPath
       id="a-3"><path
         fill="#fff"
         d="M0 0h128v128H0z"
         id="path16" /></clipPath></defs><path
     fill="#f7f7f7"
     d="M165.689 11.95c74.056 0 84.639 10.557 84.639 84.544v59.251c0 73.986-10.583 84.543-84.639 84.543h-75.37c-74.055 0-84.639-10.557-84.639-84.543V96.494c0-73.987 10.584-84.544 84.639-84.544h75.37z"
     filter="url(#a)"
     id="path1" /><defs
     id="defs2"><filter
       id="b"
       width="1.1421462"
       height="1.2085695"
       x="-0.071073106"
       y="-0.087335595"
       color-interpolation-filters="sRGB"
       filterUnits="objectBoundingBox"><feGaussianBlur
         in="SourceGraphic"
         stdDeviation="4.294"
         id="feGaussianBlur2" /><feOffset
         dy="4"
         result="pf_100_offsetBlur"
         id="feOffset2" /><feFlood
         flood-opacity=".4"
         id="feFlood2" /><feComposite
         in2="pf_100_offsetBlur"
         operator="in"
         result="pf_100_dropShadow"
         id="feComposite2" /><feBlend
         in="SourceGraphic"
         in2="pf_100_dropShadow"
         id="feBlend2" /></filter></defs><g
     opacity=".4"
     id="g5"><linearGradient
       id="c"
       x1=".517"
       x2=".517"
       y2="1"
       gradientTransform="matrix(244.65 0 0 228.34 5.68 11.95)"
       gradientUnits="userSpaceOnUse"><stop
         offset="0%"
         stop-color="#ffffff"
         id="stop2" /><stop
         offset="12.5%"
         stop-color="#ffffff"
         stop-opacity=".098"
         id="stop3" /><stop
         offset="92.5%"
         stop-opacity=".098"
         id="stop4" /><stop
         offset="100%"
         stop-opacity=".498"
         id="stop5" /></linearGradient><path
       fill="url(#c)"
       fill-rule="evenodd"
       d="M165.068 11.951c4.328-.01 8.656.04 12.984.138 3.875.078 7.75.226 11.626.452 3.453.196 6.905.481 10.348.854 3.06.335 6.118.786 9.148 1.346a80.47 80.47 0 0 1 8.046 1.916 53.64 53.64 0 0 1 7.023 2.584 40.413 40.413 0 0 1 6.06 3.35 35.176 35.176 0 0 1 5.134 4.215 35.072 35.072 0 0 1 4.22 5.119 41.692 41.692 0 0 1 3.363 6.042 55.982 55.982 0 0 1 2.597 7.005 80.224 80.224 0 0 1 1.918 8.037 124.43 124.43 0 0 1 1.348 9.127c.374 3.439.659 6.878.856 10.326.226 3.861.373 7.732.462 11.593.088 4.323.138 8.646.128 12.96v58.21c.01 4.324-.04 8.637-.128 12.96a325.177 325.177 0 0 1-.462 11.593 200.984 200.984 0 0 1-.856 10.326 124.691 124.691 0 0 1-1.348 9.137 80.687 80.687 0 0 1-1.918 8.027 55.414 55.414 0 0 1-2.597 7.005 41.18 41.18 0 0 1-3.364 6.042 34.559 34.559 0 0 1-4.22 5.119 35.177 35.177 0 0 1-5.134 4.215 40.412 40.412 0 0 1-6.059 3.35 55.138 55.138 0 0 1-7.023 2.594 77.806 77.806 0 0 1-8.046 1.906 120 120 0 0 1-9.148 1.346c-3.443.373-6.895.658-10.348.854-3.875.226-7.75.374-11.626.462-4.328.088-8.656.138-12.984.128H90.942c-4.328.01-8.656-.04-12.984-.128a328.387 328.387 0 0 1-11.626-.462 203.003 203.003 0 0 1-10.348-.854 120 120 0 0 1-9.148-1.346 77.806 77.806 0 0 1-8.046-1.906 55.139 55.139 0 0 1-7.023-2.594 40.413 40.413 0 0 1-6.06-3.35 35.176 35.176 0 0 1-5.134-4.215 34.56 34.56 0 0 1-4.22-5.119 41.183 41.183 0 0 1-3.363-6.042 55.415 55.415 0 0 1-2.597-7.005 80.682 80.682 0 0 1-1.918-8.027 124.688 124.688 0 0 1-1.348-9.137 200.993 200.993 0 0 1-.856-10.326 325.212 325.212 0 0 1-.462-11.593 569.197 569.197 0 0 1-.128-12.96v-58.21c-.01-4.314.04-8.637.128-12.96.089-3.86.236-7.732.462-11.593.197-3.448.482-6.887.856-10.326.335-3.055.787-6.101 1.348-9.127a80.219 80.219 0 0 1 1.918-8.037 55.983 55.983 0 0 1 2.597-7.005 41.695 41.695 0 0 1 3.364-6.042 35.072 35.072 0 0 1 4.22-5.119 35.176 35.176 0 0 1 5.134-4.215 40.413 40.413 0 0 1 6.059-3.35 53.64 53.64 0 0 1 7.023-2.584 80.47 80.47 0 0 1 8.046-1.916 125.11 125.11 0 0 1 9.148-1.346c3.443-.373 6.895-.658 10.348-.854 3.875-.226 7.75-.374 11.626-.452 4.328-.098 8.656-.148 12.984-.138h74.126zm.01 4.009c4.298-.01 8.597.039 12.895.127 3.827.089 7.653.236 11.48.452 3.383.197 6.766.472 10.13.845 2.971.315 5.932.747 8.863 1.297a75.943 75.943 0 0 1 7.653 1.818 50.493 50.493 0 0 1 6.501 2.397 37.038 37.038 0 0 1 5.47 3.026 30.383 30.383 0 0 1 4.524 3.724 31.05 31.05 0 0 1 3.738 4.519 37.271 37.271 0 0 1 3.03 5.443 51.46 51.46 0 0 1 2.4 6.494 75.563 75.563 0 0 1 1.829 7.634c.54 2.928.974 5.875 1.298 8.842.374 3.36.65 6.73.846 10.11.217 3.822.374 7.634.453 11.456.088 4.293.137 8.577.137 12.87v58.212c0 4.293-.049 8.577-.137 12.87a317.503 317.503 0 0 1-.453 11.456c-.196 3.38-.472 6.75-.846 10.12a121.689 121.689 0 0 1-1.298 8.832 75.562 75.562 0 0 1-1.83 7.634 50.902 50.902 0 0 1-2.4 6.494 36.767 36.767 0 0 1-3.03 5.443 30.615 30.615 0 0 1-3.737 4.53 30.938 30.938 0 0 1-4.525 3.713 37.038 37.038 0 0 1-5.469 3.026 49.07 49.07 0 0 1-6.501 2.397 75.942 75.942 0 0 1-7.653 1.818c-2.931.55-5.892.982-8.863 1.306-3.364.364-6.747.649-10.13.836-3.827.216-7.653.373-11.48.452-4.298.098-8.597.137-12.895.137H90.932c-4.298 0-8.597-.04-12.895-.137a320.093 320.093 0 0 1-11.48-.452 193.696 193.696 0 0 1-10.13-.836 116.71 116.71 0 0 1-8.863-1.306 75.942 75.942 0 0 1-7.653-1.818 49.07 49.07 0 0 1-6.501-2.397 37.038 37.038 0 0 1-5.47-3.026 30.938 30.938 0 0 1-4.524-3.714 30.615 30.615 0 0 1-3.738-4.529 36.766 36.766 0 0 1-3.03-5.443 50.903 50.903 0 0 1-2.4-6.494 75.567 75.567 0 0 1-1.829-7.634 121.69 121.69 0 0 1-1.298-8.832c-.374-3.37-.65-6.74-.846-10.12a317.535 317.535 0 0 1-.453-11.456 623.851 623.851 0 0 1-.137-12.87V97.014c0-4.293.049-8.577.137-12.87.079-3.822.236-7.634.453-11.456.197-3.38.472-6.75.846-10.11.324-2.967.757-5.914 1.298-8.842a75.568 75.568 0 0 1 1.83-7.634 51.46 51.46 0 0 1 2.4-6.494 37.27 37.27 0 0 1 3.03-5.443 31.05 31.05 0 0 1 3.737-4.52 30.384 30.384 0 0 1 4.525-3.723 37.039 37.039 0 0 1 5.469-3.026 50.494 50.494 0 0 1 6.501-2.397 75.943 75.943 0 0 1 7.653-1.818c2.931-.55 5.892-.982 8.863-1.297 3.364-.373 6.747-.648 10.13-.845a344.71 344.71 0 0 1 11.48-.452c4.298-.088 8.597-.137 12.895-.127H165.078z"
       id="path5" /></g><g
     style="fill:none"
     id="g6"
     transform="matrix(1.7085401,0,0,1.7085401,16.533315,14.331681)"><g
       clip-path="url(#a-3)"
       id="g9"><path
         fill-rule="evenodd"
         clip-rule="evenodd"
         d="m 20,10 h 10 v 4.13 a 3,3 0 0 0 3,3 h 8 a 3,3 0 0 0 3,-3 V 10 h 40 v 4.13 a 3,3 0 0 0 3,3 h 8 a 3,3 0 0 0 3,-3 V 10 h 10 V 120 H 98 v -3.111 a 3,3 0 0 0 -3,-3 h -8 a 3,3 0 0 0 -3,3 V 120 H 44 v -3.111 a 3,3 0 0 0 -3,-3 h -8 a 3,3 0 0 0 -3,3 V 120 H 20 Z m 67,18.333 a 3,3 0 0 0 -3,3 v 4.186 a 3,3 0 0 0 3,3 h 8 a 3,3 0 0 0 3,-3 v -4.186 a 3,3 0 0 0 -3,-3 z m -3,24.39 a 3,3 0 0 1 3,-3 h 8 a 3,3 0 0 1 3,3 v 4.184 a 3,3 0 0 1 -3,3 h -8 a 3,3 0 0 1 -3,-3 v -4.185 z m 3,18.388 a 3,3 0 0 0 -3,3 v 4.185 a 3,3 0 0 0 3,3 h 8 a 3,3 0 0 0 3,-3 v -4.185 a 3,3 0 0 0 -3,-3 z M 84,95.5 a 3,3 0 0 1 3,-3 h 8 a 3,3 0 0 1 3,3 v 4.185 a 3,3 0 0 1 -3,3 h -8 a 3,3 0 0 1 -3,-3 z M 33,28.333 a 3,3 0 0 0 -3,3 v 4.186 a 3,3 0 0 0 3,3 h 8 a 3,3 0 0 0 3,-3 v -4.186 a 3,3 0 0 0 -3,-3 z m -3,24.39 a 3,3 0 0 1 3,-3 h 8 a 3,3 0 0 1 3,3 v 4.184 a 3,3 0 0 1 -3,3 h -8 a 3,3 0 0 1 -3,-3 v -4.185 z m 3,18.388 a 3,3 0 0 0 -3,3 v 4.185 a 3,3 0 0 0 3,3 h 8 a 3,3 0 0 0 3,-3 v -4.185 a 3,3 0 0 0 -3,-3 z M 30,95.5 a 3,3 0 0 1 3,-3 h 8 a 3,3 0 0 1 3,3 v 4.185 a 3,3 0 0 1 -3,3 h -8 a 3,3 0 0 1 -3,-3 z"
         fill="#813d9c"
         id="path1-3" /><path
         fill-rule="evenodd"
         clip-rule="evenodd"
         d="m 20,8 h 10 v 4.13 a 3,3 0 0 0 3,3 h 8 a 3,3 0 0 0 3,-3 V 8 h 40 v 4.13 a 3,3 0 0 0 3,3 h 8 a 3,3 0 0 0 3,-3 V 8 h 10 V 118 H 98 v -3.111 a 3,3 0 0 0 -3,-3 h -8 a 3,3 0 0 0 -3,3 V 118 H 44 v -3.111 a 3,3 0 0 0 -3,-3 h -8 a 3,3 0 0 0 -3,3 V 118 H 20 Z m 67,18.333 a 3,3 0 0 0 -3,3 v 4.186 a 3,3 0 0 0 3,3 h 8 a 3,3 0 0 0 3,-3 v -4.186 a 3,3 0 0 0 -3,-3 z m -3,24.39 a 3,3 0 0 1 3,-3 h 8 a 3,3 0 0 1 3,3 v 4.184 a 3,3 0 0 1 -3,3 h -8 a 3,3 0 0 1 -3,-3 v -4.185 z m 3,18.388 a 3,3 0 0 0 -3,3 v 4.185 a 3,3 0 0 0 3,3 h 8 a 3,3 0 0 0 3,-3 v -4.185 a 3,3 0 0 0 -3,-3 z M 84,93.5 a 3,3 0 0 1 3,-3 h 8 a 3,3 0 0 1 3,3 v 4.185 a 3,3 0 0 1 -3,3 h -8 a 3,3 0 0 1 -3,-3 z M 33,26.333 a 3,3 0 0 0 -3,3 v 4.186 a 3,3 0 0 0 3,3 h 8 a 3,3 0 0 0 3,-3 v -4.186 a 3,3 0 0 0 -3,-3 z m -3,24.39 a 3,3 0 0 1 3,-3 h 8 a 3,3 0 0 1 3,3 v 4.184 a 3,3 0 0 1 -3,3 h -8 a 3,3 0 0 1 -3,-3 v -4.185 z m 3,18.388 a 3,3 0 0 0 -3,3 v 4.185 a 3,3 0 0 0 3,3 h 8 a 3,3 0 0 0 3,-3 v -4.185 a 3,3 0 0 0 -3,-3 z M 30,93.5 a 3,3 0 0 1 3,-3 h 8 a 3,3 0 0 1 3,3 v 4.185 a 3,3 0 0 1 -3,3 h -8 a 3,3 0 0 1 -3,-3 z"
         fill="url(#b)"
         id="path2"
         style="fill:url(#b-7)" /><path
         fill-rule="evenodd"
         clip-rule="evenodd"
         d="m 109.944,54.25 c 2.24,-8.36 -2.722,-16.953 -11.082,-19.194 -8.224,-2.203 -16.673,2.561 -19.08,10.674 h -0.005 l -0.079,0.295 a 14.524,14.524 0 0 0 -0.06,0.227 l -8.63,32.208 10.77,2.886 11.067,-15.6 c 7.656,0.975 15.046,-3.833 17.099,-11.495 z M 96.669,43.24 a 7.2003234,7.2003234 0 1 1 -3.727,13.91 7.2003234,7.2003234 0 0 1 3.727,-13.91 z"
         fill="#f5c211"
         id="path3" /><path
         d="M 80.008,80.872 71.007,78.46 60.849,116.369 a 6.5,6.5 0 0 0 4.597,7.961 l 2.722,0.729 z"
         fill="url(#c)"
         id="path4"
         style="fill:url(#c-5)" /><path
         d="m 80.008,80.872 -1.636,-0.438 -11.84,44.187 1.636,0.438 z"
         fill="#deddda"
         id="path5-6" /><path
         fill-rule="evenodd"
         clip-rule="evenodd"
         d="M 43.739,54.25 C 41.499,45.89 46.46,37.297 54.821,35.056 63.044,32.853 71.494,37.617 73.9,45.731 l 0.005,-0.002 0.107,0.397 0.003,0.012 0.003,0.013 8.658,32.31 -10.77,2.885 -11.068,-15.6 C 53.182,66.721 45.792,61.913 43.738,54.251 Z M 57.013,43.24 A 7.2003234,7.2003234 0 1 0 60.74,57.15 7.2003234,7.2003234 0 0 0 57.013,43.24 Z"
         fill="#f6d32d"
         id="path6" /><path
         d="m 73.674,80.872 9.001,-2.412 10.158,37.909 a 6.5,6.5 0 0 1 -4.596,7.961 l -2.723,0.729 z"
         fill="url(#d)"
         id="path7"
         style="fill:url(#d)" /><path
         d="m 73.674,80.872 1.637,-0.438 11.84,44.187 -1.637,0.438 z"
         fill="#deddda"
         id="path8" /><path
         d="m 66,64 8,12"
         stroke="#ffffff"
         stroke-opacity="0.5"
         stroke-width="3"
         stroke-linecap="round"
         id="path9" /></g></g></svg>
