<?xml version="1.0" encoding="UTF-8" standalone="no"?>
<svg
   style="isolation:isolate"
   width="256"
   height="256"
   version="1.1"
   id="svg15"
   sodipodi:docname="mainline.svg"
   xml:space="preserve"
   inkscape:version="1.4 (e7c3feb100, 2024-10-09)"
   xmlns:inkscape="http://www.inkscape.org/namespaces/inkscape"
   xmlns:sodipodi="http://sodipodi.sourceforge.net/DTD/sodipodi-0.dtd"
   xmlns="http://www.w3.org/2000/svg"
   xmlns:svg="http://www.w3.org/2000/svg"><sodipodi:namedview
     id="namedview15"
     pagecolor="#ffffff"
     bordercolor="#000000"
     borderopacity="0.25"
     inkscape:showpageshadow="2"
     inkscape:pageopacity="0.0"
     inkscape:pagecheckerboard="0"
     inkscape:deskcolor="#d1d1d1"
     inkscape:zoom="3.15"
     inkscape:cx="127.93651"
     inkscape:cy="128.09524"
     inkscape:window-width="1910"
     inkscape:window-height="1227"
     inkscape:window-x="313"
     inkscape:window-y="143"
     inkscape:window-maximized="0"
     inkscape:current-layer="svg15" /><defs
     id="defs1"><filter
       id="a"
       width="1.0842484"
       height="1.1077841"
       x="-0.042124196"
       y="-0.045133094"
       color-interpolation-filters="sRGB"
       filterUnits="objectBoundingBox"><feGaussianBlur
         in="SourceGraphic"
         stdDeviation="4.294"
         id="feGaussianBlur1" /><feOffset
         dy="4"
         result="pf_100_offsetBlur"
         id="feOffset1" /><feFlood
         flood-opacity=".4"
         id="feFlood1" /><feComposite
         in2="pf_100_offsetBlur"
         operator="in"
         result="pf_100_dropShadow"
         id="feComposite1" /><feBlend
         in="SourceGraphic"
         in2="pf_100_dropShadow"
         id="feBlend1" /></filter></defs><path
     d="M165.689 11.95c74.056 0 84.639 10.557 84.639 84.544v59.251c0 73.986-10.583 84.543-84.639 84.543h-75.37c-74.055 0-84.639-10.557-84.639-84.543V96.494c0-73.987 10.584-84.544 84.639-84.544h75.37z"
     filter="url(#a)"
     id="path1" /><linearGradient
     id="b"
     x1=".25"
     x2=".75"
     y1=".036"
     y2=".844"
     gradientTransform="matrix(244.65 0 0 228.34 5.68 11.95)"
     gradientUnits="userSpaceOnUse"><stop
       offset="0%"
       stop-color="#f61111"
       id="stop1" /><stop
       offset="48.272%"
       stop-color="#ff4f4f"
       id="stop2" /><stop
       offset="100%"
       stop-color="#ff7a55"
       id="stop3" /></linearGradient><path
     fill="url(#b)"
     d="M165.69 11.95c74.056 0 84.64 10.557 84.64 84.544v59.252c0 73.986-10.584 84.544-84.64 84.544H90.32c-74.056 0-84.64-10.558-84.64-84.544V96.494c0-73.987 10.584-84.544 84.64-84.544h75.37z"
     id="path3" /><path
     opacity=".05"
     d="M90.32 11.95c-74.056 0-84.64 10.557-84.64 84.544v59.252c0 35.819 2.48 56.772 13.443 68.857L185.09 44.57l27.091-29.387c-11.7-2.473-26.844-3.233-46.491-3.233H90.32z"
     id="path4" /><defs
     id="defs6"><filter
       id="c"
       width="1.2125737"
       height="1.1691036"
       x="-0.10628685"
       y="-0.084551806"
       color-interpolation-filters="sRGB"
       filterUnits="objectBoundingBox"><feGaussianBlur
         stdDeviation="5.746"
         id="feGaussianBlur6" /></filter></defs><defs
     id="defs7"><filter
       id="e"
       width="1.0265625"
       height="1.0211306"
       x="-0.013281232"
       y="-0.010565297"
       color-interpolation-filters="sRGB"
       filterUnits="objectBoundingBox"><feGaussianBlur
         stdDeviation=".718"
         id="feGaussianBlur7" /></filter></defs><path
     fill="none"
     d="M130.439 207.67h54.651L92.085 106.646l-10.341 47.991 48.695 53.033z"
     id="path9" /><defs
     id="defs9"><filter
       id="f"
       width="1.217679"
       height="1.2563671"
       x="-0.10883951"
       y="-0.12818357"
       color-interpolation-filters="sRGB"
       filterUnits="objectBoundingBox"><feGaussianBlur
         stdDeviation="5.884"
         id="feGaussianBlur9" /></filter></defs><g
     opacity=".4"
     id="g15"><linearGradient
       id="g"
       x1=".517"
       x2=".517"
       y2="1"
       gradientTransform="matrix(244.65 0 0 228.34 5.68 11.95)"
       gradientUnits="userSpaceOnUse"><stop
         offset="0%"
         stop-color="#ffffff"
         id="stop12" /><stop
         offset="12.5%"
         stop-color="#ffffff"
         stop-opacity=".098"
         id="stop13" /><stop
         offset="92.5%"
         stop-opacity=".098"
         id="stop14" /><stop
         offset="100%"
         stop-opacity=".498"
         id="stop15" /></linearGradient><path
       fill="url(#g)"
       fill-rule="evenodd"
       d="M165.068 11.951c4.328-.01 8.656.04 12.984.138 3.875.078 7.75.226 11.626.452 3.453.196 6.905.481 10.348.854 3.06.335 6.118.786 9.148 1.346a80.47 80.47 0 0 1 8.046 1.916 53.64 53.64 0 0 1 7.023 2.584 40.413 40.413 0 0 1 6.06 3.35 35.176 35.176 0 0 1 5.134 4.215 35.072 35.072 0 0 1 4.22 5.119 41.692 41.692 0 0 1 3.363 6.042 55.982 55.982 0 0 1 2.597 7.005 80.224 80.224 0 0 1 1.918 8.037 124.43 124.43 0 0 1 1.348 9.127c.374 3.439.659 6.878.856 10.326.226 3.861.373 7.732.462 11.593.088 4.323.138 8.646.128 12.96v58.21c.01 4.324-.04 8.637-.128 12.96a325.177 325.177 0 0 1-.462 11.593 200.984 200.984 0 0 1-.856 10.326 124.691 124.691 0 0 1-1.348 9.137 80.687 80.687 0 0 1-1.918 8.027 55.414 55.414 0 0 1-2.597 7.005 41.18 41.18 0 0 1-3.364 6.042 34.559 34.559 0 0 1-4.22 5.119 35.177 35.177 0 0 1-5.134 4.215 40.412 40.412 0 0 1-6.059 3.35 55.138 55.138 0 0 1-7.023 2.594 77.806 77.806 0 0 1-8.046 1.906 120 120 0 0 1-9.148 1.346c-3.443.373-6.895.658-10.348.854-3.875.226-7.75.374-11.626.462-4.328.088-8.656.138-12.984.128H90.942c-4.328.01-8.656-.04-12.984-.128a328.387 328.387 0 0 1-11.626-.462 203.003 203.003 0 0 1-10.348-.854 120 120 0 0 1-9.148-1.346 77.806 77.806 0 0 1-8.046-1.906 55.139 55.139 0 0 1-7.023-2.594 40.413 40.413 0 0 1-6.06-3.35 35.176 35.176 0 0 1-5.134-4.215 34.56 34.56 0 0 1-4.22-5.119 41.183 41.183 0 0 1-3.363-6.042 55.415 55.415 0 0 1-2.597-7.005 80.682 80.682 0 0 1-1.918-8.027 124.688 124.688 0 0 1-1.348-9.137 200.993 200.993 0 0 1-.856-10.326 325.212 325.212 0 0 1-.462-11.593 569.197 569.197 0 0 1-.128-12.96v-58.21c-.01-4.314.04-8.637.128-12.96.089-3.86.236-7.732.462-11.593.197-3.448.482-6.887.856-10.326.335-3.055.787-6.101 1.348-9.127a80.219 80.219 0 0 1 1.918-8.037 55.983 55.983 0 0 1 2.597-7.005 41.695 41.695 0 0 1 3.364-6.042 35.072 35.072 0 0 1 4.22-5.119 35.176 35.176 0 0 1 5.134-4.215 40.413 40.413 0 0 1 6.059-3.35 53.64 53.64 0 0 1 7.023-2.584 80.47 80.47 0 0 1 8.046-1.916 125.11 125.11 0 0 1 9.148-1.346c3.443-.373 6.895-.658 10.348-.854 3.875-.226 7.75-.374 11.626-.452 4.328-.098 8.656-.148 12.984-.138h74.126zm.01 4.009c4.298-.01 8.597.039 12.895.127 3.827.089 7.653.236 11.48.452 3.383.197 6.766.472 10.13.845 2.971.315 5.932.747 8.863 1.297a75.943 75.943 0 0 1 7.653 1.818 50.493 50.493 0 0 1 6.501 2.397 37.038 37.038 0 0 1 5.47 3.026 30.383 30.383 0 0 1 4.524 3.724 31.05 31.05 0 0 1 3.738 4.519 37.271 37.271 0 0 1 3.03 5.443 51.46 51.46 0 0 1 2.4 6.494 75.563 75.563 0 0 1 1.829 7.634c.54 2.928.974 5.875 1.298 8.842.374 3.36.65 6.73.846 10.11.217 3.822.374 7.634.453 11.456.088 4.293.137 8.577.137 12.87v58.212c0 4.293-.049 8.577-.137 12.87a317.503 317.503 0 0 1-.453 11.456c-.196 3.38-.472 6.75-.846 10.12a121.689 121.689 0 0 1-1.298 8.832 75.562 75.562 0 0 1-1.83 7.634 50.902 50.902 0 0 1-2.4 6.494 36.767 36.767 0 0 1-3.03 5.443 30.615 30.615 0 0 1-3.737 4.53 30.938 30.938 0 0 1-4.525 3.713 37.038 37.038 0 0 1-5.469 3.026 49.07 49.07 0 0 1-6.501 2.397 75.942 75.942 0 0 1-7.653 1.818c-2.931.55-5.892.982-8.863 1.306-3.364.364-6.747.649-10.13.836-3.827.216-7.653.373-11.48.452-4.298.098-8.597.137-12.895.137H90.932c-4.298 0-8.597-.04-12.895-.137a320.093 320.093 0 0 1-11.48-.452 193.696 193.696 0 0 1-10.13-.836 116.71 116.71 0 0 1-8.863-1.306 75.942 75.942 0 0 1-7.653-1.818 49.07 49.07 0 0 1-6.501-2.397 37.038 37.038 0 0 1-5.47-3.026 30.938 30.938 0 0 1-4.524-3.714 30.615 30.615 0 0 1-3.738-4.529 36.766 36.766 0 0 1-3.03-5.443 50.903 50.903 0 0 1-2.4-6.494 75.567 75.567 0 0 1-1.829-7.634 121.69 121.69 0 0 1-1.298-8.832c-.374-3.37-.65-6.74-.846-10.12a317.535 317.535 0 0 1-.453-11.456 623.851 623.851 0 0 1-.137-12.87V97.014c0-4.293.049-8.577.137-12.87.079-3.822.236-7.634.453-11.456.197-3.38.472-6.75.846-10.11.324-2.967.757-5.914 1.298-8.842a75.568 75.568 0 0 1 1.83-7.634 51.46 51.46 0 0 1 2.4-6.494 37.27 37.27 0 0 1 3.03-5.443 31.05 31.05 0 0 1 3.737-4.52 30.384 30.384 0 0 1 4.525-3.723 37.039 37.039 0 0 1 5.469-3.026 50.494 50.494 0 0 1 6.501-2.397 75.943 75.943 0 0 1 7.653-1.818c2.931-.55 5.892-.982 8.863-1.297 3.364-.373 6.747-.648 10.13-.845a344.71 344.71 0 0 1 11.48-.452c4.298-.088 8.597-.137 12.895-.127H165.078z"
       id="path15" /></g><g
     style="fill:#550000"
     id="g16"
     transform="matrix(6.4777328,0,0,6.4777328,24.349797,24.346559)"><path
       d="m 14.923,8.08 c -0.025,0.072 -0.141,0.061 -0.207,0.082 -0.059,0.031 -0.107,0.085 -0.175,0.085 -0.062,0 -0.162,-0.025 -0.17,-0.085 -0.012,-0.082 0.11,-0.166 0.187,-0.166 0.05,-0.024 0.108,-0.037 0.169,-0.037 0.056,0 0.109,0.011 0.157,0.032 L 14.881,7.99 c 0.022,0.009 0.038,0.03 0.038,0.055 0,0.003 0,0.005 -0.001,0.008 v 0 0.025 h 0.004 z m 0.688,0 V 8.053 c -0.008,-0.025 0.016,-0.052 0.036,-0.062 0.046,-0.02 0.1,-0.032 0.157,-0.032 0.061,0 0.119,0.014 0.17,0.038 L 15.972,7.996 c 0.079,0 0.2,0.084 0.187,0.169 -0.007,0.061 -0.106,0.082 -0.169,0.082 -0.069,0 -0.115,-0.054 -0.176,-0.085 C 15.749,8.139 15.632,8.152 15.61,8.081 Z m 1.352,1.978 c -0.532,0.337 -1.161,0.574 -1.835,0.666 l -0.024,0.003 c -0.606,-0.035 -1.157,-0.248 -1.607,-0.588 l 0.007,0.005 C 13.312,9.977 13.154,9.809 13.038,9.725 12.833,9.558 12.858,9.309 12.946,9.309 c 0.136,0.02 0.161,0.167 0.249,0.25 0.12,0.082 0.269,0.25 0.45,0.416 0.397,0.328 0.899,0.541 1.45,0.583 l 0.009,10e-4 c 0.654,-0.057 1.249,-0.267 1.763,-0.592 l -0.016,0.01 c 0.244,-0.169 0.556,-0.417 0.81,-0.584 0.195,-0.17 0.186,-0.334 0.349,-0.334 0.16,0.02 0.043,0.167 -0.184,0.415 -0.246,0.188 -0.527,0.381 -0.818,0.56 l -0.044,0.025 z M 8.017,21.397 h 0.012 c 0.069,0 0.137,0.007 0.203,0.019 L 8.225,21.415 c 0.544,0.14 0.992,0.478 1.273,0.931 l 0.005,0.009 1.137,2.079 0.004,0.004 c 0.457,0.773 0.948,1.442 1.497,2.059 L 12.13,26.484 c 0.49,0.52 0.82,1.196 0.909,1.946 l 0.002,0.016 v 0.008 c -0.012,0.817 -0.613,1.491 -1.396,1.616 l -0.009,0.001 c -0.2,0.031 -0.432,0.048 -0.667,0.048 -0.857,0 -1.659,-0.233 -2.347,-0.64 l 0.021,0.012 C 7.59,29.05 6.368,28.777 5.088,28.739 H 5.073 C 4.701,28.714 4.377,28.524 4.172,28.243 L 4.17,28.24 C 4.116,28.066 4.085,27.866 4.085,27.658 c 0,-0.35 0.088,-0.679 0.244,-0.966 l -0.005,0.011 v -0.005 l 0.003,-0.004 c 0.041,-0.188 0.065,-0.405 0.065,-0.627 0,-0.274 -0.036,-0.539 -0.104,-0.791 l 0.005,0.021 c -0.041,-0.15 -0.065,-0.323 -0.065,-0.502 0,-0.242 0.043,-0.473 0.123,-0.687 l -0.004,0.014 c 0.2,-0.417 0.495,-0.5 0.862,-0.666 0.438,-0.133 0.819,-0.334 1.151,-0.593 l -0.008,0.006 h 0.002 v -0.003 c 0.32,-0.335 0.556,-0.751 0.835,-1.047 0.195,-0.249 0.492,-0.41 0.827,-0.42 h 0.002 z m 13.514,-0.061 c -10e-4,0.017 -10e-4,0.038 -10e-4,0.059 0,0.743 0.449,1.381 1.091,1.658 l 0.012,0.005 c 0.048,0.003 0.104,0.005 0.16,0.005 0.831,0 1.575,-0.371 2.075,-0.957 l 0.003,-0.004 0.264,-0.012 c 0.053,-0.008 0.114,-0.012 0.176,-0.012 0.341,0 0.652,0.132 0.883,0.348 l -10e-4,-10e-4 0.004,0.004 c 0.249,0.301 0.422,0.673 0.487,1.082 l 0.002,0.013 c 0.055,0.505 0.238,0.96 0.517,1.34 l -0.005,-0.008 c 0.416,0.356 0.705,0.85 0.793,1.411 l 0.002,0.013 0.004,-0.009 v 0.022 l -0.004,-0.015 c -0.019,0.327 -0.231,0.495 -0.622,0.744 -1.184,0.497 -2.201,1.158 -3.077,1.968 l 0.007,-0.006 c -0.608,0.792 -1.501,1.339 -2.523,1.486 l -0.021,0.002 c -0.074,0.01 -0.16,0.016 -0.247,0.016 -0.768,0 -1.428,-0.464 -1.716,-1.126 L 19.789,29.35 19.783,29.346 C 19.69,29.06 19.637,28.731 19.637,28.39 c 0,-0.416 0.079,-0.813 0.224,-1.178 l -0.008,0.022 c 0.234,-0.668 0.435,-1.466 0.568,-2.288 l 0.011,-0.083 c 0.016,-0.812 0.104,-1.593 0.258,-2.35 l -0.014,0.083 c 0.085,-0.518 0.381,-0.954 0.794,-1.225 l 0.007,-0.004 0.056,-0.027 z M 18.8,10.142 c 0.6,2.147 1.339,4.002 2.247,5.757 l -0.079,-0.167 c 0.613,1.09 1.09,2.355 1.363,3.695 l 0.014,0.084 c 0.009,0 0.02,0 0.031,0 0.217,0 0.427,0.029 0.627,0.084 l -0.017,-0.004 c 0.11,-0.395 0.173,-0.848 0.173,-1.316 0,-1.426 -0.587,-2.716 -1.533,-3.639 l -0.001,-10e-4 c -0.275,-0.25 -0.29,-0.419 -0.154,-0.419 0.971,0.91 1.689,2.078 2.045,3.394 l 0.012,0.051 c 0.089,0.329 0.14,0.707 0.14,1.097 0,0.351 -0.041,0.693 -0.119,1.02 l 0.006,-0.03 c 0.074,0.038 0.16,0.067 0.251,0.083 l 0.006,0.001 c 1.29,0.667 1.766,1.172 1.537,1.921 v -0.054 c -0.075,-0.004 -0.15,0 -0.225,0 h -0.02 c 0.189,-0.584 -0.227,-1.031 -1.331,-1.53 -1.143,-0.5 -2.057,-0.42 -2.212,0.581 -0.011,0.049 -0.019,0.106 -0.022,0.165 v 0.003 c -0.073,0.03 -0.16,0.058 -0.25,0.078 l -0.011,0.002 c -0.508,0.336 -0.87,0.859 -0.989,1.469 l -0.002,0.014 c -0.148,0.695 -0.241,1.5 -0.256,2.323 v 0.012 0.004 c -0.091,0.637 -0.23,1.207 -0.418,1.753 l 0.02,-0.066 c -0.983,0.804 -2.251,1.29 -3.634,1.29 -1.13,0 -2.184,-0.325 -3.073,-0.887 l 0.024,0.014 c -0.146,-0.253 -0.313,-0.472 -0.503,-0.667 l 0.001,10e-4 c -0.097,-0.16 -0.211,-0.297 -0.342,-0.415 l -0.002,-0.001 c 0.207,0 0.407,-0.031 0.596,-0.088 l -0.015,0.004 c 0.18,-0.085 0.318,-0.232 0.391,-0.412 l 0.002,-0.005 c 0.018,-0.093 0.029,-0.199 0.029,-0.308 0,-0.445 -0.175,-0.848 -0.461,-1.146 l 10e-4,0.001 c -0.619,-0.761 -1.359,-1.395 -2.196,-1.88 l -0.038,-0.02 C 9.742,21.6 9.234,20.993 8.983,20.266 L 8.976,20.244 C 8.883,19.926 8.829,19.56 8.829,19.182 c 0,-0.353 0.047,-0.695 0.134,-1.021 l -0.006,0.027 c 0.377,-1.314 0.921,-2.461 1.62,-3.496 l -0.028,0.043 c 0.134,-0.081 0.046,0.169 -0.51,1.217 -0.474,0.713 -0.757,1.59 -0.757,2.533 0,0.84 0.224,1.627 0.616,2.306 L 9.886,20.769 C 9.938,19.46 10.231,18.232 10.72,17.11 l -0.025,0.065 c 1.055,-1.902 1.854,-4.111 2.275,-6.452 l 0.02,-0.131 c 0.06,0.045 0.271,0.169 0.361,0.252 0.272,0.166 0.475,0.416 0.737,0.581 0.267,0.26 0.633,0.42 1.035,0.42 0.021,0 0.042,0 0.063,-0.001 h -0.003 c 0.049,0.004 0.094,0.008 0.137,0.008 0.459,-0.009 0.887,-0.132 1.259,-0.342 l -0.013,0.007 c 0.362,-0.167 0.65,-0.417 0.925,-0.5 h 0.006 c 0.535,-0.145 0.983,-0.454 1.3,-0.869 l 0.004,-0.006 z M 15.301,7.465 c 0.003,0 0.006,0 0.009,0 0.569,0 1.094,0.187 1.517,0.503 L 16.82,7.963 c 0.378,0.234 0.814,0.433 1.275,0.574 l 0.04,0.01 h 0.004 c 0.246,0.11 0.449,0.281 0.594,0.494 l 0.003,0.005 V 8.882 c 0.046,0.092 0.074,0.201 0.074,0.316 0,0.098 -0.02,0.191 -0.055,0.276 l 0.002,-0.005 c -0.288,0.507 -0.755,0.884 -1.313,1.048 l -0.016,0.004 v 0.002 c -0.335,0.169 -0.626,0.416 -0.968,0.581 -0.35,0.21 -0.771,0.334 -1.222,0.334 -0.015,0 -0.03,0 -0.045,0 h 0.002 c -0.022,10e-4 -0.048,0.002 -0.074,0.002 -0.174,0 -0.342,-0.031 -0.496,-0.089 l 0.01,0.003 c -0.159,-0.087 -0.29,-0.169 -0.417,-0.257 l 0.014,0.01 c -0.227,-0.199 -0.477,-0.39 -0.739,-0.565 L 13.467,10.526 V 10.52 H 13.461 C 13.086,10.321 12.791,10.016 12.609,9.644 L 12.604,9.632 C 12.577,9.565 12.562,9.487 12.562,9.406 c 0,-0.218 0.112,-0.41 0.281,-0.522 l 0.002,-0.001 c 0.28,-0.169 0.475,-0.339 0.604,-0.42 0.13,-0.092 0.179,-0.127 0.22,-0.164 h 0.002 V 8.295 C 13.939,7.956 14.294,7.696 14.703,7.549 L 14.719,7.544 C 14.893,7.494 15.093,7.465 15.3,7.463 h 10e-4 z M 13.589,5.333 h 0.045 c 0.188,0.004 0.361,0.067 0.501,0.17 L 14.133,5.501 c 0.179,0.159 0.325,0.352 0.425,0.57 l 0.004,0.011 c 0.113,0.245 0.183,0.53 0.191,0.83 V 6.915 6.92 c 0.004,0.046 0.006,0.099 0.006,0.152 0,0.063 -0.003,0.126 -0.009,0.188 l 10e-4,-0.008 v 0.1 c -0.037,0.009 -0.07,0.022 -0.104,0.03 -0.191,0.079 -0.352,0.163 -0.505,0.258 l 0.014,-0.008 c 0.008,-0.055 0.012,-0.118 0.012,-0.182 0,-0.053 -0.003,-0.106 -0.009,-0.158 L 14.16,7.298 V 7.279 C 14.142,7.125 14.106,6.984 14.053,6.851 l 0.004,0.011 C 14.016,6.73 13.944,6.618 13.85,6.529 v 0 c -0.055,-0.05 -0.128,-0.081 -0.209,-0.081 -0.007,0 -0.014,0 -0.021,10e-4 h 0.001 -0.026 C 13.492,6.46 13.406,6.524 13.363,6.612 l -10e-4,0.002 c -0.077,0.093 -0.13,0.208 -0.15,0.334 v 0.004 c -0.023,0.086 -0.035,0.185 -0.035,0.287 0,0.044 0.002,0.088 0.007,0.131 V 7.365 7.384 C 13.2,7.538 13.236,7.68 13.288,7.812 L 13.284,7.801 c 0.042,0.132 0.113,0.245 0.207,0.335 v 0 c 0.012,0.012 0.026,0.022 0.042,0.03 h 0.001 c -0.083,0.053 -0.155,0.109 -0.221,0.171 l 10e-4,-10e-4 c -0.045,0.04 -0.1,0.07 -0.161,0.084 L 13.15,8.421 C 13.027,8.274 12.913,8.109 12.815,7.935 L 12.807,7.919 C 12.694,7.674 12.624,7.39 12.613,7.089 V 7.085 C 12.609,7.037 12.607,6.981 12.607,6.924 c 0,-0.241 0.039,-0.473 0.11,-0.69 L 12.713,6.25 c 0.074,-0.258 0.195,-0.481 0.356,-0.671 l -0.002,0.003 c 0.127,-0.15 0.313,-0.245 0.522,-0.25 h 10e-4 z m 3.702,-0.074 h 0.016 c 0.001,0 0.002,0 0.004,0 0.275,0 0.527,0.093 0.729,0.249 L 18.037,5.506 c 0.229,0.177 0.413,0.4 0.542,0.655 l 0.005,0.011 c 0.121,0.266 0.196,0.575 0.207,0.901 v 0.004 c 0,-0.025 0.007,-0.05 0.007,-0.075 V 7.133 L 18.793,7.107 18.788,7.077 c -0.003,0.32 -0.071,0.622 -0.193,0.897 L 18.601,7.96 c -0.062,0.163 -0.152,0.303 -0.266,0.419 v 0 C 18.305,8.361 18.268,8.344 18.231,8.329 L 18.225,8.327 C 18.09,8.285 17.972,8.228 17.865,8.158 L 17.87,8.161 C 17.793,8.129 17.701,8.101 17.606,8.08 L 17.595,8.078 C 17.676,8.002 17.751,7.921 17.82,7.835 L 17.824,7.83 c 0.063,-0.148 0.102,-0.319 0.11,-0.499 V 7.328 7.303 c 0,-0.008 0,-0.016 0,-0.025 0,-0.17 -0.028,-0.333 -0.08,-0.485 l 0.003,0.011 C 17.794,6.645 17.717,6.508 17.625,6.383 l 0.004,0.005 C 17.542,6.3 17.427,6.24 17.298,6.223 h -0.003 -0.02 c -10e-4,0 -0.003,0 -0.004,0 -0.132,0 -0.25,0.065 -0.322,0.164 l -0.001,0.001 c -0.116,0.113 -0.204,0.253 -0.254,0.41 L 16.692,6.805 C 16.629,6.952 16.588,7.123 16.58,7.301 v 0.003 0.024 c 0.002,0.12 0.011,0.236 0.027,0.349 L 16.605,7.662 C 16.364,7.578 16.058,7.493 15.846,7.41 15.834,7.337 15.826,7.251 15.824,7.163 V 7.16 7.135 c -10e-4,-0.02 -10e-4,-0.043 -10e-4,-0.066 0,-0.324 0.069,-0.631 0.194,-0.908 l -0.006,0.014 c 0.106,-0.279 0.293,-0.508 0.532,-0.663 l 0.005,-0.003 c 0.204,-0.156 0.462,-0.25 0.742,-0.25 v 0 z M 16.63,1.004 c -0.194,0 -0.394,0.01 -0.6,0.026 -5.281,0.416 -3.88,6.007 -3.961,7.87 -0.05,1.426 -0.534,2.729 -1.325,3.792 l 0.013,-0.018 C 9.35,14.276 8.202,16.148 7.406,18.197 l -0.043,0.127 c -0.258,0.685 -0.408,1.476 -0.408,2.302 0,0.285 0.018,0.566 0.052,0.841 L 7.004,21.434 C 6.948,21.48 6.901,21.536 6.868,21.6 l -0.001,0.003 c -0.325,0.335 -0.562,0.75 -0.829,1.048 -0.283,0.217 -0.615,0.388 -0.975,0.494 L 5.042,23.15 C 4.578,23.289 4.2,23.592 3.967,23.991 L 3.962,24 c -0.104,0.212 -0.165,0.461 -0.165,0.725 0,0.01 0,0.019 0,0.029 v -0.001 c 0.002,0.238 0.026,0.469 0.073,0.693 L 3.866,25.423 c 0.056,0.219 0.088,0.471 0.088,0.73 0,0.17 -0.014,0.337 -0.041,0.5 l 0.002,-0.018 c -0.167,0.313 -0.264,0.685 -0.264,1.08 0,0.278 0.048,0.544 0.137,0.791 L 3.783,28.49 c 0.273,0.388 0.686,0.662 1.164,0.749 l 0.011,0.002 c 1.274,0.107 2.451,0.373 3.561,0.78 l -0.094,-0.03 c 0.698,0.415 1.539,0.66 2.436,0.66 0.294,0 0.582,-0.026 0.862,-0.077 l -0.029,0.004 c 0.667,-0.151 1.211,-0.586 1.504,-1.169 l 0.006,-0.013 c 0.734,-0.004 1.537,-0.336 2.824,-0.417 0.873,-0.072 1.967,0.334 3.22,0.25 0.037,0.159 0.086,0.298 0.148,0.429 l -0.006,-0.013 0.004,0.004 c 0.384,0.804 1.19,1.35 2.124,1.35 0.081,0 0.161,-0.004 0.24,-0.012 l -0.01,0.001 c 1.151,-0.17 2.139,-0.768 2.813,-1.623 l 0.007,-0.009 c 0.843,-0.768 1.827,-1.401 2.905,-1.853 l 0.067,-0.025 c 0.432,-0.191 0.742,-0.585 0.81,-1.059 l 10e-4,-0.007 c -0.059,-0.694 -0.392,-1.299 -0.888,-1.716 l -0.004,-0.003 v -0.121 l -0.004,-0.004 c -0.214,-0.33 -0.364,-0.722 -0.421,-1.142 l -0.002,-0.015 c -0.053,-0.513 -0.278,-0.966 -0.615,-1.307 v 0 H 26.413 C 26.339,22.037 26.259,22.02 26.178,21.935 26.112,21.888 26.03,21.859 25.941,21.855 H 25.94 c 0.195,-0.602 0.308,-1.294 0.308,-2.013 0,-0.94 -0.193,-1.835 -0.541,-2.647 l 0.017,0.044 C 25.02,15.567 24.105,14.128 22.992,12.87 l 0.014,0.017 C 21.901,11.805 21.178,10.336 21.058,8.7 L 21.057,8.679 C 21.09,5.99 21.352,1.015 16.628,1.008 Z"
       id="path1-6"
       style="fill:#550000" /></g></svg>
