<?xml version="1.0" encoding="UTF-8" standalone="no"?>
<svg
   style="isolation:isolate"
   width="256"
   height="256"
   version="1.1"
   id="svg45"
   xmlns:xlink="http://www.w3.org/1999/xlink"
   xmlns="http://www.w3.org/2000/svg"
   xmlns:svg="http://www.w3.org/2000/svg">
  <defs
     id="defs13">
    <linearGradient
       id="linearGradient992">
      <stop
         style="stop-color:#1381b2;stop-opacity:1"
         offset="0"
         id="stop988" />
      <stop
         style="stop-color:#0f2556;stop-opacity:1"
         offset="0.52322787"
         id="stop11072" />
      <stop
         style="stop-color:#0f1c2f;stop-opacity:1"
         offset="1"
         id="stop990" />
    </linearGradient>
    <filter
       id="a"
       width="1.0842484"
       height="1.1077841"
       x="-0.042124196"
       y="-0.045133094"
       color-interpolation-filters="sRGB"
       filterUnits="objectBoundingBox">
      <feGaussianBlur
         in="SourceGraphic"
         stdDeviation="4.294"
         id="feGaussianBlur2" />
      <feOffset
         dy="4"
         result="pf_100_offsetBlur"
         id="feOffset4" />
      <feFlood
         flood-opacity=".4"
         id="feFlood6" />
      <feComposite
         in2="pf_100_offsetBlur"
         operator="in"
         result="pf_100_dropShadow"
         id="feComposite8" />
      <feBlend
         in="SourceGraphic"
         in2="pf_100_dropShadow"
         id="feBlend10" />
    </filter>
    <linearGradient
       xlink:href="#linearGradient992"
       id="linearGradient994"
       x1="135.62743"
       y1="240.90468"
       x2="134.88033"
       y2="14.869538"
       gradientUnits="userSpaceOnUse" />
  </defs>
  <defs
     id="defs28">
    <filter
       id="b"
       width="1.1421462"
       height="1.2085695"
       x="-0.071073106"
       y="-0.087335595"
       color-interpolation-filters="sRGB"
       filterUnits="objectBoundingBox">
      <feGaussianBlur
         in="SourceGraphic"
         stdDeviation="4.294"
         id="feGaussianBlur17" />
      <feOffset
         dy="4"
         result="pf_100_offsetBlur"
         id="feOffset19" />
      <feFlood
         flood-opacity=".4"
         id="feFlood21" />
      <feComposite
         in2="pf_100_offsetBlur"
         operator="in"
         result="pf_100_dropShadow"
         id="feComposite23" />
      <feBlend
         in="SourceGraphic"
         in2="pf_100_dropShadow"
         id="feBlend25" />
    </filter>
  </defs>
  <g
     id="g856">
    <path
       fill="#f7f7f7"
       d="M165.689 11.95c74.056 0 84.639 10.557 84.639 84.544v59.251c0 73.986-10.583 84.543-84.639 84.543h-75.37c-74.055 0-84.639-10.557-84.639-84.543V96.494c0-73.987 10.584-84.544 84.639-84.544h75.37z"
       filter="url(#a)"
       id="path15"
       style="fill:url(#linearGradient994);fill-opacity:1" />
    <g
       opacity=".4"
       id="g43">
      <linearGradient
         id="c"
         x1=".517"
         x2=".517"
         y2="1"
         gradientTransform="matrix(244.65 0 0 228.34 5.68 11.95)"
         gradientUnits="userSpaceOnUse">
        <stop
           offset="0%"
           stop-color="#ffffff"
           id="stop32" />
        <stop
           offset="12.5%"
           stop-color="#ffffff"
           stop-opacity=".098"
           id="stop34" />
        <stop
           offset="92.5%"
           stop-opacity=".098"
           id="stop36" />
        <stop
           offset="100%"
           stop-opacity=".498"
           id="stop38" />
      </linearGradient>
      <path
         fill="url(#c)"
         fill-rule="evenodd"
         d="M165.068 11.951c4.328-.01 8.656.04 12.984.138 3.875.078 7.75.226 11.626.452 3.453.196 6.905.481 10.348.854 3.06.335 6.118.786 9.148 1.346a80.47 80.47 0 0 1 8.046 1.916 53.64 53.64 0 0 1 7.023 2.584 40.413 40.413 0 0 1 6.06 3.35 35.176 35.176 0 0 1 5.134 4.215 35.072 35.072 0 0 1 4.22 5.119 41.692 41.692 0 0 1 3.363 6.042 55.982 55.982 0 0 1 2.597 7.005 80.224 80.224 0 0 1 1.918 8.037 124.43 124.43 0 0 1 1.348 9.127c.374 3.439.659 6.878.856 10.326.226 3.861.373 7.732.462 11.593.088 4.323.138 8.646.128 12.96v58.21c.01 4.324-.04 8.637-.128 12.96a325.177 325.177 0 0 1-.462 11.593 200.984 200.984 0 0 1-.856 10.326 124.691 124.691 0 0 1-1.348 9.137 80.687 80.687 0 0 1-1.918 8.027 55.414 55.414 0 0 1-2.597 7.005 41.18 41.18 0 0 1-3.364 6.042 34.559 34.559 0 0 1-4.22 5.119 35.177 35.177 0 0 1-5.134 4.215 40.412 40.412 0 0 1-6.059 3.35 55.138 55.138 0 0 1-7.023 2.594 77.806 77.806 0 0 1-8.046 1.906 120 120 0 0 1-9.148 1.346c-3.443.373-6.895.658-10.348.854-3.875.226-7.75.374-11.626.462-4.328.088-8.656.138-12.984.128H90.942c-4.328.01-8.656-.04-12.984-.128a328.387 328.387 0 0 1-11.626-.462 203.003 203.003 0 0 1-10.348-.854 120 120 0 0 1-9.148-1.346 77.806 77.806 0 0 1-8.046-1.906 55.139 55.139 0 0 1-7.023-2.594 40.413 40.413 0 0 1-6.06-3.35 35.176 35.176 0 0 1-5.134-4.215 34.56 34.56 0 0 1-4.22-5.119 41.183 41.183 0 0 1-3.363-6.042 55.415 55.415 0 0 1-2.597-7.005 80.682 80.682 0 0 1-1.918-8.027 124.688 124.688 0 0 1-1.348-9.137 200.993 200.993 0 0 1-.856-10.326 325.212 325.212 0 0 1-.462-11.593 569.197 569.197 0 0 1-.128-12.96v-58.21c-.01-4.314.04-8.637.128-12.96.089-3.86.236-7.732.462-11.593.197-3.448.482-6.887.856-10.326.335-3.055.787-6.101 1.348-9.127a80.219 80.219 0 0 1 1.918-8.037 55.983 55.983 0 0 1 2.597-7.005 41.695 41.695 0 0 1 3.364-6.042 35.072 35.072 0 0 1 4.22-5.119 35.176 35.176 0 0 1 5.134-4.215 40.413 40.413 0 0 1 6.059-3.35 53.64 53.64 0 0 1 7.023-2.584 80.47 80.47 0 0 1 8.046-1.916 125.11 125.11 0 0 1 9.148-1.346c3.443-.373 6.895-.658 10.348-.854 3.875-.226 7.75-.374 11.626-.452 4.328-.098 8.656-.148 12.984-.138h74.126zm.01 4.009c4.298-.01 8.597.039 12.895.127 3.827.089 7.653.236 11.48.452 3.383.197 6.766.472 10.13.845 2.971.315 5.932.747 8.863 1.297a75.943 75.943 0 0 1 7.653 1.818 50.493 50.493 0 0 1 6.501 2.397 37.038 37.038 0 0 1 5.47 3.026 30.383 30.383 0 0 1 4.524 3.724 31.05 31.05 0 0 1 3.738 4.519 37.271 37.271 0 0 1 3.03 5.443 51.46 51.46 0 0 1 2.4 6.494 75.563 75.563 0 0 1 1.829 7.634c.54 2.928.974 5.875 1.298 8.842.374 3.36.65 6.73.846 10.11.217 3.822.374 7.634.453 11.456.088 4.293.137 8.577.137 12.87v58.212c0 4.293-.049 8.577-.137 12.87a317.503 317.503 0 0 1-.453 11.456c-.196 3.38-.472 6.75-.846 10.12a121.689 121.689 0 0 1-1.298 8.832 75.562 75.562 0 0 1-1.83 7.634 50.902 50.902 0 0 1-2.4 6.494 36.767 36.767 0 0 1-3.03 5.443 30.615 30.615 0 0 1-3.737 4.53 30.938 30.938 0 0 1-4.525 3.713 37.038 37.038 0 0 1-5.469 3.026 49.07 49.07 0 0 1-6.501 2.397 75.942 75.942 0 0 1-7.653 1.818c-2.931.55-5.892.982-8.863 1.306-3.364.364-6.747.649-10.13.836-3.827.216-7.653.373-11.48.452-4.298.098-8.597.137-12.895.137H90.932c-4.298 0-8.597-.04-12.895-.137a320.093 320.093 0 0 1-11.48-.452 193.696 193.696 0 0 1-10.13-.836 116.71 116.71 0 0 1-8.863-1.306 75.942 75.942 0 0 1-7.653-1.818 49.07 49.07 0 0 1-6.501-2.397 37.038 37.038 0 0 1-5.47-3.026 30.938 30.938 0 0 1-4.524-3.714 30.615 30.615 0 0 1-3.738-4.529 36.766 36.766 0 0 1-3.03-5.443 50.903 50.903 0 0 1-2.4-6.494 75.567 75.567 0 0 1-1.829-7.634 121.69 121.69 0 0 1-1.298-8.832c-.374-3.37-.65-6.74-.846-10.12a317.535 317.535 0 0 1-.453-11.456 623.851 623.851 0 0 1-.137-12.87V97.014c0-4.293.049-8.577.137-12.87.079-3.822.236-7.634.453-11.456.197-3.38.472-6.75.846-10.11.324-2.967.757-5.914 1.298-8.842a75.568 75.568 0 0 1 1.83-7.634 51.46 51.46 0 0 1 2.4-6.494 37.27 37.27 0 0 1 3.03-5.443 31.05 31.05 0 0 1 3.737-4.52 30.384 30.384 0 0 1 4.525-3.723 37.039 37.039 0 0 1 5.469-3.026 50.494 50.494 0 0 1 6.501-2.397 75.943 75.943 0 0 1 7.653-1.818c2.931-.55 5.892-.982 8.863-1.297 3.364-.373 6.747-.648 10.13-.845a344.71 344.71 0 0 1 11.48-.452c4.298-.088 8.597-.137 12.895-.127H165.078z"
         id="path41" />
    </g>
    <path
       d="m 192.08724,87.1978 c 0,15.7875 -12.8025,28.59 -28.59,28.59 -7.8975,0 -15.045,-3.2025 -20.22,-8.3775 -5.55,-5.2275 -9.0075,-12.63 -9.0075,-20.835 0,-15.7875 12.8025,-28.59 28.59,-28.59 8.205,0 15.6,3.4575 20.82,8.9925 l 0.015,0.015 c 5.18251,5.0175 8.40001,12.0375 8.40001,19.8075 v 0.41249 -0.0226 z m -90.2475,86.9475 c 0,-0.03 0,-0.06 0,-0.09 0,-16.1325 -13.080002,-29.205 -29.205,-29.205 -0.02997,0 -0.06003,0 -0.09743,0 h 0.0072 c -2.242503,0 -4.425003,0.255 -6.525,0.7425 l 0.194994,-0.0374 12.187503,4.92 c 5.834997,2.2725 10.402492,6.7275 12.779997,12.33 l 0.05247,0.15 c 1.229994,2.67 1.949994,5.79 1.949994,9.075 0,3.135 -0.6525,6.12 -1.829997,8.82 l 0.05247,-0.1425 c -2.280008,5.835 -6.757503,10.395 -12.39,12.72 l -0.150003,0.0526 c -2.662497,1.2075 -5.774994,1.905 -9.045,1.905 -3.164994,0 -6.179994,-0.66 -8.91,-1.845 l 0.142506,0.0526 q -2.460004,-0.9375 -7.267503,-2.8725 l -7.147554,-2.8725 c 2.527499,4.7025 6.149999,8.535 10.537499,11.235 l 0.127501,0.075 c 4.259997,2.68499 9.434997,4.28249 14.992497,4.28249 h 0.255006 -0.01503 0.09 c 16.132495,0 29.20499,-13.07999 29.20499,-29.205 0,-0.03 0,-0.06 0,-0.0974 v 0.007 z m 97.2675,-86.8275 c -0.0374,-19.725 -16.02,-35.7075 -35.7375,-35.745 -19.7325,0.015 -35.7225,16.0125 -35.7225,35.745 0,19.7325 16.005,35.745 35.745,35.745 9.8475,0 18.7725,-3.9825 25.23,-10.4325 6.4725,-6.255 10.4925,-15.0225 10.4925,-24.72 0,-0.21 0,-0.42 -0.007,-0.6225 z m 17.58,0 v 0.007 c 0,29.445 -23.8725,53.3175 -53.3175,53.3175 h -0.007 L 112.15254,178 c -0.87,10.2075 -5.6175,19.17 -12.735,25.515 l -0.03744,0.03 C 92.525097,210.0175 83.247603,214 73.0401,214 c -0.172494,0 -0.344997,0 -0.5175,0 h 0.02997 C 53.547603,213.98497 37.662603,200.6725 33.695103,182.86 L 33.64266,182.5975 6.6876595,171.8125 V 121.54 L 52.28766,139.9375 c 5.685,-3.5325 12.592497,-5.625 19.980003,-5.625 h 0.307494 -0.01503 q 1.522494,0 4.102497,0.2325 L 109.94766,86.8525 c 0.375,-29.235 24.135,-52.8 53.415,-52.8525 h 0.007 c 29.43,0.045 53.28,23.8875 53.32501,53.3175 v 0.007 z"
       id="path962"
       style="fill:#ffffff;stroke-width:7.5" />
  </g>
</svg>
