<?xml version="1.0" encoding="UTF-8" standalone="no"?>
<svg
   style="isolation:isolate"
   width="256"
   height="256"
   version="1.1"
   id="svg5"
   xml:space="preserve"
   xmlns:xlink="http://www.w3.org/1999/xlink"
   xmlns="http://www.w3.org/2000/svg"
   xmlns:svg="http://www.w3.org/2000/svg"><defs
     id="defs1"><filter
       id="a"
       width="1.0842484"
       height="1.1077841"
       x="-0.042124196"
       y="-0.045133094"
       color-interpolation-filters="sRGB"
       filterUnits="objectBoundingBox"><feGaussianBlur
         in="SourceGraphic"
         stdDeviation="4.294"
         id="feGaussianBlur1" /><feOffset
         dy="4"
         result="pf_100_offsetBlur"
         id="feOffset1" /><feFlood
         flood-opacity=".4"
         id="feFlood1" /><feComposite
         in2="pf_100_offsetBlur"
         operator="in"
         result="pf_100_dropShadow"
         id="feComposite1" /><feBlend
         in="SourceGraphic"
         in2="pf_100_dropShadow"
         id="feBlend1" /></filter><linearGradient
       id="a-3"
       x1="70.79"
       x2="6.447"
       y1="12.39"
       y2="74.47"
       gradientTransform="translate(-1.3,-0.004086)"
       gradientUnits="userSpaceOnUse"><stop
         stop-color="#fff44f"
         offset=".048"
         id="stop1" /><stop
         stop-color="#ffe847"
         offset=".111"
         id="stop2-6" /><stop
         stop-color="#ffc830"
         offset=".225"
         id="stop3-7" /><stop
         stop-color="#ff980e"
         offset=".368"
         id="stop4-5" /><stop
         stop-color="#ff8b16"
         offset=".401"
         id="stop5-3" /><stop
         stop-color="#ff672a"
         offset=".462"
         id="stop6" /><stop
         stop-color="#ff3647"
         offset=".534"
         id="stop7" /><stop
         stop-color="#e31587"
         offset=".705"
         id="stop8" /></linearGradient><radialGradient
       id="b-5"
       cx="-7907"
       cy="-8515"
       r="80.8"
       gradientTransform="translate(7974,8524)"
       gradientUnits="userSpaceOnUse"><stop
         stop-color="#ffbd4f"
         offset=".129"
         id="stop9" /><stop
         stop-color="#ffac31"
         offset=".186"
         id="stop10" /><stop
         stop-color="#ff9d17"
         offset=".247"
         id="stop11" /><stop
         stop-color="#ff980e"
         offset=".283"
         id="stop12" /><stop
         stop-color="#ff563b"
         offset=".403"
         id="stop13" /><stop
         stop-color="#ff3750"
         offset=".467"
         id="stop14" /><stop
         stop-color="#f5156c"
         offset=".71"
         id="stop15" /><stop
         stop-color="#eb0878"
         offset=".782"
         id="stop16" /><stop
         stop-color="#e50080"
         offset=".86"
         id="stop17" /></radialGradient><radialGradient
       id="c-6"
       cx="-7937"
       cy="-8482"
       r="80.8"
       gradientTransform="translate(7974,8524)"
       gradientUnits="userSpaceOnUse"><stop
         stop-color="#960e18"
         offset=".3"
         id="stop18" /><stop
         stop-color="#b11927"
         stop-opacity=".74"
         offset=".351"
         id="stop19" /><stop
         stop-color="#db293d"
         stop-opacity=".343"
         offset=".435"
         id="stop20" /><stop
         stop-color="#f5334b"
         stop-opacity=".094"
         offset=".497"
         id="stop21" /><stop
         stop-color="#ff3750"
         stop-opacity="0"
         offset=".53"
         id="stop22" /></radialGradient><radialGradient
       id="d"
       cx="-7927"
       cy="-8533"
       r="58.53"
       gradientTransform="translate(7974,8524)"
       gradientUnits="userSpaceOnUse"><stop
         stop-color="#fff44f"
         offset=".132"
         id="stop23" /><stop
         stop-color="#ffdc3e"
         offset=".252"
         id="stop24" /><stop
         stop-color="#ff9d12"
         offset=".506"
         id="stop25" /><stop
         stop-color="#ff980e"
         offset=".526"
         id="stop26" /></radialGradient><radialGradient
       id="e"
       cx="-7946"
       cy="-8461"
       r="38.47"
       gradientTransform="translate(7974,8524)"
       gradientUnits="userSpaceOnUse"><stop
         stop-color="#3a8ee6"
         offset=".353"
         id="stop27" /><stop
         stop-color="#5c79f0"
         offset=".472"
         id="stop28" /><stop
         stop-color="#9059ff"
         offset=".669"
         id="stop29" /><stop
         stop-color="#c139e6"
         offset="1"
         id="stop30" /></radialGradient><radialGradient
       id="f"
       cx="-7936"
       cy="-8492"
       r="20.4"
       gradientTransform="matrix(0.972,-0.235,0.275,1.138,10090,7834)"
       gradientUnits="userSpaceOnUse"><stop
         stop-color="#9059ff"
         stop-opacity="0"
         offset=".206"
         id="stop31" /><stop
         stop-color="#8c4ff3"
         stop-opacity=".064"
         offset=".278"
         id="stop32" /><stop
         stop-color="#7716a8"
         stop-opacity=".45"
         offset=".747"
         id="stop33" /><stop
         stop-color="#6e008b"
         stop-opacity=".6"
         offset=".975"
         id="stop34" /></radialGradient><radialGradient
       id="g"
       cx="-7938"
       cy="-8518"
       r="27.68"
       gradientTransform="translate(7974,8524)"
       gradientUnits="userSpaceOnUse"><stop
         stop-color="#ffe226"
         offset="0"
         id="stop35" /><stop
         stop-color="#ffdb27"
         offset=".121"
         id="stop36" /><stop
         stop-color="#ffc82a"
         offset=".295"
         id="stop37" /><stop
         stop-color="#ffa930"
         offset=".502"
         id="stop38" /><stop
         stop-color="#ff7e37"
         offset=".732"
         id="stop39" /><stop
         stop-color="#ff7139"
         offset=".792"
         id="stop40" /></radialGradient><radialGradient
       id="h"
       cx="-7916"
       cy="-8536"
       r="118.1"
       gradientTransform="translate(7974,8524)"
       gradientUnits="userSpaceOnUse"><stop
         stop-color="#fff44f"
         offset=".113"
         id="stop41" /><stop
         stop-color="#ff980e"
         offset=".456"
         id="stop42" /><stop
         stop-color="#ff5634"
         offset=".622"
         id="stop43" /><stop
         stop-color="#ff3647"
         offset=".716"
         id="stop44" /><stop
         stop-color="#e31587"
         offset=".904"
         id="stop45" /></radialGradient><radialGradient
       id="i"
       cx="-7927"
       cy="-8523"
       r="86.5"
       gradientTransform="matrix(0.105,0.995,-0.653,0.069,-4685,8470)"
       gradientUnits="userSpaceOnUse"><stop
         stop-color="#fff44f"
         offset="0"
         id="stop46" /><stop
         stop-color="#ffe847"
         offset=".06"
         id="stop47" /><stop
         stop-color="#ffc830"
         offset=".168"
         id="stop48" /><stop
         stop-color="#ff980e"
         offset=".304"
         id="stop49" /><stop
         stop-color="#ff8b16"
         offset=".356"
         id="stop50" /><stop
         stop-color="#ff672a"
         offset=".455"
         id="stop51" /><stop
         stop-color="#ff3647"
         offset=".57"
         id="stop52" /><stop
         stop-color="#e31587"
         offset=".737"
         id="stop53" /></radialGradient><radialGradient
       id="j"
       cx="-7938"
       cy="-8508"
       r="73.72"
       gradientTransform="translate(7974,8524)"
       gradientUnits="userSpaceOnUse"><stop
         stop-color="#fff44f"
         offset=".137"
         id="stop54" /><stop
         stop-color="#ff980e"
         offset=".48"
         id="stop55" /><stop
         stop-color="#ff5634"
         offset=".592"
         id="stop56" /><stop
         stop-color="#ff3647"
         offset=".655"
         id="stop57" /><stop
         stop-color="#e31587"
         offset=".904"
         id="stop58" /></radialGradient><radialGradient
       id="k"
       cx="-7919"
       cy="-8504"
       r="80.69"
       gradientTransform="translate(7974,8524)"
       gradientUnits="userSpaceOnUse"><stop
         stop-color="#fff44f"
         offset=".094"
         id="stop59" /><stop
         stop-color="#ffe141"
         offset=".231"
         id="stop60" /><stop
         stop-color="#ffaf1e"
         offset=".509"
         id="stop61" /><stop
         stop-color="#ff980e"
         offset=".626"
         id="stop62" /></radialGradient><linearGradient
       id="l"
       x1="70.01"
       x2="15.27"
       y1="12.06"
       y2="66.81"
       gradientTransform="translate(-1.3,-0.004086)"
       gradientUnits="userSpaceOnUse"><stop
         stop-color="#fff44f"
         stop-opacity=".8"
         offset=".167"
         id="stop63" /><stop
         stop-color="#fff44f"
         stop-opacity=".634"
         offset=".266"
         id="stop64" /><stop
         stop-color="#fff44f"
         stop-opacity=".217"
         offset=".489"
         id="stop65" /><stop
         stop-color="#fff44f"
         stop-opacity="0"
         offset=".6"
         id="stop66" /></linearGradient><path
       id="SVGID_1_"
       d="M294.42,385.6c-33.17,0-63.24-13.68-85.01-35.54c-31.75-31.87-35.26-67.66-35.26-84.59      c0-16.59,2.38-30.16,8.83-45.46c5.7-13.52,14.55-25.63,24.53-34.85c0.48-0.45,0.9-0.65,1.51-0.66c0.37,0.06,0.82,0.08,1.19,0.34      c1.4,0.96,1.32,3.48,1.32,3.48c0,8.82,1.3,30.49,6.33,49.78c5.76,22.09,16.77,47.41,38.48,69.13      c26.68,26.68,74.35,46.25,116.8,46.25c14.9,0,24.12-2.66,25.36-2.69c-67.78,7.08-140.4-28.62-159.23-90.66      c-3.51-11.57-4.88-21.13-4.88-35.01c0-21.03,8.47-36.13,18.73-48.62c1.55-33.48-6.04-63.47-21-85.38      c-6.07-8.58-12.5-13.96-22.01-18.11c-3.96-1.73-6.11,0.73-6.11,2.83c0,1.38-0.52,8.97-4.18,22.8      c-5.6,21.14-14.73,30.74-20.99,39.34c-9.82,13.48-15,25.68-18.41,38.13c-1.49,5.58-2.59,13.49-2.63,18.99      c0,1.38,0.04,2.75,0.1,4.11c-5.52-10.9-9.14-21.65-12.17-32.54c-0.88-3.15-2.98-6.4-5.15-6.4c-2.2,0-4.73,4.09-5.74,7.27      c-5.19,16.37-7.51,39.21-7.59,56.2C127.23,316.98,215.81,385.6,294.42,385.6L294.42,385.6z M142.59,144.68      c-0.07,0.18-0.14,0.36-0.22,0.54l0.23-0.24C142.6,144.89,142.59,144.78,142.59,144.68L142.59,144.68z" /><path
       id="SVGID_00000085946461498042998810000018009155167028666029_"
       d="M338.06,140.33c-22.14,0.17-47.87,6.28-67.92,20.79      c-7.5,5.21-12.42,10.24-17.01,15.38c-10.25,12.49-18.73,27.59-18.73,48.62c0,13.88,1.37,23.44,4.88,35.01      c18.83,62.04,91.45,97.74,159.23,90.66c-19.3-1.85-47.94-11.16-67.27-32.32c-1.25-1.36-2.54-2.1-2.54-4.96      c0-4.49,7.27-3.7,10.71-3.74c47.79-0.04,102-30.66,102.68-84.96C442.08,179.19,396.39,140.33,338.06,140.33L338.06,140.33z" /><path
       id="SVGID_00000124150824140257817730000004859484069846295186_"
       d="M434.88,30.46c-73.46,0-115.9,27.83-129.91,61.69      c-1.03,2.49-1.87,5.05-2.78,7.59c-1.02,0.38-2,0.8-2.99,1.23c-0.89,0.4-1.76,0.82-2.62,1.25c-1.07,0.54-2.12,1.11-3.14,1.71      c-9.14,5.39-16.37,13.27-20.72,22.55c-0.04,0.09-0.08,0.17-0.12,0.25c-0.42,0.92-0.82,1.85-1.18,2.8      c-0.08,0.21-0.16,0.42-0.24,0.64c-0.33,0.88-0.63,1.77-0.91,2.68c-0.1,0.33-0.2,0.67-0.29,1.01c-1.18,4.18-1.82,8.55-1.82,13.04      c0,0.26,0.01,0.53,0.02,0.79c0.01,0.71,0.04,1.42,0.09,2.15c0.02,0.39,0.05,0.77,0.09,1.16c0.08,0.93,0.17,1.87,0.29,2.81      c0.03,0.2,0.06,0.4,0.09,0.61c0.15,1.02,0.32,2.04,0.53,3.04c0.03,0.15,0.06,0.29,0.09,0.44c0.17,0.79,0.38,1.56,0.58,2.32      c2.9-7.64,6.93-14.6,13.62-21.9c12.05-13.13,31.38-22.02,49.95-23.19c-4.93-5.16-11.01-8.96-17.66-11.14l0.01,0      c15.65-45.41,77.23-56.38,116.72-56.92c40.81,0,74.76,5.79,101.48,16.25C509.06,43.77,472.6,30.46,434.88,30.46L434.88,30.46z" /><filter
       id="a-2"
       width="1.0842484"
       height="1.1077841"
       x="-0.042124196"
       y="-0.045133094"
       color-interpolation-filters="sRGB"
       filterUnits="objectBoundingBox"><feGaussianBlur
         in="SourceGraphic"
         stdDeviation="4.294"
         id="feGaussianBlur1-8" /><feOffset
         dy="4"
         result="pf_100_offsetBlur"
         id="feOffset1-9" /><feFlood
         flood-opacity=".4"
         id="feFlood1-7" /><feComposite
         in2="pf_100_offsetBlur"
         operator="in"
         result="pf_100_dropShadow"
         id="feComposite1-3" /><feBlend
         in="SourceGraphic"
         in2="pf_100_dropShadow"
         id="feBlend1-6" /></filter><radialGradient
       id="b-5-4"
       cx="-7907"
       cy="-8515"
       r="80.8"
       gradientTransform="translate(7974,8524)"
       gradientUnits="userSpaceOnUse"><stop
         stop-color="#ffbd4f"
         offset=".129"
         id="stop9-5" /><stop
         stop-color="#ffac31"
         offset=".186"
         id="stop10-0" /><stop
         stop-color="#ff9d17"
         offset=".247"
         id="stop11-3" /><stop
         stop-color="#ff980e"
         offset=".283"
         id="stop12-61" /><stop
         stop-color="#ff563b"
         offset=".403"
         id="stop13-0" /><stop
         stop-color="#ff3750"
         offset=".467"
         id="stop14-6" /><stop
         stop-color="#f5156c"
         offset=".71"
         id="stop15-3" /><stop
         stop-color="#eb0878"
         offset=".782"
         id="stop16-2" /><stop
         stop-color="#e50080"
         offset=".86"
         id="stop17-0" /></radialGradient><radialGradient
       id="c-6-6"
       cx="-7937"
       cy="-8482"
       r="80.8"
       gradientTransform="translate(7974,8524)"
       gradientUnits="userSpaceOnUse"><stop
         stop-color="#960e18"
         offset=".3"
         id="stop18-1" /><stop
         stop-color="#b11927"
         stop-opacity=".74"
         offset=".351"
         id="stop19-5" /><stop
         stop-color="#db293d"
         stop-opacity=".343"
         offset=".435"
         id="stop20-5" /><stop
         stop-color="#f5334b"
         stop-opacity=".094"
         offset=".497"
         id="stop21-4" /><stop
         stop-color="#ff3750"
         stop-opacity="0"
         offset=".53"
         id="stop22-7" /></radialGradient><radialGradient
       id="d-6"
       cx="-7927"
       cy="-8533"
       r="58.53"
       gradientTransform="translate(7974,8524)"
       gradientUnits="userSpaceOnUse"><stop
         stop-color="#fff44f"
         offset=".132"
         id="stop23-5" /><stop
         stop-color="#ffdc3e"
         offset=".252"
         id="stop24-6" /><stop
         stop-color="#ff9d12"
         offset=".506"
         id="stop25-9" /><stop
         stop-color="#ff980e"
         offset=".526"
         id="stop26-3" /></radialGradient><radialGradient
       id="e-7"
       cx="-7946"
       cy="-8461"
       r="38.47"
       gradientTransform="translate(7974,8524)"
       gradientUnits="userSpaceOnUse"><stop
         stop-color="#3a8ee6"
         offset=".353"
         id="stop27-4" /><stop
         stop-color="#5c79f0"
         offset=".472"
         id="stop28-5" /><stop
         stop-color="#9059ff"
         offset=".669"
         id="stop29-2" /><stop
         stop-color="#c139e6"
         offset="1"
         id="stop30-5" /></radialGradient><radialGradient
       id="f-4"
       cx="-7936"
       cy="-8492"
       r="20.4"
       gradientTransform="matrix(0.972,-0.235,0.275,1.138,10090,7834)"
       gradientUnits="userSpaceOnUse"><stop
         stop-color="#9059ff"
         stop-opacity="0"
         offset=".206"
         id="stop31-7" /><stop
         stop-color="#8c4ff3"
         stop-opacity=".064"
         offset=".278"
         id="stop32-4" /><stop
         stop-color="#7716a8"
         stop-opacity=".45"
         offset=".747"
         id="stop33-4" /><stop
         stop-color="#6e008b"
         stop-opacity=".6"
         offset=".975"
         id="stop34-3" /></radialGradient><radialGradient
       id="g-0"
       cx="-7938"
       cy="-8518"
       r="27.68"
       gradientTransform="translate(7974,8524)"
       gradientUnits="userSpaceOnUse"><stop
         stop-color="#ffe226"
         offset="0"
         id="stop35-7" /><stop
         stop-color="#ffdb27"
         offset=".121"
         id="stop36-8" /><stop
         stop-color="#ffc82a"
         offset=".295"
         id="stop37-6" /><stop
         stop-color="#ffa930"
         offset=".502"
         id="stop38-8" /><stop
         stop-color="#ff7e37"
         offset=".732"
         id="stop39-8" /><stop
         stop-color="#ff7139"
         offset=".792"
         id="stop40-4" /></radialGradient><radialGradient
       id="h-3"
       cx="-7916"
       cy="-8536"
       r="118.1"
       gradientTransform="translate(7974,8524)"
       gradientUnits="userSpaceOnUse"><stop
         stop-color="#fff44f"
         offset=".113"
         id="stop41-1" /><stop
         stop-color="#ff980e"
         offset=".456"
         id="stop42-4" /><stop
         stop-color="#ff5634"
         offset=".622"
         id="stop43-9" /><stop
         stop-color="#ff3647"
         offset=".716"
         id="stop44-2" /><stop
         stop-color="#e31587"
         offset=".904"
         id="stop45-0" /></radialGradient><radialGradient
       id="i-6"
       cx="-7927"
       cy="-8523"
       r="86.5"
       gradientTransform="matrix(0.105,0.995,-0.653,0.069,-4685,8470)"
       gradientUnits="userSpaceOnUse"><stop
         stop-color="#fff44f"
         offset="0"
         id="stop46-8" /><stop
         stop-color="#ffe847"
         offset=".06"
         id="stop47-9" /><stop
         stop-color="#ffc830"
         offset=".168"
         id="stop48-2" /><stop
         stop-color="#ff980e"
         offset=".304"
         id="stop49-6" /><stop
         stop-color="#ff8b16"
         offset=".356"
         id="stop50-6" /><stop
         stop-color="#ff672a"
         offset=".455"
         id="stop51-4" /><stop
         stop-color="#ff3647"
         offset=".57"
         id="stop52-9" /><stop
         stop-color="#e31587"
         offset=".737"
         id="stop53-5" /></radialGradient><radialGradient
       id="j-0"
       cx="-7938"
       cy="-8508"
       r="73.72"
       gradientTransform="translate(7974,8524)"
       gradientUnits="userSpaceOnUse"><stop
         stop-color="#fff44f"
         offset=".137"
         id="stop54-4" /><stop
         stop-color="#ff980e"
         offset=".48"
         id="stop55-8" /><stop
         stop-color="#ff5634"
         offset=".592"
         id="stop56-7" /><stop
         stop-color="#ff3647"
         offset=".655"
         id="stop57-1" /><stop
         stop-color="#e31587"
         offset=".904"
         id="stop58-7" /></radialGradient><radialGradient
       id="k-2"
       cx="-7919"
       cy="-8504"
       r="80.69"
       gradientTransform="translate(7974,8524)"
       gradientUnits="userSpaceOnUse"><stop
         stop-color="#fff44f"
         offset=".094"
         id="stop59-7" /><stop
         stop-color="#ffe141"
         offset=".231"
         id="stop60-2" /><stop
         stop-color="#ffaf1e"
         offset=".509"
         id="stop61-2" /><stop
         stop-color="#ff980e"
         offset=".626"
         id="stop62-6" /></radialGradient><filter
       id="b-4"
       width="1.1421462"
       height="1.2085695"
       x="-0.071073106"
       y="-0.087335595"
       color-interpolation-filters="sRGB"
       filterUnits="objectBoundingBox"><feGaussianBlur
         in="SourceGraphic"
         stdDeviation="4.294"
         id="feGaussianBlur2-9" /><feOffset
         dy="4"
         result="pf_100_offsetBlur"
         id="feOffset2-0" /><feFlood
         flood-opacity=".4"
         id="feFlood2-9" /><feComposite
         in2="pf_100_offsetBlur"
         operator="in"
         result="pf_100_dropShadow"
         id="feComposite2-1" /><feBlend
         in="SourceGraphic"
         in2="pf_100_dropShadow"
         id="feBlend2-7" /></filter></defs><path
     fill="#f7f7f7"
     d="m 165.685,11.830992 c 74.056,0 84.639,10.557 84.639,84.544 v 59.250998 c 0,73.986 -10.583,84.543 -84.639,84.543 H 90.314996 c -74.055,0 -84.6389996,-10.557 -84.6389996,-84.543 V 96.374992 c 0,-73.987 10.5839996,-84.544 84.6389996,-84.544 z"
     filter="url(#a)"
     id="path1"
     style="fill:#162d50;fill-opacity:1" /><defs
     id="defs2"><filter
       id="b"
       width="1.1421462"
       height="1.2085695"
       x="-0.071073106"
       y="-0.087335595"
       color-interpolation-filters="sRGB"
       filterUnits="objectBoundingBox"><feGaussianBlur
         in="SourceGraphic"
         stdDeviation="4.294"
         id="feGaussianBlur2" /><feOffset
         dy="4"
         result="pf_100_offsetBlur"
         id="feOffset2" /><feFlood
         flood-opacity=".4"
         id="feFlood2" /><feComposite
         in2="pf_100_offsetBlur"
         operator="in"
         result="pf_100_dropShadow"
         id="feComposite2" /><feBlend
         in="SourceGraphic"
         in2="pf_100_dropShadow"
         id="feBlend2" /></filter></defs><g
     opacity=".4"
     id="g5"><linearGradient
       id="c"
       x1=".517"
       x2=".517"
       y2="1"
       gradientTransform="matrix(244.65 0 0 228.34 5.68 11.95)"
       gradientUnits="userSpaceOnUse"><stop
         offset="0%"
         stop-color="#ffffff"
         id="stop2" /><stop
         offset="12.5%"
         stop-color="#ffffff"
         stop-opacity=".098"
         id="stop3" /><stop
         offset="92.5%"
         stop-opacity=".098"
         id="stop4" /><stop
         offset="100%"
         stop-opacity=".498"
         id="stop5" /></linearGradient><path
       fill="url(#c)"
       fill-rule="evenodd"
       d="M165.068 11.951c4.328-.01 8.656.04 12.984.138 3.875.078 7.75.226 11.626.452 3.453.196 6.905.481 10.348.854 3.06.335 6.118.786 9.148 1.346a80.47 80.47 0 0 1 8.046 1.916 53.64 53.64 0 0 1 7.023 2.584 40.413 40.413 0 0 1 6.06 3.35 35.176 35.176 0 0 1 5.134 4.215 35.072 35.072 0 0 1 4.22 5.119 41.692 41.692 0 0 1 3.363 6.042 55.982 55.982 0 0 1 2.597 7.005 80.224 80.224 0 0 1 1.918 8.037 124.43 124.43 0 0 1 1.348 9.127c.374 3.439.659 6.878.856 10.326.226 3.861.373 7.732.462 11.593.088 4.323.138 8.646.128 12.96v58.21c.01 4.324-.04 8.637-.128 12.96a325.177 325.177 0 0 1-.462 11.593 200.984 200.984 0 0 1-.856 10.326 124.691 124.691 0 0 1-1.348 9.137 80.687 80.687 0 0 1-1.918 8.027 55.414 55.414 0 0 1-2.597 7.005 41.18 41.18 0 0 1-3.364 6.042 34.559 34.559 0 0 1-4.22 5.119 35.177 35.177 0 0 1-5.134 4.215 40.412 40.412 0 0 1-6.059 3.35 55.138 55.138 0 0 1-7.023 2.594 77.806 77.806 0 0 1-8.046 1.906 120 120 0 0 1-9.148 1.346c-3.443.373-6.895.658-10.348.854-3.875.226-7.75.374-11.626.462-4.328.088-8.656.138-12.984.128H90.942c-4.328.01-8.656-.04-12.984-.128a328.387 328.387 0 0 1-11.626-.462 203.003 203.003 0 0 1-10.348-.854 120 120 0 0 1-9.148-1.346 77.806 77.806 0 0 1-8.046-1.906 55.139 55.139 0 0 1-7.023-2.594 40.413 40.413 0 0 1-6.06-3.35 35.176 35.176 0 0 1-5.134-4.215 34.56 34.56 0 0 1-4.22-5.119 41.183 41.183 0 0 1-3.363-6.042 55.415 55.415 0 0 1-2.597-7.005 80.682 80.682 0 0 1-1.918-8.027 124.688 124.688 0 0 1-1.348-9.137 200.993 200.993 0 0 1-.856-10.326 325.212 325.212 0 0 1-.462-11.593 569.197 569.197 0 0 1-.128-12.96v-58.21c-.01-4.314.04-8.637.128-12.96.089-3.86.236-7.732.462-11.593.197-3.448.482-6.887.856-10.326.335-3.055.787-6.101 1.348-9.127a80.219 80.219 0 0 1 1.918-8.037 55.983 55.983 0 0 1 2.597-7.005 41.695 41.695 0 0 1 3.364-6.042 35.072 35.072 0 0 1 4.22-5.119 35.176 35.176 0 0 1 5.134-4.215 40.413 40.413 0 0 1 6.059-3.35 53.64 53.64 0 0 1 7.023-2.584 80.47 80.47 0 0 1 8.046-1.916 125.11 125.11 0 0 1 9.148-1.346c3.443-.373 6.895-.658 10.348-.854 3.875-.226 7.75-.374 11.626-.452 4.328-.098 8.656-.148 12.984-.138h74.126zm.01 4.009c4.298-.01 8.597.039 12.895.127 3.827.089 7.653.236 11.48.452 3.383.197 6.766.472 10.13.845 2.971.315 5.932.747 8.863 1.297a75.943 75.943 0 0 1 7.653 1.818 50.493 50.493 0 0 1 6.501 2.397 37.038 37.038 0 0 1 5.47 3.026 30.383 30.383 0 0 1 4.524 3.724 31.05 31.05 0 0 1 3.738 4.519 37.271 37.271 0 0 1 3.03 5.443 51.46 51.46 0 0 1 2.4 6.494 75.563 75.563 0 0 1 1.829 7.634c.54 2.928.974 5.875 1.298 8.842.374 3.36.65 6.73.846 10.11.217 3.822.374 7.634.453 11.456.088 4.293.137 8.577.137 12.87v58.212c0 4.293-.049 8.577-.137 12.87a317.503 317.503 0 0 1-.453 11.456c-.196 3.38-.472 6.75-.846 10.12a121.689 121.689 0 0 1-1.298 8.832 75.562 75.562 0 0 1-1.83 7.634 50.902 50.902 0 0 1-2.4 6.494 36.767 36.767 0 0 1-3.03 5.443 30.615 30.615 0 0 1-3.737 4.53 30.938 30.938 0 0 1-4.525 3.713 37.038 37.038 0 0 1-5.469 3.026 49.07 49.07 0 0 1-6.501 2.397 75.942 75.942 0 0 1-7.653 1.818c-2.931.55-5.892.982-8.863 1.306-3.364.364-6.747.649-10.13.836-3.827.216-7.653.373-11.48.452-4.298.098-8.597.137-12.895.137H90.932c-4.298 0-8.597-.04-12.895-.137a320.093 320.093 0 0 1-11.48-.452 193.696 193.696 0 0 1-10.13-.836 116.71 116.71 0 0 1-8.863-1.306 75.942 75.942 0 0 1-7.653-1.818 49.07 49.07 0 0 1-6.501-2.397 37.038 37.038 0 0 1-5.47-3.026 30.938 30.938 0 0 1-4.524-3.714 30.615 30.615 0 0 1-3.738-4.529 36.766 36.766 0 0 1-3.03-5.443 50.903 50.903 0 0 1-2.4-6.494 75.567 75.567 0 0 1-1.829-7.634 121.69 121.69 0 0 1-1.298-8.832c-.374-3.37-.65-6.74-.846-10.12a317.535 317.535 0 0 1-.453-11.456 623.851 623.851 0 0 1-.137-12.87V97.014c0-4.293.049-8.577.137-12.87.079-3.822.236-7.634.453-11.456.197-3.38.472-6.75.846-10.11.324-2.967.757-5.914 1.298-8.842a75.568 75.568 0 0 1 1.83-7.634 51.46 51.46 0 0 1 2.4-6.494 37.27 37.27 0 0 1 3.03-5.443 31.05 31.05 0 0 1 3.737-4.52 30.384 30.384 0 0 1 4.525-3.723 37.039 37.039 0 0 1 5.469-3.026 50.494 50.494 0 0 1 6.501-2.397 75.943 75.943 0 0 1 7.653-1.818c2.931-.55 5.892-.982 8.863-1.297 3.364-.373 6.747-.648 10.13-.845a344.71 344.71 0 0 1 11.48-.452c4.298-.088 8.597-.137 12.895-.127H165.078z"
       id="path5" /></g><style
     type="text/css"
     id="style1">&#10;	.st0{fill:url(#path8792_00000158010374524919211110000017587896842329534397_);}&#10;	.st1{fill:#962B2B;fill-opacity:0.2993;}&#10;	.st2{fill:#1C91F0;fill-opacity:0.9804;}&#10;	.st3{clip-path:url(#SVGID_00000154391770235607824330000014121444698727120823_);filter:url(#filter34608);}&#10;	.st4{fill:#0E57A7;}&#10;	.st5{fill:url(#path7141_00000114766340807404062110000017413784953446184323_);}&#10;	.st6{fill:url(#path8781_00000094587959161383814780000017703090735897793418_);}&#10;	.st7{fill:url(#path11330_00000134222588590147306670000010713590787333651097_);}&#10;	.st8{fill:url(#path11198_00000075137321970657209620000006220707610022604967_);}&#10;	.st9{fill:#FFFFFF;}&#10;	.st10{fill:url(#circle10320_00000129182395128673630910000012647567873642821009_);}&#10;	.st11{fill:url(#path10318_00000179629713614656027260000006659076358489463201_);}&#10;	.st12{fill:url(#path10383_00000103244584310591095380000016165927726392447384_);}&#10;	.st13{clip-path:url(#SVGID_00000078733260776356903650000005524909609807031972_);filter:url(#filter25482);}&#10;	.st14{fill:#61A1D8;}&#10;	.st15{fill:url(#path12930_00000078027205467137341720000003906519781528921780_);}&#10;	.st16{fill:#EEF8FF;}&#10;	.st17{fill:url(#path8779_00000071551668748275333340000006099320862251659450_);}&#10;	.st18{clip-path:url(#SVGID_00000054953294301751034350000006247039039370617767_);filter:url(#filter38313);}&#10;	.st19{opacity:0.5915;fill:#147EE1;}&#10;</style><g
     id="layer1"
     transform="matrix(0.33130959,0,0,0.33130959,26.437031,21.68681)">&#10;	<g
   id="g40045"
   transform="matrix(1.4187016,0,0,1.4187016,-173.36124,-9.0667721)">&#10;		&#10;			<linearGradient
   id="path8792_00000166643056584012620600000004901520879833682874_"
   gradientUnits="userSpaceOnUse"
   x1="117.2514"
   y1="402.6012"
   x2="214.28169"
   y2="352.02029"
   gradientTransform="matrix(4.0215,0,0,-4.0215,-246.3169,1770.2672)">&#10;			<stop
   offset="0"
   style="stop-color:#198BEC;stop-opacity:0.9961"
   id="stop1-9" />&#10;			<stop
   offset="0.3408"
   style="stop-color:#1581E4"
   id="stop2-1" />&#10;			<stop
   offset="1"
   style="stop-color:#0D6CD1;stop-opacity:0.9961"
   id="stop3-2" />&#10;		</linearGradient>&#10;		<path
   id="path8792"
   style="fill:url(#path8792_00000166643056584012620600000004901520879833682874_)"
   d="m 434.88,30.46 c -73.46,0 -115.9,27.83 -129.91,61.69 -1.03,2.49 -1.87,5.05 -2.78,7.59 -20.2,7.48 -34.05,26.01 -34.06,47.11 0.03,4.64 0.69,9.82 2.01,14.27 20.05,-14.51 45.78,-20.62 67.92,-20.79 58.32,0 104.02,38.86 104.02,84.48 -0.68,54.3 -54.89,84.92 -102.68,84.96 -3.44,0.03 -10.71,-0.75 -10.71,3.74 0,2.86 1.29,3.59 2.54,4.96 19.34,21.16 47.97,30.47 67.27,32.32 -1.24,0.03 -10.46,2.69 -25.36,2.69 -42.46,0 -90.12,-19.57 -116.8,-46.25 -21.72,-21.72 -32.72,-47.03 -38.48,-69.13 -5.03,-19.29 -6.33,-40.96 -6.33,-49.78 0,0 0.07,-2.52 -1.32,-3.48 -0.37,-0.27 -0.82,-0.28 -1.19,-0.34 -0.62,0.02 -1.03,0.21 -1.51,0.66 -9.98,9.23 -18.83,21.33 -24.53,34.85 -6.45,15.3 -8.83,28.88 -8.83,45.46 0,16.93 3.51,52.72 35.26,84.59 21.07,21.15 49.92,34.65 81.82,35.49 1.06,0.03 2.13,0.04 3.19,0.04 -1.07,0 -2.13,-0.01 -3.19,-0.04 -77.79,-1.82 -163.99,-69.83 -163.99,-161.82 0,116.52 94.62,210.94 211.35,210.94 116.72,0 210.72,-94.43 210.71,-210.94 0,-44.72 -13.47,-85.68 -37.25,-119.8 1.56,-0.05 3.12,-0.07 4.68,-0.07 8.75,0 16.87,0.89 24.81,2.24 C 525.4,88.53 505.87,78.1 490.83,72.7 506.16,66.91 524.4,64.03 534.99,64.03 509.97,44.08 473.06,30.46 434.88,30.46 Z M 207.49,72.43 c 0.38,-0.01 0.79,0.03 1.23,0.12 -0.44,-0.1 -0.85,-0.13 -1.23,-0.12 z m 0,0 c -0.38,0.01 -0.73,0.07 -1.05,0.17 0.32,-0.1 0.67,-0.16 1.05,-0.17 z m -1.05,0.16 c -0.32,0.1 -0.61,0.23 -0.87,0.4 0.27,-0.17 0.56,-0.3 0.87,-0.4 z m -0.86,0.4 c -0.26,0.17 -0.48,0.36 -0.68,0.58 0.19,-0.22 0.42,-0.42 0.68,-0.58 z m 3.14,-0.44 c 0.44,0.09 0.9,0.25 1.4,0.46 -0.5,-0.22 -0.96,-0.37 -1.4,-0.46 z m 1.4,0.46 c 1.19,0.52 2.33,1.06 3.42,1.62 -1.09,-0.56 -2.23,-1.1 -3.42,-1.62 z m 3.42,1.62 c 1.1,0.56 2.15,1.15 3.17,1.76 -1.02,-0.62 -2.07,-1.2 -3.17,-1.76 z m 3.17,1.75 c 1.02,0.61 2,1.25 2.94,1.92 -0.94,-0.67 -1.92,-1.31 -2.94,-1.92 z m 2.95,1.92 c 0.95,0.67 1.86,1.37 2.75,2.1 -0.89,-0.73 -1.81,-1.43 -2.75,-2.1 z m 2.75,2.1 c 0.89,0.73 1.75,1.5 2.59,2.31 -0.84,-0.8 -1.7,-1.57 -2.59,-2.31 z m 2.59,2.31 c 0.84,0.81 1.66,1.65 2.46,2.54 -0.8,-0.88 -1.62,-1.73 -2.46,-2.54 z m 2.46,2.55 c 0.8,0.89 1.59,1.82 2.36,2.79 -0.77,-0.98 -1.56,-1.91 -2.36,-2.79 z m 4.66,5.86 c 0.94,1.37 1.84,2.77 2.72,4.2 -0.87,-1.43 -1.78,-2.83 -2.72,-4.2 z m 2.72,4.2 c 0.88,1.43 1.72,2.89 2.54,4.39 -0.81,-1.49 -1.66,-2.96 -2.54,-4.39 z m 2.55,4.39 c 0.82,1.49 1.61,3.01 2.37,4.56 -0.77,-1.55 -1.56,-3.07 -2.37,-4.56 z m 2.36,4.56 c 0.76,1.55 1.49,3.12 2.18,4.73 -0.69,-1.61 -1.42,-3.18 -2.18,-4.73 z m 2.19,4.73 c 0.7,1.6 1.36,3.24 2,4.89 -0.64,-1.66 -1.31,-3.29 -2,-4.89 z m 2,4.89 c 0.64,1.66 1.24,3.34 1.82,5.05 -0.58,-1.71 -1.19,-3.39 -1.82,-5.05 z m 1.81,5.05 c 0.57,1.71 1.12,3.44 1.63,5.2 -0.51,-1.76 -1.05,-3.49 -1.63,-5.2 z m 1.63,5.19 c 0.51,1.76 0.99,3.54 1.44,5.34 -0.45,-1.8 -0.93,-3.58 -1.44,-5.34 z m 1.44,5.34 c 0.89,3.61 1.66,7.3 2.29,11.08 -0.63,-3.78 -1.4,-7.47 -2.29,-11.08 z m -64.84,1.71 c -1.82,2.44 -3.57,4.65 -5.13,6.8 1.56,-2.15 3.3,-4.36 5.13,-6.8 z m -5.14,6.8 c -1.23,1.69 -2.38,3.35 -3.47,5 1.09,-1.65 2.25,-3.31 3.47,-5 z m -3.47,5 c -1.09,1.65 -2.11,3.28 -3.07,4.9 0.96,-1.62 1.99,-3.25 3.07,-4.9 z m -3.07,4.9 c -0.96,1.62 -1.86,3.22 -2.7,4.81 0.85,-1.59 1.74,-3.2 2.7,-4.81 z m -2.7,4.81 c -0.84,1.59 -1.63,3.17 -2.37,4.74 0.74,-1.57 1.53,-3.15 2.37,-4.74 z m -2.37,4.74 c -0.74,1.57 -1.42,3.14 -2.07,4.7 0.65,-1.56 1.34,-3.12 2.07,-4.7 z m -2.06,4.7 c -0.64,1.56 -1.24,3.11 -1.8,4.67 0.56,-1.55 1.15,-3.11 1.8,-4.67 z m -24.6,-1.86 c 0.27,0 0.54,0.05 0.81,0.15 -0.27,-0.1 -0.54,-0.15 -0.81,-0.15 z m 0.81,0.14 c 0.27,0.09 0.53,0.23 0.79,0.41 -0.26,-0.17 -0.52,-0.31 -0.79,-0.41 z m -1.65,0.04 c -0.28,0.12 -0.57,0.29 -0.85,0.51 0.29,-0.22 0.57,-0.39 0.85,-0.51 z m 19.66,20.21 c -0.31,1.61 -0.59,3.3 -0.83,4.98 0.24,-1.69 0.52,-3.37 0.83,-4.98 z m -0.82,4.97 c -0.23,1.68 -0.42,3.36 -0.55,4.96 0.13,-1.59 0.31,-3.27 0.55,-4.96 z m -27.11,-4.79 c -0.95,4.71 -1.73,9.63 -2.35,14.57 0.63,-4.94 1.41,-9.86 2.35,-14.57 z m -2.34,14.57 c -0.31,2.47 -0.58,4.94 -0.81,7.4 0.23,-2.46 0.5,-4.93 0.81,-7.4 z" />&#10;		<path
   id="path10323"
   class="st1"
   d="m 339.01,115.05 c -21.1,0 -56.65,11.34 -68.87,46.07 20.05,-14.51 45.78,-20.62 67.92,-20.79 27.85,0 52.82,8.87 71.31,23.1 -11.33,-29.18 -39.26,-48.38 -70.36,-48.38 z" />&#10;		<path
   id="path4190"
   class="st2"
   d="m 294.42,385.6 c -33.17,0 -63.24,-13.68 -85.01,-35.54 -31.75,-31.87 -35.26,-67.66 -35.26,-84.59 0,-16.59 2.38,-30.16 8.83,-45.46 5.7,-13.52 14.55,-25.63 24.53,-34.85 0.48,-0.45 0.9,-0.65 1.51,-0.66 0.37,0.06 0.82,0.08 1.19,0.34 1.4,0.96 1.32,3.48 1.32,3.48 0,8.82 1.3,30.49 6.33,49.78 5.76,22.09 16.77,47.41 38.48,69.13 26.68,26.68 74.35,46.25 116.8,46.25 14.9,0 24.12,-2.66 25.36,-2.69 -67.78,7.08 -140.4,-28.62 -159.23,-90.66 -3.51,-11.57 -4.88,-21.13 -4.88,-35.01 0,-21.03 8.47,-36.13 18.73,-48.62 1.55,-33.48 -6.04,-63.47 -21,-85.38 -6.07,-8.58 -12.5,-13.96 -22.01,-18.11 -3.96,-1.73 -6.11,0.73 -6.11,2.83 0,1.38 -0.52,8.97 -4.18,22.8 -5.6,21.14 -14.73,30.74 -20.99,39.34 -9.82,13.48 -15,25.68 -18.41,38.13 -1.49,5.58 -2.59,13.49 -2.63,18.99 0,1.38 0.04,2.75 0.1,4.11 -5.52,-10.9 -9.14,-21.65 -12.17,-32.54 -0.88,-3.15 -2.98,-6.4 -5.15,-6.4 -2.2,0 -4.73,4.09 -5.74,7.27 -5.19,16.37 -7.51,39.21 -7.59,56.2 -0.01,93.24 88.57,161.86 167.18,161.86 z M 142.59,144.68 c -0.07,0.18 -0.14,0.36 -0.22,0.54 l 0.23,-0.24 c 0,-0.09 -0.01,-0.2 -0.01,-0.3 z" />&#10;		<g
   id="g3">&#10;			<defs
   id="defs3">&#10;				<path
   id="path6"
   d="m 294.42,385.6 c -33.17,0 -63.24,-13.68 -85.01,-35.54 -31.75,-31.87 -35.26,-67.66 -35.26,-84.59 0,-16.59 2.38,-30.16 8.83,-45.46 5.7,-13.52 14.55,-25.63 24.53,-34.85 0.48,-0.45 0.9,-0.65 1.51,-0.66 0.37,0.06 0.82,0.08 1.19,0.34 1.4,0.96 1.32,3.48 1.32,3.48 0,8.82 1.3,30.49 6.33,49.78 5.76,22.09 16.77,47.41 38.48,69.13 26.68,26.68 74.35,46.25 116.8,46.25 14.9,0 24.12,-2.66 25.36,-2.69 -67.78,7.08 -140.4,-28.62 -159.23,-90.66 -3.51,-11.57 -4.88,-21.13 -4.88,-35.01 0,-21.03 8.47,-36.13 18.73,-48.62 1.55,-33.48 -6.04,-63.47 -21,-85.38 -6.07,-8.58 -12.5,-13.96 -22.01,-18.11 -3.96,-1.73 -6.11,0.73 -6.11,2.83 0,1.38 -0.52,8.97 -4.18,22.8 -5.6,21.14 -14.73,30.74 -20.99,39.34 -9.82,13.48 -15,25.68 -18.41,38.13 -1.49,5.58 -2.59,13.49 -2.63,18.99 0,1.38 0.04,2.75 0.1,4.11 -5.52,-10.9 -9.14,-21.65 -12.17,-32.54 -0.88,-3.15 -2.98,-6.4 -5.15,-6.4 -2.2,0 -4.73,4.09 -5.74,7.27 -5.19,16.37 -7.51,39.21 -7.59,56.2 -0.01,93.24 88.57,161.86 167.18,161.86 z M 142.59,144.68 c -0.07,0.18 -0.14,0.36 -0.22,0.54 l 0.23,-0.24 c 0,-0.09 -0.01,-0.2 -0.01,-0.3 z" />&#10;			</defs>&#10;			<clipPath
   id="SVGID_00000110456392677293058060000018319827575151092871_">&#10;				<use
   xlink:href="#SVGID_1_"
   style="overflow:visible"
   id="use3" />&#10;			</clipPath>&#10;			&#10;				<g
   id="path34391"
   style="filter:url(#filter34608)"
   clip-path="url(#SVGID_00000110456392677293058060000018319827575151092871_)">&#10;				<path
   class="st4"
   d="m 274.62,78.3 -137.18,156.66 48.71,116.72 221.74,3.13 c 0,0 -78.3,-136.47 -78.3,-139.66 0,-3.18 -54.97,-136.85 -54.97,-136.85 z"
   id="path3" />&#10;			</g>&#10;		</g>&#10;		&#10;			<radialGradient
   id="path7141_00000107576368993876697250000018406252934203574966_"
   cx="196.1319"
   cy="334.5303"
   r="74.446899"
   gradientTransform="matrix(-7.3507,1.76,2.0488,8.5571,1269.2939,-2865.4668)"
   gradientUnits="userSpaceOnUse">&#10;			<stop
   offset="0.2122"
   style="stop-color:#0A5CB2"
   id="stop4-7" />&#10;			<stop
   offset="0.6881"
   style="stop-color:#106CC8"
   id="stop5-0" />&#10;			<stop
   offset="1"
   style="stop-color:#198EF0;stop-opacity:0.9961"
   id="stop6-9" />&#10;		</radialGradient>&#10;		<path
   id="path7141"
   style="fill:url(#path7141_00000107576368993876697250000018406252934203574966_)"
   d="m 138.67,161.16 c -1.05,0.89 -2.05,2.36 -2.83,3.91 0,0 0,-0.01 0,-0.01 -0.02,0.04 -0.03,0.08 -0.05,0.12 -0.18,0.37 -0.35,0.73 -0.5,1.1 -0.01,0.04 -0.03,0.07 -0.04,0.11 -0.16,0.39 -0.3,0.79 -0.42,1.16 -0.31,0.97 -0.6,1.97 -0.89,2.98 -0.03,0.09 -0.05,0.19 -0.08,0.28 -0.25,0.89 -0.49,1.79 -0.72,2.71 -0.07,0.29 -0.15,0.58 -0.22,0.88 0,0 0,0 0,0 -0.2,0.79 -0.39,1.6 -0.57,2.41 v 0 c -3.45,15.04 -5.03,32.96 -5.1,46.94 0,116.52 94.62,210.94 211.35,210.94 116.72,0 210.72,-94.43 210.71,-210.94 0,-20.1 -2.74,-39.42 -7.9,-57.72 0.5,5.79 0.77,11.65 0.77,17.56 0,108.68 -92.64,202.22 -203.59,202.22 -73.68,0 -123.46,-34.04 -143.96,-54.54 -20.67,-20.67 -36.56,-39.76 -45.32,-59.27 -10.06,-23.7 -14.64,-43.13 -15.57,-64.1 0.01,-25.22 2.5,-32.3 4.93,-46.74 z" />&#10;		&#10;			<linearGradient
   id="path8781_00000047751202872028173510000008524420026163839883_"
   gradientUnits="userSpaceOnUse"
   x1="109.4495"
   y1="394.23639"
   x2="109.4495"
   y2="343.28949"
   gradientTransform="matrix(4.0215,0,0,-4.0215,-205.2481,1770.2672)">&#10;			<stop
   offset="0.209"
   style="stop-color:#ACA6FE"
   id="stop7-3" />&#10;			<stop
   offset="1"
   style="stop-color:#ACA6FE;stop-opacity:0"
   id="stop8-6" />&#10;		</linearGradient>&#10;		&#10;			<path
   id="path8781"
   style="fill:url(#path8781_00000047751202872028173510000008524420026163839883_)"
   d="m 209.02,184.49 c -0.62,0.02 -1.03,0.21 -1.51,0.66 -9.98,9.23 -18.83,21.33 -24.53,34.85 -6.45,15.3 -8.83,28.88 -8.83,45.46 0,16.93 3.51,52.72 35.26,84.59 21.77,21.86 51.84,35.54 85.01,35.54 l 1.25,-3.8 c -72.26,0 -108.7,-69.01 -108.7,-130.39 0,-15.13 2.13,-29.37 7.63,-42.21 4.2,-9.81 9.53,-17.67 15.38,-24.5 -0.32,-0.12 -0.66,-0.15 -0.96,-0.2 z" />&#10;		&#10;			<linearGradient
   id="path11330_00000119840218638054768470000004046022855699622073_"
   gradientUnits="userSpaceOnUse"
   x1="129.57581"
   y1="421.08429"
   x2="159.31509"
   y2="421.08429"
   gradientTransform="matrix(4.0215,0,0,-4.0215,-205.2481,1770.2672)">&#10;			<stop
   offset="0"
   style="stop-color:#1C6BC6"
   id="stop9-0" />&#10;			<stop
   offset="0.8746"
   style="stop-color:#1C6BC6;stop-opacity:0"
   id="stop10-6" />&#10;		</linearGradient>&#10;		<path
   id="path11330"
   style="fill:url(#path11330_00000119840218638054768470000004046022855699622073_)"
   d="m 400.14,49.76 c -34.79,5.41 -72.53,20.08 -84.3,54.22 6.13,-1.12 12.66,-6.42 19.29,-10.74 L 359.52,80.3 c 13.26,-3.9 30.58,-7.88 40.62,-7.88 z" />&#10;		&#10;			<linearGradient
   id="path11198_00000055709494177887442210000017384213397827178172_"
   gradientUnits="userSpaceOnUse"
   x1="118.3669"
   y1="399.98401"
   x2="131.8017"
   y2="413.9046"
   gradientTransform="matrix(4.0215,0,0,-4.0215,-205.2481,1770.2672)">&#10;			<stop
   offset="0.5361"
   style="stop-color:#4361AB"
   id="stop11-2" />&#10;			<stop
   offset="1"
   style="stop-color:#4361AB;stop-opacity:0"
   id="stop12-6" />&#10;		</linearGradient>&#10;		&#10;			<path
   id="path11198"
   style="fill:url(#path11198_00000055709494177887442210000017384213397827178172_)"
   d="m 308.22,121.66 c -7.95,3.57 -15.26,7.21 -24.98,16.98 -6.53,7.19 -10.49,14.06 -13.35,21.61 -0.06,-0.22 -0.12,-0.46 -0.18,-0.68 0.12,0.53 0.28,1.05 0.43,1.55 6.28,-4.54 13.11,-8.26 20.21,-11.23 l 6.31,-4.84 z" />&#10;		<path
   id="path11274"
   class="st9"
   d="m 335.14,93.24 c 0.34,-5.25 4.38,-10.02 8.86,-12.41 4.54,-2.43 9.86,-3.96 15.53,-0.53 1.64,7.46 -1.07,12.32 -6.32,15.49 -5.63,3.38 -12.79,3.16 -18.07,-2.55 z" />&#10;		&#10;			<radialGradient
   id="circle10320_00000074431096459727217660000017950862188408110749_"
   cx="129.4668"
   cy="404.27469"
   r="30.184999"
   gradientTransform="matrix(4.8639,1.8612,1.0466,-2.7352,-715.0631,1039.5575)"
   gradientUnits="userSpaceOnUse">&#10;			<stop
   offset="0"
   style="stop-color:#1B56A4"
   id="stop13-1" />&#10;			<stop
   offset="1"
   style="stop-color:#1068BD"
   id="stop14-8" />&#10;		</radialGradient>&#10;		<path
   id="circle10320"
   style="fill:url(#circle10320_00000074431096459727217660000017950862188408110749_)"
   d="m 339.01,115.05 c -21.1,0 -56.65,11.34 -68.87,46.07 20.05,-14.51 45.78,-20.62 67.92,-20.79 0.87,0 1.74,0.01 2.6,0.03 0.81,0.02 1.61,0.04 2.41,0.07 0.01,0 0.02,0 0.04,0 0.42,0.02 0.83,0.04 1.24,0.06 0.46,0.02 0.92,0.04 1.37,0.07 0.26,0.02 0.52,0.03 0.78,0.05 0.58,0.04 1.15,0.08 1.72,0.12 0.33,0.03 0.65,0.06 0.98,0.08 0.49,0.04 0.99,0.08 1.48,0.13 0.35,0.03 0.71,0.08 1.06,0.11 0.48,0.05 0.96,0.1 1.44,0.16 0.35,0.04 0.7,0.09 1.05,0.13 0.46,0.06 0.91,0.12 1.37,0.18 0.33,0.05 0.66,0.1 0.99,0.14 0.52,0.08 1.04,0.15 1.56,0.24 0.25,0.04 0.51,0.08 0.76,0.12 0.52,0.09 1.04,0.17 1.56,0.27 0.35,0.06 0.69,0.13 1.04,0.19 0.46,0.09 0.93,0.18 1.39,0.27 0.29,0.06 0.57,0.12 0.86,0.18 0.52,0.11 1.03,0.21 1.55,0.33 0.27,0.06 0.53,0.12 0.8,0.18 0.53,0.12 1.05,0.24 1.57,0.37 0.25,0.06 0.51,0.12 0.76,0.19 0.52,0.13 1.04,0.26 1.56,0.4 0.24,0.06 0.48,0.13 0.73,0.19 0.55,0.15 1.09,0.3 1.64,0.45 0.21,0.06 0.41,0.12 0.62,0.18 0.56,0.16 1.12,0.33 1.67,0.5 0.2,0.06 0.4,0.12 0.6,0.18 0.56,0.17 1.11,0.35 1.66,0.53 0.19,0.06 0.38,0.13 0.57,0.19 0.56,0.19 1.12,0.38 1.68,0.58 0.18,0.06 0.36,0.13 0.53,0.19 0.59,0.21 1.17,0.42 1.75,0.64 0.13,0.05 0.25,0.09 0.38,0.14 0.62,0.23 1.23,0.47 1.85,0.72 0.11,0.04 0.22,0.09 0.32,0.13 0.58,0.23 1.16,0.47 1.74,0.72 0.15,0.06 0.29,0.12 0.44,0.18 0.6,0.26 1.19,0.52 1.78,0.78 0.09,0.04 0.19,0.08 0.28,0.12 0.68,0.31 1.36,0.62 2.03,0.94 6.93,3.29 13.35,7.22 19.12,11.66 0,0 0,0 0,-0.01 17.22,13.25 28.83,31.16 31.89,50.9 -1.78,-54.35 -43.68,-98.43 -100.64,-99.26 -0.55,0.01 -1.09,0 -1.63,0 z" />&#10;		&#10;			<linearGradient
   id="path10318_00000044136414998847437030000002589632692126952885_"
   gradientUnits="userSpaceOnUse"
   x1="241.9487"
   y1="432.68741"
   x2="148.343"
   y2="400.5524"
   gradientTransform="matrix(4.0215,0,0,-4.0215,-450.3169,1770.2672)">&#10;			<stop
   offset="0.3826"
   style="stop-color:#9F8DF0"
   id="stop15-7" />&#10;			<stop
   offset="1"
   style="stop-color:#A398F5"
   id="stop16-9" />&#10;		</linearGradient>&#10;		<path
   id="path10318"
   style="fill:url(#path10318_00000044136414998847437030000002589632692126952885_)"
   d="m 434.88,30.46 c -73.46,0 -115.9,27.83 -129.91,61.69 -1.03,2.49 -1.87,5.05 -2.78,7.59 -1.02,0.38 -2,0.8 -2.99,1.23 -0.89,0.4 -1.76,0.82 -2.62,1.25 -1.07,0.54 -2.12,1.11 -3.14,1.71 -9.14,5.39 -16.37,13.27 -20.72,22.55 -0.04,0.09 -0.08,0.17 -0.12,0.25 -0.42,0.92 -0.82,1.85 -1.18,2.8 -0.08,0.21 -0.16,0.42 -0.24,0.64 -0.33,0.88 -0.63,1.77 -0.91,2.68 -0.1,0.33 -0.2,0.67 -0.29,1.01 -1.18,4.18 -1.82,8.55 -1.82,13.04 0,0.26 0.01,0.53 0.02,0.79 0.01,0.71 0.04,1.42 0.09,2.15 0.02,0.39 0.05,0.77 0.09,1.16 0.08,0.93 0.17,1.87 0.29,2.81 0.03,0.2 0.06,0.4 0.09,0.61 0.15,1.02 0.32,2.04 0.53,3.04 0.03,0.15 0.06,0.29 0.09,0.44 0.17,0.79 0.38,1.56 0.58,2.32 2.9,-7.64 6.93,-14.6 13.62,-21.9 12.05,-13.13 31.38,-22.02 49.95,-23.19 -4.93,-5.16 -11.01,-8.96 -17.66,-11.14 h 0.01 c 15.65,-45.41 77.23,-56.38 116.72,-56.92 40.81,0 74.76,5.79 101.48,16.25 -25,-19.55 -61.46,-32.86 -99.18,-32.86 z" />&#10;		&#10;			<linearGradient
   id="path10383_00000004524604841189452560000016494809992957321624_"
   gradientUnits="userSpaceOnUse"
   x1="135.1451"
   y1="352.97101"
   x2="135.1451"
   y2="415.0809"
   gradientTransform="matrix(4.0215,0,0,-4.0215,-205.2481,1770.2672)">&#10;			<stop
   offset="0"
   style="stop-color:#83CBFE"
   id="stop17-2" />&#10;			<stop
   offset="0.5981"
   style="stop-color:#C0E0FA"
   id="stop18-0" />&#10;		</linearGradient>&#10;		&#10;			<path
   id="path10383"
   style="fill:url(#path10383_00000004524604841189452560000016494809992957321624_)"
   d="m 338.06,140.33 c -22.14,0.17 -47.87,6.28 -67.92,20.79 -7.5,5.21 -12.42,10.24 -17.01,15.38 -10.25,12.49 -18.73,27.59 -18.73,48.62 0,13.88 1.37,23.44 4.88,35.01 18.83,62.04 91.45,97.74 159.23,90.66 -19.3,-1.85 -47.94,-11.16 -67.27,-32.32 -1.25,-1.36 -2.54,-2.1 -2.54,-4.96 0,-4.49 7.27,-3.7 10.71,-3.74 47.79,-0.04 102,-30.66 102.68,-84.96 -0.01,-45.62 -45.7,-84.48 -104.03,-84.48 z" />&#10;		<g
   id="g18">&#10;			<defs
   id="defs18">&#10;				<path
   id="path7"
   d="m 338.06,140.33 c -22.14,0.17 -47.87,6.28 -67.92,20.79 -7.5,5.21 -12.42,10.24 -17.01,15.38 -10.25,12.49 -18.73,27.59 -18.73,48.62 0,13.88 1.37,23.44 4.88,35.01 18.83,62.04 91.45,97.74 159.23,90.66 -19.3,-1.85 -47.94,-11.16 -67.27,-32.32 -1.25,-1.36 -2.54,-2.1 -2.54,-4.96 0,-4.49 7.27,-3.7 10.71,-3.74 47.79,-0.04 102,-30.66 102.68,-84.96 -0.01,-45.62 -45.7,-84.48 -104.03,-84.48 z" />&#10;			</defs>&#10;			<clipPath
   id="SVGID_00000013154202013730532000000017536575568460800942_">&#10;				<use
   xlink:href="#SVGID_00000085946461498042998810000018009155167028666029_"
   style="overflow:visible"
   id="use18" />&#10;			</clipPath>&#10;			&#10;				<g
   id="path23094"
   style="filter:url(#filter25482)"
   clip-path="url(#SVGID_00000013154202013730532000000017536575568460800942_)">&#10;				<path
   class="st14"
   d="m 421.69,192.09 -73.97,58.26 c -3.08,2.8 -6.67,5.5 -11.21,5.5 -3.18,0 -8.13,-2.7 -11.21,-5.5 l -72.17,-56.49 c -2.7,3.29 3.87,2.13 1.54,5.84 l 72.29,72.45 c 2.5,2.27 6.48,1 9.55,1 4,0 8.15,1.27 10.65,-1 l 73.76,-73.9 c -2.46,-3.77 3.87,-2.75 0.77,-6.16 z"
   id="path18" />&#10;			</g>&#10;		</g>&#10;		&#10;			<linearGradient
   id="path12930_00000161595694241462847340000009147527628414418604_"
   gradientUnits="userSpaceOnUse"
   x1="134.93829"
   y1="378.6395"
   x2="134.93829"
   y2="416.4682"
   gradientTransform="matrix(4.0215,0,0,-4.0215,-205.2481,1770.2672)">&#10;			<stop
   offset="0"
   style="stop-color:#D7ECFC"
   id="stop19-2" />&#10;			<stop
   offset="0.8328"
   style="stop-color:#FBFFFE"
   id="stop20-3" />&#10;		</linearGradient>&#10;		&#10;			<path
   id="path12930"
   style="fill:url(#path12930_00000161595694241462847340000009147527628414418604_)"
   d="m 338.06,140.33 c -22.14,0.17 -47.87,6.28 -67.92,20.79 -7.5,5.21 -12.42,10.24 -17.01,15.38 l 72.17,65.57 c 3.08,2.8 8.03,5.5 11.21,5.5 4.54,0 8.13,-2.7 11.21,-5.5 l 73.97,-67.34 c -18.8,-20.69 -48.99,-34.4 -83.63,-34.4 z" />&#10;		<path
   id="path12922"
   class="st16"
   d="m 421.69,174.73 -73.97,67.34 c -3.08,2.8 -6.67,5.5 -11.21,5.5 -3.18,0 -8.13,-2.7 -11.21,-5.5 L 253.13,176.5 c -2.7,3.29 -5.27,6.76 -7.6,10.47 l 81.42,73.89 c 2.5,2.27 6.48,3.43 9.55,3.43 4,0 8.15,-1.17 10.65,-3.43 l 82.88,-75.35 c -2.45,-3.76 -5.24,-7.37 -8.34,-10.78 z" />&#10;		&#10;			<linearGradient
   id="path8779_00000029039683228163328550000012231194134173419707_"
   gradientUnits="userSpaceOnUse"
   x1="172.0143"
   y1="380.54239"
   x2="146.6246"
   y2="350.41849"
   gradientTransform="matrix(4.0215,0,0,-4.0215,-246.3284,1770.2672)">&#10;			<stop
   offset="0.0772"
   style="stop-color:#ACA6FE;stop-opacity:0"
   id="stop21-7" />&#10;			<stop
   offset="1"
   style="stop-color:#7388E5;stop-opacity:0.9961"
   id="stop22-5" />&#10;		</linearGradient>&#10;		&#10;			<path
   id="path8779"
   style="fill:url(#path8779_00000029039683228163328550000012231194134173419707_)"
   d="m 446.06,233.86 c -1.55,12.16 -9.67,21.87 -16.83,32.38 -3.06,4.49 -6.73,8.88 -10.32,12.43 -4.48,4.44 -9.15,8.16 -13.93,11.38 -19.1,12.89 -43.06,19.71 -65.59,19.73 -3.44,0.03 -10.71,-0.75 -10.71,3.74 0,1.19 0.23,2 0.58,2.65 13.3,7.87 28.65,12.37 48.03,12.37 28.23,0 55.25,-12.4 72.3,-28.89 11.39,-11.02 30.51,-30.79 32.96,-65.78 z" />&#10;		<g
   id="g22">&#10;			<defs
   id="defs22">&#10;				<path
   id="path8"
   d="m 434.88,30.46 c -73.46,0 -115.9,27.83 -129.91,61.69 -1.03,2.49 -1.87,5.05 -2.78,7.59 -1.02,0.38 -2,0.8 -2.99,1.23 -0.89,0.4 -1.76,0.82 -2.62,1.25 -1.07,0.54 -2.12,1.11 -3.14,1.71 -9.14,5.39 -16.37,13.27 -20.72,22.55 -0.04,0.09 -0.08,0.17 -0.12,0.25 -0.42,0.92 -0.82,1.85 -1.18,2.8 -0.08,0.21 -0.16,0.42 -0.24,0.64 -0.33,0.88 -0.63,1.77 -0.91,2.68 -0.1,0.33 -0.2,0.67 -0.29,1.01 -1.18,4.18 -1.82,8.55 -1.82,13.04 0,0.26 0.01,0.53 0.02,0.79 0.01,0.71 0.04,1.42 0.09,2.15 0.02,0.39 0.05,0.77 0.09,1.16 0.08,0.93 0.17,1.87 0.29,2.81 0.03,0.2 0.06,0.4 0.09,0.61 0.15,1.02 0.32,2.04 0.53,3.04 0.03,0.15 0.06,0.29 0.09,0.44 0.17,0.79 0.38,1.56 0.58,2.32 2.9,-7.64 6.93,-14.6 13.62,-21.9 12.05,-13.13 31.38,-22.02 49.95,-23.19 -4.93,-5.16 -11.01,-8.96 -17.66,-11.14 h 0.01 c 15.65,-45.41 77.23,-56.38 116.72,-56.92 40.81,0 74.76,5.79 101.48,16.25 -25,-19.55 -61.46,-32.86 -99.18,-32.86 z" />&#10;			</defs>&#10;			<clipPath
   id="SVGID_00000094582930303710979420000014121748412689175437_">&#10;				<use
   xlink:href="#SVGID_00000124150824140257817730000004859484069846295186_"
   style="overflow:visible"
   id="use22" />&#10;			</clipPath>&#10;			&#10;				<g
   id="path38173"
   style="filter:url(#filter38313)"
   clip-path="url(#SVGID_00000094582930303710979420000014121748412689175437_)">&#10;				<path
   class="st19"
   d="m 353.2,119.32 c 0,12.99 -8.85,23.53 -19.77,23.53 -10.92,0 -19.77,-10.53 -19.77,-23.53 0,-13 8.85,-23.53 19.77,-23.53 10.92,0 19.77,10.53 19.77,23.53 z"
   id="path22" />&#10;			</g>&#10;		</g>&#10;	</g>&#10;</g></svg>
