<?xml version="1.0" encoding="UTF-8" standalone="no"?>
<svg
   style="isolation:isolate"
   width="256"
   height="256"
   version="1.1"
   id="svg5"
   xml:space="preserve"
   xmlns="http://www.w3.org/2000/svg"
   xmlns:svg="http://www.w3.org/2000/svg"><defs
     id="defs1"><filter
       id="a"
       width="1.0842484"
       height="1.1077841"
       x="-0.042124196"
       y="-0.045133094"
       color-interpolation-filters="sRGB"
       filterUnits="objectBoundingBox"><feGaussianBlur
         in="SourceGraphic"
         stdDeviation="4.294"
         id="feGaussianBlur1" /><feOffset
         dy="4"
         result="pf_100_offsetBlur"
         id="feOffset1" /><feFlood
         flood-opacity=".4"
         id="feFlood1" /><feComposite
         in2="pf_100_offsetBlur"
         operator="in"
         result="pf_100_dropShadow"
         id="feComposite1" /><feBlend
         in="SourceGraphic"
         in2="pf_100_dropShadow"
         id="feBlend1" /></filter></defs><path
     fill="#f7f7f7"
     d="M165.689 11.95c74.056 0 84.639 10.557 84.639 84.544v59.251c0 73.986-10.583 84.543-84.639 84.543h-75.37c-74.055 0-84.639-10.557-84.639-84.543V96.494c0-73.987 10.584-84.544 84.639-84.544h75.37z"
     filter="url(#a)"
     id="path1"
     style="fill:#c8beb7" /><defs
     id="defs2"><filter
       id="b"
       width="1.1421462"
       height="1.2085695"
       x="-0.071073106"
       y="-0.087335595"
       color-interpolation-filters="sRGB"
       filterUnits="objectBoundingBox"><feGaussianBlur
         in="SourceGraphic"
         stdDeviation="4.294"
         id="feGaussianBlur2" /><feOffset
         dy="4"
         result="pf_100_offsetBlur"
         id="feOffset2" /><feFlood
         flood-opacity=".4"
         id="feFlood2" /><feComposite
         in2="pf_100_offsetBlur"
         operator="in"
         result="pf_100_dropShadow"
         id="feComposite2" /><feBlend
         in="SourceGraphic"
         in2="pf_100_dropShadow"
         id="feBlend2" /></filter></defs><g
     opacity=".4"
     id="g5"><linearGradient
       id="c"
       x1=".517"
       x2=".517"
       y2="1"
       gradientTransform="matrix(244.65 0 0 228.34 5.68 11.95)"
       gradientUnits="userSpaceOnUse"><stop
         offset="0%"
         stop-color="#ffffff"
         id="stop2" /><stop
         offset="12.5%"
         stop-color="#ffffff"
         stop-opacity=".098"
         id="stop3" /><stop
         offset="92.5%"
         stop-opacity=".098"
         id="stop4" /><stop
         offset="100%"
         stop-opacity=".498"
         id="stop5" /></linearGradient><path
       fill="url(#c)"
       fill-rule="evenodd"
       d="M165.068 11.951c4.328-.01 8.656.04 12.984.138 3.875.078 7.75.226 11.626.452 3.453.196 6.905.481 10.348.854 3.06.335 6.118.786 9.148 1.346a80.47 80.47 0 0 1 8.046 1.916 53.64 53.64 0 0 1 7.023 2.584 40.413 40.413 0 0 1 6.06 3.35 35.176 35.176 0 0 1 5.134 4.215 35.072 35.072 0 0 1 4.22 5.119 41.692 41.692 0 0 1 3.363 6.042 55.982 55.982 0 0 1 2.597 7.005 80.224 80.224 0 0 1 1.918 8.037 124.43 124.43 0 0 1 1.348 9.127c.374 3.439.659 6.878.856 10.326.226 3.861.373 7.732.462 11.593.088 4.323.138 8.646.128 12.96v58.21c.01 4.324-.04 8.637-.128 12.96a325.177 325.177 0 0 1-.462 11.593 200.984 200.984 0 0 1-.856 10.326 124.691 124.691 0 0 1-1.348 9.137 80.687 80.687 0 0 1-1.918 8.027 55.414 55.414 0 0 1-2.597 7.005 41.18 41.18 0 0 1-3.364 6.042 34.559 34.559 0 0 1-4.22 5.119 35.177 35.177 0 0 1-5.134 4.215 40.412 40.412 0 0 1-6.059 3.35 55.138 55.138 0 0 1-7.023 2.594 77.806 77.806 0 0 1-8.046 1.906 120 120 0 0 1-9.148 1.346c-3.443.373-6.895.658-10.348.854-3.875.226-7.75.374-11.626.462-4.328.088-8.656.138-12.984.128H90.942c-4.328.01-8.656-.04-12.984-.128a328.387 328.387 0 0 1-11.626-.462 203.003 203.003 0 0 1-10.348-.854 120 120 0 0 1-9.148-1.346 77.806 77.806 0 0 1-8.046-1.906 55.139 55.139 0 0 1-7.023-2.594 40.413 40.413 0 0 1-6.06-3.35 35.176 35.176 0 0 1-5.134-4.215 34.56 34.56 0 0 1-4.22-5.119 41.183 41.183 0 0 1-3.363-6.042 55.415 55.415 0 0 1-2.597-7.005 80.682 80.682 0 0 1-1.918-8.027 124.688 124.688 0 0 1-1.348-9.137 200.993 200.993 0 0 1-.856-10.326 325.212 325.212 0 0 1-.462-11.593 569.197 569.197 0 0 1-.128-12.96v-58.21c-.01-4.314.04-8.637.128-12.96.089-3.86.236-7.732.462-11.593.197-3.448.482-6.887.856-10.326.335-3.055.787-6.101 1.348-9.127a80.219 80.219 0 0 1 1.918-8.037 55.983 55.983 0 0 1 2.597-7.005 41.695 41.695 0 0 1 3.364-6.042 35.072 35.072 0 0 1 4.22-5.119 35.176 35.176 0 0 1 5.134-4.215 40.413 40.413 0 0 1 6.059-3.35 53.64 53.64 0 0 1 7.023-2.584 80.47 80.47 0 0 1 8.046-1.916 125.11 125.11 0 0 1 9.148-1.346c3.443-.373 6.895-.658 10.348-.854 3.875-.226 7.75-.374 11.626-.452 4.328-.098 8.656-.148 12.984-.138h74.126zm.01 4.009c4.298-.01 8.597.039 12.895.127 3.827.089 7.653.236 11.48.452 3.383.197 6.766.472 10.13.845 2.971.315 5.932.747 8.863 1.297a75.943 75.943 0 0 1 7.653 1.818 50.493 50.493 0 0 1 6.501 2.397 37.038 37.038 0 0 1 5.47 3.026 30.383 30.383 0 0 1 4.524 3.724 31.05 31.05 0 0 1 3.738 4.519 37.271 37.271 0 0 1 3.03 5.443 51.46 51.46 0 0 1 2.4 6.494 75.563 75.563 0 0 1 1.829 7.634c.54 2.928.974 5.875 1.298 8.842.374 3.36.65 6.73.846 10.11.217 3.822.374 7.634.453 11.456.088 4.293.137 8.577.137 12.87v58.212c0 4.293-.049 8.577-.137 12.87a317.503 317.503 0 0 1-.453 11.456c-.196 3.38-.472 6.75-.846 10.12a121.689 121.689 0 0 1-1.298 8.832 75.562 75.562 0 0 1-1.83 7.634 50.902 50.902 0 0 1-2.4 6.494 36.767 36.767 0 0 1-3.03 5.443 30.615 30.615 0 0 1-3.737 4.53 30.938 30.938 0 0 1-4.525 3.713 37.038 37.038 0 0 1-5.469 3.026 49.07 49.07 0 0 1-6.501 2.397 75.942 75.942 0 0 1-7.653 1.818c-2.931.55-5.892.982-8.863 1.306-3.364.364-6.747.649-10.13.836-3.827.216-7.653.373-11.48.452-4.298.098-8.597.137-12.895.137H90.932c-4.298 0-8.597-.04-12.895-.137a320.093 320.093 0 0 1-11.48-.452 193.696 193.696 0 0 1-10.13-.836 116.71 116.71 0 0 1-8.863-1.306 75.942 75.942 0 0 1-7.653-1.818 49.07 49.07 0 0 1-6.501-2.397 37.038 37.038 0 0 1-5.47-3.026 30.938 30.938 0 0 1-4.524-3.714 30.615 30.615 0 0 1-3.738-4.529 36.766 36.766 0 0 1-3.03-5.443 50.903 50.903 0 0 1-2.4-6.494 75.567 75.567 0 0 1-1.829-7.634 121.69 121.69 0 0 1-1.298-8.832c-.374-3.37-.65-6.74-.846-10.12a317.535 317.535 0 0 1-.453-11.456 623.851 623.851 0 0 1-.137-12.87V97.014c0-4.293.049-8.577.137-12.87.079-3.822.236-7.634.453-11.456.197-3.38.472-6.75.846-10.11.324-2.967.757-5.914 1.298-8.842a75.568 75.568 0 0 1 1.83-7.634 51.46 51.46 0 0 1 2.4-6.494 37.27 37.27 0 0 1 3.03-5.443 31.05 31.05 0 0 1 3.737-4.52 30.384 30.384 0 0 1 4.525-3.723 37.039 37.039 0 0 1 5.469-3.026 50.494 50.494 0 0 1 6.501-2.397 75.943 75.943 0 0 1 7.653-1.818c2.931-.55 5.892-.982 8.863-1.297 3.364-.373 6.747-.648 10.13-.845a344.71 344.71 0 0 1 11.48-.452c4.298-.088 8.597-.137 12.895-.127H165.078z"
       id="path5" /></g><g
     style="fill:none"
     id="g6"
     transform="matrix(9.4968586,0,0,9.4968586,18.503142,11.378291)"><path
       opacity="0.4"
       d="m 21.0505,11.71 v 5.99 c 0,2.76 -2.24,5 -5,5 H 7.31055 c -0.23,0 -0.46,-0.02 -0.68,-0.05 0.37,-0.16 0.7,-0.3801 1,-0.6501 0.04,-0.03 0.06998,-0.0599 0.09998,-0.0999 0.27,-0.23 0.5,-0.5201 0.69,-0.8401 0.37,-0.6 0.58002,-1.31 0.58002,-2.06 0,-1.05 -0.41001,-1.9999 -1.07001,-2.7199 -0.1,-0.11 -0.21002,-0.2201 -0.33002,-0.3101 -0.69999,-0.61 -1.59997,-0.97 -2.59997,-0.97 -0.71,0 -1.38002,0.1901 -1.96002,0.5201 -0.19,0.1 -0.36998,0.2199 -0.53998,0.3599 -0.07,0.05 -0.13,0.11 -0.19,0.17 V 11.78 c 0.76,0.82 1.84001,1.2899 3.01001,1.2899 1.26,0 2.46998,-0.63 3.22998,-1.64 0.68,1.01 1.83996,1.64 3.12996,1.64 1.28,0 2.42,-0.6 3.11,-1.6 0.77,0.99 1.96,1.6 3.2,1.6 1.21,0 2.31,-0.4899 3.06,-1.3599 z"
       fill="#292d32"
       id="path1-7"
       style="fill:#f9f4f0;fill-opacity:1;opacity:1" /><path
       d="M 14.669,1.57007 H 8.66904 L 7.92905,8.93005 c -0.06,0.68 0.03998,1.32005 0.28998,1.90005 0.58,1.36 1.94007,2.24 3.46007,2.24 1.54,0 2.87,-0.86 3.47,-2.23 0.18,-0.43 0.29,-0.93001 0.3,-1.44001 V 9.21008 Z"
       fill="#292d32"
       id="path2"
       style="fill:#bf3b91;fill-opacity:1" /><path
       opacity="0.6"
       d="m 22.0392,8.59009 -0.28,-2.78003 c -0.42,-3.02 -1.79,-4.25 -4.72,-4.25 h -3.84 l 0.74,7.5 c 0.01,0.1 0.02,0.21002 0.02,0.40002 0.06,0.52 0.22,1.00002 0.46,1.43002 0.72,1.32 2.12,2.17 3.58,2.17 1.33,0 2.53,-0.59 3.28,-1.63 0.59,-0.79 0.86,-1.80001 0.76,-2.84001 z"
       fill="#292d32"
       id="path3"
       style="fill:#048abf;fill-opacity:1" /><path
       opacity="0.6"
       d="m 6.26934,1.57007 c -2.94,0 -4.30004,1.22997 -4.73004,4.27997 l -0.26996,2.75 c -0.1,1.07 0.19,2.11006 0.82,2.92006 0.76,0.99 1.92999,1.55 3.22998,1.55 1.46001,0 2.86001,-0.8501 3.57001,-2.1501 0.26,-0.45 0.42998,-0.96997 0.47998,-1.50997 L 10.1493,1.58008 H 6.26934 Z"
       fill="#292d32"
       id="path4"
       style="fill:#f2324b;fill-opacity:1" /><path
       d="M 7.92999,16.28 C 7.82999,16.17 7.71998,16.06 7.59998,15.97 6.89998,15.36 6,15 5,15 4.29,15 3.61998,15.19 3.03998,15.52 2.84998,15.62 2.67,15.74 2.5,15.88 1.58,16.61 1,17.74 1,19 c 0,0.75 0.21002,1.46 0.58002,2.06 0.09,0.16 0.2,0.31 0.32,0.45 0.02,0.03 0.04995,0.05 0.06995,0.08 C 2.68997,22.45 3.78,23 5,23 c 1.01,0 1.93001,-0.37 2.63,-1 0.04,-0.03 0.06998,-0.06 0.09998,-0.1 0.27,-0.23 0.5,-0.52 0.69,-0.84 C 8.78998,20.46 9,19.75 9,19 9,17.95 8.58999,17 7.92999,16.28 Z M 6.5,19.73 H 5.75 v 0.78 c 0,0.41 -0.34,0.75 -0.75,0.75 -0.41,0 -0.75,-0.34 -0.75,-0.75 V 19.73 H 3.5 c -0.41,0 -0.75,-0.34 -0.75,-0.75 0,-0.41 0.34,-0.75 0.75,-0.75 h 0.75 v -0.71 c 0,-0.41 0.34,-0.75 0.75,-0.75 0.41,0 0.75,0.34 0.75,0.75 v 0.71 H 6.5 c 0.41,0 0.75,0.34 0.75,0.75 0,0.41 -0.34,0.75 -0.75,0.75 z"
       fill="#292d32"
       id="path5-5" /></g></svg>
