<?xml version="1.0" encoding="UTF-8" standalone="no"?>
<svg
   style="isolation:isolate"
   width="256"
   height="256"
   version="1.1"
   id="svg45"
   xmlns="http://www.w3.org/2000/svg"
   xmlns:svg="http://www.w3.org/2000/svg">
  <defs
     id="defs13">
    <filter
       id="a"
       width="1.0842484"
       height="1.1077841"
       x="-0.042124196"
       y="-0.045133094"
       color-interpolation-filters="sRGB"
       filterUnits="objectBoundingBox">
      <feGaussianBlur
         in="SourceGraphic"
         stdDeviation="4.294"
         id="feGaussianBlur2" />
      <feOffset
         dy="4"
         result="pf_100_offsetBlur"
         id="feOffset4" />
      <feFlood
         flood-opacity=".4"
         id="feFlood6" />
      <feComposite
         in2="pf_100_offsetBlur"
         operator="in"
         result="pf_100_dropShadow"
         id="feComposite8" />
      <feBlend
         in="SourceGraphic"
         in2="pf_100_dropShadow"
         id="feBlend10" />
    </filter>
  </defs>
  <path
     fill="#f7f7f7"
     d="M165.689 11.95c74.056 0 84.639 10.557 84.639 84.544v59.251c0 73.986-10.583 84.543-84.639 84.543h-75.37c-74.055 0-84.639-10.557-84.639-84.543V96.494c0-73.987 10.584-84.544 84.639-84.544h75.37z"
     filter="url(#a)"
     id="path15"
     style="fill:#304059;fill-opacity:1" />
  <defs
     id="defs28">
    <filter
       id="b"
       width="1.1421462"
       height="1.2085695"
       x="-0.071073106"
       y="-0.087335595"
       color-interpolation-filters="sRGB"
       filterUnits="objectBoundingBox">
      <feGaussianBlur
         in="SourceGraphic"
         stdDeviation="4.294"
         id="feGaussianBlur17" />
      <feOffset
         dy="4"
         result="pf_100_offsetBlur"
         id="feOffset19" />
      <feFlood
         flood-opacity=".4"
         id="feFlood21" />
      <feComposite
         in2="pf_100_offsetBlur"
         operator="in"
         result="pf_100_dropShadow"
         id="feComposite23" />
      <feBlend
         in="SourceGraphic"
         in2="pf_100_dropShadow"
         id="feBlend25" />
    </filter>
  </defs>
  <g
     opacity=".4"
     id="g43">
    <linearGradient
       id="c"
       x1=".517"
       x2=".517"
       y2="1"
       gradientTransform="matrix(244.65 0 0 228.34 5.68 11.95)"
       gradientUnits="userSpaceOnUse">
      <stop
         offset="0%"
         stop-color="#ffffff"
         id="stop32" />
      <stop
         offset="12.5%"
         stop-color="#ffffff"
         stop-opacity=".098"
         id="stop34" />
      <stop
         offset="92.5%"
         stop-opacity=".098"
         id="stop36" />
      <stop
         offset="100%"
         stop-opacity=".498"
         id="stop38" />
    </linearGradient>
    <path
       fill="url(#c)"
       fill-rule="evenodd"
       d="M165.068 11.951c4.328-.01 8.656.04 12.984.138 3.875.078 7.75.226 11.626.452 3.453.196 6.905.481 10.348.854 3.06.335 6.118.786 9.148 1.346a80.47 80.47 0 0 1 8.046 1.916 53.64 53.64 0 0 1 7.023 2.584 40.413 40.413 0 0 1 6.06 3.35 35.176 35.176 0 0 1 5.134 4.215 35.072 35.072 0 0 1 4.22 5.119 41.692 41.692 0 0 1 3.363 6.042 55.982 55.982 0 0 1 2.597 7.005 80.224 80.224 0 0 1 1.918 8.037 124.43 124.43 0 0 1 1.348 9.127c.374 3.439.659 6.878.856 10.326.226 3.861.373 7.732.462 11.593.088 4.323.138 8.646.128 12.96v58.21c.01 4.324-.04 8.637-.128 12.96a325.177 325.177 0 0 1-.462 11.593 200.984 200.984 0 0 1-.856 10.326 124.691 124.691 0 0 1-1.348 9.137 80.687 80.687 0 0 1-1.918 8.027 55.414 55.414 0 0 1-2.597 7.005 41.18 41.18 0 0 1-3.364 6.042 34.559 34.559 0 0 1-4.22 5.119 35.177 35.177 0 0 1-5.134 4.215 40.412 40.412 0 0 1-6.059 3.35 55.138 55.138 0 0 1-7.023 2.594 77.806 77.806 0 0 1-8.046 1.906 120 120 0 0 1-9.148 1.346c-3.443.373-6.895.658-10.348.854-3.875.226-7.75.374-11.626.462-4.328.088-8.656.138-12.984.128H90.942c-4.328.01-8.656-.04-12.984-.128a328.387 328.387 0 0 1-11.626-.462 203.003 203.003 0 0 1-10.348-.854 120 120 0 0 1-9.148-1.346 77.806 77.806 0 0 1-8.046-1.906 55.139 55.139 0 0 1-7.023-2.594 40.413 40.413 0 0 1-6.06-3.35 35.176 35.176 0 0 1-5.134-4.215 34.56 34.56 0 0 1-4.22-5.119 41.183 41.183 0 0 1-3.363-6.042 55.415 55.415 0 0 1-2.597-7.005 80.682 80.682 0 0 1-1.918-8.027 124.688 124.688 0 0 1-1.348-9.137 200.993 200.993 0 0 1-.856-10.326 325.212 325.212 0 0 1-.462-11.593 569.197 569.197 0 0 1-.128-12.96v-58.21c-.01-4.314.04-8.637.128-12.96.089-3.86.236-7.732.462-11.593.197-3.448.482-6.887.856-10.326.335-3.055.787-6.101 1.348-9.127a80.219 80.219 0 0 1 1.918-8.037 55.983 55.983 0 0 1 2.597-7.005 41.695 41.695 0 0 1 3.364-6.042 35.072 35.072 0 0 1 4.22-5.119 35.176 35.176 0 0 1 5.134-4.215 40.413 40.413 0 0 1 6.059-3.35 53.64 53.64 0 0 1 7.023-2.584 80.47 80.47 0 0 1 8.046-1.916 125.11 125.11 0 0 1 9.148-1.346c3.443-.373 6.895-.658 10.348-.854 3.875-.226 7.75-.374 11.626-.452 4.328-.098 8.656-.148 12.984-.138h74.126zm.01 4.009c4.298-.01 8.597.039 12.895.127 3.827.089 7.653.236 11.48.452 3.383.197 6.766.472 10.13.845 2.971.315 5.932.747 8.863 1.297a75.943 75.943 0 0 1 7.653 1.818 50.493 50.493 0 0 1 6.501 2.397 37.038 37.038 0 0 1 5.47 3.026 30.383 30.383 0 0 1 4.524 3.724 31.05 31.05 0 0 1 3.738 4.519 37.271 37.271 0 0 1 3.03 5.443 51.46 51.46 0 0 1 2.4 6.494 75.563 75.563 0 0 1 1.829 7.634c.54 2.928.974 5.875 1.298 8.842.374 3.36.65 6.73.846 10.11.217 3.822.374 7.634.453 11.456.088 4.293.137 8.577.137 12.87v58.212c0 4.293-.049 8.577-.137 12.87a317.503 317.503 0 0 1-.453 11.456c-.196 3.38-.472 6.75-.846 10.12a121.689 121.689 0 0 1-1.298 8.832 75.562 75.562 0 0 1-1.83 7.634 50.902 50.902 0 0 1-2.4 6.494 36.767 36.767 0 0 1-3.03 5.443 30.615 30.615 0 0 1-3.737 4.53 30.938 30.938 0 0 1-4.525 3.713 37.038 37.038 0 0 1-5.469 3.026 49.07 49.07 0 0 1-6.501 2.397 75.942 75.942 0 0 1-7.653 1.818c-2.931.55-5.892.982-8.863 1.306-3.364.364-6.747.649-10.13.836-3.827.216-7.653.373-11.48.452-4.298.098-8.597.137-12.895.137H90.932c-4.298 0-8.597-.04-12.895-.137a320.093 320.093 0 0 1-11.48-.452 193.696 193.696 0 0 1-10.13-.836 116.71 116.71 0 0 1-8.863-1.306 75.942 75.942 0 0 1-7.653-1.818 49.07 49.07 0 0 1-6.501-2.397 37.038 37.038 0 0 1-5.47-3.026 30.938 30.938 0 0 1-4.524-3.714 30.615 30.615 0 0 1-3.738-4.529 36.766 36.766 0 0 1-3.03-5.443 50.903 50.903 0 0 1-2.4-6.494 75.567 75.567 0 0 1-1.829-7.634 121.69 121.69 0 0 1-1.298-8.832c-.374-3.37-.65-6.74-.846-10.12a317.535 317.535 0 0 1-.453-11.456 623.851 623.851 0 0 1-.137-12.87V97.014c0-4.293.049-8.577.137-12.87.079-3.822.236-7.634.453-11.456.197-3.38.472-6.75.846-10.11.324-2.967.757-5.914 1.298-8.842a75.568 75.568 0 0 1 1.83-7.634 51.46 51.46 0 0 1 2.4-6.494 37.27 37.27 0 0 1 3.03-5.443 31.05 31.05 0 0 1 3.737-4.52 30.384 30.384 0 0 1 4.525-3.723 37.039 37.039 0 0 1 5.469-3.026 50.494 50.494 0 0 1 6.501-2.397 75.943 75.943 0 0 1 7.653-1.818c2.931-.55 5.892-.982 8.863-1.297 3.364-.373 6.747-.648 10.13-.845a344.71 344.71 0 0 1 11.48-.452c4.298-.088 8.597-.137 12.895-.127H165.078z"
       id="path41" />
  </g>
  <g
     id="g1027"
     transform="matrix(0.04882798,0,0,0.04882798,27.90247,27.902314)">
    <path
       fill="#304059"
       opacity="1"
       stroke="none"
       d="m 4098.0009,46.005276 c 0,2.1335 0,4.2671 -0.9375,7.1956 -197.4336,0.792 -393.9302,0.7882 -590.4268,0.7931 -3.3288,10e-5 -6.6706,-0.045 -9.9797,0.2404 -1.2234,0.1056 -2.3694,1.1046 -5.2478,2.546 3.5913,0.7151 5.1616,1.0278 7.4736,1.6589 6.3565,0.7342 11.9715,1.5117 17.5864,1.5135 193.844,0.063 387.6878,0.052 581.5318,0.053 0,0.8889 0,1.7777 -0.9375,3.3314 -193.169,0.7852 -385.4007,0.9056 -577.6326,1.0458 -0.2881,2e-4 -0.6335,0.2429 -0.8479,0.4704 -0.2004,0.2129 -0.2622,0.5565 -0.9026,2.0479 7.5391,2.4108 14.9781,4.7896 22.7915,7.7722 6.1897,6.7584 13.845,5.4275 21.0274,5.4301 164.1814,0.06 328.363,0.05 492.5444,0.04 14.6523,-8e-4 29.3049,-0.09 43.9573,-0.1378 0,1.5 0,3 -0.9375,5.2531 -170.2041,0.7551 -339.4715,0.757 -508.7385,0.7609 -3.6651,1e-4 -7.3404,-0.1334 -10.9915,0.1005 -2.0098,0.1287 -3.9792,0.8944 -6.752,1.5621 1.6167,1.1141 2.1387,1.7892 2.6617,1.7898 174.9192,0.2084 349.8386,0.3705 524.7578,0.5336 0,6.064 0,12.128104 -0.9375,19.109404 -154.1987,0.9261 -307.4605,0.9348 -460.7222,0.9455 -3.6648,3e-4 -7.3398,-0.1329 -10.9907,0.1001 -2.0117,0.1283 -3.9832,0.8907 -5.9727,1.3673 0.1009,0.8096 0.2017,1.6192 0.3023,2.4288 159.4404,0.016 318.8806,0.033 478.3208,0.049 0,5.4012 0,10.8025 -0.9375,17.1058 -147.2271,0.902 -293.5171,0.902 -439.8071,0.902 9e-4,0.664 0,1.3281 0,1.9922 146.9138,0 293.8279,0 440.7417,0 0,2.1335 0,4.2671 -0.9375,7.2174 -136.1883,0.8279 -271.4395,0.8389 -406.6907,0.852 -3.6643,3e-4 -7.3381,-0.1301 -10.989,0.098 -2.0127,0.1255 -3.9868,0.8707 -5.9783,1.3365 0.1,0.8042 0.1997,1.6084 0.2996,2.4126 141.4319,0.028 282.864,0.056 424.2959,0.084 0,2.7777 0,5.5555 -0.9375,9.1664 -134.6939,0.8332 -268.4507,0.8332 -402.2073,0.8332 -2e-4,0.6668 -5e-4,1.3336 -5e-4,2.0004 134.3819,0 268.7634,0 403.1453,0 0,2.7777 0,5.5555 -0.9375,9.17 -122.875,0.8389 -244.8133,0.8408 -366.7512,0.845 -3.6648,1e-4 -7.3396,-0.1337 -10.99,0.1009 -2.01,0.1292 -3.9788,0.8972 -5.9661,1.3772 0.1016,0.8121 0.2029,1.6242 0.3044,2.4363 128.1131,0.1099 256.2271,-0.013 384.3404,0.071 0,0.8888 0,1.7777 -0.9346,3.4164 -74.2612,0.7889 -147.5881,0.8371 -220.9148,0.8639 -47.6626,0.017 -95.3252,-0.01 -142.9878,0.027 -3.4272,0 -6.8545,0.3347 -12.5381,0.6314 4.3157,3.5362 6.5113,5.4926 8.8628,7.2389 49.1006,36.4669 94.1184,77.44911 134.9243,122.97531 59.3045,66.1646 108.1084,139.3241 146.2725,219.6604 37.8643,79.7053 63.8218,163.0025 77.6521,250.1124 1.6177,10.1913 2.738,20.4667 4.5796,30.6141 0.5718,3.1506 -0.3386,7.9273 5.084,8.4599 0,824.05601 0,1648.11211 -0.3877,2473.81451 -0.8042,5.2573 -1.585,8.8687 -1.586,12.48 -0.059,193.687 -0.065,387.374 0.032,581.061 0,4.2151 1.2661,8.4297 1.9414,12.6446 0,14.0561 0,28.112 -0.9346,43.1633 -4.9324,1.0325 -8.9299,1.1016 -12.9277,1.1023 -124.6028,0.016 -249.2058,0.014 -373.8086,0.075 -4.5051,0 -9.0095,0.6148 -14.5957,1.0215 0,6.6868 0.078,12.2957 -0.019,17.9019 -0.138,7.9904 -0.6712,8.6919 -8.3972,8.8969 -8.9903,0.2388 -18.0132,-0.2639 -26.9766,0.2891 -4.4683,0.2754 -9.3628,1.2837 -13.1663,3.501 -34.2873,19.9914 -69.5954,37.9035 -106.1389,53.3906 -60.3125,25.5613 -122.4927,45.1062 -186.9699,56.8076 -26.8291,4.8689 -53.9549,8.1016 -80.9432,12.0965 -2.7932,0.4133 -6.323,-0.4795 -7.1225,3.7539 -808.7227,0 -1617.4455,0 -2427.2556,-0.7578 -4.1995,-1.5699 -7.2675,-2.7168 -10.432,-3.1358 -13.1931,-1.7468 -26.469,-2.925 -39.6176,-4.9426 -58.7196,-9.0115 -116.193,-22.9722 -172.2722,-42.7947 -52.2888,-18.4824 -102.4802,-41.4238 -150.4665,-69.1282 -8.9911,-5.1906 -17.8117,-7.7319 -28.2164,-7.7155 -141.9203,0.2226 -283.841,0.145 -425.761497,0.1586 -3.3261,5e-4 -6.6522,0.2059 -9.9782,0.316 0,-9.3897 0,-18.7793 0.9334,-28.9895 114.558297,-0.7791 228.183197,-0.732 341.808197,-0.7268 2.9328,2e-4 5.8656,-0.4571 9.7361,-0.7789 1.4761,-12.0385 1.8882,-23.5327 -0.7674,-34.986 -0.2851,-1.2295 -2.3057,-2.0567 -3.7082,-3.7076 -1.6386,-4.8784 -4.8139,-5.8166 -8.9022,-5.4497 -3.9697,0.3562 -7.9806,0.6829 -11.9508,0.5078 -7.0549,-0.3105 -8.4356,-1.8601 -8.944,-9.1369 -0.2246,-3.2141 -0.2759,-6.4407 -0.4059,-9.6616 -0.6636,0.037 -1.3272,0.074 -1.9908,0.1106 0,3.2841 0.1742,6.5798 -0.037,9.8503 -0.4175,6.469 -2.1713,8.4783 -7.1923,8.7466 -5.5368,0.2959 -8.1297,-2.0332 -8.437,-8.534 -0.3452,-7.3076 -0.063,-14.6433 -0.2732,-21.9602 -0.056,-1.9575 -0.9139,-3.892 -1.4036,-5.8371 -0.785,0.081 -1.5699,0.1628 -2.3548,0.2444 0,6.2302 0.01,12.4602 0,18.6904 -0.023,17.6389 -0.025,17.6389 -17.7218,16.6333 0.06,-9.896 0.2564,-18.8643 0.076,-27.8245 -0.1802,-8.9282 0.8603,-17.9497 -2.3473,-26.7519 0,18.5076 0,37.0154 -0.8516,55.5417 -3.6906,0.013 -6.5296,0.01 -9.3373,-0.935 -0.1919,-23.8992 0.9367,-46.9036 -0.6586,-70.6697 -1.8633,1.21 -2.8152,1.5366 -2.8183,1.8718 -0.215,23.2505 -0.3541,46.5015 -1.3675,69.7534 -2.5339,-0.019 -4.2119,0.084 -5.8641,-0.077 -7.3677,-0.7204 -8.5032,-1.8525 -8.9906,-9.135 -0.1777,-2.655 -0.09,-5.3296 -0.091,-7.9951 -0.01,-21.6604 0.015,-43.3205 -0.038,-64.9809 -0.01,-2.2718 -0.4425,-4.5428 -0.6793,-6.814 -1.5631,24.1357 -1.5502,48.0796 -1.5767,72.0232 0,3.6611 0.151,7.3784 -0.4355,10.9602 -0.2932,1.7908 -2.0939,3.335 -3.3774,5.2341 -5.1021,-4.0129 -3.8144,-8.666 -3.8344,-12.7712 -0.1236,-25.3255 -0.064,-50.6514 -0.066,-75.9773 -2e-4,-3.2268 0,-6.4536 0,-9.6804 -0.7567,-0.01 -1.5134,-0.018 -2.2701,-0.027 0,7.53 9e-4,15.06 -2e-4,22.5901 0,21.6601 0.049,43.3208 -0.07,64.9804 -0.018,3.2871 1.071,7.2559 -3.7019,9.9397 -3.5886,-9.1745 -1.5441,-18.146 -1.8824,-26.8606 -0.3488,-8.9839 -0.077,-17.9917 -0.077,-26.989 0,-8.9973 0,-17.9949 0,-26.9922 0,-8.8906 0,-17.781 0,-26.6716 -0.7588,-2e-4 -1.5177,-2e-4 -2.2765,-2e-4 0,8.8862 -1e-4,17.7722 -1e-4,26.6584 0,8.6641 0,17.3281 0,25.9922 0,8.9973 0.2146,18.0015 -0.062,26.9902 -0.2657,8.6538 1.3211,17.4822 -2.3619,25.9568 -1.4833,-37.1213 -1.0628,-74.25 -1.3793,-111.3584 -0.7326,0.01 -1.4653,0.02 -2.1979,0.03 0,3.2615 0,6.5229 0,9.7844 -3e-4,28.9915 0.01,57.9829 0,86.9744 -0.01,18.2991 -0.014,18.2991 -18.1448,18.2314 -15.2428,-0.057 -15.5507,-0.3278 -15.5584,-15.7898 -0.022,-44.9868 -0.01,-89.9736 -0.01,-134.9604 0,-3.4846 0,-6.969 0,-10.4536 -0.7703,0.016 -1.5406,0.032 -2.3109,0.048 0,3.5679 0,7.1358 0,10.7036 -3e-4,44.6536 0,89.3072 -0.011,133.9607 0,3.3301 0.1915,6.7156 -0.3477,9.969 -0.3149,1.9006 -1.9039,3.5903 -3.2078,5.8809 -5.4375,-4.1297 -4.186,-9.0977 -4.1939,-13.4732 -0.089,-49.3188 -0.056,-98.6377 -0.063,-147.9565 -5e-4,-3.3318 0.1171,-6.679 -0.1681,-9.9888 -0.1308,-1.5178 -1.1055,-2.9629 -1.6975,-4.4411 -0.6963,0.1218 -1.3926,0.2434 -2.0889,0.3652 0,3.9111 0,7.8225 0,11.7336 -6e-4,49.3189 0.01,98.6377 -0.023,147.9566 0,3.6548 0.2878,7.4836 -0.7057,10.8974 -0.572,1.9659 -3.4407,4.4937 -5.2937,4.5083 -1.8331,0.015 -4.7334,-2.5075 -5.3038,-4.4604 -0.9969,-3.4126 -0.7115,-7.2417 -0.7135,-10.8963 -0.032,-57.6496 -0.012,-115.2995 -0.05,-172.9492 0,-3.7219 -0.3757,-7.4436 -0.5765,-11.1655 -0.9421,0.01 -1.8842,0.011 -2.8263,0.017 -0.1941,3.7684 -0.5547,7.5369 -0.5572,11.3052 -0.037,56.3167 -0.024,112.6336 -0.027,168.9502 0,20.5047 -0.01,20.5047 -20.1474,19.1519 0.04,-78.5066 0.04,-156.0908 0.04,-233.6751 -1.5854,1.2635 -1.8104,2.5489 -1.8098,3.834 0.036,76.918 0.091,153.8359 -0.5833,230.7595 -1.6989,0 -2.6698,0 -3.6034,-0.9284 0.068,-80.1927 0.1017,-159.4641 0.1037,-238.7354 10e-5,-1.6899 -0.3695,-3.3799 -0.5667,-5.0698 -1.1506,1.3686 -1.3836,2.6526 -1.383,3.9365 0.034,80.27 0.087,160.5401 -0.7901,240.8328 -2.2614,0.044 -3.5941,0.074 -4.9269,0.087 -18.3058,0.1724 -18.3221,0.1722 -18.3233,-18.0542 -0.01,-87.3047 0,-174.6093 -0.01,-261.914 -2e-4,-3.3318 0.1196,-6.678 -0.1538,-9.9893 -0.1256,-1.521 -1.069,-2.9744 -1.6415,-4.4585 -0.703,0.1189 -1.406,0.2378 -2.109,0.3567 0,4.2444 0,8.489 0,12.7334 -2e-4,87.6379 6e-4,175.2756 0,262.9136 -2e-4,3.3318 0.4908,6.7903 -0.243,9.959 -0.6903,2.9804 -2.699797,5.6555 -4.068097,7.5305 0.1055,-2.2652 0.1893,-3.5962 0.1895,-4.927 0.014,-98.219 0.022,-196.4383 0.031,-294.6572 2e-4,-2.2437 0,-4.4876 0,-6.7312 -0.6564,-0.01 -1.3128,-0.015 -1.9693,-0.022 0,3.2036 0,6.4072 0,9.6108 5e-4,95.5554 0,191.1111 0.013,286.6665 6e-4,3.6602 0.1751,7.3206 -0.6172,10.989 -4.4273,-0.049 -7.9687,-0.1057 -11.4965,-1.0815 0.025,-109.9487 0.037,-218.979 0.044,-328.0093 10e-5,-2.3264 0.3661,-4.7637 -0.2021,-6.9509 -0.7147,-2.7505 -2.2171,-5.2962 -3.4443,-8.6926 -0.6745,-5.5935 -1.3627,-10.386 -6.2159,-13.8528 -0.6625,-2.8091 -1.2541,-4.9378 -2.0285,-7.656 -0.7595,-1.6726 -1.3363,-2.7554 -2.0136,-4.5872 -2.839,-8.3818 -3.8384,-16.7659 -9.811,-23.5251 -0.3586,-1.3528 -0.6365,-2.2163 -0.9145,-3.0799 -0.4417,0 -0.8834,0.01 -1.3251,0.01 0,3.1717 0,6.3431 0,9.5147 -1e-4,30.322 -0.01,60.644 0,90.9661 0.035,98.2961 0.077,196.5922 -0.2819,295.0932 -1.5295,0.076 -2.6606,-0.054 -3.7639,-1.115 0.044,-134.8061 0.079,-268.6814 -0.01,-402.5564 0,-4.2104 -1.2568,-8.4196 -2.0173,-13.3325 -1.305,-4.1911 -2.5201,-7.6792 -3.8514,-11.5281 -0.5603,-0.5962 -1.0043,-0.832 -1.4484,-1.0678 -0.1235,0.2968 -0.3478,0.5913 -0.3551,0.8911 -0.081,3.3254 -0.1788,6.6516 -0.1791,9.9778 -0.01,127.1616 -0.012,254.3232 3e-4,381.4848 0,12.3159 0.1059,24.6316 -0.292,36.6221 -0.922,-4.5488 -1.7957,-8.7717 -1.7979,-12.9954 -0.07,-139.3103 -0.057,-278.6208 -0.058,-417.9311 0,-2.9995 0.1402,-6.0103 -0.076,-8.9946 -0.1487,-2.0477 -0.8032,-4.0584 -1.2317,-6.0857 -0.6897,0.038 -1.3794,0.076 -2.0691,0.1147 -0.1728,4.4773 -0.4956,8.9546 -0.4965,13.4319 -0.027,137.9773 -0.022,275.9546 -0.024,413.9319 -1e-4,3.666 0.1041,7.3384 -0.071,10.9968 -0.3909,8.1582 -1.0649,8.7476 -10.1908,8.97 0.067,-1.9229 0.1128,-2.9221 0.113,-3.9214 0.031,-161.6055 0.059,-323.2112 0.062,-484.8167 10e-5,-1.6953 -0.3475,-3.3908 -0.5329,-5.0861 -0.4694,0.033 -0.9387,0.066 -1.4081,0.1 0,3.9436 0,7.8872 0,11.8308 0,156.2744 0,312.5486 0.01,468.823 3e-4,4.664 0.1107,9.3281 -0.2326,13.6948 -0.8981,-0.7432 -1.3939,-1.189 -1.8604,-2.5649 0.029,-170.6856 0.029,-340.4407 0.029,-510.1961 -0.6702,-0.019 -1.3404,-0.037 -2.0107,-0.056 0,3.884 0,7.768 0,11.6521 0,102.9116 -0.014,205.8234 0.01,308.7351 0.012,63.6115 0.075,127.2234 -0.3033,190.4607 -0.8332,-4.6204 -1.6087,-8.8665 -1.6103,-13.1131 -0.065,-169.2654 -0.06,-338.5305 -0.067,-507.7959 -2e-4,-3.3318 0.4368,-6.7593 -0.2034,-9.9677 -0.61,-3.0584 -2.364,-5.8887 -3.6602,-9.6849 -0.1122,-5.4514 -0.1791,-10.0371 -0.3733,-15.4062 -1.9112,-9.8765 -3.6953,-18.9702 -5.4794,-28.0637 -1.8507,3.5881 -2.1998,7.1142 -2.2,10.6401 -0.012,191.8948 0.01,383.7893 -0.7872,575.7117 -2.9621,0.048 -5.1167,0.068 -7.2712,0.088 0,-1026.0562 0,-2052.1123 0.7978,-3079.03522 6.7066,-0.5325 6.5954,-4.9169 7.2512,-8.8981 3.894,-23.639 7.2164,-47.3956 11.9319,-70.8715 13.8952,-69.1768 35.9153,-135.7625 65.5434,-199.8045 18.624797,-40.2582 39.868597,-79.0769 64.086897,-116.2711 31.71,-48.7 67.5889,-94.0794 107.8527,-135.9704 35.6101,-37.0492 74.0569,-70.9046 115.2544,-101.6342 1.9401,-1.4471 3.5124,-3.3875 5.2559,-5.0981 -0.2064,-0.7073 -0.4129,-1.4146 -0.6194,-2.1219 -4.1909,0 -8.3817,0 -12.5726,0 -116.6002,-1e-4 -233.2004,0 -349.800497,-0.013 -4.9939,-7e-4 -9.9878,-0.1841 -14.9817,-0.2824 0,-0.8889 0,-1.7778 0.9373,-3.3314 128.708797,-0.6647 256.480397,-0.6647 384.251997,-0.6647 2e-4,-0.668 3e-4,-1.336 5e-4,-2.0039 -128.3966,0 -256.7933,0 -385.189797,0 0,-2.1336 0,-4.2672 0.9373,-7.2087 129.112797,-0.8136 257.288397,-0.8186 385.463997,-0.8279 3.9949,-3e-4 8.0007,0.1206 11.98,-0.1403 2.0066,-0.1315 3.9653,-0.9931 5.9456,-1.5246 -3.0652,-1.9176 -5.9397,-2.3524 -8.8141,-2.3525 -131.8377,-0.01 -263.6753,0.026 -395.512797,0.054 0,0 0,-1 0.9373,-1.4969 132.868597,-0.4948 264.799997,-0.4925 396.731397,-0.4929 2.9984,0 6.0112,0.1419 8.99,-0.1078 2.0133,-0.1689 3.9786,-0.9097 5.9654,-1.3946 -0.1017,-0.8215 -0.2034,-1.6429 -0.3052,-2.4643 -137.4395,-0.057 -274.8795,0.016 -412.318897,-0.043 0,-5.4013 0,-10.8025 0.9373,-17.1086 143.873997,-0.9092 286.810797,-0.9134 429.747597,-0.9196 3.3318,-1e-4 6.6755,0.1425 9.9909,-0.097 2.011,-0.1452 3.9781,-0.898 6.7451,-1.5662 -1.6119,-1.1177 -2.1331,-1.7957 -2.6553,-1.7965 -148.2552,-0.2015 -296.5105,-0.3562 -444.765597,-0.512 0,-2.1336 0,-4.2672 0.9373,-7.1957 155.228897,-0.795 309.520697,-0.795 463.812397,-0.795 -9e-4,-0.6698 0,-1.3396 0,-2.0093 -154.9157,0 -309.8313,0 -464.746897,0 0,-2.7778 0,-5.5556 0.9373,-9.1671 162.738197,-0.8338 324.539297,-0.8338 486.340297,-0.8338 0.021,-0.7026 0.042,-1.4052 0.062,-2.1078 -3.5451,0 -7.0902,0 -10.6353,0 -65.9593,-1e-4 -131.9186,-0.014 -197.8779,0 -92.9423,0.024 -185.884497,0.069 -278.826797,0.1058 0,-6.7269 0,-13.453904 0.9373,-21.090904 178.571697,-0.91 356.206197,-0.91 533.840697,-0.91 -8e-4,-0.6664 0,-1.3328 0,-1.9991 -178.2585,0 -356.5171,0 -534.775597,0 0,0 0,-1 0.9372,-1.5141 177.511597,-0.5235 354.086097,-0.5324 530.660597,-0.5458 3.9977,-3e-4 8.0097,0.1551 11.9897,-0.1235 7.2523,-0.5076 13.3719,-3.757 19.2065,-7.5424 -0.1328,-0.7581 -0.2656,-1.5162 -0.3984,-2.2742 -187.4652,0 -374.9305,0 -562.395597,0 0,-10.7228 0,-21.4456 0.9372,-33.0969 218.894697,-0.9354 436.852297,-0.942 654.809797,-0.9514 3.3324,-10e-5 6.6757,0.1193 9.9927,-0.1157 1.6705,-0.1183 3.2934,-0.908 4.9379,-1.394 -3.7324,-2.1107 -7.2695,-2.4554 -10.8066,-2.4556 -219.957,-0.013 -439.9141,0 -659.870997,0.014 0,-10.6667 0,-21.3334 0,-32 1365.333397,0 2730.666697,0 4095.062497,1.003 -266.5752,1.0052 -532.2134,1.0071 -797.8516,1.0114 -3.9995,0 -8.0088,-0.1307 -11.9944,0.1126 -1.9553,0.1193 -3.8669,0.9575 -5.7983,1.4703 3.9949,2.3709 7.8245,3.3833 11.72,3.8906 5.271,0.6864 10.9965,-0.096 15.7988,1.6998 7.4924,2.8018 14.9656,2.8414 23.3535,3.1631 5.6611,0.934 10.5862,1.4865 16.0098,2.5876 6.4192,4.8607 13.2763,2.2543 20.1201,3.7057 2.5398,1.4774 4.5554,2.9601 6.7114,3.2046 8.2454,0.9348 16.5357,2.0662 24.8096,2.07 232.6863,0.106 465.3723,0.083 698.0586,0.081 0,0 0,1 -0.9375,1.503 -227.7927,0.5051 -454.6485,0.506 -681.5042,0.5196 -3.3261,2e-4 -6.653,0.1463 -9.978,0.2623 -0.2898,0.01 -0.6709,0.2434 -0.8215,0.4886 -0.1187,0.1928 0.053,0.5643 0.2927,2.1944 6.2759,0.3209 12.8264,0.9468 19.3769,0.9486 224.524,0.064 449.0477,0.07 673.5716,0.083 0,3.4295 0,6.859 -0.9375,11.1535 -212.5506,0.8649 -424.1638,0.8649 -635.7774,0.8649 8e-4,0.6605 0,1.321 0,1.9816 212.2375,0 424.4753,0 636.7129,0 M 4087.5929,3895.9215 c 0.8545,0 1.7088,0 3.7356,-0.9338 4.2871,-4.8726 2.5816,-10.8099 2.5843,-16.2842 0.092,-187.0613 0.076,-374.1228 0.075,-561.1841 0,-2.6628 0.1396,-5.3391 -0.084,-7.9839 -0.1733,-2.051 -0.8132,-4.0625 -1.2456,-6.0915 -0.7803,0.042 -1.5605,0.084 -2.3406,0.1255 -0.1118,7.4511 -0.2236,14.9021 -1.3667,23.1286 -0.6259,1.1301 -1.7407,2.2351 -1.8,3.3945 -0.44,8.5809 -0.6694,17.1724 -1.6741,27.2759 -0.4824,4.5989 -1.3674,9.1966 -1.3835,13.7971 -0.1197,33.9449 -0.066,67.8907 -0.066,101.836 2e-4,135.4487 -0.026,270.8974 0.098,406.3462 0.01,5.5273 1.4299,11.0539 3.4675,16.5737 m -54.0005,-0.5452 c 6.7698,-3.0295 4.2698,-9.1872 4.2759,-14.0573 0.1436,-117.907 0.116,-235.8142 0.094,-353.7215 -8e-4,-3.1867 -0.2872,-6.3738 -0.4405,-9.5605 -0.6758,-0.156 -1.3515,-0.3123 -2.0276,-0.4683 -1.2214,3.5694 -2.4431,7.1389 -4.344,12.1489 -0.371,3.2867 -1.0651,6.573 -1.0666,9.8599 -0.052,114.8513 -0.061,229.7024 0.052,344.5537 0,3.8677 1.3128,7.7344 3.4563,11.2451 M 1591.8294,2048.4557 c 0.5118,-33.059 3.8794,-65.798 11.1745,-98.0785 38.3769,-169.8152 167.5575,-302.435 336.4026,-345.4347 4.1033,-1.0449 8.1297,-2.3924 12.9844,-3.8343 0,-4.1704 10e-5,-7.7846 10e-5,-11.3987 -6e-4,-48.6273 0.01,-97.2545 -0.025,-145.8818 0,-3.3193 -0.3433,-6.6382 -0.15,-11.7822 0.067,-2.9945 0.1915,-5.9888 0.1916,-8.9834 0.01,-198.4371 0.011,-396.8741 -0.011,-595.31122 -3e-4,-3.3183 -0.2892,-6.6367 -0.1474,-11.7834 0.017,-0.3327 0.048,-0.6654 0.048,-0.9981 0.03,-201.2809 0.063,-402.5618 0.05,-603.8428 -10e-5,-3.1956 -0.5543,-6.3912 -0.9625,-10.8025 -5.4229,0 -10.0027,0 -14.5824,0 -163.6244,1e-4 -327.2489,0 -490.8733,0.015 -3.9929,4e-4 -7.986,0.226 -13.8493,0.087 -1.3317,-0.027 -2.6634,-0.076 -3.9952,-0.076 -173.511,0 -347.0218,-0.051 -520.5326,0.091 -14.3008,0.012 -28.6439,0.8421 -42.8892,2.1463 -15.5541,1.424 -31.0172,3.8425 -47.9142,5.737 -0.9192,0.1449 -1.8384,0.2898 -4.3382,0.4127 -80.7854,12.468 -157.6347,37.2161 -229.2189,76.6726 -185.3685,102.173 -305.7512,255.6743 -360.0316,460.4172 -6.2068,23.4118 -9.2003,47.6756 -14.4789,72.968 -5.3553,35.3096 -7.1819,70.8276 -7.1497,106.5261 0.1495,165.53312 0.061,331.06662 0.088,496.59992 6e-4,3.9824 0.3518,7.965 0.2132,13.8181 -0.073,3.3291 -0.2109,6.6582 -0.2111,9.9873 -0.01,197.5233 -0.013,395.0465 0.014,592.5699 6e-4,3.9843 0.3589,7.9686 0.1751,13.7642 -0.072,2.3299 -0.2058,4.6595 -0.2059,6.9893 -0.01,199.5692 -0.013,399.138 0.017,598.7071 5e-4,3.3145 0.3954,6.6287 0.2313,11.8365 -0.074,1.6638 -0.212,3.3278 -0.2118,4.9917 0.017,174.9445 -0.2322,349.8903 0.372,524.833 0.091,26.2021 4.1857,52.3906 6.3042,79.8437 0.4438,1.5925 0.8877,3.1851 1.143,6.5234 3.0939,17.3604 5.5014,34.876 9.3842,52.0582 61.3504,271.4846 273.3256,483.5214 545.0965,545.1796 17.793,4.0367 36.0089,6.209 55.0876,9.9432 1.6582,0.1862 3.3163,0.3725 6.6359,1.0051 28.3541,4.1772 56.8541,6.374 85.5213,6.3745 170.7218,0 341.4438,0.022 512.1657,0 3.6467,-3e-4 7.2934,-0.3723 12.7299,-0.1841 0.9972,0.067 1.9943,0.1934 2.9915,0.1934 168.3273,0.017 336.6547,0.029 504.9819,0 2.5373,-5e-4 5.0745,-0.5301 8.3605,-0.896 0,-4.5469 -10e-5,-8.4922 -10e-5,-12.4375 -10e-5,-196.9929 0,-393.9861 -0.023,-590.979 -6e-4,-3.9863 -0.3395,-7.9724 -0.2046,-13.8216 0.066,-2.9963 0.1902,-5.9924 0.1903,-8.9887 0.01,-198.1927 0.011,-396.385 -0.017,-594.5777 -6e-4,-3.6494 -0.3824,-7.2988 -0.1861,-12.7375 0.068,-53.9927 0.1444,-107.9851 0.1629,-161.9778 6e-4,-1.5715 -0.6103,-3.1431 -0.9439,-4.7517 -3.5856,-0.9844 -6.758,-1.9177 -9.9621,-2.7261 -102.1396,-25.7629 -186.0238,-80.0249 -251.2676,-162.5381 -52.6706,-66.6118 -84.278,-142.3945 -94.4071,-226.8216 -2.2578,-18.8208 -2.8875,-37.8367 -3.9284,-58.6499 m 2050.6314,1684.1807 c 3.2354,-2.8569 6.4707,-5.7136 10.8992,-9.1489 55.082,-47.5405 101.5691,-102.416 140.0227,-164.1394 1.0445,-1.6763 1.7703,-3.5515 3.6585,-6.2366 31.4262,-51.0764 55.7343,-105.3776 73.1052,-162.7409 4.6221,-15.2622 8.0112,-30.898 12.7092,-47.6944 7.8938,-32.3344 12.7947,-65.1381 15.8806,-98.2634 4.1089,-44.0998 3.1892,-88.2734 2.8055,-134.3037 0.055,-85.7288 0.112,-171.4578 0.1462,-257.1865 5e-4,-1.6521 -0.2688,-3.3045 -0.1372,-6.8081 0.051,-87.7222 0.105,-175.4446 0.1355,-263.1668 7e-4,-1.6521 -0.2691,-3.3039 -0.1309,-6.8105 0.049,-83.7395 0.1004,-167.4788 0.1289,-251.2183 5e-4,-1.6518 -0.2705,-3.3035 -0.1301,-6.8052 0.052,-107.0651 0.1057,-214.1307 0.1372,-321.1959 5e-4,-1.6523 -0.2746,-3.3047 -0.1335,-6.806 0.048,-100.3966 0.099,-200.7932 0.1269,-301.1898 5e-4,-1.652 -0.2737,-3.3038 -0.1225,-6.8043 0.047,-92.3988 0.097,-184.7978 0.1235,-277.1966 5e-4,-1.6513 -0.2747,-3.3026 -0.1196,-6.802 0.047,-95.7263 0.097,-191.4525 0.123,-287.1788 5e-4,-1.6511 -0.2744,-3.3024 -0.1167,-6.8041 0.046,-57.2436 -0.091,-114.48832 0.2075,-171.73072 0.1809,-34.665 -1.6516,-69.1791 -6.0097,-103.5537 -0.4754,-3.7495 -2.2349,-7.3362 -3.5928,-12.7383 -1.4185,-10.9325 -2.2039,-21.9941 -4.4038,-32.767 -3.2866,-16.0934 -7.0659,-32.1262 -11.551,-47.9249 -6.023,-21.2166 -11.9417,-42.5527 -19.6922,-63.1655 -9.186,-24.4305 -19.4353,-48.5515 -30.7966,-72.0458 -9.3616,-19.3588 -21.0171,-37.6081 -31.9651,-57.6926 -34.9182,-56.9124 -76.9524,-108.0382 -126.5059,-152.7191 -137.1352,-123.6514 -298.1167,-188.4952 -482.8769,-189.1318 -339.9822,-1.1714 -679.9712,-0.3348 -1019.9575,-0.3347 -2.3333,0 -4.6787,-0.1405 -6.9964,0.051 -2.2024,0.1822 -4.3762,0.7148 -7.1479,1.1946 0,3.8332 -3e-4,7.1352 0,10.4371 0.01,90.6631 0.01,181.326 0.038,271.9891 0,3.3237 0.2625,6.6473 0.063,11.8221 -0.02,87.7354 -0.042,175.4707 -0.043,263.2061 0,1.6525 0.2522,3.3049 0.05,6.8066 -0.021,92.3957 -0.045,184.7914 -0.047,277.18712 0,1.653 0.2483,3.306 0.046,6.8092 -0.021,95.0584 -0.043,190.1167 -0.045,285.1751 0,1.6532 0.2478,3.3064 0.051,6.8131 -0.026,84.1655 -0.058,168.3309 -0.05,252.4964 2e-4,2.2769 0.4399,4.5536 0.7168,7.2364 3.0036,0.9089 5.8227,1.785 8.655,2.6153 12.6941,3.7212 25.5076,7.0812 38.0576,11.2367 13.5352,4.4816 26.8255,9.7031 41.2354,15.5683 3.5923,1.7318 7.195,3.4418 10.7749,5.1987 95.9055,47.062 167.6306,118.4125 215.0556,214.155 14.8228,29.9242 25.3318,61.4119 33.8223,95.1824 23.8679,108.8341 12.5159,213.3839 -38.7402,314.3852 -3.6995,6.6731 -7.3213,13.3911 -11.1123,20.0117 -17.0638,29.7984 -37.4397,57.2054 -60.6448,82.4532 -18.4912,20.1189 -38.7666,38.375 -60.6394,54.7788 -33.3364,25.0007 -68.9329,46.1882 -108.0664,60.7304 -20.1675,7.4947 -40.9492,13.3767 -61.5869,19.5408 -5.3418,1.5957 -8.0996,3.853 -7.597,9.6118 0.3755,4.3023 0.3145,8.6426 0.1402,14.8196 -0.022,87.386 -0.046,174.7722 -0.051,262.1582 0,1.3215 0.233,2.6431 0.054,5.8223 -0.021,86.0586 -0.044,172.1169 -0.048,258.1755 0,1.3215 0.2334,2.6433 0.059,5.8235 -0.027,76.7275 -0.056,153.4551 -0.065,230.1826 0,1.3213 0.2329,2.6426 0.066,5.8233 -0.026,69.3942 -0.054,138.7883 -0.062,208.1826 -2e-4,1.3208 0.2334,2.6416 0.071,5.8218 -0.042,57.3957 -0.088,114.7915 -0.1079,172.1872 -7e-4,1.9834 0.2549,3.9666 0.1082,7.8106 -0.048,68.986 -0.107,137.9724 -0.1018,206.9585 2e-4,2.8693 0.604,5.7385 1.0446,9.6574 5.428,0 10.0391,3e-4 14.6502,3e-4 85.6509,2e-4 171.3018,0 256.9526,0 249.6206,0 499.241,-0.044 748.8616,0.051 34.7007,0.013 69.2607,-1.4172 103.6856,-6.082 133.7106,-18.1177 252.9521,-69.7651 358.1098,-154.156 2.5791,-2.0698 4.874,-4.4936 7.6387,-6.7703 0,0 0.028,-0.3364 1.1789,-0.854 M 1925.684,2013.0054 c -0.1096,-31.6168 -0.2183,-63.2335 -0.3461,-94.8502 0,-0.2779 -0.2046,-0.6109 -0.4136,-0.8164 -0.2277,-0.224 -0.5721,-0.3291 -0.8657,-0.4861 -12.0936,5.6253 -192.9269,128.9568 -197.093,134.4209 24.041,19.0796 190.3218,130.2632 198.7184,132.4436 0,-56.4146 0,-112.5633 0,-170.7118 m 292.2932,145.9166 c 52.8135,-35.8186 105.6272,-71.637 159.8582,-108.4167 -66.9781,-45.4226 -132.6175,-89.9373 -198.7039,-134.7553 -2.2593,11.4755 -1.9067,260.4098 0.4209,269.1135 12.6201,-8.5057 24.9368,-16.807 38.4248,-25.9415 m 1860.0041,1272.0836 c 0,-6.6653 -2e-4,-13.3306 -2e-4,-19.9958 0,-15.0459 2e-4,-15.0459 -3.916,-21.1114 0,6.4964 0,11.0804 0,15.6643 0,157.9673 0,315.9346 0,473.9019 0,2.3328 -0.144,4.6821 0.086,6.9934 0.2034,2.042 0.835,4.0415 1.4244,6.7302 1.1313,-1.3684 1.8681,-1.8432 1.8689,-2.3191 0.2136,-152.6213 0.3759,-305.2424 0.5397,-459.8635 m -15.2905,12.7192 c -0.8366,1.1358 -2.2998,2.2205 -2.3972,3.4165 -0.3506,4.3086 -0.2964,8.6546 -0.2966,12.9866 -0.01,139.9888 -0.01,279.9773 0,419.9661 3e-4,2.666 -0.1423,5.3555 0.1682,7.9888 0.1827,1.5505 1.1285,3.0109 1.731,4.5119 0.7327,-0.1079 1.4651,-0.2158 2.1977,-0.324 0,-4.2421 3e-4,-8.4841 3e-4,-12.7263 0,-140.9885 0,-281.977 -0.028,-422.9656 0,-3.9782 -0.4109,-7.9565 -1.3711,-12.854 m -42.6704,161.2806 c 0,-7.3311 3e-4,-14.6621 3e-4,-21.9932 0,-17.0615 -3e-4,-17.0615 -4.0181,-23.0461 0,5.8159 -3e-4,9.7202 -3e-4,13.6242 5e-4,102.3015 0,204.6033 0,306.9048 0,2.3325 -0.1253,4.6821 0.1167,6.9917 0.1792,1.7097 0.8601,3.367 1.4775,5.6348 1.096,-1.3032 1.8421,-1.7761 1.8433,-2.251 0.2263,-94.6218 0.4004,-189.2434 0.5759,-285.8652 m -29.9902,192 c 0,28.6176 -0.037,57.2353 0.057,85.8525 0.011,3.2813 -1.0003,7.0398 3.9226,9.5195 0,-4.2263 2e-4,-8.4526 2e-4,-12.6789 0,-83.8562 5e-4,-167.7124 0,-251.5686 0,-2.6619 0.1321,-5.3421 -0.1397,-7.9785 -0.1684,-1.6353 -0.9836,-3.2044 -1.5088,-4.8033 -0.7761,0.1001 -1.5522,0.2 -2.3283,0.3001 0,59.7856 0,119.5715 0,181.3572 m -2.0586,-32 c 0,-32.3213 0,-64.6424 0,-96.9637 0,-11.9956 0.053,-23.9917 -0.083,-35.9858 -0.025,-2.2151 -0.8409,-4.4214 -1.2915,-6.6316 -1.761,1.2957 -2.3304,2.2149 -2.3313,3.1348 -0.097,85.9655 -0.1553,171.9309 -0.1824,257.8965 -5e-4,1.6438 0.3659,3.2912 0.622,4.9274 0.044,0.2825 0.3499,0.5916 0.617,0.7518 0.2497,0.1499 0.6086,0.1186 0.9214,0.1689 0.4038,-0.4634 1.1592,-0.9248 1.1616,-1.3904 0.2263,-41.3025 0.3948,-82.6052 0.5674,-125.9079 m 94.0097,-216 c 0,-29.9937 0.03,-59.9876 -0.01,-89.9812 -0.039,-29.802 0.1745,-59.6094 -1.3767,-89.3821 0,173.6924 0,347.385 0,521.0774 0.4619,0 0.9235,0 1.3854,2e-4 0,-113.2383 0,-226.4763 0,-341.7143 m -113.9799,325.8513 c 0.4262,5.8887 -1.033,12.0539 1.2014,17.6777 0.9267,-0.052 1.8535,-0.104 2.7803,-0.156 0,-4.2231 0,-8.446 0,-12.6692 4e-4,-69.8564 0,-139.7129 0,-209.5693 -5e-4,-3.9915 0.098,-7.9917 -0.147,-11.9697 -0.1,-1.6211 -0.9924,-3.1932 -1.5241,-4.7876 -0.7698,0.101 -1.5393,0.2024 -2.3089,0.3037 0,73.071 0,146.1423 3e-4,221.1704 m 99.9858,-387.8513 c 0,134.6064 0,269.2131 0,403.8195 0.4419,0 0.884,0 1.3259,-0.01 0,-156.5533 0,-313.1067 0,-469.6599 -0.4419,0 -0.884,0 -1.3259,0 0,21.2834 0,42.5666 0,65.8501 m -118.0029,389.7612 c -0.1926,-61.9663 -0.3828,-123.9326 -0.6345,-185.8987 0,-0.3943 -0.8545,-0.7849 -2.6744,-2.3525 -0.2436,4.7705 -0.5964,8.5122 -0.6005,12.2544 -0.041,37.6572 -0.026,75.3144 -0.026,112.9716 2e-4,22.9944 -0.046,45.9888 0.056,68.9827 0.015,3.3059 -0.9428,7.0481 3.8789,9.6089 0,-4.5571 0,-9.114 8e-4,-15.5664 m -9.9287,-89.7612 c 0,7.6667 -3e-4,15.3332 2e-4,23 0,24.3332 -0.043,48.667 0.06,72.9997 0.014,3.2049 -1.0637,6.9436 2.499,10.1362 0.5986,-1.8032 1.1709,-2.7233 1.1724,-3.6445 0.098,-61.9975 0.1552,-123.9951 0.1804,-185.9927 7e-4,-1.6442 -0.3655,-3.2927 -0.6223,-4.9294 -0.044,-0.2813 -0.3548,-0.5894 -0.6233,-0.7471 -0.251,-0.1479 -0.6094,-0.113 -0.9226,-0.1604 -0.4065,0.4615 -1.1656,0.9199 -1.1692,1.3848 -0.2305,28.6509 -0.3994,57.302 -0.5747,87.9534 m 73.9209,50 c 0,-87.295 0,-174.5899 0,-261.8846 -0.441,0 -0.8819,0.01 -1.3228,0.01 0,105.2397 0,210.4795 0,315.7192 0.4409,0 0.8816,0 1.3225,0 0,-17.2822 0,-34.5647 3e-4,-53.8469 m -37.9627,-24 c 0,25.946 0,51.8921 0,77.8379 0.4324,-0.01 0.8648,-0.017 1.2971,-0.025 0,-82.5437 0,-165.0874 0,-247.6309 -0.4323,5e-4 -0.8647,0 -1.2971,0 0,55.9388 0,111.8772 0,169.816 m -53.989,-12 c 0,14.998 0,29.9963 0,44.9943 0,14.9498 0,29.8995 0,44.8492 0.4314,-0.014 0.863,-0.027 1.2944,-0.04 0,-54.5505 0,-109.1013 0,-163.6518 -0.4314,0 -0.863,0 -1.2944,-0.01 0,23.9512 0,47.9024 0,73.8536 m -44.0049,67.9428 c 0,-28.0315 0,-56.063 0,-84.0944 -2.9458,13.2126 -2.4372,99.3405 0,107.7014 0,-8.4139 0,-15.0269 0,-23.607 m -28.0344,-51.1233 c -0.1892,-0.9426 -0.3784,-1.8852 -0.5676,-2.8278 -0.2508,0.012 -0.5017,0.024 -0.7525,0.035 0,25.2902 0,50.5808 0,75.8711 0.449,0 0.8982,0 1.3472,0 0,-23.898 0,-47.7959 -0.027,-73.0833 M 3260.9606,5.022376 c 0,0 0.065,-0.015 0,0 z"
       id="path2" />
    <path
       fill="#4791ce"
       opacity="1"
       stroke="none"
       d="m 1433.9498,200.68097 c 3.9929,-0.12059 7.986,-0.34622 11.9789,-0.34665 163.6244,-0.0178 327.2489,-0.0154 490.8733,-0.0155 4.5797,-2e-5 9.1595,1e-5 14.5824,1e-5 0.4082,4.41127 0.9624,7.60689 0.9625,10.80255 0.013,201.28093 -0.02,402.56185 -0.05,603.84279 0,0.3327 -0.031,0.66541 -1.1278,1.90155 -168.0579,0.89557 -335.0366,0.8869 -502.0153,0.88697 -2.6648,0 -5.3294,0.11163 -7.9943,0.16284 -4.0518,0.0779 -6.1454,2.30188 -6.3754,6.18316 -0.2362,3.98786 -0.2633,7.99219 -0.2636,11.98932 -0.012,192.30869 -0.01,384.61759 -0.023,576.92629 -3e-4,4.9957 -0.1955,9.9913 -1.2551,14.9866 -198.2474,-10e-4 -395.5397,0 -592.83185,-0.01 -15.99969,-9e-4 -16.40027,-0.3873 -16.40051,-16.1157 -0.003,-198.292 0.01,-396.5839 0.94488,-595.01127 6.91748,-0.25799 12.909,-0.48706 18.90052,-0.48767 190.51596,-0.0189 381.03206,-0.0139 571.54806,-0.0178 20.364,-4.3e-4 18.818,0.95142 18.8201,-19.15625 0.02,-193.51367 0.014,-387.02734 10e-5,-580.541 -3e-4,-5.32718 -0.1781,-10.65434 -0.2732,-15.98152 z"
       id="path70" />
    <path
       fill="#77b2f2"
       opacity="1"
       stroke="none"
       d="m 2150.7251,1339.9657 c -0.1321,-1.6532 -0.3799,-3.3064 -0.3799,-4.9596 0,-95.0583 0.024,-190.1167 1.103,-286.1011 19.6761,-0.2533 38.2896,0.59 56.9126,1.0546 32.9429,0.8217 65.8914,1.4123 98.8377,2.1042 0.9988,0.021 1.9966,0.098 2.9951,0.1396 30.2412,1.2663 60.4753,2.744 90.7256,3.7359 29.605,0.9709 59.2263,1.4458 88.8403,2.1409 0.6658,0.016 1.3311,0.065 1.9966,0.097 25.9092,1.2694 51.814,2.6418 77.729,3.7735 18.6111,0.8129 37.2346,1.3672 55.856,1.9231 25.6135,0.7649 51.2287,1.4783 76.8459,2.1115 30.6123,0.7566 61.2271,1.4051 91.8408,2.1036 0.6658,0.015 1.3306,0.074 1.9961,0.1039 28.242,1.2695 56.4746,2.8208 84.7281,3.7317 31.6027,1.0189 63.2243,1.4569 94.8376,2.1501 0.6658,0.015 1.3313,0.059 1.9968,0.092 25.576,1.2678 51.1468,2.6509 76.7295,3.7659 19.2769,0.8402 38.5681,1.353 57.854,1.9825 21.6165,0.7055 43.2346,1.3623 64.8511,2.07 18.9526,0.6205 37.9036,1.7903 56.8564,1.8132 33.3074,0.04 66.5105,1.7274 99.7239,4.0313 19.9019,1.3804 39.8936,1.4633 59.845,2.129 19.9514,0.6658 39.9023,1.3398 59.854,1.9941 20.6177,0.6762 41.2358,1.3257 61.8535,1.9997 20.2847,0.6629 40.5701,1.3158 60.8533,2.0196 37.571,1.3036 75.1404,2.6652 112.7117,3.9553 21.2822,0.7309 42.5683,1.3538 63.8515,2.0511 19.2859,0.6318 38.5674,1.4187 57.8565,1.9213 30.2778,0.7895 60.5603,1.3976 90.8408,2.0824 0.1462,1.6512 0.4211,3.3024 0.4206,4.9535 -0.026,95.7264 -0.076,191.4525 -1.0588,287.9823 -7.2219,0.2299 -13.4998,-0.6937 -19.7961,-0.8441 -12.9903,-0.3103 -26.0022,0.1151 -38.9847,-0.3408 -30.2541,-1.0625 -60.4895,-2.6805 -90.7456,-3.6729 -29.6108,-0.971 -59.238,-1.4453 -88.8579,-2.1405 -0.6658,-0.016 -1.3313,-0.064 -1.9968,-0.097 -25.9143,-1.2696 -51.8245,-2.6417 -77.7446,-3.7738 -18.6148,-0.813 -37.2422,-1.3609 -55.867,-1.9267 -24.9521,-0.7581 -49.9057,-1.4835 -74.8618,-2.1062 -30.6179,-0.7642 -61.239,-1.4078 -91.8586,-2.1069 -0.6661,-0.015 -1.3306,-0.076 -1.9964,-0.1055 -28.914,-1.2686 -57.8196,-2.7951 -86.7441,-3.7336 -30.9431,-1.004 -61.9038,-1.453 -92.857,-2.1499 -0.9987,-0.023 -1.9956,-0.1172 -2.9941,-0.1636 -26.915,-1.2518 -53.8269,-2.5754 -80.7463,-3.7259 -17.9502,-0.7673 -35.9092,-1.3467 -53.8677,-1.9029 -24.6187,-0.7624 -49.2393,-1.4961 -73.8621,-2.1097 -30.9509,-0.7714 -61.9055,-1.4082 -92.8584,-2.1065 -0.666,-0.015 -1.3308,-0.076 -1.9965,-0.1033 -31.2469,-1.2703 -62.4876,-2.7222 -93.7422,-3.7544 -28.6119,-0.9449 -57.2388,-1.435 -85.8589,-2.1309 -0.9988,-0.024 -1.9961,-0.1119 -2.9944,-0.1591 -26.5815,-1.2546 -53.1597,-2.5935 -79.7461,-3.7315 -18.283,-0.7826 -36.5757,-1.347 -54.8677,-1.8998 -25.2854,-0.7645 -50.5759,-1.358 -75.8601,-2.1549 -19.624,-0.6184 -39.2451,-1.3591 -58.8618,-2.1829 -28.5835,-1.2002 -57.1528,-2.8069 -85.7449,-3.7192 -31.9424,-1.0193 -63.9033,-1.4552 -95.8562,-2.1505 -0.9988,-0.022 -1.9963,-0.1094 -2.9948,-0.1542 -28.2471,-1.2694 -56.4944,-2.5372 -84.7415,-3.8053 z"
       id="path72" />
    <path
       fill="#7cb6f7"
       opacity="1"
       stroke="none"
       d="m 3901.4194,1105.0573 c -30.4323,0.2404 -60.7148,-0.3677 -90.9926,-1.1572 -19.2891,-0.5026 -38.5706,-1.2895 -57.8565,-1.9213 -21.2832,-0.6973 -42.5693,-1.3202 -63.8515,-2.0511 -37.5713,-1.2901 -75.1407,-2.6517 -112.7117,-3.9553 -20.2832,-0.7038 -40.5686,-1.3567 -60.8533,-2.0196 -20.6177,-0.674 -41.2358,-1.3235 -61.8535,-1.9997 -19.9517,-0.6543 -39.9026,-1.3283 -59.854,-1.9941 -19.9514,-0.6657 -39.9431,-0.7486 -59.845,-2.129 -33.2134,-2.3039 -66.4165,-3.991 -99.7239,-4.0313 -18.9528,-0.023 -37.9038,-1.1927 -56.8564,-1.8132 -21.6165,-0.7077 -43.2346,-1.3645 -64.8511,-2.07 -19.2859,-0.6295 -38.5771,-1.1423 -57.854,-1.9825 -25.5827,-1.115 -51.1535,-2.4981 -76.7295,-3.7659 -0.6655,-0.033 -1.331,-0.078 -1.9968,-0.092 -31.6133,-0.6932 -63.2349,-1.1312 -94.8376,-2.1501 -28.2535,-0.9109 -56.4861,-2.4622 -84.7281,-3.7317 -0.6655,-0.03 -1.3303,-0.089 -1.9961,-0.1039 -30.6137,-0.6985 -61.2285,-1.347 -91.8408,-2.1036 -25.6172,-0.6332 -51.2324,-1.3466 -76.8459,-2.1115 -18.6214,-0.5559 -37.2449,-1.1102 -55.856,-1.9231 -25.915,-1.1317 -51.8198,-2.5041 -77.729,-3.7735 -0.6655,-0.033 -1.3308,-0.082 -1.9966,-0.097 -29.614,-0.6951 -59.2353,-1.17 -88.8403,-2.1409 -30.2503,-0.9919 -60.4844,-2.4696 -90.7256,-3.7359 -0.9985,-0.042 -1.9963,-0.1186 -2.9951,-0.1396 -32.9463,-0.6919 -65.8948,-1.2825 -98.8377,-2.1042 -18.623,-0.4646 -37.2365,-1.3079 -56.7451,-1.9796 -1.0232,-1.6521 -1.2715,-3.3052 -1.2715,-4.9581 0,-92.39574 0.026,-184.79143 1.1065,-278.11309 37.9968,-0.23211 74.9348,0.45838 111.8723,1.16626 1.6628,0.0319 3.3213,0.23615 4.9836,0.3346 20.2447,1.19964 40.4764,2.76861 60.7378,3.50079 28.9302,1.04535 57.8826,1.47669 86.8255,2.17322 0.6657,0.0161 1.3308,0.0676 1.9961,0.10016 25.905,1.26752 51.8056,2.63659 77.7165,3.76788 18.6084,0.81238 37.2283,1.37183 55.8467,1.92755 25.6094,0.76465 51.2207,1.46704 76.8335,2.10822 29.9412,0.74957 59.8843,1.40423 89.8267,2.10327 0.6657,0.0156 1.3303,0.0762 1.9958,0.10571 28.5703,1.26837 57.1318,2.80597 85.7134,3.73035 31.2644,1.01117 62.5476,1.45453 93.8225,2.15088 0.9985,0.0222 1.9951,0.11389 2.9934,0.1593 27.5715,1.25494 55.1333,2.81427 82.7168,3.68201 32.5972,1.02539 65.2129,1.45227 97.8206,2.14318 0.9987,0.0211 1.996,0.0969 2.9946,0.13825 30.5693,1.26727 61.1321,2.73608 91.7099,3.74127 29.2671,0.96198 58.5501,1.44098 87.8262,2.13794 0.9986,0.0237 1.9951,0.11603 2.9932,0.16364 26.239,1.25171 52.4741,2.58416 78.718,3.7232 17.9434,0.77887 35.8965,1.34644 53.8484,1.90271 24.6099,0.76276 49.2209,1.4989 73.8349,2.11224 30.94,0.77118 61.8831,1.40632 92.825,2.10328 0.6658,0.0149 1.3308,0.0685 1.9961,0.10095 25.905,1.26703 51.8057,2.63513 77.7165,3.76636 18.6082,0.81231 37.2283,1.37329 55.8465,1.92901 25.6094,0.76447 51.2207,1.46662 76.8335,2.10626 29.9411,0.74775 59.8845,1.3946 89.8266,2.10633 1.6612,0.0394 3.3772,0.0422 4.9661,0.45398 6.1816,1.60235 11.8752,0.4599 17.283,-2.69843 1.164,3.66217 2.9235,7.24884 3.3989,10.99835 4.3581,34.37458 6.1907,68.88874 6.0098,103.55372 -0.2986,57.24237 -0.1612,114.48705 -0.3597,172.65605 z"
       id="path74" />
    <path
       fill="#71aeee"
       opacity="1"
       stroke="none"
       d="m 2150.5605,1340.8925 c 28.4117,0.3413 56.659,1.6091 84.9061,2.8785 0.9985,0.045 1.996,0.1324 2.9948,0.1542 31.9529,0.6953 63.9138,1.1312 95.8562,2.1505 28.5921,0.9123 57.1614,2.519 85.7449,3.7192 19.6167,0.8238 39.2378,1.5645 58.8618,2.1829 25.2842,0.7969 50.5747,1.3904 75.8601,2.1549 18.292,0.5528 36.5847,1.1172 54.8677,1.8998 26.5864,1.138 53.1646,2.4769 79.7461,3.7315 0.9983,0.047 1.9956,0.1348 2.9944,0.1591 28.6201,0.6959 57.247,1.186 85.8589,2.1309 31.2546,1.0322 62.4953,2.4841 93.7422,3.7544 0.6657,0.027 1.3305,0.088 1.9965,0.1033 30.9529,0.6983 61.9075,1.3351 92.8584,2.1065 24.6228,0.6136 49.2434,1.3473 73.8621,2.1097 17.9585,0.5562 35.9175,1.1356 53.8677,1.9029 26.9194,1.1505 53.8313,2.4741 80.7463,3.7259 0.9985,0.046 1.9954,0.1411 2.9941,0.1636 30.9532,0.6969 61.9139,1.1459 92.857,2.1499 28.9245,0.9385 57.8301,2.465 86.7441,3.7336 0.6658,0.029 1.3303,0.09 1.9964,0.1055 30.6196,0.6991 61.2407,1.3427 91.8586,2.1069 24.9561,0.6227 49.9097,1.3481 74.8618,2.1062 18.6248,0.5658 37.2522,1.1137 55.867,1.9267 25.9201,1.1321 51.8303,2.5042 77.7446,3.7738 0.6655,0.033 1.331,0.082 1.9968,0.097 29.6199,0.6952 59.2471,1.1695 88.8579,2.1405 30.2561,0.9924 60.4915,2.6104 90.7456,3.6729 12.9825,0.4559 25.9944,0.03 38.9847,0.3408 6.2963,0.1504 12.5742,1.074 19.6455,1.7681 0.9314,1.772 1.2065,3.4232 1.206,5.0746 -0.027,92.3988 -0.076,184.7977 -1.0569,278.0008 -4.5529,0.2653 -8.1609,-0.6372 -11.7944,-0.754 -25.2744,-0.8125 -50.5525,-1.5188 -75.8323,-2.1493 -30.2741,-0.7551 -60.5508,-1.4006 -90.8264,-2.0963 -0.6658,-0.015 -1.3308,-0.067 -1.9961,-0.099 -26.5713,-1.2686 -53.1384,-2.6302 -79.7151,-3.7733 -18.6089,-0.8005 -37.2282,-1.3825 -55.8469,-1.9192 -26.9419,-0.7767 -53.8896,-1.3393 -80.8298,-2.1555 -19.2849,-0.5842 -38.565,-1.3623 -57.8413,-2.1828 -28.24,-1.2022 -56.4661,-2.8025 -84.7146,-3.7131 -31.5977,-1.0186 -63.2139,-1.456 -94.8221,-2.1517 -0.9985,-0.022 -1.9953,-0.1111 -2.9934,-0.1576 -26.905,-1.2558 -53.8,-2.8302 -80.718,-3.6828 -32.5967,-1.0324 -65.2126,-1.454 -97.8203,-2.1442 -0.9988,-0.021 -1.9961,-0.095 -2.9946,-0.1378 -29.5699,-1.2677 -59.1319,-2.7704 -88.7117,-3.7356 -30.2659,-0.9877 -60.5488,-1.4475 -90.8245,-2.1438 -0.9985,-0.023 -1.9948,-0.1151 -2.9931,-0.1621 -26.572,-1.2533 -53.1404,-2.5902 -79.7173,-3.7272 -18.2764,-0.7821 -36.5628,-1.3385 -54.8479,-1.9015 -24.6099,-0.7578 -49.2207,-1.4988 -73.8347,-2.1123 -30.94,-0.7711 -61.8831,-1.4052 -92.825,-2.1047 -0.998,-0.023 -1.9944,-0.1297 -2.9922,-0.1755 -27.2387,-1.2476 -54.4677,-2.7951 -81.7185,-3.6593 -32.2639,-1.0233 -64.5466,-1.4556 -96.821,-2.1492 -0.9986,-0.021 -1.9961,-0.1022 -2.9944,-0.1454 -29.2368,-1.2624 -58.4727,-2.549 -87.7107,-3.7773 -25.5867,-1.0748 -51.1716,-2.226 -76.7686,-2.9638 -3.6767,-0.106 -7.415,1.922 -11.125,2.9624 -13.3969,-4.8988 -26.6872,-10.1204 -40.2224,-14.6019 -12.55,-4.1556 -25.3635,-7.5156 -38.0576,-11.2367 -2.8323,-0.8304 -5.6513,-1.7065 -8.655,-2.6154 -0.2769,-2.6827 -0.7166,-4.9595 -0.7168,-7.2363 -0.01,-84.1656 0.023,-168.331 0.2143,-253.4232 z"
       id="path76" />
    <path
       fill="#5c9fde"
       opacity="1"
       stroke="none"
       d="m 2150.7229,2787.9629 c -0.124,-1.3218 -0.3569,-2.6433 -0.3569,-3.9649 0.01,-87.3859 0.029,-174.7722 1.093,-263.0849 13.9963,-0.292 26.9446,0.5168 39.9055,0.9414 25.2783,0.8288 50.562,1.4985 75.8462,2.1309 30.279,0.757 60.561,1.4055 90.8415,2.1042 0.6658,0.015 1.3306,0.075 1.9961,0.1047 28.5752,1.2693 57.1416,2.8084 85.7281,3.7332 31.2697,1.0112 62.5583,1.4536 93.8386,2.1499 0.9988,0.022 1.9956,0.113 2.9939,0.1589 27.2429,1.2549 54.4831,2.5733 81.7297,3.7376 17.6143,0.7527 35.2361,1.3425 52.8582,1.8916 24.6137,0.7671 49.2292,1.5019 73.8474,2.1157 30.9451,0.7715 61.8938,1.406 92.8408,2.1028 0.666,0.015 1.3308,0.068 1.9963,0.1006 26.2427,1.2693 52.4808,2.6425 78.7293,3.7719 18.9446,0.8155 37.9014,1.3648 56.856,1.9263 25.6137,0.759 51.2297,1.4566 76.8464,2.1065 29.2798,0.7429 58.5618,1.4038 87.8428,2.1035 0.6657,0.016 1.3305,0.079 1.9961,0.1072 30.2412,1.2675 60.4755,2.747 90.7258,3.7392 29.6052,0.971 59.2265,1.4448 88.8408,2.1394 0.6658,0.016 1.3311,0.063 1.9966,0.096 25.5762,1.2659 51.147,2.6597 76.7302,3.7569 19.9429,0.8552 39.9016,1.8716 59.8533,1.8701 30.9844,0 61.8486,1.6057 92.7309,3.9785 20.2171,1.553 40.5567,1.5091 60.8413,2.1853 19.6185,0.6543 39.2361,1.3272 58.8553,1.9678 21.2834,0.6948 42.5686,1.3477 63.852,2.0449 19.2859,0.6321 38.5672,1.4522 57.8567,1.9158 33.6099,0.8083 67.2249,1.4067 100.8377,2.093 0.1438,1.6521 0.4135,3.304 0.4128,4.9561 -0.031,87.7221 -0.084,175.4445 -1.1206,264.0949 -7.9414,0.3101 -14.8865,-0.6333 -21.8557,-0.8681 -25.2808,-0.8521 -50.5679,-1.5227 -75.8555,-2.1553 -30.2829,-0.7573 -60.5688,-1.405 -90.8535,-2.103 -0.666,-0.015 -1.3308,-0.074 -1.9966,-0.1033 -28.5791,-1.27 -57.1492,-2.8103 -85.7395,-3.7354 -31.2739,-1.0119 -62.5666,-1.4538 -93.8511,-2.1501 -0.9987,-0.022 -1.9961,-0.1106 -2.9943,-0.1565 -27.2466,-1.2554 -54.49,-2.5754 -81.7405,-3.74 -17.6165,-0.7534 -35.2407,-1.3511 -52.8653,-1.8901 -25.2836,-0.7737 -50.5693,-1.4886 -75.8569,-2.1216 -30.2829,-0.7581 -60.5688,-1.4019 -90.8535,-2.1021 -0.9983,-0.023 -1.9946,-0.1325 -2.9929,-0.1772 -27.9136,-1.2471 -55.8184,-2.769 -83.7432,-3.6611 -31.6074,-1.0093 -63.2331,-1.4495 -94.8506,-2.1546 -1.6631,-0.037 -3.321,-0.2527 -4.9836,-0.3518 -19.9182,-1.1931 -39.8228,-2.7517 -59.7581,-3.4792 -28.6057,-1.044 -57.2336,-1.4803 -85.852,-2.1792 -0.666,-0.016 -1.3306,-0.078 -1.9964,-0.1053 -30.9118,-1.2692 -61.8173,-2.7294 -92.7375,-3.7482 -28.9429,-0.9539 -57.9014,-1.4383 -86.853,-2.1351 -0.9988,-0.024 -1.9956,-0.1157 -2.9942,-0.1626 -26.5801,-1.2529 -53.1567,-2.5888 -79.7417,-3.726 -18.2817,-0.782 -36.574,-1.3416 -54.8645,-1.9046 -24.6174,-0.7575 -49.2361,-1.4958 -73.8574,-2.1093 -30.9492,-0.7713 -61.9019,-1.4078 -92.853,-2.1058 -0.666,-0.015 -1.3308,-0.071 -1.9966,-0.1035 -26.2461,-1.2676 -52.488,-2.6382 -78.74,-3.7668 -18.9473,-0.8147 -37.9053,-1.4021 -56.8633,-1.9219 -28.6162,-0.7844 -57.2395,-1.3096 -85.8528,-2.1755 -11.2924,-0.3418 -22.5664,-1.3033 -33.8486,-1.9822 z"
       id="path78" />
    <path
       fill="#86bcfe"
       opacity="1"
       stroke="none"
       d="m 2150.7241,493.97098 c -0.1401,-3.3237 -0.4016,-6.64734 -0.4026,-9.97107 -0.029,-90.66303 -0.032,-181.32602 -0.038,-271.98903 -2e-4,-3.30194 0,-6.6039 0,-10.4371 2.7717,-0.47985 4.9456,-1.01239 7.148,-1.19463 2.3176,-0.19179 4.663,-0.0513 6.9963,-0.0513 339.9863,-1.4e-4 679.9753,-0.83673 1019.9575,0.33467 184.7603,0.63658 345.7417,65.48042 482.877,189.13182 49.5534,44.68094 91.5876,95.80667 126.2136,153.97263 -4.0022,6.23285 -9.291,6.45294 -14.7449,5.91607 -3.9739,-0.39099 -7.9119,-1.37481 -11.8855,-1.50689 -24.6128,-0.81781 -49.2295,-1.5437 -73.8486,-2.15741 -30.9463,-0.77149 -61.896,-1.40546 -92.8443,-2.10181 -0.666,-0.0149 -1.331,-0.0677 -1.9965,-0.0995 -26.5767,-1.26806 -53.1497,-2.62872 -79.7317,-3.77203 -18.6126,-0.80066 -37.2361,-1.37329 -55.8582,-1.92413 -25.9477,-0.76758 -51.8984,-1.45313 -77.8491,-2.11237 -28.9478,-0.73535 -57.8975,-1.40143 -86.8462,-2.10095 -0.6658,-0.016 -1.3306,-0.0789 -1.9961,-0.10681 -30.2424,-1.26801 -60.4778,-2.74817 -90.7292,-3.74042 -29.6062,-0.97113 -59.2288,-1.44379 -88.844,-2.14099 -0.9986,-0.0235 -1.9954,-0.11823 -2.9937,-0.16461 -26.9109,-1.25141 -53.8183,-2.57459 -80.7336,-3.72455 -17.9475,-0.76697 -35.9033,-1.35846 -53.8594,-1.89972 -25.6145,-0.77216 -51.2312,-1.47614 -76.8491,-2.11798 -29.9473,-0.75043 -59.8967,-1.40161 -89.8452,-2.10279 -0.9983,-0.0234 -1.9942,-0.13482 -2.9925,-0.18279 -25.9116,-1.24427 -51.822,-2.5141 -77.7358,-3.7038 -5.322,-0.24433 -10.6641,-0.0524 -15.9863,-0.29279 -26.5799,-1.20031 -53.1526,-2.5621 -79.7351,-3.69882 -18.2803,-0.78168 -36.5704,-1.34244 -54.8592,-1.90527 -24.615,-0.7576 -49.2314,-1.48071 -73.8501,-2.11151 -29.6135,-0.75876 -59.2302,-1.404 -88.8454,-2.1052 -0.9981,-0.0236 -1.9942,-0.13769 -2.9922,-0.18274 -27.5779,-1.24444 -55.1463,-2.77398 -82.7359,-3.65127 -31.9377,-1.01557 -63.8933,-1.45603 -95.8413,-2.15149 -0.9985,-0.0218 -1.9958,-0.10901 -2.9941,-0.15485 -27.5762,-1.26703 -55.1521,-2.53271 -82.7283,-3.79858 z"
       id="path80" />
    <path
       fill="#579cda"
       opacity="1"
       stroke="none"
       d="m 2150.5713,2788.8916 c 11.4338,-0.2498 22.7078,0.7117 34.0002,1.0535 28.6133,0.8659 57.2366,1.3911 85.8528,2.1755 18.958,0.5198 37.916,1.1072 56.8633,1.9219 26.252,1.1286 52.4939,2.4992 78.74,3.7668 0.6658,0.032 1.3306,0.089 1.9966,0.1035 30.9511,0.698 61.9038,1.3345 92.853,2.1058 24.6213,0.6135 49.24,1.3518 73.8574,2.1093 18.2905,0.563 36.5828,1.1226 54.8645,1.9046 26.585,1.1372 53.1616,2.4731 79.7417,3.726 0.9986,0.047 1.9954,0.1387 2.9942,0.1626 28.9516,0.6968 57.9101,1.1812 86.853,2.1351 30.9202,1.0188 61.8257,2.479 92.7375,3.7482 0.6658,0.027 1.3304,0.089 1.9964,0.1053 28.6184,0.6989 57.2463,1.1352 85.852,2.1792 19.9353,0.7275 39.8399,2.2861 59.7581,3.4792 1.6626,0.099 3.3205,0.3147 4.9836,0.3518 31.6175,0.7051 63.2432,1.1453 94.8506,2.1546 27.9248,0.8921 55.8296,2.414 83.7432,3.6611 0.9983,0.045 1.9946,0.1543 2.9929,0.1772 30.2847,0.7002 60.5706,1.344 90.8535,2.1021 25.2876,0.633 50.5733,1.3479 75.8569,2.1216 17.6246,0.539 35.2488,1.1367 52.8653,1.8901 27.2505,1.1646 54.4939,2.4846 81.7405,3.74 0.9982,0.046 1.9956,0.1345 2.9943,0.1565 31.2845,0.6963 62.5772,1.1382 93.8511,2.1501 28.5903,0.9251 57.1604,2.4654 85.7395,3.7354 0.6658,0.03 1.3306,0.088 1.9966,0.1033 30.2847,0.698 60.5706,1.3457 90.8535,2.103 25.2876,0.6326 50.5747,1.3032 75.8555,2.1553 6.9692,0.2348 13.9143,1.1782 21.7182,1.7939 0.991,1.6497 1.2603,3.302 1.2598,4.9541 -0.034,85.7288 -0.091,171.4578 -1.0654,257.9944 -5.2066,0.2483 -9.4807,-0.6455 -13.7835,-0.8147 -20.2837,-0.7971 -40.5752,-1.3909 -60.8635,-2.0657 -19.6223,-0.6526 -39.2439,-1.3271 -58.8664,-1.9712 -20.9549,-0.6872 -41.9104,-1.3403 -62.8653,-2.0271 -19.6225,-0.6435 -39.2439,-1.3239 -58.8667,-1.9648 -21.2878,-0.6948 -42.5769,-1.3489 -63.8645,-2.0466 -19.2898,-0.6319 -38.5779,-1.3033 -57.8672,-1.9468 -20.6213,-0.688 -41.2431,-1.3679 -61.865,-2.0437 -20.2885,-0.6651 -40.5776,-1.3159 -60.8662,-1.982 -20.2888,-0.6662 -40.5769,-1.3403 -60.8654,-2.0166 -19.6224,-0.654 -39.2439,-1.3273 -58.8667,-1.9709 -41.2435,-1.3528 -82.4876,-2.6851 -123.731,-4.0396 -19.2896,-0.6337 -38.5774,-1.3168 -57.8672,-1.946 -21.6206,-0.7056 -43.2432,-1.3584 -64.8638,-2.0659 -18.9567,-0.6206 -37.9089,-1.3902 -56.8684,-1.9055 -28.9507,-0.7869 -57.9099,-1.2896 -86.8581,-2.1521 -16.628,-0.4949 -33.2422,-1.458 -49.8621,-2.2161 -27.2485,-1.2432 -54.4875,-2.7937 -81.748,-3.6582 -32.2757,-1.0239 -64.5701,-1.4575 -96.8562,-2.1516 -0.9988,-0.022 -1.9966,-0.1028 -2.9951,-0.1499 -26.5816,-1.2588 -53.1592,-2.6043 -79.7457,-3.7439 -18.2829,-0.7839 -36.5764,-1.332 -54.8679,-1.8955 -24.6189,-0.7583 -49.2387,-1.5051 -73.8618,-2.1192 -30.9512,-0.7722 -61.9055,-1.4045 -92.8586,-2.1003 -0.666,-0.015 -1.3313,-0.065 -1.9969,-0.098 -25.9143,-1.269 -51.8244,-2.6401 -77.7446,-3.772 -18.6152,-0.8132 -37.2427,-1.3457 -55.8669,-1.9331 -23.9519,-0.7551 -47.9063,-1.4399 -71.8594,-2.155 -0.1245,-1.3215 -0.3579,-2.6433 -0.3579,-3.9649 0,-86.0585 0.027,-172.1169 0.1997,-259.1042 z"
       id="path82" />
    <path
       fill="#6caaea"
       opacity="1"
       stroke="none"
       d="m 2238.5044,1630.4891 c 3.2036,-1.5235 6.9419,-3.5515 10.6186,-3.4455 25.597,0.7378 51.1819,1.889 76.7686,2.9638 29.238,1.2283 58.4739,2.5149 87.7107,3.7773 0.9983,0.043 1.9958,0.124 2.9944,0.1454 32.2744,0.6936 64.5571,1.1259 96.821,2.1492 27.2508,0.8642 54.4798,2.4117 81.7185,3.6593 0.9978,0.046 1.9942,0.153 2.9922,0.1755 30.9419,0.6995 61.885,1.3336 92.825,2.1047 24.614,0.6135 49.2248,1.3545 73.8347,2.1123 18.2851,0.563 36.5715,1.1194 54.8479,1.9015 26.5769,1.137 53.1453,2.4739 79.7173,3.7272 0.9983,0.047 1.9946,0.1391 2.9931,0.1621 30.2757,0.6963 60.5586,1.1561 90.8245,2.1438 29.5798,0.9652 59.1418,2.4679 88.7117,3.7356 0.9985,0.043 1.9958,0.1167 2.9946,0.1378 32.6077,0.6902 65.2236,1.1118 97.8203,2.1442 26.918,0.8526 53.813,2.427 80.718,3.6828 0.9981,0.046 1.9949,0.1356 2.9934,0.1576 31.6082,0.6957 63.2244,1.1331 94.8221,2.1517 28.2485,0.9106 56.4746,2.5109 84.7146,3.7131 19.2763,0.8205 38.5564,1.5986 57.8413,2.1828 26.9402,0.8162 53.8879,1.3788 80.8298,2.1555 18.6187,0.5367 37.238,1.1187 55.8469,1.9192 26.5767,1.1431 53.1438,2.5047 79.7151,3.7733 0.6653,0.032 1.3303,0.083 1.9961,0.099 30.2756,0.6957 60.5523,1.3412 90.8264,2.0963 25.2798,0.6305 50.5579,1.3368 75.8323,2.1493 3.6335,0.1168 7.2415,1.0193 11.646,1.6782 0.9307,1.772 1.2048,3.4238 1.2043,5.0758 -0.028,100.3966 -0.079,200.7932 -1.1609,302.1177 -33.9887,0.2517 -66.9431,-0.4209 -99.8974,-1.1119 -1.6633,-0.035 -3.3225,-0.2422 -4.9854,-0.3404 -20.2536,-1.1975 -40.4936,-2.7737 -60.7644,-3.4919 -29.6093,-1.0492 -59.2404,-1.4799 -88.8623,-2.1812 -0.9983,-0.024 -1.9946,-0.1383 -2.9929,-0.1827 -27.9172,-1.2446 -55.8254,-2.7626 -83.7539,-3.6538 -31.6113,-1.0088 -63.241,-1.4544 -94.8625,-2.1502 -0.9991,-0.022 -1.9961,-0.1099 -2.9947,-0.1578 -26.25,-1.2543 -52.4963,-2.5909 -78.7512,-3.7316 -17.9507,-0.78 -35.9116,-1.3534 -53.8713,-1.8996 -25.2869,-0.7693 -50.5755,-1.4862 -75.8662,-2.1193 -30.2867,-0.758 -60.5765,-1.4032 -90.8648,-2.1035 -0.9985,-0.023 -1.9946,-0.1349 -2.9932,-0.1801 -27.5837,-1.2457 -55.1582,-2.7775 -82.7536,-3.6554 -31.9446,-1.0163 -63.9075,-1.4559 -95.8626,-2.1513 -0.9987,-0.022 -1.9963,-0.1083 -2.9948,-0.155 -26.9165,-1.2569 -53.8228,-2.8329 -80.7522,-3.6862 -32.6106,-1.0336 -65.2405,-1.4551 -97.8621,-2.1459 -0.9993,-0.021 -1.9971,-0.096 -2.9961,-0.1384 -30.249,-1.267 -60.491,-2.7463 -90.749,-3.7387 -29.6128,-0.9711 -59.2417,-1.4449 -88.8635,-2.143 -0.9988,-0.024 -1.9954,-0.1228 -2.9939,-0.1691 -26.917,-1.2505 -53.836,-2.4537 -80.7498,-3.7685 -11.29,-0.5516 -22.5686,-1.3382 -33.8525,-2.0179 -8.4593,-32.2241 -18.9683,-63.7118 -33.791,-93.636 -47.4251,-95.7425 -119.1502,-167.093 -215.0557,-214.155 -3.5798,-1.7568 -7.1826,-3.4669 -11.2815,-5.6819 z"
       id="path84" />
    <path
       fill="#66a6e6"
       opacity="1"
       stroke="none"
       d="m 2498.6482,1944.7352 c 11.2683,-0.094 22.5469,0.6931 33.8369,1.2447 26.9138,1.3148 53.8328,2.518 80.7498,3.7685 0.9985,0.046 1.9951,0.1456 2.9939,0.1691 29.6218,0.6981 59.2507,1.1719 88.8635,2.143 30.258,0.9924 60.5,2.4717 90.749,3.7387 0.999,0.042 1.9968,0.1173 2.9961,0.1384 32.6216,0.6908 65.2515,1.1123 97.8621,2.1459 26.9294,0.8533 53.8357,2.4293 80.7522,3.6862 0.9985,0.047 1.9961,0.1334 2.9948,0.155 31.9551,0.6954 63.918,1.135 95.8626,2.1513 27.5954,0.8779 55.1699,2.4097 82.7536,3.6554 0.9986,0.045 1.9947,0.1569 2.9932,0.1801 30.2883,0.7003 60.5781,1.3455 90.8648,2.1035 25.2907,0.6331 50.5793,1.35 75.8662,2.1193 17.9597,0.5462 35.9206,1.1196 53.8713,1.8996 26.2549,1.1407 52.5012,2.4773 78.7512,3.7316 0.9986,0.048 1.9956,0.1359 2.9947,0.1578 31.6215,0.6958 63.2512,1.1414 94.8625,2.1502 27.9285,0.8912 55.8367,2.4092 83.7539,3.6538 0.9983,0.044 1.9946,0.1592 2.9929,0.1827 29.6219,0.7013 59.253,1.132 88.8623,2.1812 20.2708,0.7182 40.5108,2.2944 60.7644,3.4919 1.6629,0.098 3.3221,0.3056 4.9854,0.3404 32.9543,0.691 65.9087,1.3636 99.7534,2.0365 1.0369,1.6489 1.312,3.3012 1.3115,4.9536 -0.032,107.0652 -0.085,214.1306 -1.1555,322.1245 -11.9766,0.2778 -22.9277,-0.5479 -33.8945,-0.9851 -19.6201,-0.782 -39.2498,-1.3281 -58.8753,-1.9756 -20.6252,-0.6799 -41.2502,-1.3599 -61.8755,-2.0469 -19.6257,-0.654 -39.2504,-1.3291 -58.8764,-1.9726 -20.9583,-0.6878 -41.9175,-1.3389 -62.876,-2.0259 -19.626,-0.6431 -39.251,-1.3145 -58.8765,-1.9693 -20.2919,-0.6772 -40.5835,-1.3571 -60.8757,-2.0219 -20.6252,-0.6758 -41.2507,-1.8692 -61.8762,-1.8723 -29.332,0 -58.5296,-1.6353 -87.771,-3.8204 -24.5405,-1.8335 -49.2305,-1.7158 -73.8574,-2.3295 -30.9563,-0.7715 -61.9163,-1.4082 -92.8745,-2.1067 -0.6661,-0.015 -1.3311,-0.075 -1.9969,-0.1021 -31.5854,-1.2707 -63.1655,-2.7136 -94.7583,-3.7585 -28.2837,-0.9361 -56.5815,-1.4329 -84.8733,-2.1289 -0.999,-0.025 -1.9963,-0.1131 -2.9948,-0.1599 -26.5862,-1.2544 -53.1687,-2.5923 -79.7598,-3.7303 -18.2861,-0.7824 -36.5823,-1.3408 -54.8772,-1.9038 -24.623,-0.7578 -49.2473,-1.4963 -73.8743,-2.1098 -30.9563,-0.7715 -61.916,-1.4085 -92.8742,-2.1067 -0.6663,-0.015 -1.3311,-0.071 -1.9971,-0.1036 -25.9189,-1.2653 -51.8328,-2.644 -77.7583,-3.758 -19.2842,-0.8289 -38.5808,-1.3906 -57.876,-1.9353 -27.2898,-0.771 -54.5803,-1.5359 -81.8755,-2.0681 -15.0034,-0.2925 -15.0075,-0.075 -21.9189,-13.3799 50.6084,-99.7747 61.9604,-204.3245 38.0769,-313.9318 z"
       id="path86" />
    <path
       fill="#81b9fb"
       opacity="1"
       stroke="none"
       d="m 2150.5544,494.89654 c 27.7459,0.34031 55.3218,1.60599 82.898,2.87302 0.9983,0.0458 1.9956,0.13309 2.9941,0.15485 31.948,0.69546 63.9036,1.13592 95.8413,2.15149 27.5896,0.87729 55.158,2.40683 82.7359,3.65127 0.998,0.0451 1.9941,0.15912 2.9922,0.18274 29.6152,0.7012 59.2319,1.34644 88.8454,2.1052 24.6187,0.6308 49.2351,1.35391 73.8501,2.11151 18.2888,0.56283 36.5789,1.12359 54.8592,1.90527 26.5825,1.13672 53.1552,2.49851 79.7351,3.69882 5.3222,0.24042 10.6643,0.0485 15.9863,0.29279 25.9138,1.1897 51.8242,2.45953 77.7358,3.7038 0.9983,0.048 1.9942,0.15942 2.9925,0.18279 29.9485,0.70118 59.8979,1.35236 89.8452,2.10279 25.6179,0.64184 51.2346,1.34582 76.8491,2.11798 17.9561,0.54126 35.9119,1.13275 53.8594,1.89972 26.9153,1.14996 53.8227,2.47314 80.7336,3.72455 0.9983,0.0464 1.9951,0.14111 2.9937,0.16461 29.6152,0.6972 59.2378,1.16986 88.844,2.14099 30.2514,0.99225 60.4868,2.47241 90.7292,3.74042 0.6655,0.0279 1.3303,0.0908 1.9961,0.10681 28.9487,0.69952 57.8984,1.3656 86.8462,2.10095 25.9507,0.65924 51.9014,1.34479 77.8491,2.11237 18.6221,0.55084 37.2456,1.12347 55.8582,1.92413 26.582,1.14331 53.155,2.50397 79.7317,3.77203 0.6655,0.0318 1.3305,0.0845 1.9965,0.0995 30.9483,0.69635 61.898,1.33032 92.8443,2.10181 24.6191,0.61371 49.2358,1.3396 73.8486,2.15741 3.9736,0.13208 7.9116,1.1159 11.8855,1.50689 5.4539,0.53687 10.7427,0.31678 14.8997,-5.24432 11.0854,18.15924 22.7409,36.40851 32.1025,55.76727 11.3613,23.49439 21.6106,47.61536 30.7966,72.04584 7.7505,20.61285 13.6692,41.94891 19.6922,63.16547 4.4851,15.79876 8.2644,31.83154 11.551,47.92498 2.2,10.77283 2.9854,21.83448 4.5007,33.63691 -5.3108,4.02832 -11.0044,5.17077 -17.186,3.56842 -1.5889,-0.41175 -3.3049,-0.41455 -4.9661,-0.45398 -29.9421,-0.71173 -59.8855,-1.35858 -89.8266,-2.10633 -25.6128,-0.63964 -51.2241,-1.34179 -76.8335,-2.10626 -18.6182,-0.55572 -37.2383,-1.1167 -55.8465,-1.92901 -25.9108,-1.13123 -51.8115,-2.49933 -77.7165,-3.76636 -0.6653,-0.0325 -1.3303,-0.086 -1.9961,-0.10095 -30.9419,-0.69696 -61.885,-1.3321 -92.825,-2.10328 -24.614,-0.61334 -49.225,-1.34948 -73.8349,-2.11224 -17.9519,-0.55627 -35.905,-1.12384 -53.8484,-1.90271 -26.2439,-1.13904 -52.479,-2.47149 -78.718,-3.7232 -0.9981,-0.0476 -1.9946,-0.1399 -2.9932,-0.16364 -29.2761,-0.69696 -58.5591,-1.17596 -87.8262,-2.13794 -30.5778,-1.00519 -61.1406,-2.474 -91.7099,-3.74127 -0.9986,-0.0414 -1.9959,-0.11713 -2.9946,-0.13825 -32.6077,-0.69091 -65.2234,-1.11779 -97.8206,-2.14318 -27.5835,-0.86774 -55.1453,-2.42707 -82.7168,-3.68201 -0.9983,-0.0454 -1.9949,-0.13709 -2.9934,-0.1593 -31.2749,-0.69635 -62.5581,-1.13971 -93.8225,-2.15088 -28.5816,-0.92438 -57.1431,-2.46198 -85.7134,-3.73035 -0.6655,-0.0295 -1.3301,-0.0901 -1.9958,-0.10571 -29.9424,-0.69904 -59.8855,-1.3537 -89.8267,-2.10327 -25.6128,-0.64118 -51.2241,-1.34357 -76.8335,-2.10822 -18.6184,-0.55572 -37.2383,-1.11517 -55.8467,-1.92755 -25.9109,-1.13129 -51.8115,-2.50036 -77.7165,-3.76788 -0.6653,-0.0326 -1.3304,-0.0841 -1.9961,-0.10016 -28.9429,-0.69653 -57.8953,-1.12787 -86.8255,-2.17322 -20.2614,-0.73218 -40.4931,-2.30115 -60.7378,-3.50079 -1.6623,-0.0984 -3.3208,-0.30274 -4.9836,-0.3346 -36.9375,-0.70788 -73.8755,-1.39837 -111.7041,-2.09088 -1.0251,-1.65112 -1.2773,-3.30359 -1.2773,-4.95605 0,-87.73535 0.023,-175.47071 0.2128,-264.1316 z"
       id="path88" />
    <path
       fill="#5299d6"
       opacity="1"
       stroke="none"
       d="m 2150.5798,3052.8901 c 24.1028,-0.2143 48.0572,0.4705 72.0091,1.2256 18.6242,0.5874 37.2517,1.1199 55.8669,1.9331 25.9202,1.1319 51.8303,2.503 77.7446,3.772 0.6656,0.033 1.3309,0.083 1.9969,0.098 30.9531,0.6958 61.9074,1.3281 92.8586,2.1003 24.6231,0.6141 49.2429,1.3609 73.8618,2.1192 18.2915,0.5635 36.585,1.1116 54.8679,1.8955 26.5865,1.1396 53.1641,2.4851 79.7457,3.7439 0.9985,0.047 1.9963,0.1282 2.9951,0.1499 32.2861,0.6941 64.5805,1.1277 96.8562,2.1516 27.2605,0.8645 54.4995,2.415 81.748,3.6582 16.6199,0.7581 33.2341,1.7212 49.8621,2.2161 28.9482,0.8625 57.9074,1.3652 86.8581,2.1521 18.9595,0.5153 37.9117,1.2849 56.8684,1.9055 21.6206,0.7075 43.2432,1.3603 64.8638,2.0659 19.2898,0.6292 38.5776,1.3123 57.8672,1.946 41.2434,1.3545 82.4875,2.6868 123.731,4.0396 19.6228,0.6436 39.2443,1.3169 58.8667,1.9709 20.2885,0.6763 40.5766,1.3504 60.8654,2.0166 20.2886,0.6661 40.5777,1.3169 60.8662,1.982 20.6219,0.6758 41.2437,1.3557 61.865,2.0437 19.2893,0.6435 38.5774,1.3149 57.8672,1.9468 21.2876,0.6977 42.5767,1.3518 63.8645,2.0466 19.6228,0.6409 39.2442,1.3213 58.8667,1.9648 20.9549,0.6868 41.9104,1.3399 62.8653,2.0271 19.6225,0.6441 39.2441,1.3186 58.8664,1.9712 20.2883,0.6748 40.5798,1.2686 60.8635,2.0657 4.3028,0.1692 8.5769,1.063 13.6487,1.7405 1.4378,44.2966 2.3574,88.4702 -1.7514,132.57 -3.086,33.1253 -7.9869,65.929 -17.076,99.032 -9.7878,3.3509 -18.3362,1.1709 -26.949,0.7986 -24.6018,-1.0635 -49.227,-1.6069 -73.8464,-2.2204 -30.9465,-0.771 -61.8967,-1.4085 -92.8452,-2.104 -0.333,-0.01 -0.6658,-0.033 -0.9985,-0.044 -37.9063,-1.291 -75.8125,-2.5762 -113.7183,-3.8791 -4.3242,-0.1487 -8.6504,-0.3177 -12.9663,-0.6143 -15.9246,-1.094 -31.8291,-2.7581 -47.771,-3.269 -32.6033,-1.0455 -65.2263,-1.4822 -97.8411,-2.1741 -0.9987,-0.021 -1.9965,-0.1 -2.9951,-0.1424 -29.5764,-1.2648 -59.1452,-2.7512 -88.7309,-3.7292 -29.6065,-0.979 -59.2295,-1.4487 -88.8453,-2.1453 -0.666,-0.016 -1.331,-0.068 -1.9965,-0.1 -26.5772,-1.2683 -53.1502,-2.6286 -79.7327,-3.7719 -18.6128,-0.8008 -37.2366,-1.3702 -55.8589,-1.9256 -25.615,-0.7646 -51.2319,-1.466 -76.8503,-2.1074 -29.9475,-0.7498 -59.8975,-1.4055 -89.8462,-2.105 -0.666,-0.015 -1.3306,-0.079 -1.9964,-0.1064 -30.5759,-1.2683 -61.1452,-2.7376 -91.7297,-3.7427 -29.2734,-0.9624 -58.563,-1.4424 -87.8455,-2.137 -0.6657,-0.016 -1.3313,-0.063 -1.9968,-0.096 -25.5774,-1.2666 -51.1494,-2.6601 -76.7339,-3.7575 -19.9438,-0.8555 -39.9038,-1.3379 -59.8562,-1.9932 -20.6186,-0.677 -41.2375,-1.3584 -61.8559,-2.0454 -19.6197,-0.6538 -39.2381,-1.3291 -58.8579,-1.9727 -20.9517,-0.6875 -41.9043,-1.3383 -62.8562,-2.0249 -19.6199,-0.6428 -39.2381,-1.3252 -58.8579,-1.9658 -21.2847,-0.6953 -42.5711,-1.3479 -63.8555,-2.0449 -19.2869,-0.6316 -38.5694,-1.4265 -57.8594,-1.9204 -31.6123,-0.8094 -63.2295,-1.4331 -94.8445,-2.1353 -0.1242,-1.3213 -0.3572,-2.6426 -0.3572,-3.9638 0.01,-76.7276 0.038,-153.4551 0.2151,-231.1119 z"
       id="path90" />
    <path
       fill="#60a3e1"
       opacity="1"
       stroke="none"
       d="m 2460.2476,2259.2803 c 7.2351,12.6916 7.2392,12.4741 22.2426,12.7666 27.2952,0.5322 54.5857,1.2971 81.8755,2.0681 19.2952,0.5447 38.5918,1.1064 57.876,1.9353 25.9255,1.114 51.8394,2.4927 77.7583,3.758 0.666,0.032 1.3308,0.089 1.9971,0.1036 30.9582,0.6982 61.9179,1.3352 92.8742,2.1067 24.627,0.6135 49.2513,1.352 73.8743,2.1098 18.2949,0.563 36.5911,1.1214 54.8772,1.9038 26.5911,1.138 53.1736,2.4759 79.7598,3.7303 0.9985,0.047 1.9958,0.1352 2.9948,0.1599 28.2918,0.696 56.5896,1.1928 84.8733,2.1289 31.5928,1.0449 63.1729,2.4878 94.7583,3.7585 0.6658,0.027 1.3308,0.087 1.9969,0.1021 30.9582,0.6985 61.9182,1.3352 92.8745,2.1067 24.6269,0.6137 49.3169,0.496 73.8574,2.3295 29.2414,2.1851 58.439,3.8155 87.771,3.8204 20.6255,0 41.251,1.1965 61.8762,1.8723 20.2922,0.6648 40.5838,1.3447 60.8757,2.0219 19.6255,0.6548 39.2505,1.3262 58.8765,1.9693 20.9585,0.687 41.9177,1.3381 62.876,2.0259 19.626,0.6435 39.2507,1.3186 58.8764,1.9726 20.6253,0.687 41.2503,1.367 61.8755,2.0469 19.6255,0.6475 39.2552,1.1936 58.8753,1.9756 10.9668,0.4372 21.9179,1.2629 33.7522,1.9099 1.0202,1.6482 1.2912,3.2998 1.2907,4.9517 -0.029,83.7395 -0.08,167.4787 -0.2697,252.1455 -33.7539,0.2409 -67.3689,-0.3575 -100.9788,-1.1658 -19.2895,-0.4636 -38.5708,-1.2837 -57.8567,-1.9158 -21.2834,-0.6972 -42.5686,-1.3501 -63.852,-2.0449 -19.6192,-0.6406 -39.2368,-1.3135 -58.8553,-1.9678 -20.2846,-0.6762 -40.6242,-0.6323 -60.8413,-2.1853 -30.8823,-2.3728 -61.7465,-3.9812 -92.7309,-3.9785 -19.9517,0 -39.9104,-1.0149 -59.8533,-1.8701 -25.5832,-1.0972 -51.154,-2.491 -76.7302,-3.7569 -0.6655,-0.033 -1.3308,-0.081 -1.9966,-0.096 -29.6143,-0.6946 -59.2356,-1.1684 -88.8408,-2.1394 -30.2503,-0.9922 -60.4846,-2.4717 -90.7258,-3.7392 -0.6656,-0.028 -1.3304,-0.091 -1.9961,-0.1072 -29.281,-0.6997 -58.563,-1.3606 -87.8428,-2.1035 -25.6167,-0.6499 -51.2327,-1.3475 -76.8464,-2.1065 -18.9546,-0.5615 -37.9114,-1.1108 -56.856,-1.9263 -26.2485,-1.1294 -52.4866,-2.5026 -78.7293,-3.7719 -0.6655,-0.033 -1.3303,-0.086 -1.9963,-0.1006 -30.947,-0.6968 -61.8957,-1.3313 -92.8408,-2.1028 -24.6182,-0.6138 -49.2337,-1.3486 -73.8474,-2.1157 -17.6221,-0.5491 -35.2439,-1.1389 -52.8582,-1.8916 -27.2466,-1.1643 -54.4868,-2.4827 -81.7297,-3.7376 -0.9983,-0.046 -1.9951,-0.1369 -2.9939,-0.1589 -31.2803,-0.6963 -62.5689,-1.1387 -93.8386,-2.1499 -28.5865,-0.9248 -57.1529,-2.4639 -85.7281,-3.7332 -0.6655,-0.03 -1.3303,-0.089 -1.9961,-0.1047 -30.2805,-0.6987 -60.5625,-1.3472 -90.8415,-2.1042 -25.2842,-0.6324 -50.5679,-1.3021 -75.8462,-2.1309 -12.9609,-0.4246 -25.9092,-1.2334 -39.7517,-1.8682 -1.0215,-4.3235 -0.9605,-8.6638 -1.3359,-12.966 -0.5027,-5.7588 2.2551,-8.0161 7.5969,-9.6119 20.6377,-6.164 41.4194,-12.0461 61.5869,-19.5407 39.1335,-14.5423 74.73,-35.7298 108.0664,-60.7305 21.8728,-16.4038 42.1482,-34.6599 60.6394,-54.7788 23.2051,-25.2478 43.5811,-52.6548 60.6448,-82.4531 3.791,-6.6206 7.4128,-13.3386 11.4363,-20.625 z"
       id="path92" />
    <path
       fill="#87bdff"
       opacity="1"
       stroke="none"
       d="m 202.22757,2667.6946 c -0.21086,-3.3145 -0.60576,-6.6287 -0.60625,-9.9431 -0.0291,-199.5691 -0.0264,-399.138 -0.0165,-598.7071 1.1e-4,-2.3298 0.13426,-4.6594 1.3189,-7.8457 2.77943,-0.8342 4.4458,-0.7934 6.11216,-0.7932 198.32525,0 396.65044,0.01 594.9757,-0.01 3.32946,-2e-4 6.65899,-0.2026 10.66052,-0.2478 1.5664,-0.017 2.46075,-0.097 3.27972,0.7593 -0.0974,2.9338 -0.13879,4.9309 -0.13879,6.9282 -0.004,200.4038 -0.005,400.8074 0.004,601.2112 1.2e-4,2.9936 0.13678,5.9875 -0.45184,8.8398 -1.56183,-0.134 -2.46222,-0.1267 -4.29676,-0.2104 -3.26654,-0.1318 -5.59893,-0.2083 -7.93127,-0.2085 -197.97241,-0.01 -395.94476,-0.01 -593.91716,0.01 -2.99754,0 -5.99507,0.1435 -8.9926,0.2202 z"
       id="path94" />
    <path
       fill="#87bdff"
       opacity="1"
       stroke="none"
       d="m 202.15852,1433.863 c -0.18765,-3.9824 -0.53875,-7.9649 -0.5394,-11.9474 -0.0268,-165.5333 0.0614,-331.0667 -0.0881,-496.59986 -0.0322,-35.69849 1.7944,-71.2165 8.51226,-107.15131 5.35878,-0.55731 9.355,-0.43012 13.35122,-0.42993 192.20778,0.01 384.4156,0.012 576.62336,-0.0129 4.65656,-6.1e-4 9.31317,-0.31855 14.62049,0.007 1.48889,4.93439 3.05774,9.37262 3.06012,13.81159 0.10675,200.73261 0.0763,401.46541 -0.56604,602.20451 -1.46357,0.1046 -2.2992,0.2028 -4.06848,0.2105 -4.93262,-0.144 -8.93159,-0.2439 -12.93055,-0.2441 -195.65936,-0.01 -391.31878,-0.01 -586.97818,-4e-4 -3.66557,2e-4 -7.33114,0.099 -10.99672,0.1519 z"
       id="path96" />
    <path
       fill="#87bdff"
       opacity="1"
       stroke="none"
       d="m 1433.0146,200.55104 c 1.0303,5.45711 1.2081,10.78427 1.2084,16.11145 0.014,193.51366 0.02,387.02733 -10e-5,580.541 0,20.10767 1.5439,19.15582 -18.8201,19.15625 -190.516,0.004 -381.0321,-10e-4 -571.54806,0.0178 -5.99152,6.1e-4 -11.98304,0.22968 -19.65003,0.1626 -3.07074,-2.60083 -5.16333,-4.86987 -5.69104,-7.45795 -0.71881,-3.52526 -0.27563,-7.29394 -0.27575,-10.95825 -0.006,-137.93371 0.004,-275.86743 -0.009,-413.80118 -0.006,-58.63766 -0.0563,-117.27536 -0.0866,-175.91302 15.50274,-1.98508 30.96588,-4.40363 46.51996,-5.82767 14.24524,-1.3042 28.58838,-2.13452 42.88916,-2.14622 173.51076,-0.14188 347.02166,-0.0936 520.53246,-0.0912 1.3318,2e-5 2.6635,0.0498 4.9304,0.20633 z"
       id="path98" />
    <path
       fill="#4791ce"
       opacity="1"
       stroke="none"
       d="m 201.99544,1434.7983 c 3.82866,-0.9881 7.49423,-1.087 11.1598,-1.0872 195.6594,-0.01 391.31882,-0.01 586.97818,4e-4 3.99896,2e-4 7.99793,0.1001 12.93115,1.1758 0.93476,205.748 0.93512,410.4735 0.93549,615.1991 -3.32947,0.1082 -6.659,0.3106 -9.98846,0.3108 -198.32526,0.014 -396.65045,0.012 -594.9757,0.01 -1.66636,-2e-4 -3.33273,-0.041 -5.92454,-0.1123 -1.11684,-4.0337 -1.47518,-8.0179 -1.47571,-12.0023 -0.0272,-197.5233 -0.0248,-395.0465 -0.0144,-592.5698 1.8e-4,-3.3291 0.1377,-6.6582 0.37421,-10.9228 z"
       id="path100" />
    <path
       fill="#4791ce"
       opacity="1"
       stroke="none"
       d="m 1434.2913,3899.7739 c -3.6468,0.199 -7.2935,0.5711 -10.9402,0.5713 -170.7218,0.017 -341.4438,0 -512.16555,0 -28.66724,-5e-4 -57.16724,-2.1972 -86.35279,-7.5024 -0.83184,-195.3611 -0.82171,-389.594 -0.84747,-583.8269 -0.003,-22.2005 -0.77063,-21.0198 21.52283,-21.0183 196.23188,0.012 392.46378,0.01 588.78598,0.9414 0.1318,3.2661 0.2096,5.5986 0.2097,7.9309 0.01,197.9719 0.01,395.9438 0,593.9158 -2e-4,2.9978 -0.1362,5.9953 -0.2088,8.9931 z"
       id="path102" />
    <path
       fill="#4791ce"
       opacity="1"
       stroke="none"
       d="m 202.04008,2668.6411 c 3.18502,-1.0232 6.18255,-1.1667 9.18009,-1.1667 197.9724,-0.01 395.94475,-0.01 593.91716,-0.01 2.33234,2e-4 4.66473,0.077 7.93054,1.1672 0.93286,196.9751 0.935,392.9009 0.92725,588.8264 -8e-4,20.2544 -0.30115,20.5357 -20.776,20.5359 -194.92603,0 -389.85202,3e-4 -584.77802,-5e-4 -2.24261,-26.1948 -6.3378,-52.3833 -6.4283,-78.5854 -0.60423,-174.9426 -0.3546,-349.8884 -0.37202,-524.833 -1.7e-4,-1.6638 0.13817,-3.3279 0.3993,-5.9385 z"
       id="path104" />
    <path
       fill="#4e96d3"
       opacity="1"
       stroke="none"
       d="m 2150.5762,3288.8955 c 31.7607,-0.2275 63.3779,0.3962 94.9902,1.2056 19.29,0.4939 38.5725,1.2888 57.8594,1.9204 21.2844,0.697 42.5708,1.3496 63.8555,2.0449 19.6198,0.6406 39.238,1.323 58.8579,1.9658 20.9519,0.6866 41.9045,1.3374 62.8562,2.0249 19.6198,0.6436 39.2382,1.3189 58.8579,1.9727 20.6184,0.687 41.2373,1.3684 61.8559,2.0454 19.9524,0.6553 39.9124,1.1377 59.8562,1.9932 25.5845,1.0974 51.1565,2.4909 76.7339,3.7575 0.6655,0.033 1.3311,0.08 1.9968,0.096 29.2825,0.6946 58.5721,1.1746 87.8455,2.137 30.5845,1.0051 61.1538,2.4744 91.7297,3.7427 0.6658,0.028 1.3304,0.091 1.9964,0.1064 29.9487,0.6995 59.8987,1.3552 89.8462,2.105 25.6184,0.6414 51.2353,1.3428 76.8503,2.1074 18.6223,0.5554 37.2461,1.1248 55.8589,1.9256 26.5825,1.1433 53.1555,2.5036 79.7327,3.7719 0.6655,0.032 1.3305,0.084 1.9965,0.1 29.6158,0.6966 59.2388,1.1663 88.8453,2.1453 29.5857,0.978 59.1545,2.4644 88.7309,3.7292 0.9986,0.043 1.9964,0.1211 2.9951,0.1424 32.6148,0.6919 65.2378,1.1286 97.8411,2.1741 15.9419,0.5109 31.8464,2.175 47.771,3.269 4.3159,0.2966 8.6421,0.4656 12.9663,0.6143 37.9058,1.3029 75.812,2.5881 113.7183,3.8791 0.3327,0.011 0.6655,0.036 0.9985,0.044 30.9485,0.6955 61.8987,1.333 92.8452,2.104 24.6194,0.6135 49.2446,1.1569 73.8464,2.2204 8.6128,0.3723 17.1612,2.5523 26.5777,-0.1326 -3.1314,15.3619 -6.5205,30.9976 -11.1426,46.2598 -17.3708,57.3633 -41.6789,111.6646 -74.4629,163.2429 -11.3083,1.1316 -21.2619,2.3081 -31.2085,2.2495 -11.9555,-0.07 -23.897,-1.4873 -35.8584,-1.8 -32.6023,-0.853 -65.2121,-1.4307 -97.8188,-2.1223 -0.9986,-0.021 -1.9961,-0.098 -2.9944,-0.1399 -30.2354,-1.2659 -60.4634,-2.7444 -90.7078,-3.7359 -29.5993,-0.9707 -59.2148,-1.4443 -88.8232,-2.1418 -0.9983,-0.024 -1.9946,-0.1182 -2.9927,-0.1663 -25.905,-1.2509 -51.8061,-2.5935 -77.7168,-3.7182 -18.2751,-0.7932 -36.5615,-1.3443 -54.8459,-1.9072 -24.6094,-0.7574 -49.2198,-1.4952 -73.833,-2.1087 -30.939,-0.771 -61.8811,-1.4058 -92.8221,-2.1064 -0.998,-0.023 -1.9936,-0.1346 -2.9917,-0.1805 -27.238,-1.2458 -54.4665,-2.789 -81.7165,-3.6528 -32.2632,-1.022 -64.5447,-1.4568 -96.8184,-2.1509 -0.9985,-0.021 -1.9956,-0.1023 -2.9939,-0.1494 -26.571,-1.2588 -53.1384,-2.593 -79.7141,-3.7485 -17.6101,-0.7656 -35.2341,-1.1965 -52.8464,-1.9182 -31.9014,-1.3072 -63.7954,-2.792 -95.6983,-4.0618 -19.9421,-0.7939 -39.8942,-1.3281 -59.842,-1.9829 -20.6135,-0.677 -41.2275,-1.3535 -61.8408,-2.0405 -19.2818,-0.6424 -38.5625,-1.3037 -57.8443,-1.9473 -20.6132,-0.6885 -41.2273,-1.3616 -61.8408,-2.0481 -19.6147,-0.6536 -39.2283,-1.3286 -58.8432,-1.9719 -41.2273,-1.3523 -82.4551,-2.6831 -123.6824,-4.0371 -19.282,-0.6336 -38.5591,-1.448 -57.845,-1.9178 -33.6033,-0.8186 -67.2114,-1.4338 -100.8174,-2.134 -0.1245,-1.3208 -0.3581,-2.6416 -0.3579,-3.9624 0.01,-69.3943 0.036,-138.7883 0.2083,-209.1123 z"
       id="path106" />
    <path
       fill="#4891ce"
       opacity="1"
       stroke="none"
       d="m 1951.7744,2667.7048 c 0.204,3.6494 0.5858,7.2989 0.5864,10.9483 0.029,198.1926 0.026,396.385 0.017,594.5776 -2e-4,2.9964 -0.1242,5.9924 -1.2767,9.9568 -171.0971,0.9824 -341.1081,0.998 -511.119,1.0037 -1.9941,0 -3.9883,-0.1248 -5.9422,-1.128 0.089,-4.2651 0.1796,-7.5932 0.1798,-10.9216 0.01,-197.7407 0.01,-395.4814 -0.01,-593.2222 -3e-4,-3.6589 -0.184,-7.3178 0.6516,-11.1154 4.2654,-0.2054 7.5971,-0.3301 10.9289,-0.3301 165.329,-0.01 330.6579,-0.01 495.9869,0 3.331,2e-4 6.6621,0.1499 9.9931,0.2299 z"
       id="path108" />
    <path
       fill="#87bdff"
       opacity="1"
       stroke="none"
       d="m 1434.197,1428.0013 c 0.1043,-4.9957 0.2995,-9.9913 0.2998,-14.987 0.016,-192.3087 0.012,-384.6176 0.023,-576.92629 3e-4,-3.99713 0.027,-8.00146 0.2636,-11.98932 0.23,-3.88128 2.3236,-6.10528 6.3754,-6.18316 2.6649,-0.0512 5.3295,-0.16284 7.9943,-0.16284 166.9787,-7e-5 333.9574,0.009 501.8674,0.0272 1.0854,3.32904 1.3743,6.6474 1.3746,9.96569 0.021,198.43712 0.02,396.87422 0.011,595.31132 -2e-4,2.9945 -0.125,5.9889 -1.3062,9.8494 -170.7969,0.8474 -340.479,0.8276 -510.1613,0.8234 -2.3245,-1e-4 -4.6492,0.1966 -6.8211,-0.4426 0.1282,-2.258 0.1037,-3.7718 0.079,-5.2858 z"
       id="path110" />
    <path
       fill="#87bdff"
       opacity="1"
       stroke="none"
       d="m 1434,3284 c 1.9941,0.066 3.9883,0.1912 5.9824,0.1912 170.0109,-0.01 340.0219,-0.021 510.9612,-0.073 1.1093,3.9499 1.4481,7.936 1.4487,11.9223 0.026,196.9929 0.022,393.9861 0.023,590.979 0,3.9453 1e-4,7.8906 1e-4,12.4375 -3.286,0.366 -5.8232,0.8955 -8.3605,0.896 -168.3272,0.03 -336.6546,0.018 -504.9819,10e-4 -0.9972,0 -1.9943,-0.126 -3.8863,-0.387 -0.8223,-3.1914 -0.6863,-6.1889 -0.6861,-9.1867 0.01,-197.972 0.01,-395.9439 0,-593.9158 -10e-5,-2.3323 -0.078,-4.6648 -0.1576,-8.6008 -0.1408,-2.4905 -0.2434,-3.3772 -0.3462,-4.2642 z"
       id="path112" />
    <path
       fill="#4b94d1"
       opacity="1"
       stroke="none"
       d="m 2150.5825,3502.8999 c 33.7493,-0.2295 67.3574,0.3857 100.9607,1.2043 19.2859,0.4698 38.563,1.2842 57.845,1.9178 41.2273,1.354 82.4551,2.6848 123.6824,4.0371 19.6149,0.6433 39.2285,1.3183 58.8432,1.9719 20.6135,0.6865 41.2276,1.3596 61.8408,2.0481 19.2818,0.6436 38.5625,1.3049 57.8443,1.9473 20.6133,0.687 41.2273,1.3635 61.8408,2.0405 19.9478,0.6548 39.8999,1.189 59.842,1.9829 31.9029,1.2698 63.7969,2.7546 95.6983,4.0618 17.6123,0.7217 35.2363,1.1526 52.8464,1.9182 26.5757,1.1555 53.1431,2.4897 79.7141,3.7485 0.9983,0.047 1.9954,0.128 2.9939,0.1494 32.2737,0.6941 64.5552,1.1289 96.8184,2.1509 27.25,0.8638 54.4785,2.407 81.7165,3.6528 0.9981,0.046 1.9937,0.158 2.9917,0.1805 30.941,0.7006 61.8831,1.3354 92.8221,2.1064 24.6132,0.6135 49.2236,1.3513 73.833,2.1087 18.2844,0.5629 36.5708,1.114 54.8459,1.9072 25.9107,1.1247 51.8118,2.4673 77.7168,3.7182 0.9981,0.048 1.9944,0.1426 2.9927,0.1663 29.6084,0.6975 59.2239,1.1711 88.8232,2.1418 30.2444,0.9915 60.4724,2.47 90.7078,3.7359 0.9983,0.042 1.9958,0.1189 2.9944,0.1399 32.6067,0.6916 65.2165,1.2693 97.8188,2.1223 11.9614,0.3127 23.9029,1.7297 35.8584,1.8 9.9466,0.059 19.9002,-1.1179 30.7017,-1.7981 -0.024,1.7317 -0.7495,3.607 -1.794,5.2833 -38.4536,61.7233 -84.9406,116.5988 -141.3784,164.4638 -6.9167,0.7947 -11.2407,2.5464 -10.6943,9.3421 0,0 -0.028,0.3364 -1.0757,-0.049 -5.271,-1.2573 -9.4709,-2.7354 -13.7219,-2.9014 -23.2796,-0.9092 -46.5733,-1.4617 -69.8596,-2.2053 -17.9583,-0.5733 -35.9112,-1.3101 -53.8702,-1.8616 -24.9521,-0.7661 -49.9062,-1.4929 -74.8625,-2.1162 -30.6184,-0.7646 -61.2398,-1.4053 -91.8599,-2.1025 -0.666,-0.015 -1.3313,-0.07 -1.9968,-0.1018 -26.248,-1.2684 -52.4917,-2.6404 -78.7456,-3.7693 -18.9485,-0.8147 -37.9106,-1.8221 -56.8669,-1.8267 -30.6578,-0.01 -61.1971,-1.5178 -91.7515,-3.9929 -19.8789,-1.6109 -39.8967,-1.5103 -59.8523,-2.1741 -40.2444,-1.3389 -80.4888,-2.6743 -120.7332,-4.0149 -19.6223,-0.6535 -39.2443,-1.3261 -58.8672,-1.9697 -20.955,-0.6877 -41.9108,-1.3423 -62.8659,-2.0283 -19.9558,-0.6536 -39.9109,-1.3377 -59.8667,-1.9927 -20.6218,-0.6768 -41.2446,-1.3267 -61.8665,-2.0032 -19.9558,-0.6543 -39.9111,-1.3279 -59.8667,-1.9931 -19.9555,-0.6653 -39.9109,-1.3406 -59.8667,-1.993 -20.955,-0.685 -41.9111,-1.3364 -62.8659,-2.0231 -19.6228,-0.6431 -39.2449,-1.3157 -58.8672,-1.9705 -20.2888,-0.6773 -40.5774,-1.3565 -60.8665,-2.0208 -20.6218,-0.6753 -41.2444,-1.3259 -61.8662,-2.0029 -19.9558,-0.6548 -39.9072,-1.5007 -59.8677,-1.958 -35.9497,-0.824 -71.9045,-1.4207 -107.8574,-2.1123 -0.136,-1.9834 -0.3916,-3.9666 -0.3909,-5.95 0.02,-57.3957 0.066,-114.7915 0.251,-173.1169 z"
       id="path114" />
    <path
       fill="#87bdff"
       opacity="1"
       stroke="none"
       d="m 817.96863,3892.2661 c -18.01905,-3.0395 -36.23493,-5.2119 -54.02789,-9.2485 -271.77088,-61.6582 -483.74616,-273.6951 -545.09649,-545.1797 -3.88281,-17.1821 -6.29036,-34.6978 -8.32963,-52.8853 6.71312,-0.8012 12.37164,-0.7526 18.03018,-0.7519 196.39304,0.02 392.78607,0.036 589.18713,0.9639 0.0308,196.9838 0.0523,393.0559 0.0831,589.1281 9.2e-4,5.9912 0.10016,11.9824 0.15357,17.9734 z"
       id="path116" />
    <path
       fill="#4791ce"
       opacity="1"
       stroke="none"
       d="m 813.98761,817.23315 c -4.65656,0.16986 -9.31317,0.4878 -13.96973,0.48841 -192.20776,0.025 -384.41558,0.0227 -576.62336,0.0129 -3.99622,-1.9e-4 -7.99244,-0.12738 -12.95363,-0.28192 3.51841,-23.95539 6.51188,-48.21912 12.71872,-71.63099 54.28036,-204.74285 174.66308,-358.24411 360.03161,-460.41717 71.58423,-39.45645 148.43354,-64.20461 230.01111,-75.77464 0.78986,203.13307 0.78754,405.36821 0.78528,607.60337 z"
       id="path118" />
    <path
       fill="#4891ce"
       opacity="1"
       stroke="none"
       d="m 2150.5811,3682.897 c 36.0942,-0.2386 72.049,0.3581 107.9987,1.1821 19.9605,0.4573 39.9119,1.3032 59.8677,1.958 20.6218,0.677 41.2444,1.3276 61.8662,2.0029 20.2891,0.6643 40.5777,1.3435 60.8665,2.0208 19.6223,0.6548 39.2444,1.3274 58.8672,1.9705 20.9548,0.6867 41.9109,1.3381 62.8659,2.0231 19.9558,0.6524 39.9112,1.3277 59.8667,1.993 19.9556,0.6652 39.9109,1.3388 59.8667,1.9931 20.6219,0.6765 41.2447,1.3264 61.8665,2.0032 19.9558,0.655 39.9109,1.3391 59.8667,1.9927 20.9551,0.686 41.9109,1.3406 62.8659,2.0283 19.6229,0.6436 39.2449,1.3162 58.8672,1.9697 40.2444,1.3406 80.4888,2.676 120.7332,4.0149 19.9556,0.6638 39.9734,0.5632 59.8523,2.1741 30.5544,2.4751 61.0937,3.9853 91.7515,3.9929 18.9563,0 37.9184,1.012 56.8669,1.8267 26.2539,1.1289 52.4976,2.5009 78.7456,3.7693 0.6655,0.032 1.3308,0.087 1.9968,0.1018 30.6201,0.6972 61.2415,1.3379 91.8599,2.1025 24.9563,0.6233 49.9104,1.3501 74.8625,2.1162 17.959,0.5515 35.9119,1.2883 53.8702,1.8616 23.2863,0.7436 46.58,1.2961 69.8596,2.2053 4.251,0.166 8.4509,1.6441 13.5534,2.9102 -1.5485,2.6528 -3.8435,5.0766 -6.4226,7.1464 -105.1577,84.3909 -224.3991,136.0384 -358.1098,154.1561 -34.4248,4.6647 -68.9849,6.0952 -103.6856,6.082 -249.6206,-0.095 -499.2409,-0.051 -748.8615,-0.051 -85.6509,0 -171.3018,2e-4 -256.9527,0 -4.6111,0 -9.2222,-2e-4 -14.6501,-2e-4 -0.4407,-3.919 -1.0445,-6.7881 -1.0447,-9.6575 -0.01,-68.9861 0.054,-137.9724 0.2432,-207.8889 z"
       id="path120" />
    <path
       fill="#87bdff"
       opacity="1"
       stroke="none"
       d="m 1951.9746,2666.8101 c -3.5312,0.8147 -6.8623,0.665 -10.1933,0.6648 -165.329,-0.011 -330.6579,-0.011 -495.9869,0 -3.3318,0 -6.6635,0.1247 -10.8984,0.3591 -0.9032,0.1677 -0.8468,0.2302 -0.7103,-0.7034 0.1961,-3.9289 0.3081,-6.9243 0.3082,-9.9196 0.01,-198.4417 0.01,-396.8831 -0.018,-595.3247 -5e-4,-3.9847 -0.3623,-7.969 0.3791,-11.8186 52.8347,0.1804 104.7349,0.2255 156.6351,0.2709 1.3794,18.9261 2.0091,37.9419 4.267,56.7627 10.129,84.427 41.7364,160.2098 94.4071,226.8216 65.2437,82.5132 149.1279,136.7751 251.2675,162.5381 3.2041,0.8083 6.3765,1.7417 9.9621,2.726 0.3336,1.6087 0.9446,3.1802 0.9439,4.7517 -0.019,53.9927 -0.095,107.9852 -0.363,162.8724 z"
       id="path122" />
    <path
       fill="#4791ce"
       opacity="1"
       stroke="none"
       d="m 1591.6592,2049.394 c -52.0694,0.8982 -103.9696,0.8531 -156.767,0.7071 -0.8972,-0.1004 -0.8232,-0.032 -0.7776,-0.9732 0.07,-3.2715 0.1167,-5.6017 0.1168,-7.9317 0,-198.7439 0,-397.4877 -0.01,-596.2316 -10e-5,-3.6608 -0.1349,-7.3215 -0.2195,-10.9723 -0.013,0.01 -0.042,0.039 -0.042,0.039 2.3246,-0.1048 4.6493,-0.3015 6.9738,-0.3014 169.6823,0 339.3644,0.024 509.9728,0.089 1.1098,3.3656 1.4506,6.6846 1.453,10.0038 0.035,48.6273 0.025,97.2545 0.025,145.8818 0,3.6142 -10e-5,7.2283 -10e-5,11.3987 -4.8547,1.4419 -8.8811,2.7894 -12.9844,3.8344 -168.8451,42.9996 -298.0257,175.6195 -336.4025,345.4346 -7.2952,32.2806 -10.6628,65.0196 -11.3439,99.0221 z"
       id="path124" />
    <path
       fill="#86bcfe"
       opacity="1"
       stroke="none"
       d="m 1925.6831,2014.0002 c 0,57.1485 0,113.2972 0,169.7117 -8.3966,-2.1804 -174.6774,-113.364 -198.7184,-132.4436 4.1662,-5.4641 184.9994,-128.7955 197.093,-134.4209 0.2936,0.157 0.638,0.2621 0.8658,0.4861 0.2089,0.2056 0.4124,0.5386 0.4135,0.8164 0.1278,31.6167 0.2365,63.2334 0.3461,95.8503 z"
       id="path126" />
    <path
       fill="#87bdff"
       opacity="1"
       stroke="none"
       d="m 2217.3906,2159.3335 c -12.9023,8.7178 -25.219,17.019 -37.8391,25.5247 -2.3276,-8.7037 -2.6802,-257.638 -0.4209,-269.1134 66.0864,44.8179 131.7258,89.3326 198.7039,134.7552 -54.231,36.7798 -107.0447,72.5981 -160.4439,108.8335 z"
       id="path128" />
    <path
       fill="#4891ce"
       opacity="1"
       stroke="none"
       d="m 814.63837,817.729 c -0.6485,-202.73101 -0.64618,-404.96615 -0.64576,-608.08825 0.9173,-1.03183 1.83649,-1.1767 3.45282,-1.27628 0.72742,58.68295 0.7782,117.32065 0.7837,175.95831 0.0129,137.93375 0.003,275.86747 0.009,413.80118 1.2e-4,3.66431 -0.44306,7.43299 0.27575,10.95825 0.52771,2.58808 2.6203,4.85712 4.76502,7.59345 0.7406,198.61694 0.72735,396.90884 0.73065,595.20084 2.4e-4,15.7284 0.40082,16.1148 16.40051,16.1157 197.29214,0.011 394.58444,0.01 592.83184,0.01 0.9797,1.5144 1.0042,3.0282 0.876,5.2862 -0.1527,0.744 -0.1236,0.7152 -1.0492,0.7551 -6.9245,0.067 -12.9234,0.1186 -18.9221,0.1194 -198.6353,0.028 -397.2706,0.052 -596.02627,-0.049 -0.12043,-0.1242 -0.35974,-0.3744 -0.35974,-0.3744 0.0144,-200.7326 0.0449,-401.4654 -0.0619,-602.19801 -0.002,-4.43897 -1.57123,-8.8772 -3.06012,-13.81159 z"
       id="path130" />
    <path
       fill="#4891ce"
       opacity="1"
       stroke="none"
       d="m 817.72388,3284.2529 c -196.39301,-0.016 -392.78604,-0.032 -589.17908,-0.052 -5.65854,-7e-4 -11.31706,-0.049 -17.9359,-0.1211 -1.40417,-1.6382 -1.84805,-3.2307 -2.22987,-5.4524 194.98807,-0.6284 389.91406,-0.6267 584.84009,-0.6287 20.47485,-2e-4 20.7752,-0.2815 20.776,-20.5359 0.008,-195.9255 0.006,-391.8513 0.007,-588.7355 0.90107,-0.9659 1.80146,-0.9732 3.35096,-0.8521 0.64904,0.1287 0.63055,0.1106 0.69861,1.0474 0.10565,6.2683 0.17578,11.6003 0.17614,16.9321 0.0122,199.2971 0.018,398.5945 -0.10711,598.0185 -0.13178,0.1272 -0.39679,0.3799 -0.39679,0.3799 z"
       id="path132" />
    <path
       fill="#4891ce"
       opacity="1"
       stroke="none"
       d="m 818.49847,3892.6135 c -0.58325,-6.3384 -0.68249,-12.3296 -0.68341,-18.3208 -0.0308,-196.0722 -0.0523,-392.1443 -0.0831,-589.1281 -0.008,-0.9117 0.25696,-1.1644 1.29749,-1.2989 200.35335,-0.1306 399.66615,-0.1286 598.97895,-0.1128 5.3306,5e-4 10.661,0.1609 15.9916,0.2471 0.1028,0.887 0.2054,1.7737 0.256,3.3303 -196.2841,0.6697 -392.516,0.6748 -588.74785,0.6624 -22.29346,0 -21.52576,-1.1822 -21.52283,21.0183 0.0258,194.2329 0.0156,388.4658 0.0168,583.6037 -1.6574,0.7186 -3.31555,0.5323 -5.5036,0 z"
       id="path134" />
    <path
       fill="#4891ce"
       opacity="1"
       stroke="none"
       d="m 3641.8845,3732.8909 c -1.1218,-6.5369 3.2022,-8.2886 9.5225,-8.7942 -2.4763,2.8218 -5.7117,5.6784 -9.5225,8.7942 z"
       id="path210" />
    <path
       fill="#4891ce"
       opacity="1"
       stroke="none"
       d="m 818.01446,2668.0166 c -0.0605,-2.981 -0.19714,-5.9749 -0.19726,-8.9685 -0.009,-200.4038 -0.008,-400.8074 -0.004,-601.2112 0,-1.9973 0.0414,-3.9944 0.12555,-6.9145 0.0621,-0.9229 0.0408,-0.9036 0.79754,-0.8692 2.26075,0.2066 3.76478,0.3787 5.26813,1.4502 -0.004,205.8599 -0.006,410.8206 -0.75549,615.9068 -2.25256,0.2758 -3.75891,0.4255 -5.2652,0.5754 0,0 0.0185,0.018 0.0309,0.031 z"
       id="path214" />
    <path
       fill="#4891ce"
       opacity="1"
       stroke="none"
       d="m 814.67212,2050.1492 c -0.67243,-204.7884 -0.67279,-409.5139 -0.67383,-615.1714 0.83496,-1.0299 1.67059,-1.1281 3.13416,-1.2327 0.62793,-0.01 0.86724,0.2437 0.99511,1.2781 0.12024,200.0239 0.11469,399.0135 0.0944,598.003 -6.1e-4,5.6642 -0.1582,11.3284 -0.24255,16.9926 0,0 0.0214,-0.019 0.0345,-0.033 -0.88105,0.066 -1.7754,0.1463 -3.3418,0.1634 z"
       id="path216" />
    <path
       fill="#87bdff"
       opacity="1"
       stroke="none"
       d="m 818.05164,2668.9224 c 1.43823,-1.0867 2.94458,-1.2364 6.1289,-1.3911 7.00238,0.077 12.32678,0.2304 17.65113,0.2307 191.74943,0.012 383.49893,0.01 575.24833,0.023 5.6563,2e-4 11.3128,0.1816 16.9692,0.2785 0,0 -0.056,-0.062 -0.087,-0.091 0.068,3.6299 0.2512,7.2888 0.2515,10.9477 0.014,197.7408 0.013,395.4815 0.01,593.2222 -2e-4,3.3284 -0.091,6.6565 -0.1798,10.9214 -5.3708,0.8508 -10.7012,0.6904 -16.0318,0.6899 -199.3128,-0.016 -398.6256,-0.018 -598.84721,-0.014 -0.9154,-199.2898 -0.9212,-398.5872 -0.93341,-597.8843 -3.6e-4,-5.3318 -0.0705,-10.6638 -0.17614,-16.9321 z"
       id="path218" />
    <path
       fill="#4791ce"
       opacity="1"
       stroke="none"
       d="m 1434.1857,2667.1296 c -5.7929,0.8367 -11.4494,0.6553 -17.1057,0.6551 -191.7494,-0.015 -383.4989,-0.01 -575.24833,-0.023 -5.32435,-3e-4 -10.64875,-0.1536 -16.90491,-0.3567 -0.9289,-205.0813 -0.92603,-410.042 0.009,-616.0117 6.25738,-1.0801 11.58227,-1.2127 16.9071,-1.2129 160.12434,-0.011 320.24864,0 480.37304,-0.014 37.2842,0 74.5685,-0.063 111.8527,-0.098 0,3e-4 -0.074,-0.069 -0.1114,-0.103 0.1559,3.95 0.5177,7.9343 0.5182,11.919 0.028,198.4416 0.026,396.883 0.018,595.3247 -10e-5,2.9953 -0.1121,5.9907 -0.3082,9.9196 z"
       id="path220" />
    <path
       fill="#87bdff"
       opacity="1"
       stroke="none"
       d="m 1434.1146,2049.1279 c -37.3298,0.9756 -74.6141,1.0364 -111.8983,1.0391 -160.1244,0.011 -320.2487,0 -480.37304,0.014 -5.32483,2e-4 -10.64972,0.1328 -16.90643,0.3134 -2.43591,-0.062 -3.93994,-0.2343 -6.20069,-0.4409 -0.67242,-5.6986 -0.51483,-11.3628 -0.51422,-17.027 0.0203,-198.9895 0.0259,-397.9791 0.0261,-597.8787 198.62778,-0.9342 397.26308,-0.9577 595.89838,-0.9859 5.9987,-8e-4 11.9976,-0.052 18.9347,-0.1294 1.0101,3.6109 1.1449,7.2716 1.145,10.9324 0.01,198.7439 0.01,397.4877 0.01,596.2316 -10e-5,2.33 -0.046,4.6602 -0.1168,7.9317 z"
       id="path222" />
  </g>
</svg>
