/* XPM */
static char *bottom_right_active[] = {
/* columns rows colors chars-per-pixel */
"10 10 2 1 ",
"  c #F9F4F0 s inactive_color_2",
". c None",
/* pixels */
".......   ",
".......   ",
".......   ",
".......   ",
".......   ",
".......   ",
".......   ",
"          ",
"          ",
"          "
};
