/* XPM */
static char *close_inactive[] = {
/* columns rows colors chars-per-pixel */
"12 34 9 1 ",
"  c #959595",
". c #A1A1A0",
"X c #A2A1A1",
"o c #AEACAB",
"O c #AEADAB",
"+ c #AEADAC",
"@ c #ECE8E4",
"# c #EDE8E5",
"$ c #F9F4F0 s inactive_color_2",
/* pixels */
"$$$$$$$$$$$$",
"$$$$$$$$$$$$",
"$$$$$$$$$$$$",
"$$$$$$$$$$$$",
"$$$$$$$$$$$$",
"$$$$$$$$$$$$",
"$$$$$$$$$$$$",
"$$$$$$$$$$$$",
"$$$$$$$$$$$$",
"$$$$$$$$$$$$",
"$$$$$$$$$$$$",
"#+#$$$$$$#+#",
"O .#$$$$#. +",
"#. .#$$#. .#",
"$#. .##. .#$",
"$$@. .. .#$$",
"$$$@.  .#$$$",
"$$$#.  .#$$$",
"$$#. .. .#$$",
"$#. .@@. .#$",
"#. .#$$#. .#",
"O .#$$$$#. +",
"@O#$$$$$$#+#",
"$$$$$$$$$$$$",
"$$$$$$$$$$$$",
"$$$$$$$$$$$$",
"$$$$$$$$$$$$",
"$$$$$$$$$$$$",
"$$$$$$$$$$$$",
"$$$$$$$$$$$$",
"$$$$$$$$$$$$",
"$$$$$$$$$$$$",
"$$$$$$$$$$$$",
"$$$$$$$$$$$$"
};
