/* XPM */
static char *close_active[] = {
/* columns rows colors chars-per-pixel */
"12 34 8 1 ",
"  c #F2324B",
". c #F34A5F",
"X c #F34A60",
"o c #F36274",
"O c #F46374",
"+ c #F8DBDB",
"@ c #F8DCDC",
"# c #F9F4F0 s inactive_color_2",
/* pixels */
"############",
"############",
"############",
"############",
"############",
"############",
"############",
"############",
"############",
"############",
"############",
"@O@######@O@",
"o X@####@X O",
"+. X@##@X .+",
"#+. X@@X .+#",
"##+. XX .+##",
"###+.  .+###",
"###@X  X@###",
"##@X .. X@##",
"#@X .++. X@#",
"@X .+##+. X@",
"o .+####+. O",
"+o+######+o+",
"############",
"############",
"############",
"############",
"############",
"############",
"############",
"############",
"############",
"############",
"############"
};
