/* XPM */
static char *close_pressed[] = {
/* columns rows colors chars-per-pixel */
"12 34 8 1 ",
"  c #DB1C35",
". c #DE374C",
"X c #DF374D",
"o c #E25263",
"O c #E35264",
"+ c #F5D9D8",
"@ c #F5D9D9",
"# c #F9F4F0 s inactive_color_2",
/* pixels */
"############",
"############",
"############",
"############",
"############",
"############",
"############",
"############",
"############",
"############",
"############",
"@O@######@O@",
"o .@####@X O",
"@. .@##@X .+",
"#@. X@@X .@#",
"##+. XX .@##",
"###+.  .+###",
"###@X  X@###",
"##@X .. X@##",
"#@X .++. X@#",
"@X .+##+. X@",
"o .+####+. O",
"+o+######+o+",
"############",
"############",
"############",
"############",
"############",
"############",
"############",
"############",
"############",
"############",
"############"
};
