/* XPM */
static char *close_prelight[] = {
/* columns rows colors chars-per-pixel */
"12 34 8 1 ",
"  c #F5677A",
". c #F57888",
"X c #F67989",
"o c #F68A97",
"O c #F68A98",
"+ c #F8E2E1",
"@ c #F9E3E1",
"# c #F9F4F0 s inactive_color_2",
/* pixels */
"############",
"############",
"############",
"############",
"############",
"############",
"############",
"############",
"############",
"############",
"############",
"@O@######@O@",
"o .@####@. O",
"@. .@##@. .@",
"#@. .@@. .@#",
"##+. .. .@##",
"###@.  .@###",
"###@.  .@###",
"##@X .. .@##",
"#@. .@@. .@#",
"@. .@##@. X@",
"O .@####@. O",
"+O@######@O@",
"############",
"############",
"############",
"############",
"############",
"############",
"############",
"############",
"############",
"############",
"############"
};
