/* XPM */
static char *hide_inactive[] = {
/* columns rows colors chars-per-pixel */
"12 34 8 1 ",
"  c #959595",
". c #AEADAB",
"X c #AEACAC",
"o c #AEADAC",
"O c #C1BFBD",
"+ c #D4D0CD",
"@ c #E0DCD9",
"# c #F9F4F0 s inactive_color_2",
/* pixels */
"############",
"############",
"############",
"############",
"############",
"############",
"############",
"############",
"############",
"############",
"############",
"#####@@#####",
"#####.X#####",
"####@  @####",
"####.X.X####",
"###@ @@ @###",
"###.X##.X###",
"##@ @##@ @##",
"##.X####.X##",
"#@ @####@ @#",
"#.X######.X#",
"@ O++++++O @",
".          X",
"############",
"############",
"############",
"############",
"############",
"############",
"############",
"############",
"############",
"############",
"############"
};
