/* XPM */
static char *hide_prelight[] = {
/* columns rows colors chars-per-pixel */
"12 34 8 1 ",
"  c #C361A1",
". c #D086B4",
"X c #D186B5",
"o c #DAA1C4",
"O c #E5BDD2",
"+ c #EBCFDC",
"@ c #ECCFDC",
"# c #F9F4F0 s inactive_color_2",
/* pixels */
"############",
"############",
"############",
"############",
"############",
"############",
"############",
"############",
"############",
"############",
"############",
"#####@@#####",
"#####..#####",
"####+  @####",
"####....####",
"###+ @@ @###",
"###..##..###",
"##@ @##@ @##",
"##..####..##",
"#@ @####@ @#",
"#..######..#",
"@ oOOOOOOo @",
".          .",
"############",
"############",
"############",
"############",
"############",
"############",
"############",
"############",
"############",
"############",
"############"
};
