/* XPM */
static char *hide_pressed[] = {
/* columns rows colors chars-per-pixel */
"12 34 8 1 ",
"  c #A5327D",
". c #BA6399",
"X c #BA629A",
"o c #CA87B0",
"O c #D9ACC4",
"+ c #E4C3D3",
"@ c #E4C4D3",
"# c #F9F4F0 s inactive_color_2",
/* pixels */
"############",
"############",
"############",
"############",
"############",
"############",
"############",
"############",
"############",
"############",
"############",
"#####++#####",
"#####..#####",
"####@  +####",
"####....####",
"###@ ++ +###",
"###.X##X.###",
"##+ +##+ +##",
"##.X####..##",
"#+ +####+ +#",
"#..######..#",
"+ oOOOOOOo +",
".          X",
"############",
"############",
"############",
"############",
"############",
"############",
"############",
"############",
"############",
"############",
"############"
};
