/* XPM */
static char *maximize_active[] = {
/* columns rows colors chars-per-pixel */
"12 34 6 1 ",
"  c #048ABF",
". c #1391C2",
"X c #1491C2",
"o c #41A4CB",
"O c #41A5CB",
"+ c #F9F4F0 s inactive_color_2",
/* pixels */
"++++++++++++",
"++++++++++++",
"++++++++++++",
"++++++++++++",
"++++++++++++",
"++++++++++++",
"++++++++++++",
"++++++++++++",
"++++++++++++",
"++++++++++++",
"++++++++++++",
"            ",
" .oooooooo. ",
" o++++++++o ",
" o++++++++o ",
" o++++++++o ",
" o++++++++o ",
" o++++++++o ",
" o++++++++o ",
" o++++++++o ",
" o++++++++o ",
" .OOOOOOooX ",
"            ",
"++++++++++++",
"++++++++++++",
"++++++++++++",
"++++++++++++",
"++++++++++++",
"++++++++++++",
"++++++++++++",
"++++++++++++",
"++++++++++++",
"++++++++++++",
"++++++++++++"
};
