/* XPM */
static char *maximize_toggled_inactive[] = {
/* columns rows colors chars-per-pixel */
"12 34 9 1 ",
"  c #959595",
". c #9B9B9A",
"X c #9B9B9B",
"o c #9C9B9B",
"O c #AEACAB",
"+ c #AEADAB",
"@ c #AEACAC",
"# c #AEADAC",
"$ c #F9F4F0 s inactive_color_2",
/* pixels */
"$$$$$$$$$$$$",
"$$$$$$$$$$$$",
"$$$$$$$$$$$$",
"$$$$$$$$$$$$",
"$$$$$$$$$$$$",
"$$$$$$$$$$$$",
"$$$$$$$$$$$$",
"$$$$$$$$$$$$",
"$$$$$$$$$$$$",
"$$$$$$$$$$$$",
"$$$$$$$$$$$$",
"            ",
" .OOOOOOOO. ",
" @$$$$$$$$O ",
" @$$$$$$$$O ",
" @$$$$$$$$O ",
" @$$$$$$$$O ",
" @$$$$$$$$O ",
" @$$$$$$$$O ",
" @$$$$$$$$@ ",
" @$$$$$$$$O ",
" X######@@o ",
"            ",
"$$$$$$$$$$$$",
"$$$$$$$$$$$$",
"$$$$$$$$$$$$",
"$$$$$$$$$$$$",
"$$$$$$$$$$$$",
"$$$$$$$$$$$$",
"$$$$$$$$$$$$",
"$$$$$$$$$$$$",
"$$$$$$$$$$$$",
"$$$$$$$$$$$$",
"$$$$$$$$$$$$"
};
