/* XPM */
static char *maximize_toggled_pressed[] = {
/* columns rows colors chars-per-pixel */
"12 34 6 1 ",
"  c #046F9A",
". c #13779F",
"X c #14779F",
"o c #4190AF",
"O c #4190B0",
"+ c #F9F4F0 s inactive_color_2",
/* pixels */
"++++++++++++",
"++++++++++++",
"++++++++++++",
"++++++++++++",
"++++++++++++",
"++++++++++++",
"++++++++++++",
"++++++++++++",
"++++++++++++",
"++++++++++++",
"++++++++++++",
"            ",
" .oooooooo. ",
" o++++++++O ",
" o++++++++O ",
" o++++++++O ",
" o++++++++O ",
" o++++++++O ",
" o++++++++O ",
" o++++++++O ",
" o++++++++O ",
" .OOOOOOOOX ",
"            ",
"++++++++++++",
"++++++++++++",
"++++++++++++",
"++++++++++++",
"++++++++++++",
"++++++++++++",
"++++++++++++",
"++++++++++++",
"++++++++++++",
"++++++++++++",
"++++++++++++"
};
