<svg width="1024" height="1024" viewBox="0 0 1024 1024" fill="none" xmlns="http://www.w3.org/2000/svg">
<rect x="37" y="37" width="950" height="950" rx="150" fill="url(#paint0_linear)"/>
<path d="M102.902 215.309C105.306 137.635 166.635 74.6586 244.218 70.1968L717.576 42.9742C773.957 39.7317 821.457 84.5787 821.457 141.053V158.414C821.457 203.083 857.668 239.293 902.336 239.293V239.293C948.456 239.293 985.239 277.798 983.131 323.869L962.272 779.855C958.608 859.948 892.606 923 812.428 923H235.714C151.053 923 83.167 852.98 85.7859 768.36L102.902 215.309Z" fill="url(#paint1_linear)"/>
<path d="M37 187C37 104.157 104.157 37 187 37H633.533C700.654 37 755.066 91.4123 755.066 158.533V164.1C755.066 228.146 806.987 280.066 871.033 280.066V280.066C935.08 280.066 987 331.987 987 396.033V837C987 919.843 919.843 987 837 987H187C104.157 987 37 919.843 37 837V187Z" fill="url(#paint2_linear)"/>
<path d="M647.801 464.157L737 398.745L610.154 322.486L519.928 382.637L429.701 322.487L287 397.99L377.359 467.599L302.101 536.916L376.094 580.112V610.154C376.094 612.419 377.605 614.684 379.87 616.194L505.835 698.442C506.464 699.345 507.272 700.122 508.226 700.758C509.736 701.512 510.491 701.512 512.001 701.512C512.922 701.512 513.561 701.51 514.262 700.997C514.882 700.719 515.417 700.362 515.776 700.003L644.132 616.949C646.397 616.194 647.907 613.173 647.907 610.908V575.015L721.901 527.855L647.801 464.157ZM511.734 533.832L404.272 467.564L519.374 400.421L620.068 464.017L511.734 533.832ZM585.993 596.564L524.835 543.712L634.315 473.494L696.227 527.101L585.993 596.564ZM610.154 340.608L709.819 400.255L636.082 454.083L635.825 453.863L633.893 455.108L533.505 392.178L533.896 391.949L533.518 391.698L610.154 340.608ZM428.191 340.608L505.204 391.95L389.684 458.393L314.181 401.01L428.191 340.608ZM390.44 476.514L499.135 543.23L439.517 598.829L387.42 568.628C387.024 568.363 386.599 568.163 386.164 567.991L327.772 533.896L390.44 476.514ZM391.195 589.013L436.497 615.439C437.065 615.865 437.659 616.184 438.265 616.406L441.782 618.459L464.643 597.066L504.45 560.321V680.372L391.195 606.378V589.013H391.195ZM589.013 613.174L632.805 585.238V607.135L519.55 680.373V559.567L579.953 612.419C580.759 613.225 581.758 613.739 582.845 614.005L584.483 615.439L586.775 613.978C587.543 613.8 588.3 613.531 589.013 613.174Z" fill="#026D98"/>
<defs>
<linearGradient id="paint0_linear" x1="792.5" y1="176.5" x2="970" y2="60" gradientUnits="userSpaceOnUse">
<stop offset="0.351574" stop-color="#027AAA"/>
<stop offset="1" stop-color="#1687BA"/>
</linearGradient>
<linearGradient id="paint1_linear" x1="120.374" y1="885.108" x2="863.678" y2="125.714" gradientUnits="userSpaceOnUse">
<stop/>
<stop offset="1" stop-opacity="0"/>
</linearGradient>
<linearGradient id="paint2_linear" x1="926.697" y1="952.674" x2="230.896" y2="103.797" gradientUnits="userSpaceOnUse">
<stop stop-color="#1385B8"/>
<stop offset="1" stop-color="#73D2F6"/>
</linearGradient>
</defs>
</svg>
