<svg width="1024" height="1024" viewBox="0 0 1024 1024" fill="none" xmlns="http://www.w3.org/2000/svg">
<rect x="37" y="37" width="950" height="950" rx="150" fill="url(#paint0_linear)"/>
<path d="M102.902 215.309C105.306 137.635 166.635 74.6586 244.218 70.1968L717.576 42.9742C773.957 39.7317 821.457 84.5787 821.457 141.053V158.414C821.457 203.083 857.668 239.293 902.336 239.293V239.293C948.456 239.293 985.239 277.798 983.131 323.869L962.272 779.855C958.608 859.948 892.606 923 812.428 923H235.714C151.053 923 83.167 852.98 85.7859 768.36L102.902 215.309Z" fill="url(#paint1_linear)"/>
<path d="M37 187C37 104.157 104.157 37 187 37H633.533C700.654 37 755.066 91.4123 755.066 158.533V164.1C755.066 228.146 806.987 280.066 871.033 280.066V280.066C935.08 280.066 987 331.987 987 396.033V837C987 919.843 919.843 987 837 987H187C104.157 987 37 919.843 37 837V187Z" fill="url(#paint2_linear)"/>
<path d="M683.875 343.25H340.125C334.325 343.256 328.765 345.563 324.664 349.664C320.563 353.765 318.256 359.325 318.25 365.125V608.875C318.256 614.675 320.563 620.235 324.664 624.336C328.765 628.437 334.325 630.744 340.125 630.75H465.828L457.492 655.75H443.25C441.592 655.75 440.003 656.408 438.831 657.581C437.658 658.753 437 660.342 437 662V674.5H393.25C391.592 674.5 390.003 675.158 388.831 676.331C387.658 677.503 387 679.092 387 680.75C387 682.408 387.658 683.997 388.831 685.169C390.003 686.342 391.592 687 393.25 687H630.75C632.408 687 633.997 686.342 635.169 685.169C636.342 683.997 637 682.408 637 680.75C637 679.092 636.342 677.503 635.169 676.331C633.997 675.158 632.408 674.5 630.75 674.5H587V662C587 660.342 586.342 658.753 585.169 657.581C583.997 656.408 582.408 655.75 580.75 655.75H566.508L558.172 630.75H683.875C689.675 630.744 695.235 628.437 699.336 624.336C703.437 620.235 705.744 614.675 705.75 608.875V365.125C705.744 359.325 703.437 353.765 699.336 349.664C695.235 345.563 689.675 343.256 683.875 343.25ZM574.5 668.25V674.5H449.5V668.25H574.5ZM470.672 655.75L479.008 630.75H544.992L553.328 655.75H470.672ZM693.25 608.875C693.248 611.361 692.26 613.744 690.502 615.502C688.744 617.26 686.361 618.248 683.875 618.25H340.125C337.639 618.248 335.256 617.26 333.498 615.502C331.74 613.744 330.752 611.361 330.75 608.875V580.75H693.25V608.875ZM693.25 568.25H330.75V365.125C330.752 362.639 331.74 360.256 333.498 358.498C335.256 356.74 337.639 355.752 340.125 355.75H683.875C686.361 355.752 688.744 356.74 690.502 358.498C692.26 360.256 693.248 362.639 693.25 365.125V568.25Z" fill="#026D98"/>
<defs>
<linearGradient id="paint0_linear" x1="792.5" y1="176.5" x2="970" y2="60" gradientUnits="userSpaceOnUse">
<stop offset="0.351574" stop-color="#027AAA"/>
<stop offset="1" stop-color="#1687BA"/>
</linearGradient>
<linearGradient id="paint1_linear" x1="120.374" y1="885.108" x2="863.678" y2="125.714" gradientUnits="userSpaceOnUse">
<stop/>
<stop offset="1" stop-opacity="0"/>
</linearGradient>
<linearGradient id="paint2_linear" x1="926.697" y1="952.674" x2="230.896" y2="103.797" gradientUnits="userSpaceOnUse">
<stop stop-color="#1385B8"/>
<stop offset="1" stop-color="#73D2F6"/>
</linearGradient>
</defs>
</svg>
