<svg width="1024" height="1024" viewBox="0 0 1024 1024" fill="none" xmlns="http://www.w3.org/2000/svg">
<rect x="37" y="37" width="950" height="950" rx="150" fill="url(#paint0_linear)"/>
<path d="M102.902 215.309C105.306 137.635 166.635 74.6586 244.218 70.1968L717.576 42.9742C773.957 39.7317 821.457 84.5787 821.457 141.053V158.414C821.457 203.083 857.668 239.293 902.336 239.293C948.456 239.293 985.239 277.798 983.131 323.869L962.272 779.855C958.608 859.948 892.606 923 812.428 923H235.714C151.053 923 83.167 852.98 85.786 768.36L102.902 215.309Z" fill="url(#paint1_linear)"/>
<path d="M37 187C37 104.157 104.157 37 187 37H633.533C700.654 37 755.066 91.4123 755.066 158.533V164.1C755.066 228.146 806.987 280.066 871.033 280.066C935.08 280.066 987 331.987 987 396.033V837C987 919.843 919.843 987 837 987H187C104.157 987 37 919.843 37 837V187Z" fill="url(#paint2_linear)"/>
<g clip-path="url(#clip0)">
<path d="M696.1 492.45C710.9 482.05 720.7 464.75 720.7 445.25C720.7 413.35 694.9 387.55 663 387.55C631.1 387.55 605.3 413.35 605.3 445.25C605.3 464.75 615 482.05 629.9 492.45C617.2 496.85 605.6 503.65 595.8 512.45C582.3 500.95 566.4 492.15 549 486.95C570.1 474.15 584.3 450.85 584.3 424.35C584.3 383.95 551.6 351.25 511.2 351.25C470.8 351.25 438.1 384.05 438.1 424.35C438.1 450.85 452.2 474.15 473.4 486.95C456.2 492.15 440.5 500.85 427.1 512.15C417.3 503.55 405.9 496.85 393.4 492.55C408.2 482.15 418 464.85 418 445.35C418 413.45 392.2 387.65 360.3 387.65C328.4 387.65 302.6 413.45 302.6 445.35C302.6 464.85 312.3 482.15 327.2 492.55C287.5 506.25 259 543.95 259 588.25V594.85C259 595.05 259.2 595.25 259.4 595.25H381.7C381 600.75 380.6 606.45 380.6 612.15V618.95C380.6 648.35 404.4 672.15 433.8 672.15H588.8C618.2 672.15 642 648.35 642 618.95V612.15C642 606.45 641.6 600.75 640.9 595.25H764C764.2 595.25 764.4 595.05 764.4 594.85V588.25C764.2 543.85 735.8 506.15 696.1 492.45ZM621.3 445.15C621.3 422.15 640 403.45 663 403.45C686 403.45 704.7 422.15 704.7 445.15C704.7 467.85 686.4 486.35 663.8 486.85C663.5 486.85 663.3 486.85 663 486.85C662.7 486.85 662.5 486.85 662.2 486.85C639.5 486.45 621.3 467.95 621.3 445.15ZM453.9 424.35C453.9 392.85 479.5 367.25 511 367.25C542.5 367.25 568.1 392.85 568.1 424.35C568.1 454.75 544.2 479.65 514.3 481.35C513.2 481.35 512.1 481.35 511 481.35C509.9 481.35 508.8 481.35 507.7 481.35C477.8 479.65 453.9 454.75 453.9 424.35ZM318.3 445.15C318.3 422.15 337 403.45 360 403.45C383 403.45 401.7 422.15 401.7 445.15C401.7 467.85 383.4 486.35 360.8 486.85C360.5 486.85 360.3 486.85 360 486.85C359.7 486.85 359.5 486.85 359.2 486.85C336.6 486.45 318.3 467.95 318.3 445.15ZM384.5 579.15H275.2C279.7 536.55 315.7 503.15 359.4 502.85C359.6 502.85 359.8 502.85 360 502.85C360.2 502.85 360.4 502.85 360.6 502.85C381.4 502.95 400.4 510.65 415.1 523.15C400.7 538.75 390 557.95 384.5 579.15ZM625.8 618.95C625.8 639.45 609.1 656.15 588.6 656.15H433.6C413.1 656.15 396.4 639.45 396.4 618.95V612.15C396.4 550.05 446 499.25 507.7 497.45C508.8 497.55 510 497.55 511.1 497.55C512.2 497.55 513.4 497.55 514.5 497.45C576.2 499.25 625.8 550.05 625.8 612.15V618.95V618.95ZM637.7 579.15C632.2 558.05 621.7 539.15 607.4 523.55C622.2 510.75 641.4 503.05 662.4 502.85C662.6 502.85 662.8 502.85 663 502.85C663.2 502.85 663.4 502.85 663.6 502.85C707.3 503.15 743.3 536.55 747.8 579.15H637.7Z" fill="#026D98"/>
</g>
<defs>
<linearGradient id="paint0_linear" x1="792.5" y1="176.5" x2="970" y2="60" gradientUnits="userSpaceOnUse">
<stop offset="0.351574" stop-color="#027AAA"/>
<stop offset="1" stop-color="#1687BA"/>
</linearGradient>
<linearGradient id="paint1_linear" x1="120.374" y1="885.108" x2="863.678" y2="125.714" gradientUnits="userSpaceOnUse">
<stop/>
<stop offset="1" stop-opacity="0"/>
</linearGradient>
<linearGradient id="paint2_linear" x1="926.697" y1="952.674" x2="230.896" y2="103.797" gradientUnits="userSpaceOnUse">
<stop stop-color="#1385B8"/>
<stop offset="1" stop-color="#73D2F6"/>
</linearGradient>
<clipPath id="clip0">
<rect width="505.4" height="505.4" fill="white" transform="translate(259 259)"/>
</clipPath>
</defs>
</svg>
