<svg width="1024" height="1024" viewBox="0 0 1024 1024" fill="none" xmlns="http://www.w3.org/2000/svg">
<rect x="37" y="37" width="950" height="950" rx="150" fill="url(#paint0_linear)"/>
<path d="M102.902 215.309C105.306 137.635 166.635 74.6586 244.218 70.1968L717.576 42.9742C773.957 39.7317 821.457 84.5787 821.457 141.053V158.414C821.457 203.083 857.668 239.293 902.336 239.293C948.456 239.293 985.239 277.798 983.131 323.869L962.272 779.855C958.608 859.948 892.606 923 812.428 923H235.714C151.053 923 83.167 852.98 85.786 768.36L102.902 215.309Z" fill="url(#paint1_linear)"/>
<path d="M37 187C37 104.157 104.157 37 187 37H633.533C700.654 37 755.066 91.4123 755.066 158.533V164.1C755.066 228.146 806.987 280.066 871.033 280.066C935.08 280.066 987 331.987 987 396.033V837C987 919.843 919.843 987 837 987H187C104.157 987 37 919.843 37 837V187Z" fill="url(#paint2_linear)"/>
<g clip-path="url(#clip0)">
<path d="M712 344H312C289.92 344.026 272.026 361.92 272 384V640C272.026 662.08 289.92 679.974 312 680H712C714.245 680.009 716.486 679.813 718.696 679.416C737.945 676.194 752.037 659.517 752 640V384C751.974 361.919 734.08 344.026 712 344ZM312 664C299.565 663.998 289.19 654.499 288.096 642.112L447.6 537.824L609.808 664H312ZM736 640C736.013 651.742 727.508 661.761 715.92 663.656C714.626 663.889 713.314 664.004 712 664H635.864L529.872 581.512L624.656 505.72L736 572.528V640ZM736 553.872L628.12 489.144C625.252 487.419 621.614 487.662 619 489.752L516.864 571.432L452.904 521.688C450.209 519.594 446.483 519.439 443.624 521.304L288 623.056V384C288 370.745 298.745 360 312 360H712C725.255 360 736 370.745 736 384V553.872Z" fill="#026D98"/>
<path d="M512 392C485.49 392 464 413.49 464 440C464.026 466.499 485.501 487.974 512 488C538.51 488 560 466.51 560 440C560 413.49 538.51 392 512 392ZM512 472C494.327 472 480 457.673 480 440C480 422.327 494.327 408 512 408C529.673 408 544 422.327 544 440C544 457.673 529.673 472 512 472Z" fill="#026D98"/>
</g>
<defs>
<linearGradient id="paint0_linear" x1="792.5" y1="176.5" x2="970" y2="60" gradientUnits="userSpaceOnUse">
<stop offset="0.351574" stop-color="#027AAA"/>
<stop offset="1" stop-color="#1687BA"/>
</linearGradient>
<linearGradient id="paint1_linear" x1="120.374" y1="885.108" x2="863.678" y2="125.714" gradientUnits="userSpaceOnUse">
<stop/>
<stop offset="1" stop-opacity="0"/>
</linearGradient>
<linearGradient id="paint2_linear" x1="926.697" y1="952.674" x2="230.896" y2="103.797" gradientUnits="userSpaceOnUse">
<stop stop-color="#1385B8"/>
<stop offset="1" stop-color="#73D2F6"/>
</linearGradient>
<clipPath id="clip0">
<rect width="480" height="480" fill="white" transform="translate(272 272)"/>
</clipPath>
</defs>
</svg>
