<svg width="1024" height="1024" viewBox="0 0 1024 1024" fill="none" xmlns="http://www.w3.org/2000/svg">
<rect x="37" y="37" width="950" height="950" rx="150" fill="url(#paint0_linear)"/>
<path d="M102.902 215.309C105.306 137.635 166.635 74.6586 244.218 70.1968L717.576 42.9742C773.957 39.7317 821.457 84.5787 821.457 141.053V158.414C821.457 203.083 857.668 239.293 902.336 239.293V239.293C948.456 239.293 985.239 277.798 983.131 323.869L962.272 779.855C958.608 859.948 892.606 923 812.428 923H235.714C151.053 923 83.167 852.98 85.7859 768.36L102.902 215.309Z" fill="url(#paint1_linear)"/>
<path d="M37 187C37 104.157 104.157 37 187 37H633.533C700.654 37 755.066 91.4123 755.066 158.533V164.1C755.066 228.146 806.987 280.066 871.033 280.066V280.066C935.08 280.066 987 331.987 987 396.033V837C987 919.843 919.843 987 837 987H187C104.157 987 37 919.843 37 837V187Z" fill="url(#paint2_linear)"/>
<path d="M664.044 326.844H359.956C358.508 326.847 357.12 327.425 356.097 328.45C355.074 329.475 354.5 330.864 354.5 332.313V691.688C354.5 693.138 355.076 694.529 356.102 695.555C357.127 696.58 358.518 697.156 359.969 697.156H664.056C665.507 697.156 666.898 696.58 667.923 695.555C668.949 694.529 669.525 693.138 669.525 691.688V332.313C669.525 331.593 669.383 330.881 669.108 330.217C668.832 329.553 668.428 328.949 667.919 328.441C667.41 327.933 666.805 327.531 666.14 327.256C665.475 326.982 664.763 326.842 664.044 326.844V326.844ZM658.575 686.219H365.438V337.781H658.563L658.575 686.219Z" fill="#026D98"/>
<path d="M387.6 448.359H512C513.45 448.359 514.841 447.783 515.867 446.758C516.893 445.732 517.469 444.341 517.469 442.891V387.6C517.468 386.15 516.892 384.759 515.866 383.734C514.841 382.709 513.45 382.132 512 382.131H387.6C386.15 382.132 384.759 382.709 383.734 383.734C382.709 384.759 382.132 386.15 382.131 387.6V442.891C382.131 444.341 382.708 445.732 383.733 446.758C384.759 447.783 386.15 448.359 387.6 448.359V448.359ZM393.069 393.069H506.531V437.422H393.069V393.069Z" fill="#026D98"/>
<path d="M554.187 642.656H636.487C637.938 642.656 639.329 642.08 640.354 641.055C641.38 640.029 641.956 638.638 641.956 637.188V581.897C641.957 581.179 641.815 580.467 641.541 579.804C641.266 579.14 640.863 578.537 640.355 578.029C639.847 577.521 639.244 577.118 638.581 576.844C637.917 576.569 637.206 576.428 636.487 576.428H554.187C552.737 576.428 551.346 577.004 550.321 578.03C549.295 579.056 548.719 580.447 548.719 581.897V637.188C548.72 638.638 549.296 640.028 550.321 641.054C551.347 642.079 552.737 642.656 554.187 642.656V642.656ZM559.656 587.366H631.019V631.719H559.656V587.366Z" fill="#026D98"/>
<path d="M554.188 545.125H636.4C637.85 545.125 639.241 544.549 640.267 543.523C641.293 542.498 641.869 541.107 641.869 539.656V387.119C641.869 385.668 641.293 384.277 640.267 383.252C639.241 382.226 637.85 381.65 636.4 381.65H554.188C552.737 381.65 551.346 382.226 550.321 383.252C549.295 384.277 548.719 385.668 548.719 387.119V539.644C548.717 540.363 548.857 541.075 549.131 541.74C549.406 542.405 549.808 543.01 550.316 543.519C550.824 544.028 551.427 544.432 552.092 544.707C552.756 544.983 553.468 545.125 554.188 545.125V545.125ZM559.656 392.6H630.931V534.187H559.656V392.6Z" fill="#026D98"/>
<path d="M511.687 474.328C508.647 472.048 504.834 471.052 501.068 471.553C497.301 472.055 493.881 474.014 491.544 477.009L412.231 577.625C407.351 578.323 402.687 580.095 398.576 582.815C394.464 585.534 391.008 589.132 388.456 593.35C381.222 605.269 380.644 622.1 386.95 638.35C387.293 639.216 387.85 639.98 388.569 640.571C389.289 641.162 390.147 641.56 391.062 641.728C391.982 641.897 392.93 641.829 393.817 641.531C394.703 641.234 395.5 640.715 396.131 640.025C399.294 637.073 403.184 635.014 407.403 634.056C424.591 630.275 435.216 624.325 439.928 615.869C442.738 610.66 443.371 604.549 441.687 598.875L514.906 494.4C517.107 491.3 518.003 487.46 517.401 483.706C516.799 479.952 514.747 476.585 511.687 474.328V474.328ZM430.378 610.578C427.375 615.978 418.622 620.413 404.825 623.456C401.387 624.359 398.077 625.693 394.975 627.428C392.419 616.775 393.384 606.341 397.816 599.038C399.521 596.195 401.838 593.768 404.597 591.93C407.356 590.092 410.488 588.891 413.769 588.413L416.269 590.288L431.025 601.259C431.548 602.776 431.759 604.383 431.647 605.984C431.534 607.585 431.099 609.146 430.369 610.575L430.378 610.578ZM505.972 488.122L434.444 590.166L425.353 583.406L422.994 581.653L500.125 483.778C500.705 483.017 501.562 482.516 502.51 482.383C503.457 482.249 504.419 482.495 505.187 483.066C505.955 483.637 506.467 484.487 506.612 485.433C506.757 486.379 506.524 487.344 505.962 488.119L505.972 488.122Z" fill="#026D98"/>
<defs>
<linearGradient id="paint0_linear" x1="792.5" y1="176.5" x2="970" y2="60" gradientUnits="userSpaceOnUse">
<stop offset="0.351574" stop-color="#027AAA"/>
<stop offset="1" stop-color="#1687BA"/>
</linearGradient>
<linearGradient id="paint1_linear" x1="120.374" y1="885.108" x2="863.678" y2="125.714" gradientUnits="userSpaceOnUse">
<stop/>
<stop offset="1" stop-opacity="0"/>
</linearGradient>
<linearGradient id="paint2_linear" x1="926.697" y1="952.674" x2="230.896" y2="103.797" gradientUnits="userSpaceOnUse">
<stop stop-color="#1385B8"/>
<stop offset="1" stop-color="#73D2F6"/>
</linearGradient>
</defs>
</svg>
