<svg width="1024" height="1024" viewBox="0 0 1024 1024" fill="none" xmlns="http://www.w3.org/2000/svg">
<rect x="37" y="37" width="950" height="950" rx="150" fill="url(#paint0_linear)"/>
<path d="M102.902 215.309C105.306 137.635 166.635 74.6586 244.218 70.1968L717.576 42.9742C773.957 39.7317 821.457 84.5787 821.457 141.053V158.414C821.457 203.083 857.668 239.293 902.336 239.293V239.293C948.456 239.293 985.239 277.798 983.131 323.869L962.272 779.855C958.608 859.948 892.606 923 812.428 923H235.714C151.053 923 83.167 852.98 85.7859 768.36L102.902 215.309Z" fill="url(#paint1_linear)"/>
<path d="M37 187C37 104.157 104.157 37 187 37H633.533C700.654 37 755.066 91.4123 755.066 158.533V164.1C755.066 228.146 806.987 280.066 871.033 280.066V280.066C935.08 280.066 987 331.987 987 396.033V837C987 919.843 919.843 987 837 987H187C104.157 987 37 919.843 37 837V187Z" fill="url(#paint2_linear)"/>
<g clip-path="url(#clip0)">
<path d="M709.696 499.695C702.9 499.695 697.391 505.204 697.391 512C697.391 614.224 614.225 697.389 512.002 697.389C409.777 697.389 326.612 614.224 326.612 512C326.612 409.775 409.777 326.61 512.002 326.61C543.172 326.61 573.493 334.35 600.561 349.097L585.178 364.48C581.659 368 580.606 373.291 582.51 377.89C584.415 382.488 588.901 385.486 593.878 385.486H652.754C659.55 385.486 665.059 379.977 665.059 373.181V314.306C665.059 309.329 662.061 304.842 657.463 302.938C652.863 301.032 647.571 302.085 644.053 305.605L618.61 331.049C586.38 312.02 549.737 302.002 512.001 302.002C455.908 302.002 403.172 323.846 363.509 363.508C323.845 403.173 302.002 455.908 302.002 512C302.002 568.093 323.845 620.828 363.509 660.492C403.173 700.156 455.908 722 512.001 722C568.093 722 620.829 700.156 660.492 660.492C700.156 620.828 721.999 568.093 721.999 512C722 505.204 716.491 499.695 709.696 499.695Z" fill="#026D98"/>
<path d="M591.078 499.695H524.306V432.922C524.306 426.126 518.796 420.617 512.001 420.617C505.205 420.617 499.696 426.126 499.696 432.922V512C499.696 518.795 505.205 524.304 512.001 524.304H591.078C597.873 524.304 603.382 518.795 603.382 512C603.382 505.204 597.873 499.695 591.078 499.695Z" fill="#026D98"/>
</g>
<defs>
<linearGradient id="paint0_linear" x1="792.5" y1="176.5" x2="970" y2="60" gradientUnits="userSpaceOnUse">
<stop offset="0.351574" stop-color="#027AAA"/>
<stop offset="1" stop-color="#1687BA"/>
</linearGradient>
<linearGradient id="paint1_linear" x1="120.374" y1="885.108" x2="863.678" y2="125.714" gradientUnits="userSpaceOnUse">
<stop/>
<stop offset="1" stop-opacity="0"/>
</linearGradient>
<linearGradient id="paint2_linear" x1="926.697" y1="952.674" x2="230.896" y2="103.797" gradientUnits="userSpaceOnUse">
<stop stop-color="#1385B8"/>
<stop offset="1" stop-color="#73D2F6"/>
</linearGradient>
<clipPath id="clip0">
<rect width="420" height="420" fill="white" transform="translate(302 302)"/>
</clipPath>
</defs>
</svg>
