<svg width="1024" height="1024" viewBox="0 0 1024 1024" fill="none" xmlns="http://www.w3.org/2000/svg">
<rect x="37" y="37" width="950" height="950" rx="150" fill="url(#paint0_linear)"/>
<path d="M102.902 215.309C105.306 137.635 166.635 74.6586 244.218 70.1968L717.576 42.9742C773.957 39.7317 821.457 84.5787 821.457 141.053V158.414C821.457 203.083 857.668 239.293 902.336 239.293V239.293C948.456 239.293 985.239 277.798 983.131 323.869L962.272 779.855C958.608 859.948 892.606 923 812.428 923H235.714C151.053 923 83.167 852.98 85.7859 768.36L102.902 215.309Z" fill="url(#paint1_linear)"/>
<path d="M37 187C37 104.157 104.157 37 187 37H633.533C700.654 37 755.066 91.4123 755.066 158.533V164.1C755.066 228.146 806.987 280.066 871.033 280.066V280.066C935.08 280.066 987 331.987 987 396.033V837C987 919.843 919.843 987 837 987H187C104.157 987 37 919.843 37 837V187Z" fill="url(#paint2_linear)"/>
<path d="M748.508 493.866L524.497 310.784C517.221 304.839 506.771 304.839 499.499 310.784L442.122 357.687V333.343C442.122 328.085 437.866 323.837 432.608 323.837H377.394C372.136 323.837 367.88 328.089 367.88 333.343V418.364L275.493 493.866C271.421 497.185 270.829 503.182 274.146 507.249C276.03 509.545 278.768 510.751 281.531 510.751C283.646 510.751 285.768 510.041 287.538 508.606L335.496 469.4V708.163C335.496 713.417 339.752 717.674 344.999 717.674H679.004C684.253 717.674 688.518 713.419 688.518 708.163V469.406L736.476 508.612C738.243 510.051 740.372 510.756 742.481 510.756C745.235 510.756 747.972 509.549 749.857 507.253C753.172 503.182 752.579 497.193 748.508 493.866ZM386.903 342.848H423.092V373.231L386.903 402.81V342.848ZM669.498 698.65H354.507V453.858L503.858 331.792C508.597 327.918 515.401 327.918 520.141 331.792L669.498 453.858V698.65V698.65Z" fill="#026D98"/>
<defs>
<linearGradient id="paint0_linear" x1="792.5" y1="176.5" x2="970" y2="60" gradientUnits="userSpaceOnUse">
<stop offset="0.351574" stop-color="#027AAA"/>
<stop offset="1" stop-color="#1687BA"/>
</linearGradient>
<linearGradient id="paint1_linear" x1="120.374" y1="885.108" x2="863.678" y2="125.714" gradientUnits="userSpaceOnUse">
<stop/>
<stop offset="1" stop-opacity="0"/>
</linearGradient>
<linearGradient id="paint2_linear" x1="926.697" y1="952.674" x2="230.896" y2="103.797" gradientUnits="userSpaceOnUse">
<stop stop-color="#1385B8"/>
<stop offset="1" stop-color="#73D2F6"/>
</linearGradient>
</defs>
</svg>
