<svg width="1024" height="1024" viewBox="0 0 1024 1024" fill="none" xmlns="http://www.w3.org/2000/svg">
<rect x="37" y="37" width="950" height="950" rx="150" fill="url(#paint0_linear)"/>
<path d="M102.902 215.309C105.306 137.635 166.635 74.6586 244.218 70.1968L717.576 42.9742C773.957 39.7317 821.457 84.5787 821.457 141.053V158.414C821.457 203.083 857.668 239.293 902.336 239.293V239.293C948.456 239.293 985.239 277.798 983.131 323.869L962.272 779.855C958.608 859.948 892.606 923 812.428 923H235.714C151.053 923 83.167 852.98 85.7859 768.36L102.902 215.309Z" fill="url(#paint1_linear)"/>
<path d="M37 187C37 104.157 104.157 37 187 37H633.533C700.654 37 755.066 91.4123 755.066 158.533V164.1C755.066 228.146 806.987 280.066 871.033 280.066V280.066C935.08 280.066 987 331.987 987 396.033V837C987 919.843 919.843 987 837 987H187C104.157 987 37 919.843 37 837V187Z" fill="url(#paint2_linear)"/>
<g clip-path="url(#clip0)">
<path d="M683.32 339.385C680.988 337.437 677.914 336.622 674.922 337.163L447.969 378.179C443.089 379.061 439.539 383.31 439.539 388.269V579.662C428.646 569.9 414.267 563.953 398.523 563.953C364.599 563.953 337 591.552 337 625.476C337 659.4 364.599 687 398.523 687C432.447 687 460.047 659.4 460.047 625.476V472.031L666.492 434.722V548.901C655.599 539.138 641.22 533.191 625.477 533.191C591.553 533.191 563.953 560.791 563.953 594.715C563.953 628.639 591.553 656.238 625.477 656.238C659.401 656.238 687 628.639 687 594.715V347.254C687 344.215 685.653 341.333 683.32 339.385V339.385ZM398.523 666.492C375.907 666.492 357.508 648.092 357.508 625.476C357.508 602.86 375.907 584.461 398.523 584.461C421.139 584.461 439.539 602.86 439.539 625.476C439.539 648.092 421.139 666.492 398.523 666.492ZM460.047 451.192V396.837L666.492 359.527V413.882L460.047 451.192ZM625.477 635.73C602.861 635.73 584.461 617.331 584.461 594.715C584.461 572.099 602.861 553.699 625.477 553.699C648.093 553.699 666.492 572.099 666.492 594.715C666.492 617.331 648.093 635.73 625.477 635.73Z" fill="#026D98"/>
</g>
<defs>
<linearGradient id="paint0_linear" x1="792.5" y1="176.5" x2="970" y2="60" gradientUnits="userSpaceOnUse">
<stop offset="0.351574" stop-color="#027AAA"/>
<stop offset="1" stop-color="#1687BA"/>
</linearGradient>
<linearGradient id="paint1_linear" x1="120.374" y1="885.108" x2="863.678" y2="125.714" gradientUnits="userSpaceOnUse">
<stop/>
<stop offset="1" stop-opacity="0"/>
</linearGradient>
<linearGradient id="paint2_linear" x1="926.697" y1="952.674" x2="230.896" y2="103.797" gradientUnits="userSpaceOnUse">
<stop stop-color="#1385B8"/>
<stop offset="1" stop-color="#73D2F6"/>
</linearGradient>
<clipPath id="clip0">
<rect width="350" height="350" fill="white" transform="translate(337 337)"/>
</clipPath>
</defs>
</svg>
