<svg width="1024" height="1024" viewBox="0 0 1024 1024" fill="none" xmlns="http://www.w3.org/2000/svg">
<rect x="37" y="37" width="950" height="950" rx="150" fill="url(#paint0_linear)"/>
<path d="M102.902 215.309C105.306 137.635 166.635 74.6586 244.218 70.1968L717.576 42.9742C773.957 39.7317 821.457 84.5787 821.457 141.053V158.414C821.457 203.083 857.668 239.293 902.336 239.293V239.293C948.456 239.293 985.239 277.798 983.131 323.869L962.272 779.855C958.608 859.948 892.606 923 812.428 923H235.714C151.053 923 83.167 852.98 85.7859 768.36L102.902 215.309Z" fill="url(#paint1_linear)"/>
<path d="M37 187C37 104.157 104.157 37 187 37H633.533C700.654 37 755.066 91.4123 755.066 158.533V164.1C755.066 228.146 806.987 280.066 871.033 280.066V280.066C935.08 280.066 987 331.987 987 396.033V837C987 919.843 919.843 987 837 987H187C104.157 987 37 919.843 37 837V187Z" fill="url(#paint2_linear)"/>
<g clip-path="url(#clip0)">
<path d="M630.45 712C629.067 712 627.667 711.65 626.417 710.967L512 647.717L397.567 710.967C394.783 712.517 391.333 712.317 388.733 710.483C386.133 708.65 384.8 705.483 385.3 702.333L407.25 567.8L314.367 472.567C312.183 470.333 311.433 467.067 312.433 464.1C313.433 461.133 315.983 458.983 319.067 458.517L447.117 438.95L504.45 316.783C507.2 310.917 516.783 310.917 519.533 316.783L576.867 438.95L704.917 458.517C708 458.983 710.567 461.15 711.55 464.1C712.533 467.05 711.8 470.333 709.617 472.567L616.717 567.783L638.667 702.317C639.183 705.467 637.85 708.633 635.233 710.467C633.833 711.483 632.133 712 630.45 712V712ZM512 629.85C513.383 629.85 514.783 630.2 516.033 630.883L619.483 688.067L599.617 566.317C599.2 563.7 600.033 561.05 601.883 559.15L686.383 472.533L569.983 454.75C567.233 454.333 564.883 452.567 563.7 450.05L512 339.95L460.317 450.067C459.133 452.583 456.783 454.35 454.033 454.75L337.633 472.533L422.133 559.15C423.983 561.05 424.817 563.7 424.4 566.317L404.533 688.067L507.983 630.883C509.217 630.2 510.617 629.85 512 629.85V629.85Z" fill="#026D98"/>
</g>
<defs>
<linearGradient id="paint0_linear" x1="792.5" y1="176.5" x2="970" y2="60" gradientUnits="userSpaceOnUse">
<stop offset="0.351574" stop-color="#027AAA"/>
<stop offset="1" stop-color="#1687BA"/>
</linearGradient>
<linearGradient id="paint1_linear" x1="120.374" y1="885.108" x2="863.678" y2="125.714" gradientUnits="userSpaceOnUse">
<stop/>
<stop offset="1" stop-opacity="0"/>
</linearGradient>
<linearGradient id="paint2_linear" x1="926.697" y1="952.674" x2="230.896" y2="103.797" gradientUnits="userSpaceOnUse">
<stop stop-color="#1385B8"/>
<stop offset="1" stop-color="#73D2F6"/>
</linearGradient>
<clipPath id="clip0">
<rect width="400" height="400" fill="white" transform="translate(312 312)"/>
</clipPath>
</defs>
</svg>
