<svg width="1024" height="1024" viewBox="0 0 1024 1024" fill="none" xmlns="http://www.w3.org/2000/svg">
<rect x="37" y="37" width="950" height="950" rx="150" fill="url(#paint0_linear)"/>
<path d="M102.902 215.309C105.306 137.635 166.635 74.6586 244.218 70.1968L717.576 42.9742C773.957 39.7317 821.457 84.5787 821.457 141.053V158.414C821.457 203.083 857.668 239.293 902.336 239.293V239.293C948.456 239.293 985.239 277.798 983.131 323.869L962.272 779.855C958.608 859.948 892.606 923 812.428 923H235.714C151.053 923 83.167 852.98 85.7859 768.36L102.902 215.309Z" fill="url(#paint1_linear)"/>
<path d="M37 187C37 104.157 104.157 37 187 37H633.533C700.654 37 755.066 91.4123 755.066 158.533V164.1C755.066 228.146 806.987 280.066 871.033 280.066V280.066C935.08 280.066 987 331.987 987 396.033V837C987 919.843 919.843 987 837 987H187C104.157 987 37 919.843 37 837V187Z" fill="url(#paint2_linear)"/>
<path d="M645.333 345.333H312V678.667H712V345.333H645.333ZM365.333 665.333H325.333V625.333H365.333V665.333ZM365.333 612H325.333V572H365.333V612ZM365.333 558.667H325.333V518.667H365.333V558.667ZM365.333 505.333H325.333V465.333H365.333V505.333ZM365.333 452H325.333V412H365.333V452ZM365.333 398.667H325.333V358.667H365.333V398.667ZM645.333 665.333H378.667V358.667H645.333V665.333ZM698.667 665.333H658.667V625.333H698.667V665.333ZM698.667 612H658.667V572H698.667V612ZM698.667 558.667H658.667V518.667H698.667V558.667ZM698.667 505.333H658.667V465.333H698.667V505.333ZM698.667 452H658.667V412H698.667V452ZM698.667 398.667H658.667V358.667H698.667V398.667Z" fill="#026D98"/>
<path d="M564.476 508.669C563.886 507.638 563.031 506.783 562 506.193L468.667 452.86C465.478 451.019 461.401 452.112 459.56 455.3C458.969 456.323 458.661 457.485 458.667 458.667V565.333C458.669 567.712 459.939 569.91 462 571.1C464.062 572.291 466.604 572.291 468.667 571.1L562 517.767C565.196 515.938 566.304 511.866 564.476 508.669ZM472 553.84V470.16L545.227 512L472 553.84Z" fill="#026D98"/>
<defs>
<linearGradient id="paint0_linear" x1="792.5" y1="176.5" x2="970" y2="60" gradientUnits="userSpaceOnUse">
<stop offset="0.351574" stop-color="#027AAA"/>
<stop offset="1" stop-color="#1687BA"/>
</linearGradient>
<linearGradient id="paint1_linear" x1="120.374" y1="885.108" x2="863.678" y2="125.714" gradientUnits="userSpaceOnUse">
<stop/>
<stop offset="1" stop-opacity="0"/>
</linearGradient>
<linearGradient id="paint2_linear" x1="926.697" y1="952.674" x2="230.896" y2="103.797" gradientUnits="userSpaceOnUse">
<stop stop-color="#1385B8"/>
<stop offset="1" stop-color="#73D2F6"/>
</linearGradient>
</defs>
</svg>
