<svg width="1024" height="1024" viewBox="0 0 1024 1024" fill="none" xmlns="http://www.w3.org/2000/svg">
<rect x="37" y="37" width="950" height="950" rx="150" fill="url(#paint0_linear)"/>
<path d="M102.902 215.309C105.306 137.635 166.635 74.6586 244.218 70.1968L717.576 42.9742C773.957 39.7317 821.457 84.5787 821.457 141.053V158.414C821.457 203.083 857.668 239.293 902.336 239.293V239.293C948.456 239.293 985.239 277.798 983.131 323.869L962.272 779.855C958.608 859.948 892.606 923 812.428 923H235.714C151.053 923 83.167 852.98 85.7859 768.36L102.902 215.309Z" fill="url(#paint1_linear)"/>
<path d="M37 187C37 104.157 104.157 37 187 37H633.533C700.654 37 755.066 91.4123 755.066 158.533V164.1C755.066 228.146 806.987 280.066 871.033 280.066V280.066C935.08 280.066 987 331.987 987 396.033V837C987 919.843 919.843 987 837 987H187C104.157 987 37 919.843 37 837V187Z" fill="url(#paint2_linear)"/>
<path d="M733.019 536.344C734.329 528.28 735.035 520.114 735.035 512.05C735.035 430.094 668.301 363.359 586.345 363.359C532.211 363.359 483.421 392.09 457.009 438.965C443.199 432.715 428.078 429.489 412.856 429.489C355.9 429.489 309.125 474.046 305.698 530.699C276.968 538.058 256 564.369 256 594.611C256 631.002 285.637 660.639 322.029 660.639H701.97C738.362 660.639 767.999 631.002 767.999 594.611C768.1 569.913 754.592 547.736 733.019 536.344ZM702.071 644.208H322.029C294.71 644.208 272.432 621.93 272.432 594.611C272.432 547.433 322.029 544.006 322.029 544.006V536.848C322.029 486.747 362.755 446.021 412.856 446.021C442.493 446.021 464.066 461.344 464.066 461.344C464.066 461.344 498.239 379.892 586.244 379.892C659.127 379.892 718.402 439.166 718.402 512.05C718.402 533.824 714.168 546.123 714.168 546.123C714.168 546.123 751.467 555.8 751.467 594.611C751.567 621.93 729.39 644.208 702.071 644.208Z" fill="#026D98"/>
<path d="M586.345 404.69V421.223C636.446 421.223 677.172 461.949 677.172 512.05H693.704C693.805 452.876 645.619 404.69 586.345 404.69Z" fill="#026D98"/>
<defs>
<linearGradient id="paint0_linear" x1="792.5" y1="176.5" x2="970" y2="60" gradientUnits="userSpaceOnUse">
<stop offset="0.351574" stop-color="#027AAA"/>
<stop offset="1" stop-color="#1687BA"/>
</linearGradient>
<linearGradient id="paint1_linear" x1="120.374" y1="885.108" x2="863.678" y2="125.714" gradientUnits="userSpaceOnUse">
<stop/>
<stop offset="1" stop-opacity="0"/>
</linearGradient>
<linearGradient id="paint2_linear" x1="926.697" y1="952.674" x2="230.896" y2="103.797" gradientUnits="userSpaceOnUse">
<stop stop-color="#1385B8"/>
<stop offset="1" stop-color="#73D2F6"/>
</linearGradient>
</defs>
</svg>
