<svg width="1024" height="1024" viewBox="0 0 1024 1024" fill="none" xmlns="http://www.w3.org/2000/svg">
<rect x="37" y="37" width="950" height="950" rx="150" fill="url(#paint0_linear)"/>
<path d="M102.902 215.309C105.306 137.635 166.635 74.6586 244.218 70.1968L717.576 42.9742C773.957 39.7317 821.457 84.5787 821.457 141.053V158.414C821.457 203.083 857.668 239.293 902.336 239.293C948.456 239.293 985.239 277.798 983.131 323.869L962.272 779.855C958.608 859.948 892.606 923 812.428 923H235.714C151.053 923 83.167 852.98 85.786 768.36L102.902 215.309Z" fill="url(#paint1_linear)"/>
<path d="M37 187C37 104.157 104.157 37 187 37H633.533C700.654 37 755.066 91.4123 755.066 158.533V164.1C755.066 228.146 806.987 280.066 871.033 280.066C935.08 280.066 987 331.987 987 396.033V837C987 919.843 919.843 987 837 987H187C104.157 987 37 919.843 37 837V187Z" fill="url(#paint2_linear)"/>
<g clip-path="url(#clip0)">
<path d="M708.708 362.484C708.47 362.261 661.485 317.452 661.485 317.452C659.689 315.729 657.831 313.948 654.362 313.948H465.206C459.681 313.948 455.186 318.442 455.186 323.967V354.735L388.518 366.163C383.174 367.101 379.58 372.215 380.506 377.553L383.89 397.281C362.22 404.573 339.973 412.091 318.495 419.805C313.42 421.661 310.757 427.304 312.568 432.409L355.291 551.172C356.15 553.562 358.402 555.05 360.805 555.05C361.462 555.05 362.133 554.938 362.787 554.702C365.833 553.607 367.413 550.251 366.318 547.205L324.227 430.199C344.462 422.955 365.416 415.864 385.895 408.971L406.029 526.35L429.196 661.531C430.033 666.303 434.227 669.698 438.962 669.698C439.498 669.698 440.041 669.655 440.587 669.565L503.334 658.797L552.365 650.392L478.622 676.898L420.469 697.806L375.307 572.19C374.212 569.144 370.857 567.564 367.811 568.659C364.766 569.753 363.185 573.109 364.28 576.155L410.083 703.556C411.548 707.562 415.343 710.053 419.355 710.053C420.463 710.053 421.589 709.862 422.686 709.462L482.585 687.926L618.596 639.04L644.58 634.586H701.979C707.504 634.586 711.999 630.081 711.999 624.544V369.087C712 365.58 710.097 363.791 708.708 362.484V362.484ZM693.184 363.872H663.863L663.137 363.875C661.733 363.884 658.446 363.909 657.612 363.08C657.42 362.889 657.195 362.25 657.195 361.063L657.127 329.489L693.184 363.872ZM700.281 622.866H466.905V508.673C466.905 505.437 464.281 502.813 461.045 502.813C457.809 502.813 455.186 505.437 455.186 508.673V624.542C455.186 630.079 459.681 634.584 465.206 634.584H575.216L501.352 647.245L440.429 657.701L417.579 524.369L392.369 377.392L455.185 366.624V481.485C455.185 484.721 457.809 487.345 461.044 487.345C464.28 487.345 466.904 484.721 466.904 481.485V325.666H645.4L645.476 361.077C645.476 365.369 646.782 368.841 649.356 371.397C653.312 375.324 658.903 375.598 662.374 375.598C662.673 375.598 662.955 375.595 663.22 375.594L700.281 375.591V622.866Z" fill="#026D98"/>
<path d="M495.148 404.929C495.148 408.165 497.772 410.788 501.008 410.788H668.536C671.772 410.788 674.395 408.165 674.395 404.929C674.395 401.693 671.772 399.07 668.536 399.07H501.008C497.772 399.07 495.148 401.693 495.148 404.929V404.929Z" fill="#026D98"/>
<path d="M668.536 440.696H501.008C497.772 440.696 495.148 443.319 495.148 446.555C495.148 449.791 497.772 452.415 501.008 452.415H668.536C671.772 452.415 674.395 449.791 674.395 446.555C674.395 443.319 671.772 440.696 668.536 440.696Z" fill="#026D98"/>
<path d="M668.536 482.323H501.008C497.772 482.323 495.148 484.946 495.148 488.182C495.148 491.418 497.772 494.041 501.008 494.041H668.536C671.772 494.041 674.395 491.418 674.395 488.182C674.395 484.946 671.772 482.323 668.536 482.323Z" fill="#026D98"/>
<path d="M668.536 523.949H501.008C497.772 523.949 495.148 526.573 495.148 529.809C495.148 533.045 497.772 535.668 501.008 535.668H668.536C671.772 535.668 674.395 533.045 674.395 529.809C674.395 526.573 671.772 523.949 668.536 523.949Z" fill="#026D98"/>
<path d="M668.536 565.576H501.008C497.772 565.576 495.148 568.2 495.148 571.436C495.148 574.672 497.772 577.295 501.008 577.295H668.536C671.772 577.295 674.395 574.672 674.395 571.436C674.395 568.2 671.772 565.576 668.536 565.576Z" fill="#026D98"/>
</g>
<defs>
<linearGradient id="paint0_linear" x1="792.5" y1="176.5" x2="970" y2="60" gradientUnits="userSpaceOnUse">
<stop offset="0.351574" stop-color="#027AAA"/>
<stop offset="1" stop-color="#1687BA"/>
</linearGradient>
<linearGradient id="paint1_linear" x1="120.374" y1="885.108" x2="863.678" y2="125.714" gradientUnits="userSpaceOnUse">
<stop/>
<stop offset="1" stop-opacity="0"/>
</linearGradient>
<linearGradient id="paint2_linear" x1="926.697" y1="952.674" x2="230.896" y2="103.797" gradientUnits="userSpaceOnUse">
<stop stop-color="#1385B8"/>
<stop offset="1" stop-color="#73D2F6"/>
</linearGradient>
<clipPath id="clip0">
<rect width="400" height="400" fill="white" transform="translate(312 312)"/>
</clipPath>
</defs>
</svg>
