<svg width="1024" height="1024" viewBox="0 0 1024 1024" fill="none" xmlns="http://www.w3.org/2000/svg">
<rect x="37" y="37" width="950" height="950" rx="150" fill="url(#paint0_linear)"/>
<path d="M102.902 215.309C105.306 137.635 166.635 74.6586 244.218 70.1968L717.576 42.9742C773.957 39.7317 821.457 84.5787 821.457 141.053V158.414C821.457 203.083 857.668 239.293 902.336 239.293C948.456 239.293 985.239 277.798 983.131 323.869L962.272 779.855C958.608 859.948 892.606 923 812.428 923H235.714C151.053 923 83.167 852.98 85.786 768.36L102.902 215.309Z" fill="url(#paint1_linear)"/>
<path d="M37 187C37 104.157 104.157 37 187 37H633.533C700.654 37 755.066 91.4123 755.066 158.533V164.1C755.066 228.146 806.987 280.066 871.033 280.066C935.08 280.066 987 331.987 987 396.033V837C987 919.843 919.843 987 837 987H187C104.157 987 37 919.843 37 837V187Z" fill="url(#paint2_linear)"/>
<path d="M568.802 505.481C566.323 500.538 561.277 497.417 555.75 497.417H526.583V351.583C526.583 343.533 520.064 337 512 337C503.936 337 497.417 343.533 497.417 351.583V497.416H468.25C462.723 497.416 457.677 500.537 455.198 505.481C452.748 510.424 453.273 516.331 456.584 520.749L500.334 579.082C500.523 579.331 500.815 579.418 501.019 579.651C501.982 580.789 503.119 581.664 504.388 582.466C504.913 582.786 505.321 583.209 505.89 583.472C507.757 584.347 509.798 584.916 512.001 584.916C514.203 584.916 516.244 584.347 518.126 583.472C518.68 583.209 519.103 582.786 519.613 582.466C520.882 581.664 522.019 580.789 522.982 579.651C523.171 579.418 523.478 579.331 523.668 579.082L567.418 520.749C570.742 516.331 571.267 510.425 568.802 505.481Z" fill="#026D98"/>
<path d="M672.417 555.75C664.353 555.75 657.834 562.283 657.834 570.333V614.083C657.834 638.204 638.204 657.833 614.084 657.833H409.917C385.796 657.833 366.167 638.204 366.167 614.083V570.333C366.167 562.283 359.648 555.75 351.584 555.75C343.519 555.75 337 562.283 337 570.333V614.083C337 654.289 369.711 687 409.917 687H614.084C654.289 687 687 654.289 687 614.083V570.333C687 562.283 680.481 555.75 672.417 555.75Z" fill="#026D98"/>
<defs>
<linearGradient id="paint0_linear" x1="792.5" y1="176.5" x2="970" y2="60" gradientUnits="userSpaceOnUse">
<stop offset="0.351574" stop-color="#027AAA"/>
<stop offset="1" stop-color="#1687BA"/>
</linearGradient>
<linearGradient id="paint1_linear" x1="120.374" y1="885.108" x2="863.678" y2="125.714" gradientUnits="userSpaceOnUse">
<stop/>
<stop offset="1" stop-opacity="0"/>
</linearGradient>
<linearGradient id="paint2_linear" x1="926.697" y1="952.674" x2="230.896" y2="103.797" gradientUnits="userSpaceOnUse">
<stop stop-color="#1385B8"/>
<stop offset="1" stop-color="#73D2F6"/>
</linearGradient>
</defs>
</svg>
