<svg width="1024" height="1024" viewBox="0 0 1024 1024" fill="none" xmlns="http://www.w3.org/2000/svg">
<rect x="37" y="37" width="950" height="950" rx="150" fill="url(#paint0_linear)"/>
<path d="M102.902 215.309C105.306 137.635 166.635 74.6586 244.218 70.1968L717.576 42.9742C773.957 39.7317 821.457 84.5787 821.457 141.053V158.414C821.457 203.083 857.668 239.293 902.336 239.293V239.293C948.456 239.293 985.239 277.798 983.131 323.869L962.272 779.855C958.608 859.948 892.606 923 812.428 923H235.714C151.053 923 83.167 852.98 85.7859 768.36L102.902 215.309Z" fill="url(#paint1_linear)"/>
<path d="M37 187C37 104.157 104.157 37 187 37H633.533C700.654 37 755.066 91.4123 755.066 158.533V164.1C755.066 228.146 806.987 280.066 871.033 280.066V280.066C935.08 280.066 987 331.987 987 396.033V837C987 919.843 919.843 987 837 987H187C104.157 987 37 919.843 37 837V187Z" fill="url(#paint2_linear)"/>
<g clip-path="url(#clip0)">
<path d="M512.08 287.047C422.052 287.034 340.686 340.698 305.251 423.459L302.447 424.389L303.534 427.65C256.879 542.719 312.338 673.823 427.407 720.478C454.283 731.375 483.012 736.969 512.013 736.953C636.251 736.972 736.981 636.272 737 512.034C737.019 387.796 636.318 287.065 512.08 287.047ZM688.53 625.418L676.979 613.874V586.985C676.992 585.824 676.735 584.677 676.229 583.633L646.985 525.227V497.003C646.985 494.497 645.734 492.156 643.648 490.765L621.153 475.768C619.39 474.591 617.211 474.215 615.154 474.733L587.605 481.617L541.332 461.761L534.966 417.16L552.61 399.524H590.484L603.232 418.682C604.383 420.405 606.196 421.576 608.241 421.914L653.231 429.412C654.437 429.615 655.672 429.517 656.83 429.128L698.267 415.315C733.021 482.009 729.304 562.225 688.53 625.418ZM657.603 360.937L645.41 369.065L611.42 362.264L589.367 354.923C588.017 354.465 586.564 354.407 585.183 354.758L557.304 361.724L545.081 357.652L554.139 339.536H579.499C580.662 339.537 581.81 339.268 582.851 338.749L608.795 325.777C626.662 335.103 643.099 346.943 657.603 360.937ZM429.883 318.788L447.879 330.786C448.764 331.374 449.763 331.768 450.811 331.94L487.148 337.999L483.602 348.609L464.668 354.93C462.972 355.495 461.534 356.646 460.611 358.177L439.076 394.065L404.486 414.82L353.496 422.101C349.8 422.624 347.052 425.785 347.047 429.517V452.013C347.047 454.002 347.839 455.908 349.245 457.314L362.044 470.114V482.996L330.851 462.196L319.536 428.25C341.064 379.06 380.521 339.919 429.883 318.788ZM408.535 564.639L374.642 557.853L362.044 532.726V515.105L389.984 487.165L400.324 507.854C401.594 510.396 404.193 512.001 407.035 512H455.28L475.593 545.856C476.949 548.112 479.387 549.492 482.019 549.492H502.865L497.616 575.789L469.227 604.179C467.818 605.584 467.025 607.49 467.022 609.48V628.226L440.028 648.472C438.14 649.888 437.029 652.11 437.029 654.471V681.555L427.701 678.466L414.533 645.532V571.988C414.534 568.424 412.026 565.352 408.535 564.639ZM385.994 679.91C315.294 626.869 285.395 535.223 311.212 450.693L317.444 469.379C317.969 470.96 319.005 472.322 320.391 473.248L357.77 498.166L349.245 506.699C347.839 508.105 347.047 510.011 347.047 512V534.496C347.047 535.659 347.316 536.806 347.835 537.847L362.832 567.841C363.87 569.913 365.808 571.388 368.081 571.838L399.574 578.129V646.972C399.573 647.924 399.754 648.869 400.106 649.754L415.103 687.246C415.924 689.294 417.606 690.877 419.7 691.573L442.195 699.071C442.947 699.326 443.734 699.457 444.527 699.461C448.668 699.461 452.026 696.104 452.026 691.963V658.22L479.02 637.974C480.908 636.558 482.019 634.335 482.019 631.975V612.584L509.816 584.788C510.861 583.741 511.574 582.407 511.863 580.956L519.362 543.464C520.173 539.402 517.539 535.453 513.478 534.641C512.995 534.544 512.505 534.496 512.013 534.496H486.263L465.95 500.64C464.595 498.384 462.156 497.004 459.524 497.003H411.669L398.787 471.156C397.708 468.999 395.657 467.491 393.275 467.107C390.895 466.696 388.464 467.481 386.774 469.207L377.041 478.902V467.01C377.041 465.021 376.25 463.114 374.844 461.708L362.044 448.908V436.019L408.1 429.442C409.089 429.299 410.04 428.96 410.897 428.445L448.389 405.95C449.441 405.318 450.322 404.437 450.953 403.385L472.024 368.27L491.887 361.642C494.13 360.906 495.891 359.146 496.626 356.903L504.125 334.407C505.424 330.475 503.29 326.234 499.358 324.935C498.995 324.815 498.623 324.723 498.246 324.659L454.845 317.423L447.219 312.339C494.406 296.981 545.513 298.882 591.429 317.701L577.729 324.539H549.505C546.649 324.523 544.033 326.132 542.757 328.686L527.76 358.68C525.912 362.386 527.419 366.889 531.125 368.736C531.441 368.894 531.767 369.028 532.101 369.14L554.597 376.638C555.946 377.097 557.399 377.155 558.781 376.803L586.66 369.837L607.086 376.638C607.378 376.743 607.679 376.824 607.986 376.878L645.478 384.377C647.427 384.774 649.456 384.375 651.109 383.267L668.176 371.884C676.575 381.24 684.123 391.325 690.731 402.021L653.839 414.318L613.894 407.659L600.697 387.864C599.314 385.789 596.989 384.539 594.496 384.527H549.505C547.516 384.527 545.61 385.318 544.204 386.724L521.709 409.219C520.038 410.889 519.252 413.248 519.587 415.585L527.085 468.074C527.463 470.67 529.169 472.879 531.584 473.901L584.073 496.396C585.577 497.047 587.254 497.181 588.842 496.778L615.619 490.082L631.988 501.015V526.997C631.975 528.158 632.232 529.305 632.738 530.349L661.982 588.754V616.978C661.982 618.967 662.773 620.874 664.179 622.28L679.866 637.974C610.296 730.704 478.725 749.48 385.994 679.91Z" fill="#026D98"/>
</g>
<defs>
<linearGradient id="paint0_linear" x1="792.5" y1="176.5" x2="970" y2="60" gradientUnits="userSpaceOnUse">
<stop offset="0.351574" stop-color="#027AAA"/>
<stop offset="1" stop-color="#1687BA"/>
</linearGradient>
<linearGradient id="paint1_linear" x1="120.374" y1="885.108" x2="863.678" y2="125.714" gradientUnits="userSpaceOnUse">
<stop/>
<stop offset="1" stop-opacity="0"/>
</linearGradient>
<linearGradient id="paint2_linear" x1="926.697" y1="952.674" x2="230.896" y2="103.797" gradientUnits="userSpaceOnUse">
<stop stop-color="#1385B8"/>
<stop offset="1" stop-color="#73D2F6"/>
</linearGradient>
<clipPath id="clip0">
<rect width="450" height="450" fill="white" transform="translate(287 287)"/>
</clipPath>
</defs>
</svg>
