<?xml version="1.0" encoding="UTF-8" standalone="no"?>
<svg
   width="24"
   height="24"
   viewBox="0 0 24 24"
   fill="none"
   version="1.1"
   id="svg13"
   sodipodi:docname="telegram-mute-panel.svg"
   inkscape:version="1.1.2 (0a00cf5339, 2022-02-04)"
   xmlns:inkscape="http://www.inkscape.org/namespaces/inkscape"
   xmlns:sodipodi="http://sodipodi.sourceforge.net/DTD/sodipodi-0.dtd"
   xmlns="http://www.w3.org/2000/svg"
   xmlns:svg="http://www.w3.org/2000/svg">
  <sodipodi:namedview
     id="namedview15"
     pagecolor="#ffffff"
     bordercolor="#666666"
     borderopacity="1.0"
     inkscape:pageshadow="2"
     inkscape:pageopacity="0.0"
     inkscape:pagecheckerboard="0"
     showgrid="false"
     inkscape:zoom="29.833333"
     inkscape:cx="11.715084"
     inkscape:cy="12"
     inkscape:window-width="2560"
     inkscape:window-height="1468"
     inkscape:window-x="0"
     inkscape:window-y="25"
     inkscape:window-maximized="1"
     inkscape:current-layer="svg13" />
  <g
     clip-path="url(#clip0_10:8)"
     id="g6"
     transform="matrix(0.66667567,0,0,0.66667567,4,3.3727268)">
    <path
       d="M 23.0625,1.88714 C 22.8447,1.8659 22.6004,1.90308 22.3614,2.01993 L 1.11985,10.2584 c -1.455401,0.5843 -1.439456,1.4023 -0.260261,1.7581 L 6.30939,13.7322 18.9299,5.72223 c 0.6003,-0.36651 1.1367,-0.16998 0.6959,0.23372 L 9.40087,15.2354 9.10873,17.6522 7.62678,12.9035 6.31479,13.7374 c 0.6427,2.0397 1.26949,4.0794 1.92285,6.1191 0.20184,0.5471 0.72769,0.6958 1.18981,0.7065 0.69585,0.0212 1.86435,-0.9508 1.86435,-0.9508 l 1.875,-1.583 5.1311,3.8138 c 1.0145,0.563 1.7475,0.2709 2.0025,-0.9508 L 23.9176,3.7457 C 24.1938,2.63025 23.737,1.96625 23.0837,1.892 Z M 10.803,16.2707 l 1.1367,0.8392 -1.381,1.1686 0.239,-2.0077"
       fill="#ffffff"
       id="path2" />
    <path
       d="m 3,24 c 1.65685,0 3,-1.3431 3,-3 0,-1.6569 -1.34315,-3 -3,-3 -1.65685,0 -3,1.3431 -3,3 0,1.6569 1.34315,3 3,3 z"
       fill="#ffffff"
       id="path4" />
  </g>
  <defs
     id="defs11">
    <clipPath
       id="clip0_10:8">
      <rect
         width="24"
         height="24"
         fill="white"
         id="rect8" />
    </clipPath>
  </defs>
</svg>
