<svg width="16" height="16" viewBox="0 0 16 16" fill="none" xmlns="http://www.w3.org/2000/svg">
<g clip-path="url(#clip0_10:2)">
<path d="M15.375 1.25812C15.2298 1.24395 15.0669 1.26874 14.9076 1.34664L0.74658 6.83894C-0.22369 7.22846 -0.21306 7.77379 0.57307 8.01104L4.20627 9.15484L12.62 3.81484C13.0201 3.5705 13.3778 3.70152 13.0839 3.97065L6.26726 10.157L6.0725 11.7682L5.08453 8.60235L4.20987 9.1583C4.63834 10.5181 5.0562 11.8779 5.49177 13.2377C5.62633 13.6024 5.9769 13.7016 6.28498 13.7087C6.74887 13.7228 7.52788 13.0748 7.52788 13.0748L8.77788 12.0195L12.1986 14.562C12.8749 14.9374 13.3636 14.7426 13.5336 13.9282L15.9451 2.49715C16.1292 1.75352 15.8247 1.31085 15.3891 1.26135L15.375 1.25812ZM7.20203 10.8472L7.95983 11.4067L7.03914 12.1857L7.19849 10.8472" fill="white"/>
<path d="M2 16C3.10457 16 4 15.1046 4 14C4 12.8954 3.10457 12 2 12C0.89543 12 0 12.8954 0 14C0 15.1046 0.89543 16 2 16Z" fill="white"/>
</g>
<defs>
<clipPath id="clip0_10:2">
<rect width="16" height="16" fill="white"/>
</clipPath>
</defs>
</svg>
