<?xml version="1.0" encoding="UTF-8" standalone="no"?>
<svg
   width="16"
   height="16"
   viewBox="0 0 16 16"
   fill="none"
   version="1.1"
   id="svg1"
   sodipodi:docname="vlc.svg"
   inkscape:version="1.4 (e7c3feb100, 2024-10-09)"
   xmlns:inkscape="http://www.inkscape.org/namespaces/inkscape"
   xmlns:sodipodi="http://sodipodi.sourceforge.net/DTD/sodipodi-0.dtd"
   xmlns="http://www.w3.org/2000/svg"
   xmlns:svg="http://www.w3.org/2000/svg">
  <defs
     id="defs1" />
  <sodipodi:namedview
     id="namedview1"
     pagecolor="#ffffff"
     bordercolor="#000000"
     borderopacity="0.25"
     inkscape:showpageshadow="2"
     inkscape:pageopacity="0.0"
     inkscape:pagecheckerboard="0"
     inkscape:deskcolor="#d1d1d1"
     inkscape:zoom="76.3125"
     inkscape:cx="8.006552"
     inkscape:cy="8"
     inkscape:window-width="2554"
     inkscape:window-height="1453"
     inkscape:window-x="0"
     inkscape:window-y="37"
     inkscape:window-maximized="1"
     inkscape:current-layer="svg1" />
  <path
     d="M15.447 14.276L13.447 10.276C13.4054 10.1931 13.3416 10.1233 13.2626 10.0746C13.1837 10.0258 13.0928 10 13 10H11.882L9.43998 1.081C9.24898 0.424 8.68398 0 7.99998 0C7.31598 0 6.75098 0.424 6.55798 1.088L4.11798 10H2.99998C2.9072 10 2.81625 10.0258 2.73731 10.0746C2.65837 10.1233 2.59454 10.1931 2.55298 10.276L0.552978 14.276C0.515072 14.3523 0.49723 14.4369 0.501138 14.522C0.505046 14.6071 0.530575 14.6897 0.575314 14.7622C0.620053 14.8347 0.682525 14.8945 0.756829 14.9361C0.831133 14.9777 0.914818 14.9997 0.999978 15H15C15.173 15 15.334 14.91 15.426 14.763C15.4706 14.6903 15.4959 14.6074 15.4996 14.5222C15.5032 14.437 15.4851 14.3523 15.447 14.276ZM10.971 10.461C10.705 10.669 9.66998 11 7.99998 11C6.24698 11 5.19198 10.635 5.01498 10.512L5.50798 8.712C6.19598 8.893 7.08098 9 7.99998 9C8.91898 9 9.80398 8.894 10.492 8.712L10.971 10.461ZM7.08098 2.964C7.36698 2.985 7.66798 3 7.99998 3C8.33198 3 8.63298 2.985 8.91898 2.964L9.44998 4.903C8.55898 5.026 7.44098 5.026 6.55098 4.903L7.08098 2.964Z"
     fill="white"
     id="path1"
     style="fill:#ff6600" />
</svg>
