<?xml version="1.0" encoding="UTF-8" standalone="no"?>
<svg
   style="isolation:isolate"
   width="128"
   height="128"
   version="1.1"
   id="svg5"
   xml:space="preserve"
   sodipodi:docname="dekuve-greeter.svg"
   inkscape:version="1.3.1 (1:1.3.1+202311172155+91b66b0783)"
   xmlns:inkscape="http://www.inkscape.org/namespaces/inkscape"
   xmlns:sodipodi="http://sodipodi.sourceforge.net/DTD/sodipodi-0.dtd"
   xmlns="http://www.w3.org/2000/svg"
   xmlns:svg="http://www.w3.org/2000/svg"><sodipodi:namedview
     id="namedview1"
     pagecolor="#ffffff"
     bordercolor="#000000"
     borderopacity="0.25"
     inkscape:showpageshadow="2"
     inkscape:pageopacity="0.0"
     inkscape:pagecheckerboard="0"
     inkscape:deskcolor="#d1d1d1"
     inkscape:zoom="4.9101562"
     inkscape:cx="74.539379"
     inkscape:cy="89.304694"
     inkscape:window-width="2560"
     inkscape:window-height="1476"
     inkscape:window-x="0"
     inkscape:window-y="25"
     inkscape:window-maximized="1"
     inkscape:current-layer="svg5" /><defs
     id="defs1"><filter
       id="a"
       width="1.0842484"
       height="1.1077841"
       x="-0.042124196"
       y="-0.045133094"
       color-interpolation-filters="sRGB"
       filterUnits="objectBoundingBox"><feGaussianBlur
         in="SourceGraphic"
         stdDeviation="4.294"
         id="feGaussianBlur1" /><feOffset
         dy="4"
         result="pf_100_offsetBlur"
         id="feOffset1" /><feFlood
         flood-opacity=".4"
         id="feFlood1" /><feComposite
         in2="pf_100_offsetBlur"
         operator="in"
         result="pf_100_dropShadow"
         id="feComposite1" /><feBlend
         in="SourceGraphic"
         in2="pf_100_dropShadow"
         id="feBlend1"
         mode="normal" /></filter></defs><defs
     id="defs2"><filter
       id="b"
       width="1.1421462"
       height="1.2085695"
       x="-0.071073107"
       y="-0.087335594"
       color-interpolation-filters="sRGB"
       filterUnits="objectBoundingBox"><feGaussianBlur
         in="SourceGraphic"
         stdDeviation="4.294"
         id="feGaussianBlur2" /><feOffset
         dy="4"
         result="pf_100_offsetBlur"
         id="feOffset2" /><feFlood
         flood-opacity=".4"
         id="feFlood2" /><feComposite
         in2="pf_100_offsetBlur"
         operator="in"
         result="pf_100_dropShadow"
         id="feComposite2" /><feBlend
         in="SourceGraphic"
         in2="pf_100_dropShadow"
         id="feBlend2"
         mode="normal" /></filter></defs><g
     id="g2"
     transform="matrix(0.48254687,0,0,0.48254687,2.2320687,2.1765736)"><g
       opacity="0.4"
       id="g5"><linearGradient
         id="c"
         x1="0.51700002"
         x2="0.51700002"
         y2="1"
         gradientTransform="matrix(244.65,0,0,228.34,5.68,11.95)"
         gradientUnits="userSpaceOnUse"><stop
           offset="0%"
           stop-color="#ffffff"
           id="stop2" /><stop
           offset="12.5%"
           stop-color="#ffffff"
           stop-opacity=".098"
           id="stop3" /><stop
           offset="92.5%"
           stop-opacity=".098"
           id="stop4" /><stop
           offset="100%"
           stop-opacity=".498"
           id="stop5" /></linearGradient><path
         fill="url(#c)"
         fill-rule="evenodd"
         d="m 165.068,11.951 c 4.328,-0.01 8.656,0.04 12.984,0.138 3.875,0.078 7.75,0.226 11.626,0.452 3.453,0.196 6.905,0.481 10.348,0.854 3.06,0.335 6.118,0.786 9.148,1.346 a 80.47,80.47 0 0 1 8.046,1.916 53.64,53.64 0 0 1 7.023,2.584 40.413,40.413 0 0 1 6.06,3.35 35.176,35.176 0 0 1 5.134,4.215 35.072,35.072 0 0 1 4.22,5.119 41.692,41.692 0 0 1 3.363,6.042 55.982,55.982 0 0 1 2.597,7.005 80.224,80.224 0 0 1 1.918,8.037 124.43,124.43 0 0 1 1.348,9.127 c 0.374,3.439 0.659,6.878 0.856,10.326 0.226,3.861 0.373,7.732 0.462,11.593 0.088,4.323 0.138,8.646 0.128,12.96 v 58.21 c 0.01,4.324 -0.04,8.637 -0.128,12.96 a 325.177,325.177 0 0 1 -0.462,11.593 200.984,200.984 0 0 1 -0.856,10.326 124.691,124.691 0 0 1 -1.348,9.137 80.687,80.687 0 0 1 -1.918,8.027 55.414,55.414 0 0 1 -2.597,7.005 41.18,41.18 0 0 1 -3.364,6.042 34.559,34.559 0 0 1 -4.22,5.119 35.177,35.177 0 0 1 -5.134,4.215 40.412,40.412 0 0 1 -6.059,3.35 55.138,55.138 0 0 1 -7.023,2.594 77.806,77.806 0 0 1 -8.046,1.906 120,120 0 0 1 -9.148,1.346 c -3.443,0.373 -6.895,0.658 -10.348,0.854 -3.875,0.226 -7.75,0.374 -11.626,0.462 -4.328,0.088 -8.656,0.138 -12.984,0.128 H 90.942 c -4.328,0.01 -8.656,-0.04 -12.984,-0.128 a 328.387,328.387 0 0 1 -11.626,-0.462 203.003,203.003 0 0 1 -10.348,-0.854 120,120 0 0 1 -9.148,-1.346 77.806,77.806 0 0 1 -8.046,-1.906 55.139,55.139 0 0 1 -7.023,-2.594 40.413,40.413 0 0 1 -6.06,-3.35 35.176,35.176 0 0 1 -5.134,-4.215 34.56,34.56 0 0 1 -4.22,-5.119 41.183,41.183 0 0 1 -3.363,-6.042 55.415,55.415 0 0 1 -2.597,-7.005 80.682,80.682 0 0 1 -1.918,-8.027 124.688,124.688 0 0 1 -1.348,-9.137 200.993,200.993 0 0 1 -0.856,-10.326 325.212,325.212 0 0 1 -0.462,-11.593 569.197,569.197 0 0 1 -0.128,-12.96 v -58.21 c -0.01,-4.314 0.04,-8.637 0.128,-12.96 0.089,-3.86 0.236,-7.732 0.462,-11.593 0.197,-3.448 0.482,-6.887 0.856,-10.326 0.335,-3.055 0.787,-6.101 1.348,-9.127 a 80.219,80.219 0 0 1 1.918,-8.037 55.983,55.983 0 0 1 2.597,-7.005 41.695,41.695 0 0 1 3.364,-6.042 35.072,35.072 0 0 1 4.22,-5.119 35.176,35.176 0 0 1 5.134,-4.215 40.413,40.413 0 0 1 6.059,-3.35 53.64,53.64 0 0 1 7.023,-2.584 80.47,80.47 0 0 1 8.046,-1.916 125.11,125.11 0 0 1 9.148,-1.346 c 3.443,-0.373 6.895,-0.658 10.348,-0.854 3.875,-0.226 7.75,-0.374 11.626,-0.452 4.328,-0.098 8.656,-0.148 12.984,-0.138 z m 0.01,4.009 c 4.298,-0.01 8.597,0.039 12.895,0.127 3.827,0.089 7.653,0.236 11.48,0.452 3.383,0.197 6.766,0.472 10.13,0.845 2.971,0.315 5.932,0.747 8.863,1.297 a 75.943,75.943 0 0 1 7.653,1.818 50.493,50.493 0 0 1 6.501,2.397 37.038,37.038 0 0 1 5.47,3.026 30.383,30.383 0 0 1 4.524,3.724 31.05,31.05 0 0 1 3.738,4.519 37.271,37.271 0 0 1 3.03,5.443 51.46,51.46 0 0 1 2.4,6.494 75.563,75.563 0 0 1 1.829,7.634 c 0.54,2.928 0.974,5.875 1.298,8.842 0.374,3.36 0.65,6.73 0.846,10.11 0.217,3.822 0.374,7.634 0.453,11.456 0.088,4.293 0.137,8.577 0.137,12.87 v 58.212 c 0,4.293 -0.049,8.577 -0.137,12.87 a 317.503,317.503 0 0 1 -0.453,11.456 c -0.196,3.38 -0.472,6.75 -0.846,10.12 a 121.689,121.689 0 0 1 -1.298,8.832 75.562,75.562 0 0 1 -1.83,7.634 50.902,50.902 0 0 1 -2.4,6.494 36.767,36.767 0 0 1 -3.03,5.443 30.615,30.615 0 0 1 -3.737,4.53 30.938,30.938 0 0 1 -4.525,3.713 37.038,37.038 0 0 1 -5.469,3.026 49.07,49.07 0 0 1 -6.501,2.397 75.942,75.942 0 0 1 -7.653,1.818 c -2.931,0.55 -5.892,0.982 -8.863,1.306 -3.364,0.364 -6.747,0.649 -10.13,0.836 -3.827,0.216 -7.653,0.373 -11.48,0.452 -4.298,0.098 -8.597,0.137 -12.895,0.137 H 90.932 c -4.298,0 -8.597,-0.04 -12.895,-0.137 a 320.093,320.093 0 0 1 -11.48,-0.452 193.696,193.696 0 0 1 -10.13,-0.836 116.71,116.71 0 0 1 -8.863,-1.306 75.942,75.942 0 0 1 -7.653,-1.818 49.07,49.07 0 0 1 -6.501,-2.397 37.038,37.038 0 0 1 -5.47,-3.026 30.938,30.938 0 0 1 -4.524,-3.714 30.615,30.615 0 0 1 -3.738,-4.529 36.766,36.766 0 0 1 -3.03,-5.443 50.903,50.903 0 0 1 -2.4,-6.494 75.567,75.567 0 0 1 -1.829,-7.634 121.69,121.69 0 0 1 -1.298,-8.832 c -0.374,-3.37 -0.65,-6.74 -0.846,-10.12 A 317.535,317.535 0 0 1 9.822,168.096 623.851,623.851 0 0 1 9.685,155.226 V 97.014 c 0,-4.293 0.049,-8.577 0.137,-12.87 0.079,-3.822 0.236,-7.634 0.453,-11.456 0.197,-3.38 0.472,-6.75 0.846,-10.11 0.324,-2.967 0.757,-5.914 1.298,-8.842 a 75.568,75.568 0 0 1 1.83,-7.634 51.46,51.46 0 0 1 2.4,-6.494 37.27,37.27 0 0 1 3.03,-5.443 31.05,31.05 0 0 1 3.737,-4.52 30.384,30.384 0 0 1 4.525,-3.723 37.039,37.039 0 0 1 5.469,-3.026 50.494,50.494 0 0 1 6.501,-2.397 75.943,75.943 0 0 1 7.653,-1.818 c 2.931,-0.55 5.892,-0.982 8.863,-1.297 3.364,-0.373 6.747,-0.648 10.13,-0.845 a 344.71,344.71 0 0 1 11.48,-0.452 c 4.298,-0.088 8.597,-0.137 12.895,-0.127 z"
         id="path5"
         style="fill:url(#c)" /></g><g
       id="g1"><path
         fill="#f7f7f7"
         d="m 165.689,11.95 c 74.056,0 84.639,10.557 84.639,84.544 v 59.251 c 0,73.986 -10.583,84.543 -84.639,84.543 H 90.319 C 16.264,240.288 5.68,229.731 5.68,155.745 V 96.494 C 5.68,22.507 16.264,11.95 90.319,11.95 Z"
         filter="url(#a)"
         id="path1"
         style="fill:#f57c00;fill-opacity:1" /><g
         id="g6"
         transform="matrix(5.26,0,0,5.26,1.76,-7.5)"><path
           fill="#f57c00"
           d="m 4,9 v 32 c 0,0 8.4,-3 20,-3 11.6,0 20,3 20,3 V 9 C 44,9 37.3,12 24,12 10.7,12 4,9 4,9 Z"
           id="path1-3" /><path
           fill="#942a09"
           d="m 24,34 c 0.1,0 0.3,0 0.4,0 L 15,19 6.9,36.2 C 10.3,35.3 16.5,34 24,34 Z"
           id="path2" /><path
           fill="#bf360c"
           d="m 24,34 c 3.3,0 6.3,0.2 9,0.6 L 25,22.8 17.2,34.3 C 19.3,34.1 21.6,34 24,34 Z"
           id="path3" /><path
           fill="#e65100"
           d="M 40.7,36 35,26.5 30,34.3 c 4.5,0.4 8.2,1.1 10.7,1.7 z"
           id="path4" /><ellipse
           fill="#fff9c4"
           cx="36"
           cy="19.5"
           rx="2"
           ry="2.5"
           id="ellipse4" /></g></g></g></svg>
