<svg width="256" height="256" viewBox="0 0 256 256" fill="none" xmlns="http://www.w3.org/2000/svg">
<path d="M55.919 51H108.331C109.899 51.0067 111.401 51.6324 112.509 52.741C113.618 53.8496 114.244 55.3512 114.25 56.919V109.054C114.25 110.623 113.627 112.129 112.517 113.239C111.407 114.349 109.901 114.973 108.331 114.973H55.919C55.1421 114.973 54.3728 114.82 53.6557 114.521C52.9386 114.222 52.288 113.784 51.7416 113.231L51.628 113.117C50.5837 112.022 50.0008 110.567 50 109.054V56.919C50.0066 55.3512 50.6324 53.8496 51.741 52.741C52.8495 51.6324 54.3512 51.0066 55.919 51ZM162.877 129.171C167.283 129.159 171.649 130.017 175.724 131.695H175.814C183.468 134.889 189.668 140.803 193.222 148.297C196.775 155.791 197.43 164.334 195.06 172.282C194.258 174.987 193.113 177.579 191.653 179.993L204.652 194.178C204.796 194.333 204.908 194.515 204.981 194.713C205.055 194.911 205.088 195.122 205.08 195.333C205.072 195.544 205.022 195.751 204.933 195.943C204.844 196.135 204.718 196.307 204.563 196.45L195.009 205.158C194.697 205.445 194.285 205.596 193.861 205.579C193.438 205.563 193.039 205.379 192.75 205.068L180.307 191.376C177.898 192.85 175.311 194.013 172.608 194.834C169.451 195.779 166.173 196.26 162.878 196.26C158.475 196.271 154.113 195.413 150.043 193.736H149.953C141.755 190.306 135.247 183.771 131.853 175.558C128.46 167.344 128.456 158.121 131.843 149.905V149.815C134.397 143.692 138.707 138.463 144.231 134.788C149.754 131.114 156.242 129.158 162.877 129.168L162.877 129.171ZM181.807 143.798C179.316 141.31 176.362 139.333 173.112 137.98H173.038C168.149 135.974 162.775 135.46 157.594 136.502C152.413 137.544 147.657 140.096 143.923 143.836L143.834 143.926C141.383 146.4 139.437 149.327 138.105 152.546V152.62C136.787 155.849 136.11 159.304 136.111 162.792C136.119 167.194 137.211 171.527 139.289 175.408C141.368 179.289 144.37 182.599 148.03 185.046C151.69 187.493 155.897 189.001 160.278 189.439C164.659 189.876 169.08 189.228 173.151 187.553C176.399 186.195 179.352 184.219 181.847 181.735L181.936 181.644C184.391 179.174 186.338 176.245 187.666 173.025V172.951C190.341 166.411 190.341 159.083 187.666 152.543C186.311 149.287 184.33 146.328 181.835 143.835L181.807 143.798ZM55.919 130.761H108.331C109.901 130.767 111.405 131.395 112.514 132.506C113.623 133.618 114.247 135.122 114.25 136.692V188.865C114.252 189.643 114.1 190.413 113.803 191.132C113.506 191.851 113.07 192.504 112.52 193.054C111.97 193.604 111.317 194.04 110.598 194.337C109.879 194.634 109.109 194.786 108.331 194.784H55.919C54.3492 194.784 52.8437 194.16 51.7337 193.051C50.6237 191.941 50 190.435 50 188.865V136.692C50.0033 135.122 50.6276 133.618 51.7366 132.506C52.8455 131.395 54.349 130.767 55.919 130.761ZM136.803 51H189.215C190.783 51.0066 192.285 51.6324 193.393 52.741C194.502 53.8496 195.128 55.3512 195.134 56.919V109.054C195.128 110.621 194.502 112.123 193.393 113.232C192.285 114.34 190.783 114.966 189.215 114.973H136.803C135.235 114.966 133.734 114.34 132.625 113.232C131.516 112.123 130.891 110.621 130.884 109.054V56.919C130.885 55.3526 131.507 53.8504 132.613 52.7416L132.739 52.628C133.835 51.5837 135.29 51.0008 136.803 51Z" fill="white"/>
</svg>
