<?xml version="1.0" encoding="UTF-8" standalone="no"?>
<svg
   xmlns:dc="http://purl.org/dc/elements/1.1/"
   xmlns:cc="http://creativecommons.org/ns#"
   xmlns:rdf="http://www.w3.org/1999/02/22-rdf-syntax-ns#"
   xmlns:svg="http://www.w3.org/2000/svg"
   xmlns="http://www.w3.org/2000/svg"
   xmlns:xlink="http://www.w3.org/1999/xlink"
   xmlns:sodipodi="http://sodipodi.sourceforge.net/DTD/sodipodi-0.dtd"
   xmlns:inkscape="http://www.inkscape.org/namespaces/inkscape"
   style="isolation:isolate"
   width="256"
   height="256"
   version="1.1"
   id="svg45"
   sodipodi:docname="4kstogram.svg"
   inkscape:version="1.0.2 (e86c870879, 2021-01-15)">
  <metadata
     id="metadata49">
    <rdf:RDF>
      <cc:Work
         rdf:about="">
        <dc:format>image/svg+xml</dc:format>
        <dc:type
           rdf:resource="http://purl.org/dc/dcmitype/StillImage" />
        <dc:title></dc:title>
      </cc:Work>
    </rdf:RDF>
  </metadata>
  <sodipodi:namedview
     pagecolor="#ffffff"
     bordercolor="#666666"
     borderopacity="1"
     objecttolerance="10"
     gridtolerance="10"
     guidetolerance="10"
     inkscape:pageopacity="0"
     inkscape:pageshadow="2"
     inkscape:window-width="1920"
     inkscape:window-height="994"
     id="namedview47"
     showgrid="false"
     inkscape:zoom="0.83972969"
     inkscape:cx="127.40457"
     inkscape:cy="128"
     inkscape:window-x="0"
     inkscape:window-y="25"
     inkscape:window-maximized="1"
     inkscape:current-layer="svg45" />
  <defs
     id="defs13">
    <linearGradient
       id="linearGradient1360"
       x1="0.51700002"
       x2="0.51700002"
       y2="1"
       gradientTransform="matrix(244.65,0,0,228.34,5.68,11.95)"
       gradientUnits="userSpaceOnUse">
      <stop
         offset="0%"
         stop-color="#ffffff"
         id="stop1352"
         style="stop-color:#ffb380;stop-opacity:1" />
      <stop
         offset="0.30016768"
         stop-color="#ffffff"
         stop-opacity=".098"
         id="stop1354"
         style="stop-color:#ff7f2a;stop-opacity:1" />
      <stop
         offset="0.74241358"
         stop-opacity=".098"
         id="stop1356"
         style="stop-color:#ff6600;stop-opacity:1" />
      <stop
         offset="100%"
         stop-opacity=".498"
         id="stop1358"
         style="stop-color:#ff6600;stop-opacity:1" />
    </linearGradient>
    <filter
       id="a"
       width="400%"
       height="400%"
       x="-200%"
       y="-200%"
       color-interpolation-filters="sRGB"
       filterUnits="objectBoundingBox">
      <feGaussianBlur
         in="SourceGraphic"
         stdDeviation="4.294"
         id="feGaussianBlur2" />
      <feOffset
         dy="4"
         result="pf_100_offsetBlur"
         id="feOffset4" />
      <feFlood
         flood-opacity=".4"
         id="feFlood6" />
      <feComposite
         in2="pf_100_offsetBlur"
         operator="in"
         result="pf_100_dropShadow"
         id="feComposite8" />
      <feBlend
         in="SourceGraphic"
         in2="pf_100_dropShadow"
         id="feBlend10" />
    </filter>
    <linearGradient
       inkscape:collect="always"
       xlink:href="#linearGradient1360"
       id="linearGradient1350"
       x1="225.47525"
       y1="22.144287"
       x2="23.252285"
       y2="226.55301"
       gradientUnits="userSpaceOnUse" />
    <linearGradient
       inkscape:collect="always"
       xlink:href="#linearGradient1360"
       id="linearGradient1392"
       gradientUnits="userSpaceOnUse"
       x1="225.47525"
       y1="22.144287"
       x2="23.252285"
       y2="226.55301" />
  </defs>
  <defs
     id="defs28">
    <filter
       id="b"
       width="400%"
       height="400%"
       x="-200%"
       y="-200%"
       color-interpolation-filters="sRGB"
       filterUnits="objectBoundingBox">
      <feGaussianBlur
         in="SourceGraphic"
         stdDeviation="4.294"
         id="feGaussianBlur17" />
      <feOffset
         dy="4"
         result="pf_100_offsetBlur"
         id="feOffset19" />
      <feFlood
         flood-opacity=".4"
         id="feFlood21" />
      <feComposite
         in2="pf_100_offsetBlur"
         operator="in"
         result="pf_100_dropShadow"
         id="feComposite23" />
      <feBlend
         in="SourceGraphic"
         in2="pf_100_dropShadow"
         id="feBlend25" />
    </filter>
  </defs>
  <path
     fill="#f7f7f7"
     d="m 165.689,11.95 c 74.056,0 84.639,10.557 84.639,84.544 v 59.251 c 0,73.986 -10.583,84.543 -84.639,84.543 H 90.319 C 16.264,240.288 5.68,229.731 5.68,155.745 V 96.494 C 5.68,22.507 16.264,11.95 90.319,11.95 Z"
     filter="url(#a)"
     id="path15"
     style="fill:url(#linearGradient1392);fill-opacity:1" />
  <g
     id="g1499">
    <g
       opacity="0.4"
       id="g43">
      <linearGradient
         id="c"
         x1="0.51700002"
         x2="0.51700002"
         y2="1"
         gradientTransform="matrix(244.65,0,0,228.34,5.68,11.95)"
         gradientUnits="userSpaceOnUse">
        <stop
           offset="0%"
           stop-color="#ffffff"
           id="stop32" />
        <stop
           offset="12.5%"
           stop-color="#ffffff"
           stop-opacity=".098"
           id="stop34" />
        <stop
           offset="92.5%"
           stop-opacity=".098"
           id="stop36" />
        <stop
           offset="100%"
           stop-opacity=".498"
           id="stop38" />
      </linearGradient>
      <path
         fill="url(#c)"
         fill-rule="evenodd"
         d="m 165.068,11.951 c 4.328,-0.01 8.656,0.04 12.984,0.138 3.875,0.078 7.75,0.226 11.626,0.452 3.453,0.196 6.905,0.481 10.348,0.854 3.06,0.335 6.118,0.786 9.148,1.346 a 80.47,80.47 0 0 1 8.046,1.916 53.64,53.64 0 0 1 7.023,2.584 40.413,40.413 0 0 1 6.06,3.35 35.176,35.176 0 0 1 5.134,4.215 35.072,35.072 0 0 1 4.22,5.119 41.692,41.692 0 0 1 3.363,6.042 55.982,55.982 0 0 1 2.597,7.005 80.224,80.224 0 0 1 1.918,8.037 124.43,124.43 0 0 1 1.348,9.127 c 0.374,3.439 0.659,6.878 0.856,10.326 0.226,3.861 0.373,7.732 0.462,11.593 0.088,4.323 0.138,8.646 0.128,12.96 v 58.21 c 0.01,4.324 -0.04,8.637 -0.128,12.96 a 325.177,325.177 0 0 1 -0.462,11.593 200.984,200.984 0 0 1 -0.856,10.326 124.691,124.691 0 0 1 -1.348,9.137 80.687,80.687 0 0 1 -1.918,8.027 55.414,55.414 0 0 1 -2.597,7.005 41.18,41.18 0 0 1 -3.364,6.042 34.559,34.559 0 0 1 -4.22,5.119 35.177,35.177 0 0 1 -5.134,4.215 40.412,40.412 0 0 1 -6.059,3.35 55.138,55.138 0 0 1 -7.023,2.594 77.806,77.806 0 0 1 -8.046,1.906 120,120 0 0 1 -9.148,1.346 c -3.443,0.373 -6.895,0.658 -10.348,0.854 -3.875,0.226 -7.75,0.374 -11.626,0.462 -4.328,0.088 -8.656,0.138 -12.984,0.128 H 90.942 c -4.328,0.01 -8.656,-0.04 -12.984,-0.128 a 328.387,328.387 0 0 1 -11.626,-0.462 203.003,203.003 0 0 1 -10.348,-0.854 120,120 0 0 1 -9.148,-1.346 77.806,77.806 0 0 1 -8.046,-1.906 55.139,55.139 0 0 1 -7.023,-2.594 40.413,40.413 0 0 1 -6.06,-3.35 35.176,35.176 0 0 1 -5.134,-4.215 34.56,34.56 0 0 1 -4.22,-5.119 41.183,41.183 0 0 1 -3.363,-6.042 55.415,55.415 0 0 1 -2.597,-7.005 80.682,80.682 0 0 1 -1.918,-8.027 124.688,124.688 0 0 1 -1.348,-9.137 200.993,200.993 0 0 1 -0.856,-10.326 325.212,325.212 0 0 1 -0.462,-11.593 569.197,569.197 0 0 1 -0.128,-12.96 v -58.21 c -0.01,-4.314 0.04,-8.637 0.128,-12.96 0.089,-3.86 0.236,-7.732 0.462,-11.593 0.197,-3.448 0.482,-6.887 0.856,-10.326 0.335,-3.055 0.787,-6.101 1.348,-9.127 a 80.219,80.219 0 0 1 1.918,-8.037 55.983,55.983 0 0 1 2.597,-7.005 41.695,41.695 0 0 1 3.364,-6.042 35.072,35.072 0 0 1 4.22,-5.119 35.176,35.176 0 0 1 5.134,-4.215 40.413,40.413 0 0 1 6.059,-3.35 53.64,53.64 0 0 1 7.023,-2.584 80.47,80.47 0 0 1 8.046,-1.916 125.11,125.11 0 0 1 9.148,-1.346 c 3.443,-0.373 6.895,-0.658 10.348,-0.854 3.875,-0.226 7.75,-0.374 11.626,-0.452 4.328,-0.098 8.656,-0.148 12.984,-0.138 z m 0.01,4.009 c 4.298,-0.01 8.597,0.039 12.895,0.127 3.827,0.089 7.653,0.236 11.48,0.452 3.383,0.197 6.766,0.472 10.13,0.845 2.971,0.315 5.932,0.747 8.863,1.297 a 75.943,75.943 0 0 1 7.653,1.818 50.493,50.493 0 0 1 6.501,2.397 37.038,37.038 0 0 1 5.47,3.026 30.383,30.383 0 0 1 4.524,3.724 31.05,31.05 0 0 1 3.738,4.519 37.271,37.271 0 0 1 3.03,5.443 51.46,51.46 0 0 1 2.4,6.494 75.563,75.563 0 0 1 1.829,7.634 c 0.54,2.928 0.974,5.875 1.298,8.842 0.374,3.36 0.65,6.73 0.846,10.11 0.217,3.822 0.374,7.634 0.453,11.456 0.088,4.293 0.137,8.577 0.137,12.87 v 58.212 c 0,4.293 -0.049,8.577 -0.137,12.87 a 317.503,317.503 0 0 1 -0.453,11.456 c -0.196,3.38 -0.472,6.75 -0.846,10.12 a 121.689,121.689 0 0 1 -1.298,8.832 75.562,75.562 0 0 1 -1.83,7.634 50.902,50.902 0 0 1 -2.4,6.494 36.767,36.767 0 0 1 -3.03,5.443 30.615,30.615 0 0 1 -3.737,4.53 30.938,30.938 0 0 1 -4.525,3.713 37.038,37.038 0 0 1 -5.469,3.026 49.07,49.07 0 0 1 -6.501,2.397 75.942,75.942 0 0 1 -7.653,1.818 c -2.931,0.55 -5.892,0.982 -8.863,1.306 -3.364,0.364 -6.747,0.649 -10.13,0.836 -3.827,0.216 -7.653,0.373 -11.48,0.452 -4.298,0.098 -8.597,0.137 -12.895,0.137 H 90.932 c -4.298,0 -8.597,-0.04 -12.895,-0.137 a 320.093,320.093 0 0 1 -11.48,-0.452 193.696,193.696 0 0 1 -10.13,-0.836 116.71,116.71 0 0 1 -8.863,-1.306 75.942,75.942 0 0 1 -7.653,-1.818 49.07,49.07 0 0 1 -6.501,-2.397 37.038,37.038 0 0 1 -5.47,-3.026 30.938,30.938 0 0 1 -4.524,-3.714 30.615,30.615 0 0 1 -3.738,-4.529 36.766,36.766 0 0 1 -3.03,-5.443 50.903,50.903 0 0 1 -2.4,-6.494 75.567,75.567 0 0 1 -1.829,-7.634 121.69,121.69 0 0 1 -1.298,-8.832 c -0.374,-3.37 -0.65,-6.74 -0.846,-10.12 A 317.535,317.535 0 0 1 9.822,168.096 623.851,623.851 0 0 1 9.685,155.226 V 97.014 c 0,-4.293 0.049,-8.577 0.137,-12.87 0.079,-3.822 0.236,-7.634 0.453,-11.456 0.197,-3.38 0.472,-6.75 0.846,-10.11 0.324,-2.967 0.757,-5.914 1.298,-8.842 a 75.568,75.568 0 0 1 1.83,-7.634 51.46,51.46 0 0 1 2.4,-6.494 37.27,37.27 0 0 1 3.03,-5.443 31.05,31.05 0 0 1 3.737,-4.52 30.384,30.384 0 0 1 4.525,-3.723 37.039,37.039 0 0 1 5.469,-3.026 50.494,50.494 0 0 1 6.501,-2.397 75.943,75.943 0 0 1 7.653,-1.818 c 2.931,-0.55 5.892,-0.982 8.863,-1.297 3.364,-0.373 6.747,-0.648 10.13,-0.845 a 344.71,344.71 0 0 1 11.48,-0.452 c 4.298,-0.088 8.597,-0.137 12.895,-0.127 z"
         id="path41"
         style="fill:url(#c)" />
    </g>
    <g
       style="fill:#ffffff"
       id="g1348"
       transform="matrix(3.4090909,0,0,3.4090909,42.772728,40.772728)">
      <path
         d="M 16,3 C 8.83,3 3,8.83 3,16 v 18 c 0,7.17 5.83,13 13,13 h 18 c 7.17,0 13,-5.83 13,-13 V 16 C 47,8.83 41.17,3 34,3 Z m 21,8 c 1.1,0 2,0.9 2,2 0,1.1 -0.9,2 -2,2 -1.1,0 -2,-0.9 -2,-2 0,-1.1 0.9,-2 2,-2 z m -12,3 c 6.07,0 11,4.93 11,11 0,6.07 -4.93,11 -11,11 -6.07,0 -11,-4.93 -11,-11 0,-6.07 4.93,-11 11,-11 z m 0,2 c -4.96,0 -9,4.04 -9,9 0,4.96 4.04,9 9,9 4.96,0 9,-4.04 9,-9 0,-4.96 -4.04,-9 -9,-9 z"
         id="path1337"
         style="fill:#ffffff" />
    </g>
  </g>
</svg>
