<?xml version="1.0" encoding="UTF-8" standalone="no"?>
<svg
   xmlns:dc="http://purl.org/dc/elements/1.1/"
   xmlns:cc="http://creativecommons.org/ns#"
   xmlns:rdf="http://www.w3.org/1999/02/22-rdf-syntax-ns#"
   xmlns:svg="http://www.w3.org/2000/svg"
   xmlns="http://www.w3.org/2000/svg"
   xmlns:xlink="http://www.w3.org/1999/xlink"
   style="isolation:isolate"
   width="256"
   height="256"
   version="1.1"
   id="svg45">
  <metadata
     id="metadata49">
    <rdf:RDF>
      <cc:Work
         rdf:about="">
        <dc:format>image/svg+xml</dc:format>
        <dc:type
           rdf:resource="http://purl.org/dc/dcmitype/StillImage" />
        <dc:title></dc:title>
      </cc:Work>
    </rdf:RDF>
  </metadata>
  <defs
     id="defs13">
    <linearGradient
       id="linearGradient1360"
       x1="0.51700002"
       x2="0.51700002"
       y2="1"
       gradientTransform="matrix(244.65,0,0,228.34,5.68,11.95)"
       gradientUnits="userSpaceOnUse">
      <stop
         offset="0%"
         stop-color="#ffffff"
         id="stop1352"
         style="stop-color:#ffb380;stop-opacity:1" />
      <stop
         offset="0.30016768"
         stop-color="#ffffff"
         stop-opacity=".098"
         id="stop1354"
         style="stop-color:#ff7f2a;stop-opacity:1" />
      <stop
         offset="0.74241358"
         stop-opacity=".098"
         id="stop1356"
         style="stop-color:#ff6600;stop-opacity:1" />
      <stop
         offset="100%"
         stop-opacity=".498"
         id="stop1358"
         style="stop-color:#ff6600;stop-opacity:1" />
    </linearGradient>
    <filter
       id="a"
       width="400%"
       height="400%"
       x="-200%"
       y="-200%"
       color-interpolation-filters="sRGB"
       filterUnits="objectBoundingBox">
      <feGaussianBlur
         in="SourceGraphic"
         stdDeviation="4.294"
         id="feGaussianBlur2" />
      <feOffset
         dy="4"
         result="pf_100_offsetBlur"
         id="feOffset4" />
      <feFlood
         flood-opacity=".4"
         id="feFlood6" />
      <feComposite
         in2="pf_100_offsetBlur"
         operator="in"
         result="pf_100_dropShadow"
         id="feComposite8" />
      <feBlend
         in="SourceGraphic"
         in2="pf_100_dropShadow"
         id="feBlend10" />
    </filter>
    <linearGradient
       xlink:href="#linearGradient1360"
       id="linearGradient1350"
       x1="225.47525"
       y1="22.144287"
       x2="23.252285"
       y2="226.55301"
       gradientUnits="userSpaceOnUse" />
  </defs>
  <defs
     id="defs28">
    <filter
       id="b"
       width="400%"
       height="400%"
       x="-200%"
       y="-200%"
       color-interpolation-filters="sRGB"
       filterUnits="objectBoundingBox">
      <feGaussianBlur
         in="SourceGraphic"
         stdDeviation="4.294"
         id="feGaussianBlur17" />
      <feOffset
         dy="4"
         result="pf_100_offsetBlur"
         id="feOffset19" />
      <feFlood
         flood-opacity=".4"
         id="feFlood21" />
      <feComposite
         in2="pf_100_offsetBlur"
         operator="in"
         result="pf_100_dropShadow"
         id="feComposite23" />
      <feBlend
         in="SourceGraphic"
         in2="pf_100_dropShadow"
         id="feBlend25" />
    </filter>
  </defs>
  <g
     id="g1848">
    <path
       id="path15"
       style="fill:#ff4469;fill-opacity:1"
       d="M 162.58789 11.949219 L 90.318359 11.949219 C 16.263359 11.949219 5.6796875 22.507141 5.6796875 96.494141 L 5.6796875 155.74414 C 5.6796875 229.73014 16.263359 240.28711 90.318359 240.28711 L 165.68945 240.28711 C 239.74545 240.28711 250.32812 229.73014 250.32812 155.74414 L 250.32812 96.494141 C 250.32813 40.128023 244.09287 20.617657 208.42188 14.501953 L 208.42188 119.01367 A 99.916668 99.916668 0 0 1 208.43164 119.16992 A 99.916668 99.916668 0 0 1 208.47656 120.00781 A 99.916668 99.916668 0 0 1 208.51562 120.84766 A 99.916668 99.916668 0 0 1 208.54688 121.6875 A 99.916668 99.916668 0 0 1 208.57031 122.5293 A 99.916668 99.916668 0 0 1 208.58789 123.36914 A 99.916668 99.916668 0 0 1 208.59766 124.20898 A 99.916668 99.916668 0 0 1 208.59961 125.04883 A 99.916668 99.916668 0 0 1 208.5957 125.89062 A 99.916668 99.916668 0 0 1 208.58398 126.73047 A 99.916668 99.916668 0 0 1 208.56641 127.57031 A 99.916668 99.916668 0 0 1 208.54102 128.41211 A 99.916668 99.916668 0 0 1 208.50781 129.25195 A 99.916668 99.916668 0 0 1 208.46875 130.08984 A 99.916668 99.916668 0 0 1 208.42188 130.92969 A 79.979168 79.979168 0 0 1 208.41992 131.19336 A 79.979168 79.979168 0 0 1 208.4082 131.94531 A 79.979168 79.979168 0 0 1 208.39062 132.69727 A 79.979168 79.979168 0 0 1 208.36523 133.44922 A 79.979168 79.979168 0 0 1 208.33203 134.19922 A 79.979168 79.979168 0 0 1 208.29297 134.95117 A 79.979168 79.979168 0 0 1 208.24609 135.70117 A 79.979168 79.979168 0 0 1 208.19336 136.45117 A 79.979168 79.979168 0 0 1 208.13281 137.20117 A 79.979168 79.979168 0 0 1 208.06445 137.94922 A 79.979168 79.979168 0 0 1 207.99023 138.69727 A 79.979168 79.979168 0 0 1 207.9082 139.44531 A 79.979168 79.979168 0 0 1 207.82031 140.19336 A 79.979168 79.979168 0 0 1 207.72461 140.9375 A 79.979168 79.979168 0 0 1 207.62109 141.68359 A 79.979168 79.979168 0 0 1 207.51172 142.42773 A 79.979168 79.979168 0 0 1 207.39453 143.16992 A 79.979168 79.979168 0 0 1 207.27148 143.91211 A 79.979168 79.979168 0 0 1 207.14062 144.65234 A 79.979168 79.979168 0 0 1 207.00195 145.39258 A 79.979168 79.979168 0 0 1 206.85742 146.12891 A 79.979168 79.979168 0 0 1 206.70703 146.86719 A 79.979168 79.979168 0 0 1 206.54688 147.60156 A 79.979168 79.979168 0 0 1 206.38281 148.33594 A 79.979168 79.979168 0 0 1 206.21094 149.06641 A 79.979168 79.979168 0 0 1 206.03125 149.79688 A 79.979168 79.979168 0 0 1 205.8457 150.52539 A 79.979168 79.979168 0 0 1 205.65234 151.25391 A 79.979168 79.979168 0 0 1 205.45312 151.97852 A 79.979168 79.979168 0 0 1 205.24609 152.70117 A 79.979168 79.979168 0 0 1 205.0332 153.42188 A 79.979168 79.979168 0 0 1 204.8125 154.14062 A 79.979168 79.979168 0 0 1 204.58594 154.85938 A 79.979168 79.979168 0 0 1 204.35156 155.57422 A 79.979168 79.979168 0 0 1 204.11133 156.28516 A 79.979168 79.979168 0 0 1 203.86523 156.99609 A 79.979168 79.979168 0 0 1 203.61133 157.70508 A 79.979168 79.979168 0 0 1 203.35156 158.41016 A 79.979168 79.979168 0 0 1 203.08398 159.11328 A 79.979168 79.979168 0 0 1 202.81055 159.8125 A 79.979168 79.979168 0 0 1 202.53125 160.51172 A 79.979168 79.979168 0 0 1 202.24414 161.20703 A 79.979168 79.979168 0 0 1 201.95117 161.89844 A 79.979168 79.979168 0 0 1 201.65234 162.58789 A 79.979168 79.979168 0 0 1 201.3457 163.27539 A 79.979168 79.979168 0 0 1 201.0332 163.95898 A 79.979168 79.979168 0 0 1 200.71484 164.64062 A 79.979168 79.979168 0 0 1 200.38867 165.31836 A 79.979168 79.979168 0 0 1 200.05664 165.99414 A 79.979168 79.979168 0 0 1 199.71875 166.66602 A 79.979168 79.979168 0 0 1 199.375 167.33398 A 79.979168 79.979168 0 0 1 199.02344 168 A 79.979168 79.979168 0 0 1 198.66797 168.66211 A 79.979168 79.979168 0 0 1 198.30469 169.32031 A 79.979168 79.979168 0 0 1 197.93555 169.97461 A 79.979168 79.979168 0 0 1 197.55859 170.62695 A 79.979168 79.979168 0 0 1 197.17773 171.27539 A 79.979168 79.979168 0 0 1 196.79102 171.91992 A 79.979168 79.979168 0 0 1 196.39648 172.56055 A 79.979168 79.979168 0 0 1 195.99805 173.19727 A 79.979168 79.979168 0 0 1 195.5918 173.83008 A 79.979168 79.979168 0 0 1 195.17969 174.45898 A 79.979168 79.979168 0 0 1 194.76367 175.08594 A 79.979168 79.979168 0 0 1 194.33984 175.70703 A 79.979168 79.979168 0 0 1 193.91016 176.32422 A 79.979168 79.979168 0 0 1 193.47461 176.9375 A 79.979168 79.979168 0 0 1 193.03516 177.54688 A 79.979168 79.979168 0 0 1 192.58789 178.15234 A 79.979168 79.979168 0 0 1 192.13672 178.75391 A 79.979168 79.979168 0 0 1 191.67969 179.34961 A 79.979168 79.979168 0 0 1 191.21484 179.94336 A 79.979168 79.979168 0 0 1 190.74609 180.53125 A 79.979168 79.979168 0 0 1 190.27344 181.11523 A 79.979168 79.979168 0 0 1 189.79297 181.69336 A 79.979168 79.979168 0 0 1 189.30664 182.26758 A 79.979168 79.979168 0 0 1 188.81641 182.83789 A 79.979168 79.979168 0 0 1 188.32031 183.40234 A 79.979168 79.979168 0 0 1 187.82031 183.96484 A 79.979168 79.979168 0 0 1 187.3125 184.51953 A 79.979168 79.979168 0 0 1 186.80078 185.07031 A 79.979168 79.979168 0 0 1 186.28516 185.61719 A 79.979168 79.979168 0 0 1 185.76367 186.1582 A 79.979168 79.979168 0 0 1 185.23633 186.69531 A 79.979168 79.979168 0 0 1 184.70312 187.22656 A 79.979168 79.979168 0 0 1 184.16602 187.75391 A 79.979168 79.979168 0 0 1 183.625 188.27539 A 79.979168 79.979168 0 0 1 183.07812 188.79102 A 79.979168 79.979168 0 0 1 182.52734 189.30273 A 79.979168 79.979168 0 0 1 181.9707 189.80859 A 79.979168 79.979168 0 0 1 181.4082 190.30859 A 79.979168 79.979168 0 0 1 180.84375 190.80469 A 79.979168 79.979168 0 0 1 180.27344 191.29297 A 79.979168 79.979168 0 0 1 179.69727 191.7793 A 79.979168 79.979168 0 0 1 179.11719 192.25781 A 79.979168 79.979168 0 0 1 178.5332 192.73047 A 79.979168 79.979168 0 0 1 177.94531 193.19922 A 79.979168 79.979168 0 0 1 177.35352 193.66211 A 79.979168 79.979168 0 0 1 176.75586 194.11914 A 79.979168 79.979168 0 0 1 176.1543 194.57031 A 79.979168 79.979168 0 0 1 175.54883 195.01562 A 79.979168 79.979168 0 0 1 174.93945 195.45703 A 79.979168 79.979168 0 0 1 174.32422 195.89062 A 79.979168 79.979168 0 0 1 173.70703 196.31836 A 79.979168 79.979168 0 0 1 173.08398 196.74219 A 79.979168 79.979168 0 0 1 172.45898 197.1582 A 79.979168 79.979168 0 0 1 171.82812 197.57031 A 79.979168 79.979168 0 0 1 171.19531 197.97461 A 79.979168 79.979168 0 0 1 170.55859 198.37305 A 79.979168 79.979168 0 0 1 169.91602 198.76562 A 79.979168 79.979168 0 0 1 169.27148 199.1543 A 79.979168 79.979168 0 0 1 168.62305 199.53516 A 79.979168 79.979168 0 0 1 167.9707 199.9082 A 79.979168 79.979168 0 0 1 167.31641 200.27734 A 79.979168 79.979168 0 0 1 166.65625 200.64062 A 79.979168 79.979168 0 0 1 165.99414 200.99609 A 79.979168 79.979168 0 0 1 165.32812 201.3457 A 79.979168 79.979168 0 0 1 164.66016 201.68945 A 79.979168 79.979168 0 0 1 163.98828 202.02734 A 79.979168 79.979168 0 0 1 163.3125 202.35742 A 79.979168 79.979168 0 0 1 162.63477 202.68359 A 79.979168 79.979168 0 0 1 161.95312 203.00195 A 79.979168 79.979168 0 0 1 161.26953 203.3125 A 79.979168 79.979168 0 0 1 160.58203 203.61914 A 79.979168 79.979168 0 0 1 159.89062 203.91797 A 79.979168 79.979168 0 0 1 159.19922 204.20898 A 79.979168 79.979168 0 0 1 158.50391 204.49609 A 79.979168 79.979168 0 0 1 157.80469 204.77539 A 79.979168 79.979168 0 0 1 157.10352 205.04688 A 79.979168 79.979168 0 0 1 156.40039 205.31445 A 79.979168 79.979168 0 0 1 155.69531 205.57422 A 79.979168 79.979168 0 0 1 154.98633 205.82617 A 79.979168 79.979168 0 0 1 154.27539 206.07227 A 79.979168 79.979168 0 0 1 153.5625 206.3125 A 79.979168 79.979168 0 0 1 152.84766 206.54492 A 79.979168 79.979168 0 0 1 152.13086 206.77148 A 79.979168 79.979168 0 0 1 151.41211 206.99023 A 79.979168 79.979168 0 0 1 150.68945 207.20312 A 79.979168 79.979168 0 0 1 149.9668 207.4082 A 79.979168 79.979168 0 0 1 149.24219 207.60742 A 79.979168 79.979168 0 0 1 148.51367 207.80078 A 79.979168 79.979168 0 0 1 147.78516 207.98438 A 79.979168 79.979168 0 0 1 147.05469 208.16406 A 79.979168 79.979168 0 0 1 146.32227 208.33594 A 79.979168 79.979168 0 0 1 145.58984 208.5 A 79.979168 79.979168 0 0 1 144.85352 208.6582 A 79.979168 79.979168 0 0 1 144.11719 208.80859 A 79.979168 79.979168 0 0 1 143.37891 208.95312 A 79.979168 79.979168 0 0 1 142.63867 209.08984 A 79.979168 79.979168 0 0 1 141.89844 209.21875 A 79.979168 79.979168 0 0 1 141.15625 209.3418 A 79.979168 79.979168 0 0 1 140.41406 209.45898 A 79.979168 79.979168 0 0 1 139.66992 209.56641 A 79.979168 79.979168 0 0 1 138.92578 209.66992 A 79.979168 79.979168 0 0 1 138.17969 209.76367 A 79.979168 79.979168 0 0 1 137.43164 209.85156 A 79.979168 79.979168 0 0 1 136.68359 209.93359 A 79.979168 79.979168 0 0 1 135.93555 210.00781 A 79.979168 79.979168 0 0 1 135.1875 210.07422 A 79.979168 79.979168 0 0 1 134.4375 210.13477 A 79.979168 79.979168 0 0 1 133.6875 210.1875 A 79.979168 79.979168 0 0 1 132.9375 210.23242 A 79.979168 79.979168 0 0 1 132.18555 210.27148 A 79.979168 79.979168 0 0 1 131.43359 210.30273 A 79.979168 79.979168 0 0 1 130.68164 210.32812 A 79.979168 79.979168 0 0 1 129.93164 210.3457 A 79.979168 79.979168 0 0 1 129.17969 210.35547 A 79.979168 79.979168 0 0 1 128.42773 210.35938 A 79.979168 79.979168 0 0 1 127.67383 210.35547 A 79.979168 79.979168 0 0 1 126.92188 210.34375 A 79.979168 79.979168 0 0 1 126.17188 210.32617 A 79.979168 79.979168 0 0 1 125.41992 210.30078 A 79.979168 79.979168 0 0 1 124.66797 210.26953 A 79.979168 79.979168 0 0 1 123.91797 210.23047 A 79.979168 79.979168 0 0 1 123.16602 210.18359 A 79.979168 79.979168 0 0 1 122.41602 210.13086 A 79.979168 79.979168 0 0 1 121.66602 210.07031 A 79.979168 79.979168 0 0 1 120.91797 210.00391 A 79.979168 79.979168 0 0 1 120.16992 209.92969 A 79.979168 79.979168 0 0 1 119.42188 209.84766 A 79.979168 79.979168 0 0 1 118.67578 209.75977 A 79.979168 79.979168 0 0 1 117.92969 209.66406 A 79.979168 79.979168 0 0 1 117.18359 209.5625 A 79.979168 79.979168 0 0 1 116.43945 209.45312 A 79.979168 79.979168 0 0 1 115.69727 209.33594 A 79.979168 79.979168 0 0 1 114.95508 209.21289 A 79.979168 79.979168 0 0 1 114.21484 209.08203 A 79.979168 79.979168 0 0 1 113.47461 208.94531 A 79.979168 79.979168 0 0 1 112.73633 208.80078 A 79.979168 79.979168 0 0 1 112 208.65039 A 79.979168 79.979168 0 0 1 111.26562 208.49219 A 79.979168 79.979168 0 0 1 110.53125 208.32617 A 79.979168 79.979168 0 0 1 109.79883 208.1543 A 79.979168 79.979168 0 0 1 109.06836 207.97656 A 79.979168 79.979168 0 0 1 108.33984 207.79102 A 79.979168 79.979168 0 0 1 107.61328 207.59766 A 79.979168 79.979168 0 0 1 106.88867 207.39844 A 79.979168 79.979168 0 0 1 106.16406 207.19336 A 79.979168 79.979168 0 0 1 105.44336 206.98047 A 79.979168 79.979168 0 0 1 104.72461 206.75977 A 79.979168 79.979168 0 0 1 104.00781 206.5332 A 79.979168 79.979168 0 0 1 103.29297 206.30078 A 79.979168 79.979168 0 0 1 102.58008 206.06055 A 79.979168 79.979168 0 0 1 101.86914 205.81445 A 79.979168 79.979168 0 0 1 101.16016 205.56055 A 79.979168 79.979168 0 0 1 100.45508 205.30078 A 79.979168 79.979168 0 0 1 99.751953 205.03516 A 79.979168 79.979168 0 0 1 99.050781 204.76172 A 79.979168 79.979168 0 0 1 98.353516 204.48242 A 79.979168 79.979168 0 0 1 97.658203 204.19531 A 79.979168 79.979168 0 0 1 96.964844 203.90234 A 79.979168 79.979168 0 0 1 96.275391 203.60352 A 79.979168 79.979168 0 0 1 95.587891 203.29883 A 79.979168 79.979168 0 0 1 94.904297 202.98633 A 79.979168 79.979168 0 0 1 94.222656 202.66797 A 79.979168 79.979168 0 0 1 93.544922 202.3418 A 79.979168 79.979168 0 0 1 92.869141 202.01172 A 79.979168 79.979168 0 0 1 92.197266 201.67383 A 79.979168 79.979168 0 0 1 91.529297 201.33008 A 79.979168 79.979168 0 0 1 90.863281 200.97852 A 79.979168 79.979168 0 0 1 90.201172 200.62305 A 79.979168 79.979168 0 0 1 89.542969 200.25977 A 79.979168 79.979168 0 0 1 88.886719 199.89062 A 79.979168 79.979168 0 0 1 88.234375 199.51562 A 79.979168 79.979168 0 0 1 87.585938 199.13477 A 79.979168 79.979168 0 0 1 86.941406 198.74805 A 79.979168 79.979168 0 0 1 86.300781 198.35547 A 79.979168 79.979168 0 0 1 85.664062 197.95508 A 79.979168 79.979168 0 0 1 85.03125 197.55078 A 79.979168 79.979168 0 0 1 84.400391 197.13867 A 79.979168 79.979168 0 0 1 83.775391 196.72266 A 79.979168 79.979168 0 0 1 83.152344 196.29883 A 79.979168 79.979168 0 0 1 82.535156 195.87109 A 79.979168 79.979168 0 0 1 81.921875 195.43555 A 79.979168 79.979168 0 0 1 81.3125 194.99609 A 79.979168 79.979168 0 0 1 80.707031 194.54883 A 79.979168 79.979168 0 0 1 80.105469 194.09766 A 79.979168 79.979168 0 0 1 79.507812 193.64062 A 79.979168 79.979168 0 0 1 78.916016 193.17773 A 79.979168 79.979168 0 0 1 78.328125 192.70898 A 79.979168 79.979168 0 0 1 77.744141 192.23438 A 79.979168 79.979168 0 0 1 77.164062 191.75586 A 79.979168 79.979168 0 0 1 76.589844 191.26953 A 79.979168 79.979168 0 0 1 76.019531 190.7793 A 79.979168 79.979168 0 0 1 75.453125 190.28516 A 79.979168 79.979168 0 0 1 74.892578 189.7832 A 79.979168 79.979168 0 0 1 74.335938 189.27734 A 79.979168 79.979168 0 0 1 73.785156 188.76562 A 79.979168 79.979168 0 0 1 73.238281 188.25 A 79.979168 79.979168 0 0 1 72.697266 187.72852 A 79.979168 79.979168 0 0 1 72.160156 187.20117 A 79.979168 79.979168 0 0 1 71.628906 186.66992 A 79.979168 79.979168 0 0 1 71.101562 186.13281 A 79.979168 79.979168 0 0 1 70.580078 185.5918 A 79.979168 79.979168 0 0 1 70.0625 185.04492 A 79.979168 79.979168 0 0 1 69.552734 184.49414 A 79.979168 79.979168 0 0 1 69.044922 183.9375 A 79.979168 79.979168 0 0 1 68.544922 183.37695 A 79.979168 79.979168 0 0 1 68.048828 182.81055 A 79.979168 79.979168 0 0 1 67.558594 182.24023 A 79.979168 79.979168 0 0 1 67.074219 181.66602 A 79.979168 79.979168 0 0 1 66.59375 181.08594 A 79.979168 79.979168 0 0 1 66.121094 180.50195 A 79.979168 79.979168 0 0 1 65.652344 179.91406 A 79.979168 79.979168 0 0 1 65.189453 179.32227 A 79.979168 79.979168 0 0 1 64.730469 178.72461 A 79.979168 79.979168 0 0 1 64.279297 178.12305 A 79.979168 79.979168 0 0 1 63.833984 177.51758 A 79.979168 79.979168 0 0 1 63.392578 176.9082 A 79.979168 79.979168 0 0 1 62.958984 176.29492 A 79.979168 79.979168 0 0 1 62.529297 175.67773 A 79.979168 79.979168 0 0 1 62.107422 175.05469 A 79.979168 79.979168 0 0 1 61.689453 174.42969 A 79.979168 79.979168 0 0 1 61.277344 173.80078 A 79.979168 79.979168 0 0 1 60.873047 173.16602 A 79.979168 79.979168 0 0 1 60.474609 172.5293 A 79.979168 79.979168 0 0 1 60.080078 171.88867 A 79.979168 79.979168 0 0 1 59.693359 171.24414 A 79.979168 79.979168 0 0 1 59.3125 170.5957 A 79.979168 79.979168 0 0 1 58.9375 169.94336 A 79.979168 79.979168 0 0 1 58.568359 169.28906 A 79.979168 79.979168 0 0 1 58.205078 168.62891 A 79.979168 79.979168 0 0 1 57.847656 167.9668 A 79.979168 79.979168 0 0 1 57.498047 167.30273 A 79.979168 79.979168 0 0 1 57.154297 166.63281 A 79.979168 79.979168 0 0 1 56.816406 165.96094 A 79.979168 79.979168 0 0 1 56.484375 165.28711 A 79.979168 79.979168 0 0 1 56.160156 164.60742 A 79.979168 79.979168 0 0 1 55.841797 163.92773 A 79.979168 79.979168 0 0 1 55.529297 163.24219 A 79.979168 79.979168 0 0 1 55.222656 162.55664 A 79.979168 79.979168 0 0 1 54.923828 161.86523 A 79.979168 79.979168 0 0 1 54.630859 161.17383 A 79.979168 79.979168 0 0 1 54.345703 160.47852 A 79.979168 79.979168 0 0 1 54.064453 159.7793 A 79.979168 79.979168 0 0 1 53.792969 159.08008 A 79.979168 79.979168 0 0 1 53.525391 158.37695 A 79.979168 79.979168 0 0 1 53.265625 157.66992 A 79.979168 79.979168 0 0 1 53.011719 156.96289 A 79.979168 79.979168 0 0 1 52.765625 156.25195 A 79.979168 79.979168 0 0 1 52.525391 155.53906 A 79.979168 79.979168 0 0 1 52.292969 154.82422 A 79.979168 79.979168 0 0 1 52.066406 154.10742 A 79.979168 79.979168 0 0 1 51.845703 153.38867 A 79.979168 79.979168 0 0 1 51.632812 152.66602 A 79.979168 79.979168 0 0 1 51.427734 151.94336 A 79.979168 79.979168 0 0 1 51.228516 151.21875 A 79.979168 79.979168 0 0 1 51.035156 150.49219 A 79.979168 79.979168 0 0 1 50.849609 149.76172 A 79.979168 79.979168 0 0 1 50.671875 149.03125 A 79.979168 79.979168 0 0 1 50.5 148.30078 A 79.979168 79.979168 0 0 1 50.333984 147.56641 A 79.979168 79.979168 0 0 1 50.175781 146.83203 A 79.979168 79.979168 0 0 1 50.025391 146.09375 A 79.979168 79.979168 0 0 1 49.880859 145.35547 A 79.979168 79.979168 0 0 1 49.742188 144.61719 A 79.979168 79.979168 0 0 1 49.613281 143.87695 A 79.979168 79.979168 0 0 1 49.488281 143.13477 A 79.979168 79.979168 0 0 1 49.373047 142.39258 A 79.979168 79.979168 0 0 1 49.263672 141.64844 A 79.979168 79.979168 0 0 1 49.160156 140.90234 A 79.979168 79.979168 0 0 1 49.066406 140.15625 A 79.979168 79.979168 0 0 1 48.976562 139.41016 A 79.979168 79.979168 0 0 1 48.896484 138.66211 A 79.979168 79.979168 0 0 1 48.820312 137.91406 A 79.979168 79.979168 0 0 1 48.753906 137.16406 A 79.979168 79.979168 0 0 1 48.693359 136.41602 A 79.979168 79.979168 0 0 1 48.640625 135.66602 A 79.979168 79.979168 0 0 1 48.59375 134.91406 A 79.979168 79.979168 0 0 1 48.554688 134.16406 A 79.979168 79.979168 0 0 1 48.523438 133.41211 A 79.979168 79.979168 0 0 1 48.498047 132.66016 A 79.979168 79.979168 0 0 1 48.480469 131.9082 A 79.979168 79.979168 0 0 1 48.46875 131.15625 A 79.979168 79.979168 0 0 1 48.464844 130.4043 A 79.979168 79.979168 0 0 1 48.46875 129.65234 A 79.979168 79.979168 0 0 1 48.478516 128.90039 A 79.979168 79.979168 0 0 1 48.496094 128.14844 A 79.979168 79.979168 0 0 1 48.521484 127.39844 A 79.979168 79.979168 0 0 1 48.552734 126.64648 A 79.979168 79.979168 0 0 1 48.591797 125.89453 A 79.979168 79.979168 0 0 1 48.636719 125.14453 A 79.979168 79.979168 0 0 1 48.689453 124.39453 A 79.979168 79.979168 0 0 1 48.75 123.64453 A 79.979168 79.979168 0 0 1 48.816406 122.89648 A 79.979168 79.979168 0 0 1 48.890625 122.14648 A 79.979168 79.979168 0 0 1 48.970703 121.40039 A 79.979168 79.979168 0 0 1 49.058594 120.65234 A 79.979168 79.979168 0 0 1 49.154297 119.90625 A 79.979168 79.979168 0 0 1 49.255859 119.16211 A 79.979168 79.979168 0 0 1 49.365234 118.41797 A 79.979168 79.979168 0 0 1 49.480469 117.67383 A 79.979168 79.979168 0 0 1 49.603516 116.93359 A 79.979168 79.979168 0 0 1 49.734375 116.19141 A 79.979168 79.979168 0 0 1 49.871094 115.45312 A 79.979168 79.979168 0 0 1 50.015625 114.71484 A 79.979168 79.979168 0 0 1 50.166016 113.97852 A 79.979168 79.979168 0 0 1 50.322266 113.24219 A 79.979168 79.979168 0 0 1 50.488281 112.50781 A 79.979168 79.979168 0 0 1 50.660156 111.77539 A 79.979168 79.979168 0 0 1 50.837891 111.04492 A 79.979168 79.979168 0 0 1 51.023438 110.31641 A 79.979168 79.979168 0 0 1 51.214844 109.58984 A 79.979168 79.979168 0 0 1 51.414062 108.86523 A 79.979168 79.979168 0 0 1 51.619141 108.14062 A 79.979168 79.979168 0 0 1 51.832031 107.41992 A 79.979168 79.979168 0 0 1 52.050781 106.70117 A 79.979168 79.979168 0 0 1 52.277344 105.98242 A 79.979168 79.979168 0 0 1 52.509766 105.26758 A 79.979168 79.979168 0 0 1 52.75 104.55469 A 79.979168 79.979168 0 0 1 52.996094 103.84375 A 79.979168 79.979168 0 0 1 53.248047 103.13672 A 79.979168 79.979168 0 0 1 53.507812 102.42969 A 79.979168 79.979168 0 0 1 53.773438 101.72656 A 79.979168 79.979168 0 0 1 54.046875 101.02734 A 79.979168 79.979168 0 0 1 54.326172 100.32812 A 79.979168 79.979168 0 0 1 54.611328 99.632812 A 79.979168 79.979168 0 0 1 54.904297 98.939453 A 79.979168 79.979168 0 0 1 55.203125 98.25 A 79.979168 79.979168 0 0 1 55.507812 97.5625 A 79.979168 79.979168 0 0 1 55.820312 96.878906 A 79.979168 79.979168 0 0 1 56.138672 96.197266 A 79.979168 79.979168 0 0 1 56.462891 95.517578 A 79.979168 79.979168 0 0 1 56.794922 94.84375 A 79.979168 79.979168 0 0 1 57.130859 94.171875 A 79.979168 79.979168 0 0 1 57.474609 93.501953 A 79.979168 79.979168 0 0 1 57.824219 92.835938 A 79.979168 79.979168 0 0 1 58.181641 92.173828 A 79.979168 79.979168 0 0 1 58.542969 91.515625 A 79.979168 79.979168 0 0 1 58.912109 90.859375 A 79.979168 79.979168 0 0 1 59.287109 90.207031 A 79.979168 79.979168 0 0 1 59.667969 89.558594 A 79.979168 79.979168 0 0 1 60.054688 88.914062 A 79.979168 79.979168 0 0 1 60.447266 88.273438 A 79.979168 79.979168 0 0 1 60.845703 87.634766 A 79.979168 79.979168 0 0 1 61.25 87.001953 A 79.979168 79.979168 0 0 1 61.662109 86.371094 A 79.979168 79.979168 0 0 1 62.078125 85.746094 A 79.979168 79.979168 0 0 1 62.501953 85.123047 A 79.979168 79.979168 0 0 1 62.929688 84.505859 A 79.979168 79.979168 0 0 1 63.363281 83.892578 A 79.979168 79.979168 0 0 1 63.804688 83.28125 A 79.979168 79.979168 0 0 1 64.25 82.675781 A 79.979168 79.979168 0 0 1 64.701172 82.074219 A 79.979168 79.979168 0 0 1 65.158203 81.476562 A 79.979168 79.979168 0 0 1 65.621094 80.884766 A 79.979168 79.979168 0 0 1 66.087891 80.296875 A 79.979168 79.979168 0 0 1 66.5625 79.712891 A 79.979168 79.979168 0 0 1 67.041016 79.132812 A 79.979168 79.979168 0 0 1 67.525391 78.556641 A 79.979168 79.979168 0 0 1 68.015625 77.986328 A 79.979168 79.979168 0 0 1 68.511719 77.419922 A 79.979168 79.979168 0 0 1 69.011719 76.859375 A 79.979168 79.979168 0 0 1 69.517578 76.302734 A 79.979168 79.979168 0 0 1 70.029297 75.751953 A 79.979168 79.979168 0 0 1 70.544922 75.205078 A 79.979168 79.979168 0 0 1 71.066406 74.662109 A 79.979168 79.979168 0 0 1 71.59375 74.125 A 79.979168 79.979168 0 0 1 72.125 73.59375 A 79.979168 79.979168 0 0 1 72.660156 73.066406 A 79.979168 79.979168 0 0 1 73.201172 72.544922 A 79.979168 79.979168 0 0 1 73.748047 72.027344 A 79.979168 79.979168 0 0 1 74.298828 71.515625 A 79.979168 79.979168 0 0 1 74.855469 71.009766 A 79.979168 79.979168 0 0 1 75.416016 70.507812 A 79.979168 79.979168 0 0 1 75.980469 70.011719 A 79.979168 79.979168 0 0 1 76.550781 69.521484 A 79.979168 79.979168 0 0 1 77.125 69.037109 A 79.979168 79.979168 0 0 1 77.705078 68.556641 A 79.979168 79.979168 0 0 1 78.289062 68.082031 A 79.979168 79.979168 0 0 1 78.876953 67.613281 A 79.979168 79.979168 0 0 1 79.46875 67.150391 A 79.979168 79.979168 0 0 1 80.064453 66.691406 A 79.979168 79.979168 0 0 1 80.666016 66.240234 A 79.979168 79.979168 0 0 1 81.271484 65.792969 A 79.979168 79.979168 0 0 1 81.880859 65.353516 A 79.979168 79.979168 0 0 1 82.494141 64.917969 A 79.979168 79.979168 0 0 1 83.111328 64.488281 A 79.979168 79.979168 0 0 1 83.732422 64.066406 A 79.979168 79.979168 0 0 1 84.359375 63.648438 A 79.979168 79.979168 0 0 1 84.988281 63.236328 A 79.979168 79.979168 0 0 1 85.621094 62.830078 A 79.979168 79.979168 0 0 1 86.257812 62.431641 A 79.979168 79.979168 0 0 1 86.898438 62.037109 A 79.979168 79.979168 0 0 1 87.542969 61.650391 A 79.979168 79.979168 0 0 1 88.191406 61.269531 A 79.979168 79.979168 0 0 1 88.84375 60.892578 A 79.979168 79.979168 0 0 1 89.498047 60.523438 A 79.979168 79.979168 0 0 1 90.15625 60.160156 A 79.979168 79.979168 0 0 1 90.818359 59.804688 A 79.979168 79.979168 0 0 1 91.484375 59.453125 A 79.979168 79.979168 0 0 1 92.152344 59.109375 A 79.979168 79.979168 0 0 1 92.824219 58.771484 A 79.979168 79.979168 0 0 1 93.5 58.439453 A 79.979168 79.979168 0 0 1 94.177734 58.113281 A 79.979168 79.979168 0 0 1 94.857422 57.794922 A 79.979168 79.979168 0 0 1 95.542969 57.482422 A 79.979168 79.979168 0 0 1 96.228516 57.175781 A 79.979168 79.979168 0 0 1 96.917969 56.876953 A 79.979168 79.979168 0 0 1 97.611328 56.582031 A 79.979168 79.979168 0 0 1 98.306641 56.296875 A 79.979168 79.979168 0 0 1 99.003906 56.015625 A 79.979168 79.979168 0 0 1 99.705078 55.742188 A 79.979168 79.979168 0 0 1 100.4082 55.476562 A 79.979168 79.979168 0 0 1 101.11328 55.214844 A 79.979168 79.979168 0 0 1 101.82227 54.960938 A 79.979168 79.979168 0 0 1 102.53125 54.714844 A 79.979168 79.979168 0 0 1 103.24414 54.474609 A 79.979168 79.979168 0 0 1 103.95898 54.240234 A 79.979168 79.979168 0 0 1 104.67578 54.013672 A 79.979168 79.979168 0 0 1 105.39453 53.792969 A 79.979168 79.979168 0 0 1 106.11719 53.580078 A 79.979168 79.979168 0 0 1 106.83984 53.373047 A 79.979168 79.979168 0 0 1 107.56445 53.173828 A 79.979168 79.979168 0 0 1 108.29102 52.980469 A 79.979168 79.979168 0 0 1 109.01953 52.794922 A 79.979168 79.979168 0 0 1 109.75 52.615234 A 79.979168 79.979168 0 0 1 110.48242 52.443359 A 79.979168 79.979168 0 0 1 111.2168 52.277344 A 79.979168 79.979168 0 0 1 111.95117 52.119141 A 79.979168 79.979168 0 0 1 112.6875 51.96875 A 79.979168 79.979168 0 0 1 113.42578 51.824219 A 79.979168 79.979168 0 0 1 114.16406 51.685547 A 79.979168 79.979168 0 0 1 114.90625 51.554688 A 79.979168 79.979168 0 0 1 115.64648 51.431641 A 79.979168 79.979168 0 0 1 116.39062 51.314453 A 79.979168 79.979168 0 0 1 117.13477 51.205078 A 79.979168 79.979168 0 0 1 117.87891 51.101562 A 79.979168 79.979168 0 0 1 118.625 51.005859 A 79.979168 79.979168 0 0 1 119.37109 50.916016 A 79.979168 79.979168 0 0 1 120.11914 50.835938 A 79.979168 79.979168 0 0 1 120.86719 50.759766 A 79.979168 79.979168 0 0 1 121.61719 50.693359 A 79.979168 79.979168 0 0 1 122.36523 50.632812 A 79.979168 79.979168 0 0 1 123.11523 50.578125 A 79.979168 79.979168 0 0 1 123.86719 50.53125 A 79.979168 79.979168 0 0 1 124.61719 50.492188 A 79.979168 79.979168 0 0 1 125.36914 50.458984 A 79.979168 79.979168 0 0 1 126.12109 50.433594 A 79.979168 79.979168 0 0 1 126.87305 50.416016 A 79.979168 79.979168 0 0 1 127.625 50.404297 A 79.979168 79.979168 0 0 1 128.37695 50.400391 A 79.979168 79.979168 0 0 1 129.12891 50.404297 A 79.979168 79.979168 0 0 1 129.88086 50.414062 A 79.979168 79.979168 0 0 1 130.63281 50.429688 A 79.979168 79.979168 0 0 1 131.38477 50.455078 A 79.979168 79.979168 0 0 1 132.13477 50.486328 A 79.979168 79.979168 0 0 1 132.88672 50.523438 A 79.979168 79.979168 0 0 1 133.63672 50.568359 A 79.979168 79.979168 0 0 1 134.38672 50.621094 A 79.979168 79.979168 0 0 1 135.13672 50.681641 A 79.979168 79.979168 0 0 1 135.88672 50.748047 A 79.979168 79.979168 0 0 1 136.63477 50.820312 A 79.979168 79.979168 0 0 1 137.38281 50.902344 A 79.979168 79.979168 0 0 1 138.12891 50.988281 A 79.979168 79.979168 0 0 1 138.875 51.083984 A 79.979168 79.979168 0 0 1 139.61914 51.185547 A 79.979168 79.979168 0 0 1 140.36328 51.292969 A 79.979168 79.979168 0 0 1 141.10742 51.410156 A 79.979168 79.979168 0 0 1 141.84961 51.53125 A 79.979168 79.979168 0 0 1 142.58984 51.662109 A 79.979168 79.979168 0 0 1 143.33008 51.796875 A 79.979168 79.979168 0 0 1 144.06836 51.941406 A 79.979168 79.979168 0 0 1 144.80469 52.091797 A 79.979168 79.979168 0 0 1 145.53906 52.248047 A 79.979168 79.979168 0 0 1 146.27344 52.414062 A 79.979168 79.979168 0 0 1 147.00586 52.583984 A 79.979168 79.979168 0 0 1 147.73633 52.761719 A 79.979168 79.979168 0 0 1 148.46484 52.947266 A 79.979168 79.979168 0 0 1 149.19336 53.138672 A 79.979168 79.979168 0 0 1 149.91797 53.337891 A 79.979168 79.979168 0 0 1 150.64258 53.542969 A 79.979168 79.979168 0 0 1 151.36328 53.753906 A 79.979168 79.979168 0 0 1 152.08203 53.972656 A 79.979168 79.979168 0 0 1 152.80078 54.199219 A 79.979168 79.979168 0 0 1 153.51562 54.431641 A 79.979168 79.979168 0 0 1 154.22852 54.669922 A 79.979168 79.979168 0 0 1 154.93945 54.916016 A 79.979168 79.979168 0 0 1 155.64648 55.167969 A 79.979168 79.979168 0 0 1 156.35352 55.427734 A 79.979168 79.979168 0 0 1 157.05664 55.693359 A 79.979168 79.979168 0 0 1 157.75781 55.966797 A 79.979168 79.979168 0 0 1 158.45703 56.244141 A 79.979168 79.979168 0 0 1 159.15234 56.53125 A 79.979168 79.979168 0 0 1 159.8457 56.822266 A 79.979168 79.979168 0 0 1 160.53516 57.121094 A 79.979168 79.979168 0 0 1 161.22266 57.425781 A 79.979168 79.979168 0 0 1 161.90625 57.736328 A 79.979168 79.979168 0 0 1 162.58789 58.054688 L 162.58789 11.949219 z " />
    <path
       id="path1733"
       style="fill:#f2f2f2;fill-opacity:1"
       d="M 162.58789 11.949219 L 162.58789 58.054688 A 79.979168 79.979168 0 0 0 161.90625 57.736328 A 79.979168 79.979168 0 0 0 161.22266 57.425781 A 79.979168 79.979168 0 0 0 160.53516 57.121094 A 79.979168 79.979168 0 0 0 159.8457 56.822266 A 79.979168 79.979168 0 0 0 159.15234 56.53125 A 79.979168 79.979168 0 0 0 158.45703 56.244141 A 79.979168 79.979168 0 0 0 157.75781 55.966797 A 79.979168 79.979168 0 0 0 157.05664 55.693359 A 79.979168 79.979168 0 0 0 156.35352 55.427734 A 79.979168 79.979168 0 0 0 155.64648 55.167969 A 79.979168 79.979168 0 0 0 154.93945 54.916016 A 79.979168 79.979168 0 0 0 154.22852 54.669922 A 79.979168 79.979168 0 0 0 153.51562 54.431641 A 79.979168 79.979168 0 0 0 152.80078 54.199219 A 79.979168 79.979168 0 0 0 152.08203 53.972656 A 79.979168 79.979168 0 0 0 151.36328 53.753906 A 79.979168 79.979168 0 0 0 150.64258 53.542969 A 79.979168 79.979168 0 0 0 149.91797 53.337891 A 79.979168 79.979168 0 0 0 149.19336 53.138672 A 79.979168 79.979168 0 0 0 148.46484 52.947266 A 79.979168 79.979168 0 0 0 147.73633 52.761719 A 79.979168 79.979168 0 0 0 147.00586 52.583984 A 79.979168 79.979168 0 0 0 146.27344 52.414062 A 79.979168 79.979168 0 0 0 145.53906 52.248047 A 79.979168 79.979168 0 0 0 144.80469 52.091797 A 79.979168 79.979168 0 0 0 144.06836 51.941406 A 79.979168 79.979168 0 0 0 143.33008 51.796875 A 79.979168 79.979168 0 0 0 142.58984 51.662109 A 79.979168 79.979168 0 0 0 141.84961 51.53125 A 79.979168 79.979168 0 0 0 141.10742 51.410156 A 79.979168 79.979168 0 0 0 140.36328 51.292969 A 79.979168 79.979168 0 0 0 139.61914 51.185547 A 79.979168 79.979168 0 0 0 138.875 51.083984 A 79.979168 79.979168 0 0 0 138.12891 50.988281 A 79.979168 79.979168 0 0 0 137.38281 50.902344 A 79.979168 79.979168 0 0 0 136.63477 50.820312 A 79.979168 79.979168 0 0 0 135.88672 50.748047 A 79.979168 79.979168 0 0 0 135.13672 50.681641 A 79.979168 79.979168 0 0 0 134.38672 50.621094 A 79.979168 79.979168 0 0 0 133.63672 50.568359 A 79.979168 79.979168 0 0 0 132.88672 50.523438 A 79.979168 79.979168 0 0 0 132.13477 50.486328 A 79.979168 79.979168 0 0 0 131.38477 50.455078 A 79.979168 79.979168 0 0 0 130.63281 50.429688 A 79.979168 79.979168 0 0 0 129.88086 50.414062 A 79.979168 79.979168 0 0 0 129.12891 50.404297 A 79.979168 79.979168 0 0 0 128.37695 50.400391 A 79.979168 79.979168 0 0 0 127.625 50.404297 A 79.979168 79.979168 0 0 0 126.87305 50.416016 A 79.979168 79.979168 0 0 0 126.12109 50.433594 A 79.979168 79.979168 0 0 0 125.36914 50.458984 A 79.979168 79.979168 0 0 0 124.61719 50.492188 A 79.979168 79.979168 0 0 0 123.86719 50.53125 A 79.979168 79.979168 0 0 0 123.11523 50.578125 A 79.979168 79.979168 0 0 0 122.36523 50.632812 A 79.979168 79.979168 0 0 0 121.61719 50.693359 A 79.979168 79.979168 0 0 0 120.86719 50.759766 A 79.979168 79.979168 0 0 0 120.11914 50.835938 A 79.979168 79.979168 0 0 0 119.37109 50.916016 A 79.979168 79.979168 0 0 0 118.625 51.005859 A 79.979168 79.979168 0 0 0 117.87891 51.101562 A 79.979168 79.979168 0 0 0 117.13477 51.205078 A 79.979168 79.979168 0 0 0 116.39062 51.314453 A 79.979168 79.979168 0 0 0 115.64648 51.431641 A 79.979168 79.979168 0 0 0 114.90625 51.554688 A 79.979168 79.979168 0 0 0 114.16406 51.685547 A 79.979168 79.979168 0 0 0 113.42578 51.824219 A 79.979168 79.979168 0 0 0 112.6875 51.96875 A 79.979168 79.979168 0 0 0 111.95117 52.119141 A 79.979168 79.979168 0 0 0 111.2168 52.277344 A 79.979168 79.979168 0 0 0 110.48242 52.443359 A 79.979168 79.979168 0 0 0 109.75 52.615234 A 79.979168 79.979168 0 0 0 109.01953 52.794922 A 79.979168 79.979168 0 0 0 108.29102 52.980469 A 79.979168 79.979168 0 0 0 107.56445 53.173828 A 79.979168 79.979168 0 0 0 106.83984 53.373047 A 79.979168 79.979168 0 0 0 106.11719 53.580078 A 79.979168 79.979168 0 0 0 105.39453 53.792969 A 79.979168 79.979168 0 0 0 104.67578 54.013672 A 79.979168 79.979168 0 0 0 103.95898 54.240234 A 79.979168 79.979168 0 0 0 103.24414 54.474609 A 79.979168 79.979168 0 0 0 102.53125 54.714844 A 79.979168 79.979168 0 0 0 101.82227 54.960938 A 79.979168 79.979168 0 0 0 101.11328 55.214844 A 79.979168 79.979168 0 0 0 100.4082 55.476562 A 79.979168 79.979168 0 0 0 99.705078 55.742188 A 79.979168 79.979168 0 0 0 99.003906 56.015625 A 79.979168 79.979168 0 0 0 98.306641 56.296875 A 79.979168 79.979168 0 0 0 97.611328 56.582031 A 79.979168 79.979168 0 0 0 96.917969 56.876953 A 79.979168 79.979168 0 0 0 96.228516 57.175781 A 79.979168 79.979168 0 0 0 95.542969 57.482422 A 79.979168 79.979168 0 0 0 94.857422 57.794922 A 79.979168 79.979168 0 0 0 94.177734 58.113281 A 79.979168 79.979168 0 0 0 93.5 58.439453 A 79.979168 79.979168 0 0 0 92.824219 58.771484 A 79.979168 79.979168 0 0 0 92.152344 59.109375 A 79.979168 79.979168 0 0 0 91.484375 59.453125 A 79.979168 79.979168 0 0 0 90.818359 59.804688 A 79.979168 79.979168 0 0 0 90.15625 60.160156 A 79.979168 79.979168 0 0 0 89.498047 60.523438 A 79.979168 79.979168 0 0 0 88.84375 60.892578 A 79.979168 79.979168 0 0 0 88.191406 61.269531 A 79.979168 79.979168 0 0 0 87.542969 61.650391 A 79.979168 79.979168 0 0 0 86.898438 62.037109 A 79.979168 79.979168 0 0 0 86.257812 62.431641 A 79.979168 79.979168 0 0 0 85.621094 62.830078 A 79.979168 79.979168 0 0 0 84.988281 63.236328 A 79.979168 79.979168 0 0 0 84.359375 63.648438 A 79.979168 79.979168 0 0 0 83.732422 64.066406 A 79.979168 79.979168 0 0 0 83.111328 64.488281 A 79.979168 79.979168 0 0 0 82.494141 64.917969 A 79.979168 79.979168 0 0 0 81.880859 65.353516 A 79.979168 79.979168 0 0 0 81.271484 65.792969 A 79.979168 79.979168 0 0 0 80.666016 66.240234 A 79.979168 79.979168 0 0 0 80.064453 66.691406 A 79.979168 79.979168 0 0 0 79.46875 67.150391 A 79.979168 79.979168 0 0 0 78.876953 67.613281 A 79.979168 79.979168 0 0 0 78.289062 68.082031 A 79.979168 79.979168 0 0 0 77.705078 68.556641 A 79.979168 79.979168 0 0 0 77.125 69.037109 A 79.979168 79.979168 0 0 0 76.550781 69.521484 A 79.979168 79.979168 0 0 0 75.980469 70.011719 A 79.979168 79.979168 0 0 0 75.416016 70.507812 A 79.979168 79.979168 0 0 0 74.855469 71.009766 A 79.979168 79.979168 0 0 0 74.298828 71.515625 A 79.979168 79.979168 0 0 0 73.748047 72.027344 A 79.979168 79.979168 0 0 0 73.201172 72.544922 A 79.979168 79.979168 0 0 0 72.660156 73.066406 A 79.979168 79.979168 0 0 0 72.125 73.59375 A 79.979168 79.979168 0 0 0 71.59375 74.125 A 79.979168 79.979168 0 0 0 71.066406 74.662109 A 79.979168 79.979168 0 0 0 70.544922 75.205078 A 79.979168 79.979168 0 0 0 70.029297 75.751953 A 79.979168 79.979168 0 0 0 69.517578 76.302734 A 79.979168 79.979168 0 0 0 69.011719 76.859375 A 79.979168 79.979168 0 0 0 68.511719 77.419922 A 79.979168 79.979168 0 0 0 68.015625 77.986328 A 79.979168 79.979168 0 0 0 67.525391 78.556641 A 79.979168 79.979168 0 0 0 67.041016 79.132812 A 79.979168 79.979168 0 0 0 66.5625 79.712891 A 79.979168 79.979168 0 0 0 66.087891 80.296875 A 79.979168 79.979168 0 0 0 65.621094 80.884766 A 79.979168 79.979168 0 0 0 65.158203 81.476562 A 79.979168 79.979168 0 0 0 64.701172 82.074219 A 79.979168 79.979168 0 0 0 64.25 82.675781 A 79.979168 79.979168 0 0 0 63.804688 83.28125 A 79.979168 79.979168 0 0 0 63.363281 83.892578 A 79.979168 79.979168 0 0 0 62.929688 84.505859 A 79.979168 79.979168 0 0 0 62.501953 85.123047 A 79.979168 79.979168 0 0 0 62.078125 85.746094 A 79.979168 79.979168 0 0 0 61.662109 86.371094 A 79.979168 79.979168 0 0 0 61.25 87.001953 A 79.979168 79.979168 0 0 0 60.845703 87.634766 A 79.979168 79.979168 0 0 0 60.447266 88.273438 A 79.979168 79.979168 0 0 0 60.054688 88.914062 A 79.979168 79.979168 0 0 0 59.667969 89.558594 A 79.979168 79.979168 0 0 0 59.287109 90.207031 A 79.979168 79.979168 0 0 0 58.912109 90.859375 A 79.979168 79.979168 0 0 0 58.542969 91.515625 A 79.979168 79.979168 0 0 0 58.181641 92.173828 A 79.979168 79.979168 0 0 0 57.824219 92.835938 A 79.979168 79.979168 0 0 0 57.474609 93.501953 A 79.979168 79.979168 0 0 0 57.130859 94.171875 A 79.979168 79.979168 0 0 0 56.794922 94.84375 A 79.979168 79.979168 0 0 0 56.462891 95.517578 A 79.979168 79.979168 0 0 0 56.138672 96.197266 A 79.979168 79.979168 0 0 0 55.820312 96.878906 A 79.979168 79.979168 0 0 0 55.507812 97.5625 A 79.979168 79.979168 0 0 0 55.203125 98.25 A 79.979168 79.979168 0 0 0 54.904297 98.939453 A 79.979168 79.979168 0 0 0 54.611328 99.632812 A 79.979168 79.979168 0 0 0 54.326172 100.32812 A 79.979168 79.979168 0 0 0 54.046875 101.02734 A 79.979168 79.979168 0 0 0 53.773438 101.72656 A 79.979168 79.979168 0 0 0 53.507812 102.42969 A 79.979168 79.979168 0 0 0 53.248047 103.13672 A 79.979168 79.979168 0 0 0 52.996094 103.84375 A 79.979168 79.979168 0 0 0 52.75 104.55469 A 79.979168 79.979168 0 0 0 52.509766 105.26758 A 79.979168 79.979168 0 0 0 52.277344 105.98242 A 79.979168 79.979168 0 0 0 52.050781 106.70117 A 79.979168 79.979168 0 0 0 51.832031 107.41992 A 79.979168 79.979168 0 0 0 51.619141 108.14062 A 79.979168 79.979168 0 0 0 51.414062 108.86523 A 79.979168 79.979168 0 0 0 51.214844 109.58984 A 79.979168 79.979168 0 0 0 51.023438 110.31641 A 79.979168 79.979168 0 0 0 50.837891 111.04492 A 79.979168 79.979168 0 0 0 50.660156 111.77539 A 79.979168 79.979168 0 0 0 50.488281 112.50781 A 79.979168 79.979168 0 0 0 50.322266 113.24219 A 79.979168 79.979168 0 0 0 50.166016 113.97852 A 79.979168 79.979168 0 0 0 50.015625 114.71484 A 79.979168 79.979168 0 0 0 49.871094 115.45312 A 79.979168 79.979168 0 0 0 49.734375 116.19141 A 79.979168 79.979168 0 0 0 49.603516 116.93359 A 79.979168 79.979168 0 0 0 49.480469 117.67383 A 79.979168 79.979168 0 0 0 49.365234 118.41797 A 79.979168 79.979168 0 0 0 49.255859 119.16211 A 79.979168 79.979168 0 0 0 49.154297 119.90625 A 79.979168 79.979168 0 0 0 49.058594 120.65234 A 79.979168 79.979168 0 0 0 48.970703 121.40039 A 79.979168 79.979168 0 0 0 48.890625 122.14648 A 79.979168 79.979168 0 0 0 48.816406 122.89648 A 79.979168 79.979168 0 0 0 48.75 123.64453 A 79.979168 79.979168 0 0 0 48.689453 124.39453 A 79.979168 79.979168 0 0 0 48.636719 125.14453 A 79.979168 79.979168 0 0 0 48.591797 125.89453 A 79.979168 79.979168 0 0 0 48.552734 126.64648 A 79.979168 79.979168 0 0 0 48.521484 127.39844 A 79.979168 79.979168 0 0 0 48.496094 128.14844 A 79.979168 79.979168 0 0 0 48.478516 128.90039 A 79.979168 79.979168 0 0 0 48.46875 129.65234 A 79.979168 79.979168 0 0 0 48.464844 130.4043 A 79.979168 79.979168 0 0 0 48.46875 131.15625 A 79.979168 79.979168 0 0 0 48.480469 131.9082 A 79.979168 79.979168 0 0 0 48.498047 132.66016 A 79.979168 79.979168 0 0 0 48.523438 133.41211 A 79.979168 79.979168 0 0 0 48.554688 134.16406 A 79.979168 79.979168 0 0 0 48.59375 134.91406 A 79.979168 79.979168 0 0 0 48.640625 135.66602 A 79.979168 79.979168 0 0 0 48.693359 136.41602 A 79.979168 79.979168 0 0 0 48.753906 137.16406 A 79.979168 79.979168 0 0 0 48.820312 137.91406 A 79.979168 79.979168 0 0 0 48.896484 138.66211 A 79.979168 79.979168 0 0 0 48.976562 139.41016 A 79.979168 79.979168 0 0 0 49.066406 140.15625 A 79.979168 79.979168 0 0 0 49.160156 140.90234 A 79.979168 79.979168 0 0 0 49.263672 141.64844 A 79.979168 79.979168 0 0 0 49.373047 142.39258 A 79.979168 79.979168 0 0 0 49.488281 143.13477 A 79.979168 79.979168 0 0 0 49.613281 143.87695 A 79.979168 79.979168 0 0 0 49.742188 144.61719 A 79.979168 79.979168 0 0 0 49.880859 145.35547 A 79.979168 79.979168 0 0 0 50.025391 146.09375 A 79.979168 79.979168 0 0 0 50.175781 146.83203 A 79.979168 79.979168 0 0 0 50.333984 147.56641 A 79.979168 79.979168 0 0 0 50.5 148.30078 A 79.979168 79.979168 0 0 0 50.671875 149.03125 A 79.979168 79.979168 0 0 0 50.849609 149.76172 A 79.979168 79.979168 0 0 0 51.035156 150.49219 A 79.979168 79.979168 0 0 0 51.228516 151.21875 A 79.979168 79.979168 0 0 0 51.427734 151.94336 A 79.979168 79.979168 0 0 0 51.632812 152.66602 A 79.979168 79.979168 0 0 0 51.845703 153.38867 A 79.979168 79.979168 0 0 0 52.066406 154.10742 A 79.979168 79.979168 0 0 0 52.292969 154.82422 A 79.979168 79.979168 0 0 0 52.525391 155.53906 A 79.979168 79.979168 0 0 0 52.765625 156.25195 A 79.979168 79.979168 0 0 0 53.011719 156.96289 A 79.979168 79.979168 0 0 0 53.265625 157.66992 A 79.979168 79.979168 0 0 0 53.525391 158.37695 A 79.979168 79.979168 0 0 0 53.792969 159.08008 A 79.979168 79.979168 0 0 0 54.064453 159.7793 A 79.979168 79.979168 0 0 0 54.345703 160.47852 A 79.979168 79.979168 0 0 0 54.630859 161.17383 A 79.979168 79.979168 0 0 0 54.923828 161.86523 A 79.979168 79.979168 0 0 0 55.222656 162.55664 A 79.979168 79.979168 0 0 0 55.529297 163.24219 A 79.979168 79.979168 0 0 0 55.841797 163.92773 A 79.979168 79.979168 0 0 0 56.160156 164.60742 A 79.979168 79.979168 0 0 0 56.484375 165.28711 A 79.979168 79.979168 0 0 0 56.816406 165.96094 A 79.979168 79.979168 0 0 0 57.154297 166.63281 A 79.979168 79.979168 0 0 0 57.498047 167.30273 A 79.979168 79.979168 0 0 0 57.847656 167.9668 A 79.979168 79.979168 0 0 0 58.205078 168.62891 A 79.979168 79.979168 0 0 0 58.568359 169.28906 A 79.979168 79.979168 0 0 0 58.9375 169.94336 A 79.979168 79.979168 0 0 0 59.3125 170.5957 A 79.979168 79.979168 0 0 0 59.693359 171.24414 A 79.979168 79.979168 0 0 0 60.080078 171.88867 A 79.979168 79.979168 0 0 0 60.474609 172.5293 A 79.979168 79.979168 0 0 0 60.873047 173.16602 A 79.979168 79.979168 0 0 0 61.277344 173.80078 A 79.979168 79.979168 0 0 0 61.689453 174.42969 A 79.979168 79.979168 0 0 0 62.107422 175.05469 A 79.979168 79.979168 0 0 0 62.529297 175.67773 A 79.979168 79.979168 0 0 0 62.958984 176.29492 A 79.979168 79.979168 0 0 0 63.392578 176.9082 A 79.979168 79.979168 0 0 0 63.833984 177.51758 A 79.979168 79.979168 0 0 0 64.279297 178.12305 A 79.979168 79.979168 0 0 0 64.730469 178.72461 A 79.979168 79.979168 0 0 0 65.189453 179.32227 A 79.979168 79.979168 0 0 0 65.652344 179.91406 A 79.979168 79.979168 0 0 0 66.121094 180.50195 A 79.979168 79.979168 0 0 0 66.59375 181.08594 A 79.979168 79.979168 0 0 0 67.074219 181.66602 A 79.979168 79.979168 0 0 0 67.558594 182.24023 A 79.979168 79.979168 0 0 0 68.048828 182.81055 A 79.979168 79.979168 0 0 0 68.544922 183.37695 A 79.979168 79.979168 0 0 0 69.044922 183.9375 A 79.979168 79.979168 0 0 0 69.552734 184.49414 A 79.979168 79.979168 0 0 0 70.0625 185.04492 A 79.979168 79.979168 0 0 0 70.580078 185.5918 A 79.979168 79.979168 0 0 0 71.101562 186.13281 A 79.979168 79.979168 0 0 0 71.628906 186.66992 A 79.979168 79.979168 0 0 0 72.160156 187.20117 A 79.979168 79.979168 0 0 0 72.697266 187.72852 A 79.979168 79.979168 0 0 0 73.238281 188.25 A 79.979168 79.979168 0 0 0 73.785156 188.76562 A 79.979168 79.979168 0 0 0 74.335938 189.27734 A 79.979168 79.979168 0 0 0 74.892578 189.7832 A 79.979168 79.979168 0 0 0 75.453125 190.28516 A 79.979168 79.979168 0 0 0 76.019531 190.7793 A 79.979168 79.979168 0 0 0 76.589844 191.26953 A 79.979168 79.979168 0 0 0 77.164062 191.75586 A 79.979168 79.979168 0 0 0 77.744141 192.23438 A 79.979168 79.979168 0 0 0 78.328125 192.70898 A 79.979168 79.979168 0 0 0 78.916016 193.17773 A 79.979168 79.979168 0 0 0 79.507812 193.64062 A 79.979168 79.979168 0 0 0 80.105469 194.09766 A 79.979168 79.979168 0 0 0 80.707031 194.54883 A 79.979168 79.979168 0 0 0 81.3125 194.99609 A 79.979168 79.979168 0 0 0 81.921875 195.43555 A 79.979168 79.979168 0 0 0 82.535156 195.87109 A 79.979168 79.979168 0 0 0 83.152344 196.29883 A 79.979168 79.979168 0 0 0 83.775391 196.72266 A 79.979168 79.979168 0 0 0 84.400391 197.13867 A 79.979168 79.979168 0 0 0 85.03125 197.55078 A 79.979168 79.979168 0 0 0 85.664062 197.95508 A 79.979168 79.979168 0 0 0 86.300781 198.35547 A 79.979168 79.979168 0 0 0 86.941406 198.74805 A 79.979168 79.979168 0 0 0 87.585938 199.13477 A 79.979168 79.979168 0 0 0 88.234375 199.51562 A 79.979168 79.979168 0 0 0 88.886719 199.89062 A 79.979168 79.979168 0 0 0 89.542969 200.25977 A 79.979168 79.979168 0 0 0 90.201172 200.62305 A 79.979168 79.979168 0 0 0 90.863281 200.97852 A 79.979168 79.979168 0 0 0 91.529297 201.33008 A 79.979168 79.979168 0 0 0 92.197266 201.67383 A 79.979168 79.979168 0 0 0 92.869141 202.01172 A 79.979168 79.979168 0 0 0 93.544922 202.3418 A 79.979168 79.979168 0 0 0 94.222656 202.66797 A 79.979168 79.979168 0 0 0 94.904297 202.98633 A 79.979168 79.979168 0 0 0 95.587891 203.29883 A 79.979168 79.979168 0 0 0 96.275391 203.60352 A 79.979168 79.979168 0 0 0 96.964844 203.90234 A 79.979168 79.979168 0 0 0 97.658203 204.19531 A 79.979168 79.979168 0 0 0 98.353516 204.48242 A 79.979168 79.979168 0 0 0 99.050781 204.76172 A 79.979168 79.979168 0 0 0 99.751953 205.03516 A 79.979168 79.979168 0 0 0 100.45508 205.30078 A 79.979168 79.979168 0 0 0 101.16016 205.56055 A 79.979168 79.979168 0 0 0 101.86914 205.81445 A 79.979168 79.979168 0 0 0 102.58008 206.06055 A 79.979168 79.979168 0 0 0 103.29297 206.30078 A 79.979168 79.979168 0 0 0 104.00781 206.5332 A 79.979168 79.979168 0 0 0 104.72461 206.75977 A 79.979168 79.979168 0 0 0 105.44336 206.98047 A 79.979168 79.979168 0 0 0 106.16406 207.19336 A 79.979168 79.979168 0 0 0 106.88867 207.39844 A 79.979168 79.979168 0 0 0 107.61328 207.59766 A 79.979168 79.979168 0 0 0 108.33984 207.79102 A 79.979168 79.979168 0 0 0 109.06836 207.97656 A 79.979168 79.979168 0 0 0 109.79883 208.1543 A 79.979168 79.979168 0 0 0 110.53125 208.32617 A 79.979168 79.979168 0 0 0 111.26562 208.49219 A 79.979168 79.979168 0 0 0 112 208.65039 A 79.979168 79.979168 0 0 0 112.73633 208.80078 A 79.979168 79.979168 0 0 0 113.47461 208.94531 A 79.979168 79.979168 0 0 0 114.21484 209.08203 A 79.979168 79.979168 0 0 0 114.95508 209.21289 A 79.979168 79.979168 0 0 0 115.69727 209.33594 A 79.979168 79.979168 0 0 0 116.43945 209.45312 A 79.979168 79.979168 0 0 0 117.18359 209.5625 A 79.979168 79.979168 0 0 0 117.92969 209.66406 A 79.979168 79.979168 0 0 0 118.67578 209.75977 A 79.979168 79.979168 0 0 0 119.42188 209.84766 A 79.979168 79.979168 0 0 0 120.16992 209.92969 A 79.979168 79.979168 0 0 0 120.91797 210.00391 A 79.979168 79.979168 0 0 0 121.66602 210.07031 A 79.979168 79.979168 0 0 0 122.41602 210.13086 A 79.979168 79.979168 0 0 0 123.16602 210.18359 A 79.979168 79.979168 0 0 0 123.91797 210.23047 A 79.979168 79.979168 0 0 0 124.66797 210.26953 A 79.979168 79.979168 0 0 0 125.41992 210.30078 A 79.979168 79.979168 0 0 0 126.17188 210.32617 A 79.979168 79.979168 0 0 0 126.92188 210.34375 A 79.979168 79.979168 0 0 0 127.67383 210.35547 A 79.979168 79.979168 0 0 0 128.42773 210.35938 A 79.979168 79.979168 0 0 0 129.17969 210.35547 A 79.979168 79.979168 0 0 0 129.93164 210.3457 A 79.979168 79.979168 0 0 0 130.68164 210.32812 A 79.979168 79.979168 0 0 0 131.43359 210.30273 A 79.979168 79.979168 0 0 0 132.18555 210.27148 A 79.979168 79.979168 0 0 0 132.9375 210.23242 A 79.979168 79.979168 0 0 0 133.6875 210.1875 A 79.979168 79.979168 0 0 0 134.4375 210.13477 A 79.979168 79.979168 0 0 0 135.1875 210.07422 A 79.979168 79.979168 0 0 0 135.93555 210.00781 A 79.979168 79.979168 0 0 0 136.68359 209.93359 A 79.979168 79.979168 0 0 0 137.43164 209.85156 A 79.979168 79.979168 0 0 0 138.17969 209.76367 A 79.979168 79.979168 0 0 0 138.92578 209.66992 A 79.979168 79.979168 0 0 0 139.66992 209.56641 A 79.979168 79.979168 0 0 0 140.41406 209.45898 A 79.979168 79.979168 0 0 0 141.15625 209.3418 A 79.979168 79.979168 0 0 0 141.89844 209.21875 A 79.979168 79.979168 0 0 0 142.63867 209.08984 A 79.979168 79.979168 0 0 0 143.37891 208.95312 A 79.979168 79.979168 0 0 0 144.11719 208.80859 A 79.979168 79.979168 0 0 0 144.85352 208.6582 A 79.979168 79.979168 0 0 0 145.58984 208.5 A 79.979168 79.979168 0 0 0 146.32227 208.33594 A 79.979168 79.979168 0 0 0 147.05469 208.16406 A 79.979168 79.979168 0 0 0 147.78516 207.98438 A 79.979168 79.979168 0 0 0 148.51367 207.80078 A 79.979168 79.979168 0 0 0 149.24219 207.60742 A 79.979168 79.979168 0 0 0 149.9668 207.4082 A 79.979168 79.979168 0 0 0 150.68945 207.20312 A 79.979168 79.979168 0 0 0 151.41211 206.99023 A 79.979168 79.979168 0 0 0 152.13086 206.77148 A 79.979168 79.979168 0 0 0 152.84766 206.54492 A 79.979168 79.979168 0 0 0 153.5625 206.3125 A 79.979168 79.979168 0 0 0 154.27539 206.07227 A 79.979168 79.979168 0 0 0 154.98633 205.82617 A 79.979168 79.979168 0 0 0 155.69531 205.57422 A 79.979168 79.979168 0 0 0 156.40039 205.31445 A 79.979168 79.979168 0 0 0 157.10352 205.04688 A 79.979168 79.979168 0 0 0 157.80469 204.77539 A 79.979168 79.979168 0 0 0 158.50391 204.49609 A 79.979168 79.979168 0 0 0 159.19922 204.20898 A 79.979168 79.979168 0 0 0 159.89062 203.91797 A 79.979168 79.979168 0 0 0 160.58203 203.61914 A 79.979168 79.979168 0 0 0 161.26953 203.3125 A 79.979168 79.979168 0 0 0 161.95312 203.00195 A 79.979168 79.979168 0 0 0 162.63477 202.68359 A 79.979168 79.979168 0 0 0 163.3125 202.35742 A 79.979168 79.979168 0 0 0 163.98828 202.02734 A 79.979168 79.979168 0 0 0 164.66016 201.68945 A 79.979168 79.979168 0 0 0 165.32812 201.3457 A 79.979168 79.979168 0 0 0 165.99414 200.99609 A 79.979168 79.979168 0 0 0 166.65625 200.64062 A 79.979168 79.979168 0 0 0 167.31641 200.27734 A 79.979168 79.979168 0 0 0 167.9707 199.9082 A 79.979168 79.979168 0 0 0 168.62305 199.53516 A 79.979168 79.979168 0 0 0 169.27148 199.1543 A 79.979168 79.979168 0 0 0 169.91602 198.76562 A 79.979168 79.979168 0 0 0 170.55859 198.37305 A 79.979168 79.979168 0 0 0 171.19531 197.97461 A 79.979168 79.979168 0 0 0 171.82812 197.57031 A 79.979168 79.979168 0 0 0 172.45898 197.1582 A 79.979168 79.979168 0 0 0 173.08398 196.74219 A 79.979168 79.979168 0 0 0 173.70703 196.31836 A 79.979168 79.979168 0 0 0 174.32422 195.89062 A 79.979168 79.979168 0 0 0 174.93945 195.45703 A 79.979168 79.979168 0 0 0 175.54883 195.01562 A 79.979168 79.979168 0 0 0 176.1543 194.57031 A 79.979168 79.979168 0 0 0 176.75586 194.11914 A 79.979168 79.979168 0 0 0 177.35352 193.66211 A 79.979168 79.979168 0 0 0 177.94531 193.19922 A 79.979168 79.979168 0 0 0 178.5332 192.73047 A 79.979168 79.979168 0 0 0 179.11719 192.25781 A 79.979168 79.979168 0 0 0 179.69727 191.7793 A 79.979168 79.979168 0 0 0 180.27344 191.29297 A 79.979168 79.979168 0 0 0 180.84375 190.80469 A 79.979168 79.979168 0 0 0 181.4082 190.30859 A 79.979168 79.979168 0 0 0 181.9707 189.80859 A 79.979168 79.979168 0 0 0 182.52734 189.30273 A 79.979168 79.979168 0 0 0 183.07812 188.79102 A 79.979168 79.979168 0 0 0 183.625 188.27539 A 79.979168 79.979168 0 0 0 184.16602 187.75391 A 79.979168 79.979168 0 0 0 184.70312 187.22656 A 79.979168 79.979168 0 0 0 185.23633 186.69531 A 79.979168 79.979168 0 0 0 185.76367 186.1582 A 79.979168 79.979168 0 0 0 186.28516 185.61719 A 79.979168 79.979168 0 0 0 186.80078 185.07031 A 79.979168 79.979168 0 0 0 187.3125 184.51953 A 79.979168 79.979168 0 0 0 187.82031 183.96484 A 79.979168 79.979168 0 0 0 188.32031 183.40234 A 79.979168 79.979168 0 0 0 188.81641 182.83789 A 79.979168 79.979168 0 0 0 189.30664 182.26758 A 79.979168 79.979168 0 0 0 189.79297 181.69336 A 79.979168 79.979168 0 0 0 190.27344 181.11523 A 79.979168 79.979168 0 0 0 190.74609 180.53125 A 79.979168 79.979168 0 0 0 191.21484 179.94336 A 79.979168 79.979168 0 0 0 191.67969 179.34961 A 79.979168 79.979168 0 0 0 192.13672 178.75391 A 79.979168 79.979168 0 0 0 192.58789 178.15234 A 79.979168 79.979168 0 0 0 193.03516 177.54688 A 79.979168 79.979168 0 0 0 193.47461 176.9375 A 79.979168 79.979168 0 0 0 193.91016 176.32422 A 79.979168 79.979168 0 0 0 194.33984 175.70703 A 79.979168 79.979168 0 0 0 194.76367 175.08594 A 79.979168 79.979168 0 0 0 195.17969 174.45898 A 79.979168 79.979168 0 0 0 195.5918 173.83008 A 79.979168 79.979168 0 0 0 195.99805 173.19727 A 79.979168 79.979168 0 0 0 196.39648 172.56055 A 79.979168 79.979168 0 0 0 196.79102 171.91992 A 79.979168 79.979168 0 0 0 197.17773 171.27539 A 79.979168 79.979168 0 0 0 197.55859 170.62695 A 79.979168 79.979168 0 0 0 197.93555 169.97461 A 79.979168 79.979168 0 0 0 198.30469 169.32031 A 79.979168 79.979168 0 0 0 198.66797 168.66211 A 79.979168 79.979168 0 0 0 199.02344 168 A 79.979168 79.979168 0 0 0 199.375 167.33398 A 79.979168 79.979168 0 0 0 199.71875 166.66602 A 79.979168 79.979168 0 0 0 200.05664 165.99414 A 79.979168 79.979168 0 0 0 200.38867 165.31836 A 79.979168 79.979168 0 0 0 200.71484 164.64062 A 79.979168 79.979168 0 0 0 201.0332 163.95898 A 79.979168 79.979168 0 0 0 201.3457 163.27539 A 79.979168 79.979168 0 0 0 201.65234 162.58789 A 79.979168 79.979168 0 0 0 201.95117 161.89844 A 79.979168 79.979168 0 0 0 202.24414 161.20703 A 79.979168 79.979168 0 0 0 202.53125 160.51172 A 79.979168 79.979168 0 0 0 202.81055 159.8125 A 79.979168 79.979168 0 0 0 203.08398 159.11328 A 79.979168 79.979168 0 0 0 203.35156 158.41016 A 79.979168 79.979168 0 0 0 203.61133 157.70508 A 79.979168 79.979168 0 0 0 203.86523 156.99609 A 79.979168 79.979168 0 0 0 204.11133 156.28516 A 79.979168 79.979168 0 0 0 204.35156 155.57422 A 79.979168 79.979168 0 0 0 204.58594 154.85938 A 79.979168 79.979168 0 0 0 204.8125 154.14062 A 79.979168 79.979168 0 0 0 205.0332 153.42188 A 79.979168 79.979168 0 0 0 205.24609 152.70117 A 79.979168 79.979168 0 0 0 205.45312 151.97852 A 79.979168 79.979168 0 0 0 205.65234 151.25391 A 79.979168 79.979168 0 0 0 205.8457 150.52539 A 79.979168 79.979168 0 0 0 206.03125 149.79688 A 79.979168 79.979168 0 0 0 206.21094 149.06641 A 79.979168 79.979168 0 0 0 206.38281 148.33594 A 79.979168 79.979168 0 0 0 206.54688 147.60156 A 79.979168 79.979168 0 0 0 206.70703 146.86719 A 79.979168 79.979168 0 0 0 206.85742 146.12891 A 79.979168 79.979168 0 0 0 207.00195 145.39258 A 79.979168 79.979168 0 0 0 207.14062 144.65234 A 79.979168 79.979168 0 0 0 207.27148 143.91211 A 79.979168 79.979168 0 0 0 207.39453 143.16992 A 79.979168 79.979168 0 0 0 207.51172 142.42773 A 79.979168 79.979168 0 0 0 207.62109 141.68359 A 79.979168 79.979168 0 0 0 207.72461 140.9375 A 79.979168 79.979168 0 0 0 207.82031 140.19336 A 79.979168 79.979168 0 0 0 207.9082 139.44531 A 79.979168 79.979168 0 0 0 207.99023 138.69727 A 79.979168 79.979168 0 0 0 208.06445 137.94922 A 79.979168 79.979168 0 0 0 208.13281 137.20117 A 79.979168 79.979168 0 0 0 208.19336 136.45117 A 79.979168 79.979168 0 0 0 208.24609 135.70117 A 79.979168 79.979168 0 0 0 208.29297 134.95117 A 79.979168 79.979168 0 0 0 208.33203 134.19922 A 79.979168 79.979168 0 0 0 208.36523 133.44922 A 79.979168 79.979168 0 0 0 208.39062 132.69727 A 79.979168 79.979168 0 0 0 208.4082 131.94531 A 79.979168 79.979168 0 0 0 208.41992 131.19336 A 79.979168 79.979168 0 0 0 208.42188 130.92969 A 99.916668 99.916668 0 0 0 208.46875 130.08984 A 99.916668 99.916668 0 0 0 208.50781 129.25195 A 99.916668 99.916668 0 0 0 208.54102 128.41211 A 99.916668 99.916668 0 0 0 208.56641 127.57031 A 99.916668 99.916668 0 0 0 208.58398 126.73047 A 99.916668 99.916668 0 0 0 208.5957 125.89062 A 99.916668 99.916668 0 0 0 208.59961 125.04883 A 99.916668 99.916668 0 0 0 208.59766 124.20898 A 99.916668 99.916668 0 0 0 208.58789 123.36914 A 99.916668 99.916668 0 0 0 208.57031 122.5293 A 99.916668 99.916668 0 0 0 208.54688 121.6875 A 99.916668 99.916668 0 0 0 208.51562 120.84766 A 99.916668 99.916668 0 0 0 208.47656 120.00781 A 99.916668 99.916668 0 0 0 208.43164 119.16992 A 99.916668 99.916668 0 0 0 208.42188 119.01367 L 208.42188 14.501953 C 197.27059 12.590094 183.32677 11.949219 165.68945 11.949219 L 162.58789 11.949219 z " />
    <g
       opacity="0.4"
       id="g43">
      <linearGradient
         id="c"
         x1="0.51700002"
         x2="0.51700002"
         y2="1"
         gradientTransform="matrix(244.65,0,0,228.34,5.68,11.95)"
         gradientUnits="userSpaceOnUse">
        <stop
           offset="0%"
           stop-color="#ffffff"
           id="stop32" />
        <stop
           offset="12.5%"
           stop-color="#ffffff"
           stop-opacity=".098"
           id="stop34" />
        <stop
           offset="92.5%"
           stop-opacity=".098"
           id="stop36" />
        <stop
           offset="100%"
           stop-opacity=".498"
           id="stop38" />
      </linearGradient>
      <path
         fill="url(#c)"
         fill-rule="evenodd"
         d="m 165.068,11.951 c 4.328,-0.01 8.656,0.04 12.984,0.138 3.875,0.078 7.75,0.226 11.626,0.452 3.453,0.196 6.905,0.481 10.348,0.854 3.06,0.335 6.118,0.786 9.148,1.346 a 80.47,80.47 0 0 1 8.046,1.916 53.64,53.64 0 0 1 7.023,2.584 40.413,40.413 0 0 1 6.06,3.35 35.176,35.176 0 0 1 5.134,4.215 35.072,35.072 0 0 1 4.22,5.119 41.692,41.692 0 0 1 3.363,6.042 55.982,55.982 0 0 1 2.597,7.005 80.224,80.224 0 0 1 1.918,8.037 124.43,124.43 0 0 1 1.348,9.127 c 0.374,3.439 0.659,6.878 0.856,10.326 0.226,3.861 0.373,7.732 0.462,11.593 0.088,4.323 0.138,8.646 0.128,12.96 v 58.21 c 0.01,4.324 -0.04,8.637 -0.128,12.96 a 325.177,325.177 0 0 1 -0.462,11.593 200.984,200.984 0 0 1 -0.856,10.326 124.691,124.691 0 0 1 -1.348,9.137 80.687,80.687 0 0 1 -1.918,8.027 55.414,55.414 0 0 1 -2.597,7.005 41.18,41.18 0 0 1 -3.364,6.042 34.559,34.559 0 0 1 -4.22,5.119 35.177,35.177 0 0 1 -5.134,4.215 40.412,40.412 0 0 1 -6.059,3.35 55.138,55.138 0 0 1 -7.023,2.594 77.806,77.806 0 0 1 -8.046,1.906 120,120 0 0 1 -9.148,1.346 c -3.443,0.373 -6.895,0.658 -10.348,0.854 -3.875,0.226 -7.75,0.374 -11.626,0.462 -4.328,0.088 -8.656,0.138 -12.984,0.128 H 90.942 c -4.328,0.01 -8.656,-0.04 -12.984,-0.128 a 328.387,328.387 0 0 1 -11.626,-0.462 203.003,203.003 0 0 1 -10.348,-0.854 120,120 0 0 1 -9.148,-1.346 77.806,77.806 0 0 1 -8.046,-1.906 55.139,55.139 0 0 1 -7.023,-2.594 40.413,40.413 0 0 1 -6.06,-3.35 35.176,35.176 0 0 1 -5.134,-4.215 34.56,34.56 0 0 1 -4.22,-5.119 41.183,41.183 0 0 1 -3.363,-6.042 55.415,55.415 0 0 1 -2.597,-7.005 80.682,80.682 0 0 1 -1.918,-8.027 124.688,124.688 0 0 1 -1.348,-9.137 200.993,200.993 0 0 1 -0.856,-10.326 325.212,325.212 0 0 1 -0.462,-11.593 569.197,569.197 0 0 1 -0.128,-12.96 v -58.21 c -0.01,-4.314 0.04,-8.637 0.128,-12.96 0.089,-3.86 0.236,-7.732 0.462,-11.593 0.197,-3.448 0.482,-6.887 0.856,-10.326 0.335,-3.055 0.787,-6.101 1.348,-9.127 a 80.219,80.219 0 0 1 1.918,-8.037 55.983,55.983 0 0 1 2.597,-7.005 41.695,41.695 0 0 1 3.364,-6.042 35.072,35.072 0 0 1 4.22,-5.119 35.176,35.176 0 0 1 5.134,-4.215 40.413,40.413 0 0 1 6.059,-3.35 53.64,53.64 0 0 1 7.023,-2.584 80.47,80.47 0 0 1 8.046,-1.916 125.11,125.11 0 0 1 9.148,-1.346 c 3.443,-0.373 6.895,-0.658 10.348,-0.854 3.875,-0.226 7.75,-0.374 11.626,-0.452 4.328,-0.098 8.656,-0.148 12.984,-0.138 z m 0.01,4.009 c 4.298,-0.01 8.597,0.039 12.895,0.127 3.827,0.089 7.653,0.236 11.48,0.452 3.383,0.197 6.766,0.472 10.13,0.845 2.971,0.315 5.932,0.747 8.863,1.297 a 75.943,75.943 0 0 1 7.653,1.818 50.493,50.493 0 0 1 6.501,2.397 37.038,37.038 0 0 1 5.47,3.026 30.383,30.383 0 0 1 4.524,3.724 31.05,31.05 0 0 1 3.738,4.519 37.271,37.271 0 0 1 3.03,5.443 51.46,51.46 0 0 1 2.4,6.494 75.563,75.563 0 0 1 1.829,7.634 c 0.54,2.928 0.974,5.875 1.298,8.842 0.374,3.36 0.65,6.73 0.846,10.11 0.217,3.822 0.374,7.634 0.453,11.456 0.088,4.293 0.137,8.577 0.137,12.87 v 58.212 c 0,4.293 -0.049,8.577 -0.137,12.87 a 317.503,317.503 0 0 1 -0.453,11.456 c -0.196,3.38 -0.472,6.75 -0.846,10.12 a 121.689,121.689 0 0 1 -1.298,8.832 75.562,75.562 0 0 1 -1.83,7.634 50.902,50.902 0 0 1 -2.4,6.494 36.767,36.767 0 0 1 -3.03,5.443 30.615,30.615 0 0 1 -3.737,4.53 30.938,30.938 0 0 1 -4.525,3.713 37.038,37.038 0 0 1 -5.469,3.026 49.07,49.07 0 0 1 -6.501,2.397 75.942,75.942 0 0 1 -7.653,1.818 c -2.931,0.55 -5.892,0.982 -8.863,1.306 -3.364,0.364 -6.747,0.649 -10.13,0.836 -3.827,0.216 -7.653,0.373 -11.48,0.452 -4.298,0.098 -8.597,0.137 -12.895,0.137 H 90.932 c -4.298,0 -8.597,-0.04 -12.895,-0.137 a 320.093,320.093 0 0 1 -11.48,-0.452 193.696,193.696 0 0 1 -10.13,-0.836 116.71,116.71 0 0 1 -8.863,-1.306 75.942,75.942 0 0 1 -7.653,-1.818 49.07,49.07 0 0 1 -6.501,-2.397 37.038,37.038 0 0 1 -5.47,-3.026 30.938,30.938 0 0 1 -4.524,-3.714 30.615,30.615 0 0 1 -3.738,-4.529 36.766,36.766 0 0 1 -3.03,-5.443 50.903,50.903 0 0 1 -2.4,-6.494 75.567,75.567 0 0 1 -1.829,-7.634 121.69,121.69 0 0 1 -1.298,-8.832 c -0.374,-3.37 -0.65,-6.74 -0.846,-10.12 A 317.535,317.535 0 0 1 9.822,168.096 623.851,623.851 0 0 1 9.685,155.226 V 97.014 c 0,-4.293 0.049,-8.577 0.137,-12.87 0.079,-3.822 0.236,-7.634 0.453,-11.456 0.197,-3.38 0.472,-6.75 0.846,-10.11 0.324,-2.967 0.757,-5.914 1.298,-8.842 a 75.568,75.568 0 0 1 1.83,-7.634 51.46,51.46 0 0 1 2.4,-6.494 37.27,37.27 0 0 1 3.03,-5.443 31.05,31.05 0 0 1 3.737,-4.52 30.384,30.384 0 0 1 4.525,-3.723 37.039,37.039 0 0 1 5.469,-3.026 50.494,50.494 0 0 1 6.501,-2.397 75.943,75.943 0 0 1 7.653,-1.818 c 2.931,-0.55 5.892,-0.982 8.863,-1.297 3.364,-0.373 6.747,-0.648 10.13,-0.845 a 344.71,344.71 0 0 1 11.48,-0.452 c 4.298,-0.088 8.597,-0.137 12.895,-0.127 z"
         id="path41"
         style="fill:url(#c)" />
    </g>
    <g
       data-name="music"
       id="g1714"
       transform="matrix(22.916667,0,0,22.916667,-20.744605,-270.56996)"
       style="fill:#ffffff">
      <rect
         width="24"
         height="24"
         opacity="0"
         id="rect1710"
         x="0"
         y="0"
         style="fill:#ffffff" />
    </g>
    <g
       id="g1811"
       transform="matrix(0.30202085,0,0,0.30202085,69.872104,69.871859)"
       style="fill:#ff4469;fill-opacity:1">
      <g
         id="g1749"
         style="fill:#ff4469;fill-opacity:1">
	<path
   id="Arrow_Download"
   d="m 321.339,245.334 c -4.74,-4.692 -12.439,-4.704 -17.179,0 l -99.551,98.564 V 12.03 C 204.609,5.389 199.171,0 192.458,0 185.745,0 180.307,5.39 180.307,12.03 V 343.898 L 80.756,245.346 c -4.74,-4.704 -12.439,-4.704 -17.179,0 -4.74,4.704 -4.74,12.319 0,17.011 l 120.291,119.088 c 4.692,4.644 12.499,4.644 17.191,0 L 321.35,262.357 c 4.741,-4.704 4.741,-12.319 -0.011,-17.023 -4.74,-4.692 4.752,4.704 0,0 z"
   style="fill:#ff4469;fill-opacity:1" />

	<g
   id="g1737"
   style="fill:#ff4469;fill-opacity:1">
	</g>

	<g
   id="g1739"
   style="fill:#ff4469;fill-opacity:1">
	</g>

	<g
   id="g1741"
   style="fill:#ff4469;fill-opacity:1">
	</g>

	<g
   id="g1743"
   style="fill:#ff4469;fill-opacity:1">
	</g>

	<g
   id="g1745"
   style="fill:#ff4469;fill-opacity:1">
	</g>

	<g
   id="g1747"
   style="fill:#ff4469;fill-opacity:1">
	</g>

</g>
      <g
         id="g1751"
         style="fill:#ff4469;fill-opacity:1">
</g>
      <g
         id="g1753"
         style="fill:#ff4469;fill-opacity:1">
</g>
      <g
         id="g1755"
         style="fill:#ff4469;fill-opacity:1">
</g>
      <g
         id="g1757"
         style="fill:#ff4469;fill-opacity:1">
</g>
      <g
         id="g1759"
         style="fill:#ff4469;fill-opacity:1">
</g>
      <g
         id="g1761"
         style="fill:#ff4469;fill-opacity:1">
</g>
      <g
         id="g1763"
         style="fill:#ff4469;fill-opacity:1">
</g>
      <g
         id="g1765"
         style="fill:#ff4469;fill-opacity:1">
</g>
      <g
         id="g1767"
         style="fill:#ff4469;fill-opacity:1">
</g>
      <g
         id="g1769"
         style="fill:#ff4469;fill-opacity:1">
</g>
      <g
         id="g1771"
         style="fill:#ff4469;fill-opacity:1">
</g>
      <g
         id="g1773"
         style="fill:#ff4469;fill-opacity:1">
</g>
      <g
         id="g1775"
         style="fill:#ff4469;fill-opacity:1">
</g>
      <g
         id="g1777"
         style="fill:#ff4469;fill-opacity:1">
</g>
      <g
         id="g1779"
         style="fill:#ff4469;fill-opacity:1">
</g>
    </g>
  </g>
</svg>
