<?xml version="1.0" encoding="UTF-8" standalone="no"?>
<svg
   style="isolation:isolate"
   width="256"
   height="256"
   version="1.1"
   id="svg5"
   xml:space="preserve"
   xmlns="http://www.w3.org/2000/svg"
   xmlns:svg="http://www.w3.org/2000/svg"><defs
     id="defs1"><filter
       id="a"
       width="1.0842484"
       height="1.1077841"
       x="-0.042124196"
       y="-0.045133094"
       color-interpolation-filters="sRGB"
       filterUnits="objectBoundingBox"><feGaussianBlur
         in="SourceGraphic"
         stdDeviation="4.294"
         id="feGaussianBlur1" /><feOffset
         dy="4"
         result="pf_100_offsetBlur"
         id="feOffset1" /><feFlood
         flood-opacity=".4"
         id="feFlood1" /><feComposite
         in2="pf_100_offsetBlur"
         operator="in"
         result="pf_100_dropShadow"
         id="feComposite1" /><feBlend
         in="SourceGraphic"
         in2="pf_100_dropShadow"
         id="feBlend1" /></filter></defs><path
     fill="#f7f7f7"
     d="M165.689 11.95c74.056 0 84.639 10.557 84.639 84.544v59.251c0 73.986-10.583 84.543-84.639 84.543h-75.37c-74.055 0-84.639-10.557-84.639-84.543V96.494c0-73.987 10.584-84.544 84.639-84.544h75.37z"
     filter="url(#a)"
     id="path1"
     style="fill:#16181c;fill-opacity:1" /><defs
     id="defs2"><filter
       id="b"
       width="1.1421462"
       height="1.2085695"
       x="-0.071073106"
       y="-0.087335595"
       color-interpolation-filters="sRGB"
       filterUnits="objectBoundingBox"><feGaussianBlur
         in="SourceGraphic"
         stdDeviation="4.294"
         id="feGaussianBlur2" /><feOffset
         dy="4"
         result="pf_100_offsetBlur"
         id="feOffset2" /><feFlood
         flood-opacity=".4"
         id="feFlood2" /><feComposite
         in2="pf_100_offsetBlur"
         operator="in"
         result="pf_100_dropShadow"
         id="feComposite2" /><feBlend
         in="SourceGraphic"
         in2="pf_100_dropShadow"
         id="feBlend2" /></filter></defs><g
     opacity=".4"
     id="g5"><linearGradient
       id="c"
       x1=".517"
       x2=".517"
       y2="1"
       gradientTransform="matrix(244.65 0 0 228.34 5.68 11.95)"
       gradientUnits="userSpaceOnUse"><stop
         offset="0%"
         stop-color="#ffffff"
         id="stop2" /><stop
         offset="12.5%"
         stop-color="#ffffff"
         stop-opacity=".098"
         id="stop3" /><stop
         offset="92.5%"
         stop-opacity=".098"
         id="stop4" /><stop
         offset="100%"
         stop-opacity=".498"
         id="stop5" /></linearGradient><path
       fill="url(#c)"
       fill-rule="evenodd"
       d="M165.068 11.951c4.328-.01 8.656.04 12.984.138 3.875.078 7.75.226 11.626.452 3.453.196 6.905.481 10.348.854 3.06.335 6.118.786 9.148 1.346a80.47 80.47 0 0 1 8.046 1.916 53.64 53.64 0 0 1 7.023 2.584 40.413 40.413 0 0 1 6.06 3.35 35.176 35.176 0 0 1 5.134 4.215 35.072 35.072 0 0 1 4.22 5.119 41.692 41.692 0 0 1 3.363 6.042 55.982 55.982 0 0 1 2.597 7.005 80.224 80.224 0 0 1 1.918 8.037 124.43 124.43 0 0 1 1.348 9.127c.374 3.439.659 6.878.856 10.326.226 3.861.373 7.732.462 11.593.088 4.323.138 8.646.128 12.96v58.21c.01 4.324-.04 8.637-.128 12.96a325.177 325.177 0 0 1-.462 11.593 200.984 200.984 0 0 1-.856 10.326 124.691 124.691 0 0 1-1.348 9.137 80.687 80.687 0 0 1-1.918 8.027 55.414 55.414 0 0 1-2.597 7.005 41.18 41.18 0 0 1-3.364 6.042 34.559 34.559 0 0 1-4.22 5.119 35.177 35.177 0 0 1-5.134 4.215 40.412 40.412 0 0 1-6.059 3.35 55.138 55.138 0 0 1-7.023 2.594 77.806 77.806 0 0 1-8.046 1.906 120 120 0 0 1-9.148 1.346c-3.443.373-6.895.658-10.348.854-3.875.226-7.75.374-11.626.462-4.328.088-8.656.138-12.984.128H90.942c-4.328.01-8.656-.04-12.984-.128a328.387 328.387 0 0 1-11.626-.462 203.003 203.003 0 0 1-10.348-.854 120 120 0 0 1-9.148-1.346 77.806 77.806 0 0 1-8.046-1.906 55.139 55.139 0 0 1-7.023-2.594 40.413 40.413 0 0 1-6.06-3.35 35.176 35.176 0 0 1-5.134-4.215 34.56 34.56 0 0 1-4.22-5.119 41.183 41.183 0 0 1-3.363-6.042 55.415 55.415 0 0 1-2.597-7.005 80.682 80.682 0 0 1-1.918-8.027 124.688 124.688 0 0 1-1.348-9.137 200.993 200.993 0 0 1-.856-10.326 325.212 325.212 0 0 1-.462-11.593 569.197 569.197 0 0 1-.128-12.96v-58.21c-.01-4.314.04-8.637.128-12.96.089-3.86.236-7.732.462-11.593.197-3.448.482-6.887.856-10.326.335-3.055.787-6.101 1.348-9.127a80.219 80.219 0 0 1 1.918-8.037 55.983 55.983 0 0 1 2.597-7.005 41.695 41.695 0 0 1 3.364-6.042 35.072 35.072 0 0 1 4.22-5.119 35.176 35.176 0 0 1 5.134-4.215 40.413 40.413 0 0 1 6.059-3.35 53.64 53.64 0 0 1 7.023-2.584 80.47 80.47 0 0 1 8.046-1.916 125.11 125.11 0 0 1 9.148-1.346c3.443-.373 6.895-.658 10.348-.854 3.875-.226 7.75-.374 11.626-.452 4.328-.098 8.656-.148 12.984-.138h74.126zm.01 4.009c4.298-.01 8.597.039 12.895.127 3.827.089 7.653.236 11.48.452 3.383.197 6.766.472 10.13.845 2.971.315 5.932.747 8.863 1.297a75.943 75.943 0 0 1 7.653 1.818 50.493 50.493 0 0 1 6.501 2.397 37.038 37.038 0 0 1 5.47 3.026 30.383 30.383 0 0 1 4.524 3.724 31.05 31.05 0 0 1 3.738 4.519 37.271 37.271 0 0 1 3.03 5.443 51.46 51.46 0 0 1 2.4 6.494 75.563 75.563 0 0 1 1.829 7.634c.54 2.928.974 5.875 1.298 8.842.374 3.36.65 6.73.846 10.11.217 3.822.374 7.634.453 11.456.088 4.293.137 8.577.137 12.87v58.212c0 4.293-.049 8.577-.137 12.87a317.503 317.503 0 0 1-.453 11.456c-.196 3.38-.472 6.75-.846 10.12a121.689 121.689 0 0 1-1.298 8.832 75.562 75.562 0 0 1-1.83 7.634 50.902 50.902 0 0 1-2.4 6.494 36.767 36.767 0 0 1-3.03 5.443 30.615 30.615 0 0 1-3.737 4.53 30.938 30.938 0 0 1-4.525 3.713 37.038 37.038 0 0 1-5.469 3.026 49.07 49.07 0 0 1-6.501 2.397 75.942 75.942 0 0 1-7.653 1.818c-2.931.55-5.892.982-8.863 1.306-3.364.364-6.747.649-10.13.836-3.827.216-7.653.373-11.48.452-4.298.098-8.597.137-12.895.137H90.932c-4.298 0-8.597-.04-12.895-.137a320.093 320.093 0 0 1-11.48-.452 193.696 193.696 0 0 1-10.13-.836 116.71 116.71 0 0 1-8.863-1.306 75.942 75.942 0 0 1-7.653-1.818 49.07 49.07 0 0 1-6.501-2.397 37.038 37.038 0 0 1-5.47-3.026 30.938 30.938 0 0 1-4.524-3.714 30.615 30.615 0 0 1-3.738-4.529 36.766 36.766 0 0 1-3.03-5.443 50.903 50.903 0 0 1-2.4-6.494 75.567 75.567 0 0 1-1.829-7.634 121.69 121.69 0 0 1-1.298-8.832c-.374-3.37-.65-6.74-.846-10.12a317.535 317.535 0 0 1-.453-11.456 623.851 623.851 0 0 1-.137-12.87V97.014c0-4.293.049-8.577.137-12.87.079-3.822.236-7.634.453-11.456.197-3.38.472-6.75.846-10.11.324-2.967.757-5.914 1.298-8.842a75.568 75.568 0 0 1 1.83-7.634 51.46 51.46 0 0 1 2.4-6.494 37.27 37.27 0 0 1 3.03-5.443 31.05 31.05 0 0 1 3.737-4.52 30.384 30.384 0 0 1 4.525-3.723 37.039 37.039 0 0 1 5.469-3.026 50.494 50.494 0 0 1 6.501-2.397 75.943 75.943 0 0 1 7.653-1.818c2.931-.55 5.892-.982 8.863-1.297 3.364-.373 6.747-.648 10.13-.845a344.71 344.71 0 0 1 11.48-.452c4.298-.088 8.597-.137 12.895-.127H165.078z"
       id="path5" /></g><g
     id="g8"
     transform="translate(-444.15295,-62.677795)"><g
       id="g9"
       transform="matrix(0.83180606,0,0,0.83180606,409.70094,22.784655)"><g
         stroke-width="2"
         fill="none"
         stroke-linecap="butt"
         id="g27"><path
           stroke="#8b887f"
           vector-effect="non-scaling-stroke"
           d="M 244.76,184.48 V 208.1"
           id="path1-3" /><path
           stroke="#8b8472"
           vector-effect="non-scaling-stroke"
           d="m 244.76,208.1 0.01,33.17"
           id="path2-5" /><path
           stroke="#8b756f"
           vector-effect="non-scaling-stroke"
           d="m 244.77,241.27 v 18.11"
           id="path3-6" /><path
           stroke="#8b6a70"
           vector-effect="non-scaling-stroke"
           d="m 244.77,259.38 v 39.12 q 0,0.5 0.5,0.5 h 45.72 q 0.49,0 0.49,-0.5 v -57.25"
           id="path4-2" /><path
           stroke="#8b756f"
           vector-effect="non-scaling-stroke"
           d="m 291.48,241.25 0.01,-17.82"
           id="path5-9" /><path
           stroke="#8b8472"
           vector-effect="non-scaling-stroke"
           d="m 291.49,223.43 v -34.9"
           id="path6-1" /><path
           stroke="#8b887f"
           vector-effect="non-scaling-stroke"
           d="m 291.49,188.53 -0.01,-21"
           id="path7-2" /><path
           stroke="#8b8c8e"
           vector-effect="non-scaling-stroke"
           d="m 291.48,167.53 v -24.79 q 0,-0.49 -0.49,-0.49 h -45.74 q -0.5,0 -0.5,-0.5 v -43 a 0.5,0.5 0 0 0 -0.5,-0.5 h -120 q -0.5,0 -0.5,0.5 v 43 q 0,0.5 0.5,0.5 h 119.98 a 0.53,0.52 0 0 1 0.53,0.52 v 41.71"
           id="path8-7" /><path
           stroke="#fffbf1"
           vector-effect="non-scaling-stroke"
           d="m 291.48,167.53 q -0.59,-1.39 -2,-0.84 -20.59,8.04 -41,16.5 -0.53,0.22 -1.73,0.41 -0.44,0.07 -0.61,0.47 -0.28,0.69 -1.38,0.41"
           id="path9-0" /><path
           stroke="#fff3d5"
           vector-effect="non-scaling-stroke"
           d="m 291.49,188.53 q -15.82,5.52 -30.99,12.47 -0.22,0.1 -0.5,0.01 -0.44,-0.15 -0.87,0.03 l -12.11,5.1 a 1.62,1.62 0 0 0 -0.76,0.67 q -0.67,1.12 -1.5,1.29"
           id="path10" /><path
           stroke="#ffe1c4"
           vector-effect="non-scaling-stroke"
           d="m 291.49,223.43 c -15.01,4.33 -27.59,10.6 -44.8,17.31 a 0.54,0.54 0 0 1 -0.4,0 q -0.22,-0.1 -0.38,-0.29 -0.32,-0.37 -0.68,-0.02 -0.27,0.26 -0.46,0.84"
           id="path11" /><path
           stroke="#ffc7c2"
           vector-effect="non-scaling-stroke"
           d="m 291.48,241.25 q -10.38,3.12 -13.97,4.77 c -7.97,3.65 -15.19,6.36 -22.26,9.42 q -5.11,2.21 -10.48,3.94"
           id="path12" /><path
           stroke="#8b887f"
           vector-effect="non-scaling-stroke"
           d="m 100.18,249.33 q 1.17,6.54 4,13.15"
           id="path13" /><path
           stroke="#8b8472"
           vector-effect="non-scaling-stroke"
           d="m 104.18,262.48 q 6.28,14.23 17.2,23.24"
           id="path14" /><path
           stroke="#8b7a6e"
           vector-effect="non-scaling-stroke"
           d="m 121.38,285.72 q 5.74,4.94 11.2,7.54"
           id="path15" /><path
           stroke="#8b756f"
           vector-effect="non-scaling-stroke"
           d="m 132.58,293.26 7.05,3.39"
           id="path16" /><path
           stroke="#8b706f"
           vector-effect="non-scaling-stroke"
           d="m 139.63,296.65 c 31.55,11.22 65.39,-1.82 79.76,-32.16"
           id="path17" /><path
           stroke="#8b756f"
           vector-effect="non-scaling-stroke"
           d="m 219.39,264.49 3.01,-7.54"
           id="path18" /><path
           stroke="#8b7a6e"
           vector-effect="non-scaling-stroke"
           d="m 222.4,256.95 q 2.06,-6.29 2.72,-13.33"
           id="path19" /><path
           stroke="#8b8472"
           vector-effect="non-scaling-stroke"
           d="m 225.12,243.62 q 1.44,-13.73 -3.45,-27.54"
           id="path20" /><path
           stroke="#8b887f"
           vector-effect="non-scaling-stroke"
           d="m 221.67,216.08 q -2.4,-6.89 -7.01,-13.82"
           id="path21" /><path
           stroke="#8b8c8e"
           vector-effect="non-scaling-stroke"
           d="m 214.66,202.26 q -14.38,-20.61 -38.05,-26.15 c -44.37,-10.37 -84.64,28.01 -76.43,73.22"
           id="path22" /><path
           stroke="#fffbf1"
           vector-effect="non-scaling-stroke"
           d="m 214.66,202.26 q -14.65,6.23 -29.62,11.92 c -0.41,0.16 -0.53,0.43 -0.57,0.84 q -0.06,0.46 -0.5,0.58 -1.11,0.32 -2.49,1.37 -2.25,1.71 -7.64,3.44 c -2.43,0.77 -4.53,2.29 -7.11,3.09 q -4.85,1.49 -5.47,1.75 -19.66,8.11 -39.42,15.96 -0.07,0.03 -8.68,3.71 -6.28,2.69 -12.98,4.41"
           id="path23" /><path
           stroke="#fff3d5"
           vector-effect="non-scaling-stroke"
           d="m 221.67,216.08 q -2.43,-0.68 -5.77,1.11 -0.44,0.23 -0.7,0.66 -0.34,0.55 -1,0.43 -0.53,-0.1 -1.02,0.1 l -109,44.1"
           id="path24" /><path
           stroke="#ffe5c4"
           vector-effect="non-scaling-stroke"
           d="m 225.12,243.62 q -4.77,2.36 -9.47,2.5 -0.4,0.02 -0.4,0.41 v 0.46 q 0,0.47 -0.43,0.66 -20.51,8.68 -41.32,16.6 c -7.41,2.82 -15.74,6.83 -23.76,9.84 q -14.18,5.34 -28.36,11.63"
           id="path25" /><path
           stroke="#ffd7c1"
           vector-effect="non-scaling-stroke"
           d="m 222.4,256.95 c -2.19,-1.44 -29.19,10.35 -36.84,13.59 q -0.48,0.21 -0.55,0.73 l -0.08,0.54 a 0.16,0.16 0 0 1 -0.3,0.05 q -0.07,-0.17 -0.11,-0.33 -0.13,-0.57 -0.69,-0.39 c -5.54,1.74 -11.06,4.67 -16.54,6.79 q -14.6,5.66 -29.08,11.55 -3.64,1.47 -5.63,3.78"
           id="path26" /><path
           stroke="#ffcdc2"
           vector-effect="non-scaling-stroke"
           d="m 219.39,264.49 q -1.63,-1.03 -3.81,-0.13 -35.58,14.69 -71.43,28.74 -2.79,1.09 -4.52,3.55"
           id="path27" /></g><path
         fill="#ffffff"
         d="m 291.48,167.53 q -0.59,-1.39 -2,-0.84 -20.59,8.04 -41,16.5 -0.53,0.22 -1.73,0.41 -0.44,0.07 -0.61,0.47 -0.28,0.69 -1.38,0.41 v -41.71 a 0.53,0.52 0 0 0 -0.53,-0.52 H 124.25 q -0.5,0 -0.5,-0.5 v -43 q 0,-0.5 0.5,-0.5 h 120 a 0.5,0.5 0 0 1 0.5,0.5 v 43 q 0,0.5 0.5,0.5 h 45.74 q 0.49,0 0.49,0.49 z"
         id="path29" /><path
         fill="#fff7e2"
         d="m 291.48,167.53 0.01,21 q -15.82,5.52 -30.99,12.47 -0.22,0.1 -0.5,0.01 -0.44,-0.15 -0.87,0.03 l -12.11,5.1 a 1.62,1.62 0 0 0 -0.76,0.67 q -0.67,1.12 -1.5,1.29 v -23.62 q 1.1,0.28 1.38,-0.41 0.17,-0.4 0.61,-0.47 1.2,-0.19 1.73,-0.41 20.41,-8.46 41,-16.5 1.41,-0.55 2,0.84 z"
         id="path30" /><path
         fill="#ffffff"
         d="m 214.66,202.26 q -14.65,6.23 -29.62,11.92 c -0.41,0.16 -0.53,0.43 -0.57,0.84 q -0.06,0.46 -0.5,0.58 -1.11,0.32 -2.49,1.37 -2.25,1.71 -7.64,3.44 c -2.43,0.77 -4.53,2.29 -7.11,3.09 q -4.85,1.49 -5.47,1.75 -19.66,8.11 -39.42,15.96 -0.07,0.03 -8.68,3.71 -6.28,2.69 -12.98,4.41 c -8.21,-45.21 32.06,-83.59 76.43,-73.22 q 23.67,5.54 38.05,26.15 z"
         id="path31" /><path
         fill="#ffefc7"
         d="m 291.49,188.53 v 34.9 c -15.01,4.33 -27.59,10.6 -44.8,17.31 a 0.54,0.54 0 0 1 -0.4,0 q -0.22,-0.1 -0.38,-0.29 -0.32,-0.37 -0.68,-0.02 -0.27,0.26 -0.46,0.84 l -0.01,-33.17 q 0.83,-0.17 1.5,-1.29 a 1.62,1.62 0 0 1 0.76,-0.67 l 12.11,-5.1 q 0.43,-0.18 0.87,-0.03 0.28,0.09 0.5,-0.01 15.17,-6.95 30.99,-12.47 z"
         id="path32" /><path
         fill="#fff7e2"
         d="m 214.66,202.26 q 4.61,6.93 7.01,13.82 -2.43,-0.68 -5.77,1.11 -0.44,0.23 -0.7,0.66 -0.34,0.55 -1,0.43 -0.53,-0.1 -1.02,0.1 l -109,44.1 q -2.83,-6.61 -4,-13.15 6.7,-1.72 12.98,-4.41 8.61,-3.68 8.68,-3.71 19.76,-7.85 39.42,-15.96 0.62,-0.26 5.47,-1.75 c 2.58,-0.8 4.68,-2.32 7.11,-3.09 q 5.39,-1.73 7.64,-3.44 1.38,-1.05 2.49,-1.37 0.44,-0.12 0.5,-0.58 c 0.04,-0.41 0.16,-0.68 0.57,-0.84 q 14.97,-5.69 29.62,-11.92 z"
         id="path33" /><path
         fill="#ffefc7"
         d="m 221.67,216.08 q 4.89,13.81 3.45,27.54 -4.77,2.36 -9.47,2.5 -0.4,0.02 -0.4,0.41 v 0.46 q 0,0.47 -0.43,0.66 -20.51,8.68 -41.32,16.6 c -7.41,2.82 -15.74,6.83 -23.76,9.84 q -14.18,5.34 -28.36,11.63 -10.92,-9.01 -17.2,-23.24 l 109,-44.1 q 0.49,-0.2 1.02,-0.1 0.66,0.12 1,-0.43 0.26,-0.43 0.7,-0.66 3.34,-1.79 5.77,-1.11 z"
         id="path34" /><path
         fill="#ffd2c1"
         d="m 291.49,223.43 -0.01,17.82 q -10.38,3.12 -13.97,4.77 c -7.97,3.65 -15.19,6.36 -22.26,9.42 q -5.11,2.21 -10.48,3.94 v -18.11 q 0.19,-0.58 0.46,-0.84 0.36,-0.35 0.68,0.02 0.16,0.19 0.38,0.29 a 0.54,0.54 0 0 0 0.4,0 c 17.21,-6.71 29.79,-12.98 44.8,-17.31 z"
         id="path35" /><path
         fill="#ffbcc3"
         d="m 291.48,241.25 v 57.25 q 0,0.5 -0.49,0.5 h -45.72 q -0.5,0 -0.5,-0.5 v -39.12 q 5.37,-1.73 10.48,-3.94 c 7.07,-3.06 14.29,-5.77 22.26,-9.42 q 3.59,-1.65 13.97,-4.77 z"
         id="path36" /><path
         fill="#ffdbc0"
         d="m 225.12,243.62 q -0.66,7.04 -2.72,13.33 c -2.19,-1.44 -29.19,10.35 -36.84,13.59 q -0.48,0.21 -0.55,0.73 l -0.08,0.54 a 0.16,0.16 0 0 1 -0.3,0.05 q -0.07,-0.17 -0.11,-0.33 -0.13,-0.57 -0.69,-0.39 c -5.54,1.74 -11.06,4.67 -16.54,6.79 q -14.6,5.66 -29.08,11.55 -3.64,1.47 -5.63,3.78 -5.46,-2.6 -11.2,-7.54 14.18,-6.29 28.36,-11.63 c 8.02,-3.01 16.35,-7.02 23.76,-9.84 q 20.81,-7.92 41.32,-16.6 0.43,-0.19 0.43,-0.66 v -0.46 q 0,-0.39 0.4,-0.41 4.7,-0.14 9.47,-2.5 z"
         id="path37" /><path
         fill="#ffd2c1"
         d="m 222.4,256.95 -3.01,7.54 q -1.63,-1.03 -3.81,-0.13 -35.58,14.69 -71.43,28.74 -2.79,1.09 -4.52,3.55 l -7.05,-3.39 q 1.99,-2.31 5.63,-3.78 14.48,-5.89 29.08,-11.55 c 5.48,-2.12 11,-5.05 16.54,-6.79 q 0.56,-0.18 0.69,0.39 0.04,0.16 0.11,0.33 a 0.16,0.16 0 0 0 0.3,-0.05 l 0.08,-0.54 q 0.07,-0.52 0.55,-0.73 c 7.65,-3.24 34.65,-15.03 36.84,-13.59 z"
         id="path38" /><path
         fill="#ffc8c2"
         d="m 219.39,264.49 c -14.37,30.34 -48.21,43.38 -79.76,32.16 q 1.73,-2.46 4.52,-3.55 35.85,-14.05 71.43,-28.74 2.18,-0.9 3.81,0.13 z"
         id="path39" /></g></g></svg>
