<?xml version="1.0" encoding="UTF-8" standalone="no"?>
<svg
   xmlns:dc="http://purl.org/dc/elements/1.1/"
   xmlns:cc="http://creativecommons.org/ns#"
   xmlns:rdf="http://www.w3.org/1999/02/22-rdf-syntax-ns#"
   xmlns:svg="http://www.w3.org/2000/svg"
   xmlns="http://www.w3.org/2000/svg"
   style="isolation:isolate"
   width="256"
   height="256"
   version="1.1"
   id="svg45">
  <metadata
     id="metadata49">
    <rdf:RDF>
      <cc:Work
         rdf:about="">
        <dc:format>image/svg+xml</dc:format>
        <dc:type
           rdf:resource="http://purl.org/dc/dcmitype/StillImage" />
        <dc:title></dc:title>
      </cc:Work>
    </rdf:RDF>
  </metadata>
  <defs
     id="defs13">
    <filter
       id="a"
       width="400%"
       height="400%"
       x="-200%"
       y="-200%"
       color-interpolation-filters="sRGB"
       filterUnits="objectBoundingBox">
      <feGaussianBlur
         in="SourceGraphic"
         stdDeviation="4.294"
         id="feGaussianBlur2" />
      <feOffset
         dy="4"
         result="pf_100_offsetBlur"
         id="feOffset4" />
      <feFlood
         flood-opacity=".4"
         id="feFlood6" />
      <feComposite
         in2="pf_100_offsetBlur"
         operator="in"
         result="pf_100_dropShadow"
         id="feComposite8" />
      <feBlend
         in="SourceGraphic"
         in2="pf_100_dropShadow"
         id="feBlend10" />
    </filter>
    <circle
       id="A"
       cx="96"
       cy="96"
       r="88" />
    <path
       id="B"
       d="M8 184h83.77l38.88-38.88V116h-69.3L8 24.48z" />
    <path
       id="F"
       d="M8 184h83.77l38.88-38.88V116h-69.3L8 24.48z" />
    <path
       id="I"
       d="M96 56l34.65 60-38.88 68H184V56z" />
    <path
       id="L"
       d="M21.97 8v40.34L61.36 116 96 56h88V8z" />
    <radialGradient
       id="radial-gradient"
       cx="-14480.522"
       cy="-8329.079"
       fx="-14509.281265145226"
       r="450.875"
       gradientTransform="matrix(0.762,0.034,-0.05,1.12,11560.893,10069.103)"
       gradientUnits="userSpaceOnUse">
      <stop
         offset="0.045"
         stop-color="#ffea00"
         id="stop245" />
      <stop
         offset="0.12"
         stop-color="#ffde00"
         id="stop247" />
      <stop
         offset="0.254"
         stop-color="#ffbf00"
         id="stop249" />
      <stop
         offset="0.429"
         stop-color="#ff8e00"
         id="stop251" />
      <stop
         offset="0.769"
         stop-color="#ff272d"
         id="stop253" />
      <stop
         offset="0.872"
         stop-color="#e0255a"
         id="stop255" />
      <stop
         offset="0.953"
         stop-color="#cc2477"
         id="stop257" />
      <stop
         offset="1"
         stop-color="#c42482"
         id="stop259" />
    </radialGradient>
    <radialGradient
       id="radial-gradient-2"
       cx="-7529.669"
       cy="-7921.608"
       r="791.229"
       gradientTransform="matrix(1.225,0,0,1.225,9921.963,9899.103)"
       gradientUnits="userSpaceOnUse">
      <stop
         offset="0"
         stop-color="#00ccda"
         id="stop262" />
      <stop
         offset="0.22"
         stop-color="#0083ff"
         id="stop264" />
      <stop
         offset="0.261"
         stop-color="#007af9"
         id="stop266" />
      <stop
         offset="0.33"
         stop-color="#0060e8"
         id="stop268" />
      <stop
         offset="0.333"
         stop-color="#005fe7"
         id="stop270" />
      <stop
         offset="0.438"
         stop-color="#2639ad"
         id="stop272" />
      <stop
         offset="0.522"
         stop-color="#401e84"
         id="stop274" />
      <stop
         offset="0.566"
         stop-color="#4a1475"
         id="stop276" />
    </radialGradient>
    <linearGradient
       id="linear-gradient"
       x1="575.669"
       y1="731.188"
       x2="384.231"
       y2="104.96"
       gradientUnits="userSpaceOnUse">
      <stop
         offset="0"
         stop-color="#000f43"
         stop-opacity="0.4"
         id="stop279" />
      <stop
         offset="0.485"
         stop-color="#001962"
         stop-opacity="0.173"
         id="stop281" />
      <stop
         offset="1"
         stop-color="#002079"
         stop-opacity="0"
         id="stop283" />
    </linearGradient>
    <radialGradient
       id="radial-gradient-3"
       cx="-8260.94"
       cy="-6516.556"
       r="266.886"
       gradientTransform="matrix(1.219,0.123,-0.123,1.219,10296.265,9597.23)"
       gradientUnits="userSpaceOnUse">
      <stop
         offset="0.003"
         stop-color="#ffea00"
         id="stop286" />
      <stop
         offset="0.497"
         stop-color="#ff272d"
         id="stop288" />
      <stop
         offset="1"
         stop-color="#c42482"
         id="stop290" />
    </radialGradient>
    <radialGradient
       id="radial-gradient-4"
       cx="-8285.087"
       cy="-6772.468"
       r="445.678"
       gradientTransform="matrix(1.219,0.123,-0.123,1.219,10296.265,9597.23)"
       gradientUnits="userSpaceOnUse">
      <stop
         offset="0.003"
         stop-color="#ffe900"
         id="stop293" />
      <stop
         offset="0.157"
         stop-color="#ffaf0e"
         id="stop295" />
      <stop
         offset="0.316"
         stop-color="#ff7a1b"
         id="stop297" />
      <stop
         offset="0.472"
         stop-color="#ff4e26"
         id="stop299" />
      <stop
         offset="0.621"
         stop-color="#ff2c2e"
         id="stop301" />
      <stop
         offset="0.762"
         stop-color="#ff1434"
         id="stop303" />
      <stop
         offset="0.892"
         stop-color="#ff0538"
         id="stop305" />
      <stop
         offset="1"
         stop-color="#ff0039"
         id="stop307" />
    </radialGradient>
    <radialGradient
       id="radial-gradient-5"
       cx="-8222.051"
       cy="-6359.332"
       r="408.958"
       gradientTransform="matrix(1.219,0.123,-0.123,1.219,10296.265,9597.23)"
       gradientUnits="userSpaceOnUse">
      <stop
         offset="0.003"
         stop-color="#ff272d"
         id="stop310" />
      <stop
         offset="0.497"
         stop-color="#c42482"
         id="stop312" />
      <stop
         offset="0.986"
         stop-color="#620700"
         id="stop314" />
    </radialGradient>
    <radialGradient
       id="radial-gradient-6"
       cx="750.189"
       cy="396.041"
       fx="778.1665281038617"
       fy="382.2124050106231"
       r="782.18"
       gradientUnits="userSpaceOnUse">
      <stop
         offset="0.156"
         stop-color="#ffea00"
         id="stop317" />
      <stop
         offset="0.231"
         stop-color="#ffde00"
         id="stop319" />
      <stop
         offset="0.365"
         stop-color="#ffbf00"
         id="stop321" />
      <stop
         offset="0.541"
         stop-color="#ff8e00"
         id="stop323" />
      <stop
         offset="0.763"
         stop-color="#ff272d"
         id="stop325" />
      <stop
         offset="0.796"
         stop-color="#f92433"
         id="stop327" />
      <stop
         offset="0.841"
         stop-color="#e91c45"
         id="stop329" />
      <stop
         offset="0.893"
         stop-color="#cf0e62"
         id="stop331" />
      <stop
         offset="0.935"
         stop-color="#b5007f"
         id="stop333" />
    </radialGradient>
    <radialGradient
       id="radial-gradient-7"
       cx="691.339"
       cy="3.289"
       r="923.615"
       gradientUnits="userSpaceOnUse">
      <stop
         offset="0.279"
         stop-color="#ffea00"
         id="stop336" />
      <stop
         offset="0.402"
         stop-color="#fd0"
         id="stop338" />
      <stop
         offset="0.63"
         stop-color="#ffba00"
         id="stop340" />
      <stop
         offset="0.856"
         stop-color="#ff9100"
         id="stop342" />
      <stop
         offset="0.933"
         stop-color="#ff6711"
         id="stop344" />
      <stop
         offset="0.994"
         stop-color="#ff4a1d"
         id="stop346" />
    </radialGradient>
    <linearGradient
       id="linear-gradient-2"
       x1="-8944.65"
       y1="-6677.742"
       x2="-8660.289"
       y2="-6750.226"
       gradientTransform="matrix(1.219,0.123,-0.123,1.219,10296.265,9597.23)"
       gradientUnits="userSpaceOnUse">
      <stop
         offset="0"
         stop-color="#c42482"
         stop-opacity="0.5"
         id="stop349" />
      <stop
         offset="0.474"
         stop-color="#ff272d"
         stop-opacity="0.5"
         id="stop351" />
      <stop
         offset="0.486"
         stop-color="#ff2c2c"
         stop-opacity="0.513"
         id="stop353" />
      <stop
         offset="0.675"
         stop-color="#ff7a1a"
         stop-opacity="0.72"
         id="stop355" />
      <stop
         offset="0.829"
         stop-color="#ffb20d"
         stop-opacity="0.871"
         id="stop357" />
      <stop
         offset="0.942"
         stop-color="#ffd605"
         stop-opacity="0.964"
         id="stop359" />
      <stop
         offset="1"
         stop-color="#ffe302"
         id="stop361" />
    </linearGradient>
    <linearGradient
       id="linear-gradient-3"
       x1="245.347"
       y1="-1082.012"
       x2="190.775"
       y2="-1221.859"
       gradientTransform="matrix(0.995,0.1,-0.1,0.995,-173.696,1313.941)"
       gradientUnits="userSpaceOnUse">
      <stop
         offset="0"
         stop-color="#891551"
         stop-opacity="0.6"
         id="stop364" />
      <stop
         offset="1"
         stop-color="#c42482"
         stop-opacity="0"
         id="stop366" />
    </linearGradient>
    <linearGradient
       id="linear-gradient-4"
       x1="22.04"
       y1="718.827"
       x2="116.148"
       y2="825.714"
       gradientTransform="matrix(0.995,0.1,-0.1,0.995,305.439,-246.471)"
       gradientUnits="userSpaceOnUse">
      <stop
         offset="0.005"
         stop-color="#891551"
         stop-opacity="0.5"
         id="stop369" />
      <stop
         offset="0.484"
         stop-color="#ff272d"
         stop-opacity="0.5"
         id="stop371" />
      <stop
         offset="1"
         stop-color="#ff272d"
         stop-opacity="0"
         id="stop373" />
    </linearGradient>
    <linearGradient
       id="linear-gradient-5"
       x1="200.104"
       y1="904.616"
       x2="200.171"
       y2="829.835"
       gradientTransform="matrix(0.995,0.1,-0.1,0.995,305.439,-246.471)"
       gradientUnits="userSpaceOnUse">
      <stop
         offset="0"
         stop-color="#c42482"
         id="stop376" />
      <stop
         offset="0.083"
         stop-color="#c42482"
         stop-opacity="0.81"
         id="stop378" />
      <stop
         offset="0.206"
         stop-color="#c42482"
         stop-opacity="0.565"
         id="stop380" />
      <stop
         offset="0.328"
         stop-color="#c42482"
         stop-opacity="0.362"
         id="stop382" />
      <stop
         offset="0.447"
         stop-color="#c42482"
         stop-opacity="0.204"
         id="stop384" />
      <stop
         offset="0.562"
         stop-color="#c42482"
         stop-opacity="0.091"
         id="stop386" />
      <stop
         offset="0.673"
         stop-color="#c42482"
         stop-opacity="0.023"
         id="stop388" />
      <stop
         offset="0.773"
         stop-color="#c42482"
         stop-opacity="0"
         id="stop390" />
    </linearGradient>
    <linearGradient
       id="linear-gradient-6"
       x1="655.531"
       y1="38.12"
       x2="961.187"
       y2="721.615"
       gradientUnits="userSpaceOnUse">
      <stop
         offset="0"
         stop-color="#fff14f"
         id="stop393" />
      <stop
         offset="0.268"
         stop-color="#ffee4c"
         id="stop395" />
      <stop
         offset="0.452"
         stop-color="#ffe643"
         id="stop397" />
      <stop
         offset="0.612"
         stop-color="#ffd834"
         id="stop399" />
      <stop
         offset="0.757"
         stop-color="#ffc41e"
         id="stop401" />
      <stop
         offset="0.892"
         stop-color="#ffab02"
         id="stop403" />
      <stop
         offset="0.902"
         stop-color="#ffa900"
         id="stop405" />
      <stop
         offset="0.949"
         stop-color="#ffa000"
         id="stop407" />
      <stop
         offset="1"
         stop-color="#ff9100"
         id="stop409" />
    </linearGradient>
    <linearGradient
       id="linear-gradient-7"
       x1="715.885"
       y1="431.21"
       x2="571.098"
       y2="819.96"
       gradientUnits="userSpaceOnUse">
      <stop
         offset="0"
         stop-color="#ff8e00"
         id="stop412" />
      <stop
         offset="0.04"
         stop-color="#ff8e00"
         stop-opacity="0.858"
         id="stop414" />
      <stop
         offset="0.084"
         stop-color="#ff8e00"
         stop-opacity="0.729"
         id="stop416" />
      <stop
         offset="0.13"
         stop-color="#ff8e00"
         stop-opacity="0.628"
         id="stop418" />
      <stop
         offset="0.178"
         stop-color="#ff8e00"
         stop-opacity="0.557"
         id="stop420" />
      <stop
         offset="0.227"
         stop-color="#ff8e00"
         stop-opacity="0.514"
         id="stop422" />
      <stop
         offset="0.282"
         stop-color="#ff8e00"
         stop-opacity="0.5"
         id="stop424" />
      <stop
         offset="0.389"
         stop-color="#ff8e00"
         stop-opacity="0.478"
         id="stop426" />
      <stop
         offset="0.524"
         stop-color="#ff8e00"
         stop-opacity="0.416"
         id="stop428" />
      <stop
         offset="0.676"
         stop-color="#ff8e00"
         stop-opacity="0.314"
         id="stop430" />
      <stop
         offset="0.838"
         stop-color="#ff8e00"
         stop-opacity="0.172"
         id="stop432" />
      <stop
         offset="1"
         stop-color="#ff8e00"
         stop-opacity="0"
         id="stop434" />
    </linearGradient>
    <linearGradient
       id="a-3"
       x1="160.08"
       x2="100.08"
       y1="40.079999"
       y2="180"
       gradientUnits="userSpaceOnUse">
      <stop
         offset="0"
         stop-color="#37aee2"
         id="stop1565" />
      <stop
         offset="1"
         stop-color="#1e96c8"
         id="stop1567" />
    </linearGradient>
    <linearGradient
       id="b-6"
       x1="123.67709"
       x2="146.50331"
       y1="131.03925"
       y2="174.66004"
       gradientTransform="matrix(1.0919068,0,0,0.9158291,6.3171568,-9.7495402)"
       gradientUnits="userSpaceOnUse">
      <stop
         offset="0"
         stop-color="#eff7fc"
         id="stop1570" />
      <stop
         offset="1"
         stop-color="#fff"
         id="stop1572" />
    </linearGradient>
  </defs>
  <path
     fill="#f7f7f7"
     d="M165.689 11.95c74.056 0 84.639 10.557 84.639 84.544v59.251c0 73.986-10.583 84.543-84.639 84.543h-75.37c-74.055 0-84.639-10.557-84.639-84.543V96.494c0-73.987 10.584-84.544 84.639-84.544h75.37z"
     filter="url(#a)"
     id="path15"
     style="fill:#27a6e6;fill-opacity:1" />
  <defs
     id="defs28">
    <filter
       id="b"
       width="400%"
       height="400%"
       x="-200%"
       y="-200%"
       color-interpolation-filters="sRGB"
       filterUnits="objectBoundingBox">
      <feGaussianBlur
         in="SourceGraphic"
         stdDeviation="4.294"
         id="feGaussianBlur17" />
      <feOffset
         dy="4"
         result="pf_100_offsetBlur"
         id="feOffset19" />
      <feFlood
         flood-opacity=".4"
         id="feFlood21" />
      <feComposite
         in2="pf_100_offsetBlur"
         operator="in"
         result="pf_100_dropShadow"
         id="feComposite23" />
      <feBlend
         in="SourceGraphic"
         in2="pf_100_dropShadow"
         id="feBlend25" />
    </filter>
  </defs>
  <g
     opacity=".4"
     id="g43">
    <linearGradient
       id="c"
       x1=".517"
       x2=".517"
       y2="1"
       gradientTransform="matrix(244.65 0 0 228.34 5.68 11.95)"
       gradientUnits="userSpaceOnUse">
      <stop
         offset="0%"
         stop-color="#ffffff"
         id="stop32" />
      <stop
         offset="12.5%"
         stop-color="#ffffff"
         stop-opacity=".098"
         id="stop34" />
      <stop
         offset="92.5%"
         stop-opacity=".098"
         id="stop36" />
      <stop
         offset="100%"
         stop-opacity=".498"
         id="stop38" />
    </linearGradient>
    <path
       fill="url(#c)"
       fill-rule="evenodd"
       d="M165.068 11.951c4.328-.01 8.656.04 12.984.138 3.875.078 7.75.226 11.626.452 3.453.196 6.905.481 10.348.854 3.06.335 6.118.786 9.148 1.346a80.47 80.47 0 0 1 8.046 1.916 53.64 53.64 0 0 1 7.023 2.584 40.413 40.413 0 0 1 6.06 3.35 35.176 35.176 0 0 1 5.134 4.215 35.072 35.072 0 0 1 4.22 5.119 41.692 41.692 0 0 1 3.363 6.042 55.982 55.982 0 0 1 2.597 7.005 80.224 80.224 0 0 1 1.918 8.037 124.43 124.43 0 0 1 1.348 9.127c.374 3.439.659 6.878.856 10.326.226 3.861.373 7.732.462 11.593.088 4.323.138 8.646.128 12.96v58.21c.01 4.324-.04 8.637-.128 12.96a325.177 325.177 0 0 1-.462 11.593 200.984 200.984 0 0 1-.856 10.326 124.691 124.691 0 0 1-1.348 9.137 80.687 80.687 0 0 1-1.918 8.027 55.414 55.414 0 0 1-2.597 7.005 41.18 41.18 0 0 1-3.364 6.042 34.559 34.559 0 0 1-4.22 5.119 35.177 35.177 0 0 1-5.134 4.215 40.412 40.412 0 0 1-6.059 3.35 55.138 55.138 0 0 1-7.023 2.594 77.806 77.806 0 0 1-8.046 1.906 120 120 0 0 1-9.148 1.346c-3.443.373-6.895.658-10.348.854-3.875.226-7.75.374-11.626.462-4.328.088-8.656.138-12.984.128H90.942c-4.328.01-8.656-.04-12.984-.128a328.387 328.387 0 0 1-11.626-.462 203.003 203.003 0 0 1-10.348-.854 120 120 0 0 1-9.148-1.346 77.806 77.806 0 0 1-8.046-1.906 55.139 55.139 0 0 1-7.023-2.594 40.413 40.413 0 0 1-6.06-3.35 35.176 35.176 0 0 1-5.134-4.215 34.56 34.56 0 0 1-4.22-5.119 41.183 41.183 0 0 1-3.363-6.042 55.415 55.415 0 0 1-2.597-7.005 80.682 80.682 0 0 1-1.918-8.027 124.688 124.688 0 0 1-1.348-9.137 200.993 200.993 0 0 1-.856-10.326 325.212 325.212 0 0 1-.462-11.593 569.197 569.197 0 0 1-.128-12.96v-58.21c-.01-4.314.04-8.637.128-12.96.089-3.86.236-7.732.462-11.593.197-3.448.482-6.887.856-10.326.335-3.055.787-6.101 1.348-9.127a80.219 80.219 0 0 1 1.918-8.037 55.983 55.983 0 0 1 2.597-7.005 41.695 41.695 0 0 1 3.364-6.042 35.072 35.072 0 0 1 4.22-5.119 35.176 35.176 0 0 1 5.134-4.215 40.413 40.413 0 0 1 6.059-3.35 53.64 53.64 0 0 1 7.023-2.584 80.47 80.47 0 0 1 8.046-1.916 125.11 125.11 0 0 1 9.148-1.346c3.443-.373 6.895-.658 10.348-.854 3.875-.226 7.75-.374 11.626-.452 4.328-.098 8.656-.148 12.984-.138h74.126zm.01 4.009c4.298-.01 8.597.039 12.895.127 3.827.089 7.653.236 11.48.452 3.383.197 6.766.472 10.13.845 2.971.315 5.932.747 8.863 1.297a75.943 75.943 0 0 1 7.653 1.818 50.493 50.493 0 0 1 6.501 2.397 37.038 37.038 0 0 1 5.47 3.026 30.383 30.383 0 0 1 4.524 3.724 31.05 31.05 0 0 1 3.738 4.519 37.271 37.271 0 0 1 3.03 5.443 51.46 51.46 0 0 1 2.4 6.494 75.563 75.563 0 0 1 1.829 7.634c.54 2.928.974 5.875 1.298 8.842.374 3.36.65 6.73.846 10.11.217 3.822.374 7.634.453 11.456.088 4.293.137 8.577.137 12.87v58.212c0 4.293-.049 8.577-.137 12.87a317.503 317.503 0 0 1-.453 11.456c-.196 3.38-.472 6.75-.846 10.12a121.689 121.689 0 0 1-1.298 8.832 75.562 75.562 0 0 1-1.83 7.634 50.902 50.902 0 0 1-2.4 6.494 36.767 36.767 0 0 1-3.03 5.443 30.615 30.615 0 0 1-3.737 4.53 30.938 30.938 0 0 1-4.525 3.713 37.038 37.038 0 0 1-5.469 3.026 49.07 49.07 0 0 1-6.501 2.397 75.942 75.942 0 0 1-7.653 1.818c-2.931.55-5.892.982-8.863 1.306-3.364.364-6.747.649-10.13.836-3.827.216-7.653.373-11.48.452-4.298.098-8.597.137-12.895.137H90.932c-4.298 0-8.597-.04-12.895-.137a320.093 320.093 0 0 1-11.48-.452 193.696 193.696 0 0 1-10.13-.836 116.71 116.71 0 0 1-8.863-1.306 75.942 75.942 0 0 1-7.653-1.818 49.07 49.07 0 0 1-6.501-2.397 37.038 37.038 0 0 1-5.47-3.026 30.938 30.938 0 0 1-4.524-3.714 30.615 30.615 0 0 1-3.738-4.529 36.766 36.766 0 0 1-3.03-5.443 50.903 50.903 0 0 1-2.4-6.494 75.567 75.567 0 0 1-1.829-7.634 121.69 121.69 0 0 1-1.298-8.832c-.374-3.37-.65-6.74-.846-10.12a317.535 317.535 0 0 1-.453-11.456 623.851 623.851 0 0 1-.137-12.87V97.014c0-4.293.049-8.577.137-12.87.079-3.822.236-7.634.453-11.456.197-3.38.472-6.75.846-10.11.324-2.967.757-5.914 1.298-8.842a75.568 75.568 0 0 1 1.83-7.634 51.46 51.46 0 0 1 2.4-6.494 37.27 37.27 0 0 1 3.03-5.443 31.05 31.05 0 0 1 3.737-4.52 30.384 30.384 0 0 1 4.525-3.723 37.039 37.039 0 0 1 5.469-3.026 50.494 50.494 0 0 1 6.501-2.397 75.943 75.943 0 0 1 7.653-1.818c2.931-.55 5.892-.982 8.863-1.297 3.364-.373 6.747-.648 10.13-.845a344.71 344.71 0 0 1 11.48-.452c4.298-.088 8.597-.137 12.895-.127H165.078z"
       id="path41" />
  </g>
  <style
     id="style51"><![CDATA[.B{clip-path:url(#C)}.C{fill:#3e2723}.D{fill-opacity:.15}.E{fill-opacity:.2}]]></style>
  <g
     id="g1601"
     transform="translate(111.32595,185.62597)">
    <path
       style="fill:#ffffff;fill-opacity:1;fill-rule:nonzero;stroke:none;stroke-width:1.33333"
       d="m -54.005669,-67.162265 c 50.2760416,-22.114583 115.328132,-49.078125 124.312505,-52.812505 23.55208,-9.76562 30.781244,-7.89583 27.17708,13.73438 -2.58855,15.552083 -10.057293,67.026042 -16.005213,99.067703 -3.536453,19 -11.458333,21.25 -23.916667,13.031254 -5.994788,-3.958334 -36.23958,-23.958334 -42.80208,-28.65104 -5.989584,-4.281254 -14.25520744,-9.427083 -3.890625,-19.567709 3.6875,-3.614584 27.864584,-26.697917 46.697919,-44.666666 2.468746,-2.359375 -0.630214,-6.234375 -3.479168,-4.343751 -25.385418,16.838542 -60.5885414,40.203126 -65.067709,43.25 -6.765625,4.593751 -13.265625,6.703125 -24.937499,3.348959 -8.812502,-2.53125 -17.427084,-5.552084 -20.776043,-6.703125 -12.911459,-4.432292 -9.843749,-10.171875 2.6875,-15.6875 z m 0,0"
       id="path1603" />
  </g>
</svg>
