<?xml version="1.0" encoding="UTF-8" standalone="no"?>
<svg
   xmlns:dc="http://purl.org/dc/elements/1.1/"
   xmlns:cc="http://creativecommons.org/ns#"
   xmlns:rdf="http://www.w3.org/1999/02/22-rdf-syntax-ns#"
   xmlns:svg="http://www.w3.org/2000/svg"
   xmlns="http://www.w3.org/2000/svg"
   style="isolation:isolate"
   width="256"
   height="256"
   version="1.1"
   id="svg45">
  <metadata
     id="metadata49">
    <rdf:RDF>
      <cc:Work
         rdf:about="">
        <dc:format>image/svg+xml</dc:format>
        <dc:type
           rdf:resource="http://purl.org/dc/dcmitype/StillImage" />
        <dc:title></dc:title>
      </cc:Work>
    </rdf:RDF>
  </metadata>
  <defs
     id="defs13">
    <filter
       id="a"
       width="400%"
       height="400%"
       x="-200%"
       y="-200%"
       color-interpolation-filters="sRGB"
       filterUnits="objectBoundingBox">
      <feGaussianBlur
         in="SourceGraphic"
         stdDeviation="4.294"
         id="feGaussianBlur2" />
      <feOffset
         dy="4"
         result="pf_100_offsetBlur"
         id="feOffset4" />
      <feFlood
         flood-opacity=".4"
         id="feFlood6" />
      <feComposite
         in2="pf_100_offsetBlur"
         operator="in"
         result="pf_100_dropShadow"
         id="feComposite8" />
      <feBlend
         in="SourceGraphic"
         in2="pf_100_dropShadow"
         id="feBlend10" />
    </filter>
    <linearGradient
       id="linear0"
       gradientUnits="userSpaceOnUse"
       x1="64"
       y1="246"
       x2="120"
       y2="246"
       gradientTransform="translate(0,-166)">
      <stop
         style="stop-color:#bfbdba"
         id="stop874" />
      <stop
         offset="0.857143"
         style="stop-color:#bfbdba"
         id="stop876" />
      <stop
         offset="0.928571"
         style="stop-color:#dedcd9"
         id="stop878" />
      <stop
         offset="1"
         style="stop-color:#bfbdba"
         id="stop880" />
    </linearGradient>
    <linearGradient
       id="linear1"
       gradientUnits="userSpaceOnUse"
       x1="64"
       y1="246"
       x2="120"
       y2="246"
       gradientTransform="matrix(-1,0,0,1,128,-166)">
      <stop
         style="stop-color:#bfbdba"
         id="stop883" />
      <stop
         offset="0.857143"
         style="stop-color:#bfbdba"
         id="stop885" />
      <stop
         offset="0.928571"
         style="stop-color:#dedcd9"
         id="stop887" />
      <stop
         offset="1"
         style="stop-color:#bfbdba"
         id="stop889" />
    </linearGradient>
    <filter
       id="alpha"
       filterUnits="objectBoundingBox">
      <feColorMatrix
         type="matrix"
         in="SourceGraphic"
         values="0 0 0 0 1 0 0 0 0 1 0 0 0 0 1 0 0 0 1 0"
         id="feColorMatrix892" />
    </filter>
    <mask
       id="mask0">
      <rect
         width="128"
         height="128"
         style="opacity:0.1;"
         filter="url(#alpha)"
         id="rect895" />
    </mask>
    <linearGradient
       id="linear2"
       gradientUnits="userSpaceOnUse"
       x1="320"
       y1="116"
       x2="416"
       y2="116"
       gradientTransform="matrix(-0.25,0,0,0.25,168,31)">
      <stop
         style="stop-color:#f5f5f3"
         id="stop898" />
      <stop
         offset="0.5"
         style="stop-color:#ffffff"
         id="stop900" />
      <stop
         offset="1"
         style="stop-color:#deded9"
         id="stop902" />
    </linearGradient>
    <linearGradient
       id="linear3"
       gradientUnits="userSpaceOnUse"
       x1="320"
       y1="116"
       x2="416"
       y2="116"
       gradientTransform="matrix(0.25,0,0,0.25,-40,31)">
      <stop
         style="stop-color:#f5f5f3"
         id="stop905" />
      <stop
         offset="0.5"
         style="stop-color:#f5f5f3"
         id="stop907" />
      <stop
         offset="1"
         style="stop-color:#cccac7"
         id="stop909" />
    </linearGradient>
    <linearGradient
       id="linear4"
       gradientUnits="userSpaceOnUse"
       x1="59.091709"
       y1="216.780304"
       x2="46.28891"
       y2="168.999603"
       gradientTransform="translate(-11.862876,-168.9809)">
      <stop
         style="stop-color:#00cccc"
         id="stop912" />
      <stop
         offset="1"
         style="stop-color:#30e3d1"
         id="stop914" />
    </linearGradient>
  </defs>
  <defs
     id="defs28">
    <filter
       id="b"
       width="400%"
       height="400%"
       x="-200%"
       y="-200%"
       color-interpolation-filters="sRGB"
       filterUnits="objectBoundingBox">
      <feGaussianBlur
         in="SourceGraphic"
         stdDeviation="4.294"
         id="feGaussianBlur17" />
      <feOffset
         dy="4"
         result="pf_100_offsetBlur"
         id="feOffset19" />
      <feFlood
         flood-opacity=".4"
         id="feFlood21" />
      <feComposite
         in2="pf_100_offsetBlur"
         operator="in"
         result="pf_100_dropShadow"
         id="feComposite23" />
      <feBlend
         in="SourceGraphic"
         in2="pf_100_dropShadow"
         id="feBlend25" />
    </filter>
  </defs>
  <g
     id="g1069">
    <path
       fill="#f7f7f7"
       d="M165.689 11.95c74.056 0 84.639 10.557 84.639 84.544v59.251c0 73.986-10.583 84.543-84.639 84.543h-75.37c-74.055 0-84.639-10.557-84.639-84.543V96.494c0-73.987 10.584-84.544 84.639-84.544h75.37z"
       filter="url(#a)"
       id="path15"
       style="fill:#999999" />
    <g
       opacity=".4"
       id="g43">
      <linearGradient
         id="c"
         x1=".517"
         x2=".517"
         y2="1"
         gradientTransform="matrix(244.65 0 0 228.34 5.68 11.95)"
         gradientUnits="userSpaceOnUse">
        <stop
           offset="0%"
           stop-color="#ffffff"
           id="stop32" />
        <stop
           offset="12.5%"
           stop-color="#ffffff"
           stop-opacity=".098"
           id="stop34" />
        <stop
           offset="92.5%"
           stop-opacity=".098"
           id="stop36" />
        <stop
           offset="100%"
           stop-opacity=".498"
           id="stop38" />
      </linearGradient>
      <path
         fill="url(#c)"
         fill-rule="evenodd"
         d="M165.068 11.951c4.328-.01 8.656.04 12.984.138 3.875.078 7.75.226 11.626.452 3.453.196 6.905.481 10.348.854 3.06.335 6.118.786 9.148 1.346a80.47 80.47 0 0 1 8.046 1.916 53.64 53.64 0 0 1 7.023 2.584 40.413 40.413 0 0 1 6.06 3.35 35.176 35.176 0 0 1 5.134 4.215 35.072 35.072 0 0 1 4.22 5.119 41.692 41.692 0 0 1 3.363 6.042 55.982 55.982 0 0 1 2.597 7.005 80.224 80.224 0 0 1 1.918 8.037 124.43 124.43 0 0 1 1.348 9.127c.374 3.439.659 6.878.856 10.326.226 3.861.373 7.732.462 11.593.088 4.323.138 8.646.128 12.96v58.21c.01 4.324-.04 8.637-.128 12.96a325.177 325.177 0 0 1-.462 11.593 200.984 200.984 0 0 1-.856 10.326 124.691 124.691 0 0 1-1.348 9.137 80.687 80.687 0 0 1-1.918 8.027 55.414 55.414 0 0 1-2.597 7.005 41.18 41.18 0 0 1-3.364 6.042 34.559 34.559 0 0 1-4.22 5.119 35.177 35.177 0 0 1-5.134 4.215 40.412 40.412 0 0 1-6.059 3.35 55.138 55.138 0 0 1-7.023 2.594 77.806 77.806 0 0 1-8.046 1.906 120 120 0 0 1-9.148 1.346c-3.443.373-6.895.658-10.348.854-3.875.226-7.75.374-11.626.462-4.328.088-8.656.138-12.984.128H90.942c-4.328.01-8.656-.04-12.984-.128a328.387 328.387 0 0 1-11.626-.462 203.003 203.003 0 0 1-10.348-.854 120 120 0 0 1-9.148-1.346 77.806 77.806 0 0 1-8.046-1.906 55.139 55.139 0 0 1-7.023-2.594 40.413 40.413 0 0 1-6.06-3.35 35.176 35.176 0 0 1-5.134-4.215 34.56 34.56 0 0 1-4.22-5.119 41.183 41.183 0 0 1-3.363-6.042 55.415 55.415 0 0 1-2.597-7.005 80.682 80.682 0 0 1-1.918-8.027 124.688 124.688 0 0 1-1.348-9.137 200.993 200.993 0 0 1-.856-10.326 325.212 325.212 0 0 1-.462-11.593 569.197 569.197 0 0 1-.128-12.96v-58.21c-.01-4.314.04-8.637.128-12.96.089-3.86.236-7.732.462-11.593.197-3.448.482-6.887.856-10.326.335-3.055.787-6.101 1.348-9.127a80.219 80.219 0 0 1 1.918-8.037 55.983 55.983 0 0 1 2.597-7.005 41.695 41.695 0 0 1 3.364-6.042 35.072 35.072 0 0 1 4.22-5.119 35.176 35.176 0 0 1 5.134-4.215 40.413 40.413 0 0 1 6.059-3.35 53.64 53.64 0 0 1 7.023-2.584 80.47 80.47 0 0 1 8.046-1.916 125.11 125.11 0 0 1 9.148-1.346c3.443-.373 6.895-.658 10.348-.854 3.875-.226 7.75-.374 11.626-.452 4.328-.098 8.656-.148 12.984-.138h74.126zm.01 4.009c4.298-.01 8.597.039 12.895.127 3.827.089 7.653.236 11.48.452 3.383.197 6.766.472 10.13.845 2.971.315 5.932.747 8.863 1.297a75.943 75.943 0 0 1 7.653 1.818 50.493 50.493 0 0 1 6.501 2.397 37.038 37.038 0 0 1 5.47 3.026 30.383 30.383 0 0 1 4.524 3.724 31.05 31.05 0 0 1 3.738 4.519 37.271 37.271 0 0 1 3.03 5.443 51.46 51.46 0 0 1 2.4 6.494 75.563 75.563 0 0 1 1.829 7.634c.54 2.928.974 5.875 1.298 8.842.374 3.36.65 6.73.846 10.11.217 3.822.374 7.634.453 11.456.088 4.293.137 8.577.137 12.87v58.212c0 4.293-.049 8.577-.137 12.87a317.503 317.503 0 0 1-.453 11.456c-.196 3.38-.472 6.75-.846 10.12a121.689 121.689 0 0 1-1.298 8.832 75.562 75.562 0 0 1-1.83 7.634 50.902 50.902 0 0 1-2.4 6.494 36.767 36.767 0 0 1-3.03 5.443 30.615 30.615 0 0 1-3.737 4.53 30.938 30.938 0 0 1-4.525 3.713 37.038 37.038 0 0 1-5.469 3.026 49.07 49.07 0 0 1-6.501 2.397 75.942 75.942 0 0 1-7.653 1.818c-2.931.55-5.892.982-8.863 1.306-3.364.364-6.747.649-10.13.836-3.827.216-7.653.373-11.48.452-4.298.098-8.597.137-12.895.137H90.932c-4.298 0-8.597-.04-12.895-.137a320.093 320.093 0 0 1-11.48-.452 193.696 193.696 0 0 1-10.13-.836 116.71 116.71 0 0 1-8.863-1.306 75.942 75.942 0 0 1-7.653-1.818 49.07 49.07 0 0 1-6.501-2.397 37.038 37.038 0 0 1-5.47-3.026 30.938 30.938 0 0 1-4.524-3.714 30.615 30.615 0 0 1-3.738-4.529 36.766 36.766 0 0 1-3.03-5.443 50.903 50.903 0 0 1-2.4-6.494 75.567 75.567 0 0 1-1.829-7.634 121.69 121.69 0 0 1-1.298-8.832c-.374-3.37-.65-6.74-.846-10.12a317.535 317.535 0 0 1-.453-11.456 623.851 623.851 0 0 1-.137-12.87V97.014c0-4.293.049-8.577.137-12.87.079-3.822.236-7.634.453-11.456.197-3.38.472-6.75.846-10.11.324-2.967.757-5.914 1.298-8.842a75.568 75.568 0 0 1 1.83-7.634 51.46 51.46 0 0 1 2.4-6.494 37.27 37.27 0 0 1 3.03-5.443 31.05 31.05 0 0 1 3.737-4.52 30.384 30.384 0 0 1 4.525-3.723 37.039 37.039 0 0 1 5.469-3.026 50.494 50.494 0 0 1 6.501-2.397 75.943 75.943 0 0 1 7.653-1.818c2.931-.55 5.892-.982 8.863-1.297 3.364-.373 6.747-.648 10.13-.845a344.71 344.71 0 0 1 11.48-.452c4.298-.088 8.597-.137 12.895-.127H165.078z"
         id="path41" />
    </g>
    <g
       id="g1031"
       transform="matrix(1.5609756,0,0,1.5609756,28.097562,32.000001)">
      <path
         style="fill:#1ca8a8"
         d="M 120,94.355469 V 101 c 0,4.43359 -3.56641,8 -8,8 H 90 c -9.683594,0 -18.023438,5.73828 -21.816406,14 H 59.816406 C 56.023438,114.73828 47.683594,109 38,109 H 16 c -4.433594,0 -8,-3.56641 -8,-8 v -6.644531 z"
         id="path919" />
      <path
         style="fill:url(#linear0)"
         d="M 66.328125,54.019531 C 66.167969,55.007812 66.054688,56 66,57 h -2 v 63 h 4.183594 C 71.976562,111.73828 80.316406,106 90,106 h 22 c 4.43359,0 8,-3.56641 8,-8 V 62.355469 c 0,-4.433594 -3.56641,-8 -8,-8 z"
         id="path921" />
      <path
         style="fill:url(#linear1)"
         d="M 61.675781,54.019531 C 61.832031,55.007812 61.945312,56 62,57 h 2 v 63 H 59.816406 C 56.023438,111.73828 47.683594,106 38,106 H 16 c -4.433594,0 -8,-3.56641 -8,-8 V 62.355469 c 0,-4.433594 3.566406,-8 8,-8 z"
         id="path923" />
      <g
         mask="url(#mask0)"
         id="g929">
        <path
           d="M 120,91.65625 C 119.91797,95.74609 116.62109,99 112.50781,99 h -0.5 v 1 h 0.5 c 3.2461,0 6.0586,-1.8125 7.49219,-4.48047 z M 88,99 l 24,1 v -1 z"
           id="path925" />
        <path
           d="M 120,94.65625 C 119.91797,98.74609 116.62109,102 112.50781,102 h -0.5 v 1 h 0.5 c 3.22266,0 6.02344,-1.78906 7.46485,-4.42578 C 119.98438,98.38281 120,98.19141 120,98 Z M 94,102 l 18,1 v -1 z"
           id="path927" />
      </g>
      <path
         style="fill:url(#linear2)"
         d="m 112,21 c 4.43359,0 8,3.566406 8,8 v 59 c 0,4.433594 -3.56641,8 -8,8 H 88 C 74.746094,96 64,106.74609 64,120 V 47 C 64,33.746094 74.746094,21 88,21 Z"
         id="path931" />
      <path
         style="fill:url(#linear3)"
         d="m 16,21 c -4.433594,0 -8,3.566406 -8,8 v 59 c 0,4.433594 3.566406,8 8,8 h 24 c 13.253906,0 24,10.74609 24,24 V 47 C 64,33.746094 53.253906,21 40,21 Z"
         id="path933" />
      <path
         style="fill:#00cccc"
         d="m 102,32 v 6 H 90 c -4.375,0.183594 -8.464844,1.296875 -12,3.28125 V 35.730469 C 81.53125,33.394531 85.625,32 90,32 Z"
         id="path935" />
      <path
         style="fill:#dedcd9"
         d="m 108,44 v 4 H 90 c -4.375,0.183594 -8.464844,1.296875 -12,3.28125 V 47.730469 C 81.53125,45.394531 85.625,44 90,44 Z"
         id="path937" />
      <path
         style="fill:#dedcd9"
         d="m 108,52 v 4 H 90 c -4.375,0.183594 -8.464844,1.296875 -12,3.28125 V 55.730469 C 81.53125,53.394531 85.625,52 90,52 Z"
         id="path939" />
      <path
         style="fill:#dedcd9"
         d="m 108,60 v 4 H 90 c -4.375,0.183594 -8.464844,1.296875 -12,3.28125 V 63.730469 C 81.53125,61.394531 85.625,60 90,60 Z"
         id="path941" />
      <path
         style="fill:#dedcd9"
         d="M 36,76 H 20 v 4 h 16 z"
         id="path943" />
      <path
         style="fill:#dedcd9"
         d="m 20,44 v 4 h 20 c 3.574219,0.148438 6.953125,0.929688 10,2.292969 V 46.558594 C 46.953125,44.941406 43.574219,44 40,44 Z"
         id="path945" />
      <path
         style="fill:#dedcd9"
         d="m 20,52 v 4 h 20 c 3.574219,0.148438 6.953125,0.929688 10,2.292969 V 54.558594 C 46.953125,52.941406 43.574219,52 40,52 Z"
         id="path947" />
      <path
         style="fill:#dedcd9"
         d="m 20,60 v 4 h 20 c 3.574219,0.148438 6.953125,0.929688 10,2.292969 V 62.558594 C 46.953125,60.941406 43.574219,60 40,60 Z"
         id="path949" />
      <path
         style="fill:#dedcd9"
         d="m 20,36 v 4 h 20 c 3.574219,0.148438 6.953125,0.929688 10,2.292969 V 38.558594 C 46.953125,36.941406 43.574219,36 40,36 Z"
         id="path951" />
      <path
         style="fill:#dedcd9"
         d="m 20,68 v 4 h 20 c 3.574219,0.148438 6.953125,0.929688 10,2.292969 V 70.558594 C 46.953125,68.941406 43.574219,68 40,68 Z"
         id="path953" />
      <path
         style="fill:#dedcd9"
         d="m 100,68 v 4 H 90 c -4.375,0.183594 -8.464844,1.296875 -12,3.28125 V 71.730469 C 81.53125,69.394531 85.625,68 90,68 Z"
         id="path955" />
      <path
         style="fill:url(#linear4)"
         d="m 34.433594,0 c 0,0 -8.230469,20.4375 -8.207032,31.1875 0.01563,8 1.101563,17.027344 6.210938,23.183594 3.925781,4.726562 16.628906,7.964844 16.628906,7.964844 l 3.863282,-1.035157 c 0,0 9.378906,-9.15625 10.417968,-15.210937 C 64.695312,38.203125 61.121094,29.84375 57.136719,22.90625 51.78125,13.582031 34.433594,0 34.433594,0 Z"
         id="path957" />
      <path
         style="fill:#1ca8a8"
         d="M 53.214844,77.820312 C 42.441406,37.617188 42.726562,33.128906 37.457031,11.003906 c 6.53125,21.703125 8.847657,25.578125 19.621094,65.78125 z"
         id="path959" />
      <path
         style="fill:#1ca8a8"
         d="M 42.089844,30.066406 C 45.707031,23.804688 47.003906,22.550781 48.285156,20.46875 47.125,22.621094 46.648438,24.347656 43.03125,30.609375 Z"
         id="path961" />
      <path
         style="fill:#1ca8a8"
         d="m 44.597656,39.785156 c 5.019532,-8.695312 6.820313,-10.4375 8.597656,-13.332031 -1.605468,2.992187 -2.269531,5.390625 -7.292968,14.085937 z"
         id="path963" />
      <path
         style="fill:#1ca8a8"
         d="m 47.359375,50.210938 c 5.3125,-9.199219 7.214844,-11.042969 9.097656,-14.101563 -1.703125,3.164063 -2.40625,5.699219 -7.714843,14.898437 z"
         id="path965" />
      <path
         style="fill:#1ca8a8"
         d="M 42.835938,29.867188 C 36.570312,26.253906 34.824219,25.816406 32.671875,24.652344 34.75,25.9375 36.027344,27.195312 42.289062,30.808594 Z"
         id="path967" />
      <path
         style="fill:#1ca8a8"
         d="m 45.523438,39.539062 c -8.695313,-5.023437 -11.125,-5.632812 -14.113282,-7.246093 2.890625,1.785156 4.660156,3.53125 13.359375,8.550781 z"
         id="path969" />
      <path
         style="fill:#1ca8a8"
         d="m 48.34375,49.945312 c -9.199219,-5.3125 -11.769531,-5.957031 -14.929688,-7.664062 3.054688,1.890625 4.933594,3.734375 14.132813,9.046875 z"
         id="path971" />
    </g>
  </g>
</svg>
