<?xml version="1.0" encoding="UTF-8" standalone="no"?>
<svg
   style="isolation:isolate"
   width="256"
   height="256"
   version="1.1"
   id="svg15"
   sodipodi:docname="com.jeffser.Alpaca.svg"
   xml:space="preserve"
   inkscape:version="1.4 (e7c3feb100, 2024-10-09)"
   xmlns:inkscape="http://www.inkscape.org/namespaces/inkscape"
   xmlns:sodipodi="http://sodipodi.sourceforge.net/DTD/sodipodi-0.dtd"
   xmlns="http://www.w3.org/2000/svg"
   xmlns:svg="http://www.w3.org/2000/svg"><sodipodi:namedview
     id="namedview15"
     pagecolor="#ffffff"
     bordercolor="#000000"
     borderopacity="0.25"
     inkscape:showpageshadow="2"
     inkscape:pageopacity="0.0"
     inkscape:pagecheckerboard="0"
     inkscape:deskcolor="#d1d1d1"
     inkscape:zoom="3.15"
     inkscape:cx="78.412698"
     inkscape:cy="123.01587"
     inkscape:window-width="2554"
     inkscape:window-height="1453"
     inkscape:window-x="0"
     inkscape:window-y="37"
     inkscape:window-maximized="1"
     inkscape:current-layer="svg15" /><defs
     id="defs1"><filter
       id="a"
       width="1.0842484"
       height="1.1077841"
       x="-0.042124196"
       y="-0.045133094"
       color-interpolation-filters="sRGB"
       filterUnits="objectBoundingBox"><feGaussianBlur
         in="SourceGraphic"
         stdDeviation="4.294"
         id="feGaussianBlur1" /><feOffset
         dy="4"
         result="pf_100_offsetBlur"
         id="feOffset1" /><feFlood
         flood-opacity=".4"
         id="feFlood1" /><feComposite
         in2="pf_100_offsetBlur"
         operator="in"
         result="pf_100_dropShadow"
         id="feComposite1" /><feBlend
         in="SourceGraphic"
         in2="pf_100_dropShadow"
         id="feBlend1" /></filter><linearGradient
       id="paint0_linear_554_2"
       x1="96"
       y1="176"
       x2="96"
       y2="96"
       gradientUnits="userSpaceOnUse"><stop
         stop-color="#B6D1F2"
         id="stop25" /><stop
         offset="1"
         stop-color="#E9EEF4"
         id="stop26" /></linearGradient></defs><path
     d="M165.689 11.95c74.056 0 84.639 10.557 84.639 84.544v59.251c0 73.986-10.583 84.543-84.639 84.543h-75.37c-74.055 0-84.639-10.557-84.639-84.543V96.494c0-73.987 10.584-84.544 84.639-84.544h75.37z"
     filter="url(#a)"
     id="path1" /><linearGradient
     id="b"
     x1=".25"
     x2=".75"
     y1=".036"
     y2=".844"
     gradientTransform="matrix(244.65 0 0 228.34 5.68 11.95)"
     gradientUnits="userSpaceOnUse"><stop
       offset="0"
       stop-color="#f61111"
       id="stop1"
       style="stop-color:#3a1c31;stop-opacity:1;" /><stop
       offset="0.48271999"
       stop-color="#ff4f4f"
       id="stop2"
       style="stop-color:#391c31;stop-opacity:1;" /><stop
       offset="1"
       stop-color="#ff7a55"
       id="stop3"
       style="stop-color:#341b2d;stop-opacity:1;" /></linearGradient><path
     fill="url(#b)"
     d="M165.69 11.95c74.056 0 84.64 10.557 84.64 84.544v59.252c0 73.986-10.584 84.544-84.64 84.544H90.32c-74.056 0-84.64-10.558-84.64-84.544V96.494c0-73.987 10.584-84.544 84.64-84.544h75.37z"
     id="path3" /><defs
     id="defs6"><filter
       id="c"
       width="1.2125737"
       height="1.1691036"
       x="-0.10628685"
       y="-0.084551806"
       color-interpolation-filters="sRGB"
       filterUnits="objectBoundingBox"><feGaussianBlur
         stdDeviation="5.746"
         id="feGaussianBlur6" /></filter></defs><defs
     id="defs7"><filter
       id="e"
       width="1.0265625"
       height="1.0211306"
       x="-0.013281232"
       y="-0.010565297"
       color-interpolation-filters="sRGB"
       filterUnits="objectBoundingBox"><feGaussianBlur
         stdDeviation=".718"
         id="feGaussianBlur7" /></filter></defs><path
     fill="none"
     d="M130.439 207.67h54.651L92.085 106.646l-10.341 47.991 48.695 53.033z"
     id="path9" /><defs
     id="defs9"><filter
       id="f"
       width="1.217679"
       height="1.2563671"
       x="-0.10883951"
       y="-0.12818357"
       color-interpolation-filters="sRGB"
       filterUnits="objectBoundingBox"><feGaussianBlur
         stdDeviation="5.884"
         id="feGaussianBlur9" /></filter></defs><g
     opacity=".4"
     id="g15"><linearGradient
       id="g"
       x1=".517"
       x2=".517"
       y2="1"
       gradientTransform="matrix(244.65 0 0 228.34 5.68 11.95)"
       gradientUnits="userSpaceOnUse"><stop
         offset="0%"
         stop-color="#ffffff"
         id="stop12" /><stop
         offset="12.5%"
         stop-color="#ffffff"
         stop-opacity=".098"
         id="stop13" /><stop
         offset="92.5%"
         stop-opacity=".098"
         id="stop14" /><stop
         offset="100%"
         stop-opacity=".498"
         id="stop15" /></linearGradient><path
       fill="url(#g)"
       fill-rule="evenodd"
       d="M165.068 11.951c4.328-.01 8.656.04 12.984.138 3.875.078 7.75.226 11.626.452 3.453.196 6.905.481 10.348.854 3.06.335 6.118.786 9.148 1.346a80.47 80.47 0 0 1 8.046 1.916 53.64 53.64 0 0 1 7.023 2.584 40.413 40.413 0 0 1 6.06 3.35 35.176 35.176 0 0 1 5.134 4.215 35.072 35.072 0 0 1 4.22 5.119 41.692 41.692 0 0 1 3.363 6.042 55.982 55.982 0 0 1 2.597 7.005 80.224 80.224 0 0 1 1.918 8.037 124.43 124.43 0 0 1 1.348 9.127c.374 3.439.659 6.878.856 10.326.226 3.861.373 7.732.462 11.593.088 4.323.138 8.646.128 12.96v58.21c.01 4.324-.04 8.637-.128 12.96a325.177 325.177 0 0 1-.462 11.593 200.984 200.984 0 0 1-.856 10.326 124.691 124.691 0 0 1-1.348 9.137 80.687 80.687 0 0 1-1.918 8.027 55.414 55.414 0 0 1-2.597 7.005 41.18 41.18 0 0 1-3.364 6.042 34.559 34.559 0 0 1-4.22 5.119 35.177 35.177 0 0 1-5.134 4.215 40.412 40.412 0 0 1-6.059 3.35 55.138 55.138 0 0 1-7.023 2.594 77.806 77.806 0 0 1-8.046 1.906 120 120 0 0 1-9.148 1.346c-3.443.373-6.895.658-10.348.854-3.875.226-7.75.374-11.626.462-4.328.088-8.656.138-12.984.128H90.942c-4.328.01-8.656-.04-12.984-.128a328.387 328.387 0 0 1-11.626-.462 203.003 203.003 0 0 1-10.348-.854 120 120 0 0 1-9.148-1.346 77.806 77.806 0 0 1-8.046-1.906 55.139 55.139 0 0 1-7.023-2.594 40.413 40.413 0 0 1-6.06-3.35 35.176 35.176 0 0 1-5.134-4.215 34.56 34.56 0 0 1-4.22-5.119 41.183 41.183 0 0 1-3.363-6.042 55.415 55.415 0 0 1-2.597-7.005 80.682 80.682 0 0 1-1.918-8.027 124.688 124.688 0 0 1-1.348-9.137 200.993 200.993 0 0 1-.856-10.326 325.212 325.212 0 0 1-.462-11.593 569.197 569.197 0 0 1-.128-12.96v-58.21c-.01-4.314.04-8.637.128-12.96.089-3.86.236-7.732.462-11.593.197-3.448.482-6.887.856-10.326.335-3.055.787-6.101 1.348-9.127a80.219 80.219 0 0 1 1.918-8.037 55.983 55.983 0 0 1 2.597-7.005 41.695 41.695 0 0 1 3.364-6.042 35.072 35.072 0 0 1 4.22-5.119 35.176 35.176 0 0 1 5.134-4.215 40.413 40.413 0 0 1 6.059-3.35 53.64 53.64 0 0 1 7.023-2.584 80.47 80.47 0 0 1 8.046-1.916 125.11 125.11 0 0 1 9.148-1.346c3.443-.373 6.895-.658 10.348-.854 3.875-.226 7.75-.374 11.626-.452 4.328-.098 8.656-.148 12.984-.138h74.126zm.01 4.009c4.298-.01 8.597.039 12.895.127 3.827.089 7.653.236 11.48.452 3.383.197 6.766.472 10.13.845 2.971.315 5.932.747 8.863 1.297a75.943 75.943 0 0 1 7.653 1.818 50.493 50.493 0 0 1 6.501 2.397 37.038 37.038 0 0 1 5.47 3.026 30.383 30.383 0 0 1 4.524 3.724 31.05 31.05 0 0 1 3.738 4.519 37.271 37.271 0 0 1 3.03 5.443 51.46 51.46 0 0 1 2.4 6.494 75.563 75.563 0 0 1 1.829 7.634c.54 2.928.974 5.875 1.298 8.842.374 3.36.65 6.73.846 10.11.217 3.822.374 7.634.453 11.456.088 4.293.137 8.577.137 12.87v58.212c0 4.293-.049 8.577-.137 12.87a317.503 317.503 0 0 1-.453 11.456c-.196 3.38-.472 6.75-.846 10.12a121.689 121.689 0 0 1-1.298 8.832 75.562 75.562 0 0 1-1.83 7.634 50.902 50.902 0 0 1-2.4 6.494 36.767 36.767 0 0 1-3.03 5.443 30.615 30.615 0 0 1-3.737 4.53 30.938 30.938 0 0 1-4.525 3.713 37.038 37.038 0 0 1-5.469 3.026 49.07 49.07 0 0 1-6.501 2.397 75.942 75.942 0 0 1-7.653 1.818c-2.931.55-5.892.982-8.863 1.306-3.364.364-6.747.649-10.13.836-3.827.216-7.653.373-11.48.452-4.298.098-8.597.137-12.895.137H90.932c-4.298 0-8.597-.04-12.895-.137a320.093 320.093 0 0 1-11.48-.452 193.696 193.696 0 0 1-10.13-.836 116.71 116.71 0 0 1-8.863-1.306 75.942 75.942 0 0 1-7.653-1.818 49.07 49.07 0 0 1-6.501-2.397 37.038 37.038 0 0 1-5.47-3.026 30.938 30.938 0 0 1-4.524-3.714 30.615 30.615 0 0 1-3.738-4.529 36.766 36.766 0 0 1-3.03-5.443 50.903 50.903 0 0 1-2.4-6.494 75.567 75.567 0 0 1-1.829-7.634 121.69 121.69 0 0 1-1.298-8.832c-.374-3.37-.65-6.74-.846-10.12a317.535 317.535 0 0 1-.453-11.456 623.851 623.851 0 0 1-.137-12.87V97.014c0-4.293.049-8.577.137-12.87.079-3.822.236-7.634.453-11.456.197-3.38.472-6.75.846-10.11.324-2.967.757-5.914 1.298-8.842a75.568 75.568 0 0 1 1.83-7.634 51.46 51.46 0 0 1 2.4-6.494 37.27 37.27 0 0 1 3.03-5.443 31.05 31.05 0 0 1 3.737-4.52 30.384 30.384 0 0 1 4.525-3.723 37.039 37.039 0 0 1 5.469-3.026 50.494 50.494 0 0 1 6.501-2.397 75.943 75.943 0 0 1 7.653-1.818c2.931-.55 5.892-.982 8.863-1.297 3.364-.373 6.747-.648 10.13-.845a344.71 344.71 0 0 1 11.48-.452c4.298-.088 8.597-.137 12.895-.127H165.078z"
       id="path15" /></g><g
     style="fill:none"
     id="g1"
     transform="matrix(0.68548387,0,0,0.68548387,40.258065,41)"><path
       d="m 4,132 h 48 v 24 H 4 Z"
       fill="#99c1f1"
       id="path1-2" /><path
       d="m 24.6484,112 h 6.7032 C 42.7578,112 52,121.242 52,132.648 v 2.704 C 52,146.758 42.7578,156 31.3516,156 H 24.6484 C 13.2422,156 4,146.758 4,135.352 v -2.704 C 4,121.242 13.2422,112 24.6484,112 Z"
       fill="#99c1f1"
       id="path2" /><path
       d="m 164,202 h 16 v 46 h -16 z"
       fill="#5e5c64"
       id="path3-3" /><path
       d="m 200,202 h 16 v 46 h -16 z"
       fill="#5e5c64"
       id="path4" /><path
       d="m 40,202 h 16 v 46 H 40 Z"
       fill="#5e5c64"
       id="path5" /><path
       d="m 76,202 h 16 v 46 H 76 Z"
       fill="#5e5c64"
       id="path6" /><path
       d="m 80.6484,160 h 6.7032 C 98.7578,160 108,169.242 108,180.648 v 34.704 C 108,226.758 98.7578,236 87.3516,236 H 80.6484 C 69.2422,236 60,226.758 60,215.352 V 180.648 C 60,169.242 69.2422,160 80.6484,160 Z"
       fill="#6b9bd2"
       id="path7" /><path
       d="m 204.648,160 h 6.704 c 11.406,0 20.648,9.242 20.648,20.648 v 34.704 C 232,226.758 222.758,236 211.352,236 h -6.704 C 193.242,236 184,226.758 184,215.352 V 180.648 C 184,169.242 193.242,160 204.648,160 Z"
       fill="#6b9bd2"
       id="path8" /><path
       d="m 80.6484,152 h 6.7032 C 98.7578,152 108,161.242 108,172.648 v 34.704 C 108,218.758 98.7578,228 87.3516,228 H 80.6484 C 69.2422,228 60,218.758 60,207.352 V 172.648 C 60,161.242 69.2422,152 80.6484,152 Z"
       fill="#82adde"
       id="path9-7" /><path
       d="m 204.648,152 h 6.704 c 11.406,0 20.648,9.242 20.648,20.648 v 34.704 C 232,218.758 222.758,228 211.352,228 h -6.704 C 193.242,228 184,218.758 184,207.352 V 172.648 C 184,161.242 193.242,152 204.648,152 Z"
       fill="#82adde"
       id="path10" /><path
       d="m 44.6484,160 h 6.7032 C 62.7578,160 72,169.242 72,180.648 v 34.704 C 72,226.758 62.7578,236 51.3516,236 H 44.6484 C 33.2422,236 24,226.758 24,215.352 V 180.648 C 24,169.242 33.2422,160 44.6484,160 Z"
       fill="#99c1f1"
       id="path11" /><path
       d="m 168.648,160 h 6.704 c 11.406,0 20.648,9.242 20.648,20.648 v 34.704 C 196,226.758 186.758,236 175.352,236 h -6.704 C 157.242,236 148,226.758 148,215.352 V 180.648 C 148,169.242 157.242,160 168.648,160 Z"
       fill="#99c1f1"
       id="path12" /><path
       d="m 56,116 h 144 c 17.672,0 32,14.328 32,32 v 36 c 0,17.672 -14.328,32 -32,32 H 56 C 38.3281,216 24,201.672 24,184 v -36 c 0,-17.672 14.3281,-32 32,-32 z"
       fill="#99c1f1"
       id="path13" /><path
       d="m 44.6484,152 h 6.7032 C 62.7578,152 72,161.242 72,172.648 v 34.704 C 72,218.758 62.7578,228 51.3516,228 H 44.6484 C 33.2422,228 24,218.758 24,207.352 V 172.648 C 24,161.242 33.2422,152 44.6484,152 Z"
       fill="#b6d1f2"
       id="path14" /><path
       d="m 168.648,152 h 6.704 c 11.406,0 20.648,9.242 20.648,20.648 v 34.704 C 196,218.758 186.758,228 175.352,228 h -6.704 C 157.242,228 148,218.758 148,207.352 V 172.648 C 148,161.242 157.242,152 168.648,152 Z"
       fill="#b6d1f2"
       id="path15-5" /><path
       d="m 222,32 c -5.719,0 -11,-3.0469 -13.859,-8 -2.852,-4.9531 -2.852,-11.0469 0,-16 C 211,3.04688 216.281,0 222,0"
       fill="#bbd6f6"
       id="path16" /><path
       d="m 206,16 h 16 v 32 h -16 z"
       fill="#99c1f1"
       id="path17" /><path
       d="m 192,16 h 36 c 4.422,0 8,3.5781 8,8 v 12 c 0,4.4219 -3.578,8 -8,8 h -36 c -4.414,0 -8,-3.5781 -8,-8 V 24 c 0,-4.4219 3.586,-8 8,-8 z"
       fill="#e9eef4"
       id="path18" /><path
       d="m 200,32 c -5.719,0 -11,-3.0469 -13.859,-8 -2.852,-4.9531 -2.852,-11.0469 0,-16 C 189,3.04688 194.281,0 200,0"
       fill="#e9eef4"
       id="path19" /><path
       d="M 184,32 V 75.3516 C 184,86.7891 174.789,96 163.352,96 H 56 c -17.7266,0 -32,14.273 -32,32 v 48 c 0,17.727 14.2734,32 32,32 h 144 c 17.727,0 32,-14.273 32,-32 V 32 Z"
       fill="url(#paint0_linear_554_2)"
       id="path20"
       style="fill:url(#paint0_linear_554_2)" /><path
       d="m 184,16 h 26 v 32 h -26 z"
       fill="#e9eef4"
       id="path21" /><path
       d="m 208,28 h 44 v 12 c -22.672,1.375 -22.156,16.9531 -34,16 h -10 z"
       fill="#5e5c64"
       id="path22" /><path
       d="m 236,28 c 0,2.7578 -2.234,5 -5,5 -2.758,0 -5,-2.2422 -5,-5 0,-2.7578 2.242,-5 5,-5 2.766,0 5,2.2422 5,5 z"
       fill="#e9eef4"
       id="path23" /><path
       d="m 226,28 c 0,2.7578 -2.242,5 -5,5 -2.766,0 -5,-2.2422 -5,-5 0,-2.7578 2.234,-5 5,-5 2.758,0 5,2.2422 5,5 z"
       fill="#e9eef4"
       id="path24" /><path
       d="m 216,28 c 0,2.7578 -2.234,5 -5,5 -2.758,0 -5,-2.2422 -5,-5 0,-2.7578 2.242,-5 5,-5 2.766,0 5,2.2422 5,5 z"
       fill="#e9eef4"
       id="path25" /></g></svg>
