<?xml version="1.0" encoding="UTF-8" standalone="no"?>
<svg
   style="isolation:isolate"
   width="256"
   height="256"
   version="1.1"
   id="svg5"
   xml:space="preserve"
   xmlns="http://www.w3.org/2000/svg"
   xmlns:svg="http://www.w3.org/2000/svg"><defs
     id="defs1"><filter
       id="a"
       width="1.0842484"
       height="1.1077841"
       x="-0.042124196"
       y="-0.045133094"
       color-interpolation-filters="sRGB"
       filterUnits="objectBoundingBox"><feGaussianBlur
         in="SourceGraphic"
         stdDeviation="4.294"
         id="feGaussianBlur1" /><feOffset
         dy="4"
         result="pf_100_offsetBlur"
         id="feOffset1" /><feFlood
         flood-opacity=".4"
         id="feFlood1" /><feComposite
         in2="pf_100_offsetBlur"
         operator="in"
         result="pf_100_dropShadow"
         id="feComposite1" /><feBlend
         in="SourceGraphic"
         in2="pf_100_dropShadow"
         id="feBlend1" /></filter></defs><path
     fill="#f7f7f7"
     d="M165.689 11.95c74.056 0 84.639 10.557 84.639 84.544v59.251c0 73.986-10.583 84.543-84.639 84.543h-75.37c-74.055 0-84.639-10.557-84.639-84.543V96.494c0-73.987 10.584-84.544 84.639-84.544h75.37z"
     filter="url(#a)"
     id="path1" /><defs
     id="defs2"><filter
       id="b"
       width="1.1421462"
       height="1.2085695"
       x="-0.071073106"
       y="-0.087335595"
       color-interpolation-filters="sRGB"
       filterUnits="objectBoundingBox"><feGaussianBlur
         in="SourceGraphic"
         stdDeviation="4.294"
         id="feGaussianBlur2" /><feOffset
         dy="4"
         result="pf_100_offsetBlur"
         id="feOffset2" /><feFlood
         flood-opacity=".4"
         id="feFlood2" /><feComposite
         in2="pf_100_offsetBlur"
         operator="in"
         result="pf_100_dropShadow"
         id="feComposite2" /><feBlend
         in="SourceGraphic"
         in2="pf_100_dropShadow"
         id="feBlend2" /></filter></defs><g
     opacity=".4"
     id="g5"><linearGradient
       id="c"
       x1=".517"
       x2=".517"
       y2="1"
       gradientTransform="matrix(244.65 0 0 228.34 5.68 11.95)"
       gradientUnits="userSpaceOnUse"><stop
         offset="0%"
         stop-color="#ffffff"
         id="stop2" /><stop
         offset="12.5%"
         stop-color="#ffffff"
         stop-opacity=".098"
         id="stop3" /><stop
         offset="92.5%"
         stop-opacity=".098"
         id="stop4" /><stop
         offset="100%"
         stop-opacity=".498"
         id="stop5" /></linearGradient><path
       fill="url(#c)"
       fill-rule="evenodd"
       d="M165.068 11.951c4.328-.01 8.656.04 12.984.138 3.875.078 7.75.226 11.626.452 3.453.196 6.905.481 10.348.854 3.06.335 6.118.786 9.148 1.346a80.47 80.47 0 0 1 8.046 1.916 53.64 53.64 0 0 1 7.023 2.584 40.413 40.413 0 0 1 6.06 3.35 35.176 35.176 0 0 1 5.134 4.215 35.072 35.072 0 0 1 4.22 5.119 41.692 41.692 0 0 1 3.363 6.042 55.982 55.982 0 0 1 2.597 7.005 80.224 80.224 0 0 1 1.918 8.037 124.43 124.43 0 0 1 1.348 9.127c.374 3.439.659 6.878.856 10.326.226 3.861.373 7.732.462 11.593.088 4.323.138 8.646.128 12.96v58.21c.01 4.324-.04 8.637-.128 12.96a325.177 325.177 0 0 1-.462 11.593 200.984 200.984 0 0 1-.856 10.326 124.691 124.691 0 0 1-1.348 9.137 80.687 80.687 0 0 1-1.918 8.027 55.414 55.414 0 0 1-2.597 7.005 41.18 41.18 0 0 1-3.364 6.042 34.559 34.559 0 0 1-4.22 5.119 35.177 35.177 0 0 1-5.134 4.215 40.412 40.412 0 0 1-6.059 3.35 55.138 55.138 0 0 1-7.023 2.594 77.806 77.806 0 0 1-8.046 1.906 120 120 0 0 1-9.148 1.346c-3.443.373-6.895.658-10.348.854-3.875.226-7.75.374-11.626.462-4.328.088-8.656.138-12.984.128H90.942c-4.328.01-8.656-.04-12.984-.128a328.387 328.387 0 0 1-11.626-.462 203.003 203.003 0 0 1-10.348-.854 120 120 0 0 1-9.148-1.346 77.806 77.806 0 0 1-8.046-1.906 55.139 55.139 0 0 1-7.023-2.594 40.413 40.413 0 0 1-6.06-3.35 35.176 35.176 0 0 1-5.134-4.215 34.56 34.56 0 0 1-4.22-5.119 41.183 41.183 0 0 1-3.363-6.042 55.415 55.415 0 0 1-2.597-7.005 80.682 80.682 0 0 1-1.918-8.027 124.688 124.688 0 0 1-1.348-9.137 200.993 200.993 0 0 1-.856-10.326 325.212 325.212 0 0 1-.462-11.593 569.197 569.197 0 0 1-.128-12.96v-58.21c-.01-4.314.04-8.637.128-12.96.089-3.86.236-7.732.462-11.593.197-3.448.482-6.887.856-10.326.335-3.055.787-6.101 1.348-9.127a80.219 80.219 0 0 1 1.918-8.037 55.983 55.983 0 0 1 2.597-7.005 41.695 41.695 0 0 1 3.364-6.042 35.072 35.072 0 0 1 4.22-5.119 35.176 35.176 0 0 1 5.134-4.215 40.413 40.413 0 0 1 6.059-3.35 53.64 53.64 0 0 1 7.023-2.584 80.47 80.47 0 0 1 8.046-1.916 125.11 125.11 0 0 1 9.148-1.346c3.443-.373 6.895-.658 10.348-.854 3.875-.226 7.75-.374 11.626-.452 4.328-.098 8.656-.148 12.984-.138h74.126zm.01 4.009c4.298-.01 8.597.039 12.895.127 3.827.089 7.653.236 11.48.452 3.383.197 6.766.472 10.13.845 2.971.315 5.932.747 8.863 1.297a75.943 75.943 0 0 1 7.653 1.818 50.493 50.493 0 0 1 6.501 2.397 37.038 37.038 0 0 1 5.47 3.026 30.383 30.383 0 0 1 4.524 3.724 31.05 31.05 0 0 1 3.738 4.519 37.271 37.271 0 0 1 3.03 5.443 51.46 51.46 0 0 1 2.4 6.494 75.563 75.563 0 0 1 1.829 7.634c.54 2.928.974 5.875 1.298 8.842.374 3.36.65 6.73.846 10.11.217 3.822.374 7.634.453 11.456.088 4.293.137 8.577.137 12.87v58.212c0 4.293-.049 8.577-.137 12.87a317.503 317.503 0 0 1-.453 11.456c-.196 3.38-.472 6.75-.846 10.12a121.689 121.689 0 0 1-1.298 8.832 75.562 75.562 0 0 1-1.83 7.634 50.902 50.902 0 0 1-2.4 6.494 36.767 36.767 0 0 1-3.03 5.443 30.615 30.615 0 0 1-3.737 4.53 30.938 30.938 0 0 1-4.525 3.713 37.038 37.038 0 0 1-5.469 3.026 49.07 49.07 0 0 1-6.501 2.397 75.942 75.942 0 0 1-7.653 1.818c-2.931.55-5.892.982-8.863 1.306-3.364.364-6.747.649-10.13.836-3.827.216-7.653.373-11.48.452-4.298.098-8.597.137-12.895.137H90.932c-4.298 0-8.597-.04-12.895-.137a320.093 320.093 0 0 1-11.48-.452 193.696 193.696 0 0 1-10.13-.836 116.71 116.71 0 0 1-8.863-1.306 75.942 75.942 0 0 1-7.653-1.818 49.07 49.07 0 0 1-6.501-2.397 37.038 37.038 0 0 1-5.47-3.026 30.938 30.938 0 0 1-4.524-3.714 30.615 30.615 0 0 1-3.738-4.529 36.766 36.766 0 0 1-3.03-5.443 50.903 50.903 0 0 1-2.4-6.494 75.567 75.567 0 0 1-1.829-7.634 121.69 121.69 0 0 1-1.298-8.832c-.374-3.37-.65-6.74-.846-10.12a317.535 317.535 0 0 1-.453-11.456 623.851 623.851 0 0 1-.137-12.87V97.014c0-4.293.049-8.577.137-12.87.079-3.822.236-7.634.453-11.456.197-3.38.472-6.75.846-10.11.324-2.967.757-5.914 1.298-8.842a75.568 75.568 0 0 1 1.83-7.634 51.46 51.46 0 0 1 2.4-6.494 37.27 37.27 0 0 1 3.03-5.443 31.05 31.05 0 0 1 3.737-4.52 30.384 30.384 0 0 1 4.525-3.723 37.039 37.039 0 0 1 5.469-3.026 50.494 50.494 0 0 1 6.501-2.397 75.943 75.943 0 0 1 7.653-1.818c2.931-.55 5.892-.982 8.863-1.297 3.364-.373 6.747-.648 10.13-.845a344.71 344.71 0 0 1 11.48-.452c4.298-.088 8.597-.137 12.895-.127H165.078z"
       id="path5" /></g><g
     style="fill:#000000"
     id="g6"
     transform="matrix(3.8862872,0,0,3.8862872,28.000001,26.000001)"><g
       id="g9">&#10;	<g
   id="g8">&#10;		<path
   d="M 24.832,22.621 V 33.15 c 0.903,0.114 2.122,0.204 3.747,0.204 2.96,0 5.373,-0.7 6.889,-2.079 1.448,-1.311 2.372,-3.343 2.372,-6.051 0,-2.598 -0.905,-4.407 -2.372,-5.603 -1.398,-1.175 -3.363,-1.764 -6.209,-1.764 l -4.427,0.038 v 2.167 l 4.672,-0.034 c 3.479,0 5.422,1.919 5.397,5.284 0,3.864 -2.145,5.85 -5.756,5.828 -0.566,0 -1.15,0 -1.537,-0.067 V 22.62 h -2.776 z"
   id="path1-7" />&#10;		<path
   d="m 18.118,31.155 c -1.451,0 -2.874,-0.584 -3.459,-0.936 l -0.654,2.175 c 0.819,0.536 2.408,1.048 4.254,1.048 3.76,0 5.909,-2.029 5.909,-4.601 0,-2.056 -1.494,-3.458 -3.34,-3.784 V 25.01 c 1.867,-0.657 2.801,-1.962 2.801,-3.553 0,-1.987 -1.61,-3.715 -4.741,-3.715 -1.822,0 -3.506,0.562 -4.369,1.17 l 0.655,2.078 c 0.63,-0.421 1.867,-0.96 3.104,-0.96 1.66,0 2.435,0.866 2.435,1.896 0,1.519 -1.681,2.126 -3.016,2.126 h -1.283 v 2.104 h 1.332 c 1.748,0 3.429,0.771 3.429,2.568 0.029,1.194 -0.862,2.431 -3.057,2.431 z"
   id="path2" />&#10;		<path
   d="m 8.832,11.011 8.335,2.675 c 0.059,0.084 0.153,0.137 0.256,0.137 0.032,0 0.065,-0.005 0.098,-0.017 l 0.011,-0.003 7.917,2.541 c 0.03,0.01 0.063,0.015 0.095,0.015 0.031,0 0.063,-0.005 0.094,-0.015 l 7.6,-2.438 c 0.007,0 0.013,0.003 0.02,0.003 0.071,0 0.141,-0.026 0.194,-0.071 L 50.16,8.475 C 50.289,8.434 50.376,8.314 50.376,8.18 50.376,8.045 50.289,7.925 50.16,7.884 L 25.636,0.015 c -0.061,-0.02 -0.127,-0.02 -0.188,0 L 0.926,7.883 C 0.798,7.924 0.71,8.044 0.71,8.179 c 0,0.135 0.088,0.254 0.216,0.295 l 7.906,2.537 c -0.001,0 -0.001,0 0,0 z m 8.695,2.138 -7.605,-2.44 7.012,-2.352 7.378,2.518 z m 0.376,-5.117 7.534,-2.525 7.462,2.488 -7.619,2.555 z m 7.64,7.69 -7.018,-2.252 6.755,-2.264 6.95,2.371 z m 7.677,-2.464 -6.971,-2.378 7.631,-2.559 7.221,2.407 z m 8.293,-7.497 7.534,2.418 -6.978,2.239 C 42.044,10.398 42.016,10.38 41.985,10.37 L 34.858,7.994 41.504,5.765 c 0.003,0 0.006,-0.003 0.009,-0.004 z M 40.517,5.441 33.879,7.667 26.416,5.179 32.912,3.001 Z M 25.543,0.636 31.914,2.68 25.436,4.852 19.045,2.721 Z m -7.49,2.403 c 0.009,0.004 0.017,0.012 0.026,0.016 L 24.457,5.181 16.934,7.703 10.433,5.484 Z M 9.479,5.791 c 0.029,0.024 0.063,0.046 0.103,0.06 L 15.965,8.028 8.924,10.389 2.037,8.18 Z"
   id="path3" />&#10;		<path
   d="M 50.54,42.987 26.019,34.981 c -0.063,-0.021 -0.13,-0.021 -0.193,0 L 1.304,42.987 c -0.128,0.042 -0.214,0.162 -0.214,0.296 0,0.136 0.088,0.255 0.216,0.296 l 7.693,2.469 c 0.023,0.011 0.047,0.019 0.072,0.022 l 16.756,5.377 c 0.03,0.011 0.063,0.016 0.094,0.016 0.032,0 0.064,-0.005 0.095,-0.016 l 24.521,-7.868 c 0.128,-0.041 0.215,-0.16 0.216,-0.296 0,-0.135 -0.086,-0.254 -0.213,-0.296 z m -17.286,-4.989 7.562,2.469 -6.733,2.284 -7.485,-2.511 6.615,-2.218 c 0.015,-0.005 0.026,-0.017 0.041,-0.024 z m -0.144,5.081 -7.354,2.494 -7.555,-2.519 7.419,-2.487 z m -7.189,-7.475 6.357,2.076 -6.659,2.233 -6.363,-2.134 z m -7.65,2.498 c 0.004,0.002 0.008,0.005 0.012,0.006 l 6.359,2.132 -7.421,2.488 -6.493,-2.164 z M 2.409,43.28 9.75,40.884 c 0.014,0.007 0.023,0.017 0.037,0.021 l 6.455,2.152 -7.105,2.382 z m 7.725,2.48 7.088,-2.376 7.561,2.521 -6.904,2.342 z m 15.787,5.065 -7.049,-2.262 6.885,-2.335 7.105,2.37 z m 7.889,-2.53 C 33.777,48.262 33.74,48.234 33.693,48.22 l -6.961,-2.321 7.352,-2.494 7.316,2.454 z m 8.589,-2.756 -7.346,-2.464 6.655,-2.257 c 0.024,-0.008 0.045,-0.024 0.065,-0.039 l 7.66,2.5 z"
   id="path4" />&#10;		<path
   d="m 1.09,10.664 v 29.175 c 0,0.171 0.139,0.311 0.31,0.311 0.173,0 0.312,-0.139 0.312,-0.311 V 10.664 c 0,-0.171 -0.139,-0.311 -0.312,-0.311 -0.171,10e-4 -0.31,0.14 -0.31,0.311 z"
   id="path5-5" />&#10;		<path
   d="M 9.276,13.893 V 36.61 c 0,0.146 0.118,0.265 0.265,0.265 0.146,0 0.264,-0.118 0.264,-0.265 V 13.893 c 0,-0.146 -0.118,-0.265 -0.264,-0.265 -0.147,0 -0.265,0.118 -0.265,0.265 z"
   id="path6" />&#10;		<path
   d="m 49.86,10.421 c -0.172,0 -0.311,0.139 -0.311,0.311 v 29.175 c 0,0.173 0.139,0.312 0.311,0.312 0.172,0 0.312,-0.139 0.312,-0.312 V 10.731 c -10e-4,-0.17 -0.14,-0.31 -0.312,-0.31 z"
   id="path7" />&#10;		<path
   d="m 41.458,13.96 v 22.719 c 0,0.146 0.118,0.265 0.266,0.265 0.146,0 0.264,-0.119 0.264,-0.265 V 13.96 c 0,-0.146 -0.118,-0.265 -0.264,-0.265 -0.148,0 -0.266,0.118 -0.266,0.265 z"
   id="path8" />&#10;	</g>&#10;</g></g></svg>
