<?xml version="1.0" encoding="UTF-8" standalone="no"?>
<svg
   style="isolation:isolate"
   width="256"
   height="256"
   version="1.1"
   id="svg5"
   xml:space="preserve"
   xmlns="http://www.w3.org/2000/svg"
   xmlns:svg="http://www.w3.org/2000/svg"><defs
     id="defs1"><filter
       id="a"
       width="1.0842484"
       height="1.1077841"
       x="-0.042124196"
       y="-0.045133094"
       color-interpolation-filters="sRGB"
       filterUnits="objectBoundingBox"><feGaussianBlur
         in="SourceGraphic"
         stdDeviation="4.294"
         id="feGaussianBlur1" /><feOffset
         dy="4"
         result="pf_100_offsetBlur"
         id="feOffset1" /><feFlood
         flood-opacity=".4"
         id="feFlood1" /><feComposite
         in2="pf_100_offsetBlur"
         operator="in"
         result="pf_100_dropShadow"
         id="feComposite1" /><feBlend
         in="SourceGraphic"
         in2="pf_100_dropShadow"
         id="feBlend1" /></filter></defs><path
     fill="#f7f7f7"
     d="M165.689 11.95c74.056 0 84.639 10.557 84.639 84.544v59.251c0 73.986-10.583 84.543-84.639 84.543h-75.37c-74.055 0-84.639-10.557-84.639-84.543V96.494c0-73.987 10.584-84.544 84.639-84.544h75.37z"
     filter="url(#a)"
     id="path1"
     style="fill:#7354da;fill-opacity:1" /><defs
     id="defs2"><filter
       id="b"
       width="1.1421462"
       height="1.2085695"
       x="-0.071073106"
       y="-0.087335595"
       color-interpolation-filters="sRGB"
       filterUnits="objectBoundingBox"><feGaussianBlur
         in="SourceGraphic"
         stdDeviation="4.294"
         id="feGaussianBlur2" /><feOffset
         dy="4"
         result="pf_100_offsetBlur"
         id="feOffset2" /><feFlood
         flood-opacity=".4"
         id="feFlood2" /><feComposite
         in2="pf_100_offsetBlur"
         operator="in"
         result="pf_100_dropShadow"
         id="feComposite2" /><feBlend
         in="SourceGraphic"
         in2="pf_100_dropShadow"
         id="feBlend2" /></filter></defs><g
     opacity=".4"
     id="g5"><linearGradient
       id="c"
       x1=".517"
       x2=".517"
       y2="1"
       gradientTransform="matrix(244.65 0 0 228.34 5.68 11.95)"
       gradientUnits="userSpaceOnUse"><stop
         offset="0%"
         stop-color="#ffffff"
         id="stop2" /><stop
         offset="12.5%"
         stop-color="#ffffff"
         stop-opacity=".098"
         id="stop3" /><stop
         offset="92.5%"
         stop-opacity=".098"
         id="stop4" /><stop
         offset="100%"
         stop-opacity=".498"
         id="stop5" /></linearGradient><path
       fill="url(#c)"
       fill-rule="evenodd"
       d="M165.068 11.951c4.328-.01 8.656.04 12.984.138 3.875.078 7.75.226 11.626.452 3.453.196 6.905.481 10.348.854 3.06.335 6.118.786 9.148 1.346a80.47 80.47 0 0 1 8.046 1.916 53.64 53.64 0 0 1 7.023 2.584 40.413 40.413 0 0 1 6.06 3.35 35.176 35.176 0 0 1 5.134 4.215 35.072 35.072 0 0 1 4.22 5.119 41.692 41.692 0 0 1 3.363 6.042 55.982 55.982 0 0 1 2.597 7.005 80.224 80.224 0 0 1 1.918 8.037 124.43 124.43 0 0 1 1.348 9.127c.374 3.439.659 6.878.856 10.326.226 3.861.373 7.732.462 11.593.088 4.323.138 8.646.128 12.96v58.21c.01 4.324-.04 8.637-.128 12.96a325.177 325.177 0 0 1-.462 11.593 200.984 200.984 0 0 1-.856 10.326 124.691 124.691 0 0 1-1.348 9.137 80.687 80.687 0 0 1-1.918 8.027 55.414 55.414 0 0 1-2.597 7.005 41.18 41.18 0 0 1-3.364 6.042 34.559 34.559 0 0 1-4.22 5.119 35.177 35.177 0 0 1-5.134 4.215 40.412 40.412 0 0 1-6.059 3.35 55.138 55.138 0 0 1-7.023 2.594 77.806 77.806 0 0 1-8.046 1.906 120 120 0 0 1-9.148 1.346c-3.443.373-6.895.658-10.348.854-3.875.226-7.75.374-11.626.462-4.328.088-8.656.138-12.984.128H90.942c-4.328.01-8.656-.04-12.984-.128a328.387 328.387 0 0 1-11.626-.462 203.003 203.003 0 0 1-10.348-.854 120 120 0 0 1-9.148-1.346 77.806 77.806 0 0 1-8.046-1.906 55.139 55.139 0 0 1-7.023-2.594 40.413 40.413 0 0 1-6.06-3.35 35.176 35.176 0 0 1-5.134-4.215 34.56 34.56 0 0 1-4.22-5.119 41.183 41.183 0 0 1-3.363-6.042 55.415 55.415 0 0 1-2.597-7.005 80.682 80.682 0 0 1-1.918-8.027 124.688 124.688 0 0 1-1.348-9.137 200.993 200.993 0 0 1-.856-10.326 325.212 325.212 0 0 1-.462-11.593 569.197 569.197 0 0 1-.128-12.96v-58.21c-.01-4.314.04-8.637.128-12.96.089-3.86.236-7.732.462-11.593.197-3.448.482-6.887.856-10.326.335-3.055.787-6.101 1.348-9.127a80.219 80.219 0 0 1 1.918-8.037 55.983 55.983 0 0 1 2.597-7.005 41.695 41.695 0 0 1 3.364-6.042 35.072 35.072 0 0 1 4.22-5.119 35.176 35.176 0 0 1 5.134-4.215 40.413 40.413 0 0 1 6.059-3.35 53.64 53.64 0 0 1 7.023-2.584 80.47 80.47 0 0 1 8.046-1.916 125.11 125.11 0 0 1 9.148-1.346c3.443-.373 6.895-.658 10.348-.854 3.875-.226 7.75-.374 11.626-.452 4.328-.098 8.656-.148 12.984-.138h74.126zm.01 4.009c4.298-.01 8.597.039 12.895.127 3.827.089 7.653.236 11.48.452 3.383.197 6.766.472 10.13.845 2.971.315 5.932.747 8.863 1.297a75.943 75.943 0 0 1 7.653 1.818 50.493 50.493 0 0 1 6.501 2.397 37.038 37.038 0 0 1 5.47 3.026 30.383 30.383 0 0 1 4.524 3.724 31.05 31.05 0 0 1 3.738 4.519 37.271 37.271 0 0 1 3.03 5.443 51.46 51.46 0 0 1 2.4 6.494 75.563 75.563 0 0 1 1.829 7.634c.54 2.928.974 5.875 1.298 8.842.374 3.36.65 6.73.846 10.11.217 3.822.374 7.634.453 11.456.088 4.293.137 8.577.137 12.87v58.212c0 4.293-.049 8.577-.137 12.87a317.503 317.503 0 0 1-.453 11.456c-.196 3.38-.472 6.75-.846 10.12a121.689 121.689 0 0 1-1.298 8.832 75.562 75.562 0 0 1-1.83 7.634 50.902 50.902 0 0 1-2.4 6.494 36.767 36.767 0 0 1-3.03 5.443 30.615 30.615 0 0 1-3.737 4.53 30.938 30.938 0 0 1-4.525 3.713 37.038 37.038 0 0 1-5.469 3.026 49.07 49.07 0 0 1-6.501 2.397 75.942 75.942 0 0 1-7.653 1.818c-2.931.55-5.892.982-8.863 1.306-3.364.364-6.747.649-10.13.836-3.827.216-7.653.373-11.48.452-4.298.098-8.597.137-12.895.137H90.932c-4.298 0-8.597-.04-12.895-.137a320.093 320.093 0 0 1-11.48-.452 193.696 193.696 0 0 1-10.13-.836 116.71 116.71 0 0 1-8.863-1.306 75.942 75.942 0 0 1-7.653-1.818 49.07 49.07 0 0 1-6.501-2.397 37.038 37.038 0 0 1-5.47-3.026 30.938 30.938 0 0 1-4.524-3.714 30.615 30.615 0 0 1-3.738-4.529 36.766 36.766 0 0 1-3.03-5.443 50.903 50.903 0 0 1-2.4-6.494 75.567 75.567 0 0 1-1.829-7.634 121.69 121.69 0 0 1-1.298-8.832c-.374-3.37-.65-6.74-.846-10.12a317.535 317.535 0 0 1-.453-11.456 623.851 623.851 0 0 1-.137-12.87V97.014c0-4.293.049-8.577.137-12.87.079-3.822.236-7.634.453-11.456.197-3.38.472-6.75.846-10.11.324-2.967.757-5.914 1.298-8.842a75.568 75.568 0 0 1 1.83-7.634 51.46 51.46 0 0 1 2.4-6.494 37.27 37.27 0 0 1 3.03-5.443 31.05 31.05 0 0 1 3.737-4.52 30.384 30.384 0 0 1 4.525-3.723 37.039 37.039 0 0 1 5.469-3.026 50.494 50.494 0 0 1 6.501-2.397 75.943 75.943 0 0 1 7.653-1.818c2.931-.55 5.892-.982 8.863-1.297 3.364-.373 6.747-.648 10.13-.845a344.71 344.71 0 0 1 11.48-.452c4.298-.088 8.597-.137 12.895-.127H165.078z"
       id="path5" /></g><g
     id="g6"
     transform="matrix(0.2123217,0,0,0.2123217,-321.11829,-301.18168)"><g
       stroke-width="2"
       fill="none"
       stroke-linecap="butt"
       id="g8"><path
         stroke="#7358df"
         vector-effect="non-scaling-stroke"
         d="m 844.08,821.29 c 0.57,-2.73 -0.95,-2.51 -2.29,-3.87 -4.05,-4.11 -8.03,-8.07 -12.33,-11.9 q -6.15,-5.48 -11.92,-11.37 c -1.64,-1.67 -4.17,-2.92 -5.43,-4.25 -8.39,-8.87 -17.53,-16.69 -25.39,-24.57 -1.04,-1.04 -2.5,-1.6 -3.5,-2.55 q -2.3,-2.19 -10.69,-10.61 c -0.96,-0.96 -2.44,-1.5 -3.32,-2.38 q -4.17,-4.16 -8.35,-8.3 c -4.01,-3.95 -10.41,-9.15 -15.28,-14.19 -5.48,-5.67 -11.75,-10.34 -17.09,-16.28 -1.67,-1.86 -4.11,-2.81 -5.84,-4.7 q -4.95,-5.4 -10.47,-10.2 c -5.64,-4.92 -9.73,-9.01 -14.46,-13.79 -1.29,-1.3 -3.49,-2.17 -4.61,-3.44 q -4.66,-5.28 -9.94,-9.92 c -6.59,-5.8 -10.92,-10.08 -16.23,-15.44 -0.52,-0.52 -1.46,-0.63 -2.03,-1.17 q -6.27,-6.02 -12.38,-12.19 c -0.93,-0.94 -2.22,-1.45 -3.25,-2.45 q -5.39,-5.27 -10.78,-10.53 c -2.18,-2.13 -5.56,-4.14 -7.73,-7.09 a 0.84,0.84 0 0 1 1.22,-1.13 q 1.55,1.34 3.34,0.98"
         id="path1-3" /><path
         stroke="#b9aaed"
         vector-effect="non-scaling-stroke"
         d="m 635.33,619.95 q 14.98,7.5 30.9,12.4 c 12.06,3.7 21.05,4.64 31.82,-0.74 q 16.23,-8.11 30.69,-19.12 c 44.6,-33.98 85.42,-75.24 120.86,-118.62 7.65,-9.36 26.04,-31.78 25.67,-43.84 a 1.94,1.94 0 0 0 -1.44,-1.82 c -7.98,-2.14 -19.04,-0.07 -27.68,1.85 -44.19,9.85 -87.6,24.74 -130.91,37.9 q -13.33,4.06 -26.96,6.87 c -5.27,1.09 -9.51,0.86 -14.15,-1.12 -14.46,-6.18 -28.73,-15.33 -41.21,-23.38 q -15.49,-9.98 -69.81,-45.26"
         id="path2" /><path
         stroke="#7358df"
         vector-effect="non-scaling-stroke"
         d="m 563.11,425.07 q -0.81,-2.65 -3.96,-5.25 c -0.86,-0.7 -1.67,-0.64 -2.71,-0.55 a 0.2,0.2 0 0 1 -0.16,-0.34 l 0.24,-0.24 q 0.15,-0.15 0.02,-0.31 -3.96,-4.96 -8.76,-9.05 c -5.36,-4.55 -12.92,-10.55 -14.9,-15.48 q -0.2,-0.5 -0.73,-0.59 c -4.62,-0.86 -5.06,-4.67 -5.08,-8.58 q 0,-0.61 -0.54,-0.89 l -4.98,-2.7 q -0.36,-0.19 -0.53,-0.56 c -1.1,-2.34 -3.07,-4.4 -2.89,-7.29 0.12,-2.09 0.08,-3.63 -2.34,-3.7 a 1.56,1.53 -22.2 0 1 -1,-0.41 l -3.34,-3.1 q -0.37,-0.34 -0.85,-0.19 c -7.45,2.26 -13.42,-3.76 -18.12,-9.1 -2.43,-2.77 -5.98,-4 -8.49,-6.98 -3,-3.58 -7.91,-8.5 -11.23,-11.23 -6.19,-5.1 -9.54,-9.18 -14.32,-13.27 -4.39,-3.76 -9.03,-7.87 -12.98,-12 -2.71,-2.83 -6.4,-5.54 -8.61,-7.77 q -3.03,-3.06 -6.03,-6.14 c -2.64,-2.71 -6.45,-5.29 -9.2,-8.68 q -0.34,-0.42 -0.89,-0.42 h -0.98 q -0.5,0 -0.5,-0.5 v -0.46 a 1.37,1.34 -65.9 0 0 -0.33,-0.89 c -3.98,-4.65 -9.88,-9.08 -13.18,-12.22 q -2.59,-2.46 -5.17,-4.93 c -4.49,-4.32 -9.58,-7.33 -13.58,-12.78 q -0.27,-0.37 -1.15,-0.62 -0.46,-0.14 -0.79,-0.49 c -3.51,-3.82 -7.71,-6.45 -11,-10.47 q -3.38,-4.13 -7.85,-7.11 c -1.56,-1.04 -2.15,-2.68 -3.37,-3.61 -4.06,-3.07 -7.27,-7.3 -10.7,-10.27 q -7.18,-6.23 -13.88,-12.98 c -1.51,-1.53 -3.89,-2.1 -5.38,-4.26 q -1.39,-2.02 -2.37,-2.8 c -3.45,-2.79 -6.21,-6.17 -9.78,-8.76 q -1.66,-1.2 -2.84,-2.87 -0.27,-0.38 -0.67,-0.61 -1.16,-0.68 -2.15,-1.92 c -3.53,-4.37 -8.67,-8.04 -12.1,-11.56 q -3.63,-3.73 -7.28,-7.43 c -2.53,-2.55 -5.42,-4.04 -8.04,-6.79 q -3.06,-3.2 -6.54,-5.96 c -1.53,-1.21 -1.79,-2.69 -3.61,-3.76 q -4.68,-2.76 -8.15,-6.89 c -2.49,-2.98 -5.48,-4.77 -8.17,-7.39 -5.63,-5.47 -10.52,-10.41 -16.05,-15.15 q -6.72,-5.76 -12.86,-12.11 a 0.91,0.89 63.2 0 0 -0.76,-0.26 q -2.78,0.41 -4.28,2.73 -0.41,0.63 -0.79,-0.01 l -0.43,-0.7"
         id="path3" /><path
         stroke="#b9adf1"
         vector-effect="non-scaling-stroke"
         d="m 563.11,425.07 c -16.64,-10.4 -33.32,-20.89 -51.23,-28.77 -10.18,-4.48 -17.35,-1.97 -27.58,2.74 -12.76,5.88 -28.5,15.59 -42.66,24.65 q -35.7,22.84 -71.27,45.89 c -13.4,8.68 -26.96,17.17 -41.54,23.79 -5.16,2.34 -9.22,2.62 -15.11,1.41 q -12.69,-2.63 -23.98,-5.99 -17.6,-5.23 -80.68,-24.58 -32.56,-9.99 -52.87,-14.17 c -9.06,-1.87 -19.97,-4.06 -28.07,-1.65 q -0.51,0.15 -0.73,0.63 c -1.23,2.59 0.66,7.2 1.56,9.87"
         id="path4" /><path
         stroke="#725fe8"
         vector-effect="non-scaling-stroke"
         d="m 128.95,458.89 q 0.31,1.21 -0.52,1.85 -0.4,0.31 -0.8,-0.01 -4.03,-3.26 -7.56,-7.06 c -1.39,-1.5 -3.31,-2.28 -4.81,-3.79 q -5.35,-5.37 -10.74,-10.7 c -0.94,-0.93 -2.47,-1.51 -3.33,-2.37 q -5.82,-5.84 -11.67,-11.63 c -0.94,-0.93 -2.46,-1.5 -3.33,-2.37 q -5.9,-5.91 -11.82,-11.79 c -0.74,-0.74 -2.19,-1.12 -2.72,-1.67 q -9.88,-10.39 -13.09,-12.9 -6.58,-5.14 -12.01,-11.56 a 0.85,0.85 0 0 0 -0.8,-0.28 l -2.31,0.41"
         id="path5-6" /><path
         stroke="#b9adf1"
         vector-effect="non-scaling-stroke"
         d="M 635.33,619.95 C 599.87,602.62 566.13,582.24 532,562.49 q -14.59,-8.44 -25.84,-13.64 c -4.37,-2.02 -7.21,-1.48 -11.25,0.53 q -12.65,6.3 -17.31,9 c -40.29,23.34 -80.13,47.92 -122.71,66.93 -12.15,5.42 -24.91,10.25 -38.55,10.25"
         id="path6" /><path
         stroke="#b9b1f6"
         vector-effect="non-scaling-stroke"
         d="m 128.95,458.89 q 9.36,17.34 22.02,32.9 38.44,47.25 83.51,88.24 c 18.92,17.2 39.52,34.43 61.7,47.29 q 10.22,5.93 20.16,8.24"
         id="path7" /><path
         stroke="#725fe8"
         vector-effect="non-scaling-stroke"
         d="m 316.34,635.56 q 2.08,4.09 5.74,7.06 0.42,0.34 0.42,0.88 v 1 q 0,0.5 0.5,0.5 h 0.82 q 0.64,0 1.05,0.48 c 1.75,2.03 4.15,3.07 5.84,4.83 7,7.3 15.3,14.1 24.01,23.04 1.38,1.42 3.2,2.18 4.61,3.6 q 5.48,5.51 10.99,10.98 c 0.85,0.84 2.46,1.47 3.51,2.52 q 6.23,6.25 12.49,12.48 c 0.84,0.83 2.46,1.47 3.51,2.53 q 5.23,5.25 10.49,10.46 c 0.83,0.82 2.3,1.33 3.18,2.22 q 6.2,6.25 12.53,12.37 c 0.58,0.57 1.72,0.87 2.28,1.43 8.87,8.88 18.13,17.14 27.01,25.99 0.83,0.83 2.46,1.48 3.51,2.52 q 5.74,5.75 11.49,11.48 c 0.84,0.83 2.46,1.48 3.51,2.52 8.7,8.69 17.76,16.82 26.49,25.48 0.85,0.84 2.46,1.47 3.51,2.52 q 5.73,5.75 11.49,11.48 c 0.84,0.83 2.46,1.47 3.51,2.52 q 5.74,5.75 11.49,11.48 c 0.84,0.83 2.46,1.48 3.51,2.52 4.32,4.32 8.63,9.32 13.58,12.9 5.36,3.88 9.13,10.24 14.75,13.78 4.3,2.7 9.41,9.06 13.16,12.8 0.83,0.83 2.46,1.48 3.51,2.52 q 5.74,5.75 11.49,11.48 c 0.84,0.83 2.46,1.48 3.51,2.52 8.62,8.61 17.6,16.64 26.23,25.23 1.19,1.18 2.78,1.78 4.02,3.03 q 5.74,5.74 11.49,11.47 c 0.75,0.75 2.39,1.22 3.24,2.16 q 7.29,8.02 15.74,14.84 a 1.11,1.09 -71.6 0 1 0.41,0.84 l 0.05,3.49"
         id="path8" /></g><path
       fill="#7354da"
       d="m 844.08,821.29 c 0.57,-2.73 -0.95,-2.51 -2.29,-3.87 -4.05,-4.11 -8.03,-8.07 -12.33,-11.9 q -6.15,-5.48 -11.92,-11.37 c -1.64,-1.67 -4.17,-2.92 -5.43,-4.25 -8.39,-8.87 -17.53,-16.69 -25.39,-24.57 -1.04,-1.04 -2.5,-1.6 -3.5,-2.55 q -2.3,-2.19 -10.69,-10.61 c -0.96,-0.96 -2.44,-1.5 -3.32,-2.38 q -4.17,-4.16 -8.35,-8.3 c -4.01,-3.95 -10.41,-9.15 -15.28,-14.19 -5.48,-5.67 -11.75,-10.34 -17.09,-16.28 -1.67,-1.86 -4.11,-2.81 -5.84,-4.7 q -4.95,-5.4 -10.47,-10.2 c -5.64,-4.92 -9.73,-9.01 -14.46,-13.79 -1.29,-1.3 -3.49,-2.17 -4.61,-3.44 q -4.66,-5.28 -9.94,-9.92 c -6.59,-5.8 -10.92,-10.08 -16.23,-15.44 -0.52,-0.52 -1.46,-0.63 -2.03,-1.17 q -6.27,-6.02 -12.38,-12.19 c -0.93,-0.94 -2.22,-1.45 -3.25,-2.45 q -5.39,-5.27 -10.78,-10.53 c -2.18,-2.13 -5.56,-4.14 -7.73,-7.09 a 0.84,0.84 0 0 1 1.22,-1.13 q 1.55,1.34 3.34,0.98 14.98,7.5 30.9,12.4 c 12.06,3.7 21.05,4.64 31.82,-0.74 q 16.23,-8.11 30.69,-19.12 c 44.6,-33.98 85.42,-75.24 120.86,-118.62 7.65,-9.36 26.04,-31.78 25.67,-43.84 a 1.94,1.94 0 0 0 -1.44,-1.82 c -7.98,-2.14 -19.04,-0.07 -27.68,1.85 -44.19,9.85 -87.6,24.74 -130.91,37.9 q -13.33,4.06 -26.96,6.87 c -5.27,1.09 -9.51,0.86 -14.15,-1.12 -14.46,-6.18 -28.73,-15.33 -41.21,-23.38 q -15.49,-9.98 -69.81,-45.26 -0.81,-2.65 -3.96,-5.25 c -0.86,-0.7 -1.67,-0.64 -2.71,-0.55 a 0.2,0.2 0 0 1 -0.16,-0.34 l 0.24,-0.24 q 0.15,-0.15 0.02,-0.31 -3.96,-4.96 -8.76,-9.05 c -5.36,-4.55 -12.92,-10.55 -14.9,-15.48 q -0.2,-0.5 -0.73,-0.59 c -4.62,-0.86 -5.06,-4.67 -5.08,-8.58 q 0,-0.61 -0.54,-0.89 l -4.98,-2.7 q -0.36,-0.19 -0.53,-0.56 c -1.1,-2.34 -3.07,-4.4 -2.89,-7.29 0.12,-2.09 0.08,-3.63 -2.34,-3.7 a 1.56,1.53 -22.2 0 1 -1,-0.41 l -3.34,-3.1 q -0.37,-0.34 -0.85,-0.19 c -7.45,2.26 -13.42,-3.76 -18.12,-9.1 -2.43,-2.77 -5.98,-4 -8.49,-6.98 -3,-3.58 -7.91,-8.5 -11.23,-11.23 -6.19,-5.1 -9.54,-9.18 -14.32,-13.27 -4.39,-3.76 -9.03,-7.87 -12.98,-12 -2.71,-2.83 -6.4,-5.54 -8.61,-7.77 q -3.03,-3.06 -6.03,-6.14 c -2.64,-2.71 -6.45,-5.29 -9.2,-8.68 q -0.34,-0.42 -0.89,-0.42 h -0.98 q -0.5,0 -0.5,-0.5 v -0.46 a 1.37,1.34 -65.9 0 0 -0.33,-0.89 c -3.98,-4.65 -9.88,-9.08 -13.18,-12.22 q -2.59,-2.46 -5.17,-4.93 c -4.49,-4.32 -9.58,-7.33 -13.58,-12.78 q -0.27,-0.37 -1.15,-0.62 -0.46,-0.14 -0.79,-0.49 c -3.51,-3.82 -7.71,-6.45 -11,-10.47 q -3.38,-4.13 -7.85,-7.11 c -1.56,-1.04 -2.15,-2.68 -3.37,-3.61 -4.06,-3.07 -7.27,-7.3 -10.7,-10.27 q -7.18,-6.23 -13.88,-12.98 c -1.51,-1.53 -3.89,-2.1 -5.38,-4.26 q -1.39,-2.02 -2.37,-2.8 c -3.45,-2.79 -6.21,-6.17 -9.78,-8.76 q -1.66,-1.2 -2.84,-2.87 -0.27,-0.38 -0.67,-0.61 -1.16,-0.68 -2.15,-1.92 c -3.53,-4.37 -8.67,-8.04 -12.1,-11.56 q -3.63,-3.73 -7.28,-7.43 c -2.53,-2.55 -5.42,-4.04 -8.04,-6.79 q -3.06,-3.2 -6.54,-5.96 c -1.53,-1.21 -1.79,-2.69 -3.61,-3.76 q -4.68,-2.76 -8.15,-6.89 c -2.49,-2.98 -5.48,-4.77 -8.17,-7.39 -5.63,-5.47 -10.52,-10.41 -16.05,-15.15 q -6.72,-5.76 -12.86,-12.11 a 0.91,0.89 63.2 0 0 -0.76,-0.26 q -2.78,0.41 -4.28,2.73 -0.41,0.63 -0.79,-0.01 L 226,116.42 C 374.2,10.67 569.4,-0.9 728.99,87.36 c 134.73,74.51 223.9,211.02 239.92,363.7 14.18,135.13 -31.74,270.25 -124.83,370.23 z"
       id="path9" /><path
       fill="#725be3"
       d="m 563.11,425.07 c -16.64,-10.4 -33.32,-20.89 -51.23,-28.77 -10.18,-4.48 -17.35,-1.97 -27.58,2.74 -12.76,5.88 -28.5,15.59 -42.66,24.65 q -35.7,22.84 -71.27,45.89 c -13.4,8.68 -26.96,17.17 -41.54,23.79 -5.16,2.34 -9.22,2.62 -15.11,1.41 q -12.69,-2.63 -23.98,-5.99 -17.6,-5.23 -80.68,-24.58 -32.56,-9.99 -52.87,-14.17 c -9.06,-1.87 -19.97,-4.06 -28.07,-1.65 q -0.51,0.15 -0.73,0.63 c -1.23,2.59 0.66,7.2 1.56,9.87 q 0.31,1.21 -0.52,1.85 -0.4,0.31 -0.8,-0.01 -4.03,-3.26 -7.56,-7.06 c -1.39,-1.5 -3.31,-2.28 -4.81,-3.79 q -5.35,-5.37 -10.74,-10.7 c -0.94,-0.93 -2.47,-1.51 -3.33,-2.37 q -5.82,-5.84 -11.67,-11.63 c -0.94,-0.93 -2.46,-1.5 -3.33,-2.37 q -5.9,-5.91 -11.82,-11.79 c -0.74,-0.74 -2.19,-1.12 -2.72,-1.67 q -9.88,-10.39 -13.09,-12.9 -6.58,-5.14 -12.01,-11.56 a 0.85,0.85 0 0 0 -0.8,-0.28 l -2.31,0.41 C 70.67,276.58 135.27,181.66 226,116.42 l 0.43,0.7 q 0.38,0.64 0.79,0.01 1.5,-2.32 4.28,-2.73 a 0.91,0.89 63.2 0 1 0.76,0.26 q 6.14,6.35 12.86,12.11 c 5.53,4.74 10.42,9.68 16.05,15.15 2.69,2.62 5.68,4.41 8.17,7.39 q 3.47,4.13 8.15,6.89 c 1.82,1.07 2.08,2.55 3.61,3.76 q 3.48,2.76 6.54,5.96 c 2.62,2.75 5.51,4.24 8.04,6.79 q 3.65,3.7 7.28,7.43 c 3.43,3.52 8.57,7.19 12.1,11.56 q 0.99,1.24 2.15,1.92 0.4,0.23 0.67,0.61 1.18,1.67 2.84,2.87 c 3.57,2.59 6.33,5.97 9.78,8.76 q 0.98,0.78 2.37,2.8 c 1.49,2.16 3.87,2.73 5.38,4.26 q 6.7,6.75 13.88,12.98 c 3.43,2.97 6.64,7.2 10.7,10.27 1.22,0.93 1.81,2.57 3.37,3.61 q 4.47,2.98 7.85,7.11 c 3.29,4.02 7.49,6.65 11,10.47 q 0.33,0.35 0.79,0.49 0.88,0.25 1.15,0.62 c 4,5.45 9.09,8.46 13.58,12.78 q 2.58,2.47 5.17,4.93 c 3.3,3.14 9.2,7.57 13.18,12.22 a 1.37,1.34 -65.9 0 1 0.33,0.89 v 0.46 q 0,0.5 0.5,0.5 h 0.98 q 0.55,0 0.89,0.42 c 2.75,3.39 6.56,5.97 9.2,8.68 q 3,3.08 6.03,6.14 c 2.21,2.23 5.9,4.94 8.61,7.77 3.95,4.13 8.59,8.24 12.98,12 4.78,4.09 8.13,8.17 14.32,13.27 3.32,2.73 8.23,7.65 11.23,11.23 2.51,2.98 6.06,4.21 8.49,6.98 4.7,5.34 10.67,11.36 18.12,9.1 q 0.48,-0.15 0.85,0.19 l 3.34,3.1 a 1.56,1.53 -22.2 0 0 1,0.41 c 2.42,0.07 2.46,1.61 2.34,3.7 -0.18,2.89 1.79,4.95 2.89,7.29 q 0.17,0.37 0.53,0.56 l 4.98,2.7 q 0.54,0.28 0.54,0.89 c 0.02,3.91 0.46,7.72 5.08,8.58 q 0.53,0.09 0.73,0.59 c 1.98,4.93 9.54,10.93 14.9,15.48 q 4.8,4.09 8.76,9.05 0.13,0.16 -0.02,0.31 l -0.24,0.24 a 0.2,0.2 0 0 0 0.16,0.34 c 1.04,-0.09 1.85,-0.15 2.71,0.55 q 3.15,2.6 3.96,5.25 z"
       id="path10" /><path
       fill="#7262ec"
       d="m 128.95,458.89 q 9.36,17.34 22.02,32.9 38.44,47.25 83.51,88.24 c 18.92,17.2 39.52,34.43 61.7,47.29 q 10.22,5.93 20.16,8.24 2.08,4.09 5.74,7.06 0.42,0.34 0.42,0.88 v 1 q 0,0.5 0.5,0.5 h 0.82 q 0.64,0 1.05,0.48 c 1.75,2.03 4.15,3.07 5.84,4.83 7,7.3 15.3,14.1 24.01,23.04 1.38,1.42 3.2,2.18 4.61,3.6 q 5.48,5.51 10.99,10.98 c 0.85,0.84 2.46,1.47 3.51,2.52 q 6.23,6.25 12.49,12.48 c 0.84,0.83 2.46,1.47 3.51,2.53 q 5.23,5.25 10.49,10.46 c 0.83,0.82 2.3,1.33 3.18,2.22 q 6.2,6.25 12.53,12.37 c 0.58,0.57 1.72,0.87 2.28,1.43 8.87,8.88 18.13,17.14 27.01,25.99 0.83,0.83 2.46,1.48 3.51,2.52 q 5.74,5.75 11.49,11.48 c 0.84,0.83 2.46,1.48 3.51,2.52 8.7,8.69 17.76,16.82 26.49,25.48 0.85,0.84 2.46,1.47 3.51,2.52 q 5.73,5.75 11.49,11.48 c 0.84,0.83 2.46,1.47 3.51,2.52 q 5.74,5.75 11.49,11.48 c 0.84,0.83 2.46,1.48 3.51,2.52 4.32,4.32 8.63,9.32 13.58,12.9 5.36,3.88 9.13,10.24 14.75,13.78 4.3,2.7 9.41,9.06 13.16,12.8 0.83,0.83 2.46,1.48 3.51,2.52 q 5.74,5.75 11.49,11.48 c 0.84,0.83 2.46,1.48 3.51,2.52 8.62,8.61 17.6,16.64 26.23,25.23 1.19,1.18 2.78,1.78 4.02,3.03 q 5.74,5.74 11.49,11.47 c 0.75,0.75 2.39,1.22 3.24,2.16 q 7.29,8.02 15.74,14.84 a 1.11,1.09 -71.6 0 1 0.41,0.84 l 0.05,3.49 Q 522.32,986.39 397.04,958.73 C 303.06,937.98 215.38,886.73 151.15,815.22 45.93,698.09 5.52,538.4 43.44,385.02 l 2.31,-0.41 a 0.85,0.85 0 0 1 0.8,0.28 q 5.43,6.42 12.01,11.56 3.21,2.51 13.09,12.9 c 0.53,0.55 1.98,0.93 2.72,1.67 q 5.92,5.88 11.82,11.79 c 0.87,0.87 2.39,1.44 3.33,2.37 q 5.85,5.79 11.67,11.63 c 0.86,0.86 2.39,1.44 3.33,2.37 q 5.39,5.33 10.74,10.7 c 1.5,1.51 3.42,2.29 4.81,3.79 q 3.53,3.8 7.56,7.06 0.4,0.32 0.8,0.01 0.83,-0.64 0.52,-1.85 z"
       id="path11" /><path
       fill="#ffffff"
       d="m 2193.2937,1908.4734 q 68.3795,44.4114 87.8787,56.9745 c 15.7102,10.1336 33.6737,21.6518 51.8763,29.4314 5.841,2.4925 11.1784,2.782 17.8124,1.4099 q 17.1578,-3.5373 33.938,-8.6482 c 54.5198,-16.5661 109.1655,-35.3101 164.7931,-47.7095 10.8763,-2.417 24.7989,-5.0228 34.8443,-2.3289 a 2.4421251,2.4421251 0 0 1 1.8127,2.2911 c 0.4658,15.1815 -22.684,43.4044 -32.3141,55.187 -44.6128,54.6079 -95.9981,106.5471 -152.1418,149.3221 q -18.2027,13.8597 -38.6335,24.0688 c -13.5575,6.7725 -24.8744,5.5892 -40.0558,0.9315 q -20.0406,-6.1682 -38.8978,-15.6094 c -44.638,-21.8155 -87.1109,-47.4704 -130.0746,-72.3323 q -18.3663,-10.6245 -32.5281,-17.1704 c -5.5011,-2.5428 -9.0762,-1.863 -14.1619,0.6672 q -15.9241,7.9306 -21.7903,11.3294 c -50.7181,29.3811 -100.8698,60.3231 -154.4707,84.2534 -15.2947,6.8228 -31.3574,12.9029 -48.5278,12.9029 q -12.5127,-2.9078 -25.3779,-10.3727 c -27.9208,-16.1885 -53.8527,-37.8781 -77.6697,-59.5299 q -56.7353,-51.5994 -105.1246,-111.079 -15.9368,-19.5873 -27.7194,-41.4154 c -1.133,-3.3611 -3.5122,-9.1643 -1.9638,-12.4246 q 0.2769,-0.6043 0.919,-0.7931 c 10.1965,-3.0337 23.9303,-0.2769 35.3352,2.0771 q 25.5668,5.2619 66.5542,17.8376 79.4069,24.3583 101.5622,30.942 14.2122,4.2296 30.1867,7.5403 c 7.4145,1.5232 12.5253,1.1707 19.0209,-1.7749 18.3537,-8.3335 35.4234,-19.0209 52.2917,-29.9475 q 44.7765,-29.016 89.7166,-57.7676 c 17.825,-11.405 37.639,-23.6282 53.7016,-31.0301 12.8778,-5.9291 21.9036,-9.0887 34.7185,-3.4492 22.5455,9.9196 43.5428,23.1247 64.4897,36.2165 z"
       id="path12"
       style="stroke-width:1.25883" /><path
       fill="#725be3"
       d="m 635.33,619.95 q -1.79,0.36 -3.34,-0.98 a 0.84,0.84 0 0 0 -1.22,1.13 c 2.17,2.95 5.55,4.96 7.73,7.09 q 5.39,5.26 10.78,10.53 c 1.03,1 2.32,1.51 3.25,2.45 q 6.11,6.17 12.38,12.19 c 0.57,0.54 1.51,0.65 2.03,1.17 5.31,5.36 9.64,9.64 16.23,15.44 q 5.28,4.64 9.94,9.92 c 1.12,1.27 3.32,2.14 4.61,3.44 4.73,4.78 8.82,8.87 14.46,13.79 q 5.52,4.8 10.47,10.2 c 1.73,1.89 4.17,2.84 5.84,4.7 5.34,5.94 11.61,10.61 17.09,16.28 4.87,5.04 11.27,10.24 15.28,14.19 q 4.18,4.14 8.35,8.3 c 0.88,0.88 2.36,1.42 3.32,2.38 q 8.39,8.42 10.69,10.61 c 1,0.95 2.46,1.51 3.5,2.55 7.86,7.88 17,15.7 25.39,24.57 1.26,1.33 3.79,2.58 5.43,4.25 q 5.77,5.89 11.92,11.37 c 4.3,3.83 8.28,7.79 12.33,11.9 1.34,1.36 2.86,1.14 2.29,3.87 q -83.42,88.3 -199.07,126.22 l -0.05,-3.49 a 1.11,1.09 -71.6 0 0 -0.41,-0.84 q -8.45,-6.82 -15.74,-14.84 c -0.85,-0.94 -2.49,-1.41 -3.24,-2.16 q -5.75,-5.73 -11.49,-11.47 c -1.24,-1.25 -2.83,-1.85 -4.02,-3.03 -8.63,-8.59 -17.61,-16.62 -26.23,-25.23 -1.05,-1.04 -2.67,-1.69 -3.51,-2.52 q -5.75,-5.73 -11.49,-11.48 c -1.05,-1.04 -2.68,-1.69 -3.51,-2.52 -3.75,-3.74 -8.86,-10.1 -13.16,-12.8 -5.62,-3.54 -9.39,-9.9 -14.75,-13.78 -4.95,-3.58 -9.26,-8.58 -13.58,-12.9 -1.05,-1.04 -2.67,-1.69 -3.51,-2.52 q -5.75,-5.73 -11.49,-11.48 c -1.05,-1.05 -2.67,-1.69 -3.51,-2.52 q -5.76,-5.73 -11.49,-11.48 c -1.05,-1.05 -2.66,-1.68 -3.51,-2.52 -8.73,-8.66 -17.79,-16.79 -26.49,-25.48 -1.05,-1.04 -2.67,-1.69 -3.51,-2.52 q -5.75,-5.73 -11.49,-11.48 c -1.05,-1.04 -2.68,-1.69 -3.51,-2.52 -8.88,-8.85 -18.14,-17.11 -27.01,-25.99 -0.56,-0.56 -1.7,-0.86 -2.28,-1.43 q -6.33,-6.12 -12.53,-12.37 c -0.88,-0.89 -2.35,-1.4 -3.18,-2.22 q -5.26,-5.21 -10.49,-10.46 c -1.05,-1.06 -2.67,-1.7 -3.51,-2.53 q -6.26,-6.23 -12.49,-12.48 c -1.05,-1.05 -2.66,-1.68 -3.51,-2.52 q -5.51,-5.47 -10.99,-10.98 c -1.41,-1.42 -3.23,-2.18 -4.61,-3.6 -8.71,-8.94 -17.01,-15.74 -24.01,-23.04 -1.69,-1.76 -4.09,-2.8 -5.84,-4.83 Q 324.46,645 323.82,645 H 323 q -0.5,0 -0.5,-0.5 v -1 q 0,-0.54 -0.42,-0.88 -3.66,-2.97 -5.74,-7.06 c 13.64,0 26.4,-4.83 38.55,-10.25 42.58,-19.01 82.42,-43.59 122.71,-66.93 q 4.66,-2.7 17.31,-9 c 4.04,-2.01 6.88,-2.55 11.25,-0.53 q 11.25,5.2 25.84,13.64 c 34.13,19.75 67.87,40.13 103.33,57.46 z"
       id="path13" /></g></svg>
