<?xml version="1.0" encoding="UTF-8" standalone="no"?>
<svg
   style="isolation:isolate"
   width="256"
   height="256"
   version="1.1"
   id="svg5"
   sodipodi:docname="appflowy.svg"
   xml:space="preserve"
   inkscape:version="1.3.2 (1:1.3.2+202311252150+091e20ef0f)"
   xmlns:inkscape="http://www.inkscape.org/namespaces/inkscape"
   xmlns:sodipodi="http://sodipodi.sourceforge.net/DTD/sodipodi-0.dtd"
   xmlns="http://www.w3.org/2000/svg"
   xmlns:svg="http://www.w3.org/2000/svg"><sodipodi:namedview
     id="namedview5"
     pagecolor="#ffffff"
     bordercolor="#000000"
     borderopacity="0.25"
     inkscape:showpageshadow="2"
     inkscape:pageopacity="0.0"
     inkscape:pagecheckerboard="0"
     inkscape:deskcolor="#d1d1d1"
     inkscape:zoom="1.3155765"
     inkscape:cx="127.70067"
     inkscape:cy="128.08073"
     inkscape:window-width="2560"
     inkscape:window-height="1472"
     inkscape:window-x="0"
     inkscape:window-y="29"
     inkscape:window-maximized="1"
     inkscape:current-layer="svg5" /><defs
     id="defs1"><filter
       id="a"
       width="1.0842484"
       height="1.1077841"
       x="-0.042124196"
       y="-0.045133094"
       color-interpolation-filters="sRGB"
       filterUnits="objectBoundingBox"><feGaussianBlur
         in="SourceGraphic"
         stdDeviation="4.294"
         id="feGaussianBlur1" /><feOffset
         dy="4"
         result="pf_100_offsetBlur"
         id="feOffset1" /><feFlood
         flood-opacity=".4"
         id="feFlood1" /><feComposite
         in2="pf_100_offsetBlur"
         operator="in"
         result="pf_100_dropShadow"
         id="feComposite1" /><feBlend
         in="SourceGraphic"
         in2="pf_100_dropShadow"
         id="feBlend1" /></filter></defs><path
     fill="#f7f7f7"
     d="M165.689 11.95c74.056 0 84.639 10.557 84.639 84.544v59.251c0 73.986-10.583 84.543-84.639 84.543h-75.37c-74.055 0-84.639-10.557-84.639-84.543V96.494c0-73.987 10.584-84.544 84.639-84.544h75.37z"
     filter="url(#a)"
     id="path1" /><defs
     id="defs2"><filter
       id="b"
       width="1.1421462"
       height="1.2085695"
       x="-0.071073106"
       y="-0.087335595"
       color-interpolation-filters="sRGB"
       filterUnits="objectBoundingBox"><feGaussianBlur
         in="SourceGraphic"
         stdDeviation="4.294"
         id="feGaussianBlur2" /><feOffset
         dy="4"
         result="pf_100_offsetBlur"
         id="feOffset2" /><feFlood
         flood-opacity=".4"
         id="feFlood2" /><feComposite
         in2="pf_100_offsetBlur"
         operator="in"
         result="pf_100_dropShadow"
         id="feComposite2" /><feBlend
         in="SourceGraphic"
         in2="pf_100_dropShadow"
         id="feBlend2" /></filter></defs><g
     opacity=".4"
     id="g5"><linearGradient
       id="c"
       x1=".517"
       x2=".517"
       y2="1"
       gradientTransform="matrix(244.65 0 0 228.34 5.68 11.95)"
       gradientUnits="userSpaceOnUse"><stop
         offset="0%"
         stop-color="#ffffff"
         id="stop2" /><stop
         offset="12.5%"
         stop-color="#ffffff"
         stop-opacity=".098"
         id="stop3" /><stop
         offset="92.5%"
         stop-opacity=".098"
         id="stop4" /><stop
         offset="100%"
         stop-opacity=".498"
         id="stop5" /></linearGradient><path
       fill="url(#c)"
       fill-rule="evenodd"
       d="M165.068 11.951c4.328-.01 8.656.04 12.984.138 3.875.078 7.75.226 11.626.452 3.453.196 6.905.481 10.348.854 3.06.335 6.118.786 9.148 1.346a80.47 80.47 0 0 1 8.046 1.916 53.64 53.64 0 0 1 7.023 2.584 40.413 40.413 0 0 1 6.06 3.35 35.176 35.176 0 0 1 5.134 4.215 35.072 35.072 0 0 1 4.22 5.119 41.692 41.692 0 0 1 3.363 6.042 55.982 55.982 0 0 1 2.597 7.005 80.224 80.224 0 0 1 1.918 8.037 124.43 124.43 0 0 1 1.348 9.127c.374 3.439.659 6.878.856 10.326.226 3.861.373 7.732.462 11.593.088 4.323.138 8.646.128 12.96v58.21c.01 4.324-.04 8.637-.128 12.96a325.177 325.177 0 0 1-.462 11.593 200.984 200.984 0 0 1-.856 10.326 124.691 124.691 0 0 1-1.348 9.137 80.687 80.687 0 0 1-1.918 8.027 55.414 55.414 0 0 1-2.597 7.005 41.18 41.18 0 0 1-3.364 6.042 34.559 34.559 0 0 1-4.22 5.119 35.177 35.177 0 0 1-5.134 4.215 40.412 40.412 0 0 1-6.059 3.35 55.138 55.138 0 0 1-7.023 2.594 77.806 77.806 0 0 1-8.046 1.906 120 120 0 0 1-9.148 1.346c-3.443.373-6.895.658-10.348.854-3.875.226-7.75.374-11.626.462-4.328.088-8.656.138-12.984.128H90.942c-4.328.01-8.656-.04-12.984-.128a328.387 328.387 0 0 1-11.626-.462 203.003 203.003 0 0 1-10.348-.854 120 120 0 0 1-9.148-1.346 77.806 77.806 0 0 1-8.046-1.906 55.139 55.139 0 0 1-7.023-2.594 40.413 40.413 0 0 1-6.06-3.35 35.176 35.176 0 0 1-5.134-4.215 34.56 34.56 0 0 1-4.22-5.119 41.183 41.183 0 0 1-3.363-6.042 55.415 55.415 0 0 1-2.597-7.005 80.682 80.682 0 0 1-1.918-8.027 124.688 124.688 0 0 1-1.348-9.137 200.993 200.993 0 0 1-.856-10.326 325.212 325.212 0 0 1-.462-11.593 569.197 569.197 0 0 1-.128-12.96v-58.21c-.01-4.314.04-8.637.128-12.96.089-3.86.236-7.732.462-11.593.197-3.448.482-6.887.856-10.326.335-3.055.787-6.101 1.348-9.127a80.219 80.219 0 0 1 1.918-8.037 55.983 55.983 0 0 1 2.597-7.005 41.695 41.695 0 0 1 3.364-6.042 35.072 35.072 0 0 1 4.22-5.119 35.176 35.176 0 0 1 5.134-4.215 40.413 40.413 0 0 1 6.059-3.35 53.64 53.64 0 0 1 7.023-2.584 80.47 80.47 0 0 1 8.046-1.916 125.11 125.11 0 0 1 9.148-1.346c3.443-.373 6.895-.658 10.348-.854 3.875-.226 7.75-.374 11.626-.452 4.328-.098 8.656-.148 12.984-.138h74.126zm.01 4.009c4.298-.01 8.597.039 12.895.127 3.827.089 7.653.236 11.48.452 3.383.197 6.766.472 10.13.845 2.971.315 5.932.747 8.863 1.297a75.943 75.943 0 0 1 7.653 1.818 50.493 50.493 0 0 1 6.501 2.397 37.038 37.038 0 0 1 5.47 3.026 30.383 30.383 0 0 1 4.524 3.724 31.05 31.05 0 0 1 3.738 4.519 37.271 37.271 0 0 1 3.03 5.443 51.46 51.46 0 0 1 2.4 6.494 75.563 75.563 0 0 1 1.829 7.634c.54 2.928.974 5.875 1.298 8.842.374 3.36.65 6.73.846 10.11.217 3.822.374 7.634.453 11.456.088 4.293.137 8.577.137 12.87v58.212c0 4.293-.049 8.577-.137 12.87a317.503 317.503 0 0 1-.453 11.456c-.196 3.38-.472 6.75-.846 10.12a121.689 121.689 0 0 1-1.298 8.832 75.562 75.562 0 0 1-1.83 7.634 50.902 50.902 0 0 1-2.4 6.494 36.767 36.767 0 0 1-3.03 5.443 30.615 30.615 0 0 1-3.737 4.53 30.938 30.938 0 0 1-4.525 3.713 37.038 37.038 0 0 1-5.469 3.026 49.07 49.07 0 0 1-6.501 2.397 75.942 75.942 0 0 1-7.653 1.818c-2.931.55-5.892.982-8.863 1.306-3.364.364-6.747.649-10.13.836-3.827.216-7.653.373-11.48.452-4.298.098-8.597.137-12.895.137H90.932c-4.298 0-8.597-.04-12.895-.137a320.093 320.093 0 0 1-11.48-.452 193.696 193.696 0 0 1-10.13-.836 116.71 116.71 0 0 1-8.863-1.306 75.942 75.942 0 0 1-7.653-1.818 49.07 49.07 0 0 1-6.501-2.397 37.038 37.038 0 0 1-5.47-3.026 30.938 30.938 0 0 1-4.524-3.714 30.615 30.615 0 0 1-3.738-4.529 36.766 36.766 0 0 1-3.03-5.443 50.903 50.903 0 0 1-2.4-6.494 75.567 75.567 0 0 1-1.829-7.634 121.69 121.69 0 0 1-1.298-8.832c-.374-3.37-.65-6.74-.846-10.12a317.535 317.535 0 0 1-.453-11.456 623.851 623.851 0 0 1-.137-12.87V97.014c0-4.293.049-8.577.137-12.87.079-3.822.236-7.634.453-11.456.197-3.38.472-6.75.846-10.11.324-2.967.757-5.914 1.298-8.842a75.568 75.568 0 0 1 1.83-7.634 51.46 51.46 0 0 1 2.4-6.494 37.27 37.27 0 0 1 3.03-5.443 31.05 31.05 0 0 1 3.737-4.52 30.384 30.384 0 0 1 4.525-3.723 37.039 37.039 0 0 1 5.469-3.026 50.494 50.494 0 0 1 6.501-2.397 75.943 75.943 0 0 1 7.653-1.818c2.931-.55 5.892-.982 8.863-1.297 3.364-.373 6.747-.648 10.13-.845a344.71 344.71 0 0 1 11.48-.452c4.298-.088 8.597-.137 12.895-.127H165.078z"
       id="path5" /></g><g
     style="fill:none"
     id="g6"
     transform="matrix(4.8209281,0,0,4.8209281,32.999993,29.581609)"><g
       id="Layer 1"><g
         id="Group 1171274570" /><path
         id="Vector_8"
         d="m 39.3893,24.0859 c -1.1314,6.1177 -6.0684,11.4639 -11.7818,14.466 -0.7148,0.3747 -1.0007,0.5891 -1.8067,0.6409 h 11.5969 c 0.2611,0.0082 0.5212,-0.036 0.7648,-0.1301 0.2437,-0.0941 0.466,-0.2362 0.6538,-0.4177 0.1878,-0.1816 0.3372,-0.399 0.4395,-0.6394 0.1022,-0.2404 0.1551,-0.4988 0.1557,-0.76 V 24.0859 Z"
         fill="#f7931e" /><path
         id="Vector_9"
         d="m 26.7479,38.8428 c -0.2347,0.0172 -0.4703,0.0172 -0.7049,0 z"
         fill="#ffce00" /><path
         id="Vector_10"
         d="m 15.1981,12.2815 c -0.175,0.143 -0.35,0.2761 -0.5299,0.4018 C 11.7326,14.7488 2.77054,21.4481 0.742007,18.5643 -1.24709,15.7347 0.847994,7.70683 6.00684,3.84447 6.10543,3.7656 6.20402,3.69658 6.30508,3.6251 11.9076,-0.311199 16.0978,0.233524 18.1238,3.11982 20.0267,5.82618 17.8971,10.0681 15.1981,12.2815 Z"
         fill="#8427e0" /><path
         id="Vector_11"
         d="M 37.1026,18.4809 C 34.3297,20.4281 29.9546,18.1555 27.7881,15.3703 27.6993,15.2569 27.6155,15.141 27.5416,15.0277 25.4785,12.0896 18.7792,3.12755 21.663,1.10148 c 2.8838,-2.026075 11.1631,0.18732 14.9392,5.56307 0.0838,0.11832 0.1652,0.24649 0.2465,0.35247 3.6602,5.43988 3.0835,9.47968 0.2539,11.46388 z"
         fill="#00b5ff" /><path
         id="Vector_12"
         d="m 33.3933,36.1608 c -0.0986,0.0764 -0.1947,0.1479 -0.2908,0.2145 -5.6026,3.9437 -9.7927,3.3891 -11.8188,0.5077 -1.9004,-2.7113 0.2243,-6.9458 2.9233,-9.1617 0.1725,-0.1454 0.3524,-0.281 0.5324,-0.4067 2.9355,-2.063 11.8976,-8.7599 13.9237,-5.8785 1.9891,2.8296 -0.106,10.8624 -5.2698,14.7247 z"
         fill="#ffbd00" /><path
         id="Vector_13"
         d="M 17.751,38.8995 C 14.8672,40.9231 6.5879,38.7121 2.81182,33.3364 2.73295,33.2279 2.66147,33.1195 2.58752,33.011 -1.09736,27.5687 -0.515667,23.5067 2.309,21.5201 c 2.77044,-1.9472 7.14794,0.3229 9.312,3.1106 0.0888,0.1134 0.1726,0.2267 0.2465,0.3426 2.0729,2.938 8.7698,11.9001 5.8835,13.9262 z"
         fill="#e3006d" /><path
         id="Vector_14"
         d="M 15.1977,12.2815 C 11.1923,14.0414 2.69862,17.7041 1.42185,14.7685 0.352121,12.3037 2.33383,7.25577 6.00886,3.84447 6.10745,3.7656 6.20604,3.69658 6.3071,3.6251 c 5.6,-3.9363 9.7902,-3.391577 11.8163,-0.50528 1.9028,2.70636 -0.2268,6.94828 -2.9257,9.16168 z"
         fill="#9327ff" /><path
         id="Vector_15"
         d="M 37.1041,18.4804 C 34.3312,20.4276 29.9561,18.1551 27.7896,15.3698 25.9878,11.261 22.5568,3.1296 25.4283,1.88487 c 2.588,-1.121486 8.0081,1.10917 11.412,5.13174 3.6701,5.43979 3.0934,9.47969 0.2638,11.46379 z"
         fill="#00c8ff" /><path
         id="Vector_16"
         d="m 33.3933,36.1608 c -0.0986,0.0764 -0.1947,0.1479 -0.2909,0.2145 -5.6025,3.9437 -9.7926,3.3891 -11.8187,0.5077 -1.9004,-2.7113 0.2243,-6.9458 2.9233,-9.1617 4.0028,-1.7623 12.5015,-5.4226 13.7782,-2.4894 1.0698,2.4672 -0.9119,7.5152 -4.5919,10.9289 z"
         fill="#ffce00" /><path
         id="Vector_17"
         d="M 13.9817,38.1181 C 11.4035,39.2371 5.99815,37.0163 2.59179,33.011 -1.09802,27.5687 -0.516326,23.5067 2.30834,21.5201 c 2.77044,-1.9472 7.14793,0.3229 9.31206,3.1106 1.8042,4.1113 5.2328,12.2402 2.3613,13.4874 z"
         fill="#fb006d" /></g></g></svg>
