<?xml version="1.0" encoding="UTF-8" standalone="no"?>
<svg
   style="isolation:isolate"
   width="256"
   height="256"
   version="1.1"
   id="svg5"
   xml:space="preserve"
   xmlns="http://www.w3.org/2000/svg"
   xmlns:svg="http://www.w3.org/2000/svg"><defs
     id="defs1"><filter
       id="a"
       width="1.0842484"
       height="1.1077841"
       x="-0.042124196"
       y="-0.045133094"
       color-interpolation-filters="sRGB"
       filterUnits="objectBoundingBox"><feGaussianBlur
         in="SourceGraphic"
         stdDeviation="4.294"
         id="feGaussianBlur1" /><feOffset
         dy="4"
         result="pf_100_offsetBlur"
         id="feOffset1" /><feFlood
         flood-opacity=".4"
         id="feFlood1" /><feComposite
         in2="pf_100_offsetBlur"
         operator="in"
         result="pf_100_dropShadow"
         id="feComposite1" /><feBlend
         in="SourceGraphic"
         in2="pf_100_dropShadow"
         id="feBlend1" /></filter></defs><path
     fill="#f7f7f7"
     d="M165.689 11.95c74.056 0 84.639 10.557 84.639 84.544v59.251c0 73.986-10.583 84.543-84.639 84.543h-75.37c-74.055 0-84.639-10.557-84.639-84.543V96.494c0-73.987 10.584-84.544 84.639-84.544h75.37z"
     filter="url(#a)"
     id="path1" /><defs
     id="defs2"><filter
       id="b"
       width="1.1421462"
       height="1.2085695"
       x="-0.071073106"
       y="-0.087335595"
       color-interpolation-filters="sRGB"
       filterUnits="objectBoundingBox"><feGaussianBlur
         in="SourceGraphic"
         stdDeviation="4.294"
         id="feGaussianBlur2" /><feOffset
         dy="4"
         result="pf_100_offsetBlur"
         id="feOffset2" /><feFlood
         flood-opacity=".4"
         id="feFlood2" /><feComposite
         in2="pf_100_offsetBlur"
         operator="in"
         result="pf_100_dropShadow"
         id="feComposite2" /><feBlend
         in="SourceGraphic"
         in2="pf_100_dropShadow"
         id="feBlend2" /></filter></defs><g
     opacity=".4"
     id="g5"><linearGradient
       id="c"
       x1=".517"
       x2=".517"
       y2="1"
       gradientTransform="matrix(244.65 0 0 228.34 5.68 11.95)"
       gradientUnits="userSpaceOnUse"><stop
         offset="0%"
         stop-color="#ffffff"
         id="stop2" /><stop
         offset="12.5%"
         stop-color="#ffffff"
         stop-opacity=".098"
         id="stop3" /><stop
         offset="92.5%"
         stop-opacity=".098"
         id="stop4" /><stop
         offset="100%"
         stop-opacity=".498"
         id="stop5" /></linearGradient><path
       fill="url(#c)"
       fill-rule="evenodd"
       d="M165.068 11.951c4.328-.01 8.656.04 12.984.138 3.875.078 7.75.226 11.626.452 3.453.196 6.905.481 10.348.854 3.06.335 6.118.786 9.148 1.346a80.47 80.47 0 0 1 8.046 1.916 53.64 53.64 0 0 1 7.023 2.584 40.413 40.413 0 0 1 6.06 3.35 35.176 35.176 0 0 1 5.134 4.215 35.072 35.072 0 0 1 4.22 5.119 41.692 41.692 0 0 1 3.363 6.042 55.982 55.982 0 0 1 2.597 7.005 80.224 80.224 0 0 1 1.918 8.037 124.43 124.43 0 0 1 1.348 9.127c.374 3.439.659 6.878.856 10.326.226 3.861.373 7.732.462 11.593.088 4.323.138 8.646.128 12.96v58.21c.01 4.324-.04 8.637-.128 12.96a325.177 325.177 0 0 1-.462 11.593 200.984 200.984 0 0 1-.856 10.326 124.691 124.691 0 0 1-1.348 9.137 80.687 80.687 0 0 1-1.918 8.027 55.414 55.414 0 0 1-2.597 7.005 41.18 41.18 0 0 1-3.364 6.042 34.559 34.559 0 0 1-4.22 5.119 35.177 35.177 0 0 1-5.134 4.215 40.412 40.412 0 0 1-6.059 3.35 55.138 55.138 0 0 1-7.023 2.594 77.806 77.806 0 0 1-8.046 1.906 120 120 0 0 1-9.148 1.346c-3.443.373-6.895.658-10.348.854-3.875.226-7.75.374-11.626.462-4.328.088-8.656.138-12.984.128H90.942c-4.328.01-8.656-.04-12.984-.128a328.387 328.387 0 0 1-11.626-.462 203.003 203.003 0 0 1-10.348-.854 120 120 0 0 1-9.148-1.346 77.806 77.806 0 0 1-8.046-1.906 55.139 55.139 0 0 1-7.023-2.594 40.413 40.413 0 0 1-6.06-3.35 35.176 35.176 0 0 1-5.134-4.215 34.56 34.56 0 0 1-4.22-5.119 41.183 41.183 0 0 1-3.363-6.042 55.415 55.415 0 0 1-2.597-7.005 80.682 80.682 0 0 1-1.918-8.027 124.688 124.688 0 0 1-1.348-9.137 200.993 200.993 0 0 1-.856-10.326 325.212 325.212 0 0 1-.462-11.593 569.197 569.197 0 0 1-.128-12.96v-58.21c-.01-4.314.04-8.637.128-12.96.089-3.86.236-7.732.462-11.593.197-3.448.482-6.887.856-10.326.335-3.055.787-6.101 1.348-9.127a80.219 80.219 0 0 1 1.918-8.037 55.983 55.983 0 0 1 2.597-7.005 41.695 41.695 0 0 1 3.364-6.042 35.072 35.072 0 0 1 4.22-5.119 35.176 35.176 0 0 1 5.134-4.215 40.413 40.413 0 0 1 6.059-3.35 53.64 53.64 0 0 1 7.023-2.584 80.47 80.47 0 0 1 8.046-1.916 125.11 125.11 0 0 1 9.148-1.346c3.443-.373 6.895-.658 10.348-.854 3.875-.226 7.75-.374 11.626-.452 4.328-.098 8.656-.148 12.984-.138h74.126zm.01 4.009c4.298-.01 8.597.039 12.895.127 3.827.089 7.653.236 11.48.452 3.383.197 6.766.472 10.13.845 2.971.315 5.932.747 8.863 1.297a75.943 75.943 0 0 1 7.653 1.818 50.493 50.493 0 0 1 6.501 2.397 37.038 37.038 0 0 1 5.47 3.026 30.383 30.383 0 0 1 4.524 3.724 31.05 31.05 0 0 1 3.738 4.519 37.271 37.271 0 0 1 3.03 5.443 51.46 51.46 0 0 1 2.4 6.494 75.563 75.563 0 0 1 1.829 7.634c.54 2.928.974 5.875 1.298 8.842.374 3.36.65 6.73.846 10.11.217 3.822.374 7.634.453 11.456.088 4.293.137 8.577.137 12.87v58.212c0 4.293-.049 8.577-.137 12.87a317.503 317.503 0 0 1-.453 11.456c-.196 3.38-.472 6.75-.846 10.12a121.689 121.689 0 0 1-1.298 8.832 75.562 75.562 0 0 1-1.83 7.634 50.902 50.902 0 0 1-2.4 6.494 36.767 36.767 0 0 1-3.03 5.443 30.615 30.615 0 0 1-3.737 4.53 30.938 30.938 0 0 1-4.525 3.713 37.038 37.038 0 0 1-5.469 3.026 49.07 49.07 0 0 1-6.501 2.397 75.942 75.942 0 0 1-7.653 1.818c-2.931.55-5.892.982-8.863 1.306-3.364.364-6.747.649-10.13.836-3.827.216-7.653.373-11.48.452-4.298.098-8.597.137-12.895.137H90.932c-4.298 0-8.597-.04-12.895-.137a320.093 320.093 0 0 1-11.48-.452 193.696 193.696 0 0 1-10.13-.836 116.71 116.71 0 0 1-8.863-1.306 75.942 75.942 0 0 1-7.653-1.818 49.07 49.07 0 0 1-6.501-2.397 37.038 37.038 0 0 1-5.47-3.026 30.938 30.938 0 0 1-4.524-3.714 30.615 30.615 0 0 1-3.738-4.529 36.766 36.766 0 0 1-3.03-5.443 50.903 50.903 0 0 1-2.4-6.494 75.567 75.567 0 0 1-1.829-7.634 121.69 121.69 0 0 1-1.298-8.832c-.374-3.37-.65-6.74-.846-10.12a317.535 317.535 0 0 1-.453-11.456 623.851 623.851 0 0 1-.137-12.87V97.014c0-4.293.049-8.577.137-12.87.079-3.822.236-7.634.453-11.456.197-3.38.472-6.75.846-10.11.324-2.967.757-5.914 1.298-8.842a75.568 75.568 0 0 1 1.83-7.634 51.46 51.46 0 0 1 2.4-6.494 37.27 37.27 0 0 1 3.03-5.443 31.05 31.05 0 0 1 3.737-4.52 30.384 30.384 0 0 1 4.525-3.723 37.039 37.039 0 0 1 5.469-3.026 50.494 50.494 0 0 1 6.501-2.397 75.943 75.943 0 0 1 7.653-1.818c2.931-.55 5.892-.982 8.863-1.297 3.364-.373 6.747-.648 10.13-.845a344.71 344.71 0 0 1 11.48-.452c4.298-.088 8.597-.137 12.895-.127H165.078z"
       id="path5" /></g><g
     id="g4167"
     transform="matrix(1.6305733,0,0,1.6305733,26.796176,17.627382)"><path
       d="m 117.73438,31.320312 -0.0156,-8.359374 c 0,-8.101563 -5.88281,-12.367188 -12.39844,-12.367188 L 32.335938,8.28125 h -3.753907 v 46.074219 h 3.753907 l 72.984372,-2.308594 c 6.51563,0 12.39844,-4.265625 12.39844,-12.367187 z m 0,0"
       fill="#ed333b"
       id="path4089" /><path
       d="m 32.335938,11.59375 v 39.453125 c 0,1.828125 -1.480469,3.308594 -3.308594,3.308594 h -0.890625 c -1.828125,0 -3.308594,-1.480469 -3.308594,-3.308594 V 11.59375 c 0,-1.828125 1.480469,-3.308594 3.308594,-3.308594 h 0.890625 c 1.828125,0 3.308594,1.480469 3.308594,3.308594 z m 0,0"
       fill="#a51d2d"
       id="path4091" /><path
       d="m 117.72656,26.523438 -0.008,-3.5625 c 0,-2.003907 -0.36328,-3.769532 -1,-5.296876 H 43.351562 c -2.003906,0 -3.628906,1.371094 -3.628906,3.0625 v 2.734376 c 0,1.691406 1.625,3.0625 3.628906,3.0625 z m 0,0"
       fill="#a51d2d"
       id="path4093" /><path
       d="m 117.72266,25.15625 -0.004,-2.195312 c 0,-2.003907 -0.36328,-3.769532 -1,-5.296876 H 43.351562 c -1.179687,0.02344 -2.269531,0.433594 -2.925781,1.257813 0.0078,0.984375 0.01563,1.957031 0.01563,3.839844 0,1.429687 1.574219,2.394531 3.5625,2.394531 z m 0,0"
       fill="#c01c28"
       id="path4095" /><path
       d="M 117.72656,36.117188 H 43.351562 c -2.003906,0 -3.628906,1.371093 -3.628906,3.0625 v 2.734374 c 0,1.691407 1.625,3.0625 3.628906,3.0625 h 73.367188 c 0.63672,-1.527343 1,-3.292968 1,-5.296874 z m 0,0"
       fill="#a51d2d"
       id="path4097" /><path
       d="M 117.72656,36.117188 H 43.351562 c -1.179687,0.02344 -2.269531,0.433593 -2.925781,1.257812 0.0078,0.984375 0.01563,1.957031 0.01563,3.839844 0,1.429687 1.574219,2.394531 3.5625,2.394531 H 117.1875 c 0.33984,-1.191406 0.53125,-2.496094 0.53125,-3.929687 z m 0,0"
       fill="#c01c28"
       id="path4099" /><path
       d="M 27.085938,31.320312 H 0.738281 v -0.28125 c 0.050781,-2.371093 1.53125,-4.921874 5.714844,-4.921874 l 20.632813,0.01172 z m 0,0 H 0.738281 v 0.28125 c 0.050781,2.371094 1.53125,4.921876 5.714844,4.921876 l 20.632813,-0.01563 z m 0,0"
       fill="#b5835a"
       id="path4101" /><path
       d="M 28.582031,31.320312 H 1.84375 v -0.28125 c 0.050781,-2.371093 1.554688,-4.921874 5.800781,-4.921874 l 20.9375,0.01172 z m 0,0 H 1.84375 v 0.28125 c 0.050781,2.371094 1.554688,4.921876 5.800781,4.921876 l 20.9375,-0.01563 z m 0,0"
       fill="#cdab8f"
       id="path4103" /><path
       d="M 104.70313,20.230469 98.78125,14.328125 C 93.050781,8.601562 85.878906,9.746094 81.269531,14.351562 l -53.242187,49.972657 -2.65625,2.65625 32.582031,32.578125 2.652344,-2.65625 49.972661,-53.238282 c 4.60937,-4.609374 5.7539,-11.785156 0.0273,-17.511718 z m 0,0"
       fill="#57e389"
       id="path4105" /><path
       d="M 30.367188,66.664062 58.265625,94.5625 c 1.292969,1.292969 1.292969,3.390625 0,4.679688 L 57.636719,99.875 c -1.292969,1.29297 -3.386719,1.29297 -4.679688,0 L 25.058594,71.976562 c -1.292969,-1.292968 -1.292969,-3.386718 0,-4.679687 L 25.6875,66.664062 c 1.292969,-1.289062 3.386719,-1.289062 4.679688,0 z m 0,0"
       fill="#26a269"
       id="path4107" /><path
       d="m 101.30469,16.84375 -2.52344,-2.515625 c -1.417969,-1.414063 -2.921875,-2.40625 -4.453125,-3.035156 L 42.449219,63.171875 c -1.417969,1.417969 -1.597657,3.535156 -0.402344,4.730469 l 1.933594,1.933594 c 1.195312,1.195312 3.316406,1.015624 4.730469,-0.398438 z m 0,0"
       fill="#26a269"
       id="path4109" /><path
       d="m 100.33594,15.878906 -1.55469,-1.550781 c -1.417969,-1.414063 -2.921875,-2.40625 -4.453125,-3.035156 L 42.449219,63.171875 c -0.816407,0.847656 -1.296875,1.90625 -1.179688,2.957031 0.703125,0.691406 1.394531,1.371094 2.726563,2.703125 1.011718,1.011719 2.808594,0.582031 4.210937,-0.824219 z m 0,0"
       fill="#2ec27e"
       id="path4111" /><path
       d="M 108.08984,23.628906 55.496094,76.21875 c -1.414063,1.417969 -1.59375,3.535156 -0.398438,4.730469 l 1.933594,1.933593 c 1.195312,1.199219 3.3125,1.019532 4.730469,-0.398437 L 113.64063,30.605469 c -0.62891,-1.53125 -1.6211,-3.035157 -3.03516,-4.453125 z m 0,0"
       fill="#26a269"
       id="path4113" /><path
       d="M 108.08984,23.628906 55.710938,76.007812 55.496094,76.21875 c -0.8125,0.851562 -1.296875,1.910156 -1.175782,2.957031 0.699219,0.695313 1.394532,1.375 2.726563,2.707031 1.007813,1.011719 2.804687,0.578126 4.210937,-0.824218 l 51.749998,-51.75 c -0.60156,-1.082032 -1.39062,-2.144532 -2.40234,-3.15625 z m 0,0"
       fill="#2ec27e"
       id="path4115" /><path
       d="m 40.605469,84.328125 -18.632813,18.632815 -0.199218,-0.20313 c -1.640626,-1.71093 -2.398438,-4.562498 0.5625,-7.519529 L 36.933594,80.65625 Z m 0,0 -18.632813,18.632815 0.199219,0.19922 c 1.714844,1.63672 4.566406,2.39453 7.523437,-0.5625 L 44.273438,87.996094 Z m 0,0"
       fill="#b5835a"
       id="path4117" /><path
       d="m 41.664062,83.269531 -18.910156,18.910159 -0.199218,-0.20313 c -1.636719,-1.71093 -2.378907,-4.578122 0.621093,-7.582029 L 37.992188,79.601562 Z m 0,0 -18.910156,18.910159 0.199219,0.19922 c 1.714844,1.63672 4.582031,2.3789 7.582031,-0.625 L 45.332031,86.941406 Z m 0,0"
       fill="#cdab8f"
       id="path4119" /><path
       d="m 100.35938,10.101562 -8.363286,0.01563 c -8.097656,0 -12.363282,5.878906 -12.363282,12.398437 l -2.3125,72.980469 v 3.757812 h 46.074218 v -3.757812 l -2.3125,-72.980469 c 0,-6.519531 -4.26172,-12.398437 -12.36328,-12.398437 z m 0,0"
       fill="#62a0ea"
       id="path4121" /><path
       d="m 80.628906,95.5 h 39.457034 c 1.82422,0 3.30859,1.480469 3.30859,3.308594 v 0.890625 c 0,1.828121 -1.48437,3.308591 -3.30859,3.308591 H 80.628906 c -1.828125,0 -3.308594,-1.48047 -3.308594,-3.308591 v -0.890625 c 0,-1.828125 1.480469,-3.308594 3.308594,-3.308594 z m 0,0"
       fill="#1a5fb4"
       id="path4123" /><path
       d="m 95.558594,10.109375 -3.5625,0.0078 c -2,0 -3.765625,0.359374 -5.292969,1 v 73.367187 c 0,2.003906 1.367187,3.628906 3.058594,3.628906 h 2.734375 c 1.691406,0 3.066406,-1.625 3.0625,-3.628906 z m 0,0"
       fill="#1a5fb4"
       id="path4125" /><path
       d="m 94.195312,10.113281 -2.199218,0.0039 c -2,0 -3.765625,0.359374 -5.292969,1 v 73.367187 c 0.02344,1.175781 0.429687,2.265625 1.253906,2.925781 0.988281,-0.0078 1.957031,-0.01563 3.839844,-0.01563 1.433594,0 2.398437,-1.574219 2.398437,-3.5625 z m 0,0"
       fill="#1c71d8"
       id="path4127" /><path
       d="m 105.15625,10.109375 v 74.375 c 0,2.003906 1.36719,3.628906 3.05859,3.628906 h 2.73438 c 1.69141,0 3.06641,-1.625 3.0625,-3.628906 V 11.117188 c -1.52344,-0.640626 -3.29297,-1 -5.29297,-1 z m 0,0"
       fill="#1a5fb4"
       id="path4129" /><path
       d="m 105.15625,10.109375 v 74.375 c 0.0234,1.175781 0.42969,2.265625 1.25391,2.925781 0.98828,-0.0078 1.95703,-0.01563 3.84375,-0.01563 1.42968,0 2.39453,-1.574219 2.39453,-3.5625 V 10.648438 c -1.19141,-0.339844 -2.4961,-0.53125 -3.92969,-0.53125 z m 0,0"
       fill="#1c71d8"
       id="path4131" /><path
       d="m 100.35547,100.74609 v 26.35157 h -0.28125 c -2.371095,-0.0508 -4.921876,-1.53125 -4.921876,-5.71875 l 0.01563,-20.63282 z m 0,0 v 26.35157 h 0.28516 c 2.37109,-0.0508 4.92187,-1.53125 4.92187,-5.71875 l -0.0156,-20.63282 z m 0,0"
       fill="#b5835a"
       id="path4133" /><path
       d="m 100.35547,99.253906 v 26.738284 h -0.28125 c -2.371095,-0.0547 -4.921876,-1.55469 -4.921876,-5.80078 l 0.01563,-20.937504 z m 0,0 v 26.738284 h 0.28516 c 2.37109,-0.0547 4.92187,-1.55469 4.92187,-5.80078 l -0.0156,-20.937504 z m 0,0"
       fill="#cdab8f"
       id="path4135" /></g></svg>
