<?xml version="1.0" encoding="UTF-8" standalone="no"?>
<svg
   style="isolation:isolate"
   width="256"
   height="256"
   version="1.1"
   id="svg5"
   xml:space="preserve"
   xmlns="http://www.w3.org/2000/svg"
   xmlns:svg="http://www.w3.org/2000/svg"><defs
     id="defs1"><filter
       id="a"
       width="1.0842484"
       height="1.1077841"
       x="-0.042124196"
       y="-0.045133094"
       color-interpolation-filters="sRGB"
       filterUnits="objectBoundingBox"><feGaussianBlur
         in="SourceGraphic"
         stdDeviation="4.294"
         id="feGaussianBlur1" /><feOffset
         dy="4"
         result="pf_100_offsetBlur"
         id="feOffset1" /><feFlood
         flood-opacity=".4"
         id="feFlood1" /><feComposite
         in2="pf_100_offsetBlur"
         operator="in"
         result="pf_100_dropShadow"
         id="feComposite1" /><feBlend
         in="SourceGraphic"
         in2="pf_100_dropShadow"
         id="feBlend1" /></filter></defs><path
     fill="#f7f7f7"
     d="M165.689 11.95c74.056 0 84.639 10.557 84.639 84.544v59.251c0 73.986-10.583 84.543-84.639 84.543h-75.37c-74.055 0-84.639-10.557-84.639-84.543V96.494c0-73.987 10.584-84.544 84.639-84.544h75.37z"
     filter="url(#a)"
     id="path1"
     style="fill:#4b7ae5;fill-opacity:1" /><path
     fill="#feffff"
     opacity="1"
     stroke="none"
     d="M 69.626373,159.98967 C 63.472946,152.14494 58.622676,143.61642 55.597099,134.0579 41.954482,90.957616 68.216576,45.474163 112.48916,36.266368 c 22.56408,-4.692861 43.1809,0.436571 61.76947,14.491084 0.20673,0.103724 0.38436,0.192425 0.38436,0.192425 0.003,0.133934 0.0672,0.226699 0.33319,0.387047 0.26854,0.179372 0.39475,0.250001 0.52097,0.320627 0.0783,0.110337 0.1566,0.220671 0.3967,0.424025 0.1618,0.09301 0.34441,0.132698 0.34441,0.132698 0,0 0.10183,-0.05527 0.074,0.03711 0.12027,0.213356 0.26837,0.334329 0.41648,0.455302 -10e-4,0.108324 0.0503,0.176658 0.29993,0.321047 2.79971,2.783013 5.45436,5.449993 8.16945,8.240181 0.48621,0.589557 0.91199,1.055904 1.34427,1.504719 0.007,-0.01753 -0.0285,-0.0044 0.0248,0.125047 1.24495,1.699442 2.43658,3.269375 3.63901,4.824953 0.0111,-0.01436 -0.0219,-0.02921 0.003,0.10315 0.29511,0.468062 0.56451,0.803773 0.83475,1.118164 8.2e-4,-0.02129 -0.0415,-0.01555 -0.0145,0.128528 2.08128,3.884995 4.13561,7.625912 6.19192,11.520082 0.66727,1.742894 1.33257,3.332522 1.97175,4.946298 -0.0261,0.02413 0.0762,0.10849 0.0688,0.131834 -0.008,0.02335 0.0361,0.04579 0.0334,0.197473 0.29093,1.000576 0.58465,1.849469 0.86413,2.805842 0.0189,0.171701 0.0521,0.235922 0.1088,0.452142 3.25264,11.298724 4.1082,22.633744 2.17887,34.070334 -3.03056,17.96447 -11.27105,33.174 -24.98711,45.23655 -12.63074,11.10803 -27.4167,17.28178 -44.20389,18.61411 -7.32836,0.58159 -14.60156,-0.0662 -21.78722,-1.37767 -3.33434,-0.60855 -6.52844,-1.98547 -9.89742,-3.06932 -0.19407,-0.0513 -0.27681,-0.0474 -0.41741,-0.0982 -0.14903,-0.11869 -0.25017,-0.14612 -0.44338,-0.22022 -0.16009,-0.0851 -0.23805,-0.087 -0.40875,-0.1421 -0.2873,-0.13019 -0.481889,-0.20723 -0.812199,-0.35813 -2.25169,-1.02657 -4.36767,-1.97927 -6.58409,-3.02846 -2.18335,-1.2806 -4.266268,-2.46472 -6.425816,-3.76711 -1.954358,-1.4312 -3.832078,-2.7441 -5.740735,-4.14135 -0.112024,-0.18408 -0.216825,-0.23544 -0.410646,-0.36017 -0.578688,-0.5115 -1.092069,-0.90127 -1.688864,-1.39284 -2.769907,-2.74298 -5.45641,-5.38415 -8.142909,-8.02532 0.03003,-0.0981 0.0075,-0.18206 -0.209712,-0.3927 -0.309479,-0.20438 -0.476995,-0.26795 -0.644513,-0.3315 0,0 0.111355,0.0497 0.117891,-0.0935 0.0065,-0.14323 -0.134858,-0.25884 -0.134858,-0.25884 m 101.771421,-59.7547 c -0.13458,-0.0744 -0.26917,-0.14879 -0.38924,-0.18317 0,0 0.0394,-0.0161 -0.0167,-0.295664 -0.63055,-0.86992 -1.26112,-1.73984 -2.00851,-2.84263 -0.14724,-0.074 -0.29449,-0.14805 -0.40483,-0.13166 0,0 0.0898,-0.0385 0.0402,-0.28572 -0.16554,-0.18223 -0.3311,-0.36445 -0.50151,-0.5388 0,0 0.009,-0.002 -0.0487,-0.21759 -0.1173,-0.0887 -0.23461,-0.17745 -0.4366,-0.50177 -0.47688,-0.45797 -0.95375,-0.915956 -1.5692,-1.617992 -1.10624,-0.966841 -2.21249,-1.933674 -3.47929,-2.987711 0,0 -0.17856,-0.03857 -0.25702,-0.312311 -1.21002,-0.927611 -2.36441,-1.943279 -3.64804,-2.754406 -0.9918,-0.626727 -2.14562,-0.997081 -3.29937,-1.76464 -0.30246,-0.245147 -0.57198,-0.556444 -0.91215,-0.725897 -13.13486,-6.542553 -26.51671,-6.984109 -39.82103,-0.871237 -18.463909,8.483531 -28.853287,27.816978 -26.056779,47.901768 0.763345,5.48235 2.33413,10.75088 5.29107,15.81781 1.61847,2.39126 3.23696,4.78252 4.87447,7.13988 0,0 -0.0326,-0.021 0.0433,0.19919 0.12712,0.0823 0.25424,0.16462 0.48097,0.4972 0.912259,0.90038 1.824509,1.80074 2.837239,2.9301 0.503,0.42911 1.00602,0.85821 1.61194,1.486 0.12584,0.0715 0.25169,0.14297 0.50709,0.45602 1.4443,1.04046 2.88859,2.08093 4.34312,3.08595 0,0 -0.0368,-0.002 0.10028,0.22338 0.38323,0.20884 0.76645,0.41769 1.30264,0.85705 13.97588,8.08328 28.40409,9.03372 43.07328,2.24364 18.25404,-8.44947 28.74245,-28.31872 25.64142,-48.18793 -0.95093,-6.0928 -2.82181,-11.90444 -6.4419,-17.31865 -0.15029,-0.2141 -0.30058,-0.4282 -0.44138,-0.65153 0,0 -0.0112,0.005 -0.0483,-0.21751 -0.11785,-0.085 -0.2357,-0.17005 -0.34774,-0.20005 0,0 0.0549,-0.007 -0.0188,-0.23112 z"
     id="path6-5"
     style="isolation:isolate;stroke-width:0.410315" /><path
     fill="#fefeff"
     opacity="1"
     stroke="none"
     d="m 182.06903,194.83059 c 0.0394,0.13679 0.11989,0.24215 0.41304,0.40607 0.17153,0.09 0.36618,0.13492 0.36618,0.13492 0,0 0.05,-0.0617 0.0323,0.0376 0.12654,0.17434 0.27072,0.24935 0.4149,0.32437 0,0 -0.0219,-0.0513 0.0174,0.0755 0.38845,0.36344 0.73759,0.6 1.08674,0.83655 0,0 -0.0293,-0.0161 0.009,0.12653 3.73036,3.97994 7.42283,7.81725 11.148,11.83312 0.71546,4.48807 -1.60205,6.66895 -5.69888,5.49477 -18.47835,-5.29605 -37.39816,-7.43718 -56.54587,-7.66479 -7.77062,-0.0923 -15.55521,0.29408 -23.32143,0.69538 -10.564149,0.54583 -21.010668,2.07322 -31.336263,4.38596 -4.503109,1.00859 -8.996445,2.06083 -13.657435,3.05575 -0.597119,-0.11147 -1.031019,-0.18549 -1.464918,-0.25949 -2.669379,-2.35408 -2.834039,-4.50023 -0.587903,-7.23209 6.98866,-8.4999 15.323075,-15.35177 25.013216,-20.57482 1.075085,-0.57948 1.893027,-0.60075 3.011054,-0.0815 24.772069,11.50551 49.462589,11.32634 74.086109,-0.54091 0.81025,-0.39048 2.19908,-0.39841 2.95033,0.0423 4.17358,2.44875 8.23332,5.09153 12.53724,7.79591 0.36126,0.22047 0.51731,0.3129 0.67336,0.40534 0.009,0.14019 0.0784,0.23655 0.34953,0.39832 0.26214,0.17455 0.38347,0.2398 0.5048,0.30506 z"
     id="path7-6"
     style="isolation:isolate;stroke-width:0.410315" /><path
     fill="#ffffff"
     opacity="1"
     stroke="none"
     d="m 104.13276,148.70695 c -3.49189,-4.92356 -6.032459,-10.23123 -7.103479,-16.24598 -2.00222,-11.24431 0.64029,-21.30111 7.613829,-30.20871 6.00454,-7.669853 14.01247,-12.166812 23.58792,-13.636298 10.14856,-1.55743 19.36701,1.005239 27.64174,7.040984 0.11013,0.0803 0.22564,0.15299 0.53082,0.38381 0.34127,0.22684 0.49038,0.29912 0.63947,0.37139 0,0 -0.0195,-0.0372 0.0186,0.0925 0.40377,0.35646 0.76951,0.58322 1.13524,0.80999 0,-10e-6 0.0123,-0.0423 0.0469,0.0826 1.13702,1.24534 2.23943,2.3658 3.34884,3.596744 0.12879,0.18618 0.25057,0.26189 0.3732,0.3169 8.2e-4,-0.0207 -0.0405,-0.0228 -0.002,0.0839 0.16347,0.18486 0.28843,0.26299 0.41073,0.32242 -0.002,-0.0187 -0.0401,-0.0136 -0.0112,0.0987 0.15844,0.18618 0.28801,0.25994 0.4167,0.31573 -8.2e-4,-0.0179 -0.0368,-0.0157 -0.01,0.10249 0.15582,0.18923 0.28452,0.26026 0.38265,0.31535 -0.0305,-0.0159 -0.0635,0.0447 -0.0174,0.1746 0.68046,0.9876 1.31479,1.84523 1.99765,2.84051 0.33428,0.52122 0.62005,0.90478 0.87875,1.33569 -0.0271,0.0473 0.0576,0.11611 0.0715,0.26283 0.69585,1.42384 1.37774,2.70096 2.05073,4.10898 0.12163,0.33345 0.25218,0.53602 0.38479,0.83063 0.002,0.0921 0.0609,0.26654 0.0464,0.42413 0.79743,3.82545 2.1074,7.46466 2.32064,11.16702 0.4863,8.44264 -1.68975,16.33401 -6.60954,23.30014 -7.45575,10.55692 -17.76811,15.88904 -30.63901,16.21937 -5.11453,0.13125 -9.99607,-1.16789 -14.82667,-3.13573 -1.28008,-0.64705 -2.46278,-1.19735 -3.68188,-1.79132 -0.0364,-0.0437 -0.13743,0.009 -0.20865,-0.10216 -0.2291,-0.18137 -0.38697,-0.2522 -0.60788,-0.44566 -1.08807,-0.75023 -2.11311,-1.37783 -3.17176,-1.98359 -0.0336,0.0219 0.0111,0.0888 -4.1e-4,-0.0379 -0.15961,-0.18641 -0.30821,-0.24612 -0.45323,-0.28778 0.003,0.018 0.0394,0.009 0.0244,-0.11068 -0.15811,-0.18534 -0.30138,-0.25067 -0.44573,-0.29817 -0.001,0.0178 0.0346,0.0196 0.004,-0.0921 -0.15886,-0.18571 -0.2881,-0.25971 -0.41378,-0.31799 0.003,0.0157 0.0347,0.008 -0.0254,-0.10637 -0.30316,-0.18902 -0.54616,-0.26404 -0.83462,-0.47228 -1.24151,-1.27221 -2.43754,-2.41117 -3.63358,-3.55014 0,0 -0.002,0.0306 -0.0134,-0.10173 -0.27524,-0.46655 -0.5389,-0.80068 -0.80257,-1.13481 0,0 -0.0213,0.0373 -0.0378,-0.0756 -0.13666,-0.22941 -0.25677,-0.34587 -0.37688,-0.46234 z"
     id="path81-2"
     style="isolation:isolate;stroke-width:0.410315" /><defs
     id="defs2"><filter
       id="b"
       width="1.1421462"
       height="1.2085695"
       x="-0.071073106"
       y="-0.087335595"
       color-interpolation-filters="sRGB"
       filterUnits="objectBoundingBox"><feGaussianBlur
         in="SourceGraphic"
         stdDeviation="4.294"
         id="feGaussianBlur2" /><feOffset
         dy="4"
         result="pf_100_offsetBlur"
         id="feOffset2" /><feFlood
         flood-opacity=".4"
         id="feFlood2" /><feComposite
         in2="pf_100_offsetBlur"
         operator="in"
         result="pf_100_dropShadow"
         id="feComposite2" /><feBlend
         in="SourceGraphic"
         in2="pf_100_dropShadow"
         id="feBlend2" /></filter></defs><g
     opacity=".4"
     id="g5"><linearGradient
       id="c"
       x1=".517"
       x2=".517"
       y2="1"
       gradientTransform="matrix(244.65 0 0 228.34 5.68 11.95)"
       gradientUnits="userSpaceOnUse"><stop
         offset="0%"
         stop-color="#ffffff"
         id="stop2" /><stop
         offset="12.5%"
         stop-color="#ffffff"
         stop-opacity=".098"
         id="stop3" /><stop
         offset="92.5%"
         stop-opacity=".098"
         id="stop4" /><stop
         offset="100%"
         stop-opacity=".498"
         id="stop5" /></linearGradient><path
       fill="url(#c)"
       fill-rule="evenodd"
       d="M165.068 11.951c4.328-.01 8.656.04 12.984.138 3.875.078 7.75.226 11.626.452 3.453.196 6.905.481 10.348.854 3.06.335 6.118.786 9.148 1.346a80.47 80.47 0 0 1 8.046 1.916 53.64 53.64 0 0 1 7.023 2.584 40.413 40.413 0 0 1 6.06 3.35 35.176 35.176 0 0 1 5.134 4.215 35.072 35.072 0 0 1 4.22 5.119 41.692 41.692 0 0 1 3.363 6.042 55.982 55.982 0 0 1 2.597 7.005 80.224 80.224 0 0 1 1.918 8.037 124.43 124.43 0 0 1 1.348 9.127c.374 3.439.659 6.878.856 10.326.226 3.861.373 7.732.462 11.593.088 4.323.138 8.646.128 12.96v58.21c.01 4.324-.04 8.637-.128 12.96a325.177 325.177 0 0 1-.462 11.593 200.984 200.984 0 0 1-.856 10.326 124.691 124.691 0 0 1-1.348 9.137 80.687 80.687 0 0 1-1.918 8.027 55.414 55.414 0 0 1-2.597 7.005 41.18 41.18 0 0 1-3.364 6.042 34.559 34.559 0 0 1-4.22 5.119 35.177 35.177 0 0 1-5.134 4.215 40.412 40.412 0 0 1-6.059 3.35 55.138 55.138 0 0 1-7.023 2.594 77.806 77.806 0 0 1-8.046 1.906 120 120 0 0 1-9.148 1.346c-3.443.373-6.895.658-10.348.854-3.875.226-7.75.374-11.626.462-4.328.088-8.656.138-12.984.128H90.942c-4.328.01-8.656-.04-12.984-.128a328.387 328.387 0 0 1-11.626-.462 203.003 203.003 0 0 1-10.348-.854 120 120 0 0 1-9.148-1.346 77.806 77.806 0 0 1-8.046-1.906 55.139 55.139 0 0 1-7.023-2.594 40.413 40.413 0 0 1-6.06-3.35 35.176 35.176 0 0 1-5.134-4.215 34.56 34.56 0 0 1-4.22-5.119 41.183 41.183 0 0 1-3.363-6.042 55.415 55.415 0 0 1-2.597-7.005 80.682 80.682 0 0 1-1.918-8.027 124.688 124.688 0 0 1-1.348-9.137 200.993 200.993 0 0 1-.856-10.326 325.212 325.212 0 0 1-.462-11.593 569.197 569.197 0 0 1-.128-12.96v-58.21c-.01-4.314.04-8.637.128-12.96.089-3.86.236-7.732.462-11.593.197-3.448.482-6.887.856-10.326.335-3.055.787-6.101 1.348-9.127a80.219 80.219 0 0 1 1.918-8.037 55.983 55.983 0 0 1 2.597-7.005 41.695 41.695 0 0 1 3.364-6.042 35.072 35.072 0 0 1 4.22-5.119 35.176 35.176 0 0 1 5.134-4.215 40.413 40.413 0 0 1 6.059-3.35 53.64 53.64 0 0 1 7.023-2.584 80.47 80.47 0 0 1 8.046-1.916 125.11 125.11 0 0 1 9.148-1.346c3.443-.373 6.895-.658 10.348-.854 3.875-.226 7.75-.374 11.626-.452 4.328-.098 8.656-.148 12.984-.138h74.126zm.01 4.009c4.298-.01 8.597.039 12.895.127 3.827.089 7.653.236 11.48.452 3.383.197 6.766.472 10.13.845 2.971.315 5.932.747 8.863 1.297a75.943 75.943 0 0 1 7.653 1.818 50.493 50.493 0 0 1 6.501 2.397 37.038 37.038 0 0 1 5.47 3.026 30.383 30.383 0 0 1 4.524 3.724 31.05 31.05 0 0 1 3.738 4.519 37.271 37.271 0 0 1 3.03 5.443 51.46 51.46 0 0 1 2.4 6.494 75.563 75.563 0 0 1 1.829 7.634c.54 2.928.974 5.875 1.298 8.842.374 3.36.65 6.73.846 10.11.217 3.822.374 7.634.453 11.456.088 4.293.137 8.577.137 12.87v58.212c0 4.293-.049 8.577-.137 12.87a317.503 317.503 0 0 1-.453 11.456c-.196 3.38-.472 6.75-.846 10.12a121.689 121.689 0 0 1-1.298 8.832 75.562 75.562 0 0 1-1.83 7.634 50.902 50.902 0 0 1-2.4 6.494 36.767 36.767 0 0 1-3.03 5.443 30.615 30.615 0 0 1-3.737 4.53 30.938 30.938 0 0 1-4.525 3.713 37.038 37.038 0 0 1-5.469 3.026 49.07 49.07 0 0 1-6.501 2.397 75.942 75.942 0 0 1-7.653 1.818c-2.931.55-5.892.982-8.863 1.306-3.364.364-6.747.649-10.13.836-3.827.216-7.653.373-11.48.452-4.298.098-8.597.137-12.895.137H90.932c-4.298 0-8.597-.04-12.895-.137a320.093 320.093 0 0 1-11.48-.452 193.696 193.696 0 0 1-10.13-.836 116.71 116.71 0 0 1-8.863-1.306 75.942 75.942 0 0 1-7.653-1.818 49.07 49.07 0 0 1-6.501-2.397 37.038 37.038 0 0 1-5.47-3.026 30.938 30.938 0 0 1-4.524-3.714 30.615 30.615 0 0 1-3.738-4.529 36.766 36.766 0 0 1-3.03-5.443 50.903 50.903 0 0 1-2.4-6.494 75.567 75.567 0 0 1-1.829-7.634 121.69 121.69 0 0 1-1.298-8.832c-.374-3.37-.65-6.74-.846-10.12a317.535 317.535 0 0 1-.453-11.456 623.851 623.851 0 0 1-.137-12.87V97.014c0-4.293.049-8.577.137-12.87.079-3.822.236-7.634.453-11.456.197-3.38.472-6.75.846-10.11.324-2.967.757-5.914 1.298-8.842a75.568 75.568 0 0 1 1.83-7.634 51.46 51.46 0 0 1 2.4-6.494 37.27 37.27 0 0 1 3.03-5.443 31.05 31.05 0 0 1 3.737-4.52 30.384 30.384 0 0 1 4.525-3.723 37.039 37.039 0 0 1 5.469-3.026 50.494 50.494 0 0 1 6.501-2.397 75.943 75.943 0 0 1 7.653-1.818c2.931-.55 5.892-.982 8.863-1.297 3.364-.373 6.747-.648 10.13-.845a344.71 344.71 0 0 1 11.48-.452c4.298-.088 8.597-.137 12.895-.127H165.078z"
       id="path5" /></g></svg>
