<?xml version="1.0" encoding="UTF-8" standalone="no"?>
<svg
   style="isolation:isolate"
   width="256"
   height="256"
   version="1.1"
   id="svg15"
   sodipodi:docname="keep.svg"
   xml:space="preserve"
   inkscape:version="1.4 (e7c3feb100, 2024-10-09)"
   xmlns:inkscape="http://www.inkscape.org/namespaces/inkscape"
   xmlns:sodipodi="http://sodipodi.sourceforge.net/DTD/sodipodi-0.dtd"
   xmlns="http://www.w3.org/2000/svg"
   xmlns:svg="http://www.w3.org/2000/svg"><sodipodi:namedview
     id="namedview15"
     pagecolor="#ffffff"
     bordercolor="#000000"
     borderopacity="0.25"
     inkscape:showpageshadow="2"
     inkscape:pageopacity="0.0"
     inkscape:pagecheckerboard="0"
     inkscape:deskcolor="#d1d1d1"
     inkscape:zoom="3.15"
     inkscape:cx="127.93651"
     inkscape:cy="128.09524"
     inkscape:window-width="1910"
     inkscape:window-height="1227"
     inkscape:window-x="64"
     inkscape:window-y="159"
     inkscape:window-maximized="0"
     inkscape:current-layer="svg15" /><defs
     id="defs1"><filter
       id="a"
       width="1.0842484"
       height="1.1077841"
       x="-0.042124196"
       y="-0.045133094"
       color-interpolation-filters="sRGB"
       filterUnits="objectBoundingBox"><feGaussianBlur
         in="SourceGraphic"
         stdDeviation="4.294"
         id="feGaussianBlur1" /><feOffset
         dy="4"
         result="pf_100_offsetBlur"
         id="feOffset1" /><feFlood
         flood-opacity=".4"
         id="feFlood1" /><feComposite
         in2="pf_100_offsetBlur"
         operator="in"
         result="pf_100_dropShadow"
         id="feComposite1" /><feBlend
         in="SourceGraphic"
         in2="pf_100_dropShadow"
         id="feBlend1" /></filter><linearGradient
       id="e-3"
       x1="63.9998"
       y1="-3.314"
       x2="63.9998"
       y2="118.486"
       gradientUnits="userSpaceOnUse"><stop
         offset="0"
         stop-color="#414141"
         id="stop1-6" /><stop
         offset=".196"
         stop-color="#3e3e3e"
         id="stop2-7" /><stop
         offset="1"
         stop-color="#3a3a3a"
         id="stop3-5" /></linearGradient><radialGradient
       id="g-3"
       cx="302.8014"
       cy="-375.5301"
       fx="302.8014"
       fy="-375.5301"
       r="207.2339"
       gradientTransform="matrix(0.3539,0,0,0.3539,-46.999,185.5275)"
       gradientUnits="userSpaceOnUse"><stop
         offset=".6733"
         stop-color="#fcfcfc"
         stop-opacity="0"
         id="stop4" /><stop
         offset="1"
         stop-color="#fcfcfc"
         id="stop5" /></radialGradient><radialGradient
       id="i"
       cx="311.1472"
       cy="-348.2325"
       fx="311.1472"
       fy="-348.2325"
       r="172.3893"
       gradientTransform="matrix(0.3539,0,0,0.3539,-46.999,185.5275)"
       gradientUnits="userSpaceOnUse"><stop
         offset=".1088"
         stop-color="#0f0f0d"
         stop-opacity="0"
         id="stop6" /><stop
         offset=".8856"
         stop-color="#414141"
         stop-opacity="0"
         id="stop7" /><stop
         offset=".9339"
         stop-color="#1e1e1d"
         stop-opacity=".6841"
         id="stop8" /><stop
         offset=".9874"
         stop-color="#0f0f0d"
         id="stop9" /></radialGradient><radialGradient
       id="n"
       cx="316.8927"
       cy="-451.5973"
       fx="316.8927"
       fy="-451.5973"
       r="334.8364"
       gradientTransform="matrix(0.3539,0,0,0.2026,-46.999,117.9256)"
       gradientUnits="userSpaceOnUse"><stop
         offset="0"
         stop-color="#2e6b26"
         id="stop10" /><stop
         offset="1"
         stop-color="#6ab536"
         id="stop11" /></radialGradient><radialGradient
       id="p"
       cx="314.3875"
       cy="-453.363"
       fx="314.3875"
       fy="-453.363"
       r="65.3925"
       gradientTransform="matrix(0.3539,0,0,0.3539,-46.999,185.5275)"
       gradientUnits="userSpaceOnUse"><stop
         offset="0"
         stop-color="#6ab536"
         id="stop12-5" /><stop
         offset="1"
         stop-color="#2e6b26"
         id="stop13-6" /></radialGradient><radialGradient
       id="r"
       cx="322.2128"
       cy="-390.2547"
       fx="322.2128"
       fy="-390.2547"
       r="96.5851"
       gradientTransform="matrix(0.3356,0,0,0.5572,-44.2199,256.5751)"
       gradientUnits="userSpaceOnUse"><stop
         offset="0"
         stop-color="#000"
         id="stop14-2" /><stop
         offset=".7842"
         stop-color="#4f4f4f"
         stop-opacity="0"
         id="stop15-9" /></radialGradient><radialGradient
       id="u"
       cx="312.9946"
       cy="-473.0178"
       fx="312.9946"
       fy="-473.0178"
       r="223.5101"
       gradientTransform="matrix(0.3539,0,0,0.3539,-46.999,185.5275)"
       gradientUnits="userSpaceOnUse"><stop
         offset="0"
         stop-color="#f5f5f5"
         id="stop16" /><stop
         offset=".5481"
         stop-color="#f2f2f2"
         id="stop17" /></radialGradient></defs><path
     d="M165.689 11.95c74.056 0 84.639 10.557 84.639 84.544v59.251c0 73.986-10.583 84.543-84.639 84.543h-75.37c-74.055 0-84.639-10.557-84.639-84.543V96.494c0-73.987 10.584-84.544 84.639-84.544h75.37z"
     filter="url(#a)"
     id="path1" /><linearGradient
     id="b"
     x1=".25"
     x2=".75"
     y1=".036"
     y2=".844"
     gradientTransform="matrix(244.65 0 0 228.34 5.68 11.95)"
     gradientUnits="userSpaceOnUse"><stop
       offset="0%"
       stop-color="#f61111"
       id="stop1" /><stop
       offset="48.272%"
       stop-color="#ff4f4f"
       id="stop2" /><stop
       offset="100%"
       stop-color="#ff7a55"
       id="stop3" /></linearGradient><path
     fill="url(#b)"
     d="M165.69 11.95c74.056 0 84.64 10.557 84.64 84.544v59.252c0 73.986-10.584 84.544-84.64 84.544H90.32c-74.056 0-84.64-10.558-84.64-84.544V96.494c0-73.987 10.584-84.544 84.64-84.544h75.37z"
     id="path3"
     style="fill:#333333;fill-opacity:1" /><defs
     id="defs6"><filter
       id="c"
       width="1.2125737"
       height="1.1691036"
       x="-0.10628685"
       y="-0.084551806"
       color-interpolation-filters="sRGB"
       filterUnits="objectBoundingBox"><feGaussianBlur
         stdDeviation="5.746"
         id="feGaussianBlur6" /></filter></defs><defs
     id="defs7"><filter
       id="e"
       width="1.0265625"
       height="1.0211306"
       x="-0.013281232"
       y="-0.010565297"
       color-interpolation-filters="sRGB"
       filterUnits="objectBoundingBox"><feGaussianBlur
         stdDeviation=".718"
         id="feGaussianBlur7" /></filter></defs><path
     fill="none"
     d="M130.439 207.67h54.651L92.085 106.646l-10.341 47.991 48.695 53.033z"
     id="path9" /><defs
     id="defs9"><filter
       id="f"
       width="1.217679"
       height="1.2563671"
       x="-0.10883951"
       y="-0.12818357"
       color-interpolation-filters="sRGB"
       filterUnits="objectBoundingBox"><feGaussianBlur
         stdDeviation="5.884"
         id="feGaussianBlur9" /></filter></defs><g
     opacity=".4"
     id="g15"><linearGradient
       id="g"
       x1=".517"
       x2=".517"
       y2="1"
       gradientTransform="matrix(244.65 0 0 228.34 5.68 11.95)"
       gradientUnits="userSpaceOnUse"><stop
         offset="0%"
         stop-color="#ffffff"
         id="stop12" /><stop
         offset="12.5%"
         stop-color="#ffffff"
         stop-opacity=".098"
         id="stop13" /><stop
         offset="92.5%"
         stop-opacity=".098"
         id="stop14" /><stop
         offset="100%"
         stop-opacity=".498"
         id="stop15" /></linearGradient><path
       fill="url(#g)"
       fill-rule="evenodd"
       d="M165.068 11.951c4.328-.01 8.656.04 12.984.138 3.875.078 7.75.226 11.626.452 3.453.196 6.905.481 10.348.854 3.06.335 6.118.786 9.148 1.346a80.47 80.47 0 0 1 8.046 1.916 53.64 53.64 0 0 1 7.023 2.584 40.413 40.413 0 0 1 6.06 3.35 35.176 35.176 0 0 1 5.134 4.215 35.072 35.072 0 0 1 4.22 5.119 41.692 41.692 0 0 1 3.363 6.042 55.982 55.982 0 0 1 2.597 7.005 80.224 80.224 0 0 1 1.918 8.037 124.43 124.43 0 0 1 1.348 9.127c.374 3.439.659 6.878.856 10.326.226 3.861.373 7.732.462 11.593.088 4.323.138 8.646.128 12.96v58.21c.01 4.324-.04 8.637-.128 12.96a325.177 325.177 0 0 1-.462 11.593 200.984 200.984 0 0 1-.856 10.326 124.691 124.691 0 0 1-1.348 9.137 80.687 80.687 0 0 1-1.918 8.027 55.414 55.414 0 0 1-2.597 7.005 41.18 41.18 0 0 1-3.364 6.042 34.559 34.559 0 0 1-4.22 5.119 35.177 35.177 0 0 1-5.134 4.215 40.412 40.412 0 0 1-6.059 3.35 55.138 55.138 0 0 1-7.023 2.594 77.806 77.806 0 0 1-8.046 1.906 120 120 0 0 1-9.148 1.346c-3.443.373-6.895.658-10.348.854-3.875.226-7.75.374-11.626.462-4.328.088-8.656.138-12.984.128H90.942c-4.328.01-8.656-.04-12.984-.128a328.387 328.387 0 0 1-11.626-.462 203.003 203.003 0 0 1-10.348-.854 120 120 0 0 1-9.148-1.346 77.806 77.806 0 0 1-8.046-1.906 55.139 55.139 0 0 1-7.023-2.594 40.413 40.413 0 0 1-6.06-3.35 35.176 35.176 0 0 1-5.134-4.215 34.56 34.56 0 0 1-4.22-5.119 41.183 41.183 0 0 1-3.363-6.042 55.415 55.415 0 0 1-2.597-7.005 80.682 80.682 0 0 1-1.918-8.027 124.688 124.688 0 0 1-1.348-9.137 200.993 200.993 0 0 1-.856-10.326 325.212 325.212 0 0 1-.462-11.593 569.197 569.197 0 0 1-.128-12.96v-58.21c-.01-4.314.04-8.637.128-12.96.089-3.86.236-7.732.462-11.593.197-3.448.482-6.887.856-10.326.335-3.055.787-6.101 1.348-9.127a80.219 80.219 0 0 1 1.918-8.037 55.983 55.983 0 0 1 2.597-7.005 41.695 41.695 0 0 1 3.364-6.042 35.072 35.072 0 0 1 4.22-5.119 35.176 35.176 0 0 1 5.134-4.215 40.413 40.413 0 0 1 6.059-3.35 53.64 53.64 0 0 1 7.023-2.584 80.47 80.47 0 0 1 8.046-1.916 125.11 125.11 0 0 1 9.148-1.346c3.443-.373 6.895-.658 10.348-.854 3.875-.226 7.75-.374 11.626-.452 4.328-.098 8.656-.148 12.984-.138h74.126zm.01 4.009c4.298-.01 8.597.039 12.895.127 3.827.089 7.653.236 11.48.452 3.383.197 6.766.472 10.13.845 2.971.315 5.932.747 8.863 1.297a75.943 75.943 0 0 1 7.653 1.818 50.493 50.493 0 0 1 6.501 2.397 37.038 37.038 0 0 1 5.47 3.026 30.383 30.383 0 0 1 4.524 3.724 31.05 31.05 0 0 1 3.738 4.519 37.271 37.271 0 0 1 3.03 5.443 51.46 51.46 0 0 1 2.4 6.494 75.563 75.563 0 0 1 1.829 7.634c.54 2.928.974 5.875 1.298 8.842.374 3.36.65 6.73.846 10.11.217 3.822.374 7.634.453 11.456.088 4.293.137 8.577.137 12.87v58.212c0 4.293-.049 8.577-.137 12.87a317.503 317.503 0 0 1-.453 11.456c-.196 3.38-.472 6.75-.846 10.12a121.689 121.689 0 0 1-1.298 8.832 75.562 75.562 0 0 1-1.83 7.634 50.902 50.902 0 0 1-2.4 6.494 36.767 36.767 0 0 1-3.03 5.443 30.615 30.615 0 0 1-3.737 4.53 30.938 30.938 0 0 1-4.525 3.713 37.038 37.038 0 0 1-5.469 3.026 49.07 49.07 0 0 1-6.501 2.397 75.942 75.942 0 0 1-7.653 1.818c-2.931.55-5.892.982-8.863 1.306-3.364.364-6.747.649-10.13.836-3.827.216-7.653.373-11.48.452-4.298.098-8.597.137-12.895.137H90.932c-4.298 0-8.597-.04-12.895-.137a320.093 320.093 0 0 1-11.48-.452 193.696 193.696 0 0 1-10.13-.836 116.71 116.71 0 0 1-8.863-1.306 75.942 75.942 0 0 1-7.653-1.818 49.07 49.07 0 0 1-6.501-2.397 37.038 37.038 0 0 1-5.47-3.026 30.938 30.938 0 0 1-4.524-3.714 30.615 30.615 0 0 1-3.738-4.529 36.766 36.766 0 0 1-3.03-5.443 50.903 50.903 0 0 1-2.4-6.494 75.567 75.567 0 0 1-1.829-7.634 121.69 121.69 0 0 1-1.298-8.832c-.374-3.37-.65-6.74-.846-10.12a317.535 317.535 0 0 1-.453-11.456 623.851 623.851 0 0 1-.137-12.87V97.014c0-4.293.049-8.577.137-12.87.079-3.822.236-7.634.453-11.456.197-3.38.472-6.75.846-10.11.324-2.967.757-5.914 1.298-8.842a75.568 75.568 0 0 1 1.83-7.634 51.46 51.46 0 0 1 2.4-6.494 37.27 37.27 0 0 1 3.03-5.443 31.05 31.05 0 0 1 3.737-4.52 30.384 30.384 0 0 1 4.525-3.723 37.039 37.039 0 0 1 5.469-3.026 50.494 50.494 0 0 1 6.501-2.397 75.943 75.943 0 0 1 7.653-1.818c2.931-.55 5.892-.982 8.863-1.297 3.364-.373 6.747-.648 10.13-.845a344.71 344.71 0 0 1 11.48-.452c4.298-.088 8.597-.137 12.895-.127H165.078z"
       id="path15" /></g><g
     id="c-2"
     style="isolation:isolate"
     transform="matrix(1.7578125,0,0,1.7578125,15.5,13.5)"><rect
       width="128"
       height="128"
       style="fill:none"
       id="rect17"
       x="0"
       y="0" /><g
       id="d"><path
         id="f-7"
         d="M 63.9999,124.9 C 30.4194,124.9 3.0998,97.5802 3.0998,64 c 0,-33.5802 27.3196,-60.9 60.9001,-60.9 33.5805,0 60.8999,27.3195 60.8999,60.9 0,33.5805 -27.3193,60.9 -60.8999,60.9 z m 0,-116.6759 C 33.2584,8.2241 8.2484,33.2451 8.2484,64 c 0,30.7549 25.01,55.7759 55.7515,55.7759 30.7415,0 55.7512,-25.0212 55.7512,-55.7759 0,-30.7547 -25.0097,-55.7759 -55.7512,-55.7759 z"
         style="fill:url(#e-3)" /><path
         id="h"
         d="M 63.9999,3.1238 C 30.4325,3.1238 3.1236,30.4327 3.1236,64 c 0,33.5673 27.3089,60.8762 60.8763,60.8762 33.5674,0 60.8761,-27.3091 60.8761,-60.8762 0,-33.5671 -27.3086,-60.8762 -60.8761,-60.8762 z"
         style="opacity:0.32;mix-blend-mode:lighten;fill:url(#g-3)" /><path
         id="j"
         d="M 63.9999,124.9 C 30.4194,124.9 3.0998,97.5802 3.0998,64 c 0,-33.5802 27.3196,-60.9 60.9001,-60.9 33.5805,0 60.8999,27.3195 60.8999,60.9 0,33.5805 -27.3193,60.9 -60.8999,60.9 z m 0,-116.6759 C 33.2584,8.2241 8.2484,33.2451 8.2484,64 c 0,30.7549 25.01,55.7759 55.7515,55.7759 30.7415,0 55.7512,-25.0212 55.7512,-55.7759 0,-30.7547 -25.0097,-55.7759 -55.7512,-55.7759 z"
         style="opacity:0.44;fill:url(#i)" /><path
         id="k"
         d="m 63.9999,8.5504 c -30.9783,0 -56.1809,25.2025 -56.1809,56.1808 0,30.9783 25.2025,56.1808 56.1809,56.1808 30.9784,0 56.1807,-25.2028 56.1807,-56.1808 0,-30.978 -25.2023,-56.1808 -56.1807,-56.1808 z" /><path
         id="l"
         d="M 63.9999,124.9 C 30.4194,124.9 3.0998,97.5802 3.0998,64 c 0,-33.5802 27.3196,-60.9 60.9001,-60.9 33.5805,0 60.8999,27.3195 60.8999,60.9 0,33.5805 -27.3193,60.9 -60.8999,60.9 z m 0,-120.4966 c -33.5804,0 -60.9001,26.9562 -60.9001,60.0898 0,33.1336 27.3197,60.0898 60.9001,60.0898 33.5804,0 60.8999,-26.9565 60.8999,-60.0898 C 124.8998,31.3599 97.5804,4.4034 64,4.4034 Z"
         style="opacity:0.35;fill:#0f0f0d" /></g><g
       id="m"><path
         id="o"
         d="M 63.9999,8.2241 C 33.2448,8.2241 8.2239,33.245 8.2239,64 c 0,30.755 25.0209,55.7759 55.776,55.7759 30.7551,0 55.7758,-25.0211 55.7758,-55.7759 0,-30.7548 -25.0207,-55.7759 -55.7758,-55.7759 z"
         style="fill:url(#n)" /><path
         id="q"
         d="m 63.9998,12.8613 c -9.1608,0 -16.6136,7.4528 -16.6136,16.6135 0,9.1607 7.4528,16.6135 16.6136,16.6135 9.1608,0 16.6135,-7.4528 16.6135,-16.6135 0,-9.1607 -7.4527,-16.6135 -16.6135,-16.6135 z"
         style="opacity:0.7;mix-blend-mode:lighten;fill:url(#p)" /><path
         id="s"
         d="m 34.6871,16.3645 c -0.0027,0.0191 -0.0054,0.0378 -0.0081,0.0569 -0.0725,0.0136 -0.0736,-0.0037 0.0081,-0.0569 z m 42.1177,35.8001 -0.7714,13.7822 9.1023,9.9165 -9.1023,9.9165 6.0168,6.5549 -6.0168,6.5549 0.7714,13.6696 h -25.61 V 52.1646 C 41.0125,46.9542 34.07,35.6932 34.07,22.7514 c 0,-2.1659 0.3032,-4.1671 0.609,-6.33 1.1046,-0.2082 18.9673,-7.6947 18.9673,-7.6947 -0.1483,0.8092 20.8551,0.8092 20.7068,0 0,0 17.2577,7.4257 18.9891,7.7899 0.438,2.1264 0.5873,4.101 0.5873,6.2348 0,12.9418 -7.0968,24.2029 -17.1248,29.4133 z M 93.3125,16.3645 c 0.0108,0.0511 0.0194,0.1011 0.0299,0.1521 0.1896,0.0399 0.196,-0.0035 -0.0299,-0.1521 z"
         style="opacity:0.3;mix-blend-mode:multiply;fill:url(#r)" /><path
         id="t"
         d="M 34.1161,100.4319 C 24.2184,91.8238 17.9521,79.135 17.9521,64.9351 c 0,-16.5227 8.6409,-31.7744 22.8728,-40.29 -0.2541,1.6523 -0.5083,3.1774 -0.5083,4.8297 0,9.7865 5.7182,18.302 14.1049,22.2421 v 44.6113 l 10.5469,10.5491 10.5469,-10.5491 -0.6354,-9.2781 4.9558,-4.9568 -4.9558,-4.9568 7.4972,-7.4988 -7.4972,-7.4988 0.6354,-10.422 c 8.2596,-3.94 14.1049,-12.4556 14.1049,-22.2421 0,-1.6523 -0.1271,-3.1774 -0.5083,-4.8297 5.1643,3.1178 9.5922,7.1416 13.1419,11.7972 C 93.6697,24.6534 79.7245,16.9836 63.9772,16.9836 c -26.0911,0 -47.2421,21.05 -47.2421,47.0165 0,14.693 6.7736,27.8101 17.3809,36.4318 z m 27.4214,-7.6624 h -3.558 V 57.5634 h 3.558 z M 56.4547,18.7987 c 2.7956,-0.5084 5.7182,-0.7626 8.5138,-0.7626 2.9226,-0.1271 5.7182,0.2542 8.5138,0.7626 0.1271,0.6355 0.2542,1.271 0.2542,1.9064 0,4.8297 -3.9392,8.7698 -8.7679,8.7698 -4.8287,0 -8.7679,-3.94 -8.7679,-8.7698 0,-0.6355 0.1271,-1.2709 0.2542,-1.9064 z"
         style="opacity:0.2;mix-blend-mode:multiply;fill:#0f0f0d" /><path
         id="v"
         d="M 63.9999,8.2241 C 33.2584,8.2241 8.2485,33.245 8.2485,64 c 0,30.755 25.01,55.7759 55.7514,55.7759 30.7414,0 55.7512,-25.0212 55.7512,-55.7759 0,-30.7547 -25.0097,-55.7759 -55.7512,-55.7759 z m -8.5138,9.5882 c 2.7956,-0.5084 5.7182,-0.7626 8.5138,-0.7626 2.9226,-0.1271 5.7182,0.2542 8.5138,0.7626 0.1271,0.6355 0.2542,1.271 0.2542,1.9064 0,4.8297 -3.9392,8.7698 -8.7679,8.7698 -4.8287,0 -8.7679,-3.94 -8.7679,-8.7698 0,-0.6355 0.1271,-1.2709 0.2542,-1.9064 z m 5.0828,38.7648 v 35.2061 h -3.558 V 56.5771 Z m 3.4309,54.3978 c -25.9225,0 -47.0163,-20.9711 -47.0163,-47.0261 0,-16.5227 8.6409,-31.7744 22.8728,-40.29 -0.2541,1.6523 -0.5083,3.1774 -0.5083,4.8297 0,9.7865 5.7182,18.302 14.1049,22.2421 v 44.6113 l 10.5469,10.5491 10.5469,-10.5491 -0.6354,-9.2781 4.9558,-4.9568 -4.9558,-4.9568 7.4972,-7.4988 -7.4972,-7.4988 0.6354,-10.422 c 8.2596,-3.94 14.1049,-12.4556 14.1049,-22.2421 0,-1.6523 -0.1271,-3.1774 -0.5083,-4.8297 14.1049,8.5156 22.7457,23.7673 22.8728,40.29 0,25.9279 -20.9668,47.0261 -47.0163,47.0261 z"
         style="fill:url(#u)" /></g></g></svg>
