<?xml version="1.0" encoding="UTF-8" standalone="no"?>
<svg
   style="isolation:isolate"
   width="256"
   height="256"
   version="1.1"
   id="svg5"
   xml:space="preserve"
   xmlns="http://www.w3.org/2000/svg"
   xmlns:svg="http://www.w3.org/2000/svg"><defs
     id="defs1"><filter
       id="a"
       width="1.0842484"
       height="1.1077841"
       x="-0.042124196"
       y="-0.045133094"
       color-interpolation-filters="sRGB"
       filterUnits="objectBoundingBox"><feGaussianBlur
         in="SourceGraphic"
         stdDeviation="4.294"
         id="feGaussianBlur1" /><feOffset
         dy="4"
         result="pf_100_offsetBlur"
         id="feOffset1" /><feFlood
         flood-opacity=".4"
         id="feFlood1" /><feComposite
         in2="pf_100_offsetBlur"
         operator="in"
         result="pf_100_dropShadow"
         id="feComposite1" /><feBlend
         in="SourceGraphic"
         in2="pf_100_dropShadow"
         id="feBlend1" /></filter><linearGradient
       id="paint0_linear_89_8"
       x1="30.5"
       y1="0"
       x2="30.5"
       y2="65"
       gradientUnits="userSpaceOnUse"><stop
         stop-color="#6364FF"
         id="stop2-6" /><stop
         offset="1"
         stop-color="#563ACC"
         id="stop3-7" /></linearGradient></defs><path
     fill="#f7f7f7"
     d="M165.689 11.95c74.056 0 84.639 10.557 84.639 84.544v59.251c0 73.986-10.583 84.543-84.639 84.543h-75.37c-74.055 0-84.639-10.557-84.639-84.543V96.494c0-73.987 10.584-84.544 84.639-84.544h75.37z"
     filter="url(#a)"
     id="path1"
     style="fill:#e3e0f6;fill-opacity:1" /><defs
     id="defs2"><filter
       id="b"
       width="1.1421462"
       height="1.2085695"
       x="-0.071073106"
       y="-0.087335595"
       color-interpolation-filters="sRGB"
       filterUnits="objectBoundingBox"><feGaussianBlur
         in="SourceGraphic"
         stdDeviation="4.294"
         id="feGaussianBlur2" /><feOffset
         dy="4"
         result="pf_100_offsetBlur"
         id="feOffset2" /><feFlood
         flood-opacity=".4"
         id="feFlood2" /><feComposite
         in2="pf_100_offsetBlur"
         operator="in"
         result="pf_100_dropShadow"
         id="feComposite2" /><feBlend
         in="SourceGraphic"
         in2="pf_100_dropShadow"
         id="feBlend2" /></filter></defs><g
     opacity=".4"
     id="g5"><linearGradient
       id="c"
       x1=".517"
       x2=".517"
       y2="1"
       gradientTransform="matrix(244.65 0 0 228.34 5.68 11.95)"
       gradientUnits="userSpaceOnUse"><stop
         offset="0%"
         stop-color="#ffffff"
         id="stop2" /><stop
         offset="12.5%"
         stop-color="#ffffff"
         stop-opacity=".098"
         id="stop3" /><stop
         offset="92.5%"
         stop-opacity=".098"
         id="stop4" /><stop
         offset="100%"
         stop-opacity=".498"
         id="stop5" /></linearGradient><path
       fill="url(#c)"
       fill-rule="evenodd"
       d="M165.068 11.951c4.328-.01 8.656.04 12.984.138 3.875.078 7.75.226 11.626.452 3.453.196 6.905.481 10.348.854 3.06.335 6.118.786 9.148 1.346a80.47 80.47 0 0 1 8.046 1.916 53.64 53.64 0 0 1 7.023 2.584 40.413 40.413 0 0 1 6.06 3.35 35.176 35.176 0 0 1 5.134 4.215 35.072 35.072 0 0 1 4.22 5.119 41.692 41.692 0 0 1 3.363 6.042 55.982 55.982 0 0 1 2.597 7.005 80.224 80.224 0 0 1 1.918 8.037 124.43 124.43 0 0 1 1.348 9.127c.374 3.439.659 6.878.856 10.326.226 3.861.373 7.732.462 11.593.088 4.323.138 8.646.128 12.96v58.21c.01 4.324-.04 8.637-.128 12.96a325.177 325.177 0 0 1-.462 11.593 200.984 200.984 0 0 1-.856 10.326 124.691 124.691 0 0 1-1.348 9.137 80.687 80.687 0 0 1-1.918 8.027 55.414 55.414 0 0 1-2.597 7.005 41.18 41.18 0 0 1-3.364 6.042 34.559 34.559 0 0 1-4.22 5.119 35.177 35.177 0 0 1-5.134 4.215 40.412 40.412 0 0 1-6.059 3.35 55.138 55.138 0 0 1-7.023 2.594 77.806 77.806 0 0 1-8.046 1.906 120 120 0 0 1-9.148 1.346c-3.443.373-6.895.658-10.348.854-3.875.226-7.75.374-11.626.462-4.328.088-8.656.138-12.984.128H90.942c-4.328.01-8.656-.04-12.984-.128a328.387 328.387 0 0 1-11.626-.462 203.003 203.003 0 0 1-10.348-.854 120 120 0 0 1-9.148-1.346 77.806 77.806 0 0 1-8.046-1.906 55.139 55.139 0 0 1-7.023-2.594 40.413 40.413 0 0 1-6.06-3.35 35.176 35.176 0 0 1-5.134-4.215 34.56 34.56 0 0 1-4.22-5.119 41.183 41.183 0 0 1-3.363-6.042 55.415 55.415 0 0 1-2.597-7.005 80.682 80.682 0 0 1-1.918-8.027 124.688 124.688 0 0 1-1.348-9.137 200.993 200.993 0 0 1-.856-10.326 325.212 325.212 0 0 1-.462-11.593 569.197 569.197 0 0 1-.128-12.96v-58.21c-.01-4.314.04-8.637.128-12.96.089-3.86.236-7.732.462-11.593.197-3.448.482-6.887.856-10.326.335-3.055.787-6.101 1.348-9.127a80.219 80.219 0 0 1 1.918-8.037 55.983 55.983 0 0 1 2.597-7.005 41.695 41.695 0 0 1 3.364-6.042 35.072 35.072 0 0 1 4.22-5.119 35.176 35.176 0 0 1 5.134-4.215 40.413 40.413 0 0 1 6.059-3.35 53.64 53.64 0 0 1 7.023-2.584 80.47 80.47 0 0 1 8.046-1.916 125.11 125.11 0 0 1 9.148-1.346c3.443-.373 6.895-.658 10.348-.854 3.875-.226 7.75-.374 11.626-.452 4.328-.098 8.656-.148 12.984-.138h74.126zm.01 4.009c4.298-.01 8.597.039 12.895.127 3.827.089 7.653.236 11.48.452 3.383.197 6.766.472 10.13.845 2.971.315 5.932.747 8.863 1.297a75.943 75.943 0 0 1 7.653 1.818 50.493 50.493 0 0 1 6.501 2.397 37.038 37.038 0 0 1 5.47 3.026 30.383 30.383 0 0 1 4.524 3.724 31.05 31.05 0 0 1 3.738 4.519 37.271 37.271 0 0 1 3.03 5.443 51.46 51.46 0 0 1 2.4 6.494 75.563 75.563 0 0 1 1.829 7.634c.54 2.928.974 5.875 1.298 8.842.374 3.36.65 6.73.846 10.11.217 3.822.374 7.634.453 11.456.088 4.293.137 8.577.137 12.87v58.212c0 4.293-.049 8.577-.137 12.87a317.503 317.503 0 0 1-.453 11.456c-.196 3.38-.472 6.75-.846 10.12a121.689 121.689 0 0 1-1.298 8.832 75.562 75.562 0 0 1-1.83 7.634 50.902 50.902 0 0 1-2.4 6.494 36.767 36.767 0 0 1-3.03 5.443 30.615 30.615 0 0 1-3.737 4.53 30.938 30.938 0 0 1-4.525 3.713 37.038 37.038 0 0 1-5.469 3.026 49.07 49.07 0 0 1-6.501 2.397 75.942 75.942 0 0 1-7.653 1.818c-2.931.55-5.892.982-8.863 1.306-3.364.364-6.747.649-10.13.836-3.827.216-7.653.373-11.48.452-4.298.098-8.597.137-12.895.137H90.932c-4.298 0-8.597-.04-12.895-.137a320.093 320.093 0 0 1-11.48-.452 193.696 193.696 0 0 1-10.13-.836 116.71 116.71 0 0 1-8.863-1.306 75.942 75.942 0 0 1-7.653-1.818 49.07 49.07 0 0 1-6.501-2.397 37.038 37.038 0 0 1-5.47-3.026 30.938 30.938 0 0 1-4.524-3.714 30.615 30.615 0 0 1-3.738-4.529 36.766 36.766 0 0 1-3.03-5.443 50.903 50.903 0 0 1-2.4-6.494 75.567 75.567 0 0 1-1.829-7.634 121.69 121.69 0 0 1-1.298-8.832c-.374-3.37-.65-6.74-.846-10.12a317.535 317.535 0 0 1-.453-11.456 623.851 623.851 0 0 1-.137-12.87V97.014c0-4.293.049-8.577.137-12.87.079-3.822.236-7.634.453-11.456.197-3.38.472-6.75.846-10.11.324-2.967.757-5.914 1.298-8.842a75.568 75.568 0 0 1 1.83-7.634 51.46 51.46 0 0 1 2.4-6.494 37.27 37.27 0 0 1 3.03-5.443 31.05 31.05 0 0 1 3.737-4.52 30.384 30.384 0 0 1 4.525-3.723 37.039 37.039 0 0 1 5.469-3.026 50.494 50.494 0 0 1 6.501-2.397 75.943 75.943 0 0 1 7.653-1.818c2.931-.55 5.892-.982 8.863-1.297 3.364-.373 6.747-.648 10.13-.845a344.71 344.71 0 0 1 11.48-.452c4.298-.088 8.597-.137 12.895-.127H165.078z"
       id="path5" /></g><g
     style="fill:none"
     id="g6"
     transform="matrix(2.7692323,0,0,2.7692323,43.538409,38)"><path
       d="M 60.7539,14.3904 C 59.8143,7.40642 53.7273,1.90257 46.5117,0.836066 45.2943,0.655854 40.6819,0 29.9973,0 H 29.9175 C 19.2299,0 16.937,0.655854 15.7196,0.836066 8.70488,1.87302 2.29885,6.81852 0.744617,13.8852 -0.00294988,17.3654 -0.0827298,21.2237 0.0561464,24.7629 0.254119,29.8384 0.292531,34.905 0.753482,39.9598 c 0.318668,3.3577 0.874578,6.6886 1.663558,9.9678 1.47741,6.0563 7.45795,11.0963 13.31736,13.1525 6.2733,2.1443 13.0198,2.5003 19.484,1.0281 0.7111,-0.1654 1.4134,-0.3574 2.1068,-0.5761 1.5719,-0.4992 3.4128,-1.0576 4.7661,-2.0384 0.0186,-0.0138 0.0338,-0.0316 0.0445,-0.052 0.0108,-0.0205 0.0168,-0.0431 0.0176,-0.0662 v -4.8982 c -4e-4,-0.0216 -0.0055,-0.0428 -0.0151,-0.0622 -0.0096,-0.0193 -0.0234,-0.0363 -0.0404,-0.0496 -0.017,-0.0133 -0.0368,-0.0226 -0.0579,-0.0273 -0.021,-0.0047 -0.0429,-0.0046 -0.0639,2e-4 -4.1416,0.9892 -8.3856,1.485 -12.6437,1.4772 -7.3279,0 -9.2988,-3.4772 -9.8631,-4.9248 -0.4537,-1.2511 -0.7418,-2.5562 -0.8569,-3.882 -0.0012,-0.0222 0.0029,-0.0445 0.0119,-0.0649 0.009,-0.0203 0.0227,-0.0383 0.04,-0.0524 0.0173,-0.0141 0.0376,-0.024 0.0594,-0.0287 0.0218,-0.0048 0.0444,-0.0043 0.066,0.0013 4.0725,0.9824 8.2473,1.4782 12.4368,1.4771 1.0075,0 2.0122,0 3.0198,-0.0266 4.2135,-0.1182 8.6546,-0.3338 12.8002,-1.1433 0.1034,-0.0207 0.2069,-0.0384 0.2955,-0.065 6.539,-1.2556 12.7618,-5.1966 13.3942,-15.1762 0.0236,-0.3929 0.0827,-4.1153 0.0827,-4.523 0.0029,-1.3856 0.4462,-9.829 -0.065,-15.0167 z"
       fill="url(#paint0_linear_89_8)"
       id="path1-3"
       style="fill:url(#paint0_linear_89_8)" /><path
       d="M 50.3943,22.237 V 39.5876 H 43.5185 V 22.7481 c 0,-3.5452 -1.4774,-5.3532 -4.4825,-5.3532 -3.3035,0 -4.9582,2.1389 -4.9582,6.3636 v 9.2174 h -6.8344 v -9.2174 c 0,-4.2247 -1.6577,-6.3636 -4.9612,-6.3636 -2.9873,0 -4.4795,1.808 -4.4795,5.3532 V 39.5876 H 10.9298 V 22.237 c 0,-3.5452 0.9052,-6.3616 2.7155,-8.4493 1.8675,-2.0828 4.317,-3.1522 7.3575,-3.1522 3.5192,0 6.1785,1.353 7.9514,4.0562 l 1.7108,2.8716 1.7138,-2.8716 c 1.7729,-2.7032 4.4322,-4.0562 7.9455,-4.0562 3.0376,0 5.4871,1.0694 7.3604,3.1522 1.8084,2.0857 2.7116,4.9022 2.7096,8.4493 z"
       fill="#ffffff"
       id="path2" /></g></svg>
