<?xml version="1.0" encoding="UTF-8" standalone="no"?>
<svg
   style="isolation:isolate"
   width="256"
   height="256"
   version="1.1"
   id="svg5"
   xml:space="preserve"
   xmlns="http://www.w3.org/2000/svg"
   xmlns:svg="http://www.w3.org/2000/svg"><defs
     id="defs1"><filter
       id="a"
       width="1.0842484"
       height="1.1077841"
       x="-0.042124196"
       y="-0.045133094"
       color-interpolation-filters="sRGB"
       filterUnits="objectBoundingBox"><feGaussianBlur
         in="SourceGraphic"
         stdDeviation="4.294"
         id="feGaussianBlur1" /><feOffset
         dy="4"
         result="pf_100_offsetBlur"
         id="feOffset1" /><feFlood
         flood-opacity=".4"
         id="feFlood1" /><feComposite
         in2="pf_100_offsetBlur"
         operator="in"
         result="pf_100_dropShadow"
         id="feComposite1" /><feBlend
         in="SourceGraphic"
         in2="pf_100_dropShadow"
         id="feBlend1" /></filter></defs><path
     fill="#f7f7f7"
     d="M165.689 11.95c74.056 0 84.639 10.557 84.639 84.544v59.251c0 73.986-10.583 84.543-84.639 84.543h-75.37c-74.055 0-84.639-10.557-84.639-84.543V96.494c0-73.987 10.584-84.544 84.639-84.544h75.37z"
     filter="url(#a)"
     id="path1" /><defs
     id="defs2"><filter
       id="b"
       width="1.1421462"
       height="1.2085695"
       x="-0.071073106"
       y="-0.087335595"
       color-interpolation-filters="sRGB"
       filterUnits="objectBoundingBox"><feGaussianBlur
         in="SourceGraphic"
         stdDeviation="4.294"
         id="feGaussianBlur2" /><feOffset
         dy="4"
         result="pf_100_offsetBlur"
         id="feOffset2" /><feFlood
         flood-opacity=".4"
         id="feFlood2" /><feComposite
         in2="pf_100_offsetBlur"
         operator="in"
         result="pf_100_dropShadow"
         id="feComposite2" /><feBlend
         in="SourceGraphic"
         in2="pf_100_dropShadow"
         id="feBlend2" /></filter></defs><g
     opacity=".4"
     id="g5"><linearGradient
       id="c"
       x1=".517"
       x2=".517"
       y2="1"
       gradientTransform="matrix(244.65 0 0 228.34 5.68 11.95)"
       gradientUnits="userSpaceOnUse"><stop
         offset="0%"
         stop-color="#ffffff"
         id="stop2" /><stop
         offset="12.5%"
         stop-color="#ffffff"
         stop-opacity=".098"
         id="stop3" /><stop
         offset="92.5%"
         stop-opacity=".098"
         id="stop4" /><stop
         offset="100%"
         stop-opacity=".498"
         id="stop5" /></linearGradient><path
       fill="url(#c)"
       fill-rule="evenodd"
       d="M165.068 11.951c4.328-.01 8.656.04 12.984.138 3.875.078 7.75.226 11.626.452 3.453.196 6.905.481 10.348.854 3.06.335 6.118.786 9.148 1.346a80.47 80.47 0 0 1 8.046 1.916 53.64 53.64 0 0 1 7.023 2.584 40.413 40.413 0 0 1 6.06 3.35 35.176 35.176 0 0 1 5.134 4.215 35.072 35.072 0 0 1 4.22 5.119 41.692 41.692 0 0 1 3.363 6.042 55.982 55.982 0 0 1 2.597 7.005 80.224 80.224 0 0 1 1.918 8.037 124.43 124.43 0 0 1 1.348 9.127c.374 3.439.659 6.878.856 10.326.226 3.861.373 7.732.462 11.593.088 4.323.138 8.646.128 12.96v58.21c.01 4.324-.04 8.637-.128 12.96a325.177 325.177 0 0 1-.462 11.593 200.984 200.984 0 0 1-.856 10.326 124.691 124.691 0 0 1-1.348 9.137 80.687 80.687 0 0 1-1.918 8.027 55.414 55.414 0 0 1-2.597 7.005 41.18 41.18 0 0 1-3.364 6.042 34.559 34.559 0 0 1-4.22 5.119 35.177 35.177 0 0 1-5.134 4.215 40.412 40.412 0 0 1-6.059 3.35 55.138 55.138 0 0 1-7.023 2.594 77.806 77.806 0 0 1-8.046 1.906 120 120 0 0 1-9.148 1.346c-3.443.373-6.895.658-10.348.854-3.875.226-7.75.374-11.626.462-4.328.088-8.656.138-12.984.128H90.942c-4.328.01-8.656-.04-12.984-.128a328.387 328.387 0 0 1-11.626-.462 203.003 203.003 0 0 1-10.348-.854 120 120 0 0 1-9.148-1.346 77.806 77.806 0 0 1-8.046-1.906 55.139 55.139 0 0 1-7.023-2.594 40.413 40.413 0 0 1-6.06-3.35 35.176 35.176 0 0 1-5.134-4.215 34.56 34.56 0 0 1-4.22-5.119 41.183 41.183 0 0 1-3.363-6.042 55.415 55.415 0 0 1-2.597-7.005 80.682 80.682 0 0 1-1.918-8.027 124.688 124.688 0 0 1-1.348-9.137 200.993 200.993 0 0 1-.856-10.326 325.212 325.212 0 0 1-.462-11.593 569.197 569.197 0 0 1-.128-12.96v-58.21c-.01-4.314.04-8.637.128-12.96.089-3.86.236-7.732.462-11.593.197-3.448.482-6.887.856-10.326.335-3.055.787-6.101 1.348-9.127a80.219 80.219 0 0 1 1.918-8.037 55.983 55.983 0 0 1 2.597-7.005 41.695 41.695 0 0 1 3.364-6.042 35.072 35.072 0 0 1 4.22-5.119 35.176 35.176 0 0 1 5.134-4.215 40.413 40.413 0 0 1 6.059-3.35 53.64 53.64 0 0 1 7.023-2.584 80.47 80.47 0 0 1 8.046-1.916 125.11 125.11 0 0 1 9.148-1.346c3.443-.373 6.895-.658 10.348-.854 3.875-.226 7.75-.374 11.626-.452 4.328-.098 8.656-.148 12.984-.138h74.126zm.01 4.009c4.298-.01 8.597.039 12.895.127 3.827.089 7.653.236 11.48.452 3.383.197 6.766.472 10.13.845 2.971.315 5.932.747 8.863 1.297a75.943 75.943 0 0 1 7.653 1.818 50.493 50.493 0 0 1 6.501 2.397 37.038 37.038 0 0 1 5.47 3.026 30.383 30.383 0 0 1 4.524 3.724 31.05 31.05 0 0 1 3.738 4.519 37.271 37.271 0 0 1 3.03 5.443 51.46 51.46 0 0 1 2.4 6.494 75.563 75.563 0 0 1 1.829 7.634c.54 2.928.974 5.875 1.298 8.842.374 3.36.65 6.73.846 10.11.217 3.822.374 7.634.453 11.456.088 4.293.137 8.577.137 12.87v58.212c0 4.293-.049 8.577-.137 12.87a317.503 317.503 0 0 1-.453 11.456c-.196 3.38-.472 6.75-.846 10.12a121.689 121.689 0 0 1-1.298 8.832 75.562 75.562 0 0 1-1.83 7.634 50.902 50.902 0 0 1-2.4 6.494 36.767 36.767 0 0 1-3.03 5.443 30.615 30.615 0 0 1-3.737 4.53 30.938 30.938 0 0 1-4.525 3.713 37.038 37.038 0 0 1-5.469 3.026 49.07 49.07 0 0 1-6.501 2.397 75.942 75.942 0 0 1-7.653 1.818c-2.931.55-5.892.982-8.863 1.306-3.364.364-6.747.649-10.13.836-3.827.216-7.653.373-11.48.452-4.298.098-8.597.137-12.895.137H90.932c-4.298 0-8.597-.04-12.895-.137a320.093 320.093 0 0 1-11.48-.452 193.696 193.696 0 0 1-10.13-.836 116.71 116.71 0 0 1-8.863-1.306 75.942 75.942 0 0 1-7.653-1.818 49.07 49.07 0 0 1-6.501-2.397 37.038 37.038 0 0 1-5.47-3.026 30.938 30.938 0 0 1-4.524-3.714 30.615 30.615 0 0 1-3.738-4.529 36.766 36.766 0 0 1-3.03-5.443 50.903 50.903 0 0 1-2.4-6.494 75.567 75.567 0 0 1-1.829-7.634 121.69 121.69 0 0 1-1.298-8.832c-.374-3.37-.65-6.74-.846-10.12a317.535 317.535 0 0 1-.453-11.456 623.851 623.851 0 0 1-.137-12.87V97.014c0-4.293.049-8.577.137-12.87.079-3.822.236-7.634.453-11.456.197-3.38.472-6.75.846-10.11.324-2.967.757-5.914 1.298-8.842a75.568 75.568 0 0 1 1.83-7.634 51.46 51.46 0 0 1 2.4-6.494 37.27 37.27 0 0 1 3.03-5.443 31.05 31.05 0 0 1 3.737-4.52 30.384 30.384 0 0 1 4.525-3.723 37.039 37.039 0 0 1 5.469-3.026 50.494 50.494 0 0 1 6.501-2.397 75.943 75.943 0 0 1 7.653-1.818c2.931-.55 5.892-.982 8.863-1.297 3.364-.373 6.747-.648 10.13-.845a344.71 344.71 0 0 1 11.48-.452c4.298-.088 8.597-.137 12.895-.127H165.078z"
       id="path5" /></g><g
     id="g6"
     transform="matrix(0.51536139,0,0,0.51536139,-3.4331698,-5.4331639)"><path
       fill="#008080"
       d="m 310.65,69.46 c -2.81,12.29 -12.8,21.04 -24.99,22.87 -4.71,0.7 -10.57,-0.15 -15.68,-0.61 q -15.27,-1.38 -30.48,0.08 -10.24,0.99 -13.53,0.53 C 213.72,90.62 204.3,81.18 201.26,69.36 a 0.59,0.58 75.4 0 1 0.41,-0.71 q 54.22,-15.29 108.46,-0.06 a 0.74,0.73 14.4 0 1 0.52,0.87 z"
       id="path1-3" /><path
       fill="#008080"
       d="m 162.89,85.51 c 6.55,11.47 5.8,24.93 -2.74,35.21 q -1.62,1.96 -6.21,5.58 -14.76,11.67 -26.56,26.29 -5.41,6.7 -8.26,8.81 c -10.06,7.46 -23.08,7.7 -33.86,1.28 q -0.41,-0.24 -0.18,-0.65 27.52,-49.23 76.71,-76.82 a 0.81,0.81 0 0 1 1.1,0.3 z"
       id="path2" /><path
       fill="#008080"
       d="m 423.81,164.3 c -10.91,5.05 -23.21,3.61 -32.54,-4.15 q -1.96,-1.64 -5.57,-6.2 -13.44,-17.01 -30.8,-30.09 -2.72,-2.04 -5.16,-5.84 c -6.59,-10.22 -6.65,-22.29 -0.38,-32.79 a 0.44,0.43 -59.8 0 1 0.59,-0.16 q 49.26,27.54 76.87,76.76 0.27,0.49 -0.18,0.83 -1.12,0.85 -2.83,1.64 z"
       id="path3" /><circle
       fill="#008080"
       cx="256"
       cy="256"
       r="105"
       id="circle3" /><path
       fill="#008080"
       d="m 69.47,201.36 c 11.71,2.65 20.41,12.07 22.61,23.56 q 0.78,4.08 -0.03,11.92 c -1.25,12.12 -1.5,24.94 -0.21,36.41 0.53,4.78 1.23,8.75 0.36,13.18 q -3.7,18.86 -22.75,24.31 a 0.66,0.66 0 0 1 -0.82,-0.46 Q 53.38,256.1 68.58,201.89 a 0.75,0.75 0 0 1 0.89,-0.53 z"
       id="path4" /><path
       fill="#008080"
       d="m 442.54,310.64 c -12.45,-2.71 -21.22,-13.15 -22.91,-25.32 -0.64,-4.62 0.23,-10.32 0.68,-15.33 q 1.44,-16.05 -0.92,-37.49 c -1.58,-14.34 9.39,-27.89 23.3,-31.19 q 0.53,-0.12 0.67,0.4 15.27,54.17 0.06,108.4 -0.19,0.68 -0.88,0.53 z"
       id="path5-6" /><path
       fill="#008080"
       d="M 158.92,425.08 Q 111.54,397.63 85.34,350.27 a 1.09,1.09 0 0 1 0.46,-1.51 q 12.52,-6.29 24.71,-2.6 c 7.45,2.25 11.46,6.51 16.91,13.28 q 11.1,13.77 24.82,24.9 7.25,5.88 9.28,8.63 c 7.29,9.86 7.61,23.21 1.15,33.68 q -0.31,0.5 -0.81,0.18 -0.93,-0.58 -2.94,-1.75 z"
       id="path6" /><path
       fill="#008080"
       d="m 349.24,426.59 c -6.74,-11.26 -5.94,-24.88 2.54,-35.23 q 1.6,-1.94 6.1,-5.53 15.41,-12.29 30.26,-30.93 c 8.92,-11.2 26.47,-13.07 38.63,-5.54 a 0.45,0.44 30.7 0 1 0.16,0.6 q -27.56,49.27 -76.79,76.88 a 0.68,0.67 59.9 0 1 -0.9,-0.25 z"
       id="path7" /><path
       fill="#008080"
       d="m 276.84,419.58 c 15.92,-2.13 29.97,7.63 33.85,23.05 q 0.15,0.58 -0.44,0.75 -54.12,15.23 -108.26,0.07 -0.8,-0.23 -0.61,-1.03 c 2.77,-12.1 12.98,-21.16 25.07,-22.74 q 2.93,-0.39 14.58,0.65 c 12.04,1.07 23.82,0.85 35.81,-0.75 z"
       id="path8" /></g></svg>
