<?xml version="1.0" encoding="UTF-8" standalone="no"?>
<svg
   style="isolation:isolate"
   width="256"
   height="256"
   version="1.1"
   id="svg5"
   xml:space="preserve"
   xmlns="http://www.w3.org/2000/svg"
   xmlns:svg="http://www.w3.org/2000/svg"><defs
     id="defs1"><filter
       id="a"
       width="1.0842484"
       height="1.1077841"
       x="-0.042124196"
       y="-0.045133094"
       color-interpolation-filters="sRGB"
       filterUnits="objectBoundingBox"><feGaussianBlur
         in="SourceGraphic"
         stdDeviation="4.294"
         id="feGaussianBlur1" /><feOffset
         dy="4"
         result="pf_100_offsetBlur"
         id="feOffset1" /><feFlood
         flood-opacity=".4"
         id="feFlood1" /><feComposite
         in2="pf_100_offsetBlur"
         operator="in"
         result="pf_100_dropShadow"
         id="feComposite1" /><feBlend
         in="SourceGraphic"
         in2="pf_100_dropShadow"
         id="feBlend1" /></filter></defs><path
     fill="#f7f7f7"
     d="M165.689 11.95c74.056 0 84.639 10.557 84.639 84.544v59.251c0 73.986-10.583 84.543-84.639 84.543h-75.37c-74.055 0-84.639-10.557-84.639-84.543V96.494c0-73.987 10.584-84.544 84.639-84.544h75.37z"
     filter="url(#a)"
     id="path1"
     style="fill:#ececec" /><defs
     id="defs2"><filter
       id="b"
       width="1.1421462"
       height="1.2085695"
       x="-0.071073106"
       y="-0.087335595"
       color-interpolation-filters="sRGB"
       filterUnits="objectBoundingBox"><feGaussianBlur
         in="SourceGraphic"
         stdDeviation="4.294"
         id="feGaussianBlur2" /><feOffset
         dy="4"
         result="pf_100_offsetBlur"
         id="feOffset2" /><feFlood
         flood-opacity=".4"
         id="feFlood2" /><feComposite
         in2="pf_100_offsetBlur"
         operator="in"
         result="pf_100_dropShadow"
         id="feComposite2" /><feBlend
         in="SourceGraphic"
         in2="pf_100_dropShadow"
         id="feBlend2" /></filter></defs><g
     opacity=".4"
     id="g5"><linearGradient
       id="c"
       x1=".517"
       x2=".517"
       y2="1"
       gradientTransform="matrix(244.65 0 0 228.34 5.68 11.95)"
       gradientUnits="userSpaceOnUse"><stop
         offset="0%"
         stop-color="#ffffff"
         id="stop2" /><stop
         offset="12.5%"
         stop-color="#ffffff"
         stop-opacity=".098"
         id="stop3" /><stop
         offset="92.5%"
         stop-opacity=".098"
         id="stop4" /><stop
         offset="100%"
         stop-opacity=".498"
         id="stop5" /></linearGradient><path
       fill="url(#c)"
       fill-rule="evenodd"
       d="M165.068 11.951c4.328-.01 8.656.04 12.984.138 3.875.078 7.75.226 11.626.452 3.453.196 6.905.481 10.348.854 3.06.335 6.118.786 9.148 1.346a80.47 80.47 0 0 1 8.046 1.916 53.64 53.64 0 0 1 7.023 2.584 40.413 40.413 0 0 1 6.06 3.35 35.176 35.176 0 0 1 5.134 4.215 35.072 35.072 0 0 1 4.22 5.119 41.692 41.692 0 0 1 3.363 6.042 55.982 55.982 0 0 1 2.597 7.005 80.224 80.224 0 0 1 1.918 8.037 124.43 124.43 0 0 1 1.348 9.127c.374 3.439.659 6.878.856 10.326.226 3.861.373 7.732.462 11.593.088 4.323.138 8.646.128 12.96v58.21c.01 4.324-.04 8.637-.128 12.96a325.177 325.177 0 0 1-.462 11.593 200.984 200.984 0 0 1-.856 10.326 124.691 124.691 0 0 1-1.348 9.137 80.687 80.687 0 0 1-1.918 8.027 55.414 55.414 0 0 1-2.597 7.005 41.18 41.18 0 0 1-3.364 6.042 34.559 34.559 0 0 1-4.22 5.119 35.177 35.177 0 0 1-5.134 4.215 40.412 40.412 0 0 1-6.059 3.35 55.138 55.138 0 0 1-7.023 2.594 77.806 77.806 0 0 1-8.046 1.906 120 120 0 0 1-9.148 1.346c-3.443.373-6.895.658-10.348.854-3.875.226-7.75.374-11.626.462-4.328.088-8.656.138-12.984.128H90.942c-4.328.01-8.656-.04-12.984-.128a328.387 328.387 0 0 1-11.626-.462 203.003 203.003 0 0 1-10.348-.854 120 120 0 0 1-9.148-1.346 77.806 77.806 0 0 1-8.046-1.906 55.139 55.139 0 0 1-7.023-2.594 40.413 40.413 0 0 1-6.06-3.35 35.176 35.176 0 0 1-5.134-4.215 34.56 34.56 0 0 1-4.22-5.119 41.183 41.183 0 0 1-3.363-6.042 55.415 55.415 0 0 1-2.597-7.005 80.682 80.682 0 0 1-1.918-8.027 124.688 124.688 0 0 1-1.348-9.137 200.993 200.993 0 0 1-.856-10.326 325.212 325.212 0 0 1-.462-11.593 569.197 569.197 0 0 1-.128-12.96v-58.21c-.01-4.314.04-8.637.128-12.96.089-3.86.236-7.732.462-11.593.197-3.448.482-6.887.856-10.326.335-3.055.787-6.101 1.348-9.127a80.219 80.219 0 0 1 1.918-8.037 55.983 55.983 0 0 1 2.597-7.005 41.695 41.695 0 0 1 3.364-6.042 35.072 35.072 0 0 1 4.22-5.119 35.176 35.176 0 0 1 5.134-4.215 40.413 40.413 0 0 1 6.059-3.35 53.64 53.64 0 0 1 7.023-2.584 80.47 80.47 0 0 1 8.046-1.916 125.11 125.11 0 0 1 9.148-1.346c3.443-.373 6.895-.658 10.348-.854 3.875-.226 7.75-.374 11.626-.452 4.328-.098 8.656-.148 12.984-.138h74.126zm.01 4.009c4.298-.01 8.597.039 12.895.127 3.827.089 7.653.236 11.48.452 3.383.197 6.766.472 10.13.845 2.971.315 5.932.747 8.863 1.297a75.943 75.943 0 0 1 7.653 1.818 50.493 50.493 0 0 1 6.501 2.397 37.038 37.038 0 0 1 5.47 3.026 30.383 30.383 0 0 1 4.524 3.724 31.05 31.05 0 0 1 3.738 4.519 37.271 37.271 0 0 1 3.03 5.443 51.46 51.46 0 0 1 2.4 6.494 75.563 75.563 0 0 1 1.829 7.634c.54 2.928.974 5.875 1.298 8.842.374 3.36.65 6.73.846 10.11.217 3.822.374 7.634.453 11.456.088 4.293.137 8.577.137 12.87v58.212c0 4.293-.049 8.577-.137 12.87a317.503 317.503 0 0 1-.453 11.456c-.196 3.38-.472 6.75-.846 10.12a121.689 121.689 0 0 1-1.298 8.832 75.562 75.562 0 0 1-1.83 7.634 50.902 50.902 0 0 1-2.4 6.494 36.767 36.767 0 0 1-3.03 5.443 30.615 30.615 0 0 1-3.737 4.53 30.938 30.938 0 0 1-4.525 3.713 37.038 37.038 0 0 1-5.469 3.026 49.07 49.07 0 0 1-6.501 2.397 75.942 75.942 0 0 1-7.653 1.818c-2.931.55-5.892.982-8.863 1.306-3.364.364-6.747.649-10.13.836-3.827.216-7.653.373-11.48.452-4.298.098-8.597.137-12.895.137H90.932c-4.298 0-8.597-.04-12.895-.137a320.093 320.093 0 0 1-11.48-.452 193.696 193.696 0 0 1-10.13-.836 116.71 116.71 0 0 1-8.863-1.306 75.942 75.942 0 0 1-7.653-1.818 49.07 49.07 0 0 1-6.501-2.397 37.038 37.038 0 0 1-5.47-3.026 30.938 30.938 0 0 1-4.524-3.714 30.615 30.615 0 0 1-3.738-4.529 36.766 36.766 0 0 1-3.03-5.443 50.903 50.903 0 0 1-2.4-6.494 75.567 75.567 0 0 1-1.829-7.634 121.69 121.69 0 0 1-1.298-8.832c-.374-3.37-.65-6.74-.846-10.12a317.535 317.535 0 0 1-.453-11.456 623.851 623.851 0 0 1-.137-12.87V97.014c0-4.293.049-8.577.137-12.87.079-3.822.236-7.634.453-11.456.197-3.38.472-6.75.846-10.11.324-2.967.757-5.914 1.298-8.842a75.568 75.568 0 0 1 1.83-7.634 51.46 51.46 0 0 1 2.4-6.494 37.27 37.27 0 0 1 3.03-5.443 31.05 31.05 0 0 1 3.737-4.52 30.384 30.384 0 0 1 4.525-3.723 37.039 37.039 0 0 1 5.469-3.026 50.494 50.494 0 0 1 6.501-2.397 75.943 75.943 0 0 1 7.653-1.818c2.931-.55 5.892-.982 8.863-1.297 3.364-.373 6.747-.648 10.13-.845a344.71 344.71 0 0 1 11.48-.452c4.298-.088 8.597-.137 12.895-.127H165.078z"
       id="path5" /></g><g
     id="g6"
     transform="matrix(0.93184498,0,0,0.93184498,27.999999,35.681361)"><g
       id="g3">&#10;	<path
   fill="#5cb0ff"
   d="m 171.748,142.3193 c 0,-15.4375 -12.5625,-28 -28,-28 -15.4375,0 -28,12.5625 -28,28 0,15.4375 12.5625,28 28,28 15.4375,0 28,-12.5625 28,-28 z"
   id="path1-6" />&#10;	<path
   fill="#1c71da"
   d="m 95.748,166.3193 v -76 h 42.989 c 0.0146,0.7878 0.0696,1.5579 0.0696,2.3516 0,2.2109 1.7891,4 4,4 2.2109,0 4,-1.7891 4,-4 0,-0.7937 -0.0603,-1.5632 -0.0745,-2.3516 h 25.0159 5.6484 2.3516 c 0,-46.3164 -37.6836,-84 -84,-84 h -8 v 0.4053 c -42.5754,4.0447 -76,39.9785 -76,83.5947 0,46.3164 37.6836,84 84,84 2.2109,0 4,-1.7891 4,-4 0,-2.2109 -1.789,-4 -4,-4 z m -8,-1.3244 c -19.9287,-6.438 -35.0586,-36.3945 -35.0586,-72.324 0,-0.7937 0.0549,-1.5637 0.0696,-2.3516 H 87.748 Z M 53.1655,82.3193 C 55.75,51.1135 69.7729,26.157 87.748,20.3506 V 82.3194 H 53.1655 Z m 42.5825,0 v -63.293 c 21.6829,0 39.6248,27.5808 42.5825,63.293 z m 75.5701,0 h -24.9685 c -2.3884,-29.9812 -14.96,-54.8911 -31.9993,-65.6013 30.4178,7.6966 53.6138,33.699 56.9678,65.6013 z M 77.1458,16.718 C 60.1064,27.4282 47.5349,52.3381 45.1465,82.3193 H 20.178 C 23.532,50.417 46.728,24.4146 77.1458,16.718 Z M 19.748,90.3193 h 25.0159 c -0.0142,0.7883 -0.0745,1.5579 -0.0745,2.3516 0,28.5327 9.217,53.6572 23.1233,68.2603 C 39.7031,149.769 19.748,122.3567 19.748,90.3193 Z"
   id="path2" />&#10;	<path
   fill="#1c71da"
   d="m 191.5137,184.4287 -19.665,-19.665 c 4.9307,-6.1609 7.8994,-13.9573 7.8994,-22.4443 0,-19.8516 -16.1484,-36 -36,-36 -19.8516,0 -36,16.1484 -36,36 0,19.8516 16.1484,36 36,36 8.4871,0 16.2834,-2.9688 22.4443,-7.8994 l 19.665,19.665 z M 115.748,142.3193 c 0,-15.4375 12.5625,-28 28,-28 15.4375,0 28,12.5625 28,28 0,15.4375 -12.5625,28 -28,28 -15.4375,0 -28,-12.5625 -28,-28 z"
   id="path3" />&#10;</g><path
       fill="#ff5d5d"
       d="m 4,22.1416 c -1.0234,0 -2.0479,-0.3906 -2.8281,-1.1719 -1.5625,-1.5615 -1.5625,-4.0947 0,-5.6562 L 15.3145,1.1719 c 1.5625,-1.5625 4.0957,-1.5625 5.6562,0 1.5625,1.5615 1.5625,4.0947 0,5.6562 L 6.8281,20.9697 C 6.0469,21.751 5.0234,22.1416 4,22.1416 Z"
       id="path4" /><path
       fill="#ff5d5d"
       d="m 18.1426,22.1416 c -1.0234,0 -2.0469,-0.3906 -2.8281,-1.1719 L 1.1719,6.8281 c -1.5625,-1.5615 -1.5625,-4.0947 0,-5.6562 1.5605,-1.5625 4.0938,-1.5625 5.6562,0 l 14.1426,14.1416 c 1.5625,1.5615 1.5625,4.0947 0,5.6562 -0.7803,0.7813 -1.8047,1.1719 -2.8281,1.1719 z"
       id="path5-2" /><path
       fill="#00d40b"
       d="m 14,198.1416 c -7.7197,0 -14,-6.2803 -14,-14 0,-7.7197 6.2803,-14 14,-14 7.7197,0 14,6.2803 14,14 0,7.7197 -6.2803,14 -14,14 z m 0,-20 c -3.3086,0 -6,2.6914 -6,6 0,3.3086 2.6914,6 6,6 3.3086,0 6,-2.6914 6,-6 0,-3.3086 -2.6914,-6 -6,-6 z"
       id="path6" /><path
       fill="#ffc504"
       d="m 199.3145,56.7695 c -1.0605,0 -2.0781,-0.4219 -2.8281,-1.1719 L 185.1719,44.2831 C 184.4219,43.5331 184,42.5155 184,41.455 c 0,-1.0605 0.4219,-2.0781 1.1719,-2.8281 l 11.3145,-11.3135 c 1.5625,-1.5625 4.0938,-1.5625 5.6562,0 l 11.3135,11.3135 c 1.5625,1.5615 1.5625,4.0947 0,5.6562 l -11.3135,11.3145 c -0.75,0.7501 -1.7676,1.1719 -2.8281,1.1719 z m -5.6573,-15.3144 5.6572,5.6572 5.6572,-5.6572 -5.6572,-5.6572 z"
       id="path7" /></g></svg>
