<?xml version="1.0" encoding="UTF-8" standalone="no"?>
<svg
   style="isolation:isolate"
   width="256"
   height="256"
   version="1.1"
   id="svg45"
   sodipodi:docname="viber.svg"
   inkscape:version="1.1.2 (0a00cf5339, 2022-02-04)"
   xmlns:inkscape="http://www.inkscape.org/namespaces/inkscape"
   xmlns:sodipodi="http://sodipodi.sourceforge.net/DTD/sodipodi-0.dtd"
   xmlns="http://www.w3.org/2000/svg"
   xmlns:svg="http://www.w3.org/2000/svg">
  <sodipodi:namedview
     id="namedview47"
     pagecolor="#ffffff"
     bordercolor="#666666"
     borderopacity="1.0"
     inkscape:pageshadow="2"
     inkscape:pageopacity="0.0"
     inkscape:pagecheckerboard="0"
     showgrid="false"
     inkscape:zoom="2.796875"
     inkscape:cx="124.78212"
     inkscape:cy="128"
     inkscape:window-width="1603"
     inkscape:window-height="942"
     inkscape:window-x="476"
     inkscape:window-y="292"
     inkscape:window-maximized="0"
     inkscape:current-layer="svg45" />
  <defs
     id="defs13">
    <filter
       id="a"
       width="1.0842484"
       height="1.1077841"
       x="-0.042124196"
       y="-0.045133094"
       color-interpolation-filters="sRGB"
       filterUnits="objectBoundingBox">
      <feGaussianBlur
         in="SourceGraphic"
         stdDeviation="4.294"
         id="feGaussianBlur2" />
      <feOffset
         dy="4"
         result="pf_100_offsetBlur"
         id="feOffset4" />
      <feFlood
         flood-opacity=".4"
         id="feFlood6" />
      <feComposite
         in2="pf_100_offsetBlur"
         operator="in"
         result="pf_100_dropShadow"
         id="feComposite8" />
      <feBlend
         in="SourceGraphic"
         in2="pf_100_dropShadow"
         id="feBlend10" />
    </filter>
  </defs>
  <path
     fill="#f7f7f7"
     d="M165.689 11.95c74.056 0 84.639 10.557 84.639 84.544v59.251c0 73.986-10.583 84.543-84.639 84.543h-75.37c-74.055 0-84.639-10.557-84.639-84.543V96.494c0-73.987 10.584-84.544 84.639-84.544h75.37z"
     filter="url(#a)"
     id="path15"
     style="fill:#7360f2;fill-opacity:1" />
  <defs
     id="defs28">
    <filter
       id="b"
       width="1.1421462"
       height="1.2085695"
       x="-0.071073106"
       y="-0.087335595"
       color-interpolation-filters="sRGB"
       filterUnits="objectBoundingBox">
      <feGaussianBlur
         in="SourceGraphic"
         stdDeviation="4.294"
         id="feGaussianBlur17" />
      <feOffset
         dy="4"
         result="pf_100_offsetBlur"
         id="feOffset19" />
      <feFlood
         flood-opacity=".4"
         id="feFlood21" />
      <feComposite
         in2="pf_100_offsetBlur"
         operator="in"
         result="pf_100_dropShadow"
         id="feComposite23" />
      <feBlend
         in="SourceGraphic"
         in2="pf_100_dropShadow"
         id="feBlend25" />
    </filter>
  </defs>
  <g
     opacity=".4"
     id="g43">
    <linearGradient
       id="c"
       x1=".517"
       x2=".517"
       y2="1"
       gradientTransform="matrix(244.65 0 0 228.34 5.68 11.95)"
       gradientUnits="userSpaceOnUse">
      <stop
         offset="0%"
         stop-color="#ffffff"
         id="stop32" />
      <stop
         offset="12.5%"
         stop-color="#ffffff"
         stop-opacity=".098"
         id="stop34" />
      <stop
         offset="92.5%"
         stop-opacity=".098"
         id="stop36" />
      <stop
         offset="100%"
         stop-opacity=".498"
         id="stop38" />
    </linearGradient>
    <path
       fill="url(#c)"
       fill-rule="evenodd"
       d="M165.068 11.951c4.328-.01 8.656.04 12.984.138 3.875.078 7.75.226 11.626.452 3.453.196 6.905.481 10.348.854 3.06.335 6.118.786 9.148 1.346a80.47 80.47 0 0 1 8.046 1.916 53.64 53.64 0 0 1 7.023 2.584 40.413 40.413 0 0 1 6.06 3.35 35.176 35.176 0 0 1 5.134 4.215 35.072 35.072 0 0 1 4.22 5.119 41.692 41.692 0 0 1 3.363 6.042 55.982 55.982 0 0 1 2.597 7.005 80.224 80.224 0 0 1 1.918 8.037 124.43 124.43 0 0 1 1.348 9.127c.374 3.439.659 6.878.856 10.326.226 3.861.373 7.732.462 11.593.088 4.323.138 8.646.128 12.96v58.21c.01 4.324-.04 8.637-.128 12.96a325.177 325.177 0 0 1-.462 11.593 200.984 200.984 0 0 1-.856 10.326 124.691 124.691 0 0 1-1.348 9.137 80.687 80.687 0 0 1-1.918 8.027 55.414 55.414 0 0 1-2.597 7.005 41.18 41.18 0 0 1-3.364 6.042 34.559 34.559 0 0 1-4.22 5.119 35.177 35.177 0 0 1-5.134 4.215 40.412 40.412 0 0 1-6.059 3.35 55.138 55.138 0 0 1-7.023 2.594 77.806 77.806 0 0 1-8.046 1.906 120 120 0 0 1-9.148 1.346c-3.443.373-6.895.658-10.348.854-3.875.226-7.75.374-11.626.462-4.328.088-8.656.138-12.984.128H90.942c-4.328.01-8.656-.04-12.984-.128a328.387 328.387 0 0 1-11.626-.462 203.003 203.003 0 0 1-10.348-.854 120 120 0 0 1-9.148-1.346 77.806 77.806 0 0 1-8.046-1.906 55.139 55.139 0 0 1-7.023-2.594 40.413 40.413 0 0 1-6.06-3.35 35.176 35.176 0 0 1-5.134-4.215 34.56 34.56 0 0 1-4.22-5.119 41.183 41.183 0 0 1-3.363-6.042 55.415 55.415 0 0 1-2.597-7.005 80.682 80.682 0 0 1-1.918-8.027 124.688 124.688 0 0 1-1.348-9.137 200.993 200.993 0 0 1-.856-10.326 325.212 325.212 0 0 1-.462-11.593 569.197 569.197 0 0 1-.128-12.96v-58.21c-.01-4.314.04-8.637.128-12.96.089-3.86.236-7.732.462-11.593.197-3.448.482-6.887.856-10.326.335-3.055.787-6.101 1.348-9.127a80.219 80.219 0 0 1 1.918-8.037 55.983 55.983 0 0 1 2.597-7.005 41.695 41.695 0 0 1 3.364-6.042 35.072 35.072 0 0 1 4.22-5.119 35.176 35.176 0 0 1 5.134-4.215 40.413 40.413 0 0 1 6.059-3.35 53.64 53.64 0 0 1 7.023-2.584 80.47 80.47 0 0 1 8.046-1.916 125.11 125.11 0 0 1 9.148-1.346c3.443-.373 6.895-.658 10.348-.854 3.875-.226 7.75-.374 11.626-.452 4.328-.098 8.656-.148 12.984-.138h74.126zm.01 4.009c4.298-.01 8.597.039 12.895.127 3.827.089 7.653.236 11.48.452 3.383.197 6.766.472 10.13.845 2.971.315 5.932.747 8.863 1.297a75.943 75.943 0 0 1 7.653 1.818 50.493 50.493 0 0 1 6.501 2.397 37.038 37.038 0 0 1 5.47 3.026 30.383 30.383 0 0 1 4.524 3.724 31.05 31.05 0 0 1 3.738 4.519 37.271 37.271 0 0 1 3.03 5.443 51.46 51.46 0 0 1 2.4 6.494 75.563 75.563 0 0 1 1.829 7.634c.54 2.928.974 5.875 1.298 8.842.374 3.36.65 6.73.846 10.11.217 3.822.374 7.634.453 11.456.088 4.293.137 8.577.137 12.87v58.212c0 4.293-.049 8.577-.137 12.87a317.503 317.503 0 0 1-.453 11.456c-.196 3.38-.472 6.75-.846 10.12a121.689 121.689 0 0 1-1.298 8.832 75.562 75.562 0 0 1-1.83 7.634 50.902 50.902 0 0 1-2.4 6.494 36.767 36.767 0 0 1-3.03 5.443 30.615 30.615 0 0 1-3.737 4.53 30.938 30.938 0 0 1-4.525 3.713 37.038 37.038 0 0 1-5.469 3.026 49.07 49.07 0 0 1-6.501 2.397 75.942 75.942 0 0 1-7.653 1.818c-2.931.55-5.892.982-8.863 1.306-3.364.364-6.747.649-10.13.836-3.827.216-7.653.373-11.48.452-4.298.098-8.597.137-12.895.137H90.932c-4.298 0-8.597-.04-12.895-.137a320.093 320.093 0 0 1-11.48-.452 193.696 193.696 0 0 1-10.13-.836 116.71 116.71 0 0 1-8.863-1.306 75.942 75.942 0 0 1-7.653-1.818 49.07 49.07 0 0 1-6.501-2.397 37.038 37.038 0 0 1-5.47-3.026 30.938 30.938 0 0 1-4.524-3.714 30.615 30.615 0 0 1-3.738-4.529 36.766 36.766 0 0 1-3.03-5.443 50.903 50.903 0 0 1-2.4-6.494 75.567 75.567 0 0 1-1.829-7.634 121.69 121.69 0 0 1-1.298-8.832c-.374-3.37-.65-6.74-.846-10.12a317.535 317.535 0 0 1-.453-11.456 623.851 623.851 0 0 1-.137-12.87V97.014c0-4.293.049-8.577.137-12.87.079-3.822.236-7.634.453-11.456.197-3.38.472-6.75.846-10.11.324-2.967.757-5.914 1.298-8.842a75.568 75.568 0 0 1 1.83-7.634 51.46 51.46 0 0 1 2.4-6.494 37.27 37.27 0 0 1 3.03-5.443 31.05 31.05 0 0 1 3.737-4.52 30.384 30.384 0 0 1 4.525-3.723 37.039 37.039 0 0 1 5.469-3.026 50.494 50.494 0 0 1 6.501-2.397 75.943 75.943 0 0 1 7.653-1.818c2.931-.55 5.892-.982 8.863-1.297 3.364-.373 6.747-.648 10.13-.845a344.71 344.71 0 0 1 11.48-.452c4.298-.088 8.597-.137 12.895-.127H165.078z"
       id="path41" />
  </g>
  <path
     d="m 183.05274,67.602665 c -3.71798,-3.405553 -18.77739,-14.353309 -52.31424,-14.497027 0,0 -39.573132,-2.368263 -58.850421,15.321858 -10.722801,10.722789 -14.478282,26.425816 -14.909436,45.903064 -0.431166,19.47725 -0.912316,55.98225 34.27421,65.90522 h 0.03124 l -0.03124,15.11563 c 0,0 -0.231203,6.12375 3.792973,7.35475 4.8615,1.52469 7.735904,-3.13686 12.391194,-8.14833 2.54948,-2.75569 6.06126,-6.79236 8.72946,-9.87298 3.74923,0.36868 8.09834,0.57489 12.50368,0.57489 11.41641,0 22.50789,-1.40596 33.1057,-4.05542 l -0.9373,0.19996 c 4.8615,-1.58093 32.36835,-5.09896 36.81744,-41.5977 4.64904,-37.67976 -2.21205,-61.449874 -14.60326,-72.203915 z m 4.07417,69.454475 c -3.79297,30.46249 -26.0759,32.39959 -30.17506,33.71183 -8.94815,2.27453 -19.22104,3.57426 -29.80013,3.57426 -3.03686,0 -6.04875,-0.10624 -9.02939,-0.31868 l 0.39992,0.025 c 0,0 -15.23438,18.36499 -19.977154,23.139 -1.54968,1.54968 -3.25557,1.42471 -3.22433,-1.6684 0,-2.01834 0.11872,-25.10735 0.11872,-25.10735 -29.787629,-8.2608 -28.062979,-39.35441 -27.71305,-55.59483 0.349917,-16.240408 3.399293,-29.587662 12.47868,-38.548324 16.32165,-14.790711 49.920994,-12.597417 49.920994,-12.597417 28.38793,0.118725 41.97889,8.673225 45.14073,11.541383 10.46036,8.96691 15.79051,30.412498 11.86007,61.837288 z M 146.44151,113.387 v 0.0875 c 0,1.04979 -0.84982,1.89961 -1.89961,1.89961 -1.01853,0 -1.84961,-0.79984 -1.89336,-1.80588 v -0.007 c 0.025,-0.26246 0.0438,-0.57489 0.0438,-0.88108 0,-5.00522 -4.05542,-9.06064 -9.06064,-9.06064 -0.18746,0 -0.37492,0.007 -0.55614,0.0187 h 0.025 c -1.00605,-0.0563 -1.79964,-0.88108 -1.79964,-1.89336 0,-1.04979 0.84983,-1.899618 1.89961,-1.899618 h 0.10624 -0.007 c 0.12497,-0.007 0.2812,-0.007 0.43116,-0.007 7.03605,0 12.73489,5.698838 12.73489,12.734888 0,0.28745 -0.0125,0.57488 -0.0312,0.85607 v -0.0374 z m 5.94254,3.31807 c 0.29368,-12.42245 -7.46722,-22.145438 -22.20169,-23.232718 -0.99355,-0.0687 -1.76839,-0.89357 -1.76839,-1.89336 0,-1.049786 0.84982,-1.89962 1.89961,-1.89962 0.0438,0 0.0937,0 0.13747,0.0068 h -0.007 0.10624 c 14.16584,0 25.65723,11.485128 25.65723,25.657218 0,0.50614 -0.0125,1.01229 -0.0438,1.51218 l 0.007,-0.0687 c -0.025,1.03104 -0.86232,1.84961 -1.89336,1.84961 -1.04979,0 -1.89961,-0.84982 -1.89961,-1.89961 0,-0.0187 0,-0.0312 0,-0.05 z m 13.74717,3.93044 v 0.0125 c 0,1.04978 -0.84982,1.89962 -1.89961,1.89962 -1.04978,0 -1.88711,-0.84359 -1.89336,-1.88087 -0.14996,-23.882588 -16.07795,-36.886164 -35.38023,-37.023645 -1.04978,0 -1.89336,-0.849824 -1.89336,-1.893361 0,-1.043527 0.84982,-1.893361 1.89336,-1.893361 21.61431,0.149977 38.98573,15.065659 39.1607,40.772867 z m -3.28058,28.7316 v 0.0563 c -3.16184,5.56761 -9.07939,11.71635 -15.17188,9.75424 l -0.0563,-0.0875 c -11.44763,-4.27412 -21.3456,-9.86049 -30.18754,-16.74032 l 0.25619,0.18747 c -4.64279,-3.69925 -8.72321,-7.77966 -12.30372,-12.26624 l -0.11872,-0.15621 c -3.1806,-3.98669 -6.161244,-8.44827 -8.760704,-13.15981 l -0.24995,-0.49364 c -2.85566,-4.66154 -5.436382,-10.04794 -7.454717,-15.70303 L 88.615833,100.146 c -1.96209,-6.092498 4.155393,-12.010032 9.754253,-15.171874 h 0.0563 c 0.81233,-0.518651 1.799624,-0.831079 2.861914,-0.831079 1.66841,0 3.1556,0.768586 4.13665,1.96209 l 0.007,0.01252 c 0,0 3.6305,4.330365 5.18643,6.473675 1.4622,1.99334 3.43054,5.18643 4.44909,6.96731 0.58738,0.918568 0.93106,2.043328 0.93106,3.249338 0,1.79963 -0.77485,3.41804 -2.01209,4.53656 l -0.007,0.007 -3.51179,2.81193 c -0.96855,0.9373 -1.56842,2.24953 -1.56842,3.69923 0,0.14372 0.007,0.28119 0.0187,0.41867 v -0.0187 c 3.61801,11.89131 12.79737,21.07068 24.43249,24.6262 l 0.26244,0.0687 c 0.11872,0.0125 0.26244,0.0187 0.39991,0.0187 1.44971,0 2.76194,-0.59989 3.69925,-1.56219 l 2.81191,-3.51177 c 1.12478,-1.2435 2.7432,-2.01834 4.54283,-2.01834 1.206,0 2.32452,0.34992 3.27433,0.94981 l -0.025,-0.0125 c 5.08021,2.89316 9.47305,6.07376 13.47848,9.67926 l -0.0687,-0.0625 c 1.19975,0.9623 1.95584,2.43074 1.95584,4.07416 0,1.05603 -0.31243,2.03709 -0.85607,2.86191 l 0.0125,-0.0187 z"
     id="path944"
     style="stroke-width:6.24872;fill:#ffffff" />
</svg>
