<?xml version="1.0" encoding="UTF-8" standalone="no"?>
<svg
   style="isolation:isolate"
   width="256"
   height="256"
   version="1.1"
   id="svg5"
   xml:space="preserve"
   xmlns="http://www.w3.org/2000/svg"
   xmlns:svg="http://www.w3.org/2000/svg"><defs
     id="defs1"><filter
       id="a"
       width="1.0842484"
       height="1.1077841"
       x="-0.042124196"
       y="-0.045133094"
       color-interpolation-filters="sRGB"
       filterUnits="objectBoundingBox"><feGaussianBlur
         in="SourceGraphic"
         stdDeviation="4.294"
         id="feGaussianBlur1" /><feOffset
         dy="4"
         result="pf_100_offsetBlur"
         id="feOffset1" /><feFlood
         flood-opacity=".4"
         id="feFlood1" /><feComposite
         in2="pf_100_offsetBlur"
         operator="in"
         result="pf_100_dropShadow"
         id="feComposite1" /><feBlend
         in="SourceGraphic"
         in2="pf_100_dropShadow"
         id="feBlend1" /></filter></defs><path
     fill="#f7f7f7"
     d="M165.689 11.95c74.056 0 84.639 10.557 84.639 84.544v59.251c0 73.986-10.583 84.543-84.639 84.543h-75.37c-74.055 0-84.639-10.557-84.639-84.543V96.494c0-73.987 10.584-84.544 84.639-84.544h75.37z"
     filter="url(#a)"
     id="path1"
     style="fill:#191d2a;fill-opacity:1" /><defs
     id="defs2"><filter
       id="b"
       width="1.1421462"
       height="1.2085695"
       x="-0.071073106"
       y="-0.087335595"
       color-interpolation-filters="sRGB"
       filterUnits="objectBoundingBox"><feGaussianBlur
         in="SourceGraphic"
         stdDeviation="4.294"
         id="feGaussianBlur2" /><feOffset
         dy="4"
         result="pf_100_offsetBlur"
         id="feOffset2" /><feFlood
         flood-opacity=".4"
         id="feFlood2" /><feComposite
         in2="pf_100_offsetBlur"
         operator="in"
         result="pf_100_dropShadow"
         id="feComposite2" /><feBlend
         in="SourceGraphic"
         in2="pf_100_dropShadow"
         id="feBlend2" /></filter></defs><g
     opacity=".4"
     id="g5"><linearGradient
       id="c"
       x1=".517"
       x2=".517"
       y2="1"
       gradientTransform="matrix(244.65 0 0 228.34 5.68 11.95)"
       gradientUnits="userSpaceOnUse"><stop
         offset="0%"
         stop-color="#ffffff"
         id="stop2" /><stop
         offset="12.5%"
         stop-color="#ffffff"
         stop-opacity=".098"
         id="stop3" /><stop
         offset="92.5%"
         stop-opacity=".098"
         id="stop4" /><stop
         offset="100%"
         stop-opacity=".498"
         id="stop5" /></linearGradient><path
       fill="url(#c)"
       fill-rule="evenodd"
       d="M165.068 11.951c4.328-.01 8.656.04 12.984.138 3.875.078 7.75.226 11.626.452 3.453.196 6.905.481 10.348.854 3.06.335 6.118.786 9.148 1.346a80.47 80.47 0 0 1 8.046 1.916 53.64 53.64 0 0 1 7.023 2.584 40.413 40.413 0 0 1 6.06 3.35 35.176 35.176 0 0 1 5.134 4.215 35.072 35.072 0 0 1 4.22 5.119 41.692 41.692 0 0 1 3.363 6.042 55.982 55.982 0 0 1 2.597 7.005 80.224 80.224 0 0 1 1.918 8.037 124.43 124.43 0 0 1 1.348 9.127c.374 3.439.659 6.878.856 10.326.226 3.861.373 7.732.462 11.593.088 4.323.138 8.646.128 12.96v58.21c.01 4.324-.04 8.637-.128 12.96a325.177 325.177 0 0 1-.462 11.593 200.984 200.984 0 0 1-.856 10.326 124.691 124.691 0 0 1-1.348 9.137 80.687 80.687 0 0 1-1.918 8.027 55.414 55.414 0 0 1-2.597 7.005 41.18 41.18 0 0 1-3.364 6.042 34.559 34.559 0 0 1-4.22 5.119 35.177 35.177 0 0 1-5.134 4.215 40.412 40.412 0 0 1-6.059 3.35 55.138 55.138 0 0 1-7.023 2.594 77.806 77.806 0 0 1-8.046 1.906 120 120 0 0 1-9.148 1.346c-3.443.373-6.895.658-10.348.854-3.875.226-7.75.374-11.626.462-4.328.088-8.656.138-12.984.128H90.942c-4.328.01-8.656-.04-12.984-.128a328.387 328.387 0 0 1-11.626-.462 203.003 203.003 0 0 1-10.348-.854 120 120 0 0 1-9.148-1.346 77.806 77.806 0 0 1-8.046-1.906 55.139 55.139 0 0 1-7.023-2.594 40.413 40.413 0 0 1-6.06-3.35 35.176 35.176 0 0 1-5.134-4.215 34.56 34.56 0 0 1-4.22-5.119 41.183 41.183 0 0 1-3.363-6.042 55.415 55.415 0 0 1-2.597-7.005 80.682 80.682 0 0 1-1.918-8.027 124.688 124.688 0 0 1-1.348-9.137 200.993 200.993 0 0 1-.856-10.326 325.212 325.212 0 0 1-.462-11.593 569.197 569.197 0 0 1-.128-12.96v-58.21c-.01-4.314.04-8.637.128-12.96.089-3.86.236-7.732.462-11.593.197-3.448.482-6.887.856-10.326.335-3.055.787-6.101 1.348-9.127a80.219 80.219 0 0 1 1.918-8.037 55.983 55.983 0 0 1 2.597-7.005 41.695 41.695 0 0 1 3.364-6.042 35.072 35.072 0 0 1 4.22-5.119 35.176 35.176 0 0 1 5.134-4.215 40.413 40.413 0 0 1 6.059-3.35 53.64 53.64 0 0 1 7.023-2.584 80.47 80.47 0 0 1 8.046-1.916 125.11 125.11 0 0 1 9.148-1.346c3.443-.373 6.895-.658 10.348-.854 3.875-.226 7.75-.374 11.626-.452 4.328-.098 8.656-.148 12.984-.138h74.126zm.01 4.009c4.298-.01 8.597.039 12.895.127 3.827.089 7.653.236 11.48.452 3.383.197 6.766.472 10.13.845 2.971.315 5.932.747 8.863 1.297a75.943 75.943 0 0 1 7.653 1.818 50.493 50.493 0 0 1 6.501 2.397 37.038 37.038 0 0 1 5.47 3.026 30.383 30.383 0 0 1 4.524 3.724 31.05 31.05 0 0 1 3.738 4.519 37.271 37.271 0 0 1 3.03 5.443 51.46 51.46 0 0 1 2.4 6.494 75.563 75.563 0 0 1 1.829 7.634c.54 2.928.974 5.875 1.298 8.842.374 3.36.65 6.73.846 10.11.217 3.822.374 7.634.453 11.456.088 4.293.137 8.577.137 12.87v58.212c0 4.293-.049 8.577-.137 12.87a317.503 317.503 0 0 1-.453 11.456c-.196 3.38-.472 6.75-.846 10.12a121.689 121.689 0 0 1-1.298 8.832 75.562 75.562 0 0 1-1.83 7.634 50.902 50.902 0 0 1-2.4 6.494 36.767 36.767 0 0 1-3.03 5.443 30.615 30.615 0 0 1-3.737 4.53 30.938 30.938 0 0 1-4.525 3.713 37.038 37.038 0 0 1-5.469 3.026 49.07 49.07 0 0 1-6.501 2.397 75.942 75.942 0 0 1-7.653 1.818c-2.931.55-5.892.982-8.863 1.306-3.364.364-6.747.649-10.13.836-3.827.216-7.653.373-11.48.452-4.298.098-8.597.137-12.895.137H90.932c-4.298 0-8.597-.04-12.895-.137a320.093 320.093 0 0 1-11.48-.452 193.696 193.696 0 0 1-10.13-.836 116.71 116.71 0 0 1-8.863-1.306 75.942 75.942 0 0 1-7.653-1.818 49.07 49.07 0 0 1-6.501-2.397 37.038 37.038 0 0 1-5.47-3.026 30.938 30.938 0 0 1-4.524-3.714 30.615 30.615 0 0 1-3.738-4.529 36.766 36.766 0 0 1-3.03-5.443 50.903 50.903 0 0 1-2.4-6.494 75.567 75.567 0 0 1-1.829-7.634 121.69 121.69 0 0 1-1.298-8.832c-.374-3.37-.65-6.74-.846-10.12a317.535 317.535 0 0 1-.453-11.456 623.851 623.851 0 0 1-.137-12.87V97.014c0-4.293.049-8.577.137-12.87.079-3.822.236-7.634.453-11.456.197-3.38.472-6.75.846-10.11.324-2.967.757-5.914 1.298-8.842a75.568 75.568 0 0 1 1.83-7.634 51.46 51.46 0 0 1 2.4-6.494 37.27 37.27 0 0 1 3.03-5.443 31.05 31.05 0 0 1 3.737-4.52 30.384 30.384 0 0 1 4.525-3.723 37.039 37.039 0 0 1 5.469-3.026 50.494 50.494 0 0 1 6.501-2.397 75.943 75.943 0 0 1 7.653-1.818c2.931-.55 5.892-.982 8.863-1.297 3.364-.373 6.747-.648 10.13-.845a344.71 344.71 0 0 1 11.48-.452c4.298-.088 8.597-.137 12.895-.127H165.078z"
       id="path5" /></g><g
     id="g6"
     transform="matrix(0.89263978,0,0,0.89263978,14.188428,10.849468)"><g
       stroke-width="2"
       fill="none"
       stroke-linecap="butt"
       id="g30"><path
         stroke="#604288"
         d="m 96,40.79 0.5,0.67"
         id="path1-3" /><path
         stroke="#0d0f15"
         d="m 96.5,41.46 q -1.84,-0.58 -2.52,0.49 -0.45,0.71 0.15,1.31 l 33.05,33.05 q 0.31,0.31 0.62,0 l 33.44,-33.39 q 0.44,-0.45 0.03,-0.92 -0.82,-0.91 -2.27,-1.04"
         id="path2" /><path
         stroke="#604288"
         d="m 159,40.96 q 0,-0.08 0,-0.17"
         id="path3" /><path
         stroke="#6b4e8c"
         d="m 159,40.79 2.46,-2.48 q 0.4,-0.4 -0.13,-0.59 -33.83,-12 -67.66,0 -0.55,0.19 -0.14,0.6 L 96,40.79"
         id="path4" /><path
         stroke="#b273ea"
         d="m 159,40.79 q -0.63,-0.06 -1.19,-0.23 -23.21,-7.19 -47.03,-3.17 c -4.5,0.76 -9.84,2.29 -14.78,3.4"
         id="path5-6" /><path
         stroke="#533473"
         d="m 159,40.96 -31.23,31.18 a 0.38,0.37 -44.4 0 1 -0.53,0 L 96.5,41.46"
         id="path6" /><path
         stroke="#7d808a"
         d="m 31.46,113.5 q -3.09,19.4 1.5,38.5"
         id="path7" /><path
         stroke="#0d0f15"
         d="m 32.96,152 q -0.55,-0.12 -0.91,0.31 a 0.67,0.66 58.9 0 0 -0.14,0.57 q 8.25,35.83 37.03,58.28 a 0.82,0.82 0 0 0 1.09,-0.07 l 57.08,-57.08 a 0.51,0.5 45.4 0 1 0.72,0.01 l 57.05,57.27 q 0.39,0.39 0.83,0.06 26.06,-19.81 35.38,-51.42 1.27,-4.31 2.75,-9.38 a 0.49,0.49 0 0 0 -0.7,-0.57 q -0.5,0.27 -0.85,1.02"
         id="path8" /><path
         stroke="#7d808a"
         d="m 222.29,151 q 4.48,-19.3 0.96,-38.79"
         id="path9" /><path
         stroke="#8c8e95"
         d="m 223.25,112.21 q -6.98,-37.86 -37.44,-61.19 -0.4,-0.3 -0.74,0.05 l -38.93,38.88 q -0.42,0.43 -0.09,0.92 0.57,0.86 1.45,1.42"
         id="path10" /><path
         stroke="#7d808a"
         d="m 147.5,92.29 0.25,0.42"
         id="path11" /><path
         stroke="#0d0f15"
         d="m 147.75,92.71 q -1.28,0.34 -1.87,1.52 -0.26,0.52 0.16,0.93 l 19.4,19.4 a 0.95,0.95 0 0 0 1.35,-0.01 l 17.62,-17.9 a 0.76,0.76 0 0 1 1.19,0.12 q 6.78,10.67 8.82,23.13 a 0.54,0.54 0 0 0 0.74,0.41 q 0.44,-0.18 0.38,-0.56"
         id="path12" /><path
         stroke="#7d808a"
         d="m 195.54,119.75 q 1.37,11.78 -0.57,23.52"
         id="path13" /><path
         stroke="#8c8e95"
         d="m 194.97,143.27 q -3.05,12 -9.42,22.55 -0.28,0.48 -0.68,0.09 l -56.96,-56.86 q -0.45,-0.45 -0.9,0 L 70.2,165.92 q -0.4,0.4 -0.7,-0.08 -5.94,-9.57 -8.75,-20.38"
         id="path14" /><path
         stroke="#7d808a"
         d="M 60.75,145.46 Q 57.47,131.69 59.79,117.75"
         id="path15" /><path
         stroke="#0d0f15"
         d="m 59.79,117.75 0.71,-0.02 q 0.5,-0.02 0.61,-0.51 2.49,-11.04 8.46,-20.58 0.38,-0.6 0.87,-0.1 l 17.97,18.28 a 0.63,0.62 44.7 0 0 0.89,0 l 19.63,-19.63 q 0.38,-0.38 0.16,-0.86 -0.54,-1.18 -1.84,-1.62"
         id="path16" /><path
         stroke="#7d808a"
         d="m 107.25,92.71 0.5,-0.67"
         id="path17" /><path
         stroke="#8c8e95"
         d="M 107.75,92.04 109,90.76 q 0.4,-0.41 0,-0.81 L 69.95,50.98 q -0.3,-0.3 -0.64,-0.04 -31.13,23.8 -37.85,62.56"
         id="path18" /><path
         stroke="#f0f1f4"
         d="M 107.75,92.04 107.3,92 q -0.5,-0.05 -0.86,-0.4 L 70.07,55.24 q -0.32,-0.33 -0.69,-0.05 -28.77,21.75 -36.44,56.04 -0.43,1.89 -1.48,2.27"
         id="path19" /><path
         stroke="#707175"
         d="m 107.25,92.71 -17.93,17.84 q -0.45,0.45 -0.89,0 L 70.31,92.14 a 0.5,0.49 -50.6 0 0 -0.77,0.08 q -7.45,11.75 -9.75,25.53"
         id="path20" /><path
         stroke="#f0f1f4"
         d="m 60.75,145.46 c -3.04,2.88 6.62,21.23 8.73,24.62 a 0.41,0.41 0 0 0 0.64,0.07 l 56.98,-56.96 q 0.43,-0.42 0.86,0 l 56.69,56.69 a 0.53,0.53 0 0 0 0.81,-0.08 q 8.19,-11.84 9.51,-26.53"
         id="path21" /><path
         stroke="#707175"
         d="m 195.54,119.75 q -2.01,-14.9 -10.15,-27.63 -0.28,-0.44 -0.64,-0.07 l -18.31,18.68 a 0.42,0.42 0 0 1 -0.6,0 L 147.75,92.71"
         id="path22" /><path
         stroke="#707175"
         d="m 222.29,151 q -8.41,34.57 -36.59,56.07 -0.38,0.28 -0.71,-0.05 l -57.06,-57.23 q -0.46,-0.45 -0.91,0 l -57.07,57.28 a 0.53,0.53 0 0 1 -0.7,0.04 Q 41.58,185.76 32.96,152"
         id="path23" /><path
         stroke="#f0f1f4"
         d="m 223.25,112.21 c -0.53,0.16 -0.91,-0.02 -1.04,-0.57 Q 214.19,77 185.91,55.33 a 0.98,0.98 0 0 0 -1.3,0.1 c -3.5,3.62 -35.64,36.89 -37.11,36.86"
         id="path24" /><path
         stroke="#604288"
         d="m 96.34,221.14 0.41,0.32"
         id="path25" /><path
         stroke="#0d0f15"
         d="m 96.75,221.46 q -2.27,0.57 -3.2,2.62 a 0.44,0.44 0 0 0 0.25,0.59 q 33.71,11.93 67.42,0.02 a 0.51,0.5 -28.2 0 0 0.24,-0.78 q -1.26,-1.65 -3.21,-2.45"
         id="path26" /><path
         stroke="#604288"
         d="m 158.25,221.46 0.5,-0.42"
         id="path27" /><path
         stroke="#6b4e8c"
         d="m 158.75,221.04 q 1.25,-0.16 2.37,-0.88 0.53,-0.33 0.09,-0.77 L 127.86,186 q -0.37,-0.36 -0.74,0 l -33.57,33.58 q -0.43,0.42 0.14,0.62 l 2.65,0.94"
         id="path28" /><path
         stroke="#b273ea"
         d="m 158.75,221.04 -30.87,-30.77 q -0.37,-0.37 -0.74,0 l -30.8,30.87"
         id="path29" /><path
         stroke="#533473"
         d="m 158.25,221.46 q -30.75,9.59 -61.5,0"
         id="path30" /></g><path
       fill="#191d2a"
       d="M 250.73,129 A 123.23,123.23 0 0 1 127.5,252.23 123.23,123.23 0 0 1 4.27,129 123.23,123.23 0 0 1 127.5,5.77 123.23,123.23 0 0 1 250.73,129 Z M 96,40.79 l 0.5,0.67 q -1.84,-0.58 -2.52,0.49 -0.45,0.71 0.15,1.31 l 33.05,33.05 q 0.31,0.31 0.62,0 l 33.44,-33.39 q 0.44,-0.45 0.03,-0.92 -0.82,-0.91 -2.27,-1.04 0,-0.08 0,-0.17 l 2.46,-2.48 q 0.4,-0.4 -0.13,-0.59 -33.83,-12 -67.66,0 -0.55,0.19 -0.14,0.6 z M 31.46,113.5 q -3.09,19.4 1.5,38.5 -0.55,-0.12 -0.91,0.31 a 0.67,0.66 58.9 0 0 -0.14,0.57 q 8.25,35.83 37.03,58.28 a 0.82,0.82 0 0 0 1.09,-0.07 l 57.08,-57.08 a 0.51,0.5 45.4 0 1 0.72,0.01 l 57.05,57.27 q 0.39,0.39 0.83,0.06 26.06,-19.81 35.38,-51.42 1.27,-4.31 2.75,-9.38 a 0.49,0.49 0 0 0 -0.7,-0.57 q -0.5,0.27 -0.85,1.02 4.48,-19.3 0.96,-38.79 -6.98,-37.86 -37.44,-61.19 -0.4,-0.3 -0.74,0.05 l -38.93,38.88 q -0.42,0.43 -0.09,0.92 0.57,0.86 1.45,1.42 l 0.25,0.42 q -1.28,0.34 -1.87,1.52 -0.26,0.52 0.16,0.93 l 19.4,19.4 a 0.95,0.95 0 0 0 1.35,-0.01 l 17.62,-17.9 a 0.76,0.76 0 0 1 1.19,0.12 q 6.78,10.67 8.82,23.13 a 0.54,0.54 0 0 0 0.74,0.41 q 0.44,-0.18 0.38,-0.56 1.37,11.78 -0.57,23.52 -3.05,12 -9.42,22.55 -0.28,0.48 -0.68,0.09 l -56.96,-56.86 q -0.45,-0.45 -0.9,0 L 70.2,165.92 q -0.4,0.4 -0.7,-0.08 -5.94,-9.57 -8.75,-20.38 -3.28,-13.77 -0.96,-27.71 l 0.71,-0.02 q 0.5,-0.02 0.61,-0.51 2.49,-11.04 8.46,-20.58 0.38,-0.6 0.87,-0.1 l 17.97,18.28 a 0.63,0.62 44.7 0 0 0.89,0 l 19.63,-19.63 q 0.38,-0.38 0.16,-0.86 -0.54,-1.18 -1.84,-1.62 l 0.5,-0.67 1.25,-1.28 q 0.4,-0.41 0,-0.81 L 69.95,50.98 q -0.3,-0.3 -0.64,-0.04 -31.13,23.8 -37.85,62.56 z m 64.88,107.64 0.41,0.32 q -2.27,0.57 -3.2,2.62 a 0.44,0.44 0 0 0 0.25,0.59 q 33.71,11.93 67.42,0.02 a 0.51,0.5 -28.2 0 0 0.24,-0.78 q -1.26,-1.65 -3.21,-2.45 l 0.5,-0.42 q 1.25,-0.16 2.37,-0.88 0.53,-0.33 0.09,-0.77 L 127.86,186 q -0.37,-0.36 -0.74,0 l -33.57,33.58 q -0.43,0.42 0.14,0.62 z"
       id="path31" /><path
       fill="#bd7fee"
       d="m 159,40.79 q -0.63,-0.06 -1.19,-0.23 -23.21,-7.19 -47.03,-3.17 c -4.5,0.76 -9.84,2.29 -14.78,3.4 l -2.47,-2.47 q -0.41,-0.41 0.14,-0.6 33.83,-12 67.66,0 0.53,0.19 0.13,0.59 z"
       id="path32" /><path
       fill="#a667e5"
       d="m 159,40.79 q 0,0.09 0,0.17 l -31.23,31.18 a 0.38,0.37 -44.4 0 1 -0.53,0 L 96.5,41.46 96,40.79 c 4.94,-1.11 10.28,-2.64 14.78,-3.4 q 23.82,-4.02 47.03,3.17 0.56,0.17 1.19,0.23 z"
       id="path33" /><path
       fill="#000000"
       d="m 159,40.96 q 1.45,0.13 2.27,1.04 0.41,0.47 -0.03,0.92 L 127.8,76.31 q -0.31,0.31 -0.62,0 L 94.13,43.26 q -0.6,-0.6 -0.15,-1.31 0.68,-1.07 2.52,-0.49 l 30.74,30.68 a 0.38,0.37 -44.4 0 0 0.53,0 z"
       id="path34" /><path
       fill="#ffffff"
       d="M 107.75,92.04 107.3,92 q -0.5,-0.05 -0.86,-0.4 L 70.07,55.24 q -0.32,-0.33 -0.69,-0.05 -28.77,21.75 -36.44,56.04 -0.43,1.89 -1.48,2.27 6.72,-38.76 37.85,-62.56 0.34,-0.26 0.64,0.04 L 109,89.95 q 0.4,0.4 0,0.81 z"
       id="path35" /><path
       fill="#ffffff"
       d="m 223.25,112.21 c -0.53,0.16 -0.91,-0.02 -1.04,-0.57 Q 214.19,77 185.91,55.33 a 0.98,0.98 0 0 0 -1.3,0.1 c -3.5,3.62 -35.64,36.89 -37.11,36.86 q -0.88,-0.56 -1.45,-1.42 -0.33,-0.49 0.09,-0.92 l 38.93,-38.88 q 0.34,-0.35 0.74,-0.05 30.46,23.33 37.44,61.19 z"
       id="path36" /><path
       fill="#e0e2e9"
       d="m 107.75,92.04 -0.5,0.67 -17.93,17.84 q -0.45,0.45 -0.89,0 L 70.31,92.14 a 0.5,0.49 -50.6 0 0 -0.77,0.08 q -7.45,11.75 -9.75,25.53 -2.32,13.94 0.96,27.71 c -3.04,2.88 6.62,21.23 8.73,24.62 a 0.41,0.41 0 0 0 0.64,0.07 l 56.98,-56.96 q 0.43,-0.42 0.86,0 l 56.69,56.69 a 0.53,0.53 0 0 0 0.81,-0.08 q 8.19,-11.84 9.51,-26.53 1.94,-11.74 0.57,-23.52 -2.01,-14.9 -10.15,-27.63 -0.28,-0.44 -0.64,-0.07 l -18.31,18.68 a 0.42,0.42 0 0 1 -0.6,0 L 147.75,92.71 147.5,92.29 c 1.47,0.03 33.61,-33.24 37.11,-36.86 a 0.98,0.98 0 0 1 1.3,-0.1 q 28.28,21.67 36.3,56.31 c 0.13,0.55 0.51,0.73 1.04,0.57 q 3.52,19.49 -0.96,38.79 -8.41,34.57 -36.59,56.07 -0.38,0.28 -0.71,-0.05 l -57.06,-57.23 q -0.46,-0.45 -0.91,0 l -57.07,57.28 a 0.53,0.53 0 0 1 -0.7,0.04 Q 41.58,185.76 32.96,152 q -4.59,-19.1 -1.5,-38.5 1.05,-0.38 1.48,-2.27 7.67,-34.29 36.44,-56.04 0.37,-0.28 0.69,0.05 l 36.37,36.36 q 0.36,0.35 0.86,0.4 z"
       id="path37" /><path
       fill="#000000"
       d="m 195.54,119.75 q 0.06,0.38 -0.38,0.56 a 0.54,0.54 0 0 1 -0.74,-0.41 q -2.04,-12.46 -8.82,-23.13 a 0.76,0.76 0 0 0 -1.19,-0.12 l -17.62,17.9 a 0.95,0.95 0 0 1 -1.35,0.01 l -19.4,-19.4 q -0.42,-0.41 -0.16,-0.93 0.59,-1.18 1.87,-1.52 l 18.09,18.02 a 0.42,0.42 0 0 0 0.6,0 l 18.31,-18.68 q 0.36,-0.37 0.64,0.07 8.14,12.73 10.15,27.63 z"
       id="path38" /><path
       fill="#000000"
       d="m 107.25,92.71 q 1.3,0.44 1.84,1.62 0.22,0.48 -0.16,0.86 L 89.3,114.82 a 0.63,0.62 44.7 0 1 -0.89,0 L 70.44,96.54 q -0.49,-0.5 -0.87,0.1 -5.97,9.54 -8.46,20.58 -0.11,0.49 -0.61,0.51 l -0.71,0.02 q 2.3,-13.78 9.75,-25.53 a 0.5,0.49 -50.6 0 1 0.77,-0.08 l 18.12,18.41 q 0.44,0.45 0.89,0 z"
       id="path39" /><path
       fill="#ffffff"
       d="m 194.97,143.27 q -1.32,14.69 -9.51,26.53 a 0.53,0.53 0 0 1 -0.81,0.08 l -56.69,-56.69 q -0.43,-0.42 -0.86,0 l -56.98,56.96 a 0.41,0.41 0 0 1 -0.64,-0.07 c -2.11,-3.39 -11.77,-21.74 -8.73,-24.62 q 2.81,10.81 8.75,20.38 0.3,0.48 0.7,0.08 l 56.81,-56.87 q 0.45,-0.45 0.9,0 l 56.96,56.86 q 0.4,0.39 0.68,-0.09 6.37,-10.55 9.42,-22.55 z"
       id="path40" /><path
       fill="#000000"
       d="m 222.29,151 q 0.35,-0.75 0.85,-1.02 a 0.49,0.49 0 0 1 0.7,0.57 q -1.48,5.07 -2.75,9.38 -9.32,31.61 -35.38,51.42 -0.44,0.33 -0.83,-0.06 l -57.05,-57.27 a 0.51,0.5 45.4 0 0 -0.72,-0.01 l -57.08,57.08 a 0.82,0.82 0 0 1 -1.09,0.07 Q 40.16,188.71 31.91,152.88 a 0.67,0.66 58.9 0 1 0.14,-0.57 q 0.36,-0.43 0.91,-0.31 8.62,33.76 36.29,55.11 a 0.53,0.53 0 0 0 0.7,-0.04 l 57.07,-57.28 q 0.45,-0.45 0.91,0 l 57.06,57.23 q 0.33,0.33 0.71,0.05 28.18,-21.5 36.59,-56.07 z"
       id="path41" /><path
       fill="#bd7fee"
       d="m 158.75,221.04 -30.87,-30.77 q -0.37,-0.37 -0.74,0 l -30.8,30.87 -2.65,-0.94 Q 93.12,220 93.55,219.58 L 127.12,186 q 0.37,-0.36 0.74,0 l 33.35,33.39 q 0.44,0.44 -0.09,0.77 -1.12,0.72 -2.37,0.88 z"
       id="path42" /><path
       fill="#a667e5"
       d="m 158.75,221.04 -0.5,0.42 q -30.75,9.59 -61.5,0 l -0.41,-0.32 30.8,-30.87 q 0.37,-0.37 0.74,0 z"
       id="path43" /><path
       fill="#000000"
       d="m 96.75,221.46 q 30.75,9.59 61.5,0 1.95,0.8 3.21,2.45 a 0.51,0.5 -28.2 0 1 -0.24,0.78 Q 127.51,236.6 93.8,224.67 a 0.44,0.44 0 0 1 -0.25,-0.59 q 0.93,-2.05 3.2,-2.62 z"
       id="path44" /></g></svg>
