<?xml version="1.0" encoding="UTF-8" standalone="no"?>
<svg
   style="isolation:isolate"
   width="256"
   height="256"
   version="1.1"
   id="svg5"
   xml:space="preserve"
   xmlns:xlink="http://www.w3.org/1999/xlink"
   xmlns="http://www.w3.org/2000/svg"
   xmlns:svg="http://www.w3.org/2000/svg"><defs
     id="defs1"><linearGradient
       id="linearGradient5"><stop
         style="stop-color:#87de87;stop-opacity:1"
         offset="0"
         id="stop6" /><stop
         style="stop-color:#ffcc00;stop-opacity:1"
         offset="1"
         id="stop7" /></linearGradient><filter
       id="a"
       width="1.0842484"
       height="1.1077841"
       x="-0.042124196"
       y="-0.045133094"
       color-interpolation-filters="sRGB"
       filterUnits="objectBoundingBox"><feGaussianBlur
         in="SourceGraphic"
         stdDeviation="4.294"
         id="feGaussianBlur1" /><feOffset
         dy="4"
         result="pf_100_offsetBlur"
         id="feOffset1" /><feFlood
         flood-opacity=".4"
         id="feFlood1" /><feComposite
         in2="pf_100_offsetBlur"
         operator="in"
         result="pf_100_dropShadow"
         id="feComposite1" /><feBlend
         in="SourceGraphic"
         in2="pf_100_dropShadow"
         id="feBlend1" /></filter><linearGradient
       xlink:href="#linearGradient5"
       id="linearGradient7"
       x1="182.89769"
       y1="53.613579"
       x2="71.307343"
       y2="198.74747"
       gradientUnits="userSpaceOnUse" /></defs><path
     fill="#f7f7f7"
     d="M165.689 11.95c74.056 0 84.639 10.557 84.639 84.544v59.251c0 73.986-10.583 84.543-84.639 84.543h-75.37c-74.055 0-84.639-10.557-84.639-84.543V96.494c0-73.987 10.584-84.544 84.639-84.544h75.37z"
     filter="url(#a)"
     id="path1"
     style="fill:#666666" /><defs
     id="defs2"><filter
       id="b"
       width="1.1421462"
       height="1.2085695"
       x="-0.071073106"
       y="-0.087335595"
       color-interpolation-filters="sRGB"
       filterUnits="objectBoundingBox"><feGaussianBlur
         in="SourceGraphic"
         stdDeviation="4.294"
         id="feGaussianBlur2" /><feOffset
         dy="4"
         result="pf_100_offsetBlur"
         id="feOffset2" /><feFlood
         flood-opacity=".4"
         id="feFlood2" /><feComposite
         in2="pf_100_offsetBlur"
         operator="in"
         result="pf_100_dropShadow"
         id="feComposite2" /><feBlend
         in="SourceGraphic"
         in2="pf_100_dropShadow"
         id="feBlend2" /></filter></defs><g
     opacity=".4"
     id="g5"><linearGradient
       id="c"
       x1=".517"
       x2=".517"
       y2="1"
       gradientTransform="matrix(244.65 0 0 228.34 5.68 11.95)"
       gradientUnits="userSpaceOnUse"><stop
         offset="0%"
         stop-color="#ffffff"
         id="stop2" /><stop
         offset="12.5%"
         stop-color="#ffffff"
         stop-opacity=".098"
         id="stop3" /><stop
         offset="92.5%"
         stop-opacity=".098"
         id="stop4" /><stop
         offset="100%"
         stop-opacity=".498"
         id="stop5" /></linearGradient><path
       fill="url(#c)"
       fill-rule="evenodd"
       d="M165.068 11.951c4.328-.01 8.656.04 12.984.138 3.875.078 7.75.226 11.626.452 3.453.196 6.905.481 10.348.854 3.06.335 6.118.786 9.148 1.346a80.47 80.47 0 0 1 8.046 1.916 53.64 53.64 0 0 1 7.023 2.584 40.413 40.413 0 0 1 6.06 3.35 35.176 35.176 0 0 1 5.134 4.215 35.072 35.072 0 0 1 4.22 5.119 41.692 41.692 0 0 1 3.363 6.042 55.982 55.982 0 0 1 2.597 7.005 80.224 80.224 0 0 1 1.918 8.037 124.43 124.43 0 0 1 1.348 9.127c.374 3.439.659 6.878.856 10.326.226 3.861.373 7.732.462 11.593.088 4.323.138 8.646.128 12.96v58.21c.01 4.324-.04 8.637-.128 12.96a325.177 325.177 0 0 1-.462 11.593 200.984 200.984 0 0 1-.856 10.326 124.691 124.691 0 0 1-1.348 9.137 80.687 80.687 0 0 1-1.918 8.027 55.414 55.414 0 0 1-2.597 7.005 41.18 41.18 0 0 1-3.364 6.042 34.559 34.559 0 0 1-4.22 5.119 35.177 35.177 0 0 1-5.134 4.215 40.412 40.412 0 0 1-6.059 3.35 55.138 55.138 0 0 1-7.023 2.594 77.806 77.806 0 0 1-8.046 1.906 120 120 0 0 1-9.148 1.346c-3.443.373-6.895.658-10.348.854-3.875.226-7.75.374-11.626.462-4.328.088-8.656.138-12.984.128H90.942c-4.328.01-8.656-.04-12.984-.128a328.387 328.387 0 0 1-11.626-.462 203.003 203.003 0 0 1-10.348-.854 120 120 0 0 1-9.148-1.346 77.806 77.806 0 0 1-8.046-1.906 55.139 55.139 0 0 1-7.023-2.594 40.413 40.413 0 0 1-6.06-3.35 35.176 35.176 0 0 1-5.134-4.215 34.56 34.56 0 0 1-4.22-5.119 41.183 41.183 0 0 1-3.363-6.042 55.415 55.415 0 0 1-2.597-7.005 80.682 80.682 0 0 1-1.918-8.027 124.688 124.688 0 0 1-1.348-9.137 200.993 200.993 0 0 1-.856-10.326 325.212 325.212 0 0 1-.462-11.593 569.197 569.197 0 0 1-.128-12.96v-58.21c-.01-4.314.04-8.637.128-12.96.089-3.86.236-7.732.462-11.593.197-3.448.482-6.887.856-10.326.335-3.055.787-6.101 1.348-9.127a80.219 80.219 0 0 1 1.918-8.037 55.983 55.983 0 0 1 2.597-7.005 41.695 41.695 0 0 1 3.364-6.042 35.072 35.072 0 0 1 4.22-5.119 35.176 35.176 0 0 1 5.134-4.215 40.413 40.413 0 0 1 6.059-3.35 53.64 53.64 0 0 1 7.023-2.584 80.47 80.47 0 0 1 8.046-1.916 125.11 125.11 0 0 1 9.148-1.346c3.443-.373 6.895-.658 10.348-.854 3.875-.226 7.75-.374 11.626-.452 4.328-.098 8.656-.148 12.984-.138h74.126zm.01 4.009c4.298-.01 8.597.039 12.895.127 3.827.089 7.653.236 11.48.452 3.383.197 6.766.472 10.13.845 2.971.315 5.932.747 8.863 1.297a75.943 75.943 0 0 1 7.653 1.818 50.493 50.493 0 0 1 6.501 2.397 37.038 37.038 0 0 1 5.47 3.026 30.383 30.383 0 0 1 4.524 3.724 31.05 31.05 0 0 1 3.738 4.519 37.271 37.271 0 0 1 3.03 5.443 51.46 51.46 0 0 1 2.4 6.494 75.563 75.563 0 0 1 1.829 7.634c.54 2.928.974 5.875 1.298 8.842.374 3.36.65 6.73.846 10.11.217 3.822.374 7.634.453 11.456.088 4.293.137 8.577.137 12.87v58.212c0 4.293-.049 8.577-.137 12.87a317.503 317.503 0 0 1-.453 11.456c-.196 3.38-.472 6.75-.846 10.12a121.689 121.689 0 0 1-1.298 8.832 75.562 75.562 0 0 1-1.83 7.634 50.902 50.902 0 0 1-2.4 6.494 36.767 36.767 0 0 1-3.03 5.443 30.615 30.615 0 0 1-3.737 4.53 30.938 30.938 0 0 1-4.525 3.713 37.038 37.038 0 0 1-5.469 3.026 49.07 49.07 0 0 1-6.501 2.397 75.942 75.942 0 0 1-7.653 1.818c-2.931.55-5.892.982-8.863 1.306-3.364.364-6.747.649-10.13.836-3.827.216-7.653.373-11.48.452-4.298.098-8.597.137-12.895.137H90.932c-4.298 0-8.597-.04-12.895-.137a320.093 320.093 0 0 1-11.48-.452 193.696 193.696 0 0 1-10.13-.836 116.71 116.71 0 0 1-8.863-1.306 75.942 75.942 0 0 1-7.653-1.818 49.07 49.07 0 0 1-6.501-2.397 37.038 37.038 0 0 1-5.47-3.026 30.938 30.938 0 0 1-4.524-3.714 30.615 30.615 0 0 1-3.738-4.529 36.766 36.766 0 0 1-3.03-5.443 50.903 50.903 0 0 1-2.4-6.494 75.567 75.567 0 0 1-1.829-7.634 121.69 121.69 0 0 1-1.298-8.832c-.374-3.37-.65-6.74-.846-10.12a317.535 317.535 0 0 1-.453-11.456 623.851 623.851 0 0 1-.137-12.87V97.014c0-4.293.049-8.577.137-12.87.079-3.822.236-7.634.453-11.456.197-3.38.472-6.75.846-10.11.324-2.967.757-5.914 1.298-8.842a75.568 75.568 0 0 1 1.83-7.634 51.46 51.46 0 0 1 2.4-6.494 37.27 37.27 0 0 1 3.03-5.443 31.05 31.05 0 0 1 3.737-4.52 30.384 30.384 0 0 1 4.525-3.723 37.039 37.039 0 0 1 5.469-3.026 50.494 50.494 0 0 1 6.501-2.397 75.943 75.943 0 0 1 7.653-1.818c2.931-.55 5.892-.982 8.863-1.297 3.364-.373 6.747-.648 10.13-.845a344.71 344.71 0 0 1 11.48-.452c4.298-.088 8.597-.137 12.895-.127H165.078z"
       id="path5" /></g><style
     type="text/css"
     id="style1"><![CDATA[
	.st0{fill-rule:evenodd;clip-rule:evenodd;}
]]></style><path
     class="st0"
     d="m 181.26862,62.840177 3.33615,4.392443 c 0.87588,1.159303 0.65696,2.820949 -0.50231,3.696846 l -3.54226,2.692157 c 0.644,1.713171 1.05624,3.542283 1.22357,5.410031 l 4.03186,0.553886 c 1.44246,0.193221 2.44742,1.53285 2.25417,2.975524 l -0.74717,5.474467 c -0.19312,1.44259 -1.5328,2.46025 -2.97552,2.25416 l -4.40521,-0.6054 c -0.78584,1.7131 -1.79048,3.28462 -2.97552,4.68872 l 2.47294,3.24602 c 0.87605,1.1592 0.64418,2.820889 -0.51521,3.696749 l -4.39219,3.3363 c -1.15939,0.87588 -2.82109,0.64418 -3.69696,-0.50231 l -2.69213,-3.54238 c -1.72616,0.64403 -3.54244,1.05621 -5.42293,1.22361 l -0.5539,4.03192 c -0.19325,1.44266 -1.53286,2.44735 -2.97552,2.25417 L 153.71609,107.37 c -1.44266,-0.19324 -2.44748,-1.53294 -2.25424,-2.97552 l 0.60544,-4.405289 c -1.70028,-0.78584 -3.28472,-1.79046 -4.68876,-2.96275 l -3.24597,2.46031 c -1.15944,0.875809 -2.82114,0.656889 -3.69687,-0.50244 l -3.33612,-4.39233 c -0.87592,-1.15933 -0.65699,-2.82099 0.50232,-3.69691 l 3.54219,-2.69206 c -0.64396,-1.72615 -1.05621,-3.54233 -1.22366,-5.410087 l -4.03174,-0.553883 c -1.44267,-0.193214 -2.46019,-1.532853 -2.25417,-2.975517 l 0.74708,-5.474447 c 0.20608,-1.442683 1.53268,-2.44741 2.97553,-2.254183 l 4.40535,0.605392 c 0.78571,-1.700283 1.79047,-3.284658 2.96263,-4.688678 l -2.46032,-3.246038 c -0.87574,-1.146407 -0.65686,-2.808057 0.50232,-3.683976 l 4.39252,-3.336184 c 1.15932,-0.875905 2.82097,-0.656936 3.69681,0.50236 l 2.69212,3.542295 c 1.71323,-0.644065 3.54227,-1.056255 5.40999,-1.223706 l 0.5539,-4.031778 c 0.19326,-1.44267 1.53294,-2.460267 2.97552,-2.267053 l 5.47453,0.747101 c 1.44248,0.19322 2.46019,1.53284 2.25417,2.975523 l -0.60543,4.405316 c 1.71323,0.78574 3.28472,1.790473 4.70157,2.975523 l 3.24602,-2.460285 c 1.15927,-0.888801 2.82097,-0.669813 3.7098,0.489471 z M 88.254562,125.93148 h 78.497068 c 1.49426,0 2.8596,0.61832 3.8514,1.61011 v 0 l 0.0124,0.0126 0.0131,0.013 v 0 c 0.99197,0.9919 1.59734,2.35733 1.59734,3.85145 v 65.42292 c 0,1.50711 -0.61826,2.87245 -1.61011,3.86417 -0.99176,0.99203 -2.35725,1.61028 -3.86438,1.61028 H 88.255952 c -1.49428,0 -2.85965,-0.60539 -3.86438,-1.61028 l -0.013,-0.0123 v 0 l -0.013,-0.0126 c -0.99184,-0.99192 -1.59726,-2.35732 -1.59726,-3.85158 v -65.43571 c 0.0129,-1.50708 0.6312,-2.87248 1.61013,-3.86427 0.0643,-0.0516 0.11593,-0.11577 0.18035,-0.1676 0.99189,-0.87586 2.27999,-1.42976 3.69694,-1.42976 z m 8.86216,61.98368 c -1.13353,0 -2.06084,-1.01765 -2.06084,-2.25417 0,-1.24952 0.92731,-2.26711 2.06084,-2.26711 h 23.765558 c 1.13353,0 2.06111,1.01759 2.06111,2.26711 0,1.24954 -0.92758,2.26701 -2.06111,2.26701 H 97.116722 Z m 33.555158,0 c -1.14643,0 -2.08664,-1.01765 -2.08664,-2.25417 0,-1.24952 0.92738,-2.26711 2.08664,-2.26711 h 25.63322 c 1.14644,0 2.08676,1.01759 2.08676,2.26711 0,1.24954 -0.92743,2.26701 -2.08676,2.26701 H 130.67188 Z M 95.583922,151.24293 H 158.13444 V 175.7296 H 95.583922 Z m 71.708798,-5.70646 c -0.18037,0.0252 -0.34782,0.0379 -0.52819,0.0379 H 88.254562 c -0.1803,0 -0.36068,-0.0128 -0.52808,-0.0379 v 51.29224 c 0,0.14172 0.0643,0.27062 0.14172,0.37368 v 0 l 0.0136,0.0126 c 0.0902,0.0902 0.21899,0.14169 0.37364,0.14169 h 78.496898 c 0.14173,0 0.27045,-0.0516 0.37358,-0.15453 0.0906,-0.10358 0.16755,-0.23208 0.16755,-0.37365 z m -48.02055,-12.54614 c 1.95793,0 3.55515,1.59734 3.55515,3.55515 0,1.95776 -1.59722,3.55528 -3.55515,3.55528 -1.95788,0 -3.5551,-1.59752 -3.5551,-3.55528 0,-1.95781 1.59722,-3.55515 3.5551,-3.55515 z m -12.43021,0 c 1.97078,0 3.55516,1.59734 3.55516,3.55515 0,1.95776 -1.59722,3.55528 -3.55516,3.55528 -1.95806,0 -3.55515,-1.59752 -3.55515,-3.55528 0,-1.95781 1.59709,-3.55515 3.55515,-3.55515 z m -12.417298,0 c 1.97071,0 3.55515,1.59734 3.55515,3.55515 0,1.95776 -1.59734,3.55528 -3.55515,3.55528 -1.95788,0 -3.55527,-1.59752 -3.55527,-3.55528 0,-1.95781 1.59739,-3.55515 3.55527,-3.55515 z M 126.83332,68.443444 c -2.35732,-0.180343 -4.74019,-0.154569 -7.09741,0.07732 -7.25203,0.695583 -14.29811,3.33618 -20.120238,7.857447 -6.73671,5.216815 -11.85054,13.02276 -13.82135,23.36615 l -0.61828,3.233119 -3.220281,0.5668 c -3.155856,0.5539 -5.976807,1.31388 -8.449972,2.27996 -2.395867,0.92744 -4.534118,2.07375 -6.40186,3.42632 -1.494204,1.08207 -2.782315,2.29284 -3.877188,3.60669 -3.387725,4.05738 -4.95921,9.14567 -4.92059,14.2978 0.03865,5.22979 1.738968,10.51107 4.881933,14.852 1.172168,1.61012 2.524685,3.09157 4.070408,4.37954 1.571486,1.301 3.336192,2.38302 5.319885,3.19464 1.12064,0.46363 2.318574,0.85002 3.568043,1.15919 v 9.64794 c -2.576213,-0.46389 -4.946326,-1.15932 -7.161865,-2.07382 -2.924002,-1.21084 -5.513084,-2.76942 -7.793034,-4.6759 -2.164011,-1.80332 -4.057527,-3.85139 -5.667661,-6.07983 -4.289391,-5.92531 -6.607972,-13.16445 -6.659492,-20.37785 -0.05147,-7.2908 2.215531,-14.54259 7.110336,-20.41644 1.584356,-1.90636 3.452116,-3.65819 5.590367,-5.20372 2.486041,-1.803549 5.332749,-3.323389 8.552996,-4.573049 2.215562,-0.8631 4.58567,-1.58426 7.084588,-2.16396 2.833837,-11.25796 8.875047,-19.926911 16.642247,-25.94237 7.264868,-5.628991 16.011218,-8.913668 25.015168,-9.77669 4.72723,-0.450837 9.51915,-0.244742 14.2077,0.631165 -0.10329,0.425083 -0.19318,0.850159 -0.24476,1.288105 l -0.0126,0.07732 c -0.0907,0.734217 -0.12888,1.46843 -0.0907,2.215537 -0.99174,0.38643 -1.91918,0.914551 -2.75654,1.558609 l -0.0383,0.02579 c -1.24947,0.940316 -2.30566,2.151134 -3.09142,3.542287 z m 68.15358,24.731547 c 0.72154,0.65701 1.41694,1.33974 2.09954,2.07382 1.37837,1.48134 2.67935,3.15594 3.90304,5.023719 4.12175,6.33755 6.23451,14.8003 6.14423,23.08289 -0.0905,8.12797 -2.27988,16.21712 -6.76249,22.16816 -2.92406,3.87723 -6.67234,7.04601 -11.16771,9.55764 -3.07881,1.7262 -6.54363,3.15602 -10.31809,4.3152 v -9.98272 c 2.03544,-0.76005 3.92889,-1.61011 5.66779,-2.57623 3.38774,-1.89346 6.15713,-4.19922 8.23105,-6.96865 3.2203,-4.28934 4.80468,-10.35633 4.86898,-16.57788 0.0768,-6.53068 -1.5199,-13.08727 -4.6242,-17.85314 -0.88869,-1.3783 -1.86773,-2.61487 -2.89827,-3.72261 -0.39929,-0.42502 -0.79867,-0.8244 -1.21098,-1.21085 0.0644,-0.643909 0.091,-1.300989 0.0516,-1.958059 0.99199,-0.38631 1.91931,-0.91441 2.75654,-1.55853 l 0.0381,-0.0256 c 1.32673,-1.01764 2.43443,-2.30566 3.22016,-3.78703 z m -32.66633,-23.00549 c 5.93822,0.811507 10.08584,6.285946 9.27433,12.224109 -0.81151,5.938161 -6.28585,10.098781 -12.22418,9.287201 -5.93803,-0.81146 -10.09867,-6.28589 -9.27427,-12.224079 0.8244,-5.938157 6.28603,-10.098744 12.22412,-9.287231 z"
     id="path1-6"
     style="fill:url(#linearGradient7);stroke-width:1.28809;fill-opacity:1" /></svg>
